M48
;DRILL file {KiCad 5.0.0-rc2-dev-unknown+dfsg1+20180318-3} date Thu May 10 20:41:16 2018
;FORMAT={-:-/ absolute / inch / decimal}
FMAT,2
INCH,TZ
T1C0.0157
T2C0.0197
T3C0.0315
T4C0.0394
%
G90
G05
M72
T1
X4.0709Y-1.0984
X4.0748Y-1.3976
X4.0827Y-2.0787
X4.1142Y-1.0984
X4.122Y-1.4252
X4.1654Y-1.4567
X4.185Y-2.1181
X4.2008Y-1.4921
X4.2441Y-1.5197
X4.6496Y-0.9921
X4.7343Y-1.5846
X4.7343Y-2.7067
X4.7953Y-1.3445
X4.8327Y-1.6142
X4.8327Y-2.6772
X5.0295Y-2.6476
X5.0394Y-1.6437
X5.1378Y-1.6732
X5.1378Y-2.6181
X5.2165Y-1.939
X5.2362Y-1.7028
X5.2362Y-2.5886
X5.315Y-2.0276
X5.3346Y-1.7323
X5.3346Y-2.5591
X5.4085Y-1.3809
X5.4331Y-2.5295
X5.437Y-1.4094
X5.5118Y-1.4764
X5.5118Y-2.2146
X5.5709Y-2.2146
X5.6024Y-1.5157
X5.6102Y-2.0591
X5.6398Y-1.5846
X5.6398Y-2.7067
X5.6535Y-1.4449
X5.7382Y-1.6142
X5.7382Y-2.6772
X5.935Y-1.6437
X5.935Y-2.6476
X6.0433Y-1.6732
X6.0433Y-2.6181
X6.1417Y-1.7028
X6.1417Y-2.1555
X6.1417Y-2.5886
X6.2402Y-1.7323
X6.2402Y-2.185
X6.2402Y-2.5591
X6.3386Y-2.0866
X6.3386Y-2.5295
X6.5453Y-1.5846
X6.5453Y-2.7067
X6.6339Y-1.6142
X6.6437Y-2.6772
X6.7421Y-2.0571
X6.8406Y-1.6437
X6.8406Y-2.6476
X6.939Y-1.6732
X6.939Y-2.6181
X7.0472Y-1.7028
X7.0472Y-2.2146
X7.0472Y-2.5886
X7.1457Y-1.7323
X7.1457Y-2.2441
X7.1457Y-2.5591
X7.2441Y-2.5295
X7.3425Y-2.2933
T2
X4.2441Y-1.0945
X4.2441Y-1.1378
X4.4252Y-1.2992
X4.5197Y-1.0236
X5.0354Y-1.2008
X5.1742Y-2.1782
X5.6388Y-1.2598
T3
X6.0496Y-1.437
X6.1496Y-1.437
X3.8287Y-1.8307
X3.8287Y-2.4307
X3.9287Y-1.8307
X3.9287Y-2.4307
X4.0287Y-1.8307
X4.0287Y-2.4307
X4.1287Y-1.8307
X4.1287Y-2.4307
X4.2287Y-1.8307
X4.2287Y-2.4307
X4.3287Y-1.8307
X4.3287Y-2.4307
X4.4287Y-1.8307
X4.4287Y-2.4307
X4.5287Y-1.8307
X4.5287Y-2.4307
X4.6287Y-1.8307
X4.6287Y-2.4307
X5.6398Y-1.8307
X5.6398Y-2.4307
X5.7398Y-1.8307
X5.7398Y-2.4307
X5.8398Y-1.8307
X5.8398Y-2.4307
X5.9398Y-1.8307
X5.9398Y-2.4307
X6.0398Y-1.8307
X6.0398Y-2.4307
X6.1398Y-1.8307
X6.1398Y-2.4307
X6.2398Y-1.8307
X6.2398Y-2.4307
X6.3398Y-1.8307
X6.3398Y-2.4307
X6.4398Y-1.8307
X6.4398Y-2.4307
X6.5453Y-1.8307
X6.5453Y-2.4307
X6.6453Y-1.8307
X6.6453Y-2.4307
X6.7453Y-1.8307
X6.7453Y-2.4307
X6.8453Y-1.8307
X6.8453Y-2.4307
X6.9453Y-1.8307
X6.9453Y-2.4307
X7.0453Y-1.8307
X7.0453Y-2.4307
X7.1453Y-1.8307
X7.1453Y-2.4307
X7.2453Y-1.8307
X7.2453Y-2.4307
X7.3453Y-1.8307
X7.3453Y-2.4307
X4.7343Y-1.8307
X4.7343Y-2.4307
X4.8343Y-1.8307
X4.8343Y-2.4307
X4.9343Y-1.8307
X4.9343Y-2.4307
X5.0343Y-1.8307
X5.0343Y-2.4307
X5.1343Y-1.8307
X5.1343Y-2.4307
X5.2343Y-1.8307
X5.2343Y-2.4307
X5.3343Y-1.8307
X5.3343Y-2.4307
X5.4343Y-1.8307
X5.4343Y-2.4307
X5.5343Y-1.8307
X5.5343Y-2.4307
T4
X6.3488Y-1.2244
X6.4488Y-1.2244
X6.8346Y-1.2913
X6.8346Y-1.3913
X6.6457Y-1.2913
X6.6457Y-1.3913
T0
M30
