G04 #@! TF.GenerationSoftware,KiCad,Pcbnew,5.0.0-rc2-dev-unknown+dfsg1+20180318-3*
G04 #@! TF.CreationDate,2018-05-22T19:00:54-07:00*
G04 #@! TF.ProjectId,DC26Badge,4443323642616467652E6B696361645F,rev?*
G04 #@! TF.SameCoordinates,Original*
G04 #@! TF.FileFunction,Legend,Top*
G04 #@! TF.FilePolarity,Positive*
%FSLAX46Y46*%
G04 Gerber Fmt 4.6, Leading zero omitted, Abs format (unit mm)*
G04 Created by KiCad (PCBNEW 5.0.0-rc2-dev-unknown+dfsg1+20180318-3) date Tue May 22 19:00:54 2018*
%MOMM*%
%LPD*%
G01*
G04 APERTURE LIST*
%ADD10C,0.300000*%
%ADD11C,0.150000*%
%ADD12C,0.120000*%
%ADD13R,1.600000X1.160000*%
%ADD14C,2.400000*%
%ADD15C,3.600000*%
%ADD16R,6.750000X5.480000*%
%ADD17C,2.381200*%
%ADD18R,1.400000X1.070000*%
%ADD19R,1.070000X1.400000*%
%ADD20O,1.670000X2.400000*%
%ADD21R,1.200000X2.300000*%
%ADD22C,1.150000*%
%ADD23C,1.450000*%
%ADD24R,2.900000X1.600000*%
%ADD25C,1.300000*%
%ADD26R,2.400000X1.100000*%
G04 APERTURE END LIST*
D10*
X148992857Y-124528571D02*
X148992857Y-123028571D01*
X149350000Y-123028571D01*
X149564285Y-123100000D01*
X149707142Y-123242857D01*
X149778571Y-123385714D01*
X149850000Y-123671428D01*
X149850000Y-123885714D01*
X149778571Y-124171428D01*
X149707142Y-124314285D01*
X149564285Y-124457142D01*
X149350000Y-124528571D01*
X148992857Y-124528571D01*
X150492857Y-123742857D02*
X150992857Y-123742857D01*
X151207142Y-124528571D02*
X150492857Y-124528571D01*
X150492857Y-123028571D01*
X151207142Y-123028571D01*
X152350000Y-123742857D02*
X151850000Y-123742857D01*
X151850000Y-124528571D02*
X151850000Y-123028571D01*
X152564285Y-123028571D01*
X155135714Y-124385714D02*
X155064285Y-124457142D01*
X154850000Y-124528571D01*
X154707142Y-124528571D01*
X154492857Y-124457142D01*
X154350000Y-124314285D01*
X154278571Y-124171428D01*
X154207142Y-123885714D01*
X154207142Y-123671428D01*
X154278571Y-123385714D01*
X154350000Y-123242857D01*
X154492857Y-123100000D01*
X154707142Y-123028571D01*
X154850000Y-123028571D01*
X155064285Y-123100000D01*
X155135714Y-123171428D01*
X156064285Y-123028571D02*
X156350000Y-123028571D01*
X156492857Y-123100000D01*
X156635714Y-123242857D01*
X156707142Y-123528571D01*
X156707142Y-124028571D01*
X156635714Y-124314285D01*
X156492857Y-124457142D01*
X156350000Y-124528571D01*
X156064285Y-124528571D01*
X155921428Y-124457142D01*
X155778571Y-124314285D01*
X155707142Y-124028571D01*
X155707142Y-123528571D01*
X155778571Y-123242857D01*
X155921428Y-123100000D01*
X156064285Y-123028571D01*
X157350000Y-124528571D02*
X157350000Y-123028571D01*
X158207142Y-124528571D01*
X158207142Y-123028571D01*
X159992857Y-123171428D02*
X160064285Y-123100000D01*
X160207142Y-123028571D01*
X160564285Y-123028571D01*
X160707142Y-123100000D01*
X160778571Y-123171428D01*
X160850000Y-123314285D01*
X160850000Y-123457142D01*
X160778571Y-123671428D01*
X159921428Y-124528571D01*
X160850000Y-124528571D01*
X162135714Y-123028571D02*
X161850000Y-123028571D01*
X161707142Y-123100000D01*
X161635714Y-123171428D01*
X161492857Y-123385714D01*
X161421428Y-123671428D01*
X161421428Y-124242857D01*
X161492857Y-124385714D01*
X161564285Y-124457142D01*
X161707142Y-124528571D01*
X161992857Y-124528571D01*
X162135714Y-124457142D01*
X162207142Y-124385714D01*
X162278571Y-124242857D01*
X162278571Y-123885714D01*
X162207142Y-123742857D01*
X162135714Y-123671428D01*
X161992857Y-123600000D01*
X161707142Y-123600000D01*
X161564285Y-123671428D01*
X161492857Y-123742857D01*
X161421428Y-123885714D01*
X144742857Y-126650000D02*
X145457142Y-126650000D01*
X144600000Y-127078571D02*
X145100000Y-125578571D01*
X145600000Y-127078571D01*
X146742857Y-126078571D02*
X146742857Y-127078571D01*
X146100000Y-126078571D02*
X146100000Y-126864285D01*
X146171428Y-127007142D01*
X146314285Y-127078571D01*
X146528571Y-127078571D01*
X146671428Y-127007142D01*
X146742857Y-126935714D01*
X148100000Y-126078571D02*
X148100000Y-127292857D01*
X148028571Y-127435714D01*
X147957142Y-127507142D01*
X147814285Y-127578571D01*
X147600000Y-127578571D01*
X147457142Y-127507142D01*
X148100000Y-127007142D02*
X147957142Y-127078571D01*
X147671428Y-127078571D01*
X147528571Y-127007142D01*
X147457142Y-126935714D01*
X147385714Y-126792857D01*
X147385714Y-126364285D01*
X147457142Y-126221428D01*
X147528571Y-126150000D01*
X147671428Y-126078571D01*
X147957142Y-126078571D01*
X148100000Y-126150000D01*
X149457142Y-126078571D02*
X149457142Y-127078571D01*
X148814285Y-126078571D02*
X148814285Y-126864285D01*
X148885714Y-127007142D01*
X149028571Y-127078571D01*
X149242857Y-127078571D01*
X149385714Y-127007142D01*
X149457142Y-126935714D01*
X150100000Y-127007142D02*
X150242857Y-127078571D01*
X150528571Y-127078571D01*
X150671428Y-127007142D01*
X150742857Y-126864285D01*
X150742857Y-126792857D01*
X150671428Y-126650000D01*
X150528571Y-126578571D01*
X150314285Y-126578571D01*
X150171428Y-126507142D01*
X150100000Y-126364285D01*
X150100000Y-126292857D01*
X150171428Y-126150000D01*
X150314285Y-126078571D01*
X150528571Y-126078571D01*
X150671428Y-126150000D01*
X151171428Y-126078571D02*
X151742857Y-126078571D01*
X151385714Y-125578571D02*
X151385714Y-126864285D01*
X151457142Y-127007142D01*
X151600000Y-127078571D01*
X151742857Y-127078571D01*
X153457142Y-127078571D02*
X153742857Y-127078571D01*
X153885714Y-127007142D01*
X153957142Y-126935714D01*
X154100000Y-126721428D01*
X154171428Y-126435714D01*
X154171428Y-125864285D01*
X154100000Y-125721428D01*
X154028571Y-125650000D01*
X153885714Y-125578571D01*
X153600000Y-125578571D01*
X153457142Y-125650000D01*
X153385714Y-125721428D01*
X153314285Y-125864285D01*
X153314285Y-126221428D01*
X153385714Y-126364285D01*
X153457142Y-126435714D01*
X153600000Y-126507142D01*
X153885714Y-126507142D01*
X154028571Y-126435714D01*
X154100000Y-126364285D01*
X154171428Y-126221428D01*
X154814285Y-126507142D02*
X155957142Y-126507142D01*
X157457142Y-127078571D02*
X156600000Y-127078571D01*
X157028571Y-127078571D02*
X157028571Y-125578571D01*
X156885714Y-125792857D01*
X156742857Y-125935714D01*
X156600000Y-126007142D01*
X158028571Y-125721428D02*
X158100000Y-125650000D01*
X158242857Y-125578571D01*
X158600000Y-125578571D01*
X158742857Y-125650000D01*
X158814285Y-125721428D01*
X158885714Y-125864285D01*
X158885714Y-126007142D01*
X158814285Y-126221428D01*
X157957142Y-127078571D01*
X158885714Y-127078571D01*
X159600000Y-127007142D02*
X159600000Y-127078571D01*
X159528571Y-127221428D01*
X159457142Y-127292857D01*
X161314285Y-125721428D02*
X161385714Y-125650000D01*
X161528571Y-125578571D01*
X161885714Y-125578571D01*
X162028571Y-125650000D01*
X162100000Y-125721428D01*
X162171428Y-125864285D01*
X162171428Y-126007142D01*
X162100000Y-126221428D01*
X161242857Y-127078571D01*
X162171428Y-127078571D01*
X163100000Y-125578571D02*
X163242857Y-125578571D01*
X163385714Y-125650000D01*
X163457142Y-125721428D01*
X163528571Y-125864285D01*
X163600000Y-126150000D01*
X163600000Y-126507142D01*
X163528571Y-126792857D01*
X163457142Y-126935714D01*
X163385714Y-127007142D01*
X163242857Y-127078571D01*
X163100000Y-127078571D01*
X162957142Y-127007142D01*
X162885714Y-126935714D01*
X162814285Y-126792857D01*
X162742857Y-126507142D01*
X162742857Y-126150000D01*
X162814285Y-125864285D01*
X162885714Y-125721428D01*
X162957142Y-125650000D01*
X163100000Y-125578571D01*
X165028571Y-127078571D02*
X164171428Y-127078571D01*
X164600000Y-127078571D02*
X164600000Y-125578571D01*
X164457142Y-125792857D01*
X164314285Y-125935714D01*
X164171428Y-126007142D01*
X165885714Y-126221428D02*
X165742857Y-126150000D01*
X165671428Y-126078571D01*
X165600000Y-125935714D01*
X165600000Y-125864285D01*
X165671428Y-125721428D01*
X165742857Y-125650000D01*
X165885714Y-125578571D01*
X166171428Y-125578571D01*
X166314285Y-125650000D01*
X166385714Y-125721428D01*
X166457142Y-125864285D01*
X166457142Y-125935714D01*
X166385714Y-126078571D01*
X166314285Y-126150000D01*
X166171428Y-126221428D01*
X165885714Y-126221428D01*
X165742857Y-126292857D01*
X165671428Y-126364285D01*
X165600000Y-126507142D01*
X165600000Y-126792857D01*
X165671428Y-126935714D01*
X165742857Y-127007142D01*
X165885714Y-127078571D01*
X166171428Y-127078571D01*
X166314285Y-127007142D01*
X166385714Y-126935714D01*
X166457142Y-126792857D01*
X166457142Y-126507142D01*
X166385714Y-126364285D01*
X166314285Y-126292857D01*
X166171428Y-126221428D01*
X144778571Y-129628571D02*
X144778571Y-128128571D01*
X145135714Y-128128571D01*
X145350000Y-128200000D01*
X145492857Y-128342857D01*
X145564285Y-128485714D01*
X145635714Y-128771428D01*
X145635714Y-128985714D01*
X145564285Y-129271428D01*
X145492857Y-129414285D01*
X145350000Y-129557142D01*
X145135714Y-129628571D01*
X144778571Y-129628571D01*
X146850000Y-129557142D02*
X146707142Y-129628571D01*
X146421428Y-129628571D01*
X146278571Y-129557142D01*
X146207142Y-129414285D01*
X146207142Y-128842857D01*
X146278571Y-128700000D01*
X146421428Y-128628571D01*
X146707142Y-128628571D01*
X146850000Y-128700000D01*
X146921428Y-128842857D01*
X146921428Y-128985714D01*
X146207142Y-129128571D01*
X147492857Y-129557142D02*
X147635714Y-129628571D01*
X147921428Y-129628571D01*
X148064285Y-129557142D01*
X148135714Y-129414285D01*
X148135714Y-129342857D01*
X148064285Y-129200000D01*
X147921428Y-129128571D01*
X147707142Y-129128571D01*
X147564285Y-129057142D01*
X147492857Y-128914285D01*
X147492857Y-128842857D01*
X147564285Y-128700000D01*
X147707142Y-128628571D01*
X147921428Y-128628571D01*
X148064285Y-128700000D01*
X148778571Y-129628571D02*
X148778571Y-128628571D01*
X148778571Y-128128571D02*
X148707142Y-128200000D01*
X148778571Y-128271428D01*
X148850000Y-128200000D01*
X148778571Y-128128571D01*
X148778571Y-128271428D01*
X150135714Y-128628571D02*
X150135714Y-129842857D01*
X150064285Y-129985714D01*
X149992857Y-130057142D01*
X149850000Y-130128571D01*
X149635714Y-130128571D01*
X149492857Y-130057142D01*
X150135714Y-129557142D02*
X149992857Y-129628571D01*
X149707142Y-129628571D01*
X149564285Y-129557142D01*
X149492857Y-129485714D01*
X149421428Y-129342857D01*
X149421428Y-128914285D01*
X149492857Y-128771428D01*
X149564285Y-128700000D01*
X149707142Y-128628571D01*
X149992857Y-128628571D01*
X150135714Y-128700000D01*
X150850000Y-128628571D02*
X150850000Y-129628571D01*
X150850000Y-128771428D02*
X150921428Y-128700000D01*
X151064285Y-128628571D01*
X151278571Y-128628571D01*
X151421428Y-128700000D01*
X151492857Y-128842857D01*
X151492857Y-129628571D01*
X152778571Y-129557142D02*
X152635714Y-129628571D01*
X152350000Y-129628571D01*
X152207142Y-129557142D01*
X152135714Y-129414285D01*
X152135714Y-128842857D01*
X152207142Y-128700000D01*
X152350000Y-128628571D01*
X152635714Y-128628571D01*
X152778571Y-128700000D01*
X152850000Y-128842857D01*
X152850000Y-128985714D01*
X152135714Y-129128571D01*
X154135714Y-129628571D02*
X154135714Y-128128571D01*
X154135714Y-129557142D02*
X153992857Y-129628571D01*
X153707142Y-129628571D01*
X153564285Y-129557142D01*
X153492857Y-129485714D01*
X153421428Y-129342857D01*
X153421428Y-128914285D01*
X153492857Y-128771428D01*
X153564285Y-128700000D01*
X153707142Y-128628571D01*
X153992857Y-128628571D01*
X154135714Y-128700000D01*
X155992857Y-129628571D02*
X155992857Y-128128571D01*
X155992857Y-128700000D02*
X156135714Y-128628571D01*
X156421428Y-128628571D01*
X156564285Y-128700000D01*
X156635714Y-128771428D01*
X156707142Y-128914285D01*
X156707142Y-129342857D01*
X156635714Y-129485714D01*
X156564285Y-129557142D01*
X156421428Y-129628571D01*
X156135714Y-129628571D01*
X155992857Y-129557142D01*
X157207142Y-128628571D02*
X157564285Y-129628571D01*
X157921428Y-128628571D02*
X157564285Y-129628571D01*
X157421428Y-129985714D01*
X157350000Y-130057142D01*
X157207142Y-130128571D01*
X160564285Y-128914285D02*
X160492857Y-128842857D01*
X160350000Y-128771428D01*
X160207142Y-128771428D01*
X160064285Y-128842857D01*
X159992857Y-128914285D01*
X159921428Y-129057142D01*
X159921428Y-129200000D01*
X159992857Y-129342857D01*
X160064285Y-129414285D01*
X160207142Y-129485714D01*
X160350000Y-129485714D01*
X160492857Y-129414285D01*
X160564285Y-129342857D01*
X160564285Y-128771428D02*
X160564285Y-129342857D01*
X160635714Y-129414285D01*
X160707142Y-129414285D01*
X160850000Y-129342857D01*
X160921428Y-129200000D01*
X160921428Y-128842857D01*
X160778571Y-128628571D01*
X160564285Y-128485714D01*
X160278571Y-128414285D01*
X159992857Y-128485714D01*
X159778571Y-128628571D01*
X159635714Y-128842857D01*
X159564285Y-129128571D01*
X159635714Y-129414285D01*
X159778571Y-129628571D01*
X159992857Y-129771428D01*
X160278571Y-129842857D01*
X160564285Y-129771428D01*
X160778571Y-129628571D01*
X161564285Y-129628571D02*
X161564285Y-128128571D01*
X162064285Y-129200000D01*
X162564285Y-128128571D01*
X162564285Y-129628571D01*
X163921428Y-129628571D02*
X163921428Y-128842857D01*
X163850000Y-128700000D01*
X163707142Y-128628571D01*
X163421428Y-128628571D01*
X163278571Y-128700000D01*
X163921428Y-129557142D02*
X163778571Y-129628571D01*
X163421428Y-129628571D01*
X163278571Y-129557142D01*
X163207142Y-129414285D01*
X163207142Y-129271428D01*
X163278571Y-129128571D01*
X163421428Y-129057142D01*
X163778571Y-129057142D01*
X163921428Y-128985714D01*
X164421428Y-128628571D02*
X164992857Y-128628571D01*
X164635714Y-128128571D02*
X164635714Y-129414285D01*
X164707142Y-129557142D01*
X164850000Y-129628571D01*
X164992857Y-129628571D01*
X165492857Y-129628571D02*
X165492857Y-128628571D01*
X165492857Y-128128571D02*
X165421428Y-128200000D01*
X165492857Y-128271428D01*
X165564285Y-128200000D01*
X165492857Y-128128571D01*
X165492857Y-128271428D01*
X166207142Y-129628571D02*
X166207142Y-128628571D01*
X166207142Y-128914285D02*
X166278571Y-128771428D01*
X166350000Y-128700000D01*
X166492857Y-128628571D01*
X166635714Y-128628571D01*
D11*
X177600000Y-50415000D02*
X178400000Y-49615000D01*
X178400000Y-49615000D02*
X183900000Y-49615000D01*
X183900000Y-49615000D02*
X183900000Y-67885000D01*
X183900000Y-67885000D02*
X177600000Y-67885000D01*
X177600000Y-67885000D02*
X177600000Y-50415000D01*
D12*
X184990000Y-47530000D02*
X184990000Y-47970000D01*
X186010000Y-47530000D02*
X186010000Y-47970000D01*
X154990000Y-47970000D02*
X154990000Y-47530000D01*
X156010000Y-47970000D02*
X156010000Y-47530000D01*
X153760000Y-47970000D02*
X153760000Y-47530000D01*
X152740000Y-47970000D02*
X152740000Y-47530000D01*
X188845000Y-115510000D02*
X188405000Y-115510000D01*
X188845000Y-114490000D02*
X188405000Y-114490000D01*
X132725000Y-50440000D02*
X130455000Y-50440000D01*
X130455000Y-50440000D02*
X130455000Y-51960000D01*
X130455000Y-51960000D02*
X132725000Y-51960000D01*
X192080000Y-109240000D02*
X191150000Y-109240000D01*
X188920000Y-109240000D02*
X189850000Y-109240000D01*
X188920000Y-109240000D02*
X188920000Y-112400000D01*
X192080000Y-109240000D02*
X192080000Y-110700000D01*
X131580000Y-47290000D02*
X132020000Y-47290000D01*
X131580000Y-48310000D02*
X132020000Y-48310000D01*
D11*
X137750000Y-33800000D02*
X138550000Y-33000000D01*
X138550000Y-33000000D02*
X149250000Y-33000000D01*
X149250000Y-39300000D02*
X149250000Y-48700000D01*
X149250000Y-48700000D02*
X137750000Y-48700000D01*
X137750000Y-48700000D02*
X137750000Y-40100000D01*
X149250000Y-39300000D02*
X149250000Y-33000000D01*
X137750000Y-40100000D02*
X137750000Y-33800000D01*
X179988095Y-48067380D02*
X179988095Y-48876904D01*
X180035714Y-48972142D01*
X180083333Y-49019761D01*
X180178571Y-49067380D01*
X180369047Y-49067380D01*
X180464285Y-49019761D01*
X180511904Y-48972142D01*
X180559523Y-48876904D01*
X180559523Y-48067380D01*
X181559523Y-49067380D02*
X180988095Y-49067380D01*
X181273809Y-49067380D02*
X181273809Y-48067380D01*
X181178571Y-48210238D01*
X181083333Y-48305476D01*
X180988095Y-48353095D01*
X155095238Y-115834571D02*
X155238095Y-115882190D01*
X155285714Y-115929809D01*
X155333333Y-116025047D01*
X155333333Y-116167904D01*
X155285714Y-116263142D01*
X155238095Y-116310761D01*
X155142857Y-116358380D01*
X154761904Y-116358380D01*
X154761904Y-115358380D01*
X155095238Y-115358380D01*
X155190476Y-115406000D01*
X155238095Y-115453619D01*
X155285714Y-115548857D01*
X155285714Y-115644095D01*
X155238095Y-115739333D01*
X155190476Y-115786952D01*
X155095238Y-115834571D01*
X154761904Y-115834571D01*
X156285714Y-116358380D02*
X155714285Y-116358380D01*
X156000000Y-116358380D02*
X156000000Y-115358380D01*
X155904761Y-115501238D01*
X155809523Y-115596476D01*
X155714285Y-115644095D01*
X187507142Y-47916666D02*
X187554761Y-47964285D01*
X187602380Y-48107142D01*
X187602380Y-48202380D01*
X187554761Y-48345238D01*
X187459523Y-48440476D01*
X187364285Y-48488095D01*
X187173809Y-48535714D01*
X187030952Y-48535714D01*
X186840476Y-48488095D01*
X186745238Y-48440476D01*
X186650000Y-48345238D01*
X186602380Y-48202380D01*
X186602380Y-48107142D01*
X186650000Y-47964285D01*
X186697619Y-47916666D01*
X187602380Y-46964285D02*
X187602380Y-47535714D01*
X187602380Y-47250000D02*
X186602380Y-47250000D01*
X186745238Y-47345238D01*
X186840476Y-47440476D01*
X186888095Y-47535714D01*
X154207142Y-47916666D02*
X154254761Y-47964285D01*
X154302380Y-48107142D01*
X154302380Y-48202380D01*
X154254761Y-48345238D01*
X154159523Y-48440476D01*
X154064285Y-48488095D01*
X153873809Y-48535714D01*
X153730952Y-48535714D01*
X153540476Y-48488095D01*
X153445238Y-48440476D01*
X153350000Y-48345238D01*
X153302380Y-48202380D01*
X153302380Y-48107142D01*
X153350000Y-47964285D01*
X153397619Y-47916666D01*
X153397619Y-47535714D02*
X153350000Y-47488095D01*
X153302380Y-47392857D01*
X153302380Y-47154761D01*
X153350000Y-47059523D01*
X153397619Y-47011904D01*
X153492857Y-46964285D01*
X153588095Y-46964285D01*
X153730952Y-47011904D01*
X154302380Y-47583333D01*
X154302380Y-46964285D01*
X151957142Y-47916666D02*
X152004761Y-47964285D01*
X152052380Y-48107142D01*
X152052380Y-48202380D01*
X152004761Y-48345238D01*
X151909523Y-48440476D01*
X151814285Y-48488095D01*
X151623809Y-48535714D01*
X151480952Y-48535714D01*
X151290476Y-48488095D01*
X151195238Y-48440476D01*
X151100000Y-48345238D01*
X151052380Y-48202380D01*
X151052380Y-48107142D01*
X151100000Y-47964285D01*
X151147619Y-47916666D01*
X151052380Y-47583333D02*
X151052380Y-46964285D01*
X151433333Y-47297619D01*
X151433333Y-47154761D01*
X151480952Y-47059523D01*
X151528571Y-47011904D01*
X151623809Y-46964285D01*
X151861904Y-46964285D01*
X151957142Y-47011904D01*
X152004761Y-47059523D01*
X152052380Y-47154761D01*
X152052380Y-47440476D01*
X152004761Y-47535714D01*
X151957142Y-47583333D01*
X188458333Y-117007142D02*
X188410714Y-117054761D01*
X188267857Y-117102380D01*
X188172619Y-117102380D01*
X188029761Y-117054761D01*
X187934523Y-116959523D01*
X187886904Y-116864285D01*
X187839285Y-116673809D01*
X187839285Y-116530952D01*
X187886904Y-116340476D01*
X187934523Y-116245238D01*
X188029761Y-116150000D01*
X188172619Y-116102380D01*
X188267857Y-116102380D01*
X188410714Y-116150000D01*
X188458333Y-116197619D01*
X189315476Y-116435714D02*
X189315476Y-117102380D01*
X189077380Y-116054761D02*
X188839285Y-116769047D01*
X189458333Y-116769047D01*
X131186904Y-50002380D02*
X131186904Y-49002380D01*
X131425000Y-49002380D01*
X131567857Y-49050000D01*
X131663095Y-49145238D01*
X131710714Y-49240476D01*
X131758333Y-49430952D01*
X131758333Y-49573809D01*
X131710714Y-49764285D01*
X131663095Y-49859523D01*
X131567857Y-49954761D01*
X131425000Y-50002380D01*
X131186904Y-50002380D01*
X132710714Y-50002380D02*
X132139285Y-50002380D01*
X132425000Y-50002380D02*
X132425000Y-49002380D01*
X132329761Y-49145238D01*
X132234523Y-49240476D01*
X132139285Y-49288095D01*
X188547619Y-110095238D02*
X188500000Y-110190476D01*
X188404761Y-110285714D01*
X188261904Y-110428571D01*
X188214285Y-110523809D01*
X188214285Y-110619047D01*
X188452380Y-110571428D02*
X188404761Y-110666666D01*
X188309523Y-110761904D01*
X188119047Y-110809523D01*
X187785714Y-110809523D01*
X187595238Y-110761904D01*
X187500000Y-110666666D01*
X187452380Y-110571428D01*
X187452380Y-110380952D01*
X187500000Y-110285714D01*
X187595238Y-110190476D01*
X187785714Y-110142857D01*
X188119047Y-110142857D01*
X188309523Y-110190476D01*
X188404761Y-110285714D01*
X188452380Y-110380952D01*
X188452380Y-110571428D01*
X188452380Y-109190476D02*
X188452380Y-109761904D01*
X188452380Y-109476190D02*
X187452380Y-109476190D01*
X187595238Y-109571428D01*
X187690476Y-109666666D01*
X187738095Y-109761904D01*
X131633333Y-46602380D02*
X131300000Y-46126190D01*
X131061904Y-46602380D02*
X131061904Y-45602380D01*
X131442857Y-45602380D01*
X131538095Y-45650000D01*
X131585714Y-45697619D01*
X131633333Y-45792857D01*
X131633333Y-45935714D01*
X131585714Y-46030952D01*
X131538095Y-46078571D01*
X131442857Y-46126190D01*
X131061904Y-46126190D01*
X132014285Y-45697619D02*
X132061904Y-45650000D01*
X132157142Y-45602380D01*
X132395238Y-45602380D01*
X132490476Y-45650000D01*
X132538095Y-45697619D01*
X132585714Y-45792857D01*
X132585714Y-45888095D01*
X132538095Y-46030952D01*
X131966666Y-46602380D01*
X132585714Y-46602380D01*
X195936761Y-99547333D02*
X195984380Y-99404476D01*
X195984380Y-99166380D01*
X195936761Y-99071142D01*
X195889142Y-99023523D01*
X195793904Y-98975904D01*
X195698666Y-98975904D01*
X195603428Y-99023523D01*
X195555809Y-99071142D01*
X195508190Y-99166380D01*
X195460571Y-99356857D01*
X195412952Y-99452095D01*
X195365333Y-99499714D01*
X195270095Y-99547333D01*
X195174857Y-99547333D01*
X195079619Y-99499714D01*
X195032000Y-99452095D01*
X194984380Y-99356857D01*
X194984380Y-99118761D01*
X195032000Y-98975904D01*
X194984380Y-98642571D02*
X195984380Y-98404476D01*
X195270095Y-98214000D01*
X195984380Y-98023523D01*
X194984380Y-97785428D01*
X195079619Y-97452095D02*
X195032000Y-97404476D01*
X194984380Y-97309238D01*
X194984380Y-97071142D01*
X195032000Y-96975904D01*
X195079619Y-96928285D01*
X195174857Y-96880666D01*
X195270095Y-96880666D01*
X195412952Y-96928285D01*
X195984380Y-97499714D01*
X195984380Y-96880666D01*
X142738095Y-49452380D02*
X142738095Y-50261904D01*
X142785714Y-50357142D01*
X142833333Y-50404761D01*
X142928571Y-50452380D01*
X143119047Y-50452380D01*
X143214285Y-50404761D01*
X143261904Y-50357142D01*
X143309523Y-50261904D01*
X143309523Y-49452380D01*
X143738095Y-49547619D02*
X143785714Y-49500000D01*
X143880952Y-49452380D01*
X144119047Y-49452380D01*
X144214285Y-49500000D01*
X144261904Y-49547619D01*
X144309523Y-49642857D01*
X144309523Y-49738095D01*
X144261904Y-49880952D01*
X143690476Y-50452380D01*
X144309523Y-50452380D01*
%LPC*%
D13*
X185520000Y-50495000D03*
X175980000Y-50495000D03*
X185520000Y-51765000D03*
X175980000Y-51765000D03*
X185520000Y-53035000D03*
X175980000Y-53035000D03*
X185520000Y-54305000D03*
X175980000Y-54305000D03*
X185520000Y-55575000D03*
X175980000Y-55575000D03*
X185520000Y-56845000D03*
X175980000Y-56845000D03*
X185520000Y-58115000D03*
X175980000Y-58115000D03*
X185520000Y-59385000D03*
X175980000Y-59385000D03*
X185520000Y-60655000D03*
X175980000Y-60655000D03*
X185520000Y-61925000D03*
X175980000Y-61925000D03*
X185520000Y-63195000D03*
X175980000Y-63195000D03*
X185520000Y-64465000D03*
X175980000Y-64465000D03*
X185520000Y-65735000D03*
X175980000Y-65735000D03*
X185520000Y-67005000D03*
X175980000Y-67005000D03*
D14*
X163290000Y-42250000D03*
X160750000Y-42250000D03*
X158210000Y-42250000D03*
X155670000Y-42250000D03*
D15*
X155500000Y-31500000D03*
D16*
X183059000Y-100539000D03*
X127941000Y-100539000D03*
X127941000Y-111461000D03*
X183059000Y-111461000D03*
D17*
X131103300Y-95916200D03*
D18*
X185500000Y-48625000D03*
X185500000Y-46875000D03*
X155500000Y-48625000D03*
X155500000Y-46875000D03*
X153250000Y-46875000D03*
X153250000Y-48625000D03*
D19*
X189500000Y-115000000D03*
X187750000Y-115000000D03*
X131050000Y-51200000D03*
X132800000Y-51200000D03*
D20*
X183215000Y-88120000D03*
X183215000Y-72880000D03*
X185755000Y-88120000D03*
X185755000Y-72880000D03*
X188295000Y-88120000D03*
X188295000Y-72880000D03*
X190835000Y-88120000D03*
X190835000Y-72880000D03*
X193375000Y-88120000D03*
X193375000Y-72880000D03*
X195915000Y-88120000D03*
X195915000Y-72880000D03*
X198455000Y-88120000D03*
X198455000Y-72880000D03*
X200995000Y-88120000D03*
X200995000Y-72880000D03*
X203535000Y-88120000D03*
X203535000Y-72880000D03*
X178285000Y-72880000D03*
X178285000Y-88120000D03*
X175745000Y-72880000D03*
X175745000Y-88120000D03*
X173205000Y-72880000D03*
X173205000Y-88120000D03*
X170665000Y-72880000D03*
X170665000Y-88120000D03*
X168125000Y-72880000D03*
X168125000Y-88120000D03*
X165585000Y-72880000D03*
X165585000Y-88120000D03*
X163045000Y-72880000D03*
X163045000Y-88120000D03*
X160505000Y-72880000D03*
X160505000Y-88120000D03*
X157965000Y-72880000D03*
X157965000Y-88120000D03*
X153035000Y-72880000D03*
X153035000Y-88120000D03*
X150495000Y-72880000D03*
X150495000Y-88120000D03*
X147955000Y-72880000D03*
X147955000Y-88120000D03*
X145415000Y-72880000D03*
X145415000Y-88120000D03*
X142875000Y-72880000D03*
X142875000Y-88120000D03*
X140335000Y-72880000D03*
X140335000Y-88120000D03*
X137795000Y-72880000D03*
X137795000Y-88120000D03*
X135255000Y-72880000D03*
X135255000Y-88120000D03*
X132715000Y-72880000D03*
X132715000Y-88120000D03*
X107465000Y-88120000D03*
X107465000Y-72880000D03*
X110005000Y-88120000D03*
X110005000Y-72880000D03*
X112545000Y-88120000D03*
X112545000Y-72880000D03*
X115085000Y-88120000D03*
X115085000Y-72880000D03*
X117625000Y-88120000D03*
X117625000Y-72880000D03*
X120165000Y-88120000D03*
X120165000Y-72880000D03*
X122705000Y-88120000D03*
X122705000Y-72880000D03*
X125245000Y-88120000D03*
X125245000Y-72880000D03*
X127785000Y-88120000D03*
X127785000Y-72880000D03*
D21*
X189550000Y-111500000D03*
X191450000Y-111500000D03*
X190500000Y-108500000D03*
D19*
X130925000Y-47800000D03*
X132675000Y-47800000D03*
D22*
X154156497Y-55843503D03*
D23*
X156843503Y-53156497D03*
D24*
X190750000Y-100500000D03*
X190750000Y-103000000D03*
X190750000Y-98000000D03*
D25*
X193500000Y-103900000D03*
X193500000Y-97100000D03*
D26*
X150750000Y-40150000D03*
X136250000Y-40150000D03*
X150750000Y-41250000D03*
X136250000Y-41250000D03*
X150750000Y-42350000D03*
X136250000Y-42350000D03*
X150750000Y-43450000D03*
X136250000Y-43450000D03*
X150750000Y-44550000D03*
X136250000Y-44550000D03*
X150750000Y-45650000D03*
X136250000Y-45650000D03*
X150750000Y-46750000D03*
X136250000Y-46750000D03*
X150750000Y-47850000D03*
X136250000Y-47850000D03*
M02*
