%FSLAX45Y45*%
G04 Gerber Fmt 4.5, Leading zero omitted, Abs format (unit mm)*
G04 Created by KiCad (PCBNEW 5.0.0-rc2-dev-unknown+dfsg1+20180318-3) date Sun May 20 20:27:53 2018*
%MOMM*%
%LPD*%
G01*
G04 APERTURE LIST*
%ADD10C,0.200000*%
%ADD11C,0.300000*%
G04 APERTURE END LIST*
D10*
X20750000Y-8050000D02*
G75*
G03X20750000Y-8050000I-5200000J0D01*
G01*
D10*
X10985000Y-6405000D02*
X11015000Y-6435000D01*
X11015000Y-6405000D02*
X10985000Y-6435000D01*
X10985000Y-8460000D02*
X11015000Y-8490000D01*
X11015000Y-8460000D02*
X10985000Y-8490000D01*
X11235000Y-7560000D02*
X11265000Y-7590000D01*
X11265000Y-7560000D02*
X11235000Y-7590000D01*
X11235000Y-8385000D02*
X11265000Y-8415000D01*
X11265000Y-8385000D02*
X11235000Y-8415000D01*
X11485000Y-7635000D02*
X11515000Y-7665000D01*
X11515000Y-7635000D02*
X11485000Y-7665000D01*
X11485000Y-8310000D02*
X11515000Y-8340000D01*
X11515000Y-8310000D02*
X11485000Y-8340000D01*
X11735000Y-7710000D02*
X11765000Y-7740000D01*
X11765000Y-7710000D02*
X11735000Y-7740000D01*
X11760000Y-8235000D02*
X11790000Y-8265000D01*
X11790000Y-8235000D02*
X11760000Y-8265000D01*
X12010000Y-7785000D02*
X12040000Y-7815000D01*
X12040000Y-7785000D02*
X12010000Y-7815000D01*
X12010000Y-8160000D02*
X12040000Y-8190000D01*
X12040000Y-8160000D02*
X12010000Y-8190000D01*
X12260000Y-6035000D02*
X12290000Y-6065000D01*
X12290000Y-6035000D02*
X12260000Y-6065000D01*
X12510000Y-7860000D02*
X12540000Y-7890000D01*
X12540000Y-7860000D02*
X12510000Y-7890000D01*
X12510000Y-8085000D02*
X12540000Y-8115000D01*
X12540000Y-8085000D02*
X12510000Y-8115000D01*
X12760000Y-7935000D02*
X12790000Y-7965000D01*
X12790000Y-7935000D02*
X12760000Y-7965000D01*
X12760000Y-8015000D02*
X12790000Y-8045000D01*
X12790000Y-8015000D02*
X12760000Y-8045000D01*
X13510000Y-8460000D02*
X13540000Y-8490000D01*
X13540000Y-8460000D02*
X13510000Y-8490000D01*
X13760000Y-7560000D02*
X13790000Y-7590000D01*
X13790000Y-7560000D02*
X13760000Y-7590000D01*
X13760000Y-8385000D02*
X13790000Y-8415000D01*
X13790000Y-8385000D02*
X13760000Y-8415000D01*
X14010000Y-7635000D02*
X14040000Y-7665000D01*
X14040000Y-7635000D02*
X14010000Y-7665000D01*
X14010000Y-8310000D02*
X14040000Y-8340000D01*
X14040000Y-8310000D02*
X14010000Y-8340000D01*
X14285000Y-7710000D02*
X14315000Y-7740000D01*
X14315000Y-7710000D02*
X14285000Y-7740000D01*
X14285000Y-8235000D02*
X14315000Y-8265000D01*
X14315000Y-8235000D02*
X14285000Y-8265000D01*
X14535000Y-7785000D02*
X14565000Y-7815000D01*
X14565000Y-7785000D02*
X14535000Y-7815000D01*
X14535000Y-8160000D02*
X14565000Y-8190000D01*
X14565000Y-8160000D02*
X14535000Y-8190000D01*
X15035000Y-7860000D02*
X15065000Y-7890000D01*
X15065000Y-7860000D02*
X15035000Y-7890000D01*
X15035000Y-8085000D02*
X15065000Y-8115000D01*
X15065000Y-8085000D02*
X15035000Y-8115000D01*
X15285000Y-7935000D02*
X15315000Y-7965000D01*
X15315000Y-7935000D02*
X15285000Y-7965000D01*
X15285000Y-8015000D02*
X15315000Y-8045000D01*
X15315000Y-8015000D02*
X15285000Y-8045000D01*
X16035000Y-8460000D02*
X16065000Y-8490000D01*
X16065000Y-8460000D02*
X16035000Y-8490000D01*
X16235000Y-5535000D02*
X16265000Y-5565000D01*
X16265000Y-5535000D02*
X16235000Y-5565000D01*
X16235000Y-5660000D02*
X16265000Y-5690000D01*
X16265000Y-5660000D02*
X16235000Y-5690000D01*
X16235000Y-6985000D02*
X16265000Y-7015000D01*
X16265000Y-6985000D02*
X16235000Y-7015000D01*
X16285000Y-7560000D02*
X16315000Y-7590000D01*
X16315000Y-7560000D02*
X16285000Y-7590000D01*
X16285000Y-8385000D02*
X16315000Y-8415000D01*
X16315000Y-8385000D02*
X16285000Y-8415000D01*
X16310000Y-5785000D02*
X16340000Y-5815000D01*
X16340000Y-5785000D02*
X16310000Y-5815000D01*
X16310000Y-6885000D02*
X16340000Y-6915000D01*
X16340000Y-6885000D02*
X16310000Y-6915000D01*
X16535000Y-7635000D02*
X16565000Y-7665000D01*
X16565000Y-7635000D02*
X16535000Y-7665000D01*
X16535000Y-8310000D02*
X16565000Y-8340000D01*
X16565000Y-8310000D02*
X16535000Y-8340000D01*
X16810000Y-6685000D02*
X16840000Y-6715000D01*
X16840000Y-6685000D02*
X16810000Y-6715000D01*
X16810000Y-7710000D02*
X16840000Y-7740000D01*
X16840000Y-7710000D02*
X16810000Y-7740000D01*
X16810000Y-8235000D02*
X16840000Y-8265000D01*
X16840000Y-8235000D02*
X16810000Y-8265000D01*
X17060000Y-6560000D02*
X17090000Y-6590000D01*
X17090000Y-6560000D02*
X17060000Y-6590000D01*
X17060000Y-7785000D02*
X17090000Y-7815000D01*
X17090000Y-7785000D02*
X17060000Y-7815000D01*
X17060000Y-8160000D02*
X17090000Y-8190000D01*
X17090000Y-8160000D02*
X17060000Y-8190000D01*
X17435000Y-5535000D02*
X17465000Y-5565000D01*
X17465000Y-5535000D02*
X17435000Y-5565000D01*
X17435000Y-5660000D02*
X17465000Y-5690000D01*
X17465000Y-5660000D02*
X17435000Y-5690000D01*
X17435000Y-5785000D02*
X17465000Y-5815000D01*
X17465000Y-5785000D02*
X17435000Y-5815000D01*
X17435000Y-5910000D02*
X17465000Y-5940000D01*
X17465000Y-5910000D02*
X17435000Y-5940000D01*
X17435000Y-6060000D02*
X17465000Y-6090000D01*
X17465000Y-6060000D02*
X17435000Y-6090000D01*
X17435000Y-6560000D02*
X17465000Y-6590000D01*
X17465000Y-6560000D02*
X17435000Y-6590000D01*
X17435000Y-6685000D02*
X17465000Y-6715000D01*
X17465000Y-6685000D02*
X17435000Y-6715000D01*
X17560000Y-7860000D02*
X17590000Y-7890000D01*
X17590000Y-7860000D02*
X17560000Y-7890000D01*
X17560000Y-8085000D02*
X17590000Y-8115000D01*
X17590000Y-8085000D02*
X17560000Y-8115000D01*
X17785000Y-5160000D02*
X17815000Y-5190000D01*
X17815000Y-5160000D02*
X17785000Y-5190000D01*
X17785000Y-5285000D02*
X17815000Y-5315000D01*
X17815000Y-5285000D02*
X17785000Y-5315000D01*
X17810000Y-7935000D02*
X17840000Y-7965000D01*
X17840000Y-7935000D02*
X17810000Y-7965000D01*
X17810000Y-8015000D02*
X17840000Y-8045000D01*
X17840000Y-8015000D02*
X17810000Y-8045000D01*
X17935000Y-8160000D02*
X17965000Y-8190000D01*
X17965000Y-8160000D02*
X17935000Y-8190000D01*
X17997500Y-8310000D02*
X18027500Y-8340000D01*
X18027500Y-8310000D02*
X17997500Y-8340000D01*
X18060000Y-8385000D02*
X18090000Y-8415000D01*
X18090000Y-8385000D02*
X18060000Y-8415000D01*
X18122500Y-8460000D02*
X18152500Y-8490000D01*
X18152500Y-8460000D02*
X18122500Y-8490000D01*
X18185000Y-8535000D02*
X18215000Y-8565000D01*
X18215000Y-8535000D02*
X18185000Y-8565000D01*
X18685000Y-5425000D02*
X18715000Y-5455000D01*
X18715000Y-5425000D02*
X18685000Y-5455000D01*
X18685000Y-5545000D02*
X18715000Y-5575000D01*
X18715000Y-5545000D02*
X18685000Y-5575000D01*
X18685000Y-5665000D02*
X18715000Y-5695000D01*
X18715000Y-5665000D02*
X18685000Y-5695000D01*
X18685000Y-6435000D02*
X18715000Y-6465000D01*
X18715000Y-6435000D02*
X18685000Y-6465000D01*
X18685000Y-6560000D02*
X18715000Y-6590000D01*
X18715000Y-6560000D02*
X18685000Y-6590000D01*
X18785000Y-5285000D02*
X18815000Y-5315000D01*
X18815000Y-5285000D02*
X18785000Y-5315000D01*
X18860000Y-6560000D02*
X18890000Y-6590000D01*
X18890000Y-6560000D02*
X18860000Y-6590000D01*
X19060000Y-6435000D02*
X19090000Y-6465000D01*
X19090000Y-6435000D02*
X19060000Y-6465000D01*
X19185000Y-5425000D02*
X19215000Y-5455000D01*
X19215000Y-5425000D02*
X19185000Y-5455000D01*
X19185000Y-8011317D02*
X19215000Y-8041317D01*
X19215000Y-8011317D02*
X19185000Y-8041317D01*
X19445000Y-5160000D02*
X19475000Y-5190000D01*
X19475000Y-5160000D02*
X19445000Y-5190000D01*
X19445000Y-5665000D02*
X19475000Y-5695000D01*
X19475000Y-5665000D02*
X19445000Y-5695000D01*
X19705000Y-5545000D02*
X19735000Y-5575000D01*
X19735000Y-5545000D02*
X19705000Y-5575000D01*
X19705000Y-8155000D02*
X19735000Y-8185000D01*
X19735000Y-8155000D02*
X19705000Y-8185000D01*
X15095000Y-5000000D02*
G75*
G03X15095000Y-5000000I-20000J0D01*
G01*
X15095000Y-5200000D02*
G75*
G03X15095000Y-5200000I-20000J0D01*
G01*
X15195000Y-5100000D02*
G75*
G03X15195000Y-5100000I-20000J0D01*
G01*
X15595000Y-5880000D02*
G75*
G03X15595000Y-5880000I-20000J0D01*
G01*
X16020000Y-5475000D02*
G75*
G03X16020000Y-5475000I-20000J0D01*
G01*
X14875000Y-4650000D02*
X14875000Y-4700000D01*
X14850000Y-4675000D02*
X14900000Y-4675000D01*
X15375000Y-4200000D02*
X15375000Y-4250000D01*
X15350000Y-4225000D02*
X15400000Y-4225000D01*
X15425000Y-4557500D02*
X15425000Y-4607500D01*
X15400000Y-4582500D02*
X15450000Y-4582500D01*
X17600000Y-4900000D02*
X17600000Y-4950000D01*
X17575000Y-4925000D02*
X17625000Y-4925000D01*
X17600000Y-11125000D02*
X17600000Y-11175000D01*
X17575000Y-11150000D02*
X17625000Y-11150000D01*
X17775000Y-10975000D02*
X17775000Y-11025000D01*
X17750000Y-11000000D02*
X17800000Y-11000000D01*
X17775000Y-11125000D02*
X17775000Y-11175000D01*
X17750000Y-11150000D02*
X17800000Y-11150000D01*
X17775000Y-11300000D02*
X17775000Y-11350000D01*
X17750000Y-11325000D02*
X17800000Y-11325000D01*
X18550000Y-4525000D02*
X18550000Y-4575000D01*
X18525000Y-4550000D02*
X18575000Y-4550000D01*
X18750000Y-11125000D02*
X18750000Y-11175000D01*
X18725000Y-11150000D02*
X18775000Y-11150000D01*
X15824784Y-7316284D02*
X15824784Y-7259715D01*
X15768215Y-7259715D01*
X15768215Y-7316284D01*
X15824784Y-7316284D01*
X15824784Y-8840285D02*
X15824784Y-8783716D01*
X15768215Y-8783716D01*
X15768215Y-8840285D01*
X15824784Y-8840285D01*
X16078784Y-7316284D02*
X16078784Y-7259715D01*
X16022215Y-7259715D01*
X16022215Y-7316284D01*
X16078784Y-7316284D01*
X16078784Y-8840285D02*
X16078784Y-8783716D01*
X16022215Y-8783716D01*
X16022215Y-8840285D01*
X16078784Y-8840285D01*
X16332784Y-7316284D02*
X16332784Y-7259715D01*
X16276215Y-7259715D01*
X16276215Y-7316284D01*
X16332784Y-7316284D01*
X16332784Y-8840285D02*
X16332784Y-8783716D01*
X16276215Y-8783716D01*
X16276215Y-8840285D01*
X16332784Y-8840285D01*
X16586784Y-7316284D02*
X16586784Y-7259715D01*
X16530215Y-7259715D01*
X16530215Y-7316284D01*
X16586784Y-7316284D01*
X16586784Y-8840285D02*
X16586784Y-8783716D01*
X16530215Y-8783716D01*
X16530215Y-8840285D01*
X16586784Y-8840285D01*
X16840785Y-7316284D02*
X16840785Y-7259715D01*
X16784216Y-7259715D01*
X16784216Y-7316284D01*
X16840785Y-7316284D01*
X16840785Y-8840285D02*
X16840785Y-8783716D01*
X16784216Y-8783716D01*
X16784216Y-8840285D01*
X16840785Y-8840285D01*
X17094785Y-7316284D02*
X17094785Y-7259715D01*
X17038216Y-7259715D01*
X17038216Y-7316284D01*
X17094785Y-7316284D01*
X17094785Y-8840285D02*
X17094785Y-8783716D01*
X17038216Y-8783716D01*
X17038216Y-8840285D01*
X17094785Y-8840285D01*
X17348785Y-7316284D02*
X17348785Y-7259715D01*
X17292216Y-7259715D01*
X17292216Y-7316284D01*
X17348785Y-7316284D01*
X17348785Y-8840285D02*
X17348785Y-8783716D01*
X17292216Y-8783716D01*
X17292216Y-8840285D01*
X17348785Y-8840285D01*
X17602785Y-7316284D02*
X17602785Y-7259715D01*
X17546216Y-7259715D01*
X17546216Y-7316284D01*
X17602785Y-7316284D01*
X17602785Y-8840285D02*
X17602785Y-8783716D01*
X17546216Y-8783716D01*
X17546216Y-8840285D01*
X17602785Y-8840285D01*
X17856785Y-7316284D02*
X17856785Y-7259715D01*
X17800216Y-7259715D01*
X17800216Y-7316284D01*
X17856785Y-7316284D01*
X17856785Y-8840285D02*
X17856785Y-8783716D01*
X17800216Y-8783716D01*
X17800216Y-8840285D01*
X17856785Y-8840285D01*
X13299784Y-7316284D02*
X13299784Y-7259715D01*
X13243215Y-7259715D01*
X13243215Y-7316284D01*
X13299784Y-7316284D01*
X13299784Y-8840285D02*
X13299784Y-8783716D01*
X13243215Y-8783716D01*
X13243215Y-8840285D01*
X13299784Y-8840285D01*
X13553784Y-7316284D02*
X13553784Y-7259715D01*
X13497215Y-7259715D01*
X13497215Y-7316284D01*
X13553784Y-7316284D01*
X13553784Y-8840285D02*
X13553784Y-8783716D01*
X13497215Y-8783716D01*
X13497215Y-8840285D01*
X13553784Y-8840285D01*
X13807784Y-7316284D02*
X13807784Y-7259715D01*
X13751215Y-7259715D01*
X13751215Y-7316284D01*
X13807784Y-7316284D01*
X13807784Y-8840285D02*
X13807784Y-8783716D01*
X13751215Y-8783716D01*
X13751215Y-8840285D01*
X13807784Y-8840285D01*
X14061784Y-7316284D02*
X14061784Y-7259715D01*
X14005215Y-7259715D01*
X14005215Y-7316284D01*
X14061784Y-7316284D01*
X14061784Y-8840285D02*
X14061784Y-8783716D01*
X14005215Y-8783716D01*
X14005215Y-8840285D01*
X14061784Y-8840285D01*
X14315784Y-7316284D02*
X14315784Y-7259715D01*
X14259215Y-7259715D01*
X14259215Y-7316284D01*
X14315784Y-7316284D01*
X14315784Y-8840285D02*
X14315784Y-8783716D01*
X14259215Y-8783716D01*
X14259215Y-8840285D01*
X14315784Y-8840285D01*
X14569784Y-7316284D02*
X14569784Y-7259715D01*
X14513215Y-7259715D01*
X14513215Y-7316284D01*
X14569784Y-7316284D01*
X14569784Y-8840285D02*
X14569784Y-8783716D01*
X14513215Y-8783716D01*
X14513215Y-8840285D01*
X14569784Y-8840285D01*
X14823784Y-7316284D02*
X14823784Y-7259715D01*
X14767215Y-7259715D01*
X14767215Y-7316284D01*
X14823784Y-7316284D01*
X14823784Y-8840285D02*
X14823784Y-8783716D01*
X14767215Y-8783716D01*
X14767215Y-8840285D01*
X14823784Y-8840285D01*
X15077784Y-7316284D02*
X15077784Y-7259715D01*
X15021215Y-7259715D01*
X15021215Y-7316284D01*
X15077784Y-7316284D01*
X15077784Y-8840285D02*
X15077784Y-8783716D01*
X15021215Y-8783716D01*
X15021215Y-8840285D01*
X15077784Y-8840285D01*
X15331784Y-7316284D02*
X15331784Y-7259715D01*
X15275215Y-7259715D01*
X15275215Y-7316284D01*
X15331784Y-7316284D01*
X15331784Y-8840285D02*
X15331784Y-8783716D01*
X15275215Y-8783716D01*
X15275215Y-8840285D01*
X15331784Y-8840285D01*
X18349785Y-7316284D02*
X18349785Y-7259715D01*
X18293216Y-7259715D01*
X18293216Y-7316284D01*
X18349785Y-7316284D01*
X18349785Y-8840285D02*
X18349785Y-8783716D01*
X18293216Y-8783716D01*
X18293216Y-8840285D01*
X18349785Y-8840285D01*
X18603785Y-7316284D02*
X18603785Y-7259715D01*
X18547216Y-7259715D01*
X18547216Y-7316284D01*
X18603785Y-7316284D01*
X18603785Y-8840285D02*
X18603785Y-8783716D01*
X18547216Y-8783716D01*
X18547216Y-8840285D01*
X18603785Y-8840285D01*
X18857785Y-7316284D02*
X18857785Y-7259715D01*
X18801216Y-7259715D01*
X18801216Y-7316284D01*
X18857785Y-7316284D01*
X18857785Y-8840285D02*
X18857785Y-8783716D01*
X18801216Y-8783716D01*
X18801216Y-8840285D01*
X18857785Y-8840285D01*
X19111785Y-7316284D02*
X19111785Y-7259715D01*
X19055216Y-7259715D01*
X19055216Y-7316284D01*
X19111785Y-7316284D01*
X19111785Y-8840285D02*
X19111785Y-8783716D01*
X19055216Y-8783716D01*
X19055216Y-8840285D01*
X19111785Y-8840285D01*
X19365785Y-7316284D02*
X19365785Y-7259715D01*
X19309216Y-7259715D01*
X19309216Y-7316284D01*
X19365785Y-7316284D01*
X19365785Y-8840285D02*
X19365785Y-8783716D01*
X19309216Y-8783716D01*
X19309216Y-8840285D01*
X19365785Y-8840285D01*
X19619785Y-7316284D02*
X19619785Y-7259715D01*
X19563216Y-7259715D01*
X19563216Y-7316284D01*
X19619785Y-7316284D01*
X19619785Y-8840285D02*
X19619785Y-8783716D01*
X19563216Y-8783716D01*
X19563216Y-8840285D01*
X19619785Y-8840285D01*
X19873785Y-7316284D02*
X19873785Y-7259715D01*
X19817216Y-7259715D01*
X19817216Y-7316284D01*
X19873785Y-7316284D01*
X19873785Y-8840285D02*
X19873785Y-8783716D01*
X19817216Y-8783716D01*
X19817216Y-8840285D01*
X19873785Y-8840285D01*
X20127785Y-7316284D02*
X20127785Y-7259715D01*
X20071216Y-7259715D01*
X20071216Y-7316284D01*
X20127785Y-7316284D01*
X20127785Y-8840285D02*
X20127785Y-8783716D01*
X20071216Y-8783716D01*
X20071216Y-8840285D01*
X20127785Y-8840285D01*
X20381785Y-7316284D02*
X20381785Y-7259715D01*
X20325216Y-7259715D01*
X20325216Y-7316284D01*
X20381785Y-7316284D01*
X20381785Y-8840285D02*
X20381785Y-8783716D01*
X20325216Y-8783716D01*
X20325216Y-8840285D01*
X20381785Y-8840285D01*
X10774785Y-7316284D02*
X10774785Y-7259715D01*
X10718216Y-7259715D01*
X10718216Y-7316284D01*
X10774785Y-7316284D01*
X10774785Y-8840285D02*
X10774785Y-8783716D01*
X10718216Y-8783716D01*
X10718216Y-8840285D01*
X10774785Y-8840285D01*
X11028785Y-7316284D02*
X11028785Y-7259715D01*
X10972216Y-7259715D01*
X10972216Y-7316284D01*
X11028785Y-7316284D01*
X11028785Y-8840285D02*
X11028785Y-8783716D01*
X10972216Y-8783716D01*
X10972216Y-8840285D01*
X11028785Y-8840285D01*
X11282784Y-7316284D02*
X11282784Y-7259715D01*
X11226215Y-7259715D01*
X11226215Y-7316284D01*
X11282784Y-7316284D01*
X11282784Y-8840285D02*
X11282784Y-8783716D01*
X11226215Y-8783716D01*
X11226215Y-8840285D01*
X11282784Y-8840285D01*
X11536784Y-7316284D02*
X11536784Y-7259715D01*
X11480215Y-7259715D01*
X11480215Y-7316284D01*
X11536784Y-7316284D01*
X11536784Y-8840285D02*
X11536784Y-8783716D01*
X11480215Y-8783716D01*
X11480215Y-8840285D01*
X11536784Y-8840285D01*
X11790784Y-7316284D02*
X11790784Y-7259715D01*
X11734215Y-7259715D01*
X11734215Y-7316284D01*
X11790784Y-7316284D01*
X11790784Y-8840285D02*
X11790784Y-8783716D01*
X11734215Y-8783716D01*
X11734215Y-8840285D01*
X11790784Y-8840285D01*
X12044784Y-7316284D02*
X12044784Y-7259715D01*
X11988215Y-7259715D01*
X11988215Y-7316284D01*
X12044784Y-7316284D01*
X12044784Y-8840285D02*
X12044784Y-8783716D01*
X11988215Y-8783716D01*
X11988215Y-8840285D01*
X12044784Y-8840285D01*
X12298784Y-7316284D02*
X12298784Y-7259715D01*
X12242215Y-7259715D01*
X12242215Y-7316284D01*
X12298784Y-7316284D01*
X12298784Y-8840285D02*
X12298784Y-8783716D01*
X12242215Y-8783716D01*
X12242215Y-8840285D01*
X12298784Y-8840285D01*
X12552784Y-7316284D02*
X12552784Y-7259715D01*
X12496215Y-7259715D01*
X12496215Y-7316284D01*
X12552784Y-7316284D01*
X12552784Y-8840285D02*
X12552784Y-8783716D01*
X12496215Y-8783716D01*
X12496215Y-8840285D01*
X12552784Y-8840285D01*
X12806784Y-7316284D02*
X12806784Y-7259715D01*
X12750215Y-7259715D01*
X12750215Y-7316284D01*
X12806784Y-7316284D01*
X12806784Y-8840285D02*
X12806784Y-8783716D01*
X12750215Y-8783716D01*
X12750215Y-8840285D01*
X12806784Y-8840285D01*
D11*
X10626428Y-13725714D02*
X10626428Y-13425714D01*
X10697857Y-13425714D01*
X10740714Y-13440000D01*
X10769286Y-13468571D01*
X10783571Y-13497143D01*
X10797857Y-13554286D01*
X10797857Y-13597143D01*
X10783571Y-13654286D01*
X10769286Y-13682857D01*
X10740714Y-13711429D01*
X10697857Y-13725714D01*
X10626428Y-13725714D01*
X10926428Y-13725714D02*
X10926428Y-13525714D01*
X10926428Y-13582857D02*
X10940714Y-13554286D01*
X10955000Y-13540000D01*
X10983571Y-13525714D01*
X11012143Y-13525714D01*
X11112143Y-13725714D02*
X11112143Y-13525714D01*
X11112143Y-13425714D02*
X11097857Y-13440000D01*
X11112143Y-13454286D01*
X11126428Y-13440000D01*
X11112143Y-13425714D01*
X11112143Y-13454286D01*
X11297857Y-13725714D02*
X11269286Y-13711429D01*
X11255000Y-13682857D01*
X11255000Y-13425714D01*
X11455000Y-13725714D02*
X11426428Y-13711429D01*
X11412143Y-13682857D01*
X11412143Y-13425714D01*
X11797857Y-13725714D02*
X11797857Y-13425714D01*
X11897857Y-13640000D01*
X11997857Y-13425714D01*
X11997857Y-13725714D01*
X12269286Y-13725714D02*
X12269286Y-13568571D01*
X12255000Y-13540000D01*
X12226428Y-13525714D01*
X12169286Y-13525714D01*
X12140714Y-13540000D01*
X12269286Y-13711429D02*
X12240714Y-13725714D01*
X12169286Y-13725714D01*
X12140714Y-13711429D01*
X12126428Y-13682857D01*
X12126428Y-13654286D01*
X12140714Y-13625714D01*
X12169286Y-13611429D01*
X12240714Y-13611429D01*
X12269286Y-13597143D01*
X12412143Y-13525714D02*
X12412143Y-13825714D01*
X12412143Y-13540000D02*
X12440714Y-13525714D01*
X12497857Y-13525714D01*
X12526428Y-13540000D01*
X12540714Y-13554286D01*
X12555000Y-13582857D01*
X12555000Y-13668571D01*
X12540714Y-13697143D01*
X12526428Y-13711429D01*
X12497857Y-13725714D01*
X12440714Y-13725714D01*
X12412143Y-13711429D01*
X12683571Y-13697143D02*
X12697857Y-13711429D01*
X12683571Y-13725714D01*
X12669286Y-13711429D01*
X12683571Y-13697143D01*
X12683571Y-13725714D01*
X12683571Y-13540000D02*
X12697857Y-13554286D01*
X12683571Y-13568571D01*
X12669286Y-13554286D01*
X12683571Y-13540000D01*
X12683571Y-13568571D01*
X10310000Y-14205000D02*
X10340000Y-14235000D01*
X10340000Y-14205000D02*
X10310000Y-14235000D01*
X10683571Y-14055714D02*
X10712143Y-14055714D01*
X10740714Y-14070000D01*
X10755000Y-14084286D01*
X10769286Y-14112857D01*
X10783571Y-14170000D01*
X10783571Y-14241429D01*
X10769286Y-14298571D01*
X10755000Y-14327143D01*
X10740714Y-14341429D01*
X10712143Y-14355714D01*
X10683571Y-14355714D01*
X10655000Y-14341429D01*
X10640714Y-14327143D01*
X10626428Y-14298571D01*
X10612143Y-14241429D01*
X10612143Y-14170000D01*
X10626428Y-14112857D01*
X10640714Y-14084286D01*
X10655000Y-14070000D01*
X10683571Y-14055714D01*
X10912143Y-14327143D02*
X10926428Y-14341429D01*
X10912143Y-14355714D01*
X10897857Y-14341429D01*
X10912143Y-14327143D01*
X10912143Y-14355714D01*
X11026428Y-14055714D02*
X11212143Y-14055714D01*
X11112143Y-14170000D01*
X11155000Y-14170000D01*
X11183571Y-14184286D01*
X11197857Y-14198571D01*
X11212143Y-14227143D01*
X11212143Y-14298571D01*
X11197857Y-14327143D01*
X11183571Y-14341429D01*
X11155000Y-14355714D01*
X11069286Y-14355714D01*
X11040714Y-14341429D01*
X11026428Y-14327143D01*
X11397857Y-14055714D02*
X11426428Y-14055714D01*
X11455000Y-14070000D01*
X11469286Y-14084286D01*
X11483571Y-14112857D01*
X11497857Y-14170000D01*
X11497857Y-14241429D01*
X11483571Y-14298571D01*
X11469286Y-14327143D01*
X11455000Y-14341429D01*
X11426428Y-14355714D01*
X11397857Y-14355714D01*
X11369286Y-14341429D01*
X11355000Y-14327143D01*
X11340714Y-14298571D01*
X11326428Y-14241429D01*
X11326428Y-14170000D01*
X11340714Y-14112857D01*
X11355000Y-14084286D01*
X11369286Y-14070000D01*
X11397857Y-14055714D01*
X11626428Y-14355714D02*
X11626428Y-14155714D01*
X11626428Y-14184286D02*
X11640714Y-14170000D01*
X11669286Y-14155714D01*
X11712143Y-14155714D01*
X11740714Y-14170000D01*
X11755000Y-14198571D01*
X11755000Y-14355714D01*
X11755000Y-14198571D02*
X11769286Y-14170000D01*
X11797857Y-14155714D01*
X11840714Y-14155714D01*
X11869286Y-14170000D01*
X11883571Y-14198571D01*
X11883571Y-14355714D01*
X12026428Y-14355714D02*
X12026428Y-14155714D01*
X12026428Y-14184286D02*
X12040714Y-14170000D01*
X12069286Y-14155714D01*
X12112143Y-14155714D01*
X12140714Y-14170000D01*
X12155000Y-14198571D01*
X12155000Y-14355714D01*
X12155000Y-14198571D02*
X12169286Y-14170000D01*
X12197857Y-14155714D01*
X12240714Y-14155714D01*
X12269286Y-14170000D01*
X12283571Y-14198571D01*
X12283571Y-14355714D01*
X12869286Y-14041429D02*
X12612143Y-14427143D01*
X13255000Y-14055714D02*
X13283571Y-14055714D01*
X13312143Y-14070000D01*
X13326428Y-14084286D01*
X13340714Y-14112857D01*
X13355000Y-14170000D01*
X13355000Y-14241429D01*
X13340714Y-14298571D01*
X13326428Y-14327143D01*
X13312143Y-14341429D01*
X13283571Y-14355714D01*
X13255000Y-14355714D01*
X13226428Y-14341429D01*
X13212143Y-14327143D01*
X13197857Y-14298571D01*
X13183571Y-14241429D01*
X13183571Y-14170000D01*
X13197857Y-14112857D01*
X13212143Y-14084286D01*
X13226428Y-14070000D01*
X13255000Y-14055714D01*
X13483571Y-14327143D02*
X13497857Y-14341429D01*
X13483571Y-14355714D01*
X13469286Y-14341429D01*
X13483571Y-14327143D01*
X13483571Y-14355714D01*
X13683571Y-14055714D02*
X13712143Y-14055714D01*
X13740714Y-14070000D01*
X13755000Y-14084286D01*
X13769286Y-14112857D01*
X13783571Y-14170000D01*
X13783571Y-14241429D01*
X13769286Y-14298571D01*
X13755000Y-14327143D01*
X13740714Y-14341429D01*
X13712143Y-14355714D01*
X13683571Y-14355714D01*
X13655000Y-14341429D01*
X13640714Y-14327143D01*
X13626428Y-14298571D01*
X13612143Y-14241429D01*
X13612143Y-14170000D01*
X13626428Y-14112857D01*
X13640714Y-14084286D01*
X13655000Y-14070000D01*
X13683571Y-14055714D01*
X14069286Y-14355714D02*
X13897857Y-14355714D01*
X13983571Y-14355714D02*
X13983571Y-14055714D01*
X13955000Y-14098571D01*
X13926428Y-14127143D01*
X13897857Y-14141429D01*
X14183571Y-14084286D02*
X14197857Y-14070000D01*
X14226428Y-14055714D01*
X14297857Y-14055714D01*
X14326428Y-14070000D01*
X14340714Y-14084286D01*
X14355000Y-14112857D01*
X14355000Y-14141429D01*
X14340714Y-14184286D01*
X14169286Y-14355714D01*
X14355000Y-14355714D01*
X14469286Y-14055714D02*
X14469286Y-14112857D01*
X14583571Y-14055714D02*
X14583571Y-14112857D01*
X15026428Y-14470000D02*
X15012143Y-14455714D01*
X14983571Y-14412857D01*
X14969286Y-14384286D01*
X14955000Y-14341429D01*
X14940714Y-14270000D01*
X14940714Y-14212857D01*
X14955000Y-14141429D01*
X14969286Y-14098571D01*
X14983571Y-14070000D01*
X15012143Y-14027143D01*
X15026428Y-14012857D01*
X15112143Y-14055714D02*
X15312143Y-14055714D01*
X15183571Y-14355714D01*
X15555000Y-14055714D02*
X15497857Y-14055714D01*
X15469286Y-14070000D01*
X15455000Y-14084286D01*
X15426428Y-14127143D01*
X15412143Y-14184286D01*
X15412143Y-14298571D01*
X15426428Y-14327143D01*
X15440714Y-14341429D01*
X15469286Y-14355714D01*
X15526428Y-14355714D01*
X15555000Y-14341429D01*
X15569286Y-14327143D01*
X15583571Y-14298571D01*
X15583571Y-14227143D01*
X15569286Y-14198571D01*
X15555000Y-14184286D01*
X15526428Y-14170000D01*
X15469286Y-14170000D01*
X15440714Y-14184286D01*
X15426428Y-14198571D01*
X15412143Y-14227143D01*
X15940714Y-14355714D02*
X15940714Y-14055714D01*
X16069286Y-14355714D02*
X16069286Y-14198571D01*
X16055000Y-14170000D01*
X16026428Y-14155714D01*
X15983571Y-14155714D01*
X15955000Y-14170000D01*
X15940714Y-14184286D01*
X16255000Y-14355714D02*
X16226428Y-14341429D01*
X16212143Y-14327143D01*
X16197857Y-14298571D01*
X16197857Y-14212857D01*
X16212143Y-14184286D01*
X16226428Y-14170000D01*
X16255000Y-14155714D01*
X16297857Y-14155714D01*
X16326428Y-14170000D01*
X16340714Y-14184286D01*
X16355000Y-14212857D01*
X16355000Y-14298571D01*
X16340714Y-14327143D01*
X16326428Y-14341429D01*
X16297857Y-14355714D01*
X16255000Y-14355714D01*
X16526428Y-14355714D02*
X16497857Y-14341429D01*
X16483571Y-14312857D01*
X16483571Y-14055714D01*
X16755000Y-14341429D02*
X16726428Y-14355714D01*
X16669286Y-14355714D01*
X16640714Y-14341429D01*
X16626428Y-14312857D01*
X16626428Y-14198571D01*
X16640714Y-14170000D01*
X16669286Y-14155714D01*
X16726428Y-14155714D01*
X16755000Y-14170000D01*
X16769286Y-14198571D01*
X16769286Y-14227143D01*
X16626428Y-14255714D01*
X16883571Y-14341429D02*
X16912143Y-14355714D01*
X16969286Y-14355714D01*
X16997857Y-14341429D01*
X17012143Y-14312857D01*
X17012143Y-14298571D01*
X16997857Y-14270000D01*
X16969286Y-14255714D01*
X16926428Y-14255714D01*
X16897857Y-14241429D01*
X16883571Y-14212857D01*
X16883571Y-14198571D01*
X16897857Y-14170000D01*
X16926428Y-14155714D01*
X16969286Y-14155714D01*
X16997857Y-14170000D01*
X17112143Y-14470000D02*
X17126428Y-14455714D01*
X17155000Y-14412857D01*
X17169286Y-14384286D01*
X17183571Y-14341429D01*
X17197857Y-14270000D01*
X17197857Y-14212857D01*
X17183571Y-14141429D01*
X17169286Y-14098571D01*
X17155000Y-14070000D01*
X17126428Y-14027143D01*
X17112143Y-14012857D01*
X10340000Y-14616000D02*
G75*
G03X10340000Y-14616000I-20000J0D01*
G01*
X10683571Y-14451714D02*
X10712143Y-14451714D01*
X10740714Y-14466000D01*
X10755000Y-14480286D01*
X10769286Y-14508857D01*
X10783571Y-14566000D01*
X10783571Y-14637429D01*
X10769286Y-14694571D01*
X10755000Y-14723143D01*
X10740714Y-14737429D01*
X10712143Y-14751714D01*
X10683571Y-14751714D01*
X10655000Y-14737429D01*
X10640714Y-14723143D01*
X10626428Y-14694571D01*
X10612143Y-14637429D01*
X10612143Y-14566000D01*
X10626428Y-14508857D01*
X10640714Y-14480286D01*
X10655000Y-14466000D01*
X10683571Y-14451714D01*
X10912143Y-14723143D02*
X10926428Y-14737429D01*
X10912143Y-14751714D01*
X10897857Y-14737429D01*
X10912143Y-14723143D01*
X10912143Y-14751714D01*
X11183571Y-14551714D02*
X11183571Y-14751714D01*
X11112143Y-14437429D02*
X11040714Y-14651714D01*
X11226428Y-14651714D01*
X11397857Y-14451714D02*
X11426428Y-14451714D01*
X11455000Y-14466000D01*
X11469286Y-14480286D01*
X11483571Y-14508857D01*
X11497857Y-14566000D01*
X11497857Y-14637429D01*
X11483571Y-14694571D01*
X11469286Y-14723143D01*
X11455000Y-14737429D01*
X11426428Y-14751714D01*
X11397857Y-14751714D01*
X11369286Y-14737429D01*
X11355000Y-14723143D01*
X11340714Y-14694571D01*
X11326428Y-14637429D01*
X11326428Y-14566000D01*
X11340714Y-14508857D01*
X11355000Y-14480286D01*
X11369286Y-14466000D01*
X11397857Y-14451714D01*
X11626428Y-14751714D02*
X11626428Y-14551714D01*
X11626428Y-14580286D02*
X11640714Y-14566000D01*
X11669286Y-14551714D01*
X11712143Y-14551714D01*
X11740714Y-14566000D01*
X11755000Y-14594571D01*
X11755000Y-14751714D01*
X11755000Y-14594571D02*
X11769286Y-14566000D01*
X11797857Y-14551714D01*
X11840714Y-14551714D01*
X11869286Y-14566000D01*
X11883571Y-14594571D01*
X11883571Y-14751714D01*
X12026428Y-14751714D02*
X12026428Y-14551714D01*
X12026428Y-14580286D02*
X12040714Y-14566000D01*
X12069286Y-14551714D01*
X12112143Y-14551714D01*
X12140714Y-14566000D01*
X12155000Y-14594571D01*
X12155000Y-14751714D01*
X12155000Y-14594571D02*
X12169286Y-14566000D01*
X12197857Y-14551714D01*
X12240714Y-14551714D01*
X12269286Y-14566000D01*
X12283571Y-14594571D01*
X12283571Y-14751714D01*
X12869286Y-14437429D02*
X12612143Y-14823143D01*
X13255000Y-14451714D02*
X13283571Y-14451714D01*
X13312143Y-14466000D01*
X13326428Y-14480286D01*
X13340714Y-14508857D01*
X13355000Y-14566000D01*
X13355000Y-14637429D01*
X13340714Y-14694571D01*
X13326428Y-14723143D01*
X13312143Y-14737429D01*
X13283571Y-14751714D01*
X13255000Y-14751714D01*
X13226428Y-14737429D01*
X13212143Y-14723143D01*
X13197857Y-14694571D01*
X13183571Y-14637429D01*
X13183571Y-14566000D01*
X13197857Y-14508857D01*
X13212143Y-14480286D01*
X13226428Y-14466000D01*
X13255000Y-14451714D01*
X13483571Y-14723143D02*
X13497857Y-14737429D01*
X13483571Y-14751714D01*
X13469286Y-14737429D01*
X13483571Y-14723143D01*
X13483571Y-14751714D01*
X13683571Y-14451714D02*
X13712143Y-14451714D01*
X13740714Y-14466000D01*
X13755000Y-14480286D01*
X13769286Y-14508857D01*
X13783571Y-14566000D01*
X13783571Y-14637429D01*
X13769286Y-14694571D01*
X13755000Y-14723143D01*
X13740714Y-14737429D01*
X13712143Y-14751714D01*
X13683571Y-14751714D01*
X13655000Y-14737429D01*
X13640714Y-14723143D01*
X13626428Y-14694571D01*
X13612143Y-14637429D01*
X13612143Y-14566000D01*
X13626428Y-14508857D01*
X13640714Y-14480286D01*
X13655000Y-14466000D01*
X13683571Y-14451714D01*
X14069286Y-14751714D02*
X13897857Y-14751714D01*
X13983571Y-14751714D02*
X13983571Y-14451714D01*
X13955000Y-14494571D01*
X13926428Y-14523143D01*
X13897857Y-14537429D01*
X14326428Y-14451714D02*
X14269286Y-14451714D01*
X14240714Y-14466000D01*
X14226428Y-14480286D01*
X14197857Y-14523143D01*
X14183571Y-14580286D01*
X14183571Y-14694571D01*
X14197857Y-14723143D01*
X14212143Y-14737429D01*
X14240714Y-14751714D01*
X14297857Y-14751714D01*
X14326428Y-14737429D01*
X14340714Y-14723143D01*
X14355000Y-14694571D01*
X14355000Y-14623143D01*
X14340714Y-14594571D01*
X14326428Y-14580286D01*
X14297857Y-14566000D01*
X14240714Y-14566000D01*
X14212143Y-14580286D01*
X14197857Y-14594571D01*
X14183571Y-14623143D01*
X14469286Y-14451714D02*
X14469286Y-14508857D01*
X14583571Y-14451714D02*
X14583571Y-14508857D01*
X15026428Y-14866000D02*
X15012143Y-14851714D01*
X14983571Y-14808857D01*
X14969286Y-14780286D01*
X14955000Y-14737429D01*
X14940714Y-14666000D01*
X14940714Y-14608857D01*
X14955000Y-14537429D01*
X14969286Y-14494571D01*
X14983571Y-14466000D01*
X15012143Y-14423143D01*
X15026428Y-14408857D01*
X15283571Y-14451714D02*
X15140714Y-14451714D01*
X15126428Y-14594571D01*
X15140714Y-14580286D01*
X15169286Y-14566000D01*
X15240714Y-14566000D01*
X15269286Y-14580286D01*
X15283571Y-14594571D01*
X15297857Y-14623143D01*
X15297857Y-14694571D01*
X15283571Y-14723143D01*
X15269286Y-14737429D01*
X15240714Y-14751714D01*
X15169286Y-14751714D01*
X15140714Y-14737429D01*
X15126428Y-14723143D01*
X15655000Y-14751714D02*
X15655000Y-14451714D01*
X15783571Y-14751714D02*
X15783571Y-14594571D01*
X15769286Y-14566000D01*
X15740714Y-14551714D01*
X15697857Y-14551714D01*
X15669286Y-14566000D01*
X15655000Y-14580286D01*
X15969286Y-14751714D02*
X15940714Y-14737429D01*
X15926428Y-14723143D01*
X15912143Y-14694571D01*
X15912143Y-14608857D01*
X15926428Y-14580286D01*
X15940714Y-14566000D01*
X15969286Y-14551714D01*
X16012143Y-14551714D01*
X16040714Y-14566000D01*
X16055000Y-14580286D01*
X16069286Y-14608857D01*
X16069286Y-14694571D01*
X16055000Y-14723143D01*
X16040714Y-14737429D01*
X16012143Y-14751714D01*
X15969286Y-14751714D01*
X16240714Y-14751714D02*
X16212143Y-14737429D01*
X16197857Y-14708857D01*
X16197857Y-14451714D01*
X16469286Y-14737429D02*
X16440714Y-14751714D01*
X16383571Y-14751714D01*
X16355000Y-14737429D01*
X16340714Y-14708857D01*
X16340714Y-14594571D01*
X16355000Y-14566000D01*
X16383571Y-14551714D01*
X16440714Y-14551714D01*
X16469286Y-14566000D01*
X16483571Y-14594571D01*
X16483571Y-14623143D01*
X16340714Y-14651714D01*
X16597857Y-14737429D02*
X16626428Y-14751714D01*
X16683571Y-14751714D01*
X16712143Y-14737429D01*
X16726428Y-14708857D01*
X16726428Y-14694571D01*
X16712143Y-14666000D01*
X16683571Y-14651714D01*
X16640714Y-14651714D01*
X16612143Y-14637429D01*
X16597857Y-14608857D01*
X16597857Y-14594571D01*
X16612143Y-14566000D01*
X16640714Y-14551714D01*
X16683571Y-14551714D01*
X16712143Y-14566000D01*
X16826428Y-14866000D02*
X16840714Y-14851714D01*
X16869286Y-14808857D01*
X16883571Y-14780286D01*
X16897857Y-14737429D01*
X16912143Y-14666000D01*
X16912143Y-14608857D01*
X16897857Y-14537429D01*
X16883571Y-14494571D01*
X16869286Y-14466000D01*
X16840714Y-14423143D01*
X16826428Y-14408857D01*
X10315000Y-14987000D02*
X10315000Y-15037000D01*
X10290000Y-15012000D02*
X10340000Y-15012000D01*
X10683571Y-14847714D02*
X10712143Y-14847714D01*
X10740714Y-14862000D01*
X10755000Y-14876286D01*
X10769286Y-14904857D01*
X10783571Y-14962000D01*
X10783571Y-15033429D01*
X10769286Y-15090571D01*
X10755000Y-15119143D01*
X10740714Y-15133429D01*
X10712143Y-15147714D01*
X10683571Y-15147714D01*
X10655000Y-15133429D01*
X10640714Y-15119143D01*
X10626428Y-15090571D01*
X10612143Y-15033429D01*
X10612143Y-14962000D01*
X10626428Y-14904857D01*
X10640714Y-14876286D01*
X10655000Y-14862000D01*
X10683571Y-14847714D01*
X10912143Y-15119143D02*
X10926428Y-15133429D01*
X10912143Y-15147714D01*
X10897857Y-15133429D01*
X10912143Y-15119143D01*
X10912143Y-15147714D01*
X11197857Y-14847714D02*
X11055000Y-14847714D01*
X11040714Y-14990571D01*
X11055000Y-14976286D01*
X11083571Y-14962000D01*
X11155000Y-14962000D01*
X11183571Y-14976286D01*
X11197857Y-14990571D01*
X11212143Y-15019143D01*
X11212143Y-15090571D01*
X11197857Y-15119143D01*
X11183571Y-15133429D01*
X11155000Y-15147714D01*
X11083571Y-15147714D01*
X11055000Y-15133429D01*
X11040714Y-15119143D01*
X11397857Y-14847714D02*
X11426428Y-14847714D01*
X11455000Y-14862000D01*
X11469286Y-14876286D01*
X11483571Y-14904857D01*
X11497857Y-14962000D01*
X11497857Y-15033429D01*
X11483571Y-15090571D01*
X11469286Y-15119143D01*
X11455000Y-15133429D01*
X11426428Y-15147714D01*
X11397857Y-15147714D01*
X11369286Y-15133429D01*
X11355000Y-15119143D01*
X11340714Y-15090571D01*
X11326428Y-15033429D01*
X11326428Y-14962000D01*
X11340714Y-14904857D01*
X11355000Y-14876286D01*
X11369286Y-14862000D01*
X11397857Y-14847714D01*
X11626428Y-15147714D02*
X11626428Y-14947714D01*
X11626428Y-14976286D02*
X11640714Y-14962000D01*
X11669286Y-14947714D01*
X11712143Y-14947714D01*
X11740714Y-14962000D01*
X11755000Y-14990571D01*
X11755000Y-15147714D01*
X11755000Y-14990571D02*
X11769286Y-14962000D01*
X11797857Y-14947714D01*
X11840714Y-14947714D01*
X11869286Y-14962000D01*
X11883571Y-14990571D01*
X11883571Y-15147714D01*
X12026428Y-15147714D02*
X12026428Y-14947714D01*
X12026428Y-14976286D02*
X12040714Y-14962000D01*
X12069286Y-14947714D01*
X12112143Y-14947714D01*
X12140714Y-14962000D01*
X12155000Y-14990571D01*
X12155000Y-15147714D01*
X12155000Y-14990571D02*
X12169286Y-14962000D01*
X12197857Y-14947714D01*
X12240714Y-14947714D01*
X12269286Y-14962000D01*
X12283571Y-14990571D01*
X12283571Y-15147714D01*
X12869286Y-14833429D02*
X12612143Y-15219143D01*
X13255000Y-14847714D02*
X13283571Y-14847714D01*
X13312143Y-14862000D01*
X13326428Y-14876286D01*
X13340714Y-14904857D01*
X13355000Y-14962000D01*
X13355000Y-15033429D01*
X13340714Y-15090571D01*
X13326428Y-15119143D01*
X13312143Y-15133429D01*
X13283571Y-15147714D01*
X13255000Y-15147714D01*
X13226428Y-15133429D01*
X13212143Y-15119143D01*
X13197857Y-15090571D01*
X13183571Y-15033429D01*
X13183571Y-14962000D01*
X13197857Y-14904857D01*
X13212143Y-14876286D01*
X13226428Y-14862000D01*
X13255000Y-14847714D01*
X13483571Y-15119143D02*
X13497857Y-15133429D01*
X13483571Y-15147714D01*
X13469286Y-15133429D01*
X13483571Y-15119143D01*
X13483571Y-15147714D01*
X13683571Y-14847714D02*
X13712143Y-14847714D01*
X13740714Y-14862000D01*
X13755000Y-14876286D01*
X13769286Y-14904857D01*
X13783571Y-14962000D01*
X13783571Y-15033429D01*
X13769286Y-15090571D01*
X13755000Y-15119143D01*
X13740714Y-15133429D01*
X13712143Y-15147714D01*
X13683571Y-15147714D01*
X13655000Y-15133429D01*
X13640714Y-15119143D01*
X13626428Y-15090571D01*
X13612143Y-15033429D01*
X13612143Y-14962000D01*
X13626428Y-14904857D01*
X13640714Y-14876286D01*
X13655000Y-14862000D01*
X13683571Y-14847714D01*
X13897857Y-14876286D02*
X13912143Y-14862000D01*
X13940714Y-14847714D01*
X14012143Y-14847714D01*
X14040714Y-14862000D01*
X14055000Y-14876286D01*
X14069286Y-14904857D01*
X14069286Y-14933429D01*
X14055000Y-14976286D01*
X13883571Y-15147714D01*
X14069286Y-15147714D01*
X14255000Y-14847714D02*
X14283571Y-14847714D01*
X14312143Y-14862000D01*
X14326428Y-14876286D01*
X14340714Y-14904857D01*
X14355000Y-14962000D01*
X14355000Y-15033429D01*
X14340714Y-15090571D01*
X14326428Y-15119143D01*
X14312143Y-15133429D01*
X14283571Y-15147714D01*
X14255000Y-15147714D01*
X14226428Y-15133429D01*
X14212143Y-15119143D01*
X14197857Y-15090571D01*
X14183571Y-15033429D01*
X14183571Y-14962000D01*
X14197857Y-14904857D01*
X14212143Y-14876286D01*
X14226428Y-14862000D01*
X14255000Y-14847714D01*
X14469286Y-14847714D02*
X14469286Y-14904857D01*
X14583571Y-14847714D02*
X14583571Y-14904857D01*
X15026428Y-15262000D02*
X15012143Y-15247714D01*
X14983571Y-15204857D01*
X14969286Y-15176286D01*
X14955000Y-15133429D01*
X14940714Y-15062000D01*
X14940714Y-15004857D01*
X14955000Y-14933429D01*
X14969286Y-14890571D01*
X14983571Y-14862000D01*
X15012143Y-14819143D01*
X15026428Y-14804857D01*
X15297857Y-15147714D02*
X15126428Y-15147714D01*
X15212143Y-15147714D02*
X15212143Y-14847714D01*
X15183571Y-14890571D01*
X15155000Y-14919143D01*
X15126428Y-14933429D01*
X15483571Y-14847714D02*
X15512143Y-14847714D01*
X15540714Y-14862000D01*
X15555000Y-14876286D01*
X15569286Y-14904857D01*
X15583571Y-14962000D01*
X15583571Y-15033429D01*
X15569286Y-15090571D01*
X15555000Y-15119143D01*
X15540714Y-15133429D01*
X15512143Y-15147714D01*
X15483571Y-15147714D01*
X15455000Y-15133429D01*
X15440714Y-15119143D01*
X15426428Y-15090571D01*
X15412143Y-15033429D01*
X15412143Y-14962000D01*
X15426428Y-14904857D01*
X15440714Y-14876286D01*
X15455000Y-14862000D01*
X15483571Y-14847714D01*
X15940714Y-15147714D02*
X15940714Y-14847714D01*
X16069286Y-15147714D02*
X16069286Y-14990571D01*
X16055000Y-14962000D01*
X16026428Y-14947714D01*
X15983571Y-14947714D01*
X15955000Y-14962000D01*
X15940714Y-14976286D01*
X16255000Y-15147714D02*
X16226428Y-15133429D01*
X16212143Y-15119143D01*
X16197857Y-15090571D01*
X16197857Y-15004857D01*
X16212143Y-14976286D01*
X16226428Y-14962000D01*
X16255000Y-14947714D01*
X16297857Y-14947714D01*
X16326428Y-14962000D01*
X16340714Y-14976286D01*
X16355000Y-15004857D01*
X16355000Y-15090571D01*
X16340714Y-15119143D01*
X16326428Y-15133429D01*
X16297857Y-15147714D01*
X16255000Y-15147714D01*
X16526428Y-15147714D02*
X16497857Y-15133429D01*
X16483571Y-15104857D01*
X16483571Y-14847714D01*
X16755000Y-15133429D02*
X16726428Y-15147714D01*
X16669286Y-15147714D01*
X16640714Y-15133429D01*
X16626428Y-15104857D01*
X16626428Y-14990571D01*
X16640714Y-14962000D01*
X16669286Y-14947714D01*
X16726428Y-14947714D01*
X16755000Y-14962000D01*
X16769286Y-14990571D01*
X16769286Y-15019143D01*
X16626428Y-15047714D01*
X16883571Y-15133429D02*
X16912143Y-15147714D01*
X16969286Y-15147714D01*
X16997857Y-15133429D01*
X17012143Y-15104857D01*
X17012143Y-15090571D01*
X16997857Y-15062000D01*
X16969286Y-15047714D01*
X16926428Y-15047714D01*
X16897857Y-15033429D01*
X16883571Y-15004857D01*
X16883571Y-14990571D01*
X16897857Y-14962000D01*
X16926428Y-14947714D01*
X16969286Y-14947714D01*
X16997857Y-14962000D01*
X17112143Y-15262000D02*
X17126428Y-15247714D01*
X17155000Y-15204857D01*
X17169286Y-15176286D01*
X17183571Y-15133429D01*
X17197857Y-15062000D01*
X17197857Y-15004857D01*
X17183571Y-14933429D01*
X17169286Y-14890571D01*
X17155000Y-14862000D01*
X17126428Y-14819143D01*
X17112143Y-14804857D01*
X10328284Y-15436285D02*
X10328284Y-15379716D01*
X10271715Y-15379716D01*
X10271715Y-15436285D01*
X10328284Y-15436285D01*
X10683571Y-15243714D02*
X10712143Y-15243714D01*
X10740714Y-15258000D01*
X10755000Y-15272286D01*
X10769286Y-15300857D01*
X10783571Y-15358000D01*
X10783571Y-15429429D01*
X10769286Y-15486571D01*
X10755000Y-15515143D01*
X10740714Y-15529429D01*
X10712143Y-15543714D01*
X10683571Y-15543714D01*
X10655000Y-15529429D01*
X10640714Y-15515143D01*
X10626428Y-15486571D01*
X10612143Y-15429429D01*
X10612143Y-15358000D01*
X10626428Y-15300857D01*
X10640714Y-15272286D01*
X10655000Y-15258000D01*
X10683571Y-15243714D01*
X10912143Y-15515143D02*
X10926428Y-15529429D01*
X10912143Y-15543714D01*
X10897857Y-15529429D01*
X10912143Y-15515143D01*
X10912143Y-15543714D01*
X11097857Y-15372286D02*
X11069286Y-15358000D01*
X11055000Y-15343714D01*
X11040714Y-15315143D01*
X11040714Y-15300857D01*
X11055000Y-15272286D01*
X11069286Y-15258000D01*
X11097857Y-15243714D01*
X11155000Y-15243714D01*
X11183571Y-15258000D01*
X11197857Y-15272286D01*
X11212143Y-15300857D01*
X11212143Y-15315143D01*
X11197857Y-15343714D01*
X11183571Y-15358000D01*
X11155000Y-15372286D01*
X11097857Y-15372286D01*
X11069286Y-15386571D01*
X11055000Y-15400857D01*
X11040714Y-15429429D01*
X11040714Y-15486571D01*
X11055000Y-15515143D01*
X11069286Y-15529429D01*
X11097857Y-15543714D01*
X11155000Y-15543714D01*
X11183571Y-15529429D01*
X11197857Y-15515143D01*
X11212143Y-15486571D01*
X11212143Y-15429429D01*
X11197857Y-15400857D01*
X11183571Y-15386571D01*
X11155000Y-15372286D01*
X11397857Y-15243714D02*
X11426428Y-15243714D01*
X11455000Y-15258000D01*
X11469286Y-15272286D01*
X11483571Y-15300857D01*
X11497857Y-15358000D01*
X11497857Y-15429429D01*
X11483571Y-15486571D01*
X11469286Y-15515143D01*
X11455000Y-15529429D01*
X11426428Y-15543714D01*
X11397857Y-15543714D01*
X11369286Y-15529429D01*
X11355000Y-15515143D01*
X11340714Y-15486571D01*
X11326428Y-15429429D01*
X11326428Y-15358000D01*
X11340714Y-15300857D01*
X11355000Y-15272286D01*
X11369286Y-15258000D01*
X11397857Y-15243714D01*
X11626428Y-15543714D02*
X11626428Y-15343714D01*
X11626428Y-15372286D02*
X11640714Y-15358000D01*
X11669286Y-15343714D01*
X11712143Y-15343714D01*
X11740714Y-15358000D01*
X11755000Y-15386571D01*
X11755000Y-15543714D01*
X11755000Y-15386571D02*
X11769286Y-15358000D01*
X11797857Y-15343714D01*
X11840714Y-15343714D01*
X11869286Y-15358000D01*
X11883571Y-15386571D01*
X11883571Y-15543714D01*
X12026428Y-15543714D02*
X12026428Y-15343714D01*
X12026428Y-15372286D02*
X12040714Y-15358000D01*
X12069286Y-15343714D01*
X12112143Y-15343714D01*
X12140714Y-15358000D01*
X12155000Y-15386571D01*
X12155000Y-15543714D01*
X12155000Y-15386571D02*
X12169286Y-15358000D01*
X12197857Y-15343714D01*
X12240714Y-15343714D01*
X12269286Y-15358000D01*
X12283571Y-15386571D01*
X12283571Y-15543714D01*
X12869286Y-15229429D02*
X12612143Y-15615143D01*
X13255000Y-15243714D02*
X13283571Y-15243714D01*
X13312143Y-15258000D01*
X13326428Y-15272286D01*
X13340714Y-15300857D01*
X13355000Y-15358000D01*
X13355000Y-15429429D01*
X13340714Y-15486571D01*
X13326428Y-15515143D01*
X13312143Y-15529429D01*
X13283571Y-15543714D01*
X13255000Y-15543714D01*
X13226428Y-15529429D01*
X13212143Y-15515143D01*
X13197857Y-15486571D01*
X13183571Y-15429429D01*
X13183571Y-15358000D01*
X13197857Y-15300857D01*
X13212143Y-15272286D01*
X13226428Y-15258000D01*
X13255000Y-15243714D01*
X13483571Y-15515143D02*
X13497857Y-15529429D01*
X13483571Y-15543714D01*
X13469286Y-15529429D01*
X13483571Y-15515143D01*
X13483571Y-15543714D01*
X13683571Y-15243714D02*
X13712143Y-15243714D01*
X13740714Y-15258000D01*
X13755000Y-15272286D01*
X13769286Y-15300857D01*
X13783571Y-15358000D01*
X13783571Y-15429429D01*
X13769286Y-15486571D01*
X13755000Y-15515143D01*
X13740714Y-15529429D01*
X13712143Y-15543714D01*
X13683571Y-15543714D01*
X13655000Y-15529429D01*
X13640714Y-15515143D01*
X13626428Y-15486571D01*
X13612143Y-15429429D01*
X13612143Y-15358000D01*
X13626428Y-15300857D01*
X13640714Y-15272286D01*
X13655000Y-15258000D01*
X13683571Y-15243714D01*
X13883571Y-15243714D02*
X14069286Y-15243714D01*
X13969286Y-15358000D01*
X14012143Y-15358000D01*
X14040714Y-15372286D01*
X14055000Y-15386571D01*
X14069286Y-15415143D01*
X14069286Y-15486571D01*
X14055000Y-15515143D01*
X14040714Y-15529429D01*
X14012143Y-15543714D01*
X13926428Y-15543714D01*
X13897857Y-15529429D01*
X13883571Y-15515143D01*
X14355000Y-15543714D02*
X14183571Y-15543714D01*
X14269286Y-15543714D02*
X14269286Y-15243714D01*
X14240714Y-15286571D01*
X14212143Y-15315143D01*
X14183571Y-15329429D01*
X14469286Y-15243714D02*
X14469286Y-15300857D01*
X14583571Y-15243714D02*
X14583571Y-15300857D01*
X15026428Y-15658000D02*
X15012143Y-15643714D01*
X14983571Y-15600857D01*
X14969286Y-15572286D01*
X14955000Y-15529429D01*
X14940714Y-15458000D01*
X14940714Y-15400857D01*
X14955000Y-15329429D01*
X14969286Y-15286571D01*
X14983571Y-15258000D01*
X15012143Y-15215143D01*
X15026428Y-15200857D01*
X15112143Y-15243714D02*
X15312143Y-15243714D01*
X15183571Y-15543714D01*
X15412143Y-15272286D02*
X15426428Y-15258000D01*
X15455000Y-15243714D01*
X15526428Y-15243714D01*
X15555000Y-15258000D01*
X15569286Y-15272286D01*
X15583571Y-15300857D01*
X15583571Y-15329429D01*
X15569286Y-15372286D01*
X15397857Y-15543714D01*
X15583571Y-15543714D01*
X15940714Y-15543714D02*
X15940714Y-15243714D01*
X16069286Y-15543714D02*
X16069286Y-15386571D01*
X16055000Y-15358000D01*
X16026428Y-15343714D01*
X15983571Y-15343714D01*
X15955000Y-15358000D01*
X15940714Y-15372286D01*
X16255000Y-15543714D02*
X16226428Y-15529429D01*
X16212143Y-15515143D01*
X16197857Y-15486571D01*
X16197857Y-15400857D01*
X16212143Y-15372286D01*
X16226428Y-15358000D01*
X16255000Y-15343714D01*
X16297857Y-15343714D01*
X16326428Y-15358000D01*
X16340714Y-15372286D01*
X16355000Y-15400857D01*
X16355000Y-15486571D01*
X16340714Y-15515143D01*
X16326428Y-15529429D01*
X16297857Y-15543714D01*
X16255000Y-15543714D01*
X16526428Y-15543714D02*
X16497857Y-15529429D01*
X16483571Y-15500857D01*
X16483571Y-15243714D01*
X16755000Y-15529429D02*
X16726428Y-15543714D01*
X16669286Y-15543714D01*
X16640714Y-15529429D01*
X16626428Y-15500857D01*
X16626428Y-15386571D01*
X16640714Y-15358000D01*
X16669286Y-15343714D01*
X16726428Y-15343714D01*
X16755000Y-15358000D01*
X16769286Y-15386571D01*
X16769286Y-15415143D01*
X16626428Y-15443714D01*
X16883571Y-15529429D02*
X16912143Y-15543714D01*
X16969286Y-15543714D01*
X16997857Y-15529429D01*
X17012143Y-15500857D01*
X17012143Y-15486571D01*
X16997857Y-15458000D01*
X16969286Y-15443714D01*
X16926428Y-15443714D01*
X16897857Y-15429429D01*
X16883571Y-15400857D01*
X16883571Y-15386571D01*
X16897857Y-15358000D01*
X16926428Y-15343714D01*
X16969286Y-15343714D01*
X16997857Y-15358000D01*
X17112143Y-15658000D02*
X17126428Y-15643714D01*
X17155000Y-15600857D01*
X17169286Y-15572286D01*
X17183571Y-15529429D01*
X17197857Y-15458000D01*
X17197857Y-15400857D01*
X17183571Y-15329429D01*
X17169286Y-15286571D01*
X17155000Y-15258000D01*
X17126428Y-15215143D01*
X17112143Y-15200857D01*
M02*
