G04 #@! TF.GenerationSoftware,KiCad,Pcbnew,5.0.0-rc2-dev-unknown+dfsg1+20180318-3*
G04 #@! TF.CreationDate,2018-05-20T20:27:50-07:00*
G04 #@! TF.ProjectId,DC26Badge,4443323642616467652E6B696361645F,rev?*
G04 #@! TF.SameCoordinates,Original*
G04 #@! TF.FileFunction,Copper,L2,Bot,Signal*
G04 #@! TF.FilePolarity,Positive*
%FSLAX46Y46*%
G04 Gerber Fmt 4.6, Leading zero omitted, Abs format (unit mm)*
G04 Created by KiCad (PCBNEW 5.0.0-rc2-dev-unknown+dfsg1+20180318-3) date Sun May 20 20:27:50 2018*
%MOMM*%
%LPD*%
G01*
G04 APERTURE LIST*
%ADD10O,1.270000X2.000000*%
%ADD11C,1.100000*%
%ADD12C,0.100000*%
%ADD13C,1.900000*%
%ADD14C,1.000000*%
%ADD15C,0.600000*%
%ADD16C,0.800000*%
%ADD17C,0.250000*%
%ADD18C,0.254000*%
G04 APERTURE END LIST*
D10*
X183215000Y-88120000D03*
X183215000Y-72880000D03*
X185755000Y-88120000D03*
X185755000Y-72880000D03*
X188295000Y-88120000D03*
X188295000Y-72880000D03*
X190835000Y-88120000D03*
X190835000Y-72880000D03*
X193375000Y-88120000D03*
X193375000Y-72880000D03*
X195915000Y-88120000D03*
X195915000Y-72880000D03*
X198455000Y-88120000D03*
X198455000Y-72880000D03*
X200995000Y-88120000D03*
X200995000Y-72880000D03*
X203535000Y-88120000D03*
X203535000Y-72880000D03*
X178285000Y-72880000D03*
X178285000Y-88120000D03*
X175745000Y-72880000D03*
X175745000Y-88120000D03*
X173205000Y-72880000D03*
X173205000Y-88120000D03*
X170665000Y-72880000D03*
X170665000Y-88120000D03*
X168125000Y-72880000D03*
X168125000Y-88120000D03*
X165585000Y-72880000D03*
X165585000Y-88120000D03*
X163045000Y-72880000D03*
X163045000Y-88120000D03*
X160505000Y-72880000D03*
X160505000Y-88120000D03*
X157965000Y-72880000D03*
X157965000Y-88120000D03*
X153035000Y-72880000D03*
X153035000Y-88120000D03*
X150495000Y-72880000D03*
X150495000Y-88120000D03*
X147955000Y-72880000D03*
X147955000Y-88120000D03*
X145415000Y-72880000D03*
X145415000Y-88120000D03*
X142875000Y-72880000D03*
X142875000Y-88120000D03*
X140335000Y-72880000D03*
X140335000Y-88120000D03*
X137795000Y-72880000D03*
X137795000Y-88120000D03*
X135255000Y-72880000D03*
X135255000Y-88120000D03*
X132715000Y-72880000D03*
X132715000Y-88120000D03*
X107465000Y-88120000D03*
X107465000Y-72880000D03*
X110005000Y-88120000D03*
X110005000Y-72880000D03*
X112545000Y-88120000D03*
X112545000Y-72880000D03*
X115085000Y-88120000D03*
X115085000Y-72880000D03*
X117625000Y-88120000D03*
X117625000Y-72880000D03*
X120165000Y-88120000D03*
X120165000Y-72880000D03*
X122705000Y-88120000D03*
X122705000Y-72880000D03*
X125245000Y-88120000D03*
X125245000Y-72880000D03*
X127785000Y-88120000D03*
X127785000Y-72880000D03*
D11*
X156861181Y-57841080D03*
D12*
G36*
X157126346Y-58884063D02*
X155818198Y-57575915D01*
X156596016Y-56798097D01*
X157904164Y-58106245D01*
X157126346Y-58884063D01*
X157126346Y-58884063D01*
G37*
D11*
X152158920Y-53138819D03*
D12*
G36*
X152424085Y-54181802D02*
X151115937Y-52873654D01*
X151893755Y-52095836D01*
X153201903Y-53403984D01*
X152424085Y-54181802D01*
X152424085Y-54181802D01*
G37*
D11*
X157851130Y-56851130D03*
D12*
G36*
X158116295Y-57894113D02*
X156808147Y-56585965D01*
X157585965Y-55808147D01*
X158894113Y-57116295D01*
X158116295Y-57894113D01*
X158116295Y-57894113D01*
G37*
D11*
X153148870Y-52148870D03*
D12*
G36*
X153414035Y-53191853D02*
X152105887Y-51883705D01*
X152883705Y-51105887D01*
X154191853Y-52414035D01*
X153414035Y-53191853D01*
X153414035Y-53191853D01*
G37*
D11*
X158841080Y-55861181D03*
D12*
G36*
X159106245Y-56904164D02*
X157798097Y-55596016D01*
X158575915Y-54818198D01*
X159884063Y-56126346D01*
X159106245Y-56904164D01*
X159106245Y-56904164D01*
G37*
D11*
X154138819Y-51158920D03*
D12*
G36*
X154403984Y-52201903D02*
X153095836Y-50893755D01*
X153873654Y-50115937D01*
X155181802Y-51424085D01*
X154403984Y-52201903D01*
X154403984Y-52201903D01*
G37*
D13*
X159106245Y-50893755D03*
D12*
G36*
X159141600Y-52272613D02*
X157727387Y-50858400D01*
X159070890Y-49514897D01*
X160485103Y-50929110D01*
X159141600Y-52272613D01*
X159141600Y-52272613D01*
G37*
D13*
X151893755Y-58106245D03*
D12*
G36*
X151929110Y-59485103D02*
X150514897Y-58070890D01*
X151858400Y-56727387D01*
X153272613Y-58141600D01*
X151929110Y-59485103D01*
X151929110Y-59485103D01*
G37*
D14*
X176000000Y-49250000D03*
X185500000Y-45500000D03*
X176000000Y-111500000D03*
X177750000Y-113250000D03*
X177750000Y-110000000D03*
X177750000Y-111500000D03*
X187500000Y-111500000D03*
D15*
X182000000Y-85500000D03*
X181375000Y-84750000D03*
X160500000Y-84750000D03*
X135250000Y-84750000D03*
X110000000Y-84750000D03*
X110000000Y-64200000D03*
X174500000Y-60750000D03*
X180750000Y-84000000D03*
X163000000Y-84000000D03*
X137750000Y-84000000D03*
X112500000Y-84000000D03*
X188750000Y-65750000D03*
X187000000Y-65750000D03*
X163000000Y-75750000D03*
X137750000Y-75750000D03*
X112500000Y-75750000D03*
X180125000Y-83250000D03*
X165500000Y-83250000D03*
X140250000Y-83250000D03*
X115000000Y-83250000D03*
X190750000Y-64500000D03*
X187000000Y-64500000D03*
X165500000Y-76500000D03*
X140250000Y-76500000D03*
X115000000Y-76500000D03*
X187000000Y-56800000D03*
X194600000Y-56800000D03*
X168250000Y-82500000D03*
X143000000Y-82500000D03*
X117750000Y-82500000D03*
X168250000Y-67000000D03*
X174500000Y-67000000D03*
X168250000Y-77250000D03*
X143000000Y-77250000D03*
X117500000Y-77250000D03*
X179500000Y-81750000D03*
X170750000Y-81750000D03*
X145500000Y-81750000D03*
X120250000Y-81750000D03*
X170750000Y-65750000D03*
X174500000Y-65750000D03*
X170750000Y-78000000D03*
X145500000Y-78000000D03*
X120250000Y-78000000D03*
X122750000Y-60500000D03*
X174500000Y-59250000D03*
X197200000Y-81700000D03*
X197200000Y-55600000D03*
X187000000Y-55600000D03*
X175750000Y-81000000D03*
X150500000Y-81000000D03*
X125250000Y-81000000D03*
X175750000Y-78750000D03*
X150500000Y-78750000D03*
X125250000Y-78750000D03*
X187000000Y-54400000D03*
X192000000Y-54400000D03*
X192000000Y-80263167D03*
X178250000Y-80300003D03*
X153000000Y-80300003D03*
X127750000Y-80300003D03*
X178250000Y-79500000D03*
X153000000Y-79500000D03*
X127750000Y-79500000D03*
X194600000Y-51750000D03*
X178000000Y-51750000D03*
X188000000Y-53000000D03*
X178000000Y-53000000D03*
X162500000Y-55500000D03*
X174500000Y-55500000D03*
X162500000Y-70000000D03*
X162500000Y-56750000D03*
X174500000Y-56750000D03*
X163250000Y-69000000D03*
X163250000Y-58000000D03*
X174500000Y-58000000D03*
D16*
X155750000Y-58800000D03*
X151750000Y-51000000D03*
X160000000Y-54750000D03*
X150750000Y-52000000D03*
D14*
X148750000Y-46750000D03*
X154250000Y-45825000D03*
X153750000Y-42250000D03*
D16*
X150750000Y-50000000D03*
D17*
X182000000Y-85500000D02*
X182750000Y-85500000D01*
X158000000Y-85500000D02*
X182000000Y-85500000D01*
X132750000Y-85500000D02*
X158000000Y-85500000D01*
X108000000Y-85500000D02*
X132750000Y-85500000D01*
X132715000Y-88120000D02*
X132715000Y-86870000D01*
X132715000Y-86870000D02*
X132750000Y-86835000D01*
X132750000Y-86835000D02*
X132750000Y-85500000D01*
X158000000Y-87720000D02*
X158000000Y-85500000D01*
X157965000Y-88120000D02*
X157965000Y-87755000D01*
X157965000Y-87755000D02*
X158000000Y-87720000D01*
X107500000Y-86000000D02*
X108000000Y-85500000D01*
X107465000Y-88120000D02*
X107465000Y-87755000D01*
X107465000Y-87755000D02*
X107500000Y-87720000D01*
X182750000Y-85500000D02*
X183215000Y-85965000D01*
X107500000Y-87720000D02*
X107500000Y-86000000D01*
X183215000Y-85965000D02*
X183215000Y-88120000D01*
X158000000Y-75000000D02*
X132750000Y-75000000D01*
X182345000Y-75000000D02*
X158000000Y-75000000D01*
X157965000Y-72880000D02*
X157965000Y-74965000D01*
X157965000Y-74965000D02*
X158000000Y-75000000D01*
X132750000Y-75000000D02*
X108000000Y-75000000D01*
X132715000Y-72880000D02*
X132715000Y-74130000D01*
X132715000Y-74130000D02*
X132750000Y-74165000D01*
X132750000Y-74165000D02*
X132750000Y-75000000D01*
X108000000Y-75000000D02*
X107465000Y-74465000D01*
X107465000Y-74465000D02*
X107465000Y-72880000D01*
X183215000Y-72880000D02*
X183215000Y-74130000D01*
X183215000Y-74130000D02*
X182345000Y-75000000D01*
X181375000Y-84750000D02*
X160500000Y-84750000D01*
X185500000Y-84750000D02*
X181375000Y-84750000D01*
X160500000Y-84750000D02*
X135250000Y-84750000D01*
X135250000Y-84750000D02*
X110000000Y-84750000D01*
X185755000Y-85005000D02*
X185500000Y-84750000D01*
X185755000Y-88120000D02*
X185755000Y-85005000D01*
X157636410Y-61250000D02*
X113000000Y-61250000D01*
X110000000Y-64200000D02*
X112950000Y-61250000D01*
X112950000Y-61250000D02*
X113000000Y-61250000D01*
X159500000Y-61250000D02*
X157636410Y-61250000D01*
X160000000Y-60750000D02*
X159500000Y-61250000D01*
X174500000Y-60750000D02*
X160000000Y-60750000D01*
X180750000Y-84000000D02*
X163000000Y-84000000D01*
X187500000Y-84000000D02*
X180750000Y-84000000D01*
X163000000Y-84000000D02*
X137750000Y-84000000D01*
X137750000Y-84000000D02*
X112500000Y-84000000D01*
X188295000Y-84795000D02*
X187500000Y-84000000D01*
X188295000Y-88120000D02*
X188295000Y-84795000D01*
X187000000Y-65750000D02*
X188750000Y-65750000D01*
X163000000Y-75750000D02*
X137750000Y-75750000D01*
X184607659Y-75750000D02*
X163000000Y-75750000D01*
X137750000Y-75750000D02*
X112500000Y-75750000D01*
X188250000Y-74175000D02*
X186675000Y-75750000D01*
X186675000Y-75750000D02*
X184607659Y-75750000D01*
X188295000Y-72880000D02*
X188295000Y-74130000D01*
X188295000Y-74130000D02*
X188250000Y-74175000D01*
X180125000Y-83250000D02*
X180000000Y-83250000D01*
X190250000Y-83250000D02*
X180125000Y-83250000D01*
X180000000Y-83250000D02*
X165500000Y-83250000D01*
X165500000Y-83250000D02*
X140250000Y-83250000D01*
X140250000Y-83250000D02*
X115000000Y-83250000D01*
X190750000Y-83750000D02*
X190250000Y-83250000D01*
X190750000Y-86785000D02*
X190750000Y-83750000D01*
X190835000Y-88120000D02*
X190835000Y-86870000D01*
X190835000Y-86870000D02*
X190750000Y-86785000D01*
X187000000Y-64500000D02*
X190750000Y-64500000D01*
X190835000Y-74165000D02*
X188500000Y-76500000D01*
X188500000Y-76500000D02*
X187580000Y-76500000D01*
X190835000Y-72880000D02*
X190835000Y-74165000D01*
X165500000Y-76500000D02*
X140250000Y-76500000D01*
X187580000Y-76500000D02*
X165500000Y-76500000D01*
X140250000Y-76500000D02*
X115000000Y-76500000D01*
X190835000Y-72880000D02*
X190835000Y-73245000D01*
X194600000Y-56800000D02*
X187000000Y-56800000D01*
X181000000Y-82500000D02*
X168250000Y-82500000D01*
X192750000Y-82500000D02*
X181000000Y-82500000D01*
X168250000Y-82500000D02*
X143000000Y-82500000D01*
X143000000Y-82500000D02*
X117750000Y-82500000D01*
X193250000Y-83000000D02*
X192750000Y-82500000D01*
X193250000Y-86745000D02*
X193250000Y-83000000D01*
X193375000Y-88120000D02*
X193375000Y-86870000D01*
X193375000Y-86870000D02*
X193250000Y-86745000D01*
X174500000Y-67000000D02*
X168250000Y-67000000D01*
X168250000Y-77250000D02*
X143000000Y-77250000D01*
X190255000Y-77250000D02*
X168250000Y-77250000D01*
X143000000Y-77250000D02*
X117500000Y-77250000D01*
X193375000Y-72880000D02*
X193375000Y-74130000D01*
X193375000Y-74130000D02*
X190255000Y-77250000D01*
X179500000Y-81750000D02*
X170750000Y-81750000D01*
X181750000Y-81750000D02*
X179500000Y-81750000D01*
X194500000Y-81750000D02*
X181750000Y-81750000D01*
X170750000Y-81750000D02*
X145500000Y-81750000D01*
X145500000Y-81750000D02*
X120250000Y-81750000D01*
X195915000Y-83165000D02*
X194500000Y-81750000D01*
X195915000Y-88120000D02*
X195915000Y-83165000D01*
X174500000Y-65750000D02*
X170750000Y-65750000D01*
X170750000Y-78000000D02*
X145500000Y-78000000D01*
X192000000Y-78000000D02*
X170750000Y-78000000D01*
X145500000Y-78000000D02*
X120250000Y-78000000D01*
X195750000Y-74250000D02*
X192000000Y-78000000D01*
X195750000Y-73410000D02*
X195750000Y-74250000D01*
X195915000Y-72880000D02*
X195915000Y-73245000D01*
X195915000Y-73245000D02*
X195750000Y-73410000D01*
X157750000Y-60500000D02*
X122750000Y-60500000D01*
X159000000Y-59250000D02*
X157750000Y-60500000D01*
X174500000Y-59250000D02*
X159000000Y-59250000D01*
X197200000Y-81700000D02*
X196500000Y-81000000D01*
X200995000Y-85495000D02*
X197200000Y-81700000D01*
X187000000Y-55600000D02*
X197400000Y-55600000D01*
X180250000Y-81000000D02*
X175750000Y-81000000D01*
X196500000Y-81000000D02*
X180250000Y-81000000D01*
X175750000Y-81000000D02*
X150500000Y-81000000D01*
X150500000Y-81000000D02*
X125250000Y-81000000D01*
X200995000Y-88120000D02*
X200995000Y-85495000D01*
X175750000Y-78750000D02*
X150500000Y-78750000D01*
X196750000Y-78750000D02*
X175750000Y-78750000D01*
X150500000Y-78750000D02*
X125250000Y-78750000D01*
X200995000Y-74505000D02*
X196750000Y-78750000D01*
X200995000Y-72880000D02*
X200995000Y-74505000D01*
X192000000Y-54400000D02*
X187000000Y-54400000D01*
X196915000Y-80250000D02*
X192000000Y-80263167D01*
X192000000Y-80263167D02*
X179500000Y-80296654D01*
X179500000Y-80296654D02*
X178250000Y-80300003D01*
X178250000Y-80300003D02*
X153000000Y-80300003D01*
X153000000Y-80300003D02*
X127800003Y-80250000D01*
X127800003Y-80250000D02*
X127750000Y-80300003D01*
X203535000Y-88120000D02*
X203535000Y-86870000D01*
X203535000Y-86870000D02*
X196915000Y-80250000D01*
X178250000Y-79500000D02*
X153000000Y-79500000D01*
X198165000Y-79500000D02*
X178250000Y-79500000D01*
X153000000Y-79500000D02*
X127750000Y-79500000D01*
X203535000Y-72880000D02*
X203535000Y-74130000D01*
X203535000Y-74130000D02*
X198165000Y-79500000D01*
X178000000Y-51750000D02*
X194600000Y-51750000D01*
X178000000Y-53000000D02*
X188000000Y-53000000D01*
X174075736Y-55500000D02*
X162500000Y-55500000D01*
X174500000Y-55500000D02*
X174075736Y-55500000D01*
X149250000Y-70000000D02*
X147955000Y-71295000D01*
X162500000Y-70000000D02*
X149250000Y-70000000D01*
X147955000Y-71295000D02*
X147955000Y-72880000D01*
X174500000Y-56750000D02*
X162500000Y-56750000D01*
X137250000Y-69000000D02*
X135255000Y-70995000D01*
X135255000Y-70995000D02*
X135255000Y-72880000D01*
X163250000Y-69000000D02*
X137250000Y-69000000D01*
X174500000Y-58000000D02*
X163250000Y-58000000D01*
X152898870Y-52148870D02*
X151750000Y-51000000D01*
X153148870Y-52148870D02*
X152898870Y-52148870D01*
X156861181Y-57888819D02*
X155750000Y-59000000D01*
X156861181Y-57841080D02*
X156861181Y-57888819D01*
X151888819Y-53138819D02*
X150750000Y-52000000D01*
X152158920Y-53138819D02*
X151888819Y-53138819D01*
X158888819Y-55861181D02*
X160000000Y-54750000D01*
X158841080Y-55861181D02*
X158888819Y-55861181D01*
X152979899Y-50000000D02*
X152237454Y-50000000D01*
X154138819Y-51158920D02*
X152979899Y-50000000D01*
X152237454Y-50000000D02*
X150750000Y-50000000D01*
D18*
G36*
X188890489Y-41266308D02*
X190963339Y-43129438D01*
X192932400Y-45101939D01*
X194791910Y-47178037D01*
X196536425Y-49351658D01*
X198160840Y-51616440D01*
X199660402Y-53965753D01*
X201030721Y-56392724D01*
X202267788Y-58890248D01*
X203367981Y-61451017D01*
X204328081Y-64067535D01*
X205145277Y-66732146D01*
X205817179Y-69437051D01*
X206341820Y-72174333D01*
X206717664Y-74935981D01*
X206943611Y-77713914D01*
X207019000Y-80500000D01*
X207017745Y-80859668D01*
X206922907Y-83645160D01*
X206677572Y-86421447D01*
X206282457Y-89180404D01*
X205738720Y-91913957D01*
X205047951Y-94614105D01*
X204212171Y-97272946D01*
X203233829Y-99882698D01*
X202115785Y-102435723D01*
X200861313Y-104924550D01*
X199474084Y-107341895D01*
X197958157Y-109680683D01*
X196317970Y-111934069D01*
X194558323Y-114095458D01*
X192684365Y-116158524D01*
X190701582Y-118117230D01*
X188615775Y-119965844D01*
X186433050Y-121698954D01*
X184159794Y-123311489D01*
X181802661Y-124798729D01*
X179368548Y-126156322D01*
X176864581Y-127380295D01*
X174298087Y-128467065D01*
X171676577Y-129413451D01*
X169007724Y-130216685D01*
X166299339Y-130874415D01*
X163559347Y-131384716D01*
X160795769Y-131746094D01*
X158016691Y-131957493D01*
X155230248Y-132018294D01*
X152444595Y-131928318D01*
X149667884Y-131687828D01*
X146908241Y-131297530D01*
X144173743Y-130758564D01*
X141472394Y-130072509D01*
X138812099Y-129241372D01*
X136200643Y-128267585D01*
X133645670Y-127153999D01*
X131154657Y-125903873D01*
X128734895Y-124520864D01*
X126393465Y-123009022D01*
X124137220Y-121372771D01*
X121972763Y-119616898D01*
X119906429Y-117746544D01*
X117944265Y-115767182D01*
X116092014Y-113684605D01*
X114355097Y-111504908D01*
X112738597Y-109234470D01*
X111247245Y-106879936D01*
X109885406Y-104448197D01*
X109535097Y-103734704D01*
X192669000Y-103734704D01*
X192669000Y-104065296D01*
X192795512Y-104370724D01*
X193029276Y-104604488D01*
X193334704Y-104731000D01*
X193665296Y-104731000D01*
X193970724Y-104604488D01*
X194204488Y-104370724D01*
X194331000Y-104065296D01*
X194331000Y-103734704D01*
X194204488Y-103429276D01*
X193970724Y-103195512D01*
X193665296Y-103069000D01*
X193334704Y-103069000D01*
X193029276Y-103195512D01*
X192795512Y-103429276D01*
X192669000Y-103734704D01*
X109535097Y-103734704D01*
X108657065Y-101946370D01*
X107565817Y-99381777D01*
X106614857Y-96761923D01*
X106276081Y-95643372D01*
X129731700Y-95643372D01*
X129731700Y-96189028D01*
X129940514Y-96693149D01*
X130326351Y-97078986D01*
X130830472Y-97287800D01*
X131376128Y-97287800D01*
X131880249Y-97078986D01*
X132024531Y-96934704D01*
X192669000Y-96934704D01*
X192669000Y-97265296D01*
X192795512Y-97570724D01*
X193029276Y-97804488D01*
X193334704Y-97931000D01*
X193665296Y-97931000D01*
X193970724Y-97804488D01*
X194204488Y-97570724D01*
X194331000Y-97265296D01*
X194331000Y-96934704D01*
X194204488Y-96629276D01*
X193970724Y-96395512D01*
X193665296Y-96269000D01*
X193334704Y-96269000D01*
X193029276Y-96395512D01*
X192795512Y-96629276D01*
X192669000Y-96934704D01*
X132024531Y-96934704D01*
X132266086Y-96693149D01*
X132474900Y-96189028D01*
X132474900Y-95643372D01*
X132266086Y-95139251D01*
X131880249Y-94753414D01*
X131376128Y-94544600D01*
X130830472Y-94544600D01*
X130326351Y-94753414D01*
X129940514Y-95139251D01*
X129731700Y-95643372D01*
X106276081Y-95643372D01*
X105806966Y-94094476D01*
X105144511Y-91387242D01*
X104629428Y-88648145D01*
X104263226Y-85885202D01*
X104046977Y-83106498D01*
X103981314Y-80320165D01*
X104066428Y-77534359D01*
X104302071Y-74757232D01*
X104629174Y-72414935D01*
X106449000Y-72414935D01*
X106449000Y-73345064D01*
X106507949Y-73641422D01*
X106732505Y-73977495D01*
X106959000Y-74128834D01*
X106959000Y-74415166D01*
X106949087Y-74465000D01*
X106959000Y-74514834D01*
X106988359Y-74662430D01*
X107100194Y-74829806D01*
X107142447Y-74858038D01*
X107606963Y-75322555D01*
X107635194Y-75364806D01*
X107802569Y-75476641D01*
X107950165Y-75506000D01*
X107999999Y-75515913D01*
X108049833Y-75506000D01*
X111863959Y-75506000D01*
X111819000Y-75614541D01*
X111819000Y-75885459D01*
X111922676Y-76135756D01*
X112114244Y-76327324D01*
X112364541Y-76431000D01*
X112635459Y-76431000D01*
X112885756Y-76327324D01*
X112957080Y-76256000D01*
X114363959Y-76256000D01*
X114319000Y-76364541D01*
X114319000Y-76635459D01*
X114422676Y-76885756D01*
X114614244Y-77077324D01*
X114864541Y-77181000D01*
X115135459Y-77181000D01*
X115385756Y-77077324D01*
X115457080Y-77006000D01*
X116863959Y-77006000D01*
X116819000Y-77114541D01*
X116819000Y-77385459D01*
X116922676Y-77635756D01*
X117114244Y-77827324D01*
X117364541Y-77931000D01*
X117635459Y-77931000D01*
X117885756Y-77827324D01*
X117957080Y-77756000D01*
X119613959Y-77756000D01*
X119569000Y-77864541D01*
X119569000Y-78135459D01*
X119672676Y-78385756D01*
X119864244Y-78577324D01*
X120114541Y-78681000D01*
X120385459Y-78681000D01*
X120635756Y-78577324D01*
X120707080Y-78506000D01*
X124613959Y-78506000D01*
X124569000Y-78614541D01*
X124569000Y-78885459D01*
X124672676Y-79135756D01*
X124864244Y-79327324D01*
X125114541Y-79431000D01*
X125385459Y-79431000D01*
X125635756Y-79327324D01*
X125707080Y-79256000D01*
X127113959Y-79256000D01*
X127069000Y-79364541D01*
X127069000Y-79635459D01*
X127172676Y-79885756D01*
X127186922Y-79900002D01*
X127172676Y-79914247D01*
X127069000Y-80164544D01*
X127069000Y-80435462D01*
X127093247Y-80494000D01*
X125707080Y-80494000D01*
X125635756Y-80422676D01*
X125385459Y-80319000D01*
X125114541Y-80319000D01*
X124864244Y-80422676D01*
X124672676Y-80614244D01*
X124569000Y-80864541D01*
X124569000Y-81135459D01*
X124613959Y-81244000D01*
X120707080Y-81244000D01*
X120635756Y-81172676D01*
X120385459Y-81069000D01*
X120114541Y-81069000D01*
X119864244Y-81172676D01*
X119672676Y-81364244D01*
X119569000Y-81614541D01*
X119569000Y-81885459D01*
X119613959Y-81994000D01*
X118207080Y-81994000D01*
X118135756Y-81922676D01*
X117885459Y-81819000D01*
X117614541Y-81819000D01*
X117364244Y-81922676D01*
X117172676Y-82114244D01*
X117069000Y-82364541D01*
X117069000Y-82635459D01*
X117113959Y-82744000D01*
X115457080Y-82744000D01*
X115385756Y-82672676D01*
X115135459Y-82569000D01*
X114864541Y-82569000D01*
X114614244Y-82672676D01*
X114422676Y-82864244D01*
X114319000Y-83114541D01*
X114319000Y-83385459D01*
X114363959Y-83494000D01*
X112957080Y-83494000D01*
X112885756Y-83422676D01*
X112635459Y-83319000D01*
X112364541Y-83319000D01*
X112114244Y-83422676D01*
X111922676Y-83614244D01*
X111819000Y-83864541D01*
X111819000Y-84135459D01*
X111863959Y-84244000D01*
X110457080Y-84244000D01*
X110385756Y-84172676D01*
X110135459Y-84069000D01*
X109864541Y-84069000D01*
X109614244Y-84172676D01*
X109422676Y-84364244D01*
X109319000Y-84614541D01*
X109319000Y-84885459D01*
X109363959Y-84994000D01*
X108049835Y-84994000D01*
X108000000Y-84984087D01*
X107802568Y-85023359D01*
X107747781Y-85059967D01*
X107635194Y-85135194D01*
X107606963Y-85177445D01*
X107177445Y-85606964D01*
X107135195Y-85635194D01*
X107046747Y-85767568D01*
X107023360Y-85802569D01*
X106984087Y-86000000D01*
X106994001Y-86049839D01*
X106994001Y-86847780D01*
X106732506Y-87022505D01*
X106507950Y-87358577D01*
X106449000Y-87654935D01*
X106449000Y-88585064D01*
X106507949Y-88881422D01*
X106732505Y-89217495D01*
X107068577Y-89442051D01*
X107465000Y-89520904D01*
X107861422Y-89442051D01*
X108197495Y-89217495D01*
X108422051Y-88881423D01*
X108481000Y-88585065D01*
X108481000Y-87654936D01*
X108481000Y-87654935D01*
X108989000Y-87654935D01*
X108989000Y-88585064D01*
X109047949Y-88881422D01*
X109272505Y-89217495D01*
X109608577Y-89442051D01*
X110005000Y-89520904D01*
X110401422Y-89442051D01*
X110737495Y-89217495D01*
X110962051Y-88881423D01*
X111021000Y-88585065D01*
X111021000Y-87654936D01*
X111021000Y-87654935D01*
X111529000Y-87654935D01*
X111529000Y-88585064D01*
X111587949Y-88881422D01*
X111812505Y-89217495D01*
X112148577Y-89442051D01*
X112545000Y-89520904D01*
X112941422Y-89442051D01*
X113277495Y-89217495D01*
X113502051Y-88881423D01*
X113561000Y-88585065D01*
X113561000Y-87654936D01*
X113561000Y-87654935D01*
X114069000Y-87654935D01*
X114069000Y-88585064D01*
X114127949Y-88881422D01*
X114352505Y-89217495D01*
X114688577Y-89442051D01*
X115085000Y-89520904D01*
X115481422Y-89442051D01*
X115817495Y-89217495D01*
X116042051Y-88881423D01*
X116101000Y-88585065D01*
X116101000Y-87654936D01*
X116101000Y-87654935D01*
X116609000Y-87654935D01*
X116609000Y-88585064D01*
X116667949Y-88881422D01*
X116892505Y-89217495D01*
X117228577Y-89442051D01*
X117625000Y-89520904D01*
X118021422Y-89442051D01*
X118357495Y-89217495D01*
X118582051Y-88881423D01*
X118641000Y-88585065D01*
X118641000Y-87654936D01*
X118641000Y-87654935D01*
X119149000Y-87654935D01*
X119149000Y-88585064D01*
X119207949Y-88881422D01*
X119432505Y-89217495D01*
X119768577Y-89442051D01*
X120165000Y-89520904D01*
X120561422Y-89442051D01*
X120897495Y-89217495D01*
X121122051Y-88881423D01*
X121181000Y-88585065D01*
X121181000Y-87654936D01*
X121181000Y-87654935D01*
X121689000Y-87654935D01*
X121689000Y-88585064D01*
X121747949Y-88881422D01*
X121972505Y-89217495D01*
X122308577Y-89442051D01*
X122705000Y-89520904D01*
X123101422Y-89442051D01*
X123437495Y-89217495D01*
X123662051Y-88881423D01*
X123721000Y-88585065D01*
X123721000Y-87654936D01*
X123721000Y-87654935D01*
X124229000Y-87654935D01*
X124229000Y-88585064D01*
X124287949Y-88881422D01*
X124512505Y-89217495D01*
X124848577Y-89442051D01*
X125245000Y-89520904D01*
X125641422Y-89442051D01*
X125977495Y-89217495D01*
X126202051Y-88881423D01*
X126261000Y-88585065D01*
X126261000Y-87654936D01*
X126261000Y-87654935D01*
X126769000Y-87654935D01*
X126769000Y-88585064D01*
X126827949Y-88881422D01*
X127052505Y-89217495D01*
X127388577Y-89442051D01*
X127785000Y-89520904D01*
X128181422Y-89442051D01*
X128517495Y-89217495D01*
X128742051Y-88881423D01*
X128801000Y-88585065D01*
X128801000Y-87654936D01*
X128742051Y-87358577D01*
X128517495Y-87022505D01*
X128181423Y-86797949D01*
X127785000Y-86719096D01*
X127388578Y-86797949D01*
X127052506Y-87022505D01*
X126827950Y-87358577D01*
X126769000Y-87654935D01*
X126261000Y-87654935D01*
X126202051Y-87358577D01*
X125977495Y-87022505D01*
X125641423Y-86797949D01*
X125245000Y-86719096D01*
X124848578Y-86797949D01*
X124512506Y-87022505D01*
X124287950Y-87358577D01*
X124229000Y-87654935D01*
X123721000Y-87654935D01*
X123662051Y-87358577D01*
X123437495Y-87022505D01*
X123101423Y-86797949D01*
X122705000Y-86719096D01*
X122308578Y-86797949D01*
X121972506Y-87022505D01*
X121747950Y-87358577D01*
X121689000Y-87654935D01*
X121181000Y-87654935D01*
X121122051Y-87358577D01*
X120897495Y-87022505D01*
X120561423Y-86797949D01*
X120165000Y-86719096D01*
X119768578Y-86797949D01*
X119432506Y-87022505D01*
X119207950Y-87358577D01*
X119149000Y-87654935D01*
X118641000Y-87654935D01*
X118582051Y-87358577D01*
X118357495Y-87022505D01*
X118021423Y-86797949D01*
X117625000Y-86719096D01*
X117228578Y-86797949D01*
X116892506Y-87022505D01*
X116667950Y-87358577D01*
X116609000Y-87654935D01*
X116101000Y-87654935D01*
X116042051Y-87358577D01*
X115817495Y-87022505D01*
X115481423Y-86797949D01*
X115085000Y-86719096D01*
X114688578Y-86797949D01*
X114352506Y-87022505D01*
X114127950Y-87358577D01*
X114069000Y-87654935D01*
X113561000Y-87654935D01*
X113502051Y-87358577D01*
X113277495Y-87022505D01*
X112941423Y-86797949D01*
X112545000Y-86719096D01*
X112148578Y-86797949D01*
X111812506Y-87022505D01*
X111587950Y-87358577D01*
X111529000Y-87654935D01*
X111021000Y-87654935D01*
X110962051Y-87358577D01*
X110737495Y-87022505D01*
X110401423Y-86797949D01*
X110005000Y-86719096D01*
X109608578Y-86797949D01*
X109272506Y-87022505D01*
X109047950Y-87358577D01*
X108989000Y-87654935D01*
X108481000Y-87654935D01*
X108422051Y-87358577D01*
X108197495Y-87022505D01*
X108006000Y-86894552D01*
X108006000Y-86209591D01*
X108209592Y-86006000D01*
X132244001Y-86006000D01*
X132244000Y-86664128D01*
X132238360Y-86672569D01*
X132199087Y-86870000D01*
X132200455Y-86876876D01*
X131982506Y-87022505D01*
X131757950Y-87358577D01*
X131699000Y-87654935D01*
X131699000Y-88585064D01*
X131757949Y-88881422D01*
X131982505Y-89217495D01*
X132318577Y-89442051D01*
X132715000Y-89520904D01*
X133111422Y-89442051D01*
X133447495Y-89217495D01*
X133672051Y-88881423D01*
X133731000Y-88585065D01*
X133731000Y-87654936D01*
X133731000Y-87654935D01*
X134239000Y-87654935D01*
X134239000Y-88585064D01*
X134297949Y-88881422D01*
X134522505Y-89217495D01*
X134858577Y-89442051D01*
X135255000Y-89520904D01*
X135651422Y-89442051D01*
X135987495Y-89217495D01*
X136212051Y-88881423D01*
X136271000Y-88585065D01*
X136271000Y-87654936D01*
X136271000Y-87654935D01*
X136779000Y-87654935D01*
X136779000Y-88585064D01*
X136837949Y-88881422D01*
X137062505Y-89217495D01*
X137398577Y-89442051D01*
X137795000Y-89520904D01*
X138191422Y-89442051D01*
X138527495Y-89217495D01*
X138752051Y-88881423D01*
X138811000Y-88585065D01*
X138811000Y-87654936D01*
X138811000Y-87654935D01*
X139319000Y-87654935D01*
X139319000Y-88585064D01*
X139377949Y-88881422D01*
X139602505Y-89217495D01*
X139938577Y-89442051D01*
X140335000Y-89520904D01*
X140731422Y-89442051D01*
X141067495Y-89217495D01*
X141292051Y-88881423D01*
X141351000Y-88585065D01*
X141351000Y-87654936D01*
X141351000Y-87654935D01*
X141859000Y-87654935D01*
X141859000Y-88585064D01*
X141917949Y-88881422D01*
X142142505Y-89217495D01*
X142478577Y-89442051D01*
X142875000Y-89520904D01*
X143271422Y-89442051D01*
X143607495Y-89217495D01*
X143832051Y-88881423D01*
X143891000Y-88585065D01*
X143891000Y-87654936D01*
X143891000Y-87654935D01*
X144399000Y-87654935D01*
X144399000Y-88585064D01*
X144457949Y-88881422D01*
X144682505Y-89217495D01*
X145018577Y-89442051D01*
X145415000Y-89520904D01*
X145811422Y-89442051D01*
X146147495Y-89217495D01*
X146372051Y-88881423D01*
X146431000Y-88585065D01*
X146431000Y-87654936D01*
X146431000Y-87654935D01*
X146939000Y-87654935D01*
X146939000Y-88585064D01*
X146997949Y-88881422D01*
X147222505Y-89217495D01*
X147558577Y-89442051D01*
X147955000Y-89520904D01*
X148351422Y-89442051D01*
X148687495Y-89217495D01*
X148912051Y-88881423D01*
X148971000Y-88585065D01*
X148971000Y-87654936D01*
X148971000Y-87654935D01*
X149479000Y-87654935D01*
X149479000Y-88585064D01*
X149537949Y-88881422D01*
X149762505Y-89217495D01*
X150098577Y-89442051D01*
X150495000Y-89520904D01*
X150891422Y-89442051D01*
X151227495Y-89217495D01*
X151452051Y-88881423D01*
X151511000Y-88585065D01*
X151511000Y-87654936D01*
X151511000Y-87654935D01*
X152019000Y-87654935D01*
X152019000Y-88585064D01*
X152077949Y-88881422D01*
X152302505Y-89217495D01*
X152638577Y-89442051D01*
X153035000Y-89520904D01*
X153431422Y-89442051D01*
X153767495Y-89217495D01*
X153992051Y-88881423D01*
X154051000Y-88585065D01*
X154051000Y-87654936D01*
X153992051Y-87358577D01*
X153767495Y-87022505D01*
X153431423Y-86797949D01*
X153035000Y-86719096D01*
X152638578Y-86797949D01*
X152302506Y-87022505D01*
X152077950Y-87358577D01*
X152019000Y-87654935D01*
X151511000Y-87654935D01*
X151452051Y-87358577D01*
X151227495Y-87022505D01*
X150891423Y-86797949D01*
X150495000Y-86719096D01*
X150098578Y-86797949D01*
X149762506Y-87022505D01*
X149537950Y-87358577D01*
X149479000Y-87654935D01*
X148971000Y-87654935D01*
X148912051Y-87358577D01*
X148687495Y-87022505D01*
X148351423Y-86797949D01*
X147955000Y-86719096D01*
X147558578Y-86797949D01*
X147222506Y-87022505D01*
X146997950Y-87358577D01*
X146939000Y-87654935D01*
X146431000Y-87654935D01*
X146372051Y-87358577D01*
X146147495Y-87022505D01*
X145811423Y-86797949D01*
X145415000Y-86719096D01*
X145018578Y-86797949D01*
X144682506Y-87022505D01*
X144457950Y-87358577D01*
X144399000Y-87654935D01*
X143891000Y-87654935D01*
X143832051Y-87358577D01*
X143607495Y-87022505D01*
X143271423Y-86797949D01*
X142875000Y-86719096D01*
X142478578Y-86797949D01*
X142142506Y-87022505D01*
X141917950Y-87358577D01*
X141859000Y-87654935D01*
X141351000Y-87654935D01*
X141292051Y-87358577D01*
X141067495Y-87022505D01*
X140731423Y-86797949D01*
X140335000Y-86719096D01*
X139938578Y-86797949D01*
X139602506Y-87022505D01*
X139377950Y-87358577D01*
X139319000Y-87654935D01*
X138811000Y-87654935D01*
X138752051Y-87358577D01*
X138527495Y-87022505D01*
X138191423Y-86797949D01*
X137795000Y-86719096D01*
X137398578Y-86797949D01*
X137062506Y-87022505D01*
X136837950Y-87358577D01*
X136779000Y-87654935D01*
X136271000Y-87654935D01*
X136212051Y-87358577D01*
X135987495Y-87022505D01*
X135651423Y-86797949D01*
X135255000Y-86719096D01*
X134858578Y-86797949D01*
X134522506Y-87022505D01*
X134297950Y-87358577D01*
X134239000Y-87654935D01*
X133731000Y-87654935D01*
X133672051Y-87358577D01*
X133447495Y-87022505D01*
X133254294Y-86893412D01*
X133256000Y-86884835D01*
X133256000Y-86884834D01*
X133265913Y-86835001D01*
X133256000Y-86785167D01*
X133256000Y-86006000D01*
X157494001Y-86006000D01*
X157494000Y-86847780D01*
X157232506Y-87022505D01*
X157007950Y-87358577D01*
X156949000Y-87654935D01*
X156949000Y-88585064D01*
X157007949Y-88881422D01*
X157232505Y-89217495D01*
X157568577Y-89442051D01*
X157965000Y-89520904D01*
X158361422Y-89442051D01*
X158697495Y-89217495D01*
X158922051Y-88881423D01*
X158981000Y-88585065D01*
X158981000Y-87654936D01*
X158981000Y-87654935D01*
X159489000Y-87654935D01*
X159489000Y-88585064D01*
X159547949Y-88881422D01*
X159772505Y-89217495D01*
X160108577Y-89442051D01*
X160505000Y-89520904D01*
X160901422Y-89442051D01*
X161237495Y-89217495D01*
X161462051Y-88881423D01*
X161521000Y-88585065D01*
X161521000Y-87654936D01*
X161521000Y-87654935D01*
X162029000Y-87654935D01*
X162029000Y-88585064D01*
X162087949Y-88881422D01*
X162312505Y-89217495D01*
X162648577Y-89442051D01*
X163045000Y-89520904D01*
X163441422Y-89442051D01*
X163777495Y-89217495D01*
X164002051Y-88881423D01*
X164061000Y-88585065D01*
X164061000Y-87654936D01*
X164061000Y-87654935D01*
X164569000Y-87654935D01*
X164569000Y-88585064D01*
X164627949Y-88881422D01*
X164852505Y-89217495D01*
X165188577Y-89442051D01*
X165585000Y-89520904D01*
X165981422Y-89442051D01*
X166317495Y-89217495D01*
X166542051Y-88881423D01*
X166601000Y-88585065D01*
X166601000Y-87654936D01*
X166601000Y-87654935D01*
X167109000Y-87654935D01*
X167109000Y-88585064D01*
X167167949Y-88881422D01*
X167392505Y-89217495D01*
X167728577Y-89442051D01*
X168125000Y-89520904D01*
X168521422Y-89442051D01*
X168857495Y-89217495D01*
X169082051Y-88881423D01*
X169141000Y-88585065D01*
X169141000Y-87654936D01*
X169141000Y-87654935D01*
X169649000Y-87654935D01*
X169649000Y-88585064D01*
X169707949Y-88881422D01*
X169932505Y-89217495D01*
X170268577Y-89442051D01*
X170665000Y-89520904D01*
X171061422Y-89442051D01*
X171397495Y-89217495D01*
X171622051Y-88881423D01*
X171681000Y-88585065D01*
X171681000Y-87654936D01*
X171681000Y-87654935D01*
X172189000Y-87654935D01*
X172189000Y-88585064D01*
X172247949Y-88881422D01*
X172472505Y-89217495D01*
X172808577Y-89442051D01*
X173205000Y-89520904D01*
X173601422Y-89442051D01*
X173937495Y-89217495D01*
X174162051Y-88881423D01*
X174221000Y-88585065D01*
X174221000Y-87654936D01*
X174221000Y-87654935D01*
X174729000Y-87654935D01*
X174729000Y-88585064D01*
X174787949Y-88881422D01*
X175012505Y-89217495D01*
X175348577Y-89442051D01*
X175745000Y-89520904D01*
X176141422Y-89442051D01*
X176477495Y-89217495D01*
X176702051Y-88881423D01*
X176761000Y-88585065D01*
X176761000Y-87654936D01*
X176761000Y-87654935D01*
X177269000Y-87654935D01*
X177269000Y-88585064D01*
X177327949Y-88881422D01*
X177552505Y-89217495D01*
X177888577Y-89442051D01*
X178285000Y-89520904D01*
X178681422Y-89442051D01*
X179017495Y-89217495D01*
X179242051Y-88881423D01*
X179301000Y-88585065D01*
X179301000Y-87654936D01*
X179242051Y-87358577D01*
X179017495Y-87022505D01*
X178681423Y-86797949D01*
X178285000Y-86719096D01*
X177888578Y-86797949D01*
X177552506Y-87022505D01*
X177327950Y-87358577D01*
X177269000Y-87654935D01*
X176761000Y-87654935D01*
X176702051Y-87358577D01*
X176477495Y-87022505D01*
X176141423Y-86797949D01*
X175745000Y-86719096D01*
X175348578Y-86797949D01*
X175012506Y-87022505D01*
X174787950Y-87358577D01*
X174729000Y-87654935D01*
X174221000Y-87654935D01*
X174162051Y-87358577D01*
X173937495Y-87022505D01*
X173601423Y-86797949D01*
X173205000Y-86719096D01*
X172808578Y-86797949D01*
X172472506Y-87022505D01*
X172247950Y-87358577D01*
X172189000Y-87654935D01*
X171681000Y-87654935D01*
X171622051Y-87358577D01*
X171397495Y-87022505D01*
X171061423Y-86797949D01*
X170665000Y-86719096D01*
X170268578Y-86797949D01*
X169932506Y-87022505D01*
X169707950Y-87358577D01*
X169649000Y-87654935D01*
X169141000Y-87654935D01*
X169082051Y-87358577D01*
X168857495Y-87022505D01*
X168521423Y-86797949D01*
X168125000Y-86719096D01*
X167728578Y-86797949D01*
X167392506Y-87022505D01*
X167167950Y-87358577D01*
X167109000Y-87654935D01*
X166601000Y-87654935D01*
X166542051Y-87358577D01*
X166317495Y-87022505D01*
X165981423Y-86797949D01*
X165585000Y-86719096D01*
X165188578Y-86797949D01*
X164852506Y-87022505D01*
X164627950Y-87358577D01*
X164569000Y-87654935D01*
X164061000Y-87654935D01*
X164002051Y-87358577D01*
X163777495Y-87022505D01*
X163441423Y-86797949D01*
X163045000Y-86719096D01*
X162648578Y-86797949D01*
X162312506Y-87022505D01*
X162087950Y-87358577D01*
X162029000Y-87654935D01*
X161521000Y-87654935D01*
X161462051Y-87358577D01*
X161237495Y-87022505D01*
X160901423Y-86797949D01*
X160505000Y-86719096D01*
X160108578Y-86797949D01*
X159772506Y-87022505D01*
X159547950Y-87358577D01*
X159489000Y-87654935D01*
X158981000Y-87654935D01*
X158922051Y-87358577D01*
X158697495Y-87022505D01*
X158506000Y-86894552D01*
X158506000Y-86006000D01*
X181542920Y-86006000D01*
X181614244Y-86077324D01*
X181864541Y-86181000D01*
X182135459Y-86181000D01*
X182385756Y-86077324D01*
X182457080Y-86006000D01*
X182540409Y-86006000D01*
X182709000Y-86174592D01*
X182709000Y-86871166D01*
X182482506Y-87022505D01*
X182257950Y-87358577D01*
X182199000Y-87654935D01*
X182199000Y-88585064D01*
X182257949Y-88881422D01*
X182482505Y-89217495D01*
X182818577Y-89442051D01*
X183215000Y-89520904D01*
X183611422Y-89442051D01*
X183947495Y-89217495D01*
X184172051Y-88881423D01*
X184231000Y-88585065D01*
X184231000Y-87654936D01*
X184172051Y-87358577D01*
X183947495Y-87022505D01*
X183721000Y-86871166D01*
X183721000Y-86014833D01*
X183730913Y-85964999D01*
X183702579Y-85822558D01*
X183691641Y-85767569D01*
X183579806Y-85600194D01*
X183537556Y-85571964D01*
X183221591Y-85256000D01*
X185249001Y-85256000D01*
X185249000Y-86871166D01*
X185022506Y-87022505D01*
X184797950Y-87358577D01*
X184739000Y-87654935D01*
X184739000Y-88585064D01*
X184797949Y-88881422D01*
X185022505Y-89217495D01*
X185358577Y-89442051D01*
X185755000Y-89520904D01*
X186151422Y-89442051D01*
X186487495Y-89217495D01*
X186712051Y-88881423D01*
X186771000Y-88585065D01*
X186771000Y-87654936D01*
X186712051Y-87358577D01*
X186487495Y-87022505D01*
X186261000Y-86871166D01*
X186261000Y-85054833D01*
X186270913Y-85004999D01*
X186247134Y-84885459D01*
X186231641Y-84807569D01*
X186119806Y-84640194D01*
X186077552Y-84611961D01*
X185971591Y-84506000D01*
X187290409Y-84506000D01*
X187789001Y-85004593D01*
X187789000Y-86871166D01*
X187562506Y-87022505D01*
X187337950Y-87358577D01*
X187279000Y-87654935D01*
X187279000Y-88585064D01*
X187337949Y-88881422D01*
X187562505Y-89217495D01*
X187898577Y-89442051D01*
X188295000Y-89520904D01*
X188691422Y-89442051D01*
X189027495Y-89217495D01*
X189252051Y-88881423D01*
X189311000Y-88585065D01*
X189311000Y-87654936D01*
X189252051Y-87358577D01*
X189027495Y-87022505D01*
X188801000Y-86871166D01*
X188801000Y-84844835D01*
X188810913Y-84795000D01*
X188771641Y-84597568D01*
X188710457Y-84506000D01*
X188659806Y-84430194D01*
X188617555Y-84401963D01*
X187971591Y-83756000D01*
X190040409Y-83756000D01*
X190244001Y-83959593D01*
X190244000Y-86735166D01*
X190234087Y-86785000D01*
X190244000Y-86834834D01*
X190260351Y-86917036D01*
X190102506Y-87022505D01*
X189877950Y-87358577D01*
X189819000Y-87654935D01*
X189819000Y-88585064D01*
X189877949Y-88881422D01*
X190102505Y-89217495D01*
X190438577Y-89442051D01*
X190835000Y-89520904D01*
X191231422Y-89442051D01*
X191567495Y-89217495D01*
X191792051Y-88881423D01*
X191851000Y-88585065D01*
X191851000Y-87654936D01*
X191792051Y-87358577D01*
X191567495Y-87022505D01*
X191349545Y-86876876D01*
X191350913Y-86869999D01*
X191334005Y-86785000D01*
X191311641Y-86672569D01*
X191256000Y-86589295D01*
X191256000Y-83799835D01*
X191265913Y-83750000D01*
X191226641Y-83552568D01*
X191175908Y-83476641D01*
X191114806Y-83385194D01*
X191072555Y-83356963D01*
X190721591Y-83006000D01*
X192540409Y-83006000D01*
X192744001Y-83209593D01*
X192744000Y-86695166D01*
X192734087Y-86745000D01*
X192744000Y-86794834D01*
X192772067Y-86935935D01*
X192642506Y-87022505D01*
X192417950Y-87358577D01*
X192359000Y-87654935D01*
X192359000Y-88585064D01*
X192417949Y-88881422D01*
X192642505Y-89217495D01*
X192978577Y-89442051D01*
X193375000Y-89520904D01*
X193771422Y-89442051D01*
X194107495Y-89217495D01*
X194332051Y-88881423D01*
X194391000Y-88585065D01*
X194391000Y-87654936D01*
X194332051Y-87358577D01*
X194107495Y-87022505D01*
X193889545Y-86876876D01*
X193890913Y-86870000D01*
X193851641Y-86672569D01*
X193851640Y-86672568D01*
X193756000Y-86529430D01*
X193756000Y-83049835D01*
X193765913Y-83000000D01*
X193726641Y-82802568D01*
X193680883Y-82734087D01*
X193614806Y-82635194D01*
X193572555Y-82606963D01*
X193221591Y-82256000D01*
X194290409Y-82256000D01*
X195409001Y-83374593D01*
X195409000Y-86871166D01*
X195182506Y-87022505D01*
X194957950Y-87358577D01*
X194899000Y-87654935D01*
X194899000Y-88585064D01*
X194957949Y-88881422D01*
X195182505Y-89217495D01*
X195518577Y-89442051D01*
X195915000Y-89520904D01*
X196311422Y-89442051D01*
X196647495Y-89217495D01*
X196872051Y-88881423D01*
X196931000Y-88585065D01*
X196931000Y-87654936D01*
X196931000Y-87654935D01*
X197439000Y-87654935D01*
X197439000Y-88585064D01*
X197497949Y-88881422D01*
X197722505Y-89217495D01*
X198058577Y-89442051D01*
X198455000Y-89520904D01*
X198851422Y-89442051D01*
X199187495Y-89217495D01*
X199412051Y-88881423D01*
X199471000Y-88585065D01*
X199471000Y-87654936D01*
X199412051Y-87358577D01*
X199187495Y-87022505D01*
X198851423Y-86797949D01*
X198455000Y-86719096D01*
X198058578Y-86797949D01*
X197722506Y-87022505D01*
X197497950Y-87358577D01*
X197439000Y-87654935D01*
X196931000Y-87654935D01*
X196872051Y-87358577D01*
X196647495Y-87022505D01*
X196421000Y-86871166D01*
X196421000Y-83214833D01*
X196430913Y-83164999D01*
X196413473Y-83077324D01*
X196391641Y-82967569D01*
X196279806Y-82800194D01*
X196237555Y-82771963D01*
X194971591Y-81506000D01*
X196290409Y-81506000D01*
X196519000Y-81734592D01*
X196519000Y-81835459D01*
X196622676Y-82085756D01*
X196814244Y-82277324D01*
X197064541Y-82381000D01*
X197165409Y-82381000D01*
X200489001Y-85704593D01*
X200489000Y-86871166D01*
X200262506Y-87022505D01*
X200037950Y-87358577D01*
X199979000Y-87654935D01*
X199979000Y-88585064D01*
X200037949Y-88881422D01*
X200262505Y-89217495D01*
X200598577Y-89442051D01*
X200995000Y-89520904D01*
X201391422Y-89442051D01*
X201727495Y-89217495D01*
X201952051Y-88881423D01*
X202011000Y-88585065D01*
X202011000Y-87654936D01*
X201952051Y-87358577D01*
X201727495Y-87022505D01*
X201501000Y-86871166D01*
X201501000Y-85551592D01*
X202904058Y-86954650D01*
X202802506Y-87022505D01*
X202577950Y-87358577D01*
X202519000Y-87654935D01*
X202519000Y-88585064D01*
X202577949Y-88881422D01*
X202802505Y-89217495D01*
X203138577Y-89442051D01*
X203535000Y-89520904D01*
X203931422Y-89442051D01*
X204267495Y-89217495D01*
X204492051Y-88881423D01*
X204551000Y-88585065D01*
X204551000Y-87654936D01*
X204492051Y-87358577D01*
X204267495Y-87022505D01*
X204049545Y-86876876D01*
X204050913Y-86870000D01*
X204011641Y-86672568D01*
X203975033Y-86617781D01*
X203899806Y-86505194D01*
X203857555Y-86476963D01*
X197386591Y-80006000D01*
X198115166Y-80006000D01*
X198165000Y-80015913D01*
X198214834Y-80006000D01*
X198214835Y-80006000D01*
X198362431Y-79976641D01*
X198529806Y-79864806D01*
X198558039Y-79822552D01*
X203857555Y-74523037D01*
X203899806Y-74494806D01*
X203981573Y-74372431D01*
X204011641Y-74327432D01*
X204050913Y-74130000D01*
X204049545Y-74123124D01*
X204267495Y-73977495D01*
X204492051Y-73641423D01*
X204551000Y-73345065D01*
X204551000Y-72414936D01*
X204492051Y-72118577D01*
X204267495Y-71782505D01*
X203931423Y-71557949D01*
X203535000Y-71479096D01*
X203138578Y-71557949D01*
X202802506Y-71782505D01*
X202577950Y-72118577D01*
X202519000Y-72414935D01*
X202519000Y-73345064D01*
X202577949Y-73641422D01*
X202802505Y-73977495D01*
X202904058Y-74045350D01*
X197955409Y-78994000D01*
X197221591Y-78994000D01*
X201317558Y-74898035D01*
X201359806Y-74869806D01*
X201404733Y-74802568D01*
X201471641Y-74702431D01*
X201510913Y-74505000D01*
X201501000Y-74455165D01*
X201501000Y-74128834D01*
X201727495Y-73977495D01*
X201952051Y-73641423D01*
X202011000Y-73345065D01*
X202011000Y-72414936D01*
X201952051Y-72118577D01*
X201727495Y-71782505D01*
X201391423Y-71557949D01*
X200995000Y-71479096D01*
X200598578Y-71557949D01*
X200262506Y-71782505D01*
X200037950Y-72118577D01*
X199979000Y-72414935D01*
X199979000Y-73345064D01*
X200037949Y-73641422D01*
X200262505Y-73977495D01*
X200489001Y-74128835D01*
X200489001Y-74295406D01*
X196540409Y-78244000D01*
X192471591Y-78244000D01*
X196072555Y-74643037D01*
X196114806Y-74614806D01*
X196226641Y-74447431D01*
X196256000Y-74299835D01*
X196256000Y-74299834D01*
X196265913Y-74250000D01*
X196258470Y-74212584D01*
X196311422Y-74202051D01*
X196647495Y-73977495D01*
X196872051Y-73641423D01*
X196931000Y-73345065D01*
X196931000Y-72414936D01*
X196931000Y-72414935D01*
X197439000Y-72414935D01*
X197439000Y-73345064D01*
X197497949Y-73641422D01*
X197722505Y-73977495D01*
X198058577Y-74202051D01*
X198455000Y-74280904D01*
X198851422Y-74202051D01*
X199187495Y-73977495D01*
X199412051Y-73641423D01*
X199471000Y-73345065D01*
X199471000Y-72414936D01*
X199412051Y-72118577D01*
X199187495Y-71782505D01*
X198851423Y-71557949D01*
X198455000Y-71479096D01*
X198058578Y-71557949D01*
X197722506Y-71782505D01*
X197497950Y-72118577D01*
X197439000Y-72414935D01*
X196931000Y-72414935D01*
X196872051Y-72118577D01*
X196647495Y-71782505D01*
X196311423Y-71557949D01*
X195915000Y-71479096D01*
X195518578Y-71557949D01*
X195182506Y-71782505D01*
X194957950Y-72118577D01*
X194899000Y-72414935D01*
X194899000Y-73345064D01*
X194957949Y-73641422D01*
X195182505Y-73977495D01*
X195244001Y-74018585D01*
X195244001Y-74040407D01*
X191790409Y-77494000D01*
X190726591Y-77494000D01*
X193697555Y-74523037D01*
X193739806Y-74494806D01*
X193851641Y-74327431D01*
X193881000Y-74179835D01*
X193890913Y-74130001D01*
X193889545Y-74123124D01*
X194107495Y-73977495D01*
X194332051Y-73641423D01*
X194391000Y-73345065D01*
X194391000Y-72414936D01*
X194332051Y-72118577D01*
X194107495Y-71782505D01*
X193771423Y-71557949D01*
X193375000Y-71479096D01*
X192978578Y-71557949D01*
X192642506Y-71782505D01*
X192417950Y-72118577D01*
X192359000Y-72414935D01*
X192359000Y-73345064D01*
X192417949Y-73641422D01*
X192642505Y-73977495D01*
X192744058Y-74045350D01*
X190045409Y-76744000D01*
X188971591Y-76744000D01*
X191157555Y-74558037D01*
X191199806Y-74529806D01*
X191304959Y-74372432D01*
X191311641Y-74362432D01*
X191350913Y-74165000D01*
X191343400Y-74127230D01*
X191567495Y-73977495D01*
X191792051Y-73641423D01*
X191851000Y-73345065D01*
X191851000Y-72414936D01*
X191792051Y-72118577D01*
X191567495Y-71782505D01*
X191231423Y-71557949D01*
X190835000Y-71479096D01*
X190438578Y-71557949D01*
X190102506Y-71782505D01*
X189877950Y-72118577D01*
X189819000Y-72414935D01*
X189819000Y-73345064D01*
X189877949Y-73641422D01*
X190102505Y-73977495D01*
X190225039Y-74059369D01*
X188290409Y-75994000D01*
X187146591Y-75994000D01*
X188617555Y-74523037D01*
X188659806Y-74494806D01*
X188771641Y-74327431D01*
X188801000Y-74179835D01*
X188810913Y-74130000D01*
X188809545Y-74123124D01*
X189027495Y-73977495D01*
X189252051Y-73641423D01*
X189311000Y-73345065D01*
X189311000Y-72414936D01*
X189252051Y-72118577D01*
X189027495Y-71782505D01*
X188691423Y-71557949D01*
X188295000Y-71479096D01*
X187898578Y-71557949D01*
X187562506Y-71782505D01*
X187337950Y-72118577D01*
X187279000Y-72414935D01*
X187279000Y-73345064D01*
X187337949Y-73641422D01*
X187562505Y-73977495D01*
X187664058Y-74045350D01*
X186465409Y-75244000D01*
X182816591Y-75244000D01*
X183537555Y-74523037D01*
X183579806Y-74494806D01*
X183661573Y-74372431D01*
X183691641Y-74327432D01*
X183730913Y-74130000D01*
X183729545Y-74123124D01*
X183947495Y-73977495D01*
X184172051Y-73641423D01*
X184231000Y-73345065D01*
X184231000Y-72414936D01*
X184231000Y-72414935D01*
X184739000Y-72414935D01*
X184739000Y-73345064D01*
X184797949Y-73641422D01*
X185022505Y-73977495D01*
X185358577Y-74202051D01*
X185755000Y-74280904D01*
X186151422Y-74202051D01*
X186487495Y-73977495D01*
X186712051Y-73641423D01*
X186771000Y-73345065D01*
X186771000Y-72414936D01*
X186712051Y-72118577D01*
X186487495Y-71782505D01*
X186151423Y-71557949D01*
X185755000Y-71479096D01*
X185358578Y-71557949D01*
X185022506Y-71782505D01*
X184797950Y-72118577D01*
X184739000Y-72414935D01*
X184231000Y-72414935D01*
X184172051Y-72118577D01*
X183947495Y-71782505D01*
X183611423Y-71557949D01*
X183215000Y-71479096D01*
X182818578Y-71557949D01*
X182482506Y-71782505D01*
X182257950Y-72118577D01*
X182199000Y-72414935D01*
X182199000Y-73345064D01*
X182257949Y-73641422D01*
X182482505Y-73977495D01*
X182584058Y-74045350D01*
X182135409Y-74494000D01*
X158471000Y-74494000D01*
X158471000Y-74128834D01*
X158697495Y-73977495D01*
X158922051Y-73641423D01*
X158981000Y-73345065D01*
X158981000Y-72414936D01*
X158981000Y-72414935D01*
X159489000Y-72414935D01*
X159489000Y-73345064D01*
X159547949Y-73641422D01*
X159772505Y-73977495D01*
X160108577Y-74202051D01*
X160505000Y-74280904D01*
X160901422Y-74202051D01*
X161237495Y-73977495D01*
X161462051Y-73641423D01*
X161521000Y-73345065D01*
X161521000Y-72414936D01*
X161521000Y-72414935D01*
X162029000Y-72414935D01*
X162029000Y-73345064D01*
X162087949Y-73641422D01*
X162312505Y-73977495D01*
X162648577Y-74202051D01*
X163045000Y-74280904D01*
X163441422Y-74202051D01*
X163777495Y-73977495D01*
X164002051Y-73641423D01*
X164061000Y-73345065D01*
X164061000Y-72414936D01*
X164061000Y-72414935D01*
X164569000Y-72414935D01*
X164569000Y-73345064D01*
X164627949Y-73641422D01*
X164852505Y-73977495D01*
X165188577Y-74202051D01*
X165585000Y-74280904D01*
X165981422Y-74202051D01*
X166317495Y-73977495D01*
X166542051Y-73641423D01*
X166601000Y-73345065D01*
X166601000Y-72414936D01*
X166601000Y-72414935D01*
X167109000Y-72414935D01*
X167109000Y-73345064D01*
X167167949Y-73641422D01*
X167392505Y-73977495D01*
X167728577Y-74202051D01*
X168125000Y-74280904D01*
X168521422Y-74202051D01*
X168857495Y-73977495D01*
X169082051Y-73641423D01*
X169141000Y-73345065D01*
X169141000Y-72414936D01*
X169141000Y-72414935D01*
X169649000Y-72414935D01*
X169649000Y-73345064D01*
X169707949Y-73641422D01*
X169932505Y-73977495D01*
X170268577Y-74202051D01*
X170665000Y-74280904D01*
X171061422Y-74202051D01*
X171397495Y-73977495D01*
X171622051Y-73641423D01*
X171681000Y-73345065D01*
X171681000Y-72414936D01*
X171681000Y-72414935D01*
X172189000Y-72414935D01*
X172189000Y-73345064D01*
X172247949Y-73641422D01*
X172472505Y-73977495D01*
X172808577Y-74202051D01*
X173205000Y-74280904D01*
X173601422Y-74202051D01*
X173937495Y-73977495D01*
X174162051Y-73641423D01*
X174221000Y-73345065D01*
X174221000Y-72414936D01*
X174221000Y-72414935D01*
X174729000Y-72414935D01*
X174729000Y-73345064D01*
X174787949Y-73641422D01*
X175012505Y-73977495D01*
X175348577Y-74202051D01*
X175745000Y-74280904D01*
X176141422Y-74202051D01*
X176477495Y-73977495D01*
X176702051Y-73641423D01*
X176761000Y-73345065D01*
X176761000Y-72414936D01*
X176761000Y-72414935D01*
X177269000Y-72414935D01*
X177269000Y-73345064D01*
X177327949Y-73641422D01*
X177552505Y-73977495D01*
X177888577Y-74202051D01*
X178285000Y-74280904D01*
X178681422Y-74202051D01*
X179017495Y-73977495D01*
X179242051Y-73641423D01*
X179301000Y-73345065D01*
X179301000Y-72414936D01*
X179242051Y-72118577D01*
X179017495Y-71782505D01*
X178681423Y-71557949D01*
X178285000Y-71479096D01*
X177888578Y-71557949D01*
X177552506Y-71782505D01*
X177327950Y-72118577D01*
X177269000Y-72414935D01*
X176761000Y-72414935D01*
X176702051Y-72118577D01*
X176477495Y-71782505D01*
X176141423Y-71557949D01*
X175745000Y-71479096D01*
X175348578Y-71557949D01*
X175012506Y-71782505D01*
X174787950Y-72118577D01*
X174729000Y-72414935D01*
X174221000Y-72414935D01*
X174162051Y-72118577D01*
X173937495Y-71782505D01*
X173601423Y-71557949D01*
X173205000Y-71479096D01*
X172808578Y-71557949D01*
X172472506Y-71782505D01*
X172247950Y-72118577D01*
X172189000Y-72414935D01*
X171681000Y-72414935D01*
X171622051Y-72118577D01*
X171397495Y-71782505D01*
X171061423Y-71557949D01*
X170665000Y-71479096D01*
X170268578Y-71557949D01*
X169932506Y-71782505D01*
X169707950Y-72118577D01*
X169649000Y-72414935D01*
X169141000Y-72414935D01*
X169082051Y-72118577D01*
X168857495Y-71782505D01*
X168521423Y-71557949D01*
X168125000Y-71479096D01*
X167728578Y-71557949D01*
X167392506Y-71782505D01*
X167167950Y-72118577D01*
X167109000Y-72414935D01*
X166601000Y-72414935D01*
X166542051Y-72118577D01*
X166317495Y-71782505D01*
X165981423Y-71557949D01*
X165585000Y-71479096D01*
X165188578Y-71557949D01*
X164852506Y-71782505D01*
X164627950Y-72118577D01*
X164569000Y-72414935D01*
X164061000Y-72414935D01*
X164002051Y-72118577D01*
X163777495Y-71782505D01*
X163441423Y-71557949D01*
X163045000Y-71479096D01*
X162648578Y-71557949D01*
X162312506Y-71782505D01*
X162087950Y-72118577D01*
X162029000Y-72414935D01*
X161521000Y-72414935D01*
X161462051Y-72118577D01*
X161237495Y-71782505D01*
X160901423Y-71557949D01*
X160505000Y-71479096D01*
X160108578Y-71557949D01*
X159772506Y-71782505D01*
X159547950Y-72118577D01*
X159489000Y-72414935D01*
X158981000Y-72414935D01*
X158922051Y-72118577D01*
X158697495Y-71782505D01*
X158361423Y-71557949D01*
X157965000Y-71479096D01*
X157568578Y-71557949D01*
X157232506Y-71782505D01*
X157007950Y-72118577D01*
X156949000Y-72414935D01*
X156949000Y-73345064D01*
X157007949Y-73641422D01*
X157232505Y-73977495D01*
X157459001Y-74128834D01*
X157459001Y-74494000D01*
X133256000Y-74494000D01*
X133256000Y-74214833D01*
X133265913Y-74164999D01*
X133254294Y-74106588D01*
X133447495Y-73977495D01*
X133672051Y-73641423D01*
X133731000Y-73345065D01*
X133731000Y-72414936D01*
X133731000Y-72414935D01*
X134239000Y-72414935D01*
X134239000Y-73345064D01*
X134297949Y-73641422D01*
X134522505Y-73977495D01*
X134858577Y-74202051D01*
X135255000Y-74280904D01*
X135651422Y-74202051D01*
X135987495Y-73977495D01*
X136212051Y-73641423D01*
X136271000Y-73345065D01*
X136271000Y-72414936D01*
X136271000Y-72414935D01*
X136779000Y-72414935D01*
X136779000Y-73345064D01*
X136837949Y-73641422D01*
X137062505Y-73977495D01*
X137398577Y-74202051D01*
X137795000Y-74280904D01*
X138191422Y-74202051D01*
X138527495Y-73977495D01*
X138752051Y-73641423D01*
X138811000Y-73345065D01*
X138811000Y-72414936D01*
X138811000Y-72414935D01*
X139319000Y-72414935D01*
X139319000Y-73345064D01*
X139377949Y-73641422D01*
X139602505Y-73977495D01*
X139938577Y-74202051D01*
X140335000Y-74280904D01*
X140731422Y-74202051D01*
X141067495Y-73977495D01*
X141292051Y-73641423D01*
X141351000Y-73345065D01*
X141351000Y-72414936D01*
X141351000Y-72414935D01*
X141859000Y-72414935D01*
X141859000Y-73345064D01*
X141917949Y-73641422D01*
X142142505Y-73977495D01*
X142478577Y-74202051D01*
X142875000Y-74280904D01*
X143271422Y-74202051D01*
X143607495Y-73977495D01*
X143832051Y-73641423D01*
X143891000Y-73345065D01*
X143891000Y-72414936D01*
X143891000Y-72414935D01*
X144399000Y-72414935D01*
X144399000Y-73345064D01*
X144457949Y-73641422D01*
X144682505Y-73977495D01*
X145018577Y-74202051D01*
X145415000Y-74280904D01*
X145811422Y-74202051D01*
X146147495Y-73977495D01*
X146372051Y-73641423D01*
X146431000Y-73345065D01*
X146431000Y-72414936D01*
X146372051Y-72118577D01*
X146147495Y-71782505D01*
X145811423Y-71557949D01*
X145415000Y-71479096D01*
X145018578Y-71557949D01*
X144682506Y-71782505D01*
X144457950Y-72118577D01*
X144399000Y-72414935D01*
X143891000Y-72414935D01*
X143832051Y-72118577D01*
X143607495Y-71782505D01*
X143271423Y-71557949D01*
X142875000Y-71479096D01*
X142478578Y-71557949D01*
X142142506Y-71782505D01*
X141917950Y-72118577D01*
X141859000Y-72414935D01*
X141351000Y-72414935D01*
X141292051Y-72118577D01*
X141067495Y-71782505D01*
X140731423Y-71557949D01*
X140335000Y-71479096D01*
X139938578Y-71557949D01*
X139602506Y-71782505D01*
X139377950Y-72118577D01*
X139319000Y-72414935D01*
X138811000Y-72414935D01*
X138752051Y-72118577D01*
X138527495Y-71782505D01*
X138191423Y-71557949D01*
X137795000Y-71479096D01*
X137398578Y-71557949D01*
X137062506Y-71782505D01*
X136837950Y-72118577D01*
X136779000Y-72414935D01*
X136271000Y-72414935D01*
X136212051Y-72118577D01*
X135987495Y-71782505D01*
X135761000Y-71631166D01*
X135761000Y-71204591D01*
X137459592Y-69506000D01*
X149139837Y-69506000D01*
X149052569Y-69523359D01*
X148885194Y-69635194D01*
X148856965Y-69677442D01*
X147632447Y-70901962D01*
X147590194Y-70930194D01*
X147478359Y-71097570D01*
X147459490Y-71192431D01*
X147439087Y-71295000D01*
X147449000Y-71344834D01*
X147449000Y-71631166D01*
X147222506Y-71782505D01*
X146997950Y-72118577D01*
X146939000Y-72414935D01*
X146939000Y-73345064D01*
X146997949Y-73641422D01*
X147222505Y-73977495D01*
X147558577Y-74202051D01*
X147955000Y-74280904D01*
X148351422Y-74202051D01*
X148687495Y-73977495D01*
X148912051Y-73641423D01*
X148971000Y-73345065D01*
X148971000Y-72414936D01*
X148971000Y-72414935D01*
X149479000Y-72414935D01*
X149479000Y-73345064D01*
X149537949Y-73641422D01*
X149762505Y-73977495D01*
X150098577Y-74202051D01*
X150495000Y-74280904D01*
X150891422Y-74202051D01*
X151227495Y-73977495D01*
X151452051Y-73641423D01*
X151511000Y-73345065D01*
X151511000Y-72414936D01*
X151511000Y-72414935D01*
X152019000Y-72414935D01*
X152019000Y-73345064D01*
X152077949Y-73641422D01*
X152302505Y-73977495D01*
X152638577Y-74202051D01*
X153035000Y-74280904D01*
X153431422Y-74202051D01*
X153767495Y-73977495D01*
X153992051Y-73641423D01*
X154051000Y-73345065D01*
X154051000Y-72414936D01*
X153992051Y-72118577D01*
X153767495Y-71782505D01*
X153431423Y-71557949D01*
X153035000Y-71479096D01*
X152638578Y-71557949D01*
X152302506Y-71782505D01*
X152077950Y-72118577D01*
X152019000Y-72414935D01*
X151511000Y-72414935D01*
X151452051Y-72118577D01*
X151227495Y-71782505D01*
X150891423Y-71557949D01*
X150495000Y-71479096D01*
X150098578Y-71557949D01*
X149762506Y-71782505D01*
X149537950Y-72118577D01*
X149479000Y-72414935D01*
X148971000Y-72414935D01*
X148912051Y-72118577D01*
X148687495Y-71782505D01*
X148461000Y-71631166D01*
X148461000Y-71504591D01*
X149459593Y-70506000D01*
X162042920Y-70506000D01*
X162114244Y-70577324D01*
X162364541Y-70681000D01*
X162635459Y-70681000D01*
X162885756Y-70577324D01*
X163077324Y-70385756D01*
X163181000Y-70135459D01*
X163181000Y-69864541D01*
X163102994Y-69676217D01*
X163114541Y-69681000D01*
X163385459Y-69681000D01*
X163635756Y-69577324D01*
X163827324Y-69385756D01*
X163931000Y-69135459D01*
X163931000Y-68864541D01*
X163827324Y-68614244D01*
X163635756Y-68422676D01*
X163385459Y-68319000D01*
X163114541Y-68319000D01*
X162864244Y-68422676D01*
X162792920Y-68494000D01*
X137299833Y-68494000D01*
X137249999Y-68484087D01*
X137200165Y-68494000D01*
X137052569Y-68523359D01*
X136885194Y-68635194D01*
X136856963Y-68677445D01*
X134932447Y-70601961D01*
X134890194Y-70630194D01*
X134778359Y-70797570D01*
X134774224Y-70818359D01*
X134739087Y-70995000D01*
X134749000Y-71044834D01*
X134749000Y-71631166D01*
X134522506Y-71782505D01*
X134297950Y-72118577D01*
X134239000Y-72414935D01*
X133731000Y-72414935D01*
X133672051Y-72118577D01*
X133447495Y-71782505D01*
X133111423Y-71557949D01*
X132715000Y-71479096D01*
X132318578Y-71557949D01*
X131982506Y-71782505D01*
X131757950Y-72118577D01*
X131699000Y-72414935D01*
X131699000Y-73345064D01*
X131757949Y-73641422D01*
X131982505Y-73977495D01*
X132200455Y-74123124D01*
X132199087Y-74130000D01*
X132229105Y-74280904D01*
X132238360Y-74327431D01*
X132244000Y-74335872D01*
X132244000Y-74494000D01*
X108209592Y-74494000D01*
X107971000Y-74255409D01*
X107971000Y-74128834D01*
X108197495Y-73977495D01*
X108422051Y-73641423D01*
X108481000Y-73345065D01*
X108481000Y-72414936D01*
X108481000Y-72414935D01*
X108989000Y-72414935D01*
X108989000Y-73345064D01*
X109047949Y-73641422D01*
X109272505Y-73977495D01*
X109608577Y-74202051D01*
X110005000Y-74280904D01*
X110401422Y-74202051D01*
X110737495Y-73977495D01*
X110962051Y-73641423D01*
X111021000Y-73345065D01*
X111021000Y-72414936D01*
X111021000Y-72414935D01*
X111529000Y-72414935D01*
X111529000Y-73345064D01*
X111587949Y-73641422D01*
X111812505Y-73977495D01*
X112148577Y-74202051D01*
X112545000Y-74280904D01*
X112941422Y-74202051D01*
X113277495Y-73977495D01*
X113502051Y-73641423D01*
X113561000Y-73345065D01*
X113561000Y-72414936D01*
X113561000Y-72414935D01*
X114069000Y-72414935D01*
X114069000Y-73345064D01*
X114127949Y-73641422D01*
X114352505Y-73977495D01*
X114688577Y-74202051D01*
X115085000Y-74280904D01*
X115481422Y-74202051D01*
X115817495Y-73977495D01*
X116042051Y-73641423D01*
X116101000Y-73345065D01*
X116101000Y-72414936D01*
X116101000Y-72414935D01*
X116609000Y-72414935D01*
X116609000Y-73345064D01*
X116667949Y-73641422D01*
X116892505Y-73977495D01*
X117228577Y-74202051D01*
X117625000Y-74280904D01*
X118021422Y-74202051D01*
X118357495Y-73977495D01*
X118582051Y-73641423D01*
X118641000Y-73345065D01*
X118641000Y-72414936D01*
X118641000Y-72414935D01*
X119149000Y-72414935D01*
X119149000Y-73345064D01*
X119207949Y-73641422D01*
X119432505Y-73977495D01*
X119768577Y-74202051D01*
X120165000Y-74280904D01*
X120561422Y-74202051D01*
X120897495Y-73977495D01*
X121122051Y-73641423D01*
X121181000Y-73345065D01*
X121181000Y-72414936D01*
X121181000Y-72414935D01*
X121689000Y-72414935D01*
X121689000Y-73345064D01*
X121747949Y-73641422D01*
X121972505Y-73977495D01*
X122308577Y-74202051D01*
X122705000Y-74280904D01*
X123101422Y-74202051D01*
X123437495Y-73977495D01*
X123662051Y-73641423D01*
X123721000Y-73345065D01*
X123721000Y-72414936D01*
X123721000Y-72414935D01*
X124229000Y-72414935D01*
X124229000Y-73345064D01*
X124287949Y-73641422D01*
X124512505Y-73977495D01*
X124848577Y-74202051D01*
X125245000Y-74280904D01*
X125641422Y-74202051D01*
X125977495Y-73977495D01*
X126202051Y-73641423D01*
X126261000Y-73345065D01*
X126261000Y-72414936D01*
X126261000Y-72414935D01*
X126769000Y-72414935D01*
X126769000Y-73345064D01*
X126827949Y-73641422D01*
X127052505Y-73977495D01*
X127388577Y-74202051D01*
X127785000Y-74280904D01*
X128181422Y-74202051D01*
X128517495Y-73977495D01*
X128742051Y-73641423D01*
X128801000Y-73345065D01*
X128801000Y-72414936D01*
X128742051Y-72118577D01*
X128517495Y-71782505D01*
X128181423Y-71557949D01*
X127785000Y-71479096D01*
X127388578Y-71557949D01*
X127052506Y-71782505D01*
X126827950Y-72118577D01*
X126769000Y-72414935D01*
X126261000Y-72414935D01*
X126202051Y-72118577D01*
X125977495Y-71782505D01*
X125641423Y-71557949D01*
X125245000Y-71479096D01*
X124848578Y-71557949D01*
X124512506Y-71782505D01*
X124287950Y-72118577D01*
X124229000Y-72414935D01*
X123721000Y-72414935D01*
X123662051Y-72118577D01*
X123437495Y-71782505D01*
X123101423Y-71557949D01*
X122705000Y-71479096D01*
X122308578Y-71557949D01*
X121972506Y-71782505D01*
X121747950Y-72118577D01*
X121689000Y-72414935D01*
X121181000Y-72414935D01*
X121122051Y-72118577D01*
X120897495Y-71782505D01*
X120561423Y-71557949D01*
X120165000Y-71479096D01*
X119768578Y-71557949D01*
X119432506Y-71782505D01*
X119207950Y-72118577D01*
X119149000Y-72414935D01*
X118641000Y-72414935D01*
X118582051Y-72118577D01*
X118357495Y-71782505D01*
X118021423Y-71557949D01*
X117625000Y-71479096D01*
X117228578Y-71557949D01*
X116892506Y-71782505D01*
X116667950Y-72118577D01*
X116609000Y-72414935D01*
X116101000Y-72414935D01*
X116042051Y-72118577D01*
X115817495Y-71782505D01*
X115481423Y-71557949D01*
X115085000Y-71479096D01*
X114688578Y-71557949D01*
X114352506Y-71782505D01*
X114127950Y-72118577D01*
X114069000Y-72414935D01*
X113561000Y-72414935D01*
X113502051Y-72118577D01*
X113277495Y-71782505D01*
X112941423Y-71557949D01*
X112545000Y-71479096D01*
X112148578Y-71557949D01*
X111812506Y-71782505D01*
X111587950Y-72118577D01*
X111529000Y-72414935D01*
X111021000Y-72414935D01*
X110962051Y-72118577D01*
X110737495Y-71782505D01*
X110401423Y-71557949D01*
X110005000Y-71479096D01*
X109608578Y-71557949D01*
X109272506Y-71782505D01*
X109047950Y-72118577D01*
X108989000Y-72414935D01*
X108481000Y-72414935D01*
X108422051Y-72118577D01*
X108197495Y-71782505D01*
X107861423Y-71557949D01*
X107465000Y-71479096D01*
X107068578Y-71557949D01*
X106732506Y-71782505D01*
X106507950Y-72118577D01*
X106449000Y-72414935D01*
X104629174Y-72414935D01*
X104687552Y-71996912D01*
X105221744Y-69261478D01*
X105826037Y-66864541D01*
X167569000Y-66864541D01*
X167569000Y-67135459D01*
X167672676Y-67385756D01*
X167864244Y-67577324D01*
X168114541Y-67681000D01*
X168385459Y-67681000D01*
X168635756Y-67577324D01*
X168707080Y-67506000D01*
X174042920Y-67506000D01*
X174114244Y-67577324D01*
X174364541Y-67681000D01*
X174635459Y-67681000D01*
X174885756Y-67577324D01*
X175077324Y-67385756D01*
X175181000Y-67135459D01*
X175181000Y-66864541D01*
X175077324Y-66614244D01*
X174885756Y-66422676D01*
X174770655Y-66375000D01*
X174885756Y-66327324D01*
X175077324Y-66135756D01*
X175181000Y-65885459D01*
X175181000Y-65614541D01*
X175077324Y-65364244D01*
X174885756Y-65172676D01*
X174635459Y-65069000D01*
X174364541Y-65069000D01*
X174114244Y-65172676D01*
X174042920Y-65244000D01*
X171207080Y-65244000D01*
X171135756Y-65172676D01*
X170885459Y-65069000D01*
X170614541Y-65069000D01*
X170364244Y-65172676D01*
X170172676Y-65364244D01*
X170069000Y-65614541D01*
X170069000Y-65885459D01*
X170172676Y-66135756D01*
X170364244Y-66327324D01*
X170614541Y-66431000D01*
X170885459Y-66431000D01*
X171135756Y-66327324D01*
X171207080Y-66256000D01*
X174042920Y-66256000D01*
X174114244Y-66327324D01*
X174229345Y-66375000D01*
X174114244Y-66422676D01*
X174042920Y-66494000D01*
X168707080Y-66494000D01*
X168635756Y-66422676D01*
X168385459Y-66319000D01*
X168114541Y-66319000D01*
X167864244Y-66422676D01*
X167672676Y-66614244D01*
X167569000Y-66864541D01*
X105826037Y-66864541D01*
X105903084Y-66558936D01*
X106677614Y-64064541D01*
X109319000Y-64064541D01*
X109319000Y-64335459D01*
X109422676Y-64585756D01*
X109614244Y-64777324D01*
X109864541Y-64881000D01*
X110135459Y-64881000D01*
X110385756Y-64777324D01*
X110577324Y-64585756D01*
X110668953Y-64364541D01*
X186319000Y-64364541D01*
X186319000Y-64635459D01*
X186422676Y-64885756D01*
X186614244Y-65077324D01*
X186729345Y-65125000D01*
X186614244Y-65172676D01*
X186422676Y-65364244D01*
X186319000Y-65614541D01*
X186319000Y-65885459D01*
X186422676Y-66135756D01*
X186614244Y-66327324D01*
X186864541Y-66431000D01*
X187135459Y-66431000D01*
X187385756Y-66327324D01*
X187457080Y-66256000D01*
X188292920Y-66256000D01*
X188364244Y-66327324D01*
X188614541Y-66431000D01*
X188885459Y-66431000D01*
X189135756Y-66327324D01*
X189327324Y-66135756D01*
X189431000Y-65885459D01*
X189431000Y-65614541D01*
X189327324Y-65364244D01*
X189135756Y-65172676D01*
X188885459Y-65069000D01*
X188614541Y-65069000D01*
X188364244Y-65172676D01*
X188292920Y-65244000D01*
X187457080Y-65244000D01*
X187385756Y-65172676D01*
X187270655Y-65125000D01*
X187385756Y-65077324D01*
X187457080Y-65006000D01*
X190292920Y-65006000D01*
X190364244Y-65077324D01*
X190614541Y-65181000D01*
X190885459Y-65181000D01*
X191135756Y-65077324D01*
X191327324Y-64885756D01*
X191431000Y-64635459D01*
X191431000Y-64364541D01*
X191327324Y-64114244D01*
X191135756Y-63922676D01*
X190885459Y-63819000D01*
X190614541Y-63819000D01*
X190364244Y-63922676D01*
X190292920Y-63994000D01*
X187457080Y-63994000D01*
X187385756Y-63922676D01*
X187135459Y-63819000D01*
X186864541Y-63819000D01*
X186614244Y-63922676D01*
X186422676Y-64114244D01*
X186319000Y-64364541D01*
X110668953Y-64364541D01*
X110681000Y-64335459D01*
X110681000Y-64234591D01*
X113159592Y-61756000D01*
X159450166Y-61756000D01*
X159500000Y-61765913D01*
X159549834Y-61756000D01*
X159549835Y-61756000D01*
X159697431Y-61726641D01*
X159864806Y-61614806D01*
X159893038Y-61572553D01*
X160209592Y-61256000D01*
X174042920Y-61256000D01*
X174114244Y-61327324D01*
X174364541Y-61431000D01*
X174635459Y-61431000D01*
X174885756Y-61327324D01*
X175077324Y-61135756D01*
X175181000Y-60885459D01*
X175181000Y-60614541D01*
X175077324Y-60364244D01*
X174885756Y-60172676D01*
X174635459Y-60069000D01*
X174364541Y-60069000D01*
X174114244Y-60172676D01*
X174042920Y-60244000D01*
X160049835Y-60244000D01*
X160000000Y-60234087D01*
X159802568Y-60273359D01*
X159747781Y-60309967D01*
X159635194Y-60385194D01*
X159606963Y-60427445D01*
X159290409Y-60744000D01*
X158221591Y-60744000D01*
X159209592Y-59756000D01*
X174042920Y-59756000D01*
X174114244Y-59827324D01*
X174364541Y-59931000D01*
X174635459Y-59931000D01*
X174885756Y-59827324D01*
X175077324Y-59635756D01*
X175181000Y-59385459D01*
X175181000Y-59114541D01*
X175077324Y-58864244D01*
X174885756Y-58672676D01*
X174770655Y-58625000D01*
X174885756Y-58577324D01*
X175077324Y-58385756D01*
X175181000Y-58135459D01*
X175181000Y-57864541D01*
X175077324Y-57614244D01*
X174885756Y-57422676D01*
X174770655Y-57375000D01*
X174885756Y-57327324D01*
X175077324Y-57135756D01*
X175181000Y-56885459D01*
X175181000Y-56614541D01*
X175077324Y-56364244D01*
X174885756Y-56172676D01*
X174770655Y-56125000D01*
X174885756Y-56077324D01*
X175077324Y-55885756D01*
X175181000Y-55635459D01*
X175181000Y-55364541D01*
X175077324Y-55114244D01*
X174885756Y-54922676D01*
X174635459Y-54819000D01*
X174364541Y-54819000D01*
X174114244Y-54922676D01*
X174042920Y-54994000D01*
X162957080Y-54994000D01*
X162885756Y-54922676D01*
X162635459Y-54819000D01*
X162364541Y-54819000D01*
X162114244Y-54922676D01*
X161922676Y-55114244D01*
X161819000Y-55364541D01*
X161819000Y-55635459D01*
X161922676Y-55885756D01*
X162114244Y-56077324D01*
X162229345Y-56125000D01*
X162114244Y-56172676D01*
X161922676Y-56364244D01*
X161819000Y-56614541D01*
X161819000Y-56885459D01*
X161922676Y-57135756D01*
X162114244Y-57327324D01*
X162364541Y-57431000D01*
X162635459Y-57431000D01*
X162885756Y-57327324D01*
X162957080Y-57256000D01*
X174042920Y-57256000D01*
X174114244Y-57327324D01*
X174229345Y-57375000D01*
X174114244Y-57422676D01*
X174042920Y-57494000D01*
X163707080Y-57494000D01*
X163635756Y-57422676D01*
X163385459Y-57319000D01*
X163114541Y-57319000D01*
X162864244Y-57422676D01*
X162672676Y-57614244D01*
X162569000Y-57864541D01*
X162569000Y-58135459D01*
X162672676Y-58385756D01*
X162864244Y-58577324D01*
X163114541Y-58681000D01*
X163385459Y-58681000D01*
X163635756Y-58577324D01*
X163707080Y-58506000D01*
X174042920Y-58506000D01*
X174114244Y-58577324D01*
X174229345Y-58625000D01*
X174114244Y-58672676D01*
X174042920Y-58744000D01*
X159049834Y-58744000D01*
X159000000Y-58734087D01*
X158950166Y-58744000D01*
X158950165Y-58744000D01*
X158802569Y-58773359D01*
X158635194Y-58885194D01*
X158606963Y-58927445D01*
X157540409Y-59994000D01*
X123207080Y-59994000D01*
X123135756Y-59922676D01*
X122885459Y-59819000D01*
X122614541Y-59819000D01*
X122364244Y-59922676D01*
X122172676Y-60114244D01*
X122069000Y-60364541D01*
X122069000Y-60635459D01*
X122113959Y-60744000D01*
X112999833Y-60744000D01*
X112949999Y-60734087D01*
X112900165Y-60744000D01*
X112752569Y-60773359D01*
X112585194Y-60885194D01*
X112556963Y-60927445D01*
X109965409Y-63519000D01*
X109864541Y-63519000D01*
X109614244Y-63622676D01*
X109422676Y-63814244D01*
X109319000Y-64064541D01*
X106677614Y-64064541D01*
X106729577Y-63897194D01*
X107698804Y-61284042D01*
X108776989Y-58798456D01*
X109151795Y-58070890D01*
X150126433Y-58070890D01*
X150156003Y-58219549D01*
X150240211Y-58345576D01*
X151654424Y-59759789D01*
X151780451Y-59843997D01*
X151929110Y-59873567D01*
X152077769Y-59843997D01*
X152203796Y-59759789D01*
X153318936Y-58644649D01*
X154969000Y-58644649D01*
X154969000Y-58955351D01*
X155087900Y-59242401D01*
X155307599Y-59462100D01*
X155594649Y-59581000D01*
X155905351Y-59581000D01*
X156192401Y-59462100D01*
X156412100Y-59242401D01*
X156531000Y-58955351D01*
X156531000Y-58934591D01*
X156579251Y-58886340D01*
X156851660Y-59158749D01*
X156977687Y-59242957D01*
X157126346Y-59272527D01*
X157275005Y-59242957D01*
X157401032Y-59158749D01*
X158178850Y-58380931D01*
X158263058Y-58254904D01*
X158265050Y-58244888D01*
X158332114Y-58217109D01*
X158690996Y-57858227D01*
X158690996Y-57723523D01*
X157851130Y-56883657D01*
X157836988Y-56897799D01*
X157804461Y-56865272D01*
X157818603Y-56851130D01*
X156978737Y-56011264D01*
X156844033Y-56011264D01*
X156485151Y-56370146D01*
X156457372Y-56437211D01*
X156447357Y-56439203D01*
X156321330Y-56523411D01*
X155543512Y-57301229D01*
X155459304Y-57427256D01*
X155429734Y-57575915D01*
X155459304Y-57724574D01*
X155543512Y-57850601D01*
X155711911Y-58019000D01*
X155594649Y-58019000D01*
X155307599Y-58137900D01*
X155087900Y-58357599D01*
X154969000Y-58644649D01*
X153318936Y-58644649D01*
X153547299Y-58416286D01*
X153631507Y-58290259D01*
X153661077Y-58141600D01*
X153631507Y-57992941D01*
X153547299Y-57866914D01*
X152133086Y-56452701D01*
X152007059Y-56368493D01*
X151858400Y-56338923D01*
X151709741Y-56368493D01*
X151583714Y-56452701D01*
X150240211Y-57796204D01*
X150156003Y-57922231D01*
X150126433Y-58070890D01*
X109151795Y-58070890D01*
X110376705Y-55693125D01*
X153400497Y-55693125D01*
X153400497Y-55993881D01*
X153515591Y-56271743D01*
X153728257Y-56484409D01*
X154006119Y-56599503D01*
X154306875Y-56599503D01*
X154584737Y-56484409D01*
X154797403Y-56271743D01*
X154912497Y-55993881D01*
X154912497Y-55844033D01*
X157011264Y-55844033D01*
X157011264Y-55978737D01*
X157851130Y-56818603D01*
X157865272Y-56804461D01*
X157897799Y-56836988D01*
X157883657Y-56851130D01*
X158723523Y-57690996D01*
X158858227Y-57690996D01*
X159217109Y-57332114D01*
X159244888Y-57265050D01*
X159254904Y-57263058D01*
X159380931Y-57178850D01*
X160158749Y-56401032D01*
X160242957Y-56275005D01*
X160272527Y-56126346D01*
X160242957Y-55977687D01*
X160158749Y-55851660D01*
X159886340Y-55579251D01*
X159934592Y-55531000D01*
X160155351Y-55531000D01*
X160442401Y-55412100D01*
X160662100Y-55192401D01*
X160781000Y-54905351D01*
X160781000Y-54594649D01*
X160662100Y-54307599D01*
X160619042Y-54264541D01*
X186319000Y-54264541D01*
X186319000Y-54535459D01*
X186422676Y-54785756D01*
X186614244Y-54977324D01*
X186668989Y-55000000D01*
X186614244Y-55022676D01*
X186422676Y-55214244D01*
X186319000Y-55464541D01*
X186319000Y-55735459D01*
X186422676Y-55985756D01*
X186614244Y-56177324D01*
X186668989Y-56200000D01*
X186614244Y-56222676D01*
X186422676Y-56414244D01*
X186319000Y-56664541D01*
X186319000Y-56935459D01*
X186422676Y-57185756D01*
X186614244Y-57377324D01*
X186864541Y-57481000D01*
X187135459Y-57481000D01*
X187385756Y-57377324D01*
X187457080Y-57306000D01*
X194142920Y-57306000D01*
X194214244Y-57377324D01*
X194464541Y-57481000D01*
X194735459Y-57481000D01*
X194985756Y-57377324D01*
X195177324Y-57185756D01*
X195281000Y-56935459D01*
X195281000Y-56664541D01*
X195177324Y-56414244D01*
X194985756Y-56222676D01*
X194735459Y-56119000D01*
X194464541Y-56119000D01*
X194214244Y-56222676D01*
X194142920Y-56294000D01*
X187457080Y-56294000D01*
X187385756Y-56222676D01*
X187331011Y-56200000D01*
X187385756Y-56177324D01*
X187457080Y-56106000D01*
X196742920Y-56106000D01*
X196814244Y-56177324D01*
X197064541Y-56281000D01*
X197335459Y-56281000D01*
X197585756Y-56177324D01*
X197777324Y-55985756D01*
X197820572Y-55881345D01*
X197876641Y-55797431D01*
X197915913Y-55600000D01*
X197876641Y-55402569D01*
X197820572Y-55318655D01*
X197777324Y-55214244D01*
X197585756Y-55022676D01*
X197335459Y-54919000D01*
X197064541Y-54919000D01*
X196814244Y-55022676D01*
X196742920Y-55094000D01*
X187457080Y-55094000D01*
X187385756Y-55022676D01*
X187331011Y-55000000D01*
X187385756Y-54977324D01*
X187457080Y-54906000D01*
X191542920Y-54906000D01*
X191614244Y-54977324D01*
X191864541Y-55081000D01*
X192135459Y-55081000D01*
X192385756Y-54977324D01*
X192577324Y-54785756D01*
X192681000Y-54535459D01*
X192681000Y-54264541D01*
X192577324Y-54014244D01*
X192385756Y-53822676D01*
X192135459Y-53719000D01*
X191864541Y-53719000D01*
X191614244Y-53822676D01*
X191542920Y-53894000D01*
X187457080Y-53894000D01*
X187385756Y-53822676D01*
X187135459Y-53719000D01*
X186864541Y-53719000D01*
X186614244Y-53822676D01*
X186422676Y-54014244D01*
X186319000Y-54264541D01*
X160619042Y-54264541D01*
X160442401Y-54087900D01*
X160155351Y-53969000D01*
X159844649Y-53969000D01*
X159557599Y-54087900D01*
X159337900Y-54307599D01*
X159219000Y-54594649D01*
X159219000Y-54815408D01*
X159170749Y-54863660D01*
X158850601Y-54543512D01*
X158724574Y-54459304D01*
X158575915Y-54429734D01*
X158427256Y-54459304D01*
X158301229Y-54543512D01*
X157523411Y-55321330D01*
X157439203Y-55447357D01*
X157437211Y-55457372D01*
X157370146Y-55485151D01*
X157011264Y-55844033D01*
X154912497Y-55844033D01*
X154912497Y-55693125D01*
X154797403Y-55415263D01*
X154584737Y-55202597D01*
X154306875Y-55087503D01*
X154006119Y-55087503D01*
X153728257Y-55202597D01*
X153515591Y-55415263D01*
X153400497Y-55693125D01*
X110376705Y-55693125D01*
X110521009Y-55413006D01*
X111432489Y-53811767D01*
X112940242Y-51467701D01*
X114112978Y-49844649D01*
X149969000Y-49844649D01*
X149969000Y-50155351D01*
X150087900Y-50442401D01*
X150307599Y-50662100D01*
X150594649Y-50781000D01*
X150905351Y-50781000D01*
X151014007Y-50735993D01*
X150969000Y-50844649D01*
X150969000Y-51155351D01*
X151014007Y-51264007D01*
X150905351Y-51219000D01*
X150594649Y-51219000D01*
X150307599Y-51337900D01*
X150087900Y-51557599D01*
X149969000Y-51844649D01*
X149969000Y-52155351D01*
X150087900Y-52442401D01*
X150307599Y-52662100D01*
X150594649Y-52781000D01*
X150745903Y-52781000D01*
X150727473Y-52873654D01*
X150757043Y-53022313D01*
X150841251Y-53148340D01*
X152149399Y-54456488D01*
X152275426Y-54540696D01*
X152424085Y-54570266D01*
X152572744Y-54540696D01*
X152698771Y-54456488D01*
X153476589Y-53678670D01*
X153560797Y-53552643D01*
X153561112Y-53551062D01*
X153562694Y-53550747D01*
X153688721Y-53466539D01*
X154178978Y-52976282D01*
X155937503Y-52976282D01*
X155937503Y-53336712D01*
X156075433Y-53669705D01*
X156330295Y-53924567D01*
X156663288Y-54062497D01*
X157023718Y-54062497D01*
X157356711Y-53924567D01*
X157611573Y-53669705D01*
X157749503Y-53336712D01*
X157749503Y-52976282D01*
X157611573Y-52643289D01*
X157356711Y-52388427D01*
X157023718Y-52250497D01*
X156663288Y-52250497D01*
X156330295Y-52388427D01*
X156075433Y-52643289D01*
X155937503Y-52976282D01*
X154178978Y-52976282D01*
X154466539Y-52688721D01*
X154550747Y-52562694D01*
X154551062Y-52561112D01*
X154552643Y-52560797D01*
X154678670Y-52476589D01*
X155456488Y-51698771D01*
X155540696Y-51572744D01*
X155570266Y-51424085D01*
X155540696Y-51275426D01*
X155456488Y-51149399D01*
X155165489Y-50858400D01*
X157338923Y-50858400D01*
X157368493Y-51007059D01*
X157452701Y-51133086D01*
X158866914Y-52547299D01*
X158992941Y-52631507D01*
X159141600Y-52661077D01*
X159290259Y-52631507D01*
X159416286Y-52547299D01*
X160349044Y-51614541D01*
X177319000Y-51614541D01*
X177319000Y-51885459D01*
X177422676Y-52135756D01*
X177614244Y-52327324D01*
X177729345Y-52375000D01*
X177614244Y-52422676D01*
X177422676Y-52614244D01*
X177319000Y-52864541D01*
X177319000Y-53135459D01*
X177422676Y-53385756D01*
X177614244Y-53577324D01*
X177864541Y-53681000D01*
X178135459Y-53681000D01*
X178385756Y-53577324D01*
X178457080Y-53506000D01*
X187542920Y-53506000D01*
X187614244Y-53577324D01*
X187864541Y-53681000D01*
X188135459Y-53681000D01*
X188385756Y-53577324D01*
X188577324Y-53385756D01*
X188681000Y-53135459D01*
X188681000Y-52864541D01*
X188577324Y-52614244D01*
X188385756Y-52422676D01*
X188135459Y-52319000D01*
X187864541Y-52319000D01*
X187614244Y-52422676D01*
X187542920Y-52494000D01*
X178457080Y-52494000D01*
X178385756Y-52422676D01*
X178270655Y-52375000D01*
X178385756Y-52327324D01*
X178457080Y-52256000D01*
X194142920Y-52256000D01*
X194214244Y-52327324D01*
X194464541Y-52431000D01*
X194735459Y-52431000D01*
X194985756Y-52327324D01*
X195177324Y-52135756D01*
X195281000Y-51885459D01*
X195281000Y-51614541D01*
X195177324Y-51364244D01*
X194985756Y-51172676D01*
X194735459Y-51069000D01*
X194464541Y-51069000D01*
X194214244Y-51172676D01*
X194142920Y-51244000D01*
X178457080Y-51244000D01*
X178385756Y-51172676D01*
X178135459Y-51069000D01*
X177864541Y-51069000D01*
X177614244Y-51172676D01*
X177422676Y-51364244D01*
X177319000Y-51614541D01*
X160349044Y-51614541D01*
X160759789Y-51203796D01*
X160843997Y-51077769D01*
X160873567Y-50929110D01*
X160843997Y-50780451D01*
X160759789Y-50654424D01*
X159345576Y-49240211D01*
X159219549Y-49156003D01*
X159070890Y-49126433D01*
X158922231Y-49156003D01*
X158796204Y-49240211D01*
X157452701Y-50583714D01*
X157368493Y-50709741D01*
X157338923Y-50858400D01*
X155165489Y-50858400D01*
X154148340Y-49841251D01*
X154022313Y-49757043D01*
X153873654Y-49727473D01*
X153724995Y-49757043D01*
X153598968Y-49841251D01*
X153567855Y-49872364D01*
X153372937Y-49677447D01*
X153344705Y-49635194D01*
X153177330Y-49523359D01*
X153029734Y-49494000D01*
X153029733Y-49494000D01*
X152979899Y-49484087D01*
X152930065Y-49494000D01*
X151348501Y-49494000D01*
X151192401Y-49337900D01*
X150905351Y-49219000D01*
X150594649Y-49219000D01*
X150307599Y-49337900D01*
X150087900Y-49557599D01*
X149969000Y-49844649D01*
X114112978Y-49844649D01*
X114572553Y-49208604D01*
X116324645Y-47041086D01*
X117638781Y-45584149D01*
X121975114Y-41392361D01*
X122246665Y-41149992D01*
X124151075Y-39627000D01*
X186855240Y-39627000D01*
X188890489Y-41266308D01*
X188890489Y-41266308D01*
G37*
X188890489Y-41266308D02*
X190963339Y-43129438D01*
X192932400Y-45101939D01*
X194791910Y-47178037D01*
X196536425Y-49351658D01*
X198160840Y-51616440D01*
X199660402Y-53965753D01*
X201030721Y-56392724D01*
X202267788Y-58890248D01*
X203367981Y-61451017D01*
X204328081Y-64067535D01*
X205145277Y-66732146D01*
X205817179Y-69437051D01*
X206341820Y-72174333D01*
X206717664Y-74935981D01*
X206943611Y-77713914D01*
X207019000Y-80500000D01*
X207017745Y-80859668D01*
X206922907Y-83645160D01*
X206677572Y-86421447D01*
X206282457Y-89180404D01*
X205738720Y-91913957D01*
X205047951Y-94614105D01*
X204212171Y-97272946D01*
X203233829Y-99882698D01*
X202115785Y-102435723D01*
X200861313Y-104924550D01*
X199474084Y-107341895D01*
X197958157Y-109680683D01*
X196317970Y-111934069D01*
X194558323Y-114095458D01*
X192684365Y-116158524D01*
X190701582Y-118117230D01*
X188615775Y-119965844D01*
X186433050Y-121698954D01*
X184159794Y-123311489D01*
X181802661Y-124798729D01*
X179368548Y-126156322D01*
X176864581Y-127380295D01*
X174298087Y-128467065D01*
X171676577Y-129413451D01*
X169007724Y-130216685D01*
X166299339Y-130874415D01*
X163559347Y-131384716D01*
X160795769Y-131746094D01*
X158016691Y-131957493D01*
X155230248Y-132018294D01*
X152444595Y-131928318D01*
X149667884Y-131687828D01*
X146908241Y-131297530D01*
X144173743Y-130758564D01*
X141472394Y-130072509D01*
X138812099Y-129241372D01*
X136200643Y-128267585D01*
X133645670Y-127153999D01*
X131154657Y-125903873D01*
X128734895Y-124520864D01*
X126393465Y-123009022D01*
X124137220Y-121372771D01*
X121972763Y-119616898D01*
X119906429Y-117746544D01*
X117944265Y-115767182D01*
X116092014Y-113684605D01*
X114355097Y-111504908D01*
X112738597Y-109234470D01*
X111247245Y-106879936D01*
X109885406Y-104448197D01*
X109535097Y-103734704D01*
X192669000Y-103734704D01*
X192669000Y-104065296D01*
X192795512Y-104370724D01*
X193029276Y-104604488D01*
X193334704Y-104731000D01*
X193665296Y-104731000D01*
X193970724Y-104604488D01*
X194204488Y-104370724D01*
X194331000Y-104065296D01*
X194331000Y-103734704D01*
X194204488Y-103429276D01*
X193970724Y-103195512D01*
X193665296Y-103069000D01*
X193334704Y-103069000D01*
X193029276Y-103195512D01*
X192795512Y-103429276D01*
X192669000Y-103734704D01*
X109535097Y-103734704D01*
X108657065Y-101946370D01*
X107565817Y-99381777D01*
X106614857Y-96761923D01*
X106276081Y-95643372D01*
X129731700Y-95643372D01*
X129731700Y-96189028D01*
X129940514Y-96693149D01*
X130326351Y-97078986D01*
X130830472Y-97287800D01*
X131376128Y-97287800D01*
X131880249Y-97078986D01*
X132024531Y-96934704D01*
X192669000Y-96934704D01*
X192669000Y-97265296D01*
X192795512Y-97570724D01*
X193029276Y-97804488D01*
X193334704Y-97931000D01*
X193665296Y-97931000D01*
X193970724Y-97804488D01*
X194204488Y-97570724D01*
X194331000Y-97265296D01*
X194331000Y-96934704D01*
X194204488Y-96629276D01*
X193970724Y-96395512D01*
X193665296Y-96269000D01*
X193334704Y-96269000D01*
X193029276Y-96395512D01*
X192795512Y-96629276D01*
X192669000Y-96934704D01*
X132024531Y-96934704D01*
X132266086Y-96693149D01*
X132474900Y-96189028D01*
X132474900Y-95643372D01*
X132266086Y-95139251D01*
X131880249Y-94753414D01*
X131376128Y-94544600D01*
X130830472Y-94544600D01*
X130326351Y-94753414D01*
X129940514Y-95139251D01*
X129731700Y-95643372D01*
X106276081Y-95643372D01*
X105806966Y-94094476D01*
X105144511Y-91387242D01*
X104629428Y-88648145D01*
X104263226Y-85885202D01*
X104046977Y-83106498D01*
X103981314Y-80320165D01*
X104066428Y-77534359D01*
X104302071Y-74757232D01*
X104629174Y-72414935D01*
X106449000Y-72414935D01*
X106449000Y-73345064D01*
X106507949Y-73641422D01*
X106732505Y-73977495D01*
X106959000Y-74128834D01*
X106959000Y-74415166D01*
X106949087Y-74465000D01*
X106959000Y-74514834D01*
X106988359Y-74662430D01*
X107100194Y-74829806D01*
X107142447Y-74858038D01*
X107606963Y-75322555D01*
X107635194Y-75364806D01*
X107802569Y-75476641D01*
X107950165Y-75506000D01*
X107999999Y-75515913D01*
X108049833Y-75506000D01*
X111863959Y-75506000D01*
X111819000Y-75614541D01*
X111819000Y-75885459D01*
X111922676Y-76135756D01*
X112114244Y-76327324D01*
X112364541Y-76431000D01*
X112635459Y-76431000D01*
X112885756Y-76327324D01*
X112957080Y-76256000D01*
X114363959Y-76256000D01*
X114319000Y-76364541D01*
X114319000Y-76635459D01*
X114422676Y-76885756D01*
X114614244Y-77077324D01*
X114864541Y-77181000D01*
X115135459Y-77181000D01*
X115385756Y-77077324D01*
X115457080Y-77006000D01*
X116863959Y-77006000D01*
X116819000Y-77114541D01*
X116819000Y-77385459D01*
X116922676Y-77635756D01*
X117114244Y-77827324D01*
X117364541Y-77931000D01*
X117635459Y-77931000D01*
X117885756Y-77827324D01*
X117957080Y-77756000D01*
X119613959Y-77756000D01*
X119569000Y-77864541D01*
X119569000Y-78135459D01*
X119672676Y-78385756D01*
X119864244Y-78577324D01*
X120114541Y-78681000D01*
X120385459Y-78681000D01*
X120635756Y-78577324D01*
X120707080Y-78506000D01*
X124613959Y-78506000D01*
X124569000Y-78614541D01*
X124569000Y-78885459D01*
X124672676Y-79135756D01*
X124864244Y-79327324D01*
X125114541Y-79431000D01*
X125385459Y-79431000D01*
X125635756Y-79327324D01*
X125707080Y-79256000D01*
X127113959Y-79256000D01*
X127069000Y-79364541D01*
X127069000Y-79635459D01*
X127172676Y-79885756D01*
X127186922Y-79900002D01*
X127172676Y-79914247D01*
X127069000Y-80164544D01*
X127069000Y-80435462D01*
X127093247Y-80494000D01*
X125707080Y-80494000D01*
X125635756Y-80422676D01*
X125385459Y-80319000D01*
X125114541Y-80319000D01*
X124864244Y-80422676D01*
X124672676Y-80614244D01*
X124569000Y-80864541D01*
X124569000Y-81135459D01*
X124613959Y-81244000D01*
X120707080Y-81244000D01*
X120635756Y-81172676D01*
X120385459Y-81069000D01*
X120114541Y-81069000D01*
X119864244Y-81172676D01*
X119672676Y-81364244D01*
X119569000Y-81614541D01*
X119569000Y-81885459D01*
X119613959Y-81994000D01*
X118207080Y-81994000D01*
X118135756Y-81922676D01*
X117885459Y-81819000D01*
X117614541Y-81819000D01*
X117364244Y-81922676D01*
X117172676Y-82114244D01*
X117069000Y-82364541D01*
X117069000Y-82635459D01*
X117113959Y-82744000D01*
X115457080Y-82744000D01*
X115385756Y-82672676D01*
X115135459Y-82569000D01*
X114864541Y-82569000D01*
X114614244Y-82672676D01*
X114422676Y-82864244D01*
X114319000Y-83114541D01*
X114319000Y-83385459D01*
X114363959Y-83494000D01*
X112957080Y-83494000D01*
X112885756Y-83422676D01*
X112635459Y-83319000D01*
X112364541Y-83319000D01*
X112114244Y-83422676D01*
X111922676Y-83614244D01*
X111819000Y-83864541D01*
X111819000Y-84135459D01*
X111863959Y-84244000D01*
X110457080Y-84244000D01*
X110385756Y-84172676D01*
X110135459Y-84069000D01*
X109864541Y-84069000D01*
X109614244Y-84172676D01*
X109422676Y-84364244D01*
X109319000Y-84614541D01*
X109319000Y-84885459D01*
X109363959Y-84994000D01*
X108049835Y-84994000D01*
X108000000Y-84984087D01*
X107802568Y-85023359D01*
X107747781Y-85059967D01*
X107635194Y-85135194D01*
X107606963Y-85177445D01*
X107177445Y-85606964D01*
X107135195Y-85635194D01*
X107046747Y-85767568D01*
X107023360Y-85802569D01*
X106984087Y-86000000D01*
X106994001Y-86049839D01*
X106994001Y-86847780D01*
X106732506Y-87022505D01*
X106507950Y-87358577D01*
X106449000Y-87654935D01*
X106449000Y-88585064D01*
X106507949Y-88881422D01*
X106732505Y-89217495D01*
X107068577Y-89442051D01*
X107465000Y-89520904D01*
X107861422Y-89442051D01*
X108197495Y-89217495D01*
X108422051Y-88881423D01*
X108481000Y-88585065D01*
X108481000Y-87654936D01*
X108481000Y-87654935D01*
X108989000Y-87654935D01*
X108989000Y-88585064D01*
X109047949Y-88881422D01*
X109272505Y-89217495D01*
X109608577Y-89442051D01*
X110005000Y-89520904D01*
X110401422Y-89442051D01*
X110737495Y-89217495D01*
X110962051Y-88881423D01*
X111021000Y-88585065D01*
X111021000Y-87654936D01*
X111021000Y-87654935D01*
X111529000Y-87654935D01*
X111529000Y-88585064D01*
X111587949Y-88881422D01*
X111812505Y-89217495D01*
X112148577Y-89442051D01*
X112545000Y-89520904D01*
X112941422Y-89442051D01*
X113277495Y-89217495D01*
X113502051Y-88881423D01*
X113561000Y-88585065D01*
X113561000Y-87654936D01*
X113561000Y-87654935D01*
X114069000Y-87654935D01*
X114069000Y-88585064D01*
X114127949Y-88881422D01*
X114352505Y-89217495D01*
X114688577Y-89442051D01*
X115085000Y-89520904D01*
X115481422Y-89442051D01*
X115817495Y-89217495D01*
X116042051Y-88881423D01*
X116101000Y-88585065D01*
X116101000Y-87654936D01*
X116101000Y-87654935D01*
X116609000Y-87654935D01*
X116609000Y-88585064D01*
X116667949Y-88881422D01*
X116892505Y-89217495D01*
X117228577Y-89442051D01*
X117625000Y-89520904D01*
X118021422Y-89442051D01*
X118357495Y-89217495D01*
X118582051Y-88881423D01*
X118641000Y-88585065D01*
X118641000Y-87654936D01*
X118641000Y-87654935D01*
X119149000Y-87654935D01*
X119149000Y-88585064D01*
X119207949Y-88881422D01*
X119432505Y-89217495D01*
X119768577Y-89442051D01*
X120165000Y-89520904D01*
X120561422Y-89442051D01*
X120897495Y-89217495D01*
X121122051Y-88881423D01*
X121181000Y-88585065D01*
X121181000Y-87654936D01*
X121181000Y-87654935D01*
X121689000Y-87654935D01*
X121689000Y-88585064D01*
X121747949Y-88881422D01*
X121972505Y-89217495D01*
X122308577Y-89442051D01*
X122705000Y-89520904D01*
X123101422Y-89442051D01*
X123437495Y-89217495D01*
X123662051Y-88881423D01*
X123721000Y-88585065D01*
X123721000Y-87654936D01*
X123721000Y-87654935D01*
X124229000Y-87654935D01*
X124229000Y-88585064D01*
X124287949Y-88881422D01*
X124512505Y-89217495D01*
X124848577Y-89442051D01*
X125245000Y-89520904D01*
X125641422Y-89442051D01*
X125977495Y-89217495D01*
X126202051Y-88881423D01*
X126261000Y-88585065D01*
X126261000Y-87654936D01*
X126261000Y-87654935D01*
X126769000Y-87654935D01*
X126769000Y-88585064D01*
X126827949Y-88881422D01*
X127052505Y-89217495D01*
X127388577Y-89442051D01*
X127785000Y-89520904D01*
X128181422Y-89442051D01*
X128517495Y-89217495D01*
X128742051Y-88881423D01*
X128801000Y-88585065D01*
X128801000Y-87654936D01*
X128742051Y-87358577D01*
X128517495Y-87022505D01*
X128181423Y-86797949D01*
X127785000Y-86719096D01*
X127388578Y-86797949D01*
X127052506Y-87022505D01*
X126827950Y-87358577D01*
X126769000Y-87654935D01*
X126261000Y-87654935D01*
X126202051Y-87358577D01*
X125977495Y-87022505D01*
X125641423Y-86797949D01*
X125245000Y-86719096D01*
X124848578Y-86797949D01*
X124512506Y-87022505D01*
X124287950Y-87358577D01*
X124229000Y-87654935D01*
X123721000Y-87654935D01*
X123662051Y-87358577D01*
X123437495Y-87022505D01*
X123101423Y-86797949D01*
X122705000Y-86719096D01*
X122308578Y-86797949D01*
X121972506Y-87022505D01*
X121747950Y-87358577D01*
X121689000Y-87654935D01*
X121181000Y-87654935D01*
X121122051Y-87358577D01*
X120897495Y-87022505D01*
X120561423Y-86797949D01*
X120165000Y-86719096D01*
X119768578Y-86797949D01*
X119432506Y-87022505D01*
X119207950Y-87358577D01*
X119149000Y-87654935D01*
X118641000Y-87654935D01*
X118582051Y-87358577D01*
X118357495Y-87022505D01*
X118021423Y-86797949D01*
X117625000Y-86719096D01*
X117228578Y-86797949D01*
X116892506Y-87022505D01*
X116667950Y-87358577D01*
X116609000Y-87654935D01*
X116101000Y-87654935D01*
X116042051Y-87358577D01*
X115817495Y-87022505D01*
X115481423Y-86797949D01*
X115085000Y-86719096D01*
X114688578Y-86797949D01*
X114352506Y-87022505D01*
X114127950Y-87358577D01*
X114069000Y-87654935D01*
X113561000Y-87654935D01*
X113502051Y-87358577D01*
X113277495Y-87022505D01*
X112941423Y-86797949D01*
X112545000Y-86719096D01*
X112148578Y-86797949D01*
X111812506Y-87022505D01*
X111587950Y-87358577D01*
X111529000Y-87654935D01*
X111021000Y-87654935D01*
X110962051Y-87358577D01*
X110737495Y-87022505D01*
X110401423Y-86797949D01*
X110005000Y-86719096D01*
X109608578Y-86797949D01*
X109272506Y-87022505D01*
X109047950Y-87358577D01*
X108989000Y-87654935D01*
X108481000Y-87654935D01*
X108422051Y-87358577D01*
X108197495Y-87022505D01*
X108006000Y-86894552D01*
X108006000Y-86209591D01*
X108209592Y-86006000D01*
X132244001Y-86006000D01*
X132244000Y-86664128D01*
X132238360Y-86672569D01*
X132199087Y-86870000D01*
X132200455Y-86876876D01*
X131982506Y-87022505D01*
X131757950Y-87358577D01*
X131699000Y-87654935D01*
X131699000Y-88585064D01*
X131757949Y-88881422D01*
X131982505Y-89217495D01*
X132318577Y-89442051D01*
X132715000Y-89520904D01*
X133111422Y-89442051D01*
X133447495Y-89217495D01*
X133672051Y-88881423D01*
X133731000Y-88585065D01*
X133731000Y-87654936D01*
X133731000Y-87654935D01*
X134239000Y-87654935D01*
X134239000Y-88585064D01*
X134297949Y-88881422D01*
X134522505Y-89217495D01*
X134858577Y-89442051D01*
X135255000Y-89520904D01*
X135651422Y-89442051D01*
X135987495Y-89217495D01*
X136212051Y-88881423D01*
X136271000Y-88585065D01*
X136271000Y-87654936D01*
X136271000Y-87654935D01*
X136779000Y-87654935D01*
X136779000Y-88585064D01*
X136837949Y-88881422D01*
X137062505Y-89217495D01*
X137398577Y-89442051D01*
X137795000Y-89520904D01*
X138191422Y-89442051D01*
X138527495Y-89217495D01*
X138752051Y-88881423D01*
X138811000Y-88585065D01*
X138811000Y-87654936D01*
X138811000Y-87654935D01*
X139319000Y-87654935D01*
X139319000Y-88585064D01*
X139377949Y-88881422D01*
X139602505Y-89217495D01*
X139938577Y-89442051D01*
X140335000Y-89520904D01*
X140731422Y-89442051D01*
X141067495Y-89217495D01*
X141292051Y-88881423D01*
X141351000Y-88585065D01*
X141351000Y-87654936D01*
X141351000Y-87654935D01*
X141859000Y-87654935D01*
X141859000Y-88585064D01*
X141917949Y-88881422D01*
X142142505Y-89217495D01*
X142478577Y-89442051D01*
X142875000Y-89520904D01*
X143271422Y-89442051D01*
X143607495Y-89217495D01*
X143832051Y-88881423D01*
X143891000Y-88585065D01*
X143891000Y-87654936D01*
X143891000Y-87654935D01*
X144399000Y-87654935D01*
X144399000Y-88585064D01*
X144457949Y-88881422D01*
X144682505Y-89217495D01*
X145018577Y-89442051D01*
X145415000Y-89520904D01*
X145811422Y-89442051D01*
X146147495Y-89217495D01*
X146372051Y-88881423D01*
X146431000Y-88585065D01*
X146431000Y-87654936D01*
X146431000Y-87654935D01*
X146939000Y-87654935D01*
X146939000Y-88585064D01*
X146997949Y-88881422D01*
X147222505Y-89217495D01*
X147558577Y-89442051D01*
X147955000Y-89520904D01*
X148351422Y-89442051D01*
X148687495Y-89217495D01*
X148912051Y-88881423D01*
X148971000Y-88585065D01*
X148971000Y-87654936D01*
X148971000Y-87654935D01*
X149479000Y-87654935D01*
X149479000Y-88585064D01*
X149537949Y-88881422D01*
X149762505Y-89217495D01*
X150098577Y-89442051D01*
X150495000Y-89520904D01*
X150891422Y-89442051D01*
X151227495Y-89217495D01*
X151452051Y-88881423D01*
X151511000Y-88585065D01*
X151511000Y-87654936D01*
X151511000Y-87654935D01*
X152019000Y-87654935D01*
X152019000Y-88585064D01*
X152077949Y-88881422D01*
X152302505Y-89217495D01*
X152638577Y-89442051D01*
X153035000Y-89520904D01*
X153431422Y-89442051D01*
X153767495Y-89217495D01*
X153992051Y-88881423D01*
X154051000Y-88585065D01*
X154051000Y-87654936D01*
X153992051Y-87358577D01*
X153767495Y-87022505D01*
X153431423Y-86797949D01*
X153035000Y-86719096D01*
X152638578Y-86797949D01*
X152302506Y-87022505D01*
X152077950Y-87358577D01*
X152019000Y-87654935D01*
X151511000Y-87654935D01*
X151452051Y-87358577D01*
X151227495Y-87022505D01*
X150891423Y-86797949D01*
X150495000Y-86719096D01*
X150098578Y-86797949D01*
X149762506Y-87022505D01*
X149537950Y-87358577D01*
X149479000Y-87654935D01*
X148971000Y-87654935D01*
X148912051Y-87358577D01*
X148687495Y-87022505D01*
X148351423Y-86797949D01*
X147955000Y-86719096D01*
X147558578Y-86797949D01*
X147222506Y-87022505D01*
X146997950Y-87358577D01*
X146939000Y-87654935D01*
X146431000Y-87654935D01*
X146372051Y-87358577D01*
X146147495Y-87022505D01*
X145811423Y-86797949D01*
X145415000Y-86719096D01*
X145018578Y-86797949D01*
X144682506Y-87022505D01*
X144457950Y-87358577D01*
X144399000Y-87654935D01*
X143891000Y-87654935D01*
X143832051Y-87358577D01*
X143607495Y-87022505D01*
X143271423Y-86797949D01*
X142875000Y-86719096D01*
X142478578Y-86797949D01*
X142142506Y-87022505D01*
X141917950Y-87358577D01*
X141859000Y-87654935D01*
X141351000Y-87654935D01*
X141292051Y-87358577D01*
X141067495Y-87022505D01*
X140731423Y-86797949D01*
X140335000Y-86719096D01*
X139938578Y-86797949D01*
X139602506Y-87022505D01*
X139377950Y-87358577D01*
X139319000Y-87654935D01*
X138811000Y-87654935D01*
X138752051Y-87358577D01*
X138527495Y-87022505D01*
X138191423Y-86797949D01*
X137795000Y-86719096D01*
X137398578Y-86797949D01*
X137062506Y-87022505D01*
X136837950Y-87358577D01*
X136779000Y-87654935D01*
X136271000Y-87654935D01*
X136212051Y-87358577D01*
X135987495Y-87022505D01*
X135651423Y-86797949D01*
X135255000Y-86719096D01*
X134858578Y-86797949D01*
X134522506Y-87022505D01*
X134297950Y-87358577D01*
X134239000Y-87654935D01*
X133731000Y-87654935D01*
X133672051Y-87358577D01*
X133447495Y-87022505D01*
X133254294Y-86893412D01*
X133256000Y-86884835D01*
X133256000Y-86884834D01*
X133265913Y-86835001D01*
X133256000Y-86785167D01*
X133256000Y-86006000D01*
X157494001Y-86006000D01*
X157494000Y-86847780D01*
X157232506Y-87022505D01*
X157007950Y-87358577D01*
X156949000Y-87654935D01*
X156949000Y-88585064D01*
X157007949Y-88881422D01*
X157232505Y-89217495D01*
X157568577Y-89442051D01*
X157965000Y-89520904D01*
X158361422Y-89442051D01*
X158697495Y-89217495D01*
X158922051Y-88881423D01*
X158981000Y-88585065D01*
X158981000Y-87654936D01*
X158981000Y-87654935D01*
X159489000Y-87654935D01*
X159489000Y-88585064D01*
X159547949Y-88881422D01*
X159772505Y-89217495D01*
X160108577Y-89442051D01*
X160505000Y-89520904D01*
X160901422Y-89442051D01*
X161237495Y-89217495D01*
X161462051Y-88881423D01*
X161521000Y-88585065D01*
X161521000Y-87654936D01*
X161521000Y-87654935D01*
X162029000Y-87654935D01*
X162029000Y-88585064D01*
X162087949Y-88881422D01*
X162312505Y-89217495D01*
X162648577Y-89442051D01*
X163045000Y-89520904D01*
X163441422Y-89442051D01*
X163777495Y-89217495D01*
X164002051Y-88881423D01*
X164061000Y-88585065D01*
X164061000Y-87654936D01*
X164061000Y-87654935D01*
X164569000Y-87654935D01*
X164569000Y-88585064D01*
X164627949Y-88881422D01*
X164852505Y-89217495D01*
X165188577Y-89442051D01*
X165585000Y-89520904D01*
X165981422Y-89442051D01*
X166317495Y-89217495D01*
X166542051Y-88881423D01*
X166601000Y-88585065D01*
X166601000Y-87654936D01*
X166601000Y-87654935D01*
X167109000Y-87654935D01*
X167109000Y-88585064D01*
X167167949Y-88881422D01*
X167392505Y-89217495D01*
X167728577Y-89442051D01*
X168125000Y-89520904D01*
X168521422Y-89442051D01*
X168857495Y-89217495D01*
X169082051Y-88881423D01*
X169141000Y-88585065D01*
X169141000Y-87654936D01*
X169141000Y-87654935D01*
X169649000Y-87654935D01*
X169649000Y-88585064D01*
X169707949Y-88881422D01*
X169932505Y-89217495D01*
X170268577Y-89442051D01*
X170665000Y-89520904D01*
X171061422Y-89442051D01*
X171397495Y-89217495D01*
X171622051Y-88881423D01*
X171681000Y-88585065D01*
X171681000Y-87654936D01*
X171681000Y-87654935D01*
X172189000Y-87654935D01*
X172189000Y-88585064D01*
X172247949Y-88881422D01*
X172472505Y-89217495D01*
X172808577Y-89442051D01*
X173205000Y-89520904D01*
X173601422Y-89442051D01*
X173937495Y-89217495D01*
X174162051Y-88881423D01*
X174221000Y-88585065D01*
X174221000Y-87654936D01*
X174221000Y-87654935D01*
X174729000Y-87654935D01*
X174729000Y-88585064D01*
X174787949Y-88881422D01*
X175012505Y-89217495D01*
X175348577Y-89442051D01*
X175745000Y-89520904D01*
X176141422Y-89442051D01*
X176477495Y-89217495D01*
X176702051Y-88881423D01*
X176761000Y-88585065D01*
X176761000Y-87654936D01*
X176761000Y-87654935D01*
X177269000Y-87654935D01*
X177269000Y-88585064D01*
X177327949Y-88881422D01*
X177552505Y-89217495D01*
X177888577Y-89442051D01*
X178285000Y-89520904D01*
X178681422Y-89442051D01*
X179017495Y-89217495D01*
X179242051Y-88881423D01*
X179301000Y-88585065D01*
X179301000Y-87654936D01*
X179242051Y-87358577D01*
X179017495Y-87022505D01*
X178681423Y-86797949D01*
X178285000Y-86719096D01*
X177888578Y-86797949D01*
X177552506Y-87022505D01*
X177327950Y-87358577D01*
X177269000Y-87654935D01*
X176761000Y-87654935D01*
X176702051Y-87358577D01*
X176477495Y-87022505D01*
X176141423Y-86797949D01*
X175745000Y-86719096D01*
X175348578Y-86797949D01*
X175012506Y-87022505D01*
X174787950Y-87358577D01*
X174729000Y-87654935D01*
X174221000Y-87654935D01*
X174162051Y-87358577D01*
X173937495Y-87022505D01*
X173601423Y-86797949D01*
X173205000Y-86719096D01*
X172808578Y-86797949D01*
X172472506Y-87022505D01*
X172247950Y-87358577D01*
X172189000Y-87654935D01*
X171681000Y-87654935D01*
X171622051Y-87358577D01*
X171397495Y-87022505D01*
X171061423Y-86797949D01*
X170665000Y-86719096D01*
X170268578Y-86797949D01*
X169932506Y-87022505D01*
X169707950Y-87358577D01*
X169649000Y-87654935D01*
X169141000Y-87654935D01*
X169082051Y-87358577D01*
X168857495Y-87022505D01*
X168521423Y-86797949D01*
X168125000Y-86719096D01*
X167728578Y-86797949D01*
X167392506Y-87022505D01*
X167167950Y-87358577D01*
X167109000Y-87654935D01*
X166601000Y-87654935D01*
X166542051Y-87358577D01*
X166317495Y-87022505D01*
X165981423Y-86797949D01*
X165585000Y-86719096D01*
X165188578Y-86797949D01*
X164852506Y-87022505D01*
X164627950Y-87358577D01*
X164569000Y-87654935D01*
X164061000Y-87654935D01*
X164002051Y-87358577D01*
X163777495Y-87022505D01*
X163441423Y-86797949D01*
X163045000Y-86719096D01*
X162648578Y-86797949D01*
X162312506Y-87022505D01*
X162087950Y-87358577D01*
X162029000Y-87654935D01*
X161521000Y-87654935D01*
X161462051Y-87358577D01*
X161237495Y-87022505D01*
X160901423Y-86797949D01*
X160505000Y-86719096D01*
X160108578Y-86797949D01*
X159772506Y-87022505D01*
X159547950Y-87358577D01*
X159489000Y-87654935D01*
X158981000Y-87654935D01*
X158922051Y-87358577D01*
X158697495Y-87022505D01*
X158506000Y-86894552D01*
X158506000Y-86006000D01*
X181542920Y-86006000D01*
X181614244Y-86077324D01*
X181864541Y-86181000D01*
X182135459Y-86181000D01*
X182385756Y-86077324D01*
X182457080Y-86006000D01*
X182540409Y-86006000D01*
X182709000Y-86174592D01*
X182709000Y-86871166D01*
X182482506Y-87022505D01*
X182257950Y-87358577D01*
X182199000Y-87654935D01*
X182199000Y-88585064D01*
X182257949Y-88881422D01*
X182482505Y-89217495D01*
X182818577Y-89442051D01*
X183215000Y-89520904D01*
X183611422Y-89442051D01*
X183947495Y-89217495D01*
X184172051Y-88881423D01*
X184231000Y-88585065D01*
X184231000Y-87654936D01*
X184172051Y-87358577D01*
X183947495Y-87022505D01*
X183721000Y-86871166D01*
X183721000Y-86014833D01*
X183730913Y-85964999D01*
X183702579Y-85822558D01*
X183691641Y-85767569D01*
X183579806Y-85600194D01*
X183537556Y-85571964D01*
X183221591Y-85256000D01*
X185249001Y-85256000D01*
X185249000Y-86871166D01*
X185022506Y-87022505D01*
X184797950Y-87358577D01*
X184739000Y-87654935D01*
X184739000Y-88585064D01*
X184797949Y-88881422D01*
X185022505Y-89217495D01*
X185358577Y-89442051D01*
X185755000Y-89520904D01*
X186151422Y-89442051D01*
X186487495Y-89217495D01*
X186712051Y-88881423D01*
X186771000Y-88585065D01*
X186771000Y-87654936D01*
X186712051Y-87358577D01*
X186487495Y-87022505D01*
X186261000Y-86871166D01*
X186261000Y-85054833D01*
X186270913Y-85004999D01*
X186247134Y-84885459D01*
X186231641Y-84807569D01*
X186119806Y-84640194D01*
X186077552Y-84611961D01*
X185971591Y-84506000D01*
X187290409Y-84506000D01*
X187789001Y-85004593D01*
X187789000Y-86871166D01*
X187562506Y-87022505D01*
X187337950Y-87358577D01*
X187279000Y-87654935D01*
X187279000Y-88585064D01*
X187337949Y-88881422D01*
X187562505Y-89217495D01*
X187898577Y-89442051D01*
X188295000Y-89520904D01*
X188691422Y-89442051D01*
X189027495Y-89217495D01*
X189252051Y-88881423D01*
X189311000Y-88585065D01*
X189311000Y-87654936D01*
X189252051Y-87358577D01*
X189027495Y-87022505D01*
X188801000Y-86871166D01*
X188801000Y-84844835D01*
X188810913Y-84795000D01*
X188771641Y-84597568D01*
X188710457Y-84506000D01*
X188659806Y-84430194D01*
X188617555Y-84401963D01*
X187971591Y-83756000D01*
X190040409Y-83756000D01*
X190244001Y-83959593D01*
X190244000Y-86735166D01*
X190234087Y-86785000D01*
X190244000Y-86834834D01*
X190260351Y-86917036D01*
X190102506Y-87022505D01*
X189877950Y-87358577D01*
X189819000Y-87654935D01*
X189819000Y-88585064D01*
X189877949Y-88881422D01*
X190102505Y-89217495D01*
X190438577Y-89442051D01*
X190835000Y-89520904D01*
X191231422Y-89442051D01*
X191567495Y-89217495D01*
X191792051Y-88881423D01*
X191851000Y-88585065D01*
X191851000Y-87654936D01*
X191792051Y-87358577D01*
X191567495Y-87022505D01*
X191349545Y-86876876D01*
X191350913Y-86869999D01*
X191334005Y-86785000D01*
X191311641Y-86672569D01*
X191256000Y-86589295D01*
X191256000Y-83799835D01*
X191265913Y-83750000D01*
X191226641Y-83552568D01*
X191175908Y-83476641D01*
X191114806Y-83385194D01*
X191072555Y-83356963D01*
X190721591Y-83006000D01*
X192540409Y-83006000D01*
X192744001Y-83209593D01*
X192744000Y-86695166D01*
X192734087Y-86745000D01*
X192744000Y-86794834D01*
X192772067Y-86935935D01*
X192642506Y-87022505D01*
X192417950Y-87358577D01*
X192359000Y-87654935D01*
X192359000Y-88585064D01*
X192417949Y-88881422D01*
X192642505Y-89217495D01*
X192978577Y-89442051D01*
X193375000Y-89520904D01*
X193771422Y-89442051D01*
X194107495Y-89217495D01*
X194332051Y-88881423D01*
X194391000Y-88585065D01*
X194391000Y-87654936D01*
X194332051Y-87358577D01*
X194107495Y-87022505D01*
X193889545Y-86876876D01*
X193890913Y-86870000D01*
X193851641Y-86672569D01*
X193851640Y-86672568D01*
X193756000Y-86529430D01*
X193756000Y-83049835D01*
X193765913Y-83000000D01*
X193726641Y-82802568D01*
X193680883Y-82734087D01*
X193614806Y-82635194D01*
X193572555Y-82606963D01*
X193221591Y-82256000D01*
X194290409Y-82256000D01*
X195409001Y-83374593D01*
X195409000Y-86871166D01*
X195182506Y-87022505D01*
X194957950Y-87358577D01*
X194899000Y-87654935D01*
X194899000Y-88585064D01*
X194957949Y-88881422D01*
X195182505Y-89217495D01*
X195518577Y-89442051D01*
X195915000Y-89520904D01*
X196311422Y-89442051D01*
X196647495Y-89217495D01*
X196872051Y-88881423D01*
X196931000Y-88585065D01*
X196931000Y-87654936D01*
X196931000Y-87654935D01*
X197439000Y-87654935D01*
X197439000Y-88585064D01*
X197497949Y-88881422D01*
X197722505Y-89217495D01*
X198058577Y-89442051D01*
X198455000Y-89520904D01*
X198851422Y-89442051D01*
X199187495Y-89217495D01*
X199412051Y-88881423D01*
X199471000Y-88585065D01*
X199471000Y-87654936D01*
X199412051Y-87358577D01*
X199187495Y-87022505D01*
X198851423Y-86797949D01*
X198455000Y-86719096D01*
X198058578Y-86797949D01*
X197722506Y-87022505D01*
X197497950Y-87358577D01*
X197439000Y-87654935D01*
X196931000Y-87654935D01*
X196872051Y-87358577D01*
X196647495Y-87022505D01*
X196421000Y-86871166D01*
X196421000Y-83214833D01*
X196430913Y-83164999D01*
X196413473Y-83077324D01*
X196391641Y-82967569D01*
X196279806Y-82800194D01*
X196237555Y-82771963D01*
X194971591Y-81506000D01*
X196290409Y-81506000D01*
X196519000Y-81734592D01*
X196519000Y-81835459D01*
X196622676Y-82085756D01*
X196814244Y-82277324D01*
X197064541Y-82381000D01*
X197165409Y-82381000D01*
X200489001Y-85704593D01*
X200489000Y-86871166D01*
X200262506Y-87022505D01*
X200037950Y-87358577D01*
X199979000Y-87654935D01*
X199979000Y-88585064D01*
X200037949Y-88881422D01*
X200262505Y-89217495D01*
X200598577Y-89442051D01*
X200995000Y-89520904D01*
X201391422Y-89442051D01*
X201727495Y-89217495D01*
X201952051Y-88881423D01*
X202011000Y-88585065D01*
X202011000Y-87654936D01*
X201952051Y-87358577D01*
X201727495Y-87022505D01*
X201501000Y-86871166D01*
X201501000Y-85551592D01*
X202904058Y-86954650D01*
X202802506Y-87022505D01*
X202577950Y-87358577D01*
X202519000Y-87654935D01*
X202519000Y-88585064D01*
X202577949Y-88881422D01*
X202802505Y-89217495D01*
X203138577Y-89442051D01*
X203535000Y-89520904D01*
X203931422Y-89442051D01*
X204267495Y-89217495D01*
X204492051Y-88881423D01*
X204551000Y-88585065D01*
X204551000Y-87654936D01*
X204492051Y-87358577D01*
X204267495Y-87022505D01*
X204049545Y-86876876D01*
X204050913Y-86870000D01*
X204011641Y-86672568D01*
X203975033Y-86617781D01*
X203899806Y-86505194D01*
X203857555Y-86476963D01*
X197386591Y-80006000D01*
X198115166Y-80006000D01*
X198165000Y-80015913D01*
X198214834Y-80006000D01*
X198214835Y-80006000D01*
X198362431Y-79976641D01*
X198529806Y-79864806D01*
X198558039Y-79822552D01*
X203857555Y-74523037D01*
X203899806Y-74494806D01*
X203981573Y-74372431D01*
X204011641Y-74327432D01*
X204050913Y-74130000D01*
X204049545Y-74123124D01*
X204267495Y-73977495D01*
X204492051Y-73641423D01*
X204551000Y-73345065D01*
X204551000Y-72414936D01*
X204492051Y-72118577D01*
X204267495Y-71782505D01*
X203931423Y-71557949D01*
X203535000Y-71479096D01*
X203138578Y-71557949D01*
X202802506Y-71782505D01*
X202577950Y-72118577D01*
X202519000Y-72414935D01*
X202519000Y-73345064D01*
X202577949Y-73641422D01*
X202802505Y-73977495D01*
X202904058Y-74045350D01*
X197955409Y-78994000D01*
X197221591Y-78994000D01*
X201317558Y-74898035D01*
X201359806Y-74869806D01*
X201404733Y-74802568D01*
X201471641Y-74702431D01*
X201510913Y-74505000D01*
X201501000Y-74455165D01*
X201501000Y-74128834D01*
X201727495Y-73977495D01*
X201952051Y-73641423D01*
X202011000Y-73345065D01*
X202011000Y-72414936D01*
X201952051Y-72118577D01*
X201727495Y-71782505D01*
X201391423Y-71557949D01*
X200995000Y-71479096D01*
X200598578Y-71557949D01*
X200262506Y-71782505D01*
X200037950Y-72118577D01*
X199979000Y-72414935D01*
X199979000Y-73345064D01*
X200037949Y-73641422D01*
X200262505Y-73977495D01*
X200489001Y-74128835D01*
X200489001Y-74295406D01*
X196540409Y-78244000D01*
X192471591Y-78244000D01*
X196072555Y-74643037D01*
X196114806Y-74614806D01*
X196226641Y-74447431D01*
X196256000Y-74299835D01*
X196256000Y-74299834D01*
X196265913Y-74250000D01*
X196258470Y-74212584D01*
X196311422Y-74202051D01*
X196647495Y-73977495D01*
X196872051Y-73641423D01*
X196931000Y-73345065D01*
X196931000Y-72414936D01*
X196931000Y-72414935D01*
X197439000Y-72414935D01*
X197439000Y-73345064D01*
X197497949Y-73641422D01*
X197722505Y-73977495D01*
X198058577Y-74202051D01*
X198455000Y-74280904D01*
X198851422Y-74202051D01*
X199187495Y-73977495D01*
X199412051Y-73641423D01*
X199471000Y-73345065D01*
X199471000Y-72414936D01*
X199412051Y-72118577D01*
X199187495Y-71782505D01*
X198851423Y-71557949D01*
X198455000Y-71479096D01*
X198058578Y-71557949D01*
X197722506Y-71782505D01*
X197497950Y-72118577D01*
X197439000Y-72414935D01*
X196931000Y-72414935D01*
X196872051Y-72118577D01*
X196647495Y-71782505D01*
X196311423Y-71557949D01*
X195915000Y-71479096D01*
X195518578Y-71557949D01*
X195182506Y-71782505D01*
X194957950Y-72118577D01*
X194899000Y-72414935D01*
X194899000Y-73345064D01*
X194957949Y-73641422D01*
X195182505Y-73977495D01*
X195244001Y-74018585D01*
X195244001Y-74040407D01*
X191790409Y-77494000D01*
X190726591Y-77494000D01*
X193697555Y-74523037D01*
X193739806Y-74494806D01*
X193851641Y-74327431D01*
X193881000Y-74179835D01*
X193890913Y-74130001D01*
X193889545Y-74123124D01*
X194107495Y-73977495D01*
X194332051Y-73641423D01*
X194391000Y-73345065D01*
X194391000Y-72414936D01*
X194332051Y-72118577D01*
X194107495Y-71782505D01*
X193771423Y-71557949D01*
X193375000Y-71479096D01*
X192978578Y-71557949D01*
X192642506Y-71782505D01*
X192417950Y-72118577D01*
X192359000Y-72414935D01*
X192359000Y-73345064D01*
X192417949Y-73641422D01*
X192642505Y-73977495D01*
X192744058Y-74045350D01*
X190045409Y-76744000D01*
X188971591Y-76744000D01*
X191157555Y-74558037D01*
X191199806Y-74529806D01*
X191304959Y-74372432D01*
X191311641Y-74362432D01*
X191350913Y-74165000D01*
X191343400Y-74127230D01*
X191567495Y-73977495D01*
X191792051Y-73641423D01*
X191851000Y-73345065D01*
X191851000Y-72414936D01*
X191792051Y-72118577D01*
X191567495Y-71782505D01*
X191231423Y-71557949D01*
X190835000Y-71479096D01*
X190438578Y-71557949D01*
X190102506Y-71782505D01*
X189877950Y-72118577D01*
X189819000Y-72414935D01*
X189819000Y-73345064D01*
X189877949Y-73641422D01*
X190102505Y-73977495D01*
X190225039Y-74059369D01*
X188290409Y-75994000D01*
X187146591Y-75994000D01*
X188617555Y-74523037D01*
X188659806Y-74494806D01*
X188771641Y-74327431D01*
X188801000Y-74179835D01*
X188810913Y-74130000D01*
X188809545Y-74123124D01*
X189027495Y-73977495D01*
X189252051Y-73641423D01*
X189311000Y-73345065D01*
X189311000Y-72414936D01*
X189252051Y-72118577D01*
X189027495Y-71782505D01*
X188691423Y-71557949D01*
X188295000Y-71479096D01*
X187898578Y-71557949D01*
X187562506Y-71782505D01*
X187337950Y-72118577D01*
X187279000Y-72414935D01*
X187279000Y-73345064D01*
X187337949Y-73641422D01*
X187562505Y-73977495D01*
X187664058Y-74045350D01*
X186465409Y-75244000D01*
X182816591Y-75244000D01*
X183537555Y-74523037D01*
X183579806Y-74494806D01*
X183661573Y-74372431D01*
X183691641Y-74327432D01*
X183730913Y-74130000D01*
X183729545Y-74123124D01*
X183947495Y-73977495D01*
X184172051Y-73641423D01*
X184231000Y-73345065D01*
X184231000Y-72414936D01*
X184231000Y-72414935D01*
X184739000Y-72414935D01*
X184739000Y-73345064D01*
X184797949Y-73641422D01*
X185022505Y-73977495D01*
X185358577Y-74202051D01*
X185755000Y-74280904D01*
X186151422Y-74202051D01*
X186487495Y-73977495D01*
X186712051Y-73641423D01*
X186771000Y-73345065D01*
X186771000Y-72414936D01*
X186712051Y-72118577D01*
X186487495Y-71782505D01*
X186151423Y-71557949D01*
X185755000Y-71479096D01*
X185358578Y-71557949D01*
X185022506Y-71782505D01*
X184797950Y-72118577D01*
X184739000Y-72414935D01*
X184231000Y-72414935D01*
X184172051Y-72118577D01*
X183947495Y-71782505D01*
X183611423Y-71557949D01*
X183215000Y-71479096D01*
X182818578Y-71557949D01*
X182482506Y-71782505D01*
X182257950Y-72118577D01*
X182199000Y-72414935D01*
X182199000Y-73345064D01*
X182257949Y-73641422D01*
X182482505Y-73977495D01*
X182584058Y-74045350D01*
X182135409Y-74494000D01*
X158471000Y-74494000D01*
X158471000Y-74128834D01*
X158697495Y-73977495D01*
X158922051Y-73641423D01*
X158981000Y-73345065D01*
X158981000Y-72414936D01*
X158981000Y-72414935D01*
X159489000Y-72414935D01*
X159489000Y-73345064D01*
X159547949Y-73641422D01*
X159772505Y-73977495D01*
X160108577Y-74202051D01*
X160505000Y-74280904D01*
X160901422Y-74202051D01*
X161237495Y-73977495D01*
X161462051Y-73641423D01*
X161521000Y-73345065D01*
X161521000Y-72414936D01*
X161521000Y-72414935D01*
X162029000Y-72414935D01*
X162029000Y-73345064D01*
X162087949Y-73641422D01*
X162312505Y-73977495D01*
X162648577Y-74202051D01*
X163045000Y-74280904D01*
X163441422Y-74202051D01*
X163777495Y-73977495D01*
X164002051Y-73641423D01*
X164061000Y-73345065D01*
X164061000Y-72414936D01*
X164061000Y-72414935D01*
X164569000Y-72414935D01*
X164569000Y-73345064D01*
X164627949Y-73641422D01*
X164852505Y-73977495D01*
X165188577Y-74202051D01*
X165585000Y-74280904D01*
X165981422Y-74202051D01*
X166317495Y-73977495D01*
X166542051Y-73641423D01*
X166601000Y-73345065D01*
X166601000Y-72414936D01*
X166601000Y-72414935D01*
X167109000Y-72414935D01*
X167109000Y-73345064D01*
X167167949Y-73641422D01*
X167392505Y-73977495D01*
X167728577Y-74202051D01*
X168125000Y-74280904D01*
X168521422Y-74202051D01*
X168857495Y-73977495D01*
X169082051Y-73641423D01*
X169141000Y-73345065D01*
X169141000Y-72414936D01*
X169141000Y-72414935D01*
X169649000Y-72414935D01*
X169649000Y-73345064D01*
X169707949Y-73641422D01*
X169932505Y-73977495D01*
X170268577Y-74202051D01*
X170665000Y-74280904D01*
X171061422Y-74202051D01*
X171397495Y-73977495D01*
X171622051Y-73641423D01*
X171681000Y-73345065D01*
X171681000Y-72414936D01*
X171681000Y-72414935D01*
X172189000Y-72414935D01*
X172189000Y-73345064D01*
X172247949Y-73641422D01*
X172472505Y-73977495D01*
X172808577Y-74202051D01*
X173205000Y-74280904D01*
X173601422Y-74202051D01*
X173937495Y-73977495D01*
X174162051Y-73641423D01*
X174221000Y-73345065D01*
X174221000Y-72414936D01*
X174221000Y-72414935D01*
X174729000Y-72414935D01*
X174729000Y-73345064D01*
X174787949Y-73641422D01*
X175012505Y-73977495D01*
X175348577Y-74202051D01*
X175745000Y-74280904D01*
X176141422Y-74202051D01*
X176477495Y-73977495D01*
X176702051Y-73641423D01*
X176761000Y-73345065D01*
X176761000Y-72414936D01*
X176761000Y-72414935D01*
X177269000Y-72414935D01*
X177269000Y-73345064D01*
X177327949Y-73641422D01*
X177552505Y-73977495D01*
X177888577Y-74202051D01*
X178285000Y-74280904D01*
X178681422Y-74202051D01*
X179017495Y-73977495D01*
X179242051Y-73641423D01*
X179301000Y-73345065D01*
X179301000Y-72414936D01*
X179242051Y-72118577D01*
X179017495Y-71782505D01*
X178681423Y-71557949D01*
X178285000Y-71479096D01*
X177888578Y-71557949D01*
X177552506Y-71782505D01*
X177327950Y-72118577D01*
X177269000Y-72414935D01*
X176761000Y-72414935D01*
X176702051Y-72118577D01*
X176477495Y-71782505D01*
X176141423Y-71557949D01*
X175745000Y-71479096D01*
X175348578Y-71557949D01*
X175012506Y-71782505D01*
X174787950Y-72118577D01*
X174729000Y-72414935D01*
X174221000Y-72414935D01*
X174162051Y-72118577D01*
X173937495Y-71782505D01*
X173601423Y-71557949D01*
X173205000Y-71479096D01*
X172808578Y-71557949D01*
X172472506Y-71782505D01*
X172247950Y-72118577D01*
X172189000Y-72414935D01*
X171681000Y-72414935D01*
X171622051Y-72118577D01*
X171397495Y-71782505D01*
X171061423Y-71557949D01*
X170665000Y-71479096D01*
X170268578Y-71557949D01*
X169932506Y-71782505D01*
X169707950Y-72118577D01*
X169649000Y-72414935D01*
X169141000Y-72414935D01*
X169082051Y-72118577D01*
X168857495Y-71782505D01*
X168521423Y-71557949D01*
X168125000Y-71479096D01*
X167728578Y-71557949D01*
X167392506Y-71782505D01*
X167167950Y-72118577D01*
X167109000Y-72414935D01*
X166601000Y-72414935D01*
X166542051Y-72118577D01*
X166317495Y-71782505D01*
X165981423Y-71557949D01*
X165585000Y-71479096D01*
X165188578Y-71557949D01*
X164852506Y-71782505D01*
X164627950Y-72118577D01*
X164569000Y-72414935D01*
X164061000Y-72414935D01*
X164002051Y-72118577D01*
X163777495Y-71782505D01*
X163441423Y-71557949D01*
X163045000Y-71479096D01*
X162648578Y-71557949D01*
X162312506Y-71782505D01*
X162087950Y-72118577D01*
X162029000Y-72414935D01*
X161521000Y-72414935D01*
X161462051Y-72118577D01*
X161237495Y-71782505D01*
X160901423Y-71557949D01*
X160505000Y-71479096D01*
X160108578Y-71557949D01*
X159772506Y-71782505D01*
X159547950Y-72118577D01*
X159489000Y-72414935D01*
X158981000Y-72414935D01*
X158922051Y-72118577D01*
X158697495Y-71782505D01*
X158361423Y-71557949D01*
X157965000Y-71479096D01*
X157568578Y-71557949D01*
X157232506Y-71782505D01*
X157007950Y-72118577D01*
X156949000Y-72414935D01*
X156949000Y-73345064D01*
X157007949Y-73641422D01*
X157232505Y-73977495D01*
X157459001Y-74128834D01*
X157459001Y-74494000D01*
X133256000Y-74494000D01*
X133256000Y-74214833D01*
X133265913Y-74164999D01*
X133254294Y-74106588D01*
X133447495Y-73977495D01*
X133672051Y-73641423D01*
X133731000Y-73345065D01*
X133731000Y-72414936D01*
X133731000Y-72414935D01*
X134239000Y-72414935D01*
X134239000Y-73345064D01*
X134297949Y-73641422D01*
X134522505Y-73977495D01*
X134858577Y-74202051D01*
X135255000Y-74280904D01*
X135651422Y-74202051D01*
X135987495Y-73977495D01*
X136212051Y-73641423D01*
X136271000Y-73345065D01*
X136271000Y-72414936D01*
X136271000Y-72414935D01*
X136779000Y-72414935D01*
X136779000Y-73345064D01*
X136837949Y-73641422D01*
X137062505Y-73977495D01*
X137398577Y-74202051D01*
X137795000Y-74280904D01*
X138191422Y-74202051D01*
X138527495Y-73977495D01*
X138752051Y-73641423D01*
X138811000Y-73345065D01*
X138811000Y-72414936D01*
X138811000Y-72414935D01*
X139319000Y-72414935D01*
X139319000Y-73345064D01*
X139377949Y-73641422D01*
X139602505Y-73977495D01*
X139938577Y-74202051D01*
X140335000Y-74280904D01*
X140731422Y-74202051D01*
X141067495Y-73977495D01*
X141292051Y-73641423D01*
X141351000Y-73345065D01*
X141351000Y-72414936D01*
X141351000Y-72414935D01*
X141859000Y-72414935D01*
X141859000Y-73345064D01*
X141917949Y-73641422D01*
X142142505Y-73977495D01*
X142478577Y-74202051D01*
X142875000Y-74280904D01*
X143271422Y-74202051D01*
X143607495Y-73977495D01*
X143832051Y-73641423D01*
X143891000Y-73345065D01*
X143891000Y-72414936D01*
X143891000Y-72414935D01*
X144399000Y-72414935D01*
X144399000Y-73345064D01*
X144457949Y-73641422D01*
X144682505Y-73977495D01*
X145018577Y-74202051D01*
X145415000Y-74280904D01*
X145811422Y-74202051D01*
X146147495Y-73977495D01*
X146372051Y-73641423D01*
X146431000Y-73345065D01*
X146431000Y-72414936D01*
X146372051Y-72118577D01*
X146147495Y-71782505D01*
X145811423Y-71557949D01*
X145415000Y-71479096D01*
X145018578Y-71557949D01*
X144682506Y-71782505D01*
X144457950Y-72118577D01*
X144399000Y-72414935D01*
X143891000Y-72414935D01*
X143832051Y-72118577D01*
X143607495Y-71782505D01*
X143271423Y-71557949D01*
X142875000Y-71479096D01*
X142478578Y-71557949D01*
X142142506Y-71782505D01*
X141917950Y-72118577D01*
X141859000Y-72414935D01*
X141351000Y-72414935D01*
X141292051Y-72118577D01*
X141067495Y-71782505D01*
X140731423Y-71557949D01*
X140335000Y-71479096D01*
X139938578Y-71557949D01*
X139602506Y-71782505D01*
X139377950Y-72118577D01*
X139319000Y-72414935D01*
X138811000Y-72414935D01*
X138752051Y-72118577D01*
X138527495Y-71782505D01*
X138191423Y-71557949D01*
X137795000Y-71479096D01*
X137398578Y-71557949D01*
X137062506Y-71782505D01*
X136837950Y-72118577D01*
X136779000Y-72414935D01*
X136271000Y-72414935D01*
X136212051Y-72118577D01*
X135987495Y-71782505D01*
X135761000Y-71631166D01*
X135761000Y-71204591D01*
X137459592Y-69506000D01*
X149139837Y-69506000D01*
X149052569Y-69523359D01*
X148885194Y-69635194D01*
X148856965Y-69677442D01*
X147632447Y-70901962D01*
X147590194Y-70930194D01*
X147478359Y-71097570D01*
X147459490Y-71192431D01*
X147439087Y-71295000D01*
X147449000Y-71344834D01*
X147449000Y-71631166D01*
X147222506Y-71782505D01*
X146997950Y-72118577D01*
X146939000Y-72414935D01*
X146939000Y-73345064D01*
X146997949Y-73641422D01*
X147222505Y-73977495D01*
X147558577Y-74202051D01*
X147955000Y-74280904D01*
X148351422Y-74202051D01*
X148687495Y-73977495D01*
X148912051Y-73641423D01*
X148971000Y-73345065D01*
X148971000Y-72414936D01*
X148971000Y-72414935D01*
X149479000Y-72414935D01*
X149479000Y-73345064D01*
X149537949Y-73641422D01*
X149762505Y-73977495D01*
X150098577Y-74202051D01*
X150495000Y-74280904D01*
X150891422Y-74202051D01*
X151227495Y-73977495D01*
X151452051Y-73641423D01*
X151511000Y-73345065D01*
X151511000Y-72414936D01*
X151511000Y-72414935D01*
X152019000Y-72414935D01*
X152019000Y-73345064D01*
X152077949Y-73641422D01*
X152302505Y-73977495D01*
X152638577Y-74202051D01*
X153035000Y-74280904D01*
X153431422Y-74202051D01*
X153767495Y-73977495D01*
X153992051Y-73641423D01*
X154051000Y-73345065D01*
X154051000Y-72414936D01*
X153992051Y-72118577D01*
X153767495Y-71782505D01*
X153431423Y-71557949D01*
X153035000Y-71479096D01*
X152638578Y-71557949D01*
X152302506Y-71782505D01*
X152077950Y-72118577D01*
X152019000Y-72414935D01*
X151511000Y-72414935D01*
X151452051Y-72118577D01*
X151227495Y-71782505D01*
X150891423Y-71557949D01*
X150495000Y-71479096D01*
X150098578Y-71557949D01*
X149762506Y-71782505D01*
X149537950Y-72118577D01*
X149479000Y-72414935D01*
X148971000Y-72414935D01*
X148912051Y-72118577D01*
X148687495Y-71782505D01*
X148461000Y-71631166D01*
X148461000Y-71504591D01*
X149459593Y-70506000D01*
X162042920Y-70506000D01*
X162114244Y-70577324D01*
X162364541Y-70681000D01*
X162635459Y-70681000D01*
X162885756Y-70577324D01*
X163077324Y-70385756D01*
X163181000Y-70135459D01*
X163181000Y-69864541D01*
X163102994Y-69676217D01*
X163114541Y-69681000D01*
X163385459Y-69681000D01*
X163635756Y-69577324D01*
X163827324Y-69385756D01*
X163931000Y-69135459D01*
X163931000Y-68864541D01*
X163827324Y-68614244D01*
X163635756Y-68422676D01*
X163385459Y-68319000D01*
X163114541Y-68319000D01*
X162864244Y-68422676D01*
X162792920Y-68494000D01*
X137299833Y-68494000D01*
X137249999Y-68484087D01*
X137200165Y-68494000D01*
X137052569Y-68523359D01*
X136885194Y-68635194D01*
X136856963Y-68677445D01*
X134932447Y-70601961D01*
X134890194Y-70630194D01*
X134778359Y-70797570D01*
X134774224Y-70818359D01*
X134739087Y-70995000D01*
X134749000Y-71044834D01*
X134749000Y-71631166D01*
X134522506Y-71782505D01*
X134297950Y-72118577D01*
X134239000Y-72414935D01*
X133731000Y-72414935D01*
X133672051Y-72118577D01*
X133447495Y-71782505D01*
X133111423Y-71557949D01*
X132715000Y-71479096D01*
X132318578Y-71557949D01*
X131982506Y-71782505D01*
X131757950Y-72118577D01*
X131699000Y-72414935D01*
X131699000Y-73345064D01*
X131757949Y-73641422D01*
X131982505Y-73977495D01*
X132200455Y-74123124D01*
X132199087Y-74130000D01*
X132229105Y-74280904D01*
X132238360Y-74327431D01*
X132244000Y-74335872D01*
X132244000Y-74494000D01*
X108209592Y-74494000D01*
X107971000Y-74255409D01*
X107971000Y-74128834D01*
X108197495Y-73977495D01*
X108422051Y-73641423D01*
X108481000Y-73345065D01*
X108481000Y-72414936D01*
X108481000Y-72414935D01*
X108989000Y-72414935D01*
X108989000Y-73345064D01*
X109047949Y-73641422D01*
X109272505Y-73977495D01*
X109608577Y-74202051D01*
X110005000Y-74280904D01*
X110401422Y-74202051D01*
X110737495Y-73977495D01*
X110962051Y-73641423D01*
X111021000Y-73345065D01*
X111021000Y-72414936D01*
X111021000Y-72414935D01*
X111529000Y-72414935D01*
X111529000Y-73345064D01*
X111587949Y-73641422D01*
X111812505Y-73977495D01*
X112148577Y-74202051D01*
X112545000Y-74280904D01*
X112941422Y-74202051D01*
X113277495Y-73977495D01*
X113502051Y-73641423D01*
X113561000Y-73345065D01*
X113561000Y-72414936D01*
X113561000Y-72414935D01*
X114069000Y-72414935D01*
X114069000Y-73345064D01*
X114127949Y-73641422D01*
X114352505Y-73977495D01*
X114688577Y-74202051D01*
X115085000Y-74280904D01*
X115481422Y-74202051D01*
X115817495Y-73977495D01*
X116042051Y-73641423D01*
X116101000Y-73345065D01*
X116101000Y-72414936D01*
X116101000Y-72414935D01*
X116609000Y-72414935D01*
X116609000Y-73345064D01*
X116667949Y-73641422D01*
X116892505Y-73977495D01*
X117228577Y-74202051D01*
X117625000Y-74280904D01*
X118021422Y-74202051D01*
X118357495Y-73977495D01*
X118582051Y-73641423D01*
X118641000Y-73345065D01*
X118641000Y-72414936D01*
X118641000Y-72414935D01*
X119149000Y-72414935D01*
X119149000Y-73345064D01*
X119207949Y-73641422D01*
X119432505Y-73977495D01*
X119768577Y-74202051D01*
X120165000Y-74280904D01*
X120561422Y-74202051D01*
X120897495Y-73977495D01*
X121122051Y-73641423D01*
X121181000Y-73345065D01*
X121181000Y-72414936D01*
X121181000Y-72414935D01*
X121689000Y-72414935D01*
X121689000Y-73345064D01*
X121747949Y-73641422D01*
X121972505Y-73977495D01*
X122308577Y-74202051D01*
X122705000Y-74280904D01*
X123101422Y-74202051D01*
X123437495Y-73977495D01*
X123662051Y-73641423D01*
X123721000Y-73345065D01*
X123721000Y-72414936D01*
X123721000Y-72414935D01*
X124229000Y-72414935D01*
X124229000Y-73345064D01*
X124287949Y-73641422D01*
X124512505Y-73977495D01*
X124848577Y-74202051D01*
X125245000Y-74280904D01*
X125641422Y-74202051D01*
X125977495Y-73977495D01*
X126202051Y-73641423D01*
X126261000Y-73345065D01*
X126261000Y-72414936D01*
X126261000Y-72414935D01*
X126769000Y-72414935D01*
X126769000Y-73345064D01*
X126827949Y-73641422D01*
X127052505Y-73977495D01*
X127388577Y-74202051D01*
X127785000Y-74280904D01*
X128181422Y-74202051D01*
X128517495Y-73977495D01*
X128742051Y-73641423D01*
X128801000Y-73345065D01*
X128801000Y-72414936D01*
X128742051Y-72118577D01*
X128517495Y-71782505D01*
X128181423Y-71557949D01*
X127785000Y-71479096D01*
X127388578Y-71557949D01*
X127052506Y-71782505D01*
X126827950Y-72118577D01*
X126769000Y-72414935D01*
X126261000Y-72414935D01*
X126202051Y-72118577D01*
X125977495Y-71782505D01*
X125641423Y-71557949D01*
X125245000Y-71479096D01*
X124848578Y-71557949D01*
X124512506Y-71782505D01*
X124287950Y-72118577D01*
X124229000Y-72414935D01*
X123721000Y-72414935D01*
X123662051Y-72118577D01*
X123437495Y-71782505D01*
X123101423Y-71557949D01*
X122705000Y-71479096D01*
X122308578Y-71557949D01*
X121972506Y-71782505D01*
X121747950Y-72118577D01*
X121689000Y-72414935D01*
X121181000Y-72414935D01*
X121122051Y-72118577D01*
X120897495Y-71782505D01*
X120561423Y-71557949D01*
X120165000Y-71479096D01*
X119768578Y-71557949D01*
X119432506Y-71782505D01*
X119207950Y-72118577D01*
X119149000Y-72414935D01*
X118641000Y-72414935D01*
X118582051Y-72118577D01*
X118357495Y-71782505D01*
X118021423Y-71557949D01*
X117625000Y-71479096D01*
X117228578Y-71557949D01*
X116892506Y-71782505D01*
X116667950Y-72118577D01*
X116609000Y-72414935D01*
X116101000Y-72414935D01*
X116042051Y-72118577D01*
X115817495Y-71782505D01*
X115481423Y-71557949D01*
X115085000Y-71479096D01*
X114688578Y-71557949D01*
X114352506Y-71782505D01*
X114127950Y-72118577D01*
X114069000Y-72414935D01*
X113561000Y-72414935D01*
X113502051Y-72118577D01*
X113277495Y-71782505D01*
X112941423Y-71557949D01*
X112545000Y-71479096D01*
X112148578Y-71557949D01*
X111812506Y-71782505D01*
X111587950Y-72118577D01*
X111529000Y-72414935D01*
X111021000Y-72414935D01*
X110962051Y-72118577D01*
X110737495Y-71782505D01*
X110401423Y-71557949D01*
X110005000Y-71479096D01*
X109608578Y-71557949D01*
X109272506Y-71782505D01*
X109047950Y-72118577D01*
X108989000Y-72414935D01*
X108481000Y-72414935D01*
X108422051Y-72118577D01*
X108197495Y-71782505D01*
X107861423Y-71557949D01*
X107465000Y-71479096D01*
X107068578Y-71557949D01*
X106732506Y-71782505D01*
X106507950Y-72118577D01*
X106449000Y-72414935D01*
X104629174Y-72414935D01*
X104687552Y-71996912D01*
X105221744Y-69261478D01*
X105826037Y-66864541D01*
X167569000Y-66864541D01*
X167569000Y-67135459D01*
X167672676Y-67385756D01*
X167864244Y-67577324D01*
X168114541Y-67681000D01*
X168385459Y-67681000D01*
X168635756Y-67577324D01*
X168707080Y-67506000D01*
X174042920Y-67506000D01*
X174114244Y-67577324D01*
X174364541Y-67681000D01*
X174635459Y-67681000D01*
X174885756Y-67577324D01*
X175077324Y-67385756D01*
X175181000Y-67135459D01*
X175181000Y-66864541D01*
X175077324Y-66614244D01*
X174885756Y-66422676D01*
X174770655Y-66375000D01*
X174885756Y-66327324D01*
X175077324Y-66135756D01*
X175181000Y-65885459D01*
X175181000Y-65614541D01*
X175077324Y-65364244D01*
X174885756Y-65172676D01*
X174635459Y-65069000D01*
X174364541Y-65069000D01*
X174114244Y-65172676D01*
X174042920Y-65244000D01*
X171207080Y-65244000D01*
X171135756Y-65172676D01*
X170885459Y-65069000D01*
X170614541Y-65069000D01*
X170364244Y-65172676D01*
X170172676Y-65364244D01*
X170069000Y-65614541D01*
X170069000Y-65885459D01*
X170172676Y-66135756D01*
X170364244Y-66327324D01*
X170614541Y-66431000D01*
X170885459Y-66431000D01*
X171135756Y-66327324D01*
X171207080Y-66256000D01*
X174042920Y-66256000D01*
X174114244Y-66327324D01*
X174229345Y-66375000D01*
X174114244Y-66422676D01*
X174042920Y-66494000D01*
X168707080Y-66494000D01*
X168635756Y-66422676D01*
X168385459Y-66319000D01*
X168114541Y-66319000D01*
X167864244Y-66422676D01*
X167672676Y-66614244D01*
X167569000Y-66864541D01*
X105826037Y-66864541D01*
X105903084Y-66558936D01*
X106677614Y-64064541D01*
X109319000Y-64064541D01*
X109319000Y-64335459D01*
X109422676Y-64585756D01*
X109614244Y-64777324D01*
X109864541Y-64881000D01*
X110135459Y-64881000D01*
X110385756Y-64777324D01*
X110577324Y-64585756D01*
X110668953Y-64364541D01*
X186319000Y-64364541D01*
X186319000Y-64635459D01*
X186422676Y-64885756D01*
X186614244Y-65077324D01*
X186729345Y-65125000D01*
X186614244Y-65172676D01*
X186422676Y-65364244D01*
X186319000Y-65614541D01*
X186319000Y-65885459D01*
X186422676Y-66135756D01*
X186614244Y-66327324D01*
X186864541Y-66431000D01*
X187135459Y-66431000D01*
X187385756Y-66327324D01*
X187457080Y-66256000D01*
X188292920Y-66256000D01*
X188364244Y-66327324D01*
X188614541Y-66431000D01*
X188885459Y-66431000D01*
X189135756Y-66327324D01*
X189327324Y-66135756D01*
X189431000Y-65885459D01*
X189431000Y-65614541D01*
X189327324Y-65364244D01*
X189135756Y-65172676D01*
X188885459Y-65069000D01*
X188614541Y-65069000D01*
X188364244Y-65172676D01*
X188292920Y-65244000D01*
X187457080Y-65244000D01*
X187385756Y-65172676D01*
X187270655Y-65125000D01*
X187385756Y-65077324D01*
X187457080Y-65006000D01*
X190292920Y-65006000D01*
X190364244Y-65077324D01*
X190614541Y-65181000D01*
X190885459Y-65181000D01*
X191135756Y-65077324D01*
X191327324Y-64885756D01*
X191431000Y-64635459D01*
X191431000Y-64364541D01*
X191327324Y-64114244D01*
X191135756Y-63922676D01*
X190885459Y-63819000D01*
X190614541Y-63819000D01*
X190364244Y-63922676D01*
X190292920Y-63994000D01*
X187457080Y-63994000D01*
X187385756Y-63922676D01*
X187135459Y-63819000D01*
X186864541Y-63819000D01*
X186614244Y-63922676D01*
X186422676Y-64114244D01*
X186319000Y-64364541D01*
X110668953Y-64364541D01*
X110681000Y-64335459D01*
X110681000Y-64234591D01*
X113159592Y-61756000D01*
X159450166Y-61756000D01*
X159500000Y-61765913D01*
X159549834Y-61756000D01*
X159549835Y-61756000D01*
X159697431Y-61726641D01*
X159864806Y-61614806D01*
X159893038Y-61572553D01*
X160209592Y-61256000D01*
X174042920Y-61256000D01*
X174114244Y-61327324D01*
X174364541Y-61431000D01*
X174635459Y-61431000D01*
X174885756Y-61327324D01*
X175077324Y-61135756D01*
X175181000Y-60885459D01*
X175181000Y-60614541D01*
X175077324Y-60364244D01*
X174885756Y-60172676D01*
X174635459Y-60069000D01*
X174364541Y-60069000D01*
X174114244Y-60172676D01*
X174042920Y-60244000D01*
X160049835Y-60244000D01*
X160000000Y-60234087D01*
X159802568Y-60273359D01*
X159747781Y-60309967D01*
X159635194Y-60385194D01*
X159606963Y-60427445D01*
X159290409Y-60744000D01*
X158221591Y-60744000D01*
X159209592Y-59756000D01*
X174042920Y-59756000D01*
X174114244Y-59827324D01*
X174364541Y-59931000D01*
X174635459Y-59931000D01*
X174885756Y-59827324D01*
X175077324Y-59635756D01*
X175181000Y-59385459D01*
X175181000Y-59114541D01*
X175077324Y-58864244D01*
X174885756Y-58672676D01*
X174770655Y-58625000D01*
X174885756Y-58577324D01*
X175077324Y-58385756D01*
X175181000Y-58135459D01*
X175181000Y-57864541D01*
X175077324Y-57614244D01*
X174885756Y-57422676D01*
X174770655Y-57375000D01*
X174885756Y-57327324D01*
X175077324Y-57135756D01*
X175181000Y-56885459D01*
X175181000Y-56614541D01*
X175077324Y-56364244D01*
X174885756Y-56172676D01*
X174770655Y-56125000D01*
X174885756Y-56077324D01*
X175077324Y-55885756D01*
X175181000Y-55635459D01*
X175181000Y-55364541D01*
X175077324Y-55114244D01*
X174885756Y-54922676D01*
X174635459Y-54819000D01*
X174364541Y-54819000D01*
X174114244Y-54922676D01*
X174042920Y-54994000D01*
X162957080Y-54994000D01*
X162885756Y-54922676D01*
X162635459Y-54819000D01*
X162364541Y-54819000D01*
X162114244Y-54922676D01*
X161922676Y-55114244D01*
X161819000Y-55364541D01*
X161819000Y-55635459D01*
X161922676Y-55885756D01*
X162114244Y-56077324D01*
X162229345Y-56125000D01*
X162114244Y-56172676D01*
X161922676Y-56364244D01*
X161819000Y-56614541D01*
X161819000Y-56885459D01*
X161922676Y-57135756D01*
X162114244Y-57327324D01*
X162364541Y-57431000D01*
X162635459Y-57431000D01*
X162885756Y-57327324D01*
X162957080Y-57256000D01*
X174042920Y-57256000D01*
X174114244Y-57327324D01*
X174229345Y-57375000D01*
X174114244Y-57422676D01*
X174042920Y-57494000D01*
X163707080Y-57494000D01*
X163635756Y-57422676D01*
X163385459Y-57319000D01*
X163114541Y-57319000D01*
X162864244Y-57422676D01*
X162672676Y-57614244D01*
X162569000Y-57864541D01*
X162569000Y-58135459D01*
X162672676Y-58385756D01*
X162864244Y-58577324D01*
X163114541Y-58681000D01*
X163385459Y-58681000D01*
X163635756Y-58577324D01*
X163707080Y-58506000D01*
X174042920Y-58506000D01*
X174114244Y-58577324D01*
X174229345Y-58625000D01*
X174114244Y-58672676D01*
X174042920Y-58744000D01*
X159049834Y-58744000D01*
X159000000Y-58734087D01*
X158950166Y-58744000D01*
X158950165Y-58744000D01*
X158802569Y-58773359D01*
X158635194Y-58885194D01*
X158606963Y-58927445D01*
X157540409Y-59994000D01*
X123207080Y-59994000D01*
X123135756Y-59922676D01*
X122885459Y-59819000D01*
X122614541Y-59819000D01*
X122364244Y-59922676D01*
X122172676Y-60114244D01*
X122069000Y-60364541D01*
X122069000Y-60635459D01*
X122113959Y-60744000D01*
X112999833Y-60744000D01*
X112949999Y-60734087D01*
X112900165Y-60744000D01*
X112752569Y-60773359D01*
X112585194Y-60885194D01*
X112556963Y-60927445D01*
X109965409Y-63519000D01*
X109864541Y-63519000D01*
X109614244Y-63622676D01*
X109422676Y-63814244D01*
X109319000Y-64064541D01*
X106677614Y-64064541D01*
X106729577Y-63897194D01*
X107698804Y-61284042D01*
X108776989Y-58798456D01*
X109151795Y-58070890D01*
X150126433Y-58070890D01*
X150156003Y-58219549D01*
X150240211Y-58345576D01*
X151654424Y-59759789D01*
X151780451Y-59843997D01*
X151929110Y-59873567D01*
X152077769Y-59843997D01*
X152203796Y-59759789D01*
X153318936Y-58644649D01*
X154969000Y-58644649D01*
X154969000Y-58955351D01*
X155087900Y-59242401D01*
X155307599Y-59462100D01*
X155594649Y-59581000D01*
X155905351Y-59581000D01*
X156192401Y-59462100D01*
X156412100Y-59242401D01*
X156531000Y-58955351D01*
X156531000Y-58934591D01*
X156579251Y-58886340D01*
X156851660Y-59158749D01*
X156977687Y-59242957D01*
X157126346Y-59272527D01*
X157275005Y-59242957D01*
X157401032Y-59158749D01*
X158178850Y-58380931D01*
X158263058Y-58254904D01*
X158265050Y-58244888D01*
X158332114Y-58217109D01*
X158690996Y-57858227D01*
X158690996Y-57723523D01*
X157851130Y-56883657D01*
X157836988Y-56897799D01*
X157804461Y-56865272D01*
X157818603Y-56851130D01*
X156978737Y-56011264D01*
X156844033Y-56011264D01*
X156485151Y-56370146D01*
X156457372Y-56437211D01*
X156447357Y-56439203D01*
X156321330Y-56523411D01*
X155543512Y-57301229D01*
X155459304Y-57427256D01*
X155429734Y-57575915D01*
X155459304Y-57724574D01*
X155543512Y-57850601D01*
X155711911Y-58019000D01*
X155594649Y-58019000D01*
X155307599Y-58137900D01*
X155087900Y-58357599D01*
X154969000Y-58644649D01*
X153318936Y-58644649D01*
X153547299Y-58416286D01*
X153631507Y-58290259D01*
X153661077Y-58141600D01*
X153631507Y-57992941D01*
X153547299Y-57866914D01*
X152133086Y-56452701D01*
X152007059Y-56368493D01*
X151858400Y-56338923D01*
X151709741Y-56368493D01*
X151583714Y-56452701D01*
X150240211Y-57796204D01*
X150156003Y-57922231D01*
X150126433Y-58070890D01*
X109151795Y-58070890D01*
X110376705Y-55693125D01*
X153400497Y-55693125D01*
X153400497Y-55993881D01*
X153515591Y-56271743D01*
X153728257Y-56484409D01*
X154006119Y-56599503D01*
X154306875Y-56599503D01*
X154584737Y-56484409D01*
X154797403Y-56271743D01*
X154912497Y-55993881D01*
X154912497Y-55844033D01*
X157011264Y-55844033D01*
X157011264Y-55978737D01*
X157851130Y-56818603D01*
X157865272Y-56804461D01*
X157897799Y-56836988D01*
X157883657Y-56851130D01*
X158723523Y-57690996D01*
X158858227Y-57690996D01*
X159217109Y-57332114D01*
X159244888Y-57265050D01*
X159254904Y-57263058D01*
X159380931Y-57178850D01*
X160158749Y-56401032D01*
X160242957Y-56275005D01*
X160272527Y-56126346D01*
X160242957Y-55977687D01*
X160158749Y-55851660D01*
X159886340Y-55579251D01*
X159934592Y-55531000D01*
X160155351Y-55531000D01*
X160442401Y-55412100D01*
X160662100Y-55192401D01*
X160781000Y-54905351D01*
X160781000Y-54594649D01*
X160662100Y-54307599D01*
X160619042Y-54264541D01*
X186319000Y-54264541D01*
X186319000Y-54535459D01*
X186422676Y-54785756D01*
X186614244Y-54977324D01*
X186668989Y-55000000D01*
X186614244Y-55022676D01*
X186422676Y-55214244D01*
X186319000Y-55464541D01*
X186319000Y-55735459D01*
X186422676Y-55985756D01*
X186614244Y-56177324D01*
X186668989Y-56200000D01*
X186614244Y-56222676D01*
X186422676Y-56414244D01*
X186319000Y-56664541D01*
X186319000Y-56935459D01*
X186422676Y-57185756D01*
X186614244Y-57377324D01*
X186864541Y-57481000D01*
X187135459Y-57481000D01*
X187385756Y-57377324D01*
X187457080Y-57306000D01*
X194142920Y-57306000D01*
X194214244Y-57377324D01*
X194464541Y-57481000D01*
X194735459Y-57481000D01*
X194985756Y-57377324D01*
X195177324Y-57185756D01*
X195281000Y-56935459D01*
X195281000Y-56664541D01*
X195177324Y-56414244D01*
X194985756Y-56222676D01*
X194735459Y-56119000D01*
X194464541Y-56119000D01*
X194214244Y-56222676D01*
X194142920Y-56294000D01*
X187457080Y-56294000D01*
X187385756Y-56222676D01*
X187331011Y-56200000D01*
X187385756Y-56177324D01*
X187457080Y-56106000D01*
X196742920Y-56106000D01*
X196814244Y-56177324D01*
X197064541Y-56281000D01*
X197335459Y-56281000D01*
X197585756Y-56177324D01*
X197777324Y-55985756D01*
X197820572Y-55881345D01*
X197876641Y-55797431D01*
X197915913Y-55600000D01*
X197876641Y-55402569D01*
X197820572Y-55318655D01*
X197777324Y-55214244D01*
X197585756Y-55022676D01*
X197335459Y-54919000D01*
X197064541Y-54919000D01*
X196814244Y-55022676D01*
X196742920Y-55094000D01*
X187457080Y-55094000D01*
X187385756Y-55022676D01*
X187331011Y-55000000D01*
X187385756Y-54977324D01*
X187457080Y-54906000D01*
X191542920Y-54906000D01*
X191614244Y-54977324D01*
X191864541Y-55081000D01*
X192135459Y-55081000D01*
X192385756Y-54977324D01*
X192577324Y-54785756D01*
X192681000Y-54535459D01*
X192681000Y-54264541D01*
X192577324Y-54014244D01*
X192385756Y-53822676D01*
X192135459Y-53719000D01*
X191864541Y-53719000D01*
X191614244Y-53822676D01*
X191542920Y-53894000D01*
X187457080Y-53894000D01*
X187385756Y-53822676D01*
X187135459Y-53719000D01*
X186864541Y-53719000D01*
X186614244Y-53822676D01*
X186422676Y-54014244D01*
X186319000Y-54264541D01*
X160619042Y-54264541D01*
X160442401Y-54087900D01*
X160155351Y-53969000D01*
X159844649Y-53969000D01*
X159557599Y-54087900D01*
X159337900Y-54307599D01*
X159219000Y-54594649D01*
X159219000Y-54815408D01*
X159170749Y-54863660D01*
X158850601Y-54543512D01*
X158724574Y-54459304D01*
X158575915Y-54429734D01*
X158427256Y-54459304D01*
X158301229Y-54543512D01*
X157523411Y-55321330D01*
X157439203Y-55447357D01*
X157437211Y-55457372D01*
X157370146Y-55485151D01*
X157011264Y-55844033D01*
X154912497Y-55844033D01*
X154912497Y-55693125D01*
X154797403Y-55415263D01*
X154584737Y-55202597D01*
X154306875Y-55087503D01*
X154006119Y-55087503D01*
X153728257Y-55202597D01*
X153515591Y-55415263D01*
X153400497Y-55693125D01*
X110376705Y-55693125D01*
X110521009Y-55413006D01*
X111432489Y-53811767D01*
X112940242Y-51467701D01*
X114112978Y-49844649D01*
X149969000Y-49844649D01*
X149969000Y-50155351D01*
X150087900Y-50442401D01*
X150307599Y-50662100D01*
X150594649Y-50781000D01*
X150905351Y-50781000D01*
X151014007Y-50735993D01*
X150969000Y-50844649D01*
X150969000Y-51155351D01*
X151014007Y-51264007D01*
X150905351Y-51219000D01*
X150594649Y-51219000D01*
X150307599Y-51337900D01*
X150087900Y-51557599D01*
X149969000Y-51844649D01*
X149969000Y-52155351D01*
X150087900Y-52442401D01*
X150307599Y-52662100D01*
X150594649Y-52781000D01*
X150745903Y-52781000D01*
X150727473Y-52873654D01*
X150757043Y-53022313D01*
X150841251Y-53148340D01*
X152149399Y-54456488D01*
X152275426Y-54540696D01*
X152424085Y-54570266D01*
X152572744Y-54540696D01*
X152698771Y-54456488D01*
X153476589Y-53678670D01*
X153560797Y-53552643D01*
X153561112Y-53551062D01*
X153562694Y-53550747D01*
X153688721Y-53466539D01*
X154178978Y-52976282D01*
X155937503Y-52976282D01*
X155937503Y-53336712D01*
X156075433Y-53669705D01*
X156330295Y-53924567D01*
X156663288Y-54062497D01*
X157023718Y-54062497D01*
X157356711Y-53924567D01*
X157611573Y-53669705D01*
X157749503Y-53336712D01*
X157749503Y-52976282D01*
X157611573Y-52643289D01*
X157356711Y-52388427D01*
X157023718Y-52250497D01*
X156663288Y-52250497D01*
X156330295Y-52388427D01*
X156075433Y-52643289D01*
X155937503Y-52976282D01*
X154178978Y-52976282D01*
X154466539Y-52688721D01*
X154550747Y-52562694D01*
X154551062Y-52561112D01*
X154552643Y-52560797D01*
X154678670Y-52476589D01*
X155456488Y-51698771D01*
X155540696Y-51572744D01*
X155570266Y-51424085D01*
X155540696Y-51275426D01*
X155456488Y-51149399D01*
X155165489Y-50858400D01*
X157338923Y-50858400D01*
X157368493Y-51007059D01*
X157452701Y-51133086D01*
X158866914Y-52547299D01*
X158992941Y-52631507D01*
X159141600Y-52661077D01*
X159290259Y-52631507D01*
X159416286Y-52547299D01*
X160349044Y-51614541D01*
X177319000Y-51614541D01*
X177319000Y-51885459D01*
X177422676Y-52135756D01*
X177614244Y-52327324D01*
X177729345Y-52375000D01*
X177614244Y-52422676D01*
X177422676Y-52614244D01*
X177319000Y-52864541D01*
X177319000Y-53135459D01*
X177422676Y-53385756D01*
X177614244Y-53577324D01*
X177864541Y-53681000D01*
X178135459Y-53681000D01*
X178385756Y-53577324D01*
X178457080Y-53506000D01*
X187542920Y-53506000D01*
X187614244Y-53577324D01*
X187864541Y-53681000D01*
X188135459Y-53681000D01*
X188385756Y-53577324D01*
X188577324Y-53385756D01*
X188681000Y-53135459D01*
X188681000Y-52864541D01*
X188577324Y-52614244D01*
X188385756Y-52422676D01*
X188135459Y-52319000D01*
X187864541Y-52319000D01*
X187614244Y-52422676D01*
X187542920Y-52494000D01*
X178457080Y-52494000D01*
X178385756Y-52422676D01*
X178270655Y-52375000D01*
X178385756Y-52327324D01*
X178457080Y-52256000D01*
X194142920Y-52256000D01*
X194214244Y-52327324D01*
X194464541Y-52431000D01*
X194735459Y-52431000D01*
X194985756Y-52327324D01*
X195177324Y-52135756D01*
X195281000Y-51885459D01*
X195281000Y-51614541D01*
X195177324Y-51364244D01*
X194985756Y-51172676D01*
X194735459Y-51069000D01*
X194464541Y-51069000D01*
X194214244Y-51172676D01*
X194142920Y-51244000D01*
X178457080Y-51244000D01*
X178385756Y-51172676D01*
X178135459Y-51069000D01*
X177864541Y-51069000D01*
X177614244Y-51172676D01*
X177422676Y-51364244D01*
X177319000Y-51614541D01*
X160349044Y-51614541D01*
X160759789Y-51203796D01*
X160843997Y-51077769D01*
X160873567Y-50929110D01*
X160843997Y-50780451D01*
X160759789Y-50654424D01*
X159345576Y-49240211D01*
X159219549Y-49156003D01*
X159070890Y-49126433D01*
X158922231Y-49156003D01*
X158796204Y-49240211D01*
X157452701Y-50583714D01*
X157368493Y-50709741D01*
X157338923Y-50858400D01*
X155165489Y-50858400D01*
X154148340Y-49841251D01*
X154022313Y-49757043D01*
X153873654Y-49727473D01*
X153724995Y-49757043D01*
X153598968Y-49841251D01*
X153567855Y-49872364D01*
X153372937Y-49677447D01*
X153344705Y-49635194D01*
X153177330Y-49523359D01*
X153029734Y-49494000D01*
X153029733Y-49494000D01*
X152979899Y-49484087D01*
X152930065Y-49494000D01*
X151348501Y-49494000D01*
X151192401Y-49337900D01*
X150905351Y-49219000D01*
X150594649Y-49219000D01*
X150307599Y-49337900D01*
X150087900Y-49557599D01*
X149969000Y-49844649D01*
X114112978Y-49844649D01*
X114572553Y-49208604D01*
X116324645Y-47041086D01*
X117638781Y-45584149D01*
X121975114Y-41392361D01*
X122246665Y-41149992D01*
X124151075Y-39627000D01*
X186855240Y-39627000D01*
X188890489Y-41266308D01*
M02*
