G04 #@! TF.GenerationSoftware,KiCad,Pcbnew,5.0.0-rc2-dev-unknown+dfsg1+20180318-3*
G04 #@! TF.CreationDate,2018-05-10T20:41:14-07:00*
G04 #@! TF.ProjectId,DC26Badge,4443323642616467652E6B696361645F,rev?*
G04 #@! TF.SameCoordinates,Original*
G04 #@! TF.FileFunction,Paste,Top*
G04 #@! TF.FilePolarity,Positive*
%FSLAX46Y46*%
G04 Gerber Fmt 4.6, Leading zero omitted, Abs format (unit mm)*
G04 Created by KiCad (PCBNEW 5.0.0-rc2-dev-unknown+dfsg1+20180318-3) date Thu May 10 20:41:14 2018*
%MOMM*%
%LPD*%
G01*
G04 APERTURE LIST*
%ADD10R,0.700000X2.000000*%
%ADD11R,1.800000X1.100000*%
%ADD12R,0.670000X1.000000*%
%ADD13R,1.000000X0.670000*%
%ADD14R,3.500000X1.000000*%
%ADD15R,3.400000X1.500000*%
%ADD16R,2.400000X0.740000*%
%ADD17C,1.100000*%
%ADD18C,0.100000*%
%ADD19C,1.900000*%
G04 APERTURE END LIST*
D10*
X101150000Y-26000000D03*
X101150000Y-40500000D03*
X102250000Y-26000000D03*
X102250000Y-40500000D03*
X103350000Y-26000000D03*
X103350000Y-40500000D03*
X104450000Y-26000000D03*
X104450000Y-40500000D03*
X105550000Y-26000000D03*
X105550000Y-40500000D03*
X106650000Y-26000000D03*
X106650000Y-40500000D03*
X107750000Y-26000000D03*
X107750000Y-40500000D03*
X108850000Y-26000000D03*
X108850000Y-40500000D03*
D11*
X131000000Y-34150000D03*
X124800000Y-34150000D03*
X131000000Y-30450000D03*
X124800000Y-30450000D03*
D12*
X154000000Y-33800000D03*
X155750000Y-33800000D03*
X155750000Y-31600000D03*
X154000000Y-31600000D03*
X113650000Y-26000000D03*
X111900000Y-26000000D03*
D13*
X133100000Y-33250000D03*
X133100000Y-31500000D03*
D14*
X179750000Y-34900000D03*
X179750000Y-32900000D03*
D15*
X185500000Y-37250000D03*
X185500000Y-30550000D03*
D16*
X114750000Y-29360000D03*
X118650000Y-29360000D03*
X114750000Y-30630000D03*
X118650000Y-30630000D03*
X114750000Y-31900000D03*
X118650000Y-31900000D03*
X114750000Y-33170000D03*
X118650000Y-33170000D03*
X114750000Y-34440000D03*
X118650000Y-34440000D03*
D11*
X161000000Y-36500000D03*
X164000000Y-36500000D03*
X161000000Y-35100000D03*
X164000000Y-35100000D03*
D17*
X143561181Y-29258920D03*
D18*
G36*
X142518198Y-29524085D02*
X143826346Y-28215937D01*
X144604164Y-28993755D01*
X143296016Y-30301903D01*
X142518198Y-29524085D01*
X142518198Y-29524085D01*
G37*
D17*
X138858920Y-33961181D03*
D18*
G36*
X137815937Y-34226346D02*
X139124085Y-32918198D01*
X139901903Y-33696016D01*
X138593755Y-35004164D01*
X137815937Y-34226346D01*
X137815937Y-34226346D01*
G37*
D17*
X144551130Y-30248870D03*
D18*
G36*
X143508147Y-30514035D02*
X144816295Y-29205887D01*
X145594113Y-29983705D01*
X144285965Y-31291853D01*
X143508147Y-30514035D01*
X143508147Y-30514035D01*
G37*
D17*
X139848870Y-34951130D03*
D18*
G36*
X138805887Y-35216295D02*
X140114035Y-33908147D01*
X140891853Y-34685965D01*
X139583705Y-35994113D01*
X138805887Y-35216295D01*
X138805887Y-35216295D01*
G37*
D17*
X145541080Y-31238819D03*
D18*
G36*
X144498097Y-31503984D02*
X145806245Y-30195836D01*
X146584063Y-30973654D01*
X145275915Y-32281802D01*
X144498097Y-31503984D01*
X144498097Y-31503984D01*
G37*
D17*
X140838819Y-35941080D03*
D18*
G36*
X139795836Y-36206245D02*
X141103984Y-34898097D01*
X141881802Y-35675915D01*
X140573654Y-36984063D01*
X139795836Y-36206245D01*
X139795836Y-36206245D01*
G37*
D19*
X145806245Y-36206245D03*
D18*
G36*
X144427387Y-36241600D02*
X145841600Y-34827387D01*
X147185103Y-36170890D01*
X145770890Y-37585103D01*
X144427387Y-36241600D01*
X144427387Y-36241600D01*
G37*
D19*
X138593755Y-28993755D03*
D18*
G36*
X137214897Y-29029110D02*
X138629110Y-27614897D01*
X139972613Y-28958400D01*
X138558400Y-30372613D01*
X137214897Y-29029110D01*
X137214897Y-29029110D01*
G37*
D12*
X125950000Y-24700000D03*
X127700000Y-24700000D03*
X124000000Y-24700000D03*
X122250000Y-24700000D03*
D13*
X121800000Y-33100000D03*
X121800000Y-31350000D03*
M02*
