G04 #@! TF.GenerationSoftware,KiCad,Pcbnew,5.0.0-rc2-dev-unknown+dfsg1+20180318-3*
G04 #@! TF.CreationDate,2018-05-24T18:13:09-07:00*
G04 #@! TF.ProjectId,DC26Badge,4443323642616467652E6B696361645F,rev?*
G04 #@! TF.SameCoordinates,Original*
G04 #@! TF.FileFunction,Soldermask,Bot*
G04 #@! TF.FilePolarity,Negative*
%FSLAX46Y46*%
G04 Gerber Fmt 4.6, Leading zero omitted, Abs format (unit mm)*
G04 Created by KiCad (PCBNEW 5.0.0-rc2-dev-unknown+dfsg1+20180318-3) date Thu May 24 18:13:09 2018*
%MOMM*%
%LPD*%
G01*
G04 APERTURE LIST*
%ADD10C,3.600000*%
%ADD11C,2.381200*%
%ADD12O,1.670000X2.400000*%
%ADD13C,1.500000*%
%ADD14C,0.100000*%
%ADD15C,2.300000*%
%ADD16C,1.150000*%
%ADD17C,1.450000*%
%ADD18C,1.300000*%
G04 APERTURE END LIST*
D10*
X155500000Y-31500000D03*
D11*
X131103300Y-95916200D03*
D12*
X183215000Y-88120000D03*
X183215000Y-72880000D03*
X185755000Y-88120000D03*
X185755000Y-72880000D03*
X188295000Y-88120000D03*
X188295000Y-72880000D03*
X190835000Y-88120000D03*
X190835000Y-72880000D03*
X193375000Y-88120000D03*
X193375000Y-72880000D03*
X195915000Y-88120000D03*
X195915000Y-72880000D03*
X198455000Y-88120000D03*
X198455000Y-72880000D03*
X200995000Y-88120000D03*
X200995000Y-72880000D03*
X203535000Y-88120000D03*
X203535000Y-72880000D03*
X178285000Y-72880000D03*
X178285000Y-88120000D03*
X175745000Y-72880000D03*
X175745000Y-88120000D03*
X173205000Y-72880000D03*
X173205000Y-88120000D03*
X170665000Y-72880000D03*
X170665000Y-88120000D03*
X168125000Y-72880000D03*
X168125000Y-88120000D03*
X165585000Y-72880000D03*
X165585000Y-88120000D03*
X163045000Y-72880000D03*
X163045000Y-88120000D03*
X160505000Y-72880000D03*
X160505000Y-88120000D03*
X157965000Y-72880000D03*
X157965000Y-88120000D03*
X153035000Y-72880000D03*
X153035000Y-88120000D03*
X150495000Y-72880000D03*
X150495000Y-88120000D03*
X147955000Y-72880000D03*
X147955000Y-88120000D03*
X145415000Y-72880000D03*
X145415000Y-88120000D03*
X142875000Y-72880000D03*
X142875000Y-88120000D03*
X140335000Y-72880000D03*
X140335000Y-88120000D03*
X137795000Y-72880000D03*
X137795000Y-88120000D03*
X135255000Y-72880000D03*
X135255000Y-88120000D03*
X132715000Y-72880000D03*
X132715000Y-88120000D03*
X107465000Y-88120000D03*
X107465000Y-72880000D03*
X110005000Y-88120000D03*
X110005000Y-72880000D03*
X112545000Y-88120000D03*
X112545000Y-72880000D03*
X115085000Y-88120000D03*
X115085000Y-72880000D03*
X117625000Y-88120000D03*
X117625000Y-72880000D03*
X120165000Y-88120000D03*
X120165000Y-72880000D03*
X122705000Y-88120000D03*
X122705000Y-72880000D03*
X125245000Y-88120000D03*
X125245000Y-72880000D03*
X127785000Y-88120000D03*
X127785000Y-72880000D03*
D13*
X156861181Y-57841080D03*
D14*
G36*
X157126346Y-59166905D02*
X155535356Y-57575915D01*
X156596016Y-56515255D01*
X158187006Y-58106245D01*
X157126346Y-59166905D01*
X157126346Y-59166905D01*
G37*
D13*
X152158920Y-53138819D03*
D14*
G36*
X152424085Y-54464644D02*
X150833095Y-52873654D01*
X151893755Y-51812994D01*
X153484745Y-53403984D01*
X152424085Y-54464644D01*
X152424085Y-54464644D01*
G37*
D13*
X157851130Y-56851130D03*
D14*
G36*
X158116295Y-58176955D02*
X156525305Y-56585965D01*
X157585965Y-55525305D01*
X159176955Y-57116295D01*
X158116295Y-58176955D01*
X158116295Y-58176955D01*
G37*
D13*
X153148870Y-52148870D03*
D14*
G36*
X153414035Y-53474695D02*
X151823045Y-51883705D01*
X152883705Y-50823045D01*
X154474695Y-52414035D01*
X153414035Y-53474695D01*
X153414035Y-53474695D01*
G37*
D13*
X158841080Y-55861181D03*
D14*
G36*
X159106245Y-57187006D02*
X157515255Y-55596016D01*
X158575915Y-54535356D01*
X160166905Y-56126346D01*
X159106245Y-57187006D01*
X159106245Y-57187006D01*
G37*
D13*
X154138819Y-51158920D03*
D14*
G36*
X154403984Y-52484745D02*
X152812994Y-50893755D01*
X153873654Y-49833095D01*
X155464644Y-51424085D01*
X154403984Y-52484745D01*
X154403984Y-52484745D01*
G37*
D15*
X159106245Y-50893755D03*
D14*
G36*
X159141600Y-52555456D02*
X157444544Y-50858400D01*
X159070890Y-49232054D01*
X160767946Y-50929110D01*
X159141600Y-52555456D01*
X159141600Y-52555456D01*
G37*
D15*
X151893755Y-58106245D03*
D14*
G36*
X151929110Y-59767946D02*
X150232054Y-58070890D01*
X151858400Y-56444544D01*
X153555456Y-58141600D01*
X151929110Y-59767946D01*
X151929110Y-59767946D01*
G37*
D16*
X154156497Y-55843503D03*
D17*
X156843503Y-53156497D03*
D18*
X193500000Y-103900000D03*
X193500000Y-97100000D03*
M02*
