G04 #@! TF.GenerationSoftware,KiCad,Pcbnew,5.0.0-rc2-dev-unknown+dfsg1+20180318-3*
G04 #@! TF.CreationDate,2018-05-24T18:13:09-07:00*
G04 #@! TF.ProjectId,DC26Badge,4443323642616467652E6B696361645F,rev?*
G04 #@! TF.SameCoordinates,Original*
G04 #@! TF.FileFunction,Legend,Top*
G04 #@! TF.FilePolarity,Positive*
%FSLAX46Y46*%
G04 Gerber Fmt 4.6, Leading zero omitted, Abs format (unit mm)*
G04 Created by KiCad (PCBNEW 5.0.0-rc2-dev-unknown+dfsg1+20180318-3) date Thu May 24 18:13:09 2018*
%MOMM*%
%LPD*%
G01*
G04 APERTURE LIST*
%ADD10C,0.200000*%
%ADD11C,0.120000*%
%ADD12C,0.300000*%
%ADD13C,0.150000*%
%ADD14C,0.010000*%
%ADD15R,1.700000X1.160000*%
%ADD16R,2.800000X1.140000*%
%ADD17C,2.400000*%
%ADD18C,3.600000*%
%ADD19R,6.750000X5.480000*%
%ADD20C,2.381200*%
%ADD21R,1.400000X1.070000*%
%ADD22R,1.070000X1.400000*%
%ADD23O,1.670000X2.400000*%
%ADD24R,1.200000X2.300000*%
%ADD25C,1.150000*%
%ADD26C,1.450000*%
%ADD27R,2.900000X1.600000*%
%ADD28C,1.300000*%
%ADD29R,2.400000X1.100000*%
G04 APERTURE END LIST*
D10*
X135600000Y-54600000D02*
X135600000Y-57600000D01*
D11*
X155240000Y-39912476D02*
X155201904Y-39988666D01*
X155201904Y-40102952D01*
X155240000Y-40217238D01*
X155316190Y-40293428D01*
X155392380Y-40331523D01*
X155544761Y-40369619D01*
X155659047Y-40369619D01*
X155811428Y-40331523D01*
X155887619Y-40293428D01*
X155963809Y-40217238D01*
X156001904Y-40102952D01*
X156001904Y-40026761D01*
X155963809Y-39912476D01*
X155925714Y-39874380D01*
X155659047Y-39874380D01*
X155659047Y-40026761D01*
X156001904Y-39531523D02*
X155201904Y-39531523D01*
X156001904Y-39074380D01*
X155201904Y-39074380D01*
X156001904Y-38693428D02*
X155201904Y-38693428D01*
X155201904Y-38502952D01*
X155240000Y-38388666D01*
X155316190Y-38312476D01*
X155392380Y-38274380D01*
X155544761Y-38236285D01*
X155659047Y-38236285D01*
X155811428Y-38274380D01*
X155887619Y-38312476D01*
X155963809Y-38388666D01*
X156001904Y-38502952D01*
X156001904Y-38693428D01*
X158603809Y-40369619D02*
X158641904Y-40255333D01*
X158641904Y-40064857D01*
X158603809Y-39988666D01*
X158565714Y-39950571D01*
X158489523Y-39912476D01*
X158413333Y-39912476D01*
X158337142Y-39950571D01*
X158299047Y-39988666D01*
X158260952Y-40064857D01*
X158222857Y-40217238D01*
X158184761Y-40293428D01*
X158146666Y-40331523D01*
X158070476Y-40369619D01*
X157994285Y-40369619D01*
X157918095Y-40331523D01*
X157880000Y-40293428D01*
X157841904Y-40217238D01*
X157841904Y-40026761D01*
X157880000Y-39912476D01*
X157841904Y-39645809D02*
X158641904Y-39455333D01*
X158070476Y-39302952D01*
X158641904Y-39150571D01*
X157841904Y-38960095D01*
X158641904Y-38655333D02*
X157841904Y-38655333D01*
X157841904Y-38464857D01*
X157880000Y-38350571D01*
X157956190Y-38274380D01*
X158032380Y-38236285D01*
X158184761Y-38198190D01*
X158299047Y-38198190D01*
X158451428Y-38236285D01*
X158527619Y-38274380D01*
X158603809Y-38350571D01*
X158641904Y-38464857D01*
X158641904Y-38655333D01*
X158565714Y-37398190D02*
X158603809Y-37436285D01*
X158641904Y-37550571D01*
X158641904Y-37626761D01*
X158603809Y-37741047D01*
X158527619Y-37817238D01*
X158451428Y-37855333D01*
X158299047Y-37893428D01*
X158184761Y-37893428D01*
X158032380Y-37855333D01*
X157956190Y-37817238D01*
X157880000Y-37741047D01*
X157841904Y-37626761D01*
X157841904Y-37550571D01*
X157880000Y-37436285D01*
X157918095Y-37398190D01*
X158641904Y-36674380D02*
X158641904Y-37055333D01*
X157841904Y-37055333D01*
X158641904Y-36407714D02*
X157841904Y-36407714D01*
X158641904Y-35950571D02*
X158184761Y-36293428D01*
X157841904Y-35950571D02*
X158299047Y-36407714D01*
X161243809Y-40369619D02*
X161281904Y-40255333D01*
X161281904Y-40064857D01*
X161243809Y-39988666D01*
X161205714Y-39950571D01*
X161129523Y-39912476D01*
X161053333Y-39912476D01*
X160977142Y-39950571D01*
X160939047Y-39988666D01*
X160900952Y-40064857D01*
X160862857Y-40217238D01*
X160824761Y-40293428D01*
X160786666Y-40331523D01*
X160710476Y-40369619D01*
X160634285Y-40369619D01*
X160558095Y-40331523D01*
X160520000Y-40293428D01*
X160481904Y-40217238D01*
X160481904Y-40026761D01*
X160520000Y-39912476D01*
X160481904Y-39645809D02*
X161281904Y-39455333D01*
X160710476Y-39302952D01*
X161281904Y-39150571D01*
X160481904Y-38960095D01*
X161281904Y-38655333D02*
X160481904Y-38655333D01*
X160481904Y-38464857D01*
X160520000Y-38350571D01*
X160596190Y-38274380D01*
X160672380Y-38236285D01*
X160824761Y-38198190D01*
X160939047Y-38198190D01*
X161091428Y-38236285D01*
X161167619Y-38274380D01*
X161243809Y-38350571D01*
X161281904Y-38464857D01*
X161281904Y-38655333D01*
X161281904Y-37855333D02*
X160481904Y-37855333D01*
X160481904Y-37322000D02*
X160481904Y-37169619D01*
X160520000Y-37093428D01*
X160596190Y-37017238D01*
X160748571Y-36979142D01*
X161015238Y-36979142D01*
X161167619Y-37017238D01*
X161243809Y-37093428D01*
X161281904Y-37169619D01*
X161281904Y-37322000D01*
X161243809Y-37398190D01*
X161167619Y-37474380D01*
X161015238Y-37512476D01*
X160748571Y-37512476D01*
X160596190Y-37474380D01*
X160520000Y-37398190D01*
X160481904Y-37322000D01*
X163121904Y-40445809D02*
X163921904Y-40179142D01*
X163121904Y-39912476D01*
X163845714Y-39188666D02*
X163883809Y-39226761D01*
X163921904Y-39341047D01*
X163921904Y-39417238D01*
X163883809Y-39531523D01*
X163807619Y-39607714D01*
X163731428Y-39645809D01*
X163579047Y-39683904D01*
X163464761Y-39683904D01*
X163312380Y-39645809D01*
X163236190Y-39607714D01*
X163160000Y-39531523D01*
X163121904Y-39417238D01*
X163121904Y-39341047D01*
X163160000Y-39226761D01*
X163198095Y-39188666D01*
X163845714Y-38388666D02*
X163883809Y-38426761D01*
X163921904Y-38541047D01*
X163921904Y-38617238D01*
X163883809Y-38731523D01*
X163807619Y-38807714D01*
X163731428Y-38845809D01*
X163579047Y-38883904D01*
X163464761Y-38883904D01*
X163312380Y-38845809D01*
X163236190Y-38807714D01*
X163160000Y-38731523D01*
X163121904Y-38617238D01*
X163121904Y-38541047D01*
X163160000Y-38426761D01*
X163198095Y-38388666D01*
D12*
X148992857Y-124528571D02*
X148992857Y-123028571D01*
X149350000Y-123028571D01*
X149564285Y-123100000D01*
X149707142Y-123242857D01*
X149778571Y-123385714D01*
X149850000Y-123671428D01*
X149850000Y-123885714D01*
X149778571Y-124171428D01*
X149707142Y-124314285D01*
X149564285Y-124457142D01*
X149350000Y-124528571D01*
X148992857Y-124528571D01*
X150492857Y-123742857D02*
X150992857Y-123742857D01*
X151207142Y-124528571D02*
X150492857Y-124528571D01*
X150492857Y-123028571D01*
X151207142Y-123028571D01*
X152350000Y-123742857D02*
X151850000Y-123742857D01*
X151850000Y-124528571D02*
X151850000Y-123028571D01*
X152564285Y-123028571D01*
X155135714Y-124385714D02*
X155064285Y-124457142D01*
X154850000Y-124528571D01*
X154707142Y-124528571D01*
X154492857Y-124457142D01*
X154350000Y-124314285D01*
X154278571Y-124171428D01*
X154207142Y-123885714D01*
X154207142Y-123671428D01*
X154278571Y-123385714D01*
X154350000Y-123242857D01*
X154492857Y-123100000D01*
X154707142Y-123028571D01*
X154850000Y-123028571D01*
X155064285Y-123100000D01*
X155135714Y-123171428D01*
X156064285Y-123028571D02*
X156350000Y-123028571D01*
X156492857Y-123100000D01*
X156635714Y-123242857D01*
X156707142Y-123528571D01*
X156707142Y-124028571D01*
X156635714Y-124314285D01*
X156492857Y-124457142D01*
X156350000Y-124528571D01*
X156064285Y-124528571D01*
X155921428Y-124457142D01*
X155778571Y-124314285D01*
X155707142Y-124028571D01*
X155707142Y-123528571D01*
X155778571Y-123242857D01*
X155921428Y-123100000D01*
X156064285Y-123028571D01*
X157350000Y-124528571D02*
X157350000Y-123028571D01*
X158207142Y-124528571D01*
X158207142Y-123028571D01*
X159992857Y-123171428D02*
X160064285Y-123100000D01*
X160207142Y-123028571D01*
X160564285Y-123028571D01*
X160707142Y-123100000D01*
X160778571Y-123171428D01*
X160850000Y-123314285D01*
X160850000Y-123457142D01*
X160778571Y-123671428D01*
X159921428Y-124528571D01*
X160850000Y-124528571D01*
X162135714Y-123028571D02*
X161850000Y-123028571D01*
X161707142Y-123100000D01*
X161635714Y-123171428D01*
X161492857Y-123385714D01*
X161421428Y-123671428D01*
X161421428Y-124242857D01*
X161492857Y-124385714D01*
X161564285Y-124457142D01*
X161707142Y-124528571D01*
X161992857Y-124528571D01*
X162135714Y-124457142D01*
X162207142Y-124385714D01*
X162278571Y-124242857D01*
X162278571Y-123885714D01*
X162207142Y-123742857D01*
X162135714Y-123671428D01*
X161992857Y-123600000D01*
X161707142Y-123600000D01*
X161564285Y-123671428D01*
X161492857Y-123742857D01*
X161421428Y-123885714D01*
X144742857Y-126650000D02*
X145457142Y-126650000D01*
X144600000Y-127078571D02*
X145100000Y-125578571D01*
X145600000Y-127078571D01*
X146742857Y-126078571D02*
X146742857Y-127078571D01*
X146100000Y-126078571D02*
X146100000Y-126864285D01*
X146171428Y-127007142D01*
X146314285Y-127078571D01*
X146528571Y-127078571D01*
X146671428Y-127007142D01*
X146742857Y-126935714D01*
X148100000Y-126078571D02*
X148100000Y-127292857D01*
X148028571Y-127435714D01*
X147957142Y-127507142D01*
X147814285Y-127578571D01*
X147600000Y-127578571D01*
X147457142Y-127507142D01*
X148100000Y-127007142D02*
X147957142Y-127078571D01*
X147671428Y-127078571D01*
X147528571Y-127007142D01*
X147457142Y-126935714D01*
X147385714Y-126792857D01*
X147385714Y-126364285D01*
X147457142Y-126221428D01*
X147528571Y-126150000D01*
X147671428Y-126078571D01*
X147957142Y-126078571D01*
X148100000Y-126150000D01*
X149457142Y-126078571D02*
X149457142Y-127078571D01*
X148814285Y-126078571D02*
X148814285Y-126864285D01*
X148885714Y-127007142D01*
X149028571Y-127078571D01*
X149242857Y-127078571D01*
X149385714Y-127007142D01*
X149457142Y-126935714D01*
X150100000Y-127007142D02*
X150242857Y-127078571D01*
X150528571Y-127078571D01*
X150671428Y-127007142D01*
X150742857Y-126864285D01*
X150742857Y-126792857D01*
X150671428Y-126650000D01*
X150528571Y-126578571D01*
X150314285Y-126578571D01*
X150171428Y-126507142D01*
X150100000Y-126364285D01*
X150100000Y-126292857D01*
X150171428Y-126150000D01*
X150314285Y-126078571D01*
X150528571Y-126078571D01*
X150671428Y-126150000D01*
X151171428Y-126078571D02*
X151742857Y-126078571D01*
X151385714Y-125578571D02*
X151385714Y-126864285D01*
X151457142Y-127007142D01*
X151600000Y-127078571D01*
X151742857Y-127078571D01*
X153457142Y-127078571D02*
X153742857Y-127078571D01*
X153885714Y-127007142D01*
X153957142Y-126935714D01*
X154100000Y-126721428D01*
X154171428Y-126435714D01*
X154171428Y-125864285D01*
X154100000Y-125721428D01*
X154028571Y-125650000D01*
X153885714Y-125578571D01*
X153600000Y-125578571D01*
X153457142Y-125650000D01*
X153385714Y-125721428D01*
X153314285Y-125864285D01*
X153314285Y-126221428D01*
X153385714Y-126364285D01*
X153457142Y-126435714D01*
X153600000Y-126507142D01*
X153885714Y-126507142D01*
X154028571Y-126435714D01*
X154100000Y-126364285D01*
X154171428Y-126221428D01*
X154814285Y-126507142D02*
X155957142Y-126507142D01*
X157457142Y-127078571D02*
X156600000Y-127078571D01*
X157028571Y-127078571D02*
X157028571Y-125578571D01*
X156885714Y-125792857D01*
X156742857Y-125935714D01*
X156600000Y-126007142D01*
X158028571Y-125721428D02*
X158100000Y-125650000D01*
X158242857Y-125578571D01*
X158600000Y-125578571D01*
X158742857Y-125650000D01*
X158814285Y-125721428D01*
X158885714Y-125864285D01*
X158885714Y-126007142D01*
X158814285Y-126221428D01*
X157957142Y-127078571D01*
X158885714Y-127078571D01*
X159600000Y-127007142D02*
X159600000Y-127078571D01*
X159528571Y-127221428D01*
X159457142Y-127292857D01*
X161314285Y-125721428D02*
X161385714Y-125650000D01*
X161528571Y-125578571D01*
X161885714Y-125578571D01*
X162028571Y-125650000D01*
X162100000Y-125721428D01*
X162171428Y-125864285D01*
X162171428Y-126007142D01*
X162100000Y-126221428D01*
X161242857Y-127078571D01*
X162171428Y-127078571D01*
X163100000Y-125578571D02*
X163242857Y-125578571D01*
X163385714Y-125650000D01*
X163457142Y-125721428D01*
X163528571Y-125864285D01*
X163600000Y-126150000D01*
X163600000Y-126507142D01*
X163528571Y-126792857D01*
X163457142Y-126935714D01*
X163385714Y-127007142D01*
X163242857Y-127078571D01*
X163100000Y-127078571D01*
X162957142Y-127007142D01*
X162885714Y-126935714D01*
X162814285Y-126792857D01*
X162742857Y-126507142D01*
X162742857Y-126150000D01*
X162814285Y-125864285D01*
X162885714Y-125721428D01*
X162957142Y-125650000D01*
X163100000Y-125578571D01*
X165028571Y-127078571D02*
X164171428Y-127078571D01*
X164600000Y-127078571D02*
X164600000Y-125578571D01*
X164457142Y-125792857D01*
X164314285Y-125935714D01*
X164171428Y-126007142D01*
X165885714Y-126221428D02*
X165742857Y-126150000D01*
X165671428Y-126078571D01*
X165600000Y-125935714D01*
X165600000Y-125864285D01*
X165671428Y-125721428D01*
X165742857Y-125650000D01*
X165885714Y-125578571D01*
X166171428Y-125578571D01*
X166314285Y-125650000D01*
X166385714Y-125721428D01*
X166457142Y-125864285D01*
X166457142Y-125935714D01*
X166385714Y-126078571D01*
X166314285Y-126150000D01*
X166171428Y-126221428D01*
X165885714Y-126221428D01*
X165742857Y-126292857D01*
X165671428Y-126364285D01*
X165600000Y-126507142D01*
X165600000Y-126792857D01*
X165671428Y-126935714D01*
X165742857Y-127007142D01*
X165885714Y-127078571D01*
X166171428Y-127078571D01*
X166314285Y-127007142D01*
X166385714Y-126935714D01*
X166457142Y-126792857D01*
X166457142Y-126507142D01*
X166385714Y-126364285D01*
X166314285Y-126292857D01*
X166171428Y-126221428D01*
X144778571Y-129628571D02*
X144778571Y-128128571D01*
X145135714Y-128128571D01*
X145350000Y-128200000D01*
X145492857Y-128342857D01*
X145564285Y-128485714D01*
X145635714Y-128771428D01*
X145635714Y-128985714D01*
X145564285Y-129271428D01*
X145492857Y-129414285D01*
X145350000Y-129557142D01*
X145135714Y-129628571D01*
X144778571Y-129628571D01*
X146850000Y-129557142D02*
X146707142Y-129628571D01*
X146421428Y-129628571D01*
X146278571Y-129557142D01*
X146207142Y-129414285D01*
X146207142Y-128842857D01*
X146278571Y-128700000D01*
X146421428Y-128628571D01*
X146707142Y-128628571D01*
X146850000Y-128700000D01*
X146921428Y-128842857D01*
X146921428Y-128985714D01*
X146207142Y-129128571D01*
X147492857Y-129557142D02*
X147635714Y-129628571D01*
X147921428Y-129628571D01*
X148064285Y-129557142D01*
X148135714Y-129414285D01*
X148135714Y-129342857D01*
X148064285Y-129200000D01*
X147921428Y-129128571D01*
X147707142Y-129128571D01*
X147564285Y-129057142D01*
X147492857Y-128914285D01*
X147492857Y-128842857D01*
X147564285Y-128700000D01*
X147707142Y-128628571D01*
X147921428Y-128628571D01*
X148064285Y-128700000D01*
X148778571Y-129628571D02*
X148778571Y-128628571D01*
X148778571Y-128128571D02*
X148707142Y-128200000D01*
X148778571Y-128271428D01*
X148850000Y-128200000D01*
X148778571Y-128128571D01*
X148778571Y-128271428D01*
X150135714Y-128628571D02*
X150135714Y-129842857D01*
X150064285Y-129985714D01*
X149992857Y-130057142D01*
X149850000Y-130128571D01*
X149635714Y-130128571D01*
X149492857Y-130057142D01*
X150135714Y-129557142D02*
X149992857Y-129628571D01*
X149707142Y-129628571D01*
X149564285Y-129557142D01*
X149492857Y-129485714D01*
X149421428Y-129342857D01*
X149421428Y-128914285D01*
X149492857Y-128771428D01*
X149564285Y-128700000D01*
X149707142Y-128628571D01*
X149992857Y-128628571D01*
X150135714Y-128700000D01*
X150850000Y-128628571D02*
X150850000Y-129628571D01*
X150850000Y-128771428D02*
X150921428Y-128700000D01*
X151064285Y-128628571D01*
X151278571Y-128628571D01*
X151421428Y-128700000D01*
X151492857Y-128842857D01*
X151492857Y-129628571D01*
X152778571Y-129557142D02*
X152635714Y-129628571D01*
X152350000Y-129628571D01*
X152207142Y-129557142D01*
X152135714Y-129414285D01*
X152135714Y-128842857D01*
X152207142Y-128700000D01*
X152350000Y-128628571D01*
X152635714Y-128628571D01*
X152778571Y-128700000D01*
X152850000Y-128842857D01*
X152850000Y-128985714D01*
X152135714Y-129128571D01*
X154135714Y-129628571D02*
X154135714Y-128128571D01*
X154135714Y-129557142D02*
X153992857Y-129628571D01*
X153707142Y-129628571D01*
X153564285Y-129557142D01*
X153492857Y-129485714D01*
X153421428Y-129342857D01*
X153421428Y-128914285D01*
X153492857Y-128771428D01*
X153564285Y-128700000D01*
X153707142Y-128628571D01*
X153992857Y-128628571D01*
X154135714Y-128700000D01*
X155992857Y-129628571D02*
X155992857Y-128128571D01*
X155992857Y-128700000D02*
X156135714Y-128628571D01*
X156421428Y-128628571D01*
X156564285Y-128700000D01*
X156635714Y-128771428D01*
X156707142Y-128914285D01*
X156707142Y-129342857D01*
X156635714Y-129485714D01*
X156564285Y-129557142D01*
X156421428Y-129628571D01*
X156135714Y-129628571D01*
X155992857Y-129557142D01*
X157207142Y-128628571D02*
X157564285Y-129628571D01*
X157921428Y-128628571D02*
X157564285Y-129628571D01*
X157421428Y-129985714D01*
X157350000Y-130057142D01*
X157207142Y-130128571D01*
X160564285Y-128914285D02*
X160492857Y-128842857D01*
X160350000Y-128771428D01*
X160207142Y-128771428D01*
X160064285Y-128842857D01*
X159992857Y-128914285D01*
X159921428Y-129057142D01*
X159921428Y-129200000D01*
X159992857Y-129342857D01*
X160064285Y-129414285D01*
X160207142Y-129485714D01*
X160350000Y-129485714D01*
X160492857Y-129414285D01*
X160564285Y-129342857D01*
X160564285Y-128771428D02*
X160564285Y-129342857D01*
X160635714Y-129414285D01*
X160707142Y-129414285D01*
X160850000Y-129342857D01*
X160921428Y-129200000D01*
X160921428Y-128842857D01*
X160778571Y-128628571D01*
X160564285Y-128485714D01*
X160278571Y-128414285D01*
X159992857Y-128485714D01*
X159778571Y-128628571D01*
X159635714Y-128842857D01*
X159564285Y-129128571D01*
X159635714Y-129414285D01*
X159778571Y-129628571D01*
X159992857Y-129771428D01*
X160278571Y-129842857D01*
X160564285Y-129771428D01*
X160778571Y-129628571D01*
X161564285Y-129628571D02*
X161564285Y-128128571D01*
X162064285Y-129200000D01*
X162564285Y-128128571D01*
X162564285Y-129628571D01*
X163921428Y-129628571D02*
X163921428Y-128842857D01*
X163850000Y-128700000D01*
X163707142Y-128628571D01*
X163421428Y-128628571D01*
X163278571Y-128700000D01*
X163921428Y-129557142D02*
X163778571Y-129628571D01*
X163421428Y-129628571D01*
X163278571Y-129557142D01*
X163207142Y-129414285D01*
X163207142Y-129271428D01*
X163278571Y-129128571D01*
X163421428Y-129057142D01*
X163778571Y-129057142D01*
X163921428Y-128985714D01*
X164421428Y-128628571D02*
X164992857Y-128628571D01*
X164635714Y-128128571D02*
X164635714Y-129414285D01*
X164707142Y-129557142D01*
X164850000Y-129628571D01*
X164992857Y-129628571D01*
X165492857Y-129628571D02*
X165492857Y-128628571D01*
X165492857Y-128128571D02*
X165421428Y-128200000D01*
X165492857Y-128271428D01*
X165564285Y-128200000D01*
X165492857Y-128128571D01*
X165492857Y-128271428D01*
X166207142Y-129628571D02*
X166207142Y-128628571D01*
X166207142Y-128914285D02*
X166278571Y-128771428D01*
X166350000Y-128700000D01*
X166492857Y-128628571D01*
X166635714Y-128628571D01*
D13*
X177600000Y-67885000D02*
X177600000Y-50415000D01*
X183900000Y-67885000D02*
X177600000Y-67885000D01*
X183900000Y-49615000D02*
X183900000Y-67885000D01*
X178400000Y-49615000D02*
X183900000Y-49615000D01*
X177600000Y-50415000D02*
X178400000Y-49615000D01*
D11*
X137635000Y-52765000D02*
X141165000Y-52765000D01*
X137635000Y-59235000D02*
X141165000Y-59235000D01*
X136310000Y-52830000D02*
X137635000Y-52830000D01*
X137635000Y-52765000D02*
X137635000Y-52830000D01*
X141165000Y-52765000D02*
X141165000Y-52830000D01*
X137635000Y-59170000D02*
X137635000Y-59235000D01*
X141165000Y-59170000D02*
X141165000Y-59235000D01*
X184990000Y-47530000D02*
X184990000Y-47970000D01*
X186010000Y-47530000D02*
X186010000Y-47970000D01*
X154990000Y-47970000D02*
X154990000Y-47530000D01*
X156010000Y-47970000D02*
X156010000Y-47530000D01*
X153760000Y-47970000D02*
X153760000Y-47530000D01*
X152740000Y-47970000D02*
X152740000Y-47530000D01*
X188845000Y-115510000D02*
X188405000Y-115510000D01*
X188845000Y-114490000D02*
X188405000Y-114490000D01*
X132725000Y-50440000D02*
X130455000Y-50440000D01*
X130455000Y-50440000D02*
X130455000Y-51960000D01*
X130455000Y-51960000D02*
X132725000Y-51960000D01*
X192080000Y-109240000D02*
X191150000Y-109240000D01*
X188920000Y-109240000D02*
X189850000Y-109240000D01*
X188920000Y-109240000D02*
X188920000Y-112400000D01*
X192080000Y-109240000D02*
X192080000Y-110700000D01*
X131580000Y-47290000D02*
X132020000Y-47290000D01*
X131580000Y-48310000D02*
X132020000Y-48310000D01*
D13*
X137750000Y-33800000D02*
X138550000Y-33000000D01*
X138550000Y-33000000D02*
X149250000Y-33000000D01*
X149250000Y-39300000D02*
X149250000Y-48700000D01*
X149250000Y-48700000D02*
X137750000Y-48700000D01*
X137750000Y-48700000D02*
X137750000Y-40100000D01*
X149250000Y-39300000D02*
X149250000Y-33000000D01*
X137750000Y-40100000D02*
X137750000Y-33800000D01*
D14*
G36*
X116900964Y-94698576D02*
X116976513Y-95099322D01*
X117534041Y-95329154D01*
X117868465Y-95101748D01*
X117962122Y-95038431D01*
X118046782Y-94981896D01*
X118118495Y-94934727D01*
X118173311Y-94899502D01*
X118207280Y-94878805D01*
X118216530Y-94874342D01*
X118233195Y-94885820D01*
X118268806Y-94917551D01*
X118319371Y-94965483D01*
X118380900Y-95025562D01*
X118449399Y-95093733D01*
X118520879Y-95165945D01*
X118591347Y-95238142D01*
X118656811Y-95306273D01*
X118713280Y-95366283D01*
X118756763Y-95414119D01*
X118783268Y-95445727D01*
X118789605Y-95456305D01*
X118780486Y-95475806D01*
X118754920Y-95518531D01*
X118715597Y-95580298D01*
X118665203Y-95656931D01*
X118606427Y-95744248D01*
X118572368Y-95794052D01*
X118510289Y-95884993D01*
X118455126Y-95967059D01*
X118409554Y-96036163D01*
X118376250Y-96088222D01*
X118357890Y-96119150D01*
X118355131Y-96125650D01*
X118361385Y-96144121D01*
X118378434Y-96187172D01*
X118403703Y-96248749D01*
X118434622Y-96322799D01*
X118468618Y-96403270D01*
X118503118Y-96484107D01*
X118535551Y-96559258D01*
X118563343Y-96622671D01*
X118583923Y-96668293D01*
X118594719Y-96690069D01*
X118595356Y-96690926D01*
X118612307Y-96695084D01*
X118657451Y-96704361D01*
X118726110Y-96717844D01*
X118813602Y-96734621D01*
X118915250Y-96753781D01*
X118974556Y-96764830D01*
X119083172Y-96785510D01*
X119181277Y-96805189D01*
X119263909Y-96822789D01*
X119326104Y-96837233D01*
X119362899Y-96847446D01*
X119370296Y-96850686D01*
X119377540Y-96872617D01*
X119383385Y-96922147D01*
X119387835Y-96993485D01*
X119390893Y-97080839D01*
X119392565Y-97178417D01*
X119392853Y-97280426D01*
X119391761Y-97381075D01*
X119389294Y-97474572D01*
X119385456Y-97555125D01*
X119380250Y-97616942D01*
X119373681Y-97654230D01*
X119369741Y-97661993D01*
X119346188Y-97671298D01*
X119296282Y-97684600D01*
X119226623Y-97700337D01*
X119143813Y-97716946D01*
X119114905Y-97722319D01*
X118975531Y-97747848D01*
X118865436Y-97768408D01*
X118780982Y-97784815D01*
X118718530Y-97797887D01*
X118674444Y-97808441D01*
X118645085Y-97817294D01*
X118626815Y-97825263D01*
X118615998Y-97833165D01*
X118614485Y-97834727D01*
X118599377Y-97859886D01*
X118576329Y-97908850D01*
X118547644Y-97975621D01*
X118515622Y-98054205D01*
X118482565Y-98138607D01*
X118450773Y-98222830D01*
X118422549Y-98300879D01*
X118400193Y-98366759D01*
X118386007Y-98414473D01*
X118382293Y-98438027D01*
X118382602Y-98438852D01*
X118395189Y-98458104D01*
X118423744Y-98500463D01*
X118465267Y-98561521D01*
X118516756Y-98636868D01*
X118575211Y-98722096D01*
X118591858Y-98746315D01*
X118651215Y-98834123D01*
X118703447Y-98914238D01*
X118745708Y-98982062D01*
X118775153Y-99032993D01*
X118788937Y-99062431D01*
X118789605Y-99066048D01*
X118778024Y-99085057D01*
X118746024Y-99122714D01*
X118697718Y-99174973D01*
X118637220Y-99237786D01*
X118568644Y-99307106D01*
X118496104Y-99378885D01*
X118423712Y-99449077D01*
X118355584Y-99513635D01*
X118295832Y-99568510D01*
X118248571Y-99609656D01*
X118217913Y-99633026D01*
X118209432Y-99636842D01*
X118189691Y-99627855D01*
X118149274Y-99603616D01*
X118094763Y-99568209D01*
X118052823Y-99539711D01*
X117976829Y-99487418D01*
X117886834Y-99425845D01*
X117796564Y-99364370D01*
X117748032Y-99331469D01*
X117583762Y-99220359D01*
X117445869Y-99294916D01*
X117383049Y-99327578D01*
X117329629Y-99352966D01*
X117293484Y-99367446D01*
X117284284Y-99369460D01*
X117273221Y-99354584D01*
X117251394Y-99312547D01*
X117220434Y-99247227D01*
X117181970Y-99162500D01*
X117137632Y-99062245D01*
X117089047Y-98950339D01*
X117037846Y-98830659D01*
X116985659Y-98707084D01*
X116934113Y-98583491D01*
X116884840Y-98463757D01*
X116839467Y-98351759D01*
X116799625Y-98251377D01*
X116766942Y-98166486D01*
X116743049Y-98100965D01*
X116729574Y-98058690D01*
X116727406Y-98044172D01*
X116744583Y-98025653D01*
X116782190Y-97995590D01*
X116832366Y-97960232D01*
X116836578Y-97957434D01*
X116966264Y-97853625D01*
X117070834Y-97732515D01*
X117149381Y-97597976D01*
X117200999Y-97453882D01*
X117224782Y-97304105D01*
X117219823Y-97152517D01*
X117185217Y-97002992D01*
X117120057Y-96859400D01*
X117100886Y-96827984D01*
X117001174Y-96701125D01*
X116883377Y-96599255D01*
X116751571Y-96522904D01*
X116609833Y-96472602D01*
X116462242Y-96448879D01*
X116312873Y-96452265D01*
X116165803Y-96483288D01*
X116025111Y-96542480D01*
X115894873Y-96630369D01*
X115854586Y-96666042D01*
X115752055Y-96777706D01*
X115677341Y-96895257D01*
X115626090Y-97027020D01*
X115597546Y-97157507D01*
X115590500Y-97304216D01*
X115613996Y-97451653D01*
X115665649Y-97594834D01*
X115743071Y-97728777D01*
X115843875Y-97848498D01*
X115965676Y-97949014D01*
X115981684Y-97959609D01*
X116032398Y-97994306D01*
X116070950Y-98024370D01*
X116089381Y-98043565D01*
X116089649Y-98044172D01*
X116085692Y-98064936D01*
X116070007Y-98112062D01*
X116044222Y-98181673D01*
X116009969Y-98269893D01*
X115968877Y-98372844D01*
X115922576Y-98486650D01*
X115872696Y-98607435D01*
X115820867Y-98731321D01*
X115768719Y-98854432D01*
X115717882Y-98972891D01*
X115669987Y-99082823D01*
X115626662Y-99180349D01*
X115589538Y-99261593D01*
X115560244Y-99322679D01*
X115540412Y-99359730D01*
X115532426Y-99369460D01*
X115508021Y-99361883D01*
X115462358Y-99341560D01*
X115403310Y-99312125D01*
X115370840Y-99294916D01*
X115232947Y-99220359D01*
X115068677Y-99331469D01*
X114984821Y-99388390D01*
X114893013Y-99451030D01*
X114806980Y-99510011D01*
X114763887Y-99539711D01*
X114703277Y-99580410D01*
X114651955Y-99612663D01*
X114616615Y-99632384D01*
X114605137Y-99636554D01*
X114588430Y-99625307D01*
X114551454Y-99593911D01*
X114497795Y-99545624D01*
X114431038Y-99483708D01*
X114354766Y-99411421D01*
X114306527Y-99365008D01*
X114222133Y-99282087D01*
X114149197Y-99207920D01*
X114090669Y-99145680D01*
X114049497Y-99098541D01*
X114028628Y-99069673D01*
X114026626Y-99063815D01*
X114035917Y-99041532D01*
X114061591Y-98996477D01*
X114100800Y-98933211D01*
X114150697Y-98856295D01*
X114208433Y-98770292D01*
X114224851Y-98746315D01*
X114284677Y-98659170D01*
X114338350Y-98580710D01*
X114382870Y-98515345D01*
X114415235Y-98467484D01*
X114432445Y-98441535D01*
X114434107Y-98438852D01*
X114431621Y-98418172D01*
X114418423Y-98372704D01*
X114396814Y-98308444D01*
X114369096Y-98231387D01*
X114337570Y-98147529D01*
X114304537Y-98062866D01*
X114272299Y-97983392D01*
X114243157Y-97915104D01*
X114219412Y-97863997D01*
X114203365Y-97836067D01*
X114202225Y-97834727D01*
X114192412Y-97826745D01*
X114175839Y-97818851D01*
X114148868Y-97810229D01*
X114107861Y-97800062D01*
X114049180Y-97787531D01*
X113969187Y-97771821D01*
X113864245Y-97752113D01*
X113730715Y-97727592D01*
X113701804Y-97722319D01*
X113616118Y-97705764D01*
X113541418Y-97689569D01*
X113484306Y-97675296D01*
X113451383Y-97664508D01*
X113446969Y-97661993D01*
X113439694Y-97639696D01*
X113433781Y-97589869D01*
X113429234Y-97518304D01*
X113426055Y-97430793D01*
X113424251Y-97333128D01*
X113423823Y-97231101D01*
X113424777Y-97130503D01*
X113427116Y-97037127D01*
X113430844Y-96956765D01*
X113435966Y-96895209D01*
X113442484Y-96858250D01*
X113446414Y-96850686D01*
X113468292Y-96843056D01*
X113518109Y-96830642D01*
X113590903Y-96814522D01*
X113681711Y-96795773D01*
X113785569Y-96775471D01*
X113842154Y-96764830D01*
X113949514Y-96744760D01*
X114045254Y-96726580D01*
X114124694Y-96711199D01*
X114183154Y-96699531D01*
X114215955Y-96692488D01*
X114221354Y-96690926D01*
X114230478Y-96673322D01*
X114249765Y-96630918D01*
X114276645Y-96569772D01*
X114308546Y-96495943D01*
X114342898Y-96415489D01*
X114377129Y-96334468D01*
X114408669Y-96258937D01*
X114434946Y-96194955D01*
X114453389Y-96148580D01*
X114461429Y-96125869D01*
X114461578Y-96124876D01*
X114452465Y-96106961D01*
X114426914Y-96065733D01*
X114387612Y-96005291D01*
X114337243Y-95929731D01*
X114278494Y-95843152D01*
X114244342Y-95793421D01*
X114182110Y-95702236D01*
X114126836Y-95619449D01*
X114081218Y-95549249D01*
X114047952Y-95495824D01*
X114029736Y-95463361D01*
X114027105Y-95456083D01*
X114038414Y-95439145D01*
X114069681Y-95402978D01*
X114116910Y-95351635D01*
X114176108Y-95289167D01*
X114243281Y-95219626D01*
X114314434Y-95147065D01*
X114385574Y-95075535D01*
X114452707Y-95009087D01*
X114511839Y-94951774D01*
X114558975Y-94907647D01*
X114590123Y-94880759D01*
X114600543Y-94874342D01*
X114617509Y-94883365D01*
X114658089Y-94908715D01*
X114718337Y-94947810D01*
X114794307Y-94998071D01*
X114882054Y-95056917D01*
X114948244Y-95101748D01*
X115282668Y-95329154D01*
X115561433Y-95214238D01*
X115840197Y-95099322D01*
X115915746Y-94698576D01*
X115991294Y-94297829D01*
X116825415Y-94297829D01*
X116900964Y-94698576D01*
X116900964Y-94698576D01*
G37*
X116900964Y-94698576D02*
X116976513Y-95099322D01*
X117534041Y-95329154D01*
X117868465Y-95101748D01*
X117962122Y-95038431D01*
X118046782Y-94981896D01*
X118118495Y-94934727D01*
X118173311Y-94899502D01*
X118207280Y-94878805D01*
X118216530Y-94874342D01*
X118233195Y-94885820D01*
X118268806Y-94917551D01*
X118319371Y-94965483D01*
X118380900Y-95025562D01*
X118449399Y-95093733D01*
X118520879Y-95165945D01*
X118591347Y-95238142D01*
X118656811Y-95306273D01*
X118713280Y-95366283D01*
X118756763Y-95414119D01*
X118783268Y-95445727D01*
X118789605Y-95456305D01*
X118780486Y-95475806D01*
X118754920Y-95518531D01*
X118715597Y-95580298D01*
X118665203Y-95656931D01*
X118606427Y-95744248D01*
X118572368Y-95794052D01*
X118510289Y-95884993D01*
X118455126Y-95967059D01*
X118409554Y-96036163D01*
X118376250Y-96088222D01*
X118357890Y-96119150D01*
X118355131Y-96125650D01*
X118361385Y-96144121D01*
X118378434Y-96187172D01*
X118403703Y-96248749D01*
X118434622Y-96322799D01*
X118468618Y-96403270D01*
X118503118Y-96484107D01*
X118535551Y-96559258D01*
X118563343Y-96622671D01*
X118583923Y-96668293D01*
X118594719Y-96690069D01*
X118595356Y-96690926D01*
X118612307Y-96695084D01*
X118657451Y-96704361D01*
X118726110Y-96717844D01*
X118813602Y-96734621D01*
X118915250Y-96753781D01*
X118974556Y-96764830D01*
X119083172Y-96785510D01*
X119181277Y-96805189D01*
X119263909Y-96822789D01*
X119326104Y-96837233D01*
X119362899Y-96847446D01*
X119370296Y-96850686D01*
X119377540Y-96872617D01*
X119383385Y-96922147D01*
X119387835Y-96993485D01*
X119390893Y-97080839D01*
X119392565Y-97178417D01*
X119392853Y-97280426D01*
X119391761Y-97381075D01*
X119389294Y-97474572D01*
X119385456Y-97555125D01*
X119380250Y-97616942D01*
X119373681Y-97654230D01*
X119369741Y-97661993D01*
X119346188Y-97671298D01*
X119296282Y-97684600D01*
X119226623Y-97700337D01*
X119143813Y-97716946D01*
X119114905Y-97722319D01*
X118975531Y-97747848D01*
X118865436Y-97768408D01*
X118780982Y-97784815D01*
X118718530Y-97797887D01*
X118674444Y-97808441D01*
X118645085Y-97817294D01*
X118626815Y-97825263D01*
X118615998Y-97833165D01*
X118614485Y-97834727D01*
X118599377Y-97859886D01*
X118576329Y-97908850D01*
X118547644Y-97975621D01*
X118515622Y-98054205D01*
X118482565Y-98138607D01*
X118450773Y-98222830D01*
X118422549Y-98300879D01*
X118400193Y-98366759D01*
X118386007Y-98414473D01*
X118382293Y-98438027D01*
X118382602Y-98438852D01*
X118395189Y-98458104D01*
X118423744Y-98500463D01*
X118465267Y-98561521D01*
X118516756Y-98636868D01*
X118575211Y-98722096D01*
X118591858Y-98746315D01*
X118651215Y-98834123D01*
X118703447Y-98914238D01*
X118745708Y-98982062D01*
X118775153Y-99032993D01*
X118788937Y-99062431D01*
X118789605Y-99066048D01*
X118778024Y-99085057D01*
X118746024Y-99122714D01*
X118697718Y-99174973D01*
X118637220Y-99237786D01*
X118568644Y-99307106D01*
X118496104Y-99378885D01*
X118423712Y-99449077D01*
X118355584Y-99513635D01*
X118295832Y-99568510D01*
X118248571Y-99609656D01*
X118217913Y-99633026D01*
X118209432Y-99636842D01*
X118189691Y-99627855D01*
X118149274Y-99603616D01*
X118094763Y-99568209D01*
X118052823Y-99539711D01*
X117976829Y-99487418D01*
X117886834Y-99425845D01*
X117796564Y-99364370D01*
X117748032Y-99331469D01*
X117583762Y-99220359D01*
X117445869Y-99294916D01*
X117383049Y-99327578D01*
X117329629Y-99352966D01*
X117293484Y-99367446D01*
X117284284Y-99369460D01*
X117273221Y-99354584D01*
X117251394Y-99312547D01*
X117220434Y-99247227D01*
X117181970Y-99162500D01*
X117137632Y-99062245D01*
X117089047Y-98950339D01*
X117037846Y-98830659D01*
X116985659Y-98707084D01*
X116934113Y-98583491D01*
X116884840Y-98463757D01*
X116839467Y-98351759D01*
X116799625Y-98251377D01*
X116766942Y-98166486D01*
X116743049Y-98100965D01*
X116729574Y-98058690D01*
X116727406Y-98044172D01*
X116744583Y-98025653D01*
X116782190Y-97995590D01*
X116832366Y-97960232D01*
X116836578Y-97957434D01*
X116966264Y-97853625D01*
X117070834Y-97732515D01*
X117149381Y-97597976D01*
X117200999Y-97453882D01*
X117224782Y-97304105D01*
X117219823Y-97152517D01*
X117185217Y-97002992D01*
X117120057Y-96859400D01*
X117100886Y-96827984D01*
X117001174Y-96701125D01*
X116883377Y-96599255D01*
X116751571Y-96522904D01*
X116609833Y-96472602D01*
X116462242Y-96448879D01*
X116312873Y-96452265D01*
X116165803Y-96483288D01*
X116025111Y-96542480D01*
X115894873Y-96630369D01*
X115854586Y-96666042D01*
X115752055Y-96777706D01*
X115677341Y-96895257D01*
X115626090Y-97027020D01*
X115597546Y-97157507D01*
X115590500Y-97304216D01*
X115613996Y-97451653D01*
X115665649Y-97594834D01*
X115743071Y-97728777D01*
X115843875Y-97848498D01*
X115965676Y-97949014D01*
X115981684Y-97959609D01*
X116032398Y-97994306D01*
X116070950Y-98024370D01*
X116089381Y-98043565D01*
X116089649Y-98044172D01*
X116085692Y-98064936D01*
X116070007Y-98112062D01*
X116044222Y-98181673D01*
X116009969Y-98269893D01*
X115968877Y-98372844D01*
X115922576Y-98486650D01*
X115872696Y-98607435D01*
X115820867Y-98731321D01*
X115768719Y-98854432D01*
X115717882Y-98972891D01*
X115669987Y-99082823D01*
X115626662Y-99180349D01*
X115589538Y-99261593D01*
X115560244Y-99322679D01*
X115540412Y-99359730D01*
X115532426Y-99369460D01*
X115508021Y-99361883D01*
X115462358Y-99341560D01*
X115403310Y-99312125D01*
X115370840Y-99294916D01*
X115232947Y-99220359D01*
X115068677Y-99331469D01*
X114984821Y-99388390D01*
X114893013Y-99451030D01*
X114806980Y-99510011D01*
X114763887Y-99539711D01*
X114703277Y-99580410D01*
X114651955Y-99612663D01*
X114616615Y-99632384D01*
X114605137Y-99636554D01*
X114588430Y-99625307D01*
X114551454Y-99593911D01*
X114497795Y-99545624D01*
X114431038Y-99483708D01*
X114354766Y-99411421D01*
X114306527Y-99365008D01*
X114222133Y-99282087D01*
X114149197Y-99207920D01*
X114090669Y-99145680D01*
X114049497Y-99098541D01*
X114028628Y-99069673D01*
X114026626Y-99063815D01*
X114035917Y-99041532D01*
X114061591Y-98996477D01*
X114100800Y-98933211D01*
X114150697Y-98856295D01*
X114208433Y-98770292D01*
X114224851Y-98746315D01*
X114284677Y-98659170D01*
X114338350Y-98580710D01*
X114382870Y-98515345D01*
X114415235Y-98467484D01*
X114432445Y-98441535D01*
X114434107Y-98438852D01*
X114431621Y-98418172D01*
X114418423Y-98372704D01*
X114396814Y-98308444D01*
X114369096Y-98231387D01*
X114337570Y-98147529D01*
X114304537Y-98062866D01*
X114272299Y-97983392D01*
X114243157Y-97915104D01*
X114219412Y-97863997D01*
X114203365Y-97836067D01*
X114202225Y-97834727D01*
X114192412Y-97826745D01*
X114175839Y-97818851D01*
X114148868Y-97810229D01*
X114107861Y-97800062D01*
X114049180Y-97787531D01*
X113969187Y-97771821D01*
X113864245Y-97752113D01*
X113730715Y-97727592D01*
X113701804Y-97722319D01*
X113616118Y-97705764D01*
X113541418Y-97689569D01*
X113484306Y-97675296D01*
X113451383Y-97664508D01*
X113446969Y-97661993D01*
X113439694Y-97639696D01*
X113433781Y-97589869D01*
X113429234Y-97518304D01*
X113426055Y-97430793D01*
X113424251Y-97333128D01*
X113423823Y-97231101D01*
X113424777Y-97130503D01*
X113427116Y-97037127D01*
X113430844Y-96956765D01*
X113435966Y-96895209D01*
X113442484Y-96858250D01*
X113446414Y-96850686D01*
X113468292Y-96843056D01*
X113518109Y-96830642D01*
X113590903Y-96814522D01*
X113681711Y-96795773D01*
X113785569Y-96775471D01*
X113842154Y-96764830D01*
X113949514Y-96744760D01*
X114045254Y-96726580D01*
X114124694Y-96711199D01*
X114183154Y-96699531D01*
X114215955Y-96692488D01*
X114221354Y-96690926D01*
X114230478Y-96673322D01*
X114249765Y-96630918D01*
X114276645Y-96569772D01*
X114308546Y-96495943D01*
X114342898Y-96415489D01*
X114377129Y-96334468D01*
X114408669Y-96258937D01*
X114434946Y-96194955D01*
X114453389Y-96148580D01*
X114461429Y-96125869D01*
X114461578Y-96124876D01*
X114452465Y-96106961D01*
X114426914Y-96065733D01*
X114387612Y-96005291D01*
X114337243Y-95929731D01*
X114278494Y-95843152D01*
X114244342Y-95793421D01*
X114182110Y-95702236D01*
X114126836Y-95619449D01*
X114081218Y-95549249D01*
X114047952Y-95495824D01*
X114029736Y-95463361D01*
X114027105Y-95456083D01*
X114038414Y-95439145D01*
X114069681Y-95402978D01*
X114116910Y-95351635D01*
X114176108Y-95289167D01*
X114243281Y-95219626D01*
X114314434Y-95147065D01*
X114385574Y-95075535D01*
X114452707Y-95009087D01*
X114511839Y-94951774D01*
X114558975Y-94907647D01*
X114590123Y-94880759D01*
X114600543Y-94874342D01*
X114617509Y-94883365D01*
X114658089Y-94908715D01*
X114718337Y-94947810D01*
X114794307Y-94998071D01*
X114882054Y-95056917D01*
X114948244Y-95101748D01*
X115282668Y-95329154D01*
X115561433Y-95214238D01*
X115840197Y-95099322D01*
X115915746Y-94698576D01*
X115991294Y-94297829D01*
X116825415Y-94297829D01*
X116900964Y-94698576D01*
G36*
X118791388Y-100237645D02*
X118848865Y-100255206D01*
X118885872Y-100277395D01*
X118897927Y-100294942D01*
X118894609Y-100315742D01*
X118873079Y-100348419D01*
X118854874Y-100371562D01*
X118817344Y-100413402D01*
X118789148Y-100431005D01*
X118765111Y-100429856D01*
X118693808Y-100411710D01*
X118641442Y-100412534D01*
X118598918Y-100433098D01*
X118584642Y-100445134D01*
X118538947Y-100487483D01*
X118538947Y-101040526D01*
X118355131Y-101040526D01*
X118355131Y-100238421D01*
X118447039Y-100238421D01*
X118502219Y-100240603D01*
X118530688Y-100248351D01*
X118538943Y-100263468D01*
X118538947Y-100263916D01*
X118542845Y-100279749D01*
X118560474Y-100277684D01*
X118584901Y-100266261D01*
X118635350Y-100245005D01*
X118676316Y-100232216D01*
X118729028Y-100228938D01*
X118791388Y-100237645D01*
X118791388Y-100237645D01*
G37*
X118791388Y-100237645D02*
X118848865Y-100255206D01*
X118885872Y-100277395D01*
X118897927Y-100294942D01*
X118894609Y-100315742D01*
X118873079Y-100348419D01*
X118854874Y-100371562D01*
X118817344Y-100413402D01*
X118789148Y-100431005D01*
X118765111Y-100429856D01*
X118693808Y-100411710D01*
X118641442Y-100412534D01*
X118598918Y-100433098D01*
X118584642Y-100445134D01*
X118538947Y-100487483D01*
X118538947Y-101040526D01*
X118355131Y-101040526D01*
X118355131Y-100238421D01*
X118447039Y-100238421D01*
X118502219Y-100240603D01*
X118530688Y-100248351D01*
X118538943Y-100263468D01*
X118538947Y-100263916D01*
X118542845Y-100279749D01*
X118560474Y-100277684D01*
X118584901Y-100266261D01*
X118635350Y-100245005D01*
X118676316Y-100232216D01*
X118729028Y-100228938D01*
X118791388Y-100237645D01*
G36*
X115397957Y-100252226D02*
X115439546Y-100272090D01*
X115479825Y-100300784D01*
X115510510Y-100333809D01*
X115532861Y-100375931D01*
X115548136Y-100431915D01*
X115557592Y-100506528D01*
X115562487Y-100604535D01*
X115564081Y-100730702D01*
X115564106Y-100743914D01*
X115564473Y-101040526D01*
X115380657Y-101040526D01*
X115380657Y-100767081D01*
X115380527Y-100665777D01*
X115379621Y-100592353D01*
X115377173Y-100541271D01*
X115372414Y-100506990D01*
X115364574Y-100483971D01*
X115352885Y-100466673D01*
X115336602Y-100449581D01*
X115279634Y-100412857D01*
X115217445Y-100406042D01*
X115158199Y-100429261D01*
X115137595Y-100446543D01*
X115122470Y-100462791D01*
X115111610Y-100480191D01*
X115104310Y-100504212D01*
X115099863Y-100540322D01*
X115097564Y-100593988D01*
X115096704Y-100670680D01*
X115096578Y-100764043D01*
X115096578Y-101040526D01*
X114912763Y-101040526D01*
X114912763Y-100238421D01*
X115004671Y-100238421D01*
X115059851Y-100240603D01*
X115088320Y-100248351D01*
X115096575Y-100263468D01*
X115096578Y-100263916D01*
X115100408Y-100278720D01*
X115117301Y-100277040D01*
X115150888Y-100260773D01*
X115227063Y-100236840D01*
X115314200Y-100234178D01*
X115397957Y-100252226D01*
X115397957Y-100252226D01*
G37*
X115397957Y-100252226D02*
X115439546Y-100272090D01*
X115479825Y-100300784D01*
X115510510Y-100333809D01*
X115532861Y-100375931D01*
X115548136Y-100431915D01*
X115557592Y-100506528D01*
X115562487Y-100604535D01*
X115564081Y-100730702D01*
X115564106Y-100743914D01*
X115564473Y-101040526D01*
X115380657Y-101040526D01*
X115380657Y-100767081D01*
X115380527Y-100665777D01*
X115379621Y-100592353D01*
X115377173Y-100541271D01*
X115372414Y-100506990D01*
X115364574Y-100483971D01*
X115352885Y-100466673D01*
X115336602Y-100449581D01*
X115279634Y-100412857D01*
X115217445Y-100406042D01*
X115158199Y-100429261D01*
X115137595Y-100446543D01*
X115122470Y-100462791D01*
X115111610Y-100480191D01*
X115104310Y-100504212D01*
X115099863Y-100540322D01*
X115097564Y-100593988D01*
X115096704Y-100670680D01*
X115096578Y-100764043D01*
X115096578Y-101040526D01*
X114912763Y-101040526D01*
X114912763Y-100238421D01*
X115004671Y-100238421D01*
X115059851Y-100240603D01*
X115088320Y-100248351D01*
X115096575Y-100263468D01*
X115096578Y-100263916D01*
X115100408Y-100278720D01*
X115117301Y-100277040D01*
X115150888Y-100260773D01*
X115227063Y-100236840D01*
X115314200Y-100234178D01*
X115397957Y-100252226D01*
G36*
X119958784Y-100235554D02*
X120001574Y-100245949D01*
X120083609Y-100284013D01*
X120153757Y-100342149D01*
X120202305Y-100411852D01*
X120208975Y-100427502D01*
X120218124Y-100468496D01*
X120224529Y-100529138D01*
X120226710Y-100590430D01*
X120226710Y-100706316D01*
X119984407Y-100706316D01*
X119884471Y-100706693D01*
X119814069Y-100708987D01*
X119769313Y-100714938D01*
X119746315Y-100726285D01*
X119741189Y-100744771D01*
X119750048Y-100772136D01*
X119765917Y-100804155D01*
X119810184Y-100857592D01*
X119871699Y-100884215D01*
X119946885Y-100883347D01*
X120032053Y-100854371D01*
X120105659Y-100818611D01*
X120166734Y-100866904D01*
X120227810Y-100915197D01*
X120170351Y-100968285D01*
X120093641Y-101018445D01*
X119999302Y-101048688D01*
X119897827Y-101057151D01*
X119799711Y-101041974D01*
X119783881Y-101036824D01*
X119697647Y-100991791D01*
X119633501Y-100924652D01*
X119590091Y-100833405D01*
X119566064Y-100716044D01*
X119565784Y-100713529D01*
X119563633Y-100585627D01*
X119572329Y-100539997D01*
X119742105Y-100539997D01*
X119757697Y-100547013D01*
X119800029Y-100552388D01*
X119862434Y-100555457D01*
X119901981Y-100555921D01*
X119975728Y-100555630D01*
X120021840Y-100553783D01*
X120046100Y-100548912D01*
X120054294Y-100539555D01*
X120052206Y-100524245D01*
X120050455Y-100518322D01*
X120020560Y-100462668D01*
X119973542Y-100417815D01*
X119932049Y-100398105D01*
X119876926Y-100399295D01*
X119821068Y-100423875D01*
X119774212Y-100464570D01*
X119746094Y-100514108D01*
X119742105Y-100539997D01*
X119572329Y-100539997D01*
X119585074Y-100473133D01*
X119627611Y-100378727D01*
X119688747Y-100305088D01*
X119765985Y-100254893D01*
X119856830Y-100230822D01*
X119958784Y-100235554D01*
X119958784Y-100235554D01*
G37*
X119958784Y-100235554D02*
X120001574Y-100245949D01*
X120083609Y-100284013D01*
X120153757Y-100342149D01*
X120202305Y-100411852D01*
X120208975Y-100427502D01*
X120218124Y-100468496D01*
X120224529Y-100529138D01*
X120226710Y-100590430D01*
X120226710Y-100706316D01*
X119984407Y-100706316D01*
X119884471Y-100706693D01*
X119814069Y-100708987D01*
X119769313Y-100714938D01*
X119746315Y-100726285D01*
X119741189Y-100744771D01*
X119750048Y-100772136D01*
X119765917Y-100804155D01*
X119810184Y-100857592D01*
X119871699Y-100884215D01*
X119946885Y-100883347D01*
X120032053Y-100854371D01*
X120105659Y-100818611D01*
X120166734Y-100866904D01*
X120227810Y-100915197D01*
X120170351Y-100968285D01*
X120093641Y-101018445D01*
X119999302Y-101048688D01*
X119897827Y-101057151D01*
X119799711Y-101041974D01*
X119783881Y-101036824D01*
X119697647Y-100991791D01*
X119633501Y-100924652D01*
X119590091Y-100833405D01*
X119566064Y-100716044D01*
X119565784Y-100713529D01*
X119563633Y-100585627D01*
X119572329Y-100539997D01*
X119742105Y-100539997D01*
X119757697Y-100547013D01*
X119800029Y-100552388D01*
X119862434Y-100555457D01*
X119901981Y-100555921D01*
X119975728Y-100555630D01*
X120021840Y-100553783D01*
X120046100Y-100548912D01*
X120054294Y-100539555D01*
X120052206Y-100524245D01*
X120050455Y-100518322D01*
X120020560Y-100462668D01*
X119973542Y-100417815D01*
X119932049Y-100398105D01*
X119876926Y-100399295D01*
X119821068Y-100423875D01*
X119774212Y-100464570D01*
X119746094Y-100514108D01*
X119742105Y-100539997D01*
X119572329Y-100539997D01*
X119585074Y-100473133D01*
X119627611Y-100378727D01*
X119688747Y-100305088D01*
X119765985Y-100254893D01*
X119856830Y-100230822D01*
X119958784Y-100235554D01*
G36*
X119346576Y-100245419D02*
X119443395Y-100286549D01*
X119473890Y-100306571D01*
X119512865Y-100337340D01*
X119537331Y-100361533D01*
X119541578Y-100369413D01*
X119529584Y-100386899D01*
X119498887Y-100416570D01*
X119474312Y-100437279D01*
X119407046Y-100491336D01*
X119353930Y-100446642D01*
X119312884Y-100417789D01*
X119272863Y-100407829D01*
X119227059Y-100410261D01*
X119154324Y-100428345D01*
X119104256Y-100465881D01*
X119073829Y-100526562D01*
X119060017Y-100614081D01*
X119060013Y-100614136D01*
X119061208Y-100711958D01*
X119079772Y-100783730D01*
X119116804Y-100832595D01*
X119142050Y-100849143D01*
X119209097Y-100869749D01*
X119280709Y-100869762D01*
X119343015Y-100849768D01*
X119357763Y-100840000D01*
X119394750Y-100815047D01*
X119423668Y-100810958D01*
X119454856Y-100829530D01*
X119489336Y-100862887D01*
X119543912Y-100919196D01*
X119483318Y-100969142D01*
X119389698Y-101025513D01*
X119284125Y-101053293D01*
X119173798Y-101051282D01*
X119101343Y-101032862D01*
X119016656Y-100987310D01*
X118948927Y-100915650D01*
X118918157Y-100865066D01*
X118893236Y-100792488D01*
X118880766Y-100700569D01*
X118880670Y-100600948D01*
X118892870Y-100505267D01*
X118917290Y-100425169D01*
X118921136Y-100416956D01*
X118978093Y-100336413D01*
X119055209Y-100277771D01*
X119146390Y-100242247D01*
X119245543Y-100231057D01*
X119346576Y-100245419D01*
X119346576Y-100245419D01*
G37*
X119346576Y-100245419D02*
X119443395Y-100286549D01*
X119473890Y-100306571D01*
X119512865Y-100337340D01*
X119537331Y-100361533D01*
X119541578Y-100369413D01*
X119529584Y-100386899D01*
X119498887Y-100416570D01*
X119474312Y-100437279D01*
X119407046Y-100491336D01*
X119353930Y-100446642D01*
X119312884Y-100417789D01*
X119272863Y-100407829D01*
X119227059Y-100410261D01*
X119154324Y-100428345D01*
X119104256Y-100465881D01*
X119073829Y-100526562D01*
X119060017Y-100614081D01*
X119060013Y-100614136D01*
X119061208Y-100711958D01*
X119079772Y-100783730D01*
X119116804Y-100832595D01*
X119142050Y-100849143D01*
X119209097Y-100869749D01*
X119280709Y-100869762D01*
X119343015Y-100849768D01*
X119357763Y-100840000D01*
X119394750Y-100815047D01*
X119423668Y-100810958D01*
X119454856Y-100829530D01*
X119489336Y-100862887D01*
X119543912Y-100919196D01*
X119483318Y-100969142D01*
X119389698Y-101025513D01*
X119284125Y-101053293D01*
X119173798Y-101051282D01*
X119101343Y-101032862D01*
X119016656Y-100987310D01*
X118948927Y-100915650D01*
X118918157Y-100865066D01*
X118893236Y-100792488D01*
X118880766Y-100700569D01*
X118880670Y-100600948D01*
X118892870Y-100505267D01*
X118917290Y-100425169D01*
X118921136Y-100416956D01*
X118978093Y-100336413D01*
X119055209Y-100277771D01*
X119146390Y-100242247D01*
X119245543Y-100231057D01*
X119346576Y-100245419D01*
G36*
X117720131Y-100498533D02*
X117721710Y-100621089D01*
X117727481Y-100714179D01*
X117738991Y-100781651D01*
X117757790Y-100827355D01*
X117785426Y-100855139D01*
X117823448Y-100868854D01*
X117870526Y-100872358D01*
X117919832Y-100868432D01*
X117957283Y-100854089D01*
X117984428Y-100825478D01*
X118002815Y-100778751D01*
X118013993Y-100710058D01*
X118019511Y-100615550D01*
X118020921Y-100498533D01*
X118020921Y-100238421D01*
X118204736Y-100238421D01*
X118204736Y-101040526D01*
X118112828Y-101040526D01*
X118057422Y-101038281D01*
X118028891Y-101030396D01*
X118020921Y-101015428D01*
X118016120Y-101002097D01*
X117997014Y-101004917D01*
X117958504Y-101023783D01*
X117870239Y-101052887D01*
X117776623Y-101050825D01*
X117686921Y-101019221D01*
X117644204Y-100994257D01*
X117611621Y-100967226D01*
X117587817Y-100933405D01*
X117571439Y-100888068D01*
X117561131Y-100826489D01*
X117555541Y-100743943D01*
X117553312Y-100635705D01*
X117553026Y-100552004D01*
X117553026Y-100238421D01*
X117720131Y-100238421D01*
X117720131Y-100498533D01*
X117720131Y-100498533D01*
G37*
X117720131Y-100498533D02*
X117721710Y-100621089D01*
X117727481Y-100714179D01*
X117738991Y-100781651D01*
X117757790Y-100827355D01*
X117785426Y-100855139D01*
X117823448Y-100868854D01*
X117870526Y-100872358D01*
X117919832Y-100868432D01*
X117957283Y-100854089D01*
X117984428Y-100825478D01*
X118002815Y-100778751D01*
X118013993Y-100710058D01*
X118019511Y-100615550D01*
X118020921Y-100498533D01*
X118020921Y-100238421D01*
X118204736Y-100238421D01*
X118204736Y-101040526D01*
X118112828Y-101040526D01*
X118057422Y-101038281D01*
X118028891Y-101030396D01*
X118020921Y-101015428D01*
X118016120Y-101002097D01*
X117997014Y-101004917D01*
X117958504Y-101023783D01*
X117870239Y-101052887D01*
X117776623Y-101050825D01*
X117686921Y-101019221D01*
X117644204Y-100994257D01*
X117611621Y-100967226D01*
X117587817Y-100933405D01*
X117571439Y-100888068D01*
X117561131Y-100826489D01*
X117555541Y-100743943D01*
X117553312Y-100635705D01*
X117553026Y-100552004D01*
X117553026Y-100238421D01*
X117720131Y-100238421D01*
X117720131Y-100498533D01*
G36*
X117211669Y-100248310D02*
X117296192Y-100294340D01*
X117362321Y-100367006D01*
X117393478Y-100426106D01*
X117406855Y-100478305D01*
X117415522Y-100552719D01*
X117419237Y-100638442D01*
X117417754Y-100724569D01*
X117410831Y-100800193D01*
X117402745Y-100840584D01*
X117375465Y-100895840D01*
X117328220Y-100954530D01*
X117271282Y-101005852D01*
X117214924Y-101039005D01*
X117213550Y-101039531D01*
X117143616Y-101054018D01*
X117060737Y-101054377D01*
X116981977Y-101041188D01*
X116951566Y-101030617D01*
X116873239Y-100986201D01*
X116817143Y-100928007D01*
X116780286Y-100850965D01*
X116759680Y-100750001D01*
X116755018Y-100697116D01*
X116755613Y-100630663D01*
X116934736Y-100630663D01*
X116940770Y-100727630D01*
X116958138Y-100801523D01*
X116985740Y-100848736D01*
X117005404Y-100862237D01*
X117055787Y-100871651D01*
X117115673Y-100868864D01*
X117167449Y-100855316D01*
X117181027Y-100847862D01*
X117216849Y-100804451D01*
X117240493Y-100738014D01*
X117250558Y-100657161D01*
X117245642Y-100570502D01*
X117234655Y-100518349D01*
X117203109Y-100457951D01*
X117153311Y-100420197D01*
X117093337Y-100407143D01*
X117031264Y-100420849D01*
X116983582Y-100454372D01*
X116958525Y-100482031D01*
X116943900Y-100509294D01*
X116936929Y-100546190D01*
X116934833Y-100602750D01*
X116934736Y-100630663D01*
X116755613Y-100630663D01*
X116756282Y-100555994D01*
X116779265Y-100440271D01*
X116823972Y-100349941D01*
X116890405Y-100285000D01*
X116978565Y-100245445D01*
X116997495Y-100240858D01*
X117111266Y-100230090D01*
X117211669Y-100248310D01*
X117211669Y-100248310D01*
G37*
X117211669Y-100248310D02*
X117296192Y-100294340D01*
X117362321Y-100367006D01*
X117393478Y-100426106D01*
X117406855Y-100478305D01*
X117415522Y-100552719D01*
X117419237Y-100638442D01*
X117417754Y-100724569D01*
X117410831Y-100800193D01*
X117402745Y-100840584D01*
X117375465Y-100895840D01*
X117328220Y-100954530D01*
X117271282Y-101005852D01*
X117214924Y-101039005D01*
X117213550Y-101039531D01*
X117143616Y-101054018D01*
X117060737Y-101054377D01*
X116981977Y-101041188D01*
X116951566Y-101030617D01*
X116873239Y-100986201D01*
X116817143Y-100928007D01*
X116780286Y-100850965D01*
X116759680Y-100750001D01*
X116755018Y-100697116D01*
X116755613Y-100630663D01*
X116934736Y-100630663D01*
X116940770Y-100727630D01*
X116958138Y-100801523D01*
X116985740Y-100848736D01*
X117005404Y-100862237D01*
X117055787Y-100871651D01*
X117115673Y-100868864D01*
X117167449Y-100855316D01*
X117181027Y-100847862D01*
X117216849Y-100804451D01*
X117240493Y-100738014D01*
X117250558Y-100657161D01*
X117245642Y-100570502D01*
X117234655Y-100518349D01*
X117203109Y-100457951D01*
X117153311Y-100420197D01*
X117093337Y-100407143D01*
X117031264Y-100420849D01*
X116983582Y-100454372D01*
X116958525Y-100482031D01*
X116943900Y-100509294D01*
X116936929Y-100546190D01*
X116934833Y-100602750D01*
X116934736Y-100630663D01*
X116755613Y-100630663D01*
X116756282Y-100555994D01*
X116779265Y-100440271D01*
X116823972Y-100349941D01*
X116890405Y-100285000D01*
X116978565Y-100245445D01*
X116997495Y-100240858D01*
X117111266Y-100230090D01*
X117211669Y-100248310D01*
G36*
X116418628Y-100235547D02*
X116481908Y-100247548D01*
X116547557Y-100272648D01*
X116554572Y-100275848D01*
X116604356Y-100302026D01*
X116638834Y-100326353D01*
X116649978Y-100341937D01*
X116639366Y-100367353D01*
X116613588Y-100404853D01*
X116602146Y-100418852D01*
X116554992Y-100473954D01*
X116494201Y-100438086D01*
X116436347Y-100414192D01*
X116369500Y-100401420D01*
X116305394Y-100400613D01*
X116255764Y-100412615D01*
X116243854Y-100420105D01*
X116221172Y-100454450D01*
X116218416Y-100494013D01*
X116235388Y-100524920D01*
X116245427Y-100530913D01*
X116275510Y-100538357D01*
X116328389Y-100547106D01*
X116393575Y-100555467D01*
X116405600Y-100556778D01*
X116510297Y-100574888D01*
X116586232Y-100605651D01*
X116636592Y-100651907D01*
X116664564Y-100716497D01*
X116673278Y-100795387D01*
X116661240Y-100885065D01*
X116622151Y-100955486D01*
X116555855Y-101006777D01*
X116462194Y-101039067D01*
X116358223Y-101051807D01*
X116273438Y-101051654D01*
X116204665Y-101040083D01*
X116157697Y-101024109D01*
X116098350Y-100996275D01*
X116043506Y-100963973D01*
X116024013Y-100949755D01*
X115973881Y-100908835D01*
X116094803Y-100786477D01*
X116163543Y-100831967D01*
X116232488Y-100866133D01*
X116306111Y-100884004D01*
X116376883Y-100885889D01*
X116437274Y-100872101D01*
X116479757Y-100842949D01*
X116493474Y-100818352D01*
X116491417Y-100778904D01*
X116457330Y-100748737D01*
X116391308Y-100727906D01*
X116318974Y-100718279D01*
X116207652Y-100699910D01*
X116124952Y-100665254D01*
X116069765Y-100613297D01*
X116040988Y-100543023D01*
X116037001Y-100459707D01*
X116056693Y-100372681D01*
X116101589Y-100306902D01*
X116172091Y-100262068D01*
X116268601Y-100237879D01*
X116340100Y-100233137D01*
X116418628Y-100235547D01*
X116418628Y-100235547D01*
G37*
X116418628Y-100235547D02*
X116481908Y-100247548D01*
X116547557Y-100272648D01*
X116554572Y-100275848D01*
X116604356Y-100302026D01*
X116638834Y-100326353D01*
X116649978Y-100341937D01*
X116639366Y-100367353D01*
X116613588Y-100404853D01*
X116602146Y-100418852D01*
X116554992Y-100473954D01*
X116494201Y-100438086D01*
X116436347Y-100414192D01*
X116369500Y-100401420D01*
X116305394Y-100400613D01*
X116255764Y-100412615D01*
X116243854Y-100420105D01*
X116221172Y-100454450D01*
X116218416Y-100494013D01*
X116235388Y-100524920D01*
X116245427Y-100530913D01*
X116275510Y-100538357D01*
X116328389Y-100547106D01*
X116393575Y-100555467D01*
X116405600Y-100556778D01*
X116510297Y-100574888D01*
X116586232Y-100605651D01*
X116636592Y-100651907D01*
X116664564Y-100716497D01*
X116673278Y-100795387D01*
X116661240Y-100885065D01*
X116622151Y-100955486D01*
X116555855Y-101006777D01*
X116462194Y-101039067D01*
X116358223Y-101051807D01*
X116273438Y-101051654D01*
X116204665Y-101040083D01*
X116157697Y-101024109D01*
X116098350Y-100996275D01*
X116043506Y-100963973D01*
X116024013Y-100949755D01*
X115973881Y-100908835D01*
X116094803Y-100786477D01*
X116163543Y-100831967D01*
X116232488Y-100866133D01*
X116306111Y-100884004D01*
X116376883Y-100885889D01*
X116437274Y-100872101D01*
X116479757Y-100842949D01*
X116493474Y-100818352D01*
X116491417Y-100778904D01*
X116457330Y-100748737D01*
X116391308Y-100727906D01*
X116318974Y-100718279D01*
X116207652Y-100699910D01*
X116124952Y-100665254D01*
X116069765Y-100613297D01*
X116040988Y-100543023D01*
X116037001Y-100459707D01*
X116056693Y-100372681D01*
X116101589Y-100306902D01*
X116172091Y-100262068D01*
X116268601Y-100237879D01*
X116340100Y-100233137D01*
X116418628Y-100235547D01*
G36*
X114597018Y-100257027D02*
X114613670Y-100264866D01*
X114671305Y-100307086D01*
X114725805Y-100368700D01*
X114766499Y-100436543D01*
X114778074Y-100467734D01*
X114788634Y-100523449D01*
X114794931Y-100590781D01*
X114795696Y-100618585D01*
X114795789Y-100706316D01*
X114290850Y-100706316D01*
X114301613Y-100752270D01*
X114328033Y-100806620D01*
X114374222Y-100853591D01*
X114429172Y-100883848D01*
X114464189Y-100890131D01*
X114511677Y-100882506D01*
X114568335Y-100863383D01*
X114587582Y-100854584D01*
X114658759Y-100819036D01*
X114719502Y-100865367D01*
X114754552Y-100896703D01*
X114773202Y-100922567D01*
X114774147Y-100930158D01*
X114757485Y-100948556D01*
X114720970Y-100976515D01*
X114687828Y-100998327D01*
X114598393Y-101037537D01*
X114498129Y-101055285D01*
X114398754Y-101050670D01*
X114319539Y-101026551D01*
X114237880Y-100974884D01*
X114179849Y-100906856D01*
X114143546Y-100818843D01*
X114127072Y-100707216D01*
X114125611Y-100656138D01*
X114131457Y-100539091D01*
X114132175Y-100535686D01*
X114299489Y-100535686D01*
X114304097Y-100546662D01*
X114323036Y-100552715D01*
X114362098Y-100555310D01*
X114427077Y-100555910D01*
X114452097Y-100555921D01*
X114528221Y-100555014D01*
X114576496Y-100551720D01*
X114602460Y-100545181D01*
X114611648Y-100534537D01*
X114611973Y-100531119D01*
X114601487Y-100503956D01*
X114575242Y-100465903D01*
X114563959Y-100452579D01*
X114522072Y-100414896D01*
X114478409Y-100400080D01*
X114454885Y-100398842D01*
X114391243Y-100414329D01*
X114337873Y-100455930D01*
X114304019Y-100516353D01*
X114303419Y-100518322D01*
X114299489Y-100535686D01*
X114132175Y-100535686D01*
X114150899Y-100446928D01*
X114185922Y-100373190D01*
X114228756Y-100320848D01*
X114307948Y-100264092D01*
X114401040Y-100233762D01*
X114500055Y-100231021D01*
X114597018Y-100257027D01*
X114597018Y-100257027D01*
G37*
X114597018Y-100257027D02*
X114613670Y-100264866D01*
X114671305Y-100307086D01*
X114725805Y-100368700D01*
X114766499Y-100436543D01*
X114778074Y-100467734D01*
X114788634Y-100523449D01*
X114794931Y-100590781D01*
X114795696Y-100618585D01*
X114795789Y-100706316D01*
X114290850Y-100706316D01*
X114301613Y-100752270D01*
X114328033Y-100806620D01*
X114374222Y-100853591D01*
X114429172Y-100883848D01*
X114464189Y-100890131D01*
X114511677Y-100882506D01*
X114568335Y-100863383D01*
X114587582Y-100854584D01*
X114658759Y-100819036D01*
X114719502Y-100865367D01*
X114754552Y-100896703D01*
X114773202Y-100922567D01*
X114774147Y-100930158D01*
X114757485Y-100948556D01*
X114720970Y-100976515D01*
X114687828Y-100998327D01*
X114598393Y-101037537D01*
X114498129Y-101055285D01*
X114398754Y-101050670D01*
X114319539Y-101026551D01*
X114237880Y-100974884D01*
X114179849Y-100906856D01*
X114143546Y-100818843D01*
X114127072Y-100707216D01*
X114125611Y-100656138D01*
X114131457Y-100539091D01*
X114132175Y-100535686D01*
X114299489Y-100535686D01*
X114304097Y-100546662D01*
X114323036Y-100552715D01*
X114362098Y-100555310D01*
X114427077Y-100555910D01*
X114452097Y-100555921D01*
X114528221Y-100555014D01*
X114576496Y-100551720D01*
X114602460Y-100545181D01*
X114611648Y-100534537D01*
X114611973Y-100531119D01*
X114601487Y-100503956D01*
X114575242Y-100465903D01*
X114563959Y-100452579D01*
X114522072Y-100414896D01*
X114478409Y-100400080D01*
X114454885Y-100398842D01*
X114391243Y-100414329D01*
X114337873Y-100455930D01*
X114304019Y-100516353D01*
X114303419Y-100518322D01*
X114299489Y-100535686D01*
X114132175Y-100535686D01*
X114150899Y-100446928D01*
X114185922Y-100373190D01*
X114228756Y-100320848D01*
X114307948Y-100264092D01*
X114401040Y-100233762D01*
X114500055Y-100231021D01*
X114597018Y-100257027D01*
G36*
X113026784Y-100247104D02*
X113114205Y-100285754D01*
X113180570Y-100350290D01*
X113225976Y-100440812D01*
X113250518Y-100557418D01*
X113252277Y-100575624D01*
X113253656Y-100703984D01*
X113235784Y-100816496D01*
X113199750Y-100907688D01*
X113180455Y-100937022D01*
X113113245Y-100999106D01*
X113027650Y-101039316D01*
X112931890Y-101056003D01*
X112834187Y-101047517D01*
X112759917Y-101021380D01*
X112696047Y-100977335D01*
X112643846Y-100919587D01*
X112642943Y-100918236D01*
X112621744Y-100882593D01*
X112607967Y-100846752D01*
X112599624Y-100801519D01*
X112594727Y-100737701D01*
X112592569Y-100685368D01*
X112591671Y-100637910D01*
X112758743Y-100637910D01*
X112760376Y-100685154D01*
X112766304Y-100748046D01*
X112776761Y-100788407D01*
X112795619Y-100817122D01*
X112813281Y-100833896D01*
X112875894Y-100869016D01*
X112941408Y-100873710D01*
X113002421Y-100848440D01*
X113032928Y-100820124D01*
X113054911Y-100791589D01*
X113067769Y-100764284D01*
X113073412Y-100728750D01*
X113073751Y-100675524D01*
X113072012Y-100626506D01*
X113068271Y-100556482D01*
X113062341Y-100511064D01*
X113051653Y-100481440D01*
X113033639Y-100458797D01*
X113019363Y-100445855D01*
X112959651Y-100411860D01*
X112895234Y-100410165D01*
X112841219Y-100430301D01*
X112795140Y-100472352D01*
X112767689Y-100541428D01*
X112758743Y-100637910D01*
X112591671Y-100637910D01*
X112590599Y-100581299D01*
X112593964Y-100503468D01*
X112604045Y-100444930D01*
X112622226Y-100398737D01*
X112649890Y-100357942D01*
X112660146Y-100345828D01*
X112724278Y-100285474D01*
X112793066Y-100250220D01*
X112877189Y-100235450D01*
X112918209Y-100234243D01*
X113026784Y-100247104D01*
X113026784Y-100247104D01*
G37*
X113026784Y-100247104D02*
X113114205Y-100285754D01*
X113180570Y-100350290D01*
X113225976Y-100440812D01*
X113250518Y-100557418D01*
X113252277Y-100575624D01*
X113253656Y-100703984D01*
X113235784Y-100816496D01*
X113199750Y-100907688D01*
X113180455Y-100937022D01*
X113113245Y-100999106D01*
X113027650Y-101039316D01*
X112931890Y-101056003D01*
X112834187Y-101047517D01*
X112759917Y-101021380D01*
X112696047Y-100977335D01*
X112643846Y-100919587D01*
X112642943Y-100918236D01*
X112621744Y-100882593D01*
X112607967Y-100846752D01*
X112599624Y-100801519D01*
X112594727Y-100737701D01*
X112592569Y-100685368D01*
X112591671Y-100637910D01*
X112758743Y-100637910D01*
X112760376Y-100685154D01*
X112766304Y-100748046D01*
X112776761Y-100788407D01*
X112795619Y-100817122D01*
X112813281Y-100833896D01*
X112875894Y-100869016D01*
X112941408Y-100873710D01*
X113002421Y-100848440D01*
X113032928Y-100820124D01*
X113054911Y-100791589D01*
X113067769Y-100764284D01*
X113073412Y-100728750D01*
X113073751Y-100675524D01*
X113072012Y-100626506D01*
X113068271Y-100556482D01*
X113062341Y-100511064D01*
X113051653Y-100481440D01*
X113033639Y-100458797D01*
X113019363Y-100445855D01*
X112959651Y-100411860D01*
X112895234Y-100410165D01*
X112841219Y-100430301D01*
X112795140Y-100472352D01*
X112767689Y-100541428D01*
X112758743Y-100637910D01*
X112591671Y-100637910D01*
X112590599Y-100581299D01*
X112593964Y-100503468D01*
X112604045Y-100444930D01*
X112622226Y-100398737D01*
X112649890Y-100357942D01*
X112660146Y-100345828D01*
X112724278Y-100285474D01*
X112793066Y-100250220D01*
X112877189Y-100235450D01*
X112918209Y-100234243D01*
X113026784Y-100247104D01*
G36*
X119101193Y-101496078D02*
X119181068Y-101516845D01*
X119247962Y-101559705D01*
X119280351Y-101591723D01*
X119333445Y-101667413D01*
X119363873Y-101755216D01*
X119374327Y-101863150D01*
X119374380Y-101871875D01*
X119374473Y-101959605D01*
X118869534Y-101959605D01*
X118880298Y-102005559D01*
X118899732Y-102047178D01*
X118933745Y-102090544D01*
X118940860Y-102097467D01*
X119002003Y-102134935D01*
X119071729Y-102141289D01*
X119151987Y-102116638D01*
X119165592Y-102110000D01*
X119207319Y-102089819D01*
X119235268Y-102078321D01*
X119240145Y-102077258D01*
X119257168Y-102087583D01*
X119289633Y-102112845D01*
X119306114Y-102126650D01*
X119340264Y-102158361D01*
X119351478Y-102179299D01*
X119343695Y-102198560D01*
X119339535Y-102203827D01*
X119311357Y-102226878D01*
X119264862Y-102254892D01*
X119232434Y-102271246D01*
X119140385Y-102300059D01*
X119038476Y-102309395D01*
X118941963Y-102298332D01*
X118914934Y-102290412D01*
X118831276Y-102245581D01*
X118769266Y-102176598D01*
X118728545Y-102082794D01*
X118708755Y-101963498D01*
X118706582Y-101901118D01*
X118712926Y-101810298D01*
X118873157Y-101810298D01*
X118888655Y-101817012D01*
X118930312Y-101822280D01*
X118990876Y-101825389D01*
X119031907Y-101825921D01*
X119105711Y-101825408D01*
X119152293Y-101823006D01*
X119177848Y-101817422D01*
X119188569Y-101807361D01*
X119190657Y-101792763D01*
X119176331Y-101747796D01*
X119140262Y-101703353D01*
X119092815Y-101669242D01*
X119045349Y-101655288D01*
X118980879Y-101667666D01*
X118925070Y-101703452D01*
X118886374Y-101755033D01*
X118873157Y-101810298D01*
X118712926Y-101810298D01*
X118715821Y-101768866D01*
X118744336Y-101663498D01*
X118792729Y-101584178D01*
X118861604Y-101530071D01*
X118951565Y-101500343D01*
X119000300Y-101494618D01*
X119101193Y-101496078D01*
X119101193Y-101496078D01*
G37*
X119101193Y-101496078D02*
X119181068Y-101516845D01*
X119247962Y-101559705D01*
X119280351Y-101591723D01*
X119333445Y-101667413D01*
X119363873Y-101755216D01*
X119374327Y-101863150D01*
X119374380Y-101871875D01*
X119374473Y-101959605D01*
X118869534Y-101959605D01*
X118880298Y-102005559D01*
X118899732Y-102047178D01*
X118933745Y-102090544D01*
X118940860Y-102097467D01*
X119002003Y-102134935D01*
X119071729Y-102141289D01*
X119151987Y-102116638D01*
X119165592Y-102110000D01*
X119207319Y-102089819D01*
X119235268Y-102078321D01*
X119240145Y-102077258D01*
X119257168Y-102087583D01*
X119289633Y-102112845D01*
X119306114Y-102126650D01*
X119340264Y-102158361D01*
X119351478Y-102179299D01*
X119343695Y-102198560D01*
X119339535Y-102203827D01*
X119311357Y-102226878D01*
X119264862Y-102254892D01*
X119232434Y-102271246D01*
X119140385Y-102300059D01*
X119038476Y-102309395D01*
X118941963Y-102298332D01*
X118914934Y-102290412D01*
X118831276Y-102245581D01*
X118769266Y-102176598D01*
X118728545Y-102082794D01*
X118708755Y-101963498D01*
X118706582Y-101901118D01*
X118712926Y-101810298D01*
X118873157Y-101810298D01*
X118888655Y-101817012D01*
X118930312Y-101822280D01*
X118990876Y-101825389D01*
X119031907Y-101825921D01*
X119105711Y-101825408D01*
X119152293Y-101823006D01*
X119177848Y-101817422D01*
X119188569Y-101807361D01*
X119190657Y-101792763D01*
X119176331Y-101747796D01*
X119140262Y-101703353D01*
X119092815Y-101669242D01*
X119045349Y-101655288D01*
X118980879Y-101667666D01*
X118925070Y-101703452D01*
X118886374Y-101755033D01*
X118873157Y-101810298D01*
X118712926Y-101810298D01*
X118715821Y-101768866D01*
X118744336Y-101663498D01*
X118792729Y-101584178D01*
X118861604Y-101530071D01*
X118951565Y-101500343D01*
X119000300Y-101494618D01*
X119101193Y-101496078D01*
G36*
X118573167Y-101491447D02*
X118637408Y-101504112D01*
X118673980Y-101522864D01*
X118712453Y-101554017D01*
X118657717Y-101623127D01*
X118623969Y-101664979D01*
X118601053Y-101685398D01*
X118578279Y-101688517D01*
X118544956Y-101678472D01*
X118529314Y-101672789D01*
X118465542Y-101664404D01*
X118407140Y-101682378D01*
X118364264Y-101722982D01*
X118357299Y-101735929D01*
X118349713Y-101770224D01*
X118343859Y-101833427D01*
X118340011Y-101921060D01*
X118338443Y-102028640D01*
X118338421Y-102043944D01*
X118338421Y-102310526D01*
X118154605Y-102310526D01*
X118154605Y-101491710D01*
X118246513Y-101491710D01*
X118299507Y-101493094D01*
X118327115Y-101499252D01*
X118337324Y-101513194D01*
X118338421Y-101526344D01*
X118338421Y-101560978D01*
X118382450Y-101526344D01*
X118432937Y-101502716D01*
X118500760Y-101491033D01*
X118573167Y-101491447D01*
X118573167Y-101491447D01*
G37*
X118573167Y-101491447D02*
X118637408Y-101504112D01*
X118673980Y-101522864D01*
X118712453Y-101554017D01*
X118657717Y-101623127D01*
X118623969Y-101664979D01*
X118601053Y-101685398D01*
X118578279Y-101688517D01*
X118544956Y-101678472D01*
X118529314Y-101672789D01*
X118465542Y-101664404D01*
X118407140Y-101682378D01*
X118364264Y-101722982D01*
X118357299Y-101735929D01*
X118349713Y-101770224D01*
X118343859Y-101833427D01*
X118340011Y-101921060D01*
X118338443Y-102028640D01*
X118338421Y-102043944D01*
X118338421Y-102310526D01*
X118154605Y-102310526D01*
X118154605Y-101491710D01*
X118246513Y-101491710D01*
X118299507Y-101493094D01*
X118327115Y-101499252D01*
X118337324Y-101513194D01*
X118338421Y-101526344D01*
X118338421Y-101560978D01*
X118382450Y-101526344D01*
X118432937Y-101502716D01*
X118500760Y-101491033D01*
X118573167Y-101491447D01*
G36*
X117779992Y-101496673D02*
X117850427Y-101513780D01*
X117870787Y-101522844D01*
X117910253Y-101546583D01*
X117940541Y-101573321D01*
X117962952Y-101607699D01*
X117978786Y-101654360D01*
X117989343Y-101717946D01*
X117995924Y-101803099D01*
X117999828Y-101914462D01*
X118001310Y-101988849D01*
X118006765Y-102310526D01*
X117913580Y-102310526D01*
X117857047Y-102308156D01*
X117827922Y-102300055D01*
X117820394Y-102286451D01*
X117816420Y-102271741D01*
X117798652Y-102274554D01*
X117774440Y-102286348D01*
X117713828Y-102304427D01*
X117635929Y-102309299D01*
X117553995Y-102301330D01*
X117481281Y-102280889D01*
X117474759Y-102278051D01*
X117408302Y-102231365D01*
X117364491Y-102166464D01*
X117344332Y-102090600D01*
X117345872Y-102063344D01*
X117510345Y-102063344D01*
X117524837Y-102100024D01*
X117567805Y-102126309D01*
X117637129Y-102140417D01*
X117674177Y-102142290D01*
X117735919Y-102137494D01*
X117776960Y-102118858D01*
X117786973Y-102110000D01*
X117814100Y-102061806D01*
X117820394Y-102018092D01*
X117820394Y-101959605D01*
X117738930Y-101959605D01*
X117644234Y-101964432D01*
X117577813Y-101979613D01*
X117535846Y-102006200D01*
X117526449Y-102018052D01*
X117510345Y-102063344D01*
X117345872Y-102063344D01*
X117348829Y-102011026D01*
X117378985Y-101934995D01*
X117420131Y-101883612D01*
X117445052Y-101861397D01*
X117469448Y-101846798D01*
X117501191Y-101837897D01*
X117548152Y-101832775D01*
X117618204Y-101829515D01*
X117645990Y-101828577D01*
X117820394Y-101822879D01*
X117820138Y-101770091D01*
X117813384Y-101714603D01*
X117788964Y-101681052D01*
X117739630Y-101659618D01*
X117738306Y-101659236D01*
X117668360Y-101650808D01*
X117599914Y-101661816D01*
X117549047Y-101688585D01*
X117528637Y-101701803D01*
X117506654Y-101699974D01*
X117472826Y-101680824D01*
X117452961Y-101667308D01*
X117414106Y-101638432D01*
X117390038Y-101616786D01*
X117386176Y-101610589D01*
X117402079Y-101578519D01*
X117449065Y-101540219D01*
X117469473Y-101527297D01*
X117528143Y-101505041D01*
X117607212Y-101492432D01*
X117695041Y-101489600D01*
X117779992Y-101496673D01*
X117779992Y-101496673D01*
G37*
X117779992Y-101496673D02*
X117850427Y-101513780D01*
X117870787Y-101522844D01*
X117910253Y-101546583D01*
X117940541Y-101573321D01*
X117962952Y-101607699D01*
X117978786Y-101654360D01*
X117989343Y-101717946D01*
X117995924Y-101803099D01*
X117999828Y-101914462D01*
X118001310Y-101988849D01*
X118006765Y-102310526D01*
X117913580Y-102310526D01*
X117857047Y-102308156D01*
X117827922Y-102300055D01*
X117820394Y-102286451D01*
X117816420Y-102271741D01*
X117798652Y-102274554D01*
X117774440Y-102286348D01*
X117713828Y-102304427D01*
X117635929Y-102309299D01*
X117553995Y-102301330D01*
X117481281Y-102280889D01*
X117474759Y-102278051D01*
X117408302Y-102231365D01*
X117364491Y-102166464D01*
X117344332Y-102090600D01*
X117345872Y-102063344D01*
X117510345Y-102063344D01*
X117524837Y-102100024D01*
X117567805Y-102126309D01*
X117637129Y-102140417D01*
X117674177Y-102142290D01*
X117735919Y-102137494D01*
X117776960Y-102118858D01*
X117786973Y-102110000D01*
X117814100Y-102061806D01*
X117820394Y-102018092D01*
X117820394Y-101959605D01*
X117738930Y-101959605D01*
X117644234Y-101964432D01*
X117577813Y-101979613D01*
X117535846Y-102006200D01*
X117526449Y-102018052D01*
X117510345Y-102063344D01*
X117345872Y-102063344D01*
X117348829Y-102011026D01*
X117378985Y-101934995D01*
X117420131Y-101883612D01*
X117445052Y-101861397D01*
X117469448Y-101846798D01*
X117501191Y-101837897D01*
X117548152Y-101832775D01*
X117618204Y-101829515D01*
X117645990Y-101828577D01*
X117820394Y-101822879D01*
X117820138Y-101770091D01*
X117813384Y-101714603D01*
X117788964Y-101681052D01*
X117739630Y-101659618D01*
X117738306Y-101659236D01*
X117668360Y-101650808D01*
X117599914Y-101661816D01*
X117549047Y-101688585D01*
X117528637Y-101701803D01*
X117506654Y-101699974D01*
X117472826Y-101680824D01*
X117452961Y-101667308D01*
X117414106Y-101638432D01*
X117390038Y-101616786D01*
X117386176Y-101610589D01*
X117402079Y-101578519D01*
X117449065Y-101540219D01*
X117469473Y-101527297D01*
X117528143Y-101505041D01*
X117607212Y-101492432D01*
X117695041Y-101489600D01*
X117779992Y-101496673D01*
G36*
X116774130Y-101495104D02*
X116840220Y-101500066D01*
X116926626Y-101759079D01*
X117013031Y-102018092D01*
X117040124Y-101926184D01*
X117056428Y-101869384D01*
X117077875Y-101792625D01*
X117101035Y-101708251D01*
X117113280Y-101662993D01*
X117159344Y-101491710D01*
X117349387Y-101491710D01*
X117292582Y-101671349D01*
X117264607Y-101759704D01*
X117230813Y-101866281D01*
X117195520Y-101977454D01*
X117164013Y-102076579D01*
X117092250Y-102302171D01*
X116937286Y-102312253D01*
X116895270Y-102173528D01*
X116869359Y-102087351D01*
X116841083Y-101992347D01*
X116816369Y-101908441D01*
X116815394Y-101905102D01*
X116796935Y-101848248D01*
X116780649Y-101809456D01*
X116769242Y-101794787D01*
X116766898Y-101796483D01*
X116758671Y-101819225D01*
X116743038Y-101867940D01*
X116721904Y-101936502D01*
X116697170Y-102018785D01*
X116683787Y-102064046D01*
X116611311Y-102310526D01*
X116457495Y-102310526D01*
X116334531Y-101922006D01*
X116299988Y-101813022D01*
X116268521Y-101714048D01*
X116241616Y-101629736D01*
X116220759Y-101564734D01*
X116207438Y-101523692D01*
X116203388Y-101511701D01*
X116206594Y-101499423D01*
X116231765Y-101494046D01*
X116284146Y-101494584D01*
X116292345Y-101494990D01*
X116389482Y-101500066D01*
X116453100Y-101734013D01*
X116476484Y-101819333D01*
X116497381Y-101894335D01*
X116513951Y-101952507D01*
X116524354Y-101987337D01*
X116526276Y-101993016D01*
X116534241Y-101986486D01*
X116550304Y-101952654D01*
X116572621Y-101896127D01*
X116599345Y-101821510D01*
X116621937Y-101754107D01*
X116708041Y-101490143D01*
X116774130Y-101495104D01*
X116774130Y-101495104D01*
G37*
X116774130Y-101495104D02*
X116840220Y-101500066D01*
X116926626Y-101759079D01*
X117013031Y-102018092D01*
X117040124Y-101926184D01*
X117056428Y-101869384D01*
X117077875Y-101792625D01*
X117101035Y-101708251D01*
X117113280Y-101662993D01*
X117159344Y-101491710D01*
X117349387Y-101491710D01*
X117292582Y-101671349D01*
X117264607Y-101759704D01*
X117230813Y-101866281D01*
X117195520Y-101977454D01*
X117164013Y-102076579D01*
X117092250Y-102302171D01*
X116937286Y-102312253D01*
X116895270Y-102173528D01*
X116869359Y-102087351D01*
X116841083Y-101992347D01*
X116816369Y-101908441D01*
X116815394Y-101905102D01*
X116796935Y-101848248D01*
X116780649Y-101809456D01*
X116769242Y-101794787D01*
X116766898Y-101796483D01*
X116758671Y-101819225D01*
X116743038Y-101867940D01*
X116721904Y-101936502D01*
X116697170Y-102018785D01*
X116683787Y-102064046D01*
X116611311Y-102310526D01*
X116457495Y-102310526D01*
X116334531Y-101922006D01*
X116299988Y-101813022D01*
X116268521Y-101714048D01*
X116241616Y-101629736D01*
X116220759Y-101564734D01*
X116207438Y-101523692D01*
X116203388Y-101511701D01*
X116206594Y-101499423D01*
X116231765Y-101494046D01*
X116284146Y-101494584D01*
X116292345Y-101494990D01*
X116389482Y-101500066D01*
X116453100Y-101734013D01*
X116476484Y-101819333D01*
X116497381Y-101894335D01*
X116513951Y-101952507D01*
X116524354Y-101987337D01*
X116526276Y-101993016D01*
X116534241Y-101986486D01*
X116550304Y-101952654D01*
X116572621Y-101896127D01*
X116599345Y-101821510D01*
X116621937Y-101754107D01*
X116708041Y-101490143D01*
X116774130Y-101495104D01*
G36*
X116132631Y-102310526D02*
X116040723Y-102310526D01*
X115987377Y-102308962D01*
X115959593Y-102302485D01*
X115949590Y-102288418D01*
X115948815Y-102278906D01*
X115947128Y-102259832D01*
X115936490Y-102256174D01*
X115908535Y-102267932D01*
X115886795Y-102278906D01*
X115803332Y-102304911D01*
X115712604Y-102306416D01*
X115638842Y-102287021D01*
X115570154Y-102240165D01*
X115517794Y-102171004D01*
X115489122Y-102089427D01*
X115488392Y-102084866D01*
X115484132Y-102035101D01*
X115482014Y-101963659D01*
X115482184Y-101909626D01*
X115664720Y-101909626D01*
X115668949Y-101981441D01*
X115678568Y-102040634D01*
X115691590Y-102074060D01*
X115740856Y-102119740D01*
X115799350Y-102136115D01*
X115859671Y-102122873D01*
X115911217Y-102083373D01*
X115930738Y-102056807D01*
X115942152Y-102025106D01*
X115947498Y-101978832D01*
X115948815Y-101909328D01*
X115946458Y-101840499D01*
X115940233Y-101780026D01*
X115931408Y-101739556D01*
X115929937Y-101735929D01*
X115894347Y-101692802D01*
X115842400Y-101669124D01*
X115784278Y-101665301D01*
X115730160Y-101681738D01*
X115690226Y-101718840D01*
X115686083Y-101726222D01*
X115673116Y-101771239D01*
X115666052Y-101835967D01*
X115664720Y-101909626D01*
X115482184Y-101909626D01*
X115482271Y-101882230D01*
X115483472Y-101838405D01*
X115491645Y-101729988D01*
X115508630Y-101648588D01*
X115536887Y-101588412D01*
X115578872Y-101543666D01*
X115619632Y-101517400D01*
X115676581Y-101498935D01*
X115747411Y-101492602D01*
X115819941Y-101497760D01*
X115881986Y-101513769D01*
X115914768Y-101532920D01*
X115948815Y-101563732D01*
X115948815Y-101174210D01*
X116132631Y-101174210D01*
X116132631Y-102310526D01*
X116132631Y-102310526D01*
G37*
X116132631Y-102310526D02*
X116040723Y-102310526D01*
X115987377Y-102308962D01*
X115959593Y-102302485D01*
X115949590Y-102288418D01*
X115948815Y-102278906D01*
X115947128Y-102259832D01*
X115936490Y-102256174D01*
X115908535Y-102267932D01*
X115886795Y-102278906D01*
X115803332Y-102304911D01*
X115712604Y-102306416D01*
X115638842Y-102287021D01*
X115570154Y-102240165D01*
X115517794Y-102171004D01*
X115489122Y-102089427D01*
X115488392Y-102084866D01*
X115484132Y-102035101D01*
X115482014Y-101963659D01*
X115482184Y-101909626D01*
X115664720Y-101909626D01*
X115668949Y-101981441D01*
X115678568Y-102040634D01*
X115691590Y-102074060D01*
X115740856Y-102119740D01*
X115799350Y-102136115D01*
X115859671Y-102122873D01*
X115911217Y-102083373D01*
X115930738Y-102056807D01*
X115942152Y-102025106D01*
X115947498Y-101978832D01*
X115948815Y-101909328D01*
X115946458Y-101840499D01*
X115940233Y-101780026D01*
X115931408Y-101739556D01*
X115929937Y-101735929D01*
X115894347Y-101692802D01*
X115842400Y-101669124D01*
X115784278Y-101665301D01*
X115730160Y-101681738D01*
X115690226Y-101718840D01*
X115686083Y-101726222D01*
X115673116Y-101771239D01*
X115666052Y-101835967D01*
X115664720Y-101909626D01*
X115482184Y-101909626D01*
X115482271Y-101882230D01*
X115483472Y-101838405D01*
X115491645Y-101729988D01*
X115508630Y-101648588D01*
X115536887Y-101588412D01*
X115578872Y-101543666D01*
X115619632Y-101517400D01*
X115676581Y-101498935D01*
X115747411Y-101492602D01*
X115819941Y-101497760D01*
X115881986Y-101513769D01*
X115914768Y-101532920D01*
X115948815Y-101563732D01*
X115948815Y-101174210D01*
X116132631Y-101174210D01*
X116132631Y-102310526D01*
G36*
X115079881Y-101493486D02*
X115104888Y-101500982D01*
X115112950Y-101517451D01*
X115113289Y-101524886D01*
X115114736Y-101545594D01*
X115124698Y-101548845D01*
X115151612Y-101534648D01*
X115167598Y-101524948D01*
X115218033Y-101504175D01*
X115278272Y-101493904D01*
X115341434Y-101493114D01*
X115400637Y-101500786D01*
X115449002Y-101515898D01*
X115479646Y-101537432D01*
X115485689Y-101564366D01*
X115482639Y-101571660D01*
X115460406Y-101601937D01*
X115425930Y-101639175D01*
X115419694Y-101645195D01*
X115386833Y-101672875D01*
X115358480Y-101681818D01*
X115318827Y-101675576D01*
X115302942Y-101671429D01*
X115253509Y-101661467D01*
X115218752Y-101665947D01*
X115189400Y-101681746D01*
X115162513Y-101702949D01*
X115142710Y-101729614D01*
X115128948Y-101766827D01*
X115120184Y-101819673D01*
X115115374Y-101893237D01*
X115113474Y-101992605D01*
X115113289Y-102052601D01*
X115113289Y-102310526D01*
X114946184Y-102310526D01*
X114946184Y-101491710D01*
X115029736Y-101491710D01*
X115079881Y-101493486D01*
X115079881Y-101493486D01*
G37*
X115079881Y-101493486D02*
X115104888Y-101500982D01*
X115112950Y-101517451D01*
X115113289Y-101524886D01*
X115114736Y-101545594D01*
X115124698Y-101548845D01*
X115151612Y-101534648D01*
X115167598Y-101524948D01*
X115218033Y-101504175D01*
X115278272Y-101493904D01*
X115341434Y-101493114D01*
X115400637Y-101500786D01*
X115449002Y-101515898D01*
X115479646Y-101537432D01*
X115485689Y-101564366D01*
X115482639Y-101571660D01*
X115460406Y-101601937D01*
X115425930Y-101639175D01*
X115419694Y-101645195D01*
X115386833Y-101672875D01*
X115358480Y-101681818D01*
X115318827Y-101675576D01*
X115302942Y-101671429D01*
X115253509Y-101661467D01*
X115218752Y-101665947D01*
X115189400Y-101681746D01*
X115162513Y-101702949D01*
X115142710Y-101729614D01*
X115128948Y-101766827D01*
X115120184Y-101819673D01*
X115115374Y-101893237D01*
X115113474Y-101992605D01*
X115113289Y-102052601D01*
X115113289Y-102310526D01*
X114946184Y-102310526D01*
X114946184Y-101491710D01*
X115029736Y-101491710D01*
X115079881Y-101493486D01*
G36*
X114560457Y-101498184D02*
X114639070Y-101519160D01*
X114698916Y-101557180D01*
X114741147Y-101606978D01*
X114754275Y-101628230D01*
X114763968Y-101650492D01*
X114770744Y-101678970D01*
X114775123Y-101718871D01*
X114777624Y-101775401D01*
X114778768Y-101853767D01*
X114779072Y-101959176D01*
X114779078Y-101987142D01*
X114779078Y-102310526D01*
X114698868Y-102310526D01*
X114647706Y-102306943D01*
X114609877Y-102297866D01*
X114600399Y-102292268D01*
X114574488Y-102282606D01*
X114548024Y-102292268D01*
X114504452Y-102304330D01*
X114441160Y-102309185D01*
X114371010Y-102307078D01*
X114306860Y-102298256D01*
X114269407Y-102286937D01*
X114196933Y-102240412D01*
X114151640Y-102175846D01*
X114131278Y-102090000D01*
X114131088Y-102087796D01*
X114132875Y-102049713D01*
X114294473Y-102049713D01*
X114308601Y-102093030D01*
X114331612Y-102117408D01*
X114377804Y-102135845D01*
X114438775Y-102143205D01*
X114500949Y-102139583D01*
X114550751Y-102125074D01*
X114564703Y-102115765D01*
X114589085Y-102072753D01*
X114595263Y-102023857D01*
X114595263Y-101959605D01*
X114502818Y-101959605D01*
X114414995Y-101966366D01*
X114348418Y-101985520D01*
X114307002Y-102015376D01*
X114294473Y-102049713D01*
X114132875Y-102049713D01*
X114135490Y-101994004D01*
X114166424Y-101919847D01*
X114224581Y-101863767D01*
X114232620Y-101858665D01*
X114267163Y-101842055D01*
X114309918Y-101831996D01*
X114369686Y-101827107D01*
X114440690Y-101825983D01*
X114595263Y-101825921D01*
X114595263Y-101761125D01*
X114588706Y-101710850D01*
X114571975Y-101677169D01*
X114570016Y-101675376D01*
X114532783Y-101660642D01*
X114476580Y-101654931D01*
X114414467Y-101657737D01*
X114359510Y-101668556D01*
X114326899Y-101684782D01*
X114309228Y-101697780D01*
X114290569Y-101700262D01*
X114264819Y-101689613D01*
X114225873Y-101663218D01*
X114167630Y-101618465D01*
X114162284Y-101614273D01*
X114165023Y-101598760D01*
X114187876Y-101572960D01*
X114222609Y-101544289D01*
X114260990Y-101520166D01*
X114273048Y-101514470D01*
X114317034Y-101503103D01*
X114381487Y-101494995D01*
X114453497Y-101491743D01*
X114456864Y-101491736D01*
X114560457Y-101498184D01*
X114560457Y-101498184D01*
G37*
X114560457Y-101498184D02*
X114639070Y-101519160D01*
X114698916Y-101557180D01*
X114741147Y-101606978D01*
X114754275Y-101628230D01*
X114763968Y-101650492D01*
X114770744Y-101678970D01*
X114775123Y-101718871D01*
X114777624Y-101775401D01*
X114778768Y-101853767D01*
X114779072Y-101959176D01*
X114779078Y-101987142D01*
X114779078Y-102310526D01*
X114698868Y-102310526D01*
X114647706Y-102306943D01*
X114609877Y-102297866D01*
X114600399Y-102292268D01*
X114574488Y-102282606D01*
X114548024Y-102292268D01*
X114504452Y-102304330D01*
X114441160Y-102309185D01*
X114371010Y-102307078D01*
X114306860Y-102298256D01*
X114269407Y-102286937D01*
X114196933Y-102240412D01*
X114151640Y-102175846D01*
X114131278Y-102090000D01*
X114131088Y-102087796D01*
X114132875Y-102049713D01*
X114294473Y-102049713D01*
X114308601Y-102093030D01*
X114331612Y-102117408D01*
X114377804Y-102135845D01*
X114438775Y-102143205D01*
X114500949Y-102139583D01*
X114550751Y-102125074D01*
X114564703Y-102115765D01*
X114589085Y-102072753D01*
X114595263Y-102023857D01*
X114595263Y-101959605D01*
X114502818Y-101959605D01*
X114414995Y-101966366D01*
X114348418Y-101985520D01*
X114307002Y-102015376D01*
X114294473Y-102049713D01*
X114132875Y-102049713D01*
X114135490Y-101994004D01*
X114166424Y-101919847D01*
X114224581Y-101863767D01*
X114232620Y-101858665D01*
X114267163Y-101842055D01*
X114309918Y-101831996D01*
X114369686Y-101827107D01*
X114440690Y-101825983D01*
X114595263Y-101825921D01*
X114595263Y-101761125D01*
X114588706Y-101710850D01*
X114571975Y-101677169D01*
X114570016Y-101675376D01*
X114532783Y-101660642D01*
X114476580Y-101654931D01*
X114414467Y-101657737D01*
X114359510Y-101668556D01*
X114326899Y-101684782D01*
X114309228Y-101697780D01*
X114290569Y-101700262D01*
X114264819Y-101689613D01*
X114225873Y-101663218D01*
X114167630Y-101618465D01*
X114162284Y-101614273D01*
X114165023Y-101598760D01*
X114187876Y-101572960D01*
X114222609Y-101544289D01*
X114260990Y-101520166D01*
X114273048Y-101514470D01*
X114317034Y-101503103D01*
X114381487Y-101494995D01*
X114453497Y-101491743D01*
X114456864Y-101491736D01*
X114560457Y-101498184D01*
G36*
X113863360Y-100252468D02*
X113898592Y-100269874D01*
X113942040Y-100300206D01*
X113973706Y-100333283D01*
X113995394Y-100374817D01*
X114008903Y-100430522D01*
X114016038Y-100506111D01*
X114018600Y-100607296D01*
X114018750Y-100650797D01*
X114018312Y-100746135D01*
X114016496Y-100814271D01*
X114012545Y-100861418D01*
X114005702Y-100893790D01*
X113995211Y-100917600D01*
X113984296Y-100933843D01*
X113914619Y-101002952D01*
X113832566Y-101044521D01*
X113744050Y-101057023D01*
X113654981Y-101038934D01*
X113626763Y-101026142D01*
X113559210Y-100990931D01*
X113559210Y-101542700D01*
X113608512Y-101517205D01*
X113673473Y-101497480D01*
X113753320Y-101492427D01*
X113833052Y-101501756D01*
X113893265Y-101522714D01*
X113943208Y-101562627D01*
X113985881Y-101619741D01*
X113989090Y-101625605D01*
X114002622Y-101653227D01*
X114012505Y-101681068D01*
X114019309Y-101714794D01*
X114023601Y-101760071D01*
X114025951Y-101822562D01*
X114026928Y-101907935D01*
X114027105Y-102004010D01*
X114027105Y-102310526D01*
X113843289Y-102310526D01*
X113843289Y-101745339D01*
X113791875Y-101702077D01*
X113738466Y-101667472D01*
X113687888Y-101661180D01*
X113637030Y-101677372D01*
X113609925Y-101693227D01*
X113589751Y-101715810D01*
X113575403Y-101749940D01*
X113565776Y-101800434D01*
X113559763Y-101872111D01*
X113556260Y-101969788D01*
X113555026Y-102034802D01*
X113550855Y-102302171D01*
X113463125Y-102307222D01*
X113375394Y-102312273D01*
X113375394Y-100653101D01*
X113559210Y-100653101D01*
X113563896Y-100745600D01*
X113579688Y-100809809D01*
X113609183Y-100849759D01*
X113654980Y-100869480D01*
X113701250Y-100873421D01*
X113753628Y-100868892D01*
X113788390Y-100851069D01*
X113810128Y-100827519D01*
X113827240Y-100802189D01*
X113837427Y-100773969D01*
X113841960Y-100734431D01*
X113842109Y-100675142D01*
X113840584Y-100625498D01*
X113837081Y-100550710D01*
X113831867Y-100501611D01*
X113823087Y-100470467D01*
X113808886Y-100449545D01*
X113795484Y-100437452D01*
X113739487Y-100411081D01*
X113673211Y-100406822D01*
X113635156Y-100415906D01*
X113597477Y-100448196D01*
X113572519Y-100511006D01*
X113560422Y-100603894D01*
X113559210Y-100653101D01*
X113375394Y-100653101D01*
X113375394Y-100238421D01*
X113467302Y-100238421D01*
X113522483Y-100240603D01*
X113550952Y-100248351D01*
X113559206Y-100263468D01*
X113559210Y-100263916D01*
X113563040Y-100278720D01*
X113579933Y-100277039D01*
X113613519Y-100260772D01*
X113691778Y-100235887D01*
X113779827Y-100233271D01*
X113863360Y-100252468D01*
X113863360Y-100252468D01*
G37*
X113863360Y-100252468D02*
X113898592Y-100269874D01*
X113942040Y-100300206D01*
X113973706Y-100333283D01*
X113995394Y-100374817D01*
X114008903Y-100430522D01*
X114016038Y-100506111D01*
X114018600Y-100607296D01*
X114018750Y-100650797D01*
X114018312Y-100746135D01*
X114016496Y-100814271D01*
X114012545Y-100861418D01*
X114005702Y-100893790D01*
X113995211Y-100917600D01*
X113984296Y-100933843D01*
X113914619Y-101002952D01*
X113832566Y-101044521D01*
X113744050Y-101057023D01*
X113654981Y-101038934D01*
X113626763Y-101026142D01*
X113559210Y-100990931D01*
X113559210Y-101542700D01*
X113608512Y-101517205D01*
X113673473Y-101497480D01*
X113753320Y-101492427D01*
X113833052Y-101501756D01*
X113893265Y-101522714D01*
X113943208Y-101562627D01*
X113985881Y-101619741D01*
X113989090Y-101625605D01*
X114002622Y-101653227D01*
X114012505Y-101681068D01*
X114019309Y-101714794D01*
X114023601Y-101760071D01*
X114025951Y-101822562D01*
X114026928Y-101907935D01*
X114027105Y-102004010D01*
X114027105Y-102310526D01*
X113843289Y-102310526D01*
X113843289Y-101745339D01*
X113791875Y-101702077D01*
X113738466Y-101667472D01*
X113687888Y-101661180D01*
X113637030Y-101677372D01*
X113609925Y-101693227D01*
X113589751Y-101715810D01*
X113575403Y-101749940D01*
X113565776Y-101800434D01*
X113559763Y-101872111D01*
X113556260Y-101969788D01*
X113555026Y-102034802D01*
X113550855Y-102302171D01*
X113463125Y-102307222D01*
X113375394Y-102312273D01*
X113375394Y-100653101D01*
X113559210Y-100653101D01*
X113563896Y-100745600D01*
X113579688Y-100809809D01*
X113609183Y-100849759D01*
X113654980Y-100869480D01*
X113701250Y-100873421D01*
X113753628Y-100868892D01*
X113788390Y-100851069D01*
X113810128Y-100827519D01*
X113827240Y-100802189D01*
X113837427Y-100773969D01*
X113841960Y-100734431D01*
X113842109Y-100675142D01*
X113840584Y-100625498D01*
X113837081Y-100550710D01*
X113831867Y-100501611D01*
X113823087Y-100470467D01*
X113808886Y-100449545D01*
X113795484Y-100437452D01*
X113739487Y-100411081D01*
X113673211Y-100406822D01*
X113635156Y-100415906D01*
X113597477Y-100448196D01*
X113572519Y-100511006D01*
X113560422Y-100603894D01*
X113559210Y-100653101D01*
X113375394Y-100653101D01*
X113375394Y-100238421D01*
X113467302Y-100238421D01*
X113522483Y-100240603D01*
X113550952Y-100248351D01*
X113559206Y-100263468D01*
X113559210Y-100263916D01*
X113563040Y-100278720D01*
X113579933Y-100277039D01*
X113613519Y-100260772D01*
X113691778Y-100235887D01*
X113779827Y-100233271D01*
X113863360Y-100252468D01*
D13*
X179988095Y-48067380D02*
X179988095Y-48876904D01*
X180035714Y-48972142D01*
X180083333Y-49019761D01*
X180178571Y-49067380D01*
X180369047Y-49067380D01*
X180464285Y-49019761D01*
X180511904Y-48972142D01*
X180559523Y-48876904D01*
X180559523Y-48067380D01*
X181559523Y-49067380D02*
X180988095Y-49067380D01*
X181273809Y-49067380D02*
X181273809Y-48067380D01*
X181178571Y-48210238D01*
X181083333Y-48305476D01*
X180988095Y-48353095D01*
X139066666Y-51217380D02*
X139066666Y-51931666D01*
X139019047Y-52074523D01*
X138923809Y-52169761D01*
X138780952Y-52217380D01*
X138685714Y-52217380D01*
X139495238Y-51312619D02*
X139542857Y-51265000D01*
X139638095Y-51217380D01*
X139876190Y-51217380D01*
X139971428Y-51265000D01*
X140019047Y-51312619D01*
X140066666Y-51407857D01*
X140066666Y-51503095D01*
X140019047Y-51645952D01*
X139447619Y-52217380D01*
X140066666Y-52217380D01*
X138042857Y-60804761D02*
X138185714Y-60852380D01*
X138423809Y-60852380D01*
X138519047Y-60804761D01*
X138566666Y-60757142D01*
X138614285Y-60661904D01*
X138614285Y-60566666D01*
X138566666Y-60471428D01*
X138519047Y-60423809D01*
X138423809Y-60376190D01*
X138233333Y-60328571D01*
X138138095Y-60280952D01*
X138090476Y-60233333D01*
X138042857Y-60138095D01*
X138042857Y-60042857D01*
X138090476Y-59947619D01*
X138138095Y-59900000D01*
X138233333Y-59852380D01*
X138471428Y-59852380D01*
X138614285Y-59900000D01*
X138947619Y-59852380D02*
X139185714Y-60852380D01*
X139376190Y-60138095D01*
X139566666Y-60852380D01*
X139804761Y-59852380D01*
X140185714Y-60852380D02*
X140185714Y-59852380D01*
X140423809Y-59852380D01*
X140566666Y-59900000D01*
X140661904Y-59995238D01*
X140709523Y-60090476D01*
X140757142Y-60280952D01*
X140757142Y-60423809D01*
X140709523Y-60614285D01*
X140661904Y-60709523D01*
X140566666Y-60804761D01*
X140423809Y-60852380D01*
X140185714Y-60852380D01*
X155095238Y-115834571D02*
X155238095Y-115882190D01*
X155285714Y-115929809D01*
X155333333Y-116025047D01*
X155333333Y-116167904D01*
X155285714Y-116263142D01*
X155238095Y-116310761D01*
X155142857Y-116358380D01*
X154761904Y-116358380D01*
X154761904Y-115358380D01*
X155095238Y-115358380D01*
X155190476Y-115406000D01*
X155238095Y-115453619D01*
X155285714Y-115548857D01*
X155285714Y-115644095D01*
X155238095Y-115739333D01*
X155190476Y-115786952D01*
X155095238Y-115834571D01*
X154761904Y-115834571D01*
X156285714Y-116358380D02*
X155714285Y-116358380D01*
X156000000Y-116358380D02*
X156000000Y-115358380D01*
X155904761Y-115501238D01*
X155809523Y-115596476D01*
X155714285Y-115644095D01*
X186983333Y-48107142D02*
X186935714Y-48154761D01*
X186792857Y-48202380D01*
X186697619Y-48202380D01*
X186554761Y-48154761D01*
X186459523Y-48059523D01*
X186411904Y-47964285D01*
X186364285Y-47773809D01*
X186364285Y-47630952D01*
X186411904Y-47440476D01*
X186459523Y-47345238D01*
X186554761Y-47250000D01*
X186697619Y-47202380D01*
X186792857Y-47202380D01*
X186935714Y-47250000D01*
X186983333Y-47297619D01*
X187935714Y-48202380D02*
X187364285Y-48202380D01*
X187650000Y-48202380D02*
X187650000Y-47202380D01*
X187554761Y-47345238D01*
X187459523Y-47440476D01*
X187364285Y-47488095D01*
X158233333Y-48757142D02*
X158185714Y-48804761D01*
X158042857Y-48852380D01*
X157947619Y-48852380D01*
X157804761Y-48804761D01*
X157709523Y-48709523D01*
X157661904Y-48614285D01*
X157614285Y-48423809D01*
X157614285Y-48280952D01*
X157661904Y-48090476D01*
X157709523Y-47995238D01*
X157804761Y-47900000D01*
X157947619Y-47852380D01*
X158042857Y-47852380D01*
X158185714Y-47900000D01*
X158233333Y-47947619D01*
X158614285Y-47947619D02*
X158661904Y-47900000D01*
X158757142Y-47852380D01*
X158995238Y-47852380D01*
X159090476Y-47900000D01*
X159138095Y-47947619D01*
X159185714Y-48042857D01*
X159185714Y-48138095D01*
X159138095Y-48280952D01*
X158566666Y-48852380D01*
X159185714Y-48852380D01*
X158233333Y-47357142D02*
X158185714Y-47404761D01*
X158042857Y-47452380D01*
X157947619Y-47452380D01*
X157804761Y-47404761D01*
X157709523Y-47309523D01*
X157661904Y-47214285D01*
X157614285Y-47023809D01*
X157614285Y-46880952D01*
X157661904Y-46690476D01*
X157709523Y-46595238D01*
X157804761Y-46500000D01*
X157947619Y-46452380D01*
X158042857Y-46452380D01*
X158185714Y-46500000D01*
X158233333Y-46547619D01*
X158566666Y-46452380D02*
X159185714Y-46452380D01*
X158852380Y-46833333D01*
X158995238Y-46833333D01*
X159090476Y-46880952D01*
X159138095Y-46928571D01*
X159185714Y-47023809D01*
X159185714Y-47261904D01*
X159138095Y-47357142D01*
X159090476Y-47404761D01*
X158995238Y-47452380D01*
X158709523Y-47452380D01*
X158614285Y-47404761D01*
X158566666Y-47357142D01*
X188458333Y-117007142D02*
X188410714Y-117054761D01*
X188267857Y-117102380D01*
X188172619Y-117102380D01*
X188029761Y-117054761D01*
X187934523Y-116959523D01*
X187886904Y-116864285D01*
X187839285Y-116673809D01*
X187839285Y-116530952D01*
X187886904Y-116340476D01*
X187934523Y-116245238D01*
X188029761Y-116150000D01*
X188172619Y-116102380D01*
X188267857Y-116102380D01*
X188410714Y-116150000D01*
X188458333Y-116197619D01*
X189315476Y-116435714D02*
X189315476Y-117102380D01*
X189077380Y-116054761D02*
X188839285Y-116769047D01*
X189458333Y-116769047D01*
X131186904Y-50002380D02*
X131186904Y-49002380D01*
X131425000Y-49002380D01*
X131567857Y-49050000D01*
X131663095Y-49145238D01*
X131710714Y-49240476D01*
X131758333Y-49430952D01*
X131758333Y-49573809D01*
X131710714Y-49764285D01*
X131663095Y-49859523D01*
X131567857Y-49954761D01*
X131425000Y-50002380D01*
X131186904Y-50002380D01*
X132710714Y-50002380D02*
X132139285Y-50002380D01*
X132425000Y-50002380D02*
X132425000Y-49002380D01*
X132329761Y-49145238D01*
X132234523Y-49240476D01*
X132139285Y-49288095D01*
X188104761Y-108947619D02*
X188009523Y-108900000D01*
X187914285Y-108804761D01*
X187771428Y-108661904D01*
X187676190Y-108614285D01*
X187580952Y-108614285D01*
X187628571Y-108852380D02*
X187533333Y-108804761D01*
X187438095Y-108709523D01*
X187390476Y-108519047D01*
X187390476Y-108185714D01*
X187438095Y-107995238D01*
X187533333Y-107900000D01*
X187628571Y-107852380D01*
X187819047Y-107852380D01*
X187914285Y-107900000D01*
X188009523Y-107995238D01*
X188057142Y-108185714D01*
X188057142Y-108519047D01*
X188009523Y-108709523D01*
X187914285Y-108804761D01*
X187819047Y-108852380D01*
X187628571Y-108852380D01*
X189009523Y-108852380D02*
X188438095Y-108852380D01*
X188723809Y-108852380D02*
X188723809Y-107852380D01*
X188628571Y-107995238D01*
X188533333Y-108090476D01*
X188438095Y-108138095D01*
X131633333Y-46602380D02*
X131300000Y-46126190D01*
X131061904Y-46602380D02*
X131061904Y-45602380D01*
X131442857Y-45602380D01*
X131538095Y-45650000D01*
X131585714Y-45697619D01*
X131633333Y-45792857D01*
X131633333Y-45935714D01*
X131585714Y-46030952D01*
X131538095Y-46078571D01*
X131442857Y-46126190D01*
X131061904Y-46126190D01*
X132014285Y-45697619D02*
X132061904Y-45650000D01*
X132157142Y-45602380D01*
X132395238Y-45602380D01*
X132490476Y-45650000D01*
X132538095Y-45697619D01*
X132585714Y-45792857D01*
X132585714Y-45888095D01*
X132538095Y-46030952D01*
X131966666Y-46602380D01*
X132585714Y-46602380D01*
X192466666Y-101004761D02*
X192609523Y-101052380D01*
X192847619Y-101052380D01*
X192942857Y-101004761D01*
X192990476Y-100957142D01*
X193038095Y-100861904D01*
X193038095Y-100766666D01*
X192990476Y-100671428D01*
X192942857Y-100623809D01*
X192847619Y-100576190D01*
X192657142Y-100528571D01*
X192561904Y-100480952D01*
X192514285Y-100433333D01*
X192466666Y-100338095D01*
X192466666Y-100242857D01*
X192514285Y-100147619D01*
X192561904Y-100100000D01*
X192657142Y-100052380D01*
X192895238Y-100052380D01*
X193038095Y-100100000D01*
X193371428Y-100052380D02*
X193609523Y-101052380D01*
X193800000Y-100338095D01*
X193990476Y-101052380D01*
X194228571Y-100052380D01*
X194561904Y-100147619D02*
X194609523Y-100100000D01*
X194704761Y-100052380D01*
X194942857Y-100052380D01*
X195038095Y-100100000D01*
X195085714Y-100147619D01*
X195133333Y-100242857D01*
X195133333Y-100338095D01*
X195085714Y-100480952D01*
X194514285Y-101052380D01*
X195133333Y-101052380D01*
X142738095Y-49452380D02*
X142738095Y-50261904D01*
X142785714Y-50357142D01*
X142833333Y-50404761D01*
X142928571Y-50452380D01*
X143119047Y-50452380D01*
X143214285Y-50404761D01*
X143261904Y-50357142D01*
X143309523Y-50261904D01*
X143309523Y-49452380D01*
X143738095Y-49547619D02*
X143785714Y-49500000D01*
X143880952Y-49452380D01*
X144119047Y-49452380D01*
X144214285Y-49500000D01*
X144261904Y-49547619D01*
X144309523Y-49642857D01*
X144309523Y-49738095D01*
X144261904Y-49880952D01*
X143690476Y-50452380D01*
X144309523Y-50452380D01*
%LPC*%
D15*
X175758900Y-67005000D03*
X185741100Y-67005000D03*
X175758900Y-65735000D03*
X185741100Y-65735000D03*
X175758900Y-64465000D03*
X185741100Y-64465000D03*
X175758900Y-63195000D03*
X185741100Y-63195000D03*
X175758900Y-61925000D03*
X185741100Y-61925000D03*
X175758900Y-60655000D03*
X185741100Y-60655000D03*
X175758900Y-59385000D03*
X185741100Y-59385000D03*
X175758900Y-58115000D03*
X185741100Y-58115000D03*
X175758900Y-56845000D03*
X185741100Y-56845000D03*
X175758900Y-55575000D03*
X185741100Y-55575000D03*
X175758900Y-54305000D03*
X185741100Y-54305000D03*
X175758900Y-53035000D03*
X185741100Y-53035000D03*
X175758900Y-51765000D03*
X185741100Y-51765000D03*
X175758900Y-50495000D03*
X185741100Y-50495000D03*
D16*
X137450000Y-53460000D03*
X141350000Y-53460000D03*
X137450000Y-54730000D03*
X141350000Y-54730000D03*
X137450000Y-56000000D03*
X141350000Y-56000000D03*
X137450000Y-57270000D03*
X141350000Y-57270000D03*
X137450000Y-58540000D03*
X141350000Y-58540000D03*
D17*
X163290000Y-42250000D03*
X160750000Y-42250000D03*
X158210000Y-42250000D03*
X155670000Y-42250000D03*
D18*
X155500000Y-31500000D03*
D19*
X183059000Y-100539000D03*
X127941000Y-100539000D03*
X127941000Y-111461000D03*
X183059000Y-111461000D03*
D20*
X131103300Y-95916200D03*
D21*
X185500000Y-48625000D03*
X185500000Y-46875000D03*
X155500000Y-48625000D03*
X155500000Y-46875000D03*
X153250000Y-46875000D03*
X153250000Y-48625000D03*
D22*
X189500000Y-115000000D03*
X187750000Y-115000000D03*
X131050000Y-51200000D03*
X132800000Y-51200000D03*
D23*
X183215000Y-88120000D03*
X183215000Y-72880000D03*
X185755000Y-88120000D03*
X185755000Y-72880000D03*
X188295000Y-88120000D03*
X188295000Y-72880000D03*
X190835000Y-88120000D03*
X190835000Y-72880000D03*
X193375000Y-88120000D03*
X193375000Y-72880000D03*
X195915000Y-88120000D03*
X195915000Y-72880000D03*
X198455000Y-88120000D03*
X198455000Y-72880000D03*
X200995000Y-88120000D03*
X200995000Y-72880000D03*
X203535000Y-88120000D03*
X203535000Y-72880000D03*
X178285000Y-72880000D03*
X178285000Y-88120000D03*
X175745000Y-72880000D03*
X175745000Y-88120000D03*
X173205000Y-72880000D03*
X173205000Y-88120000D03*
X170665000Y-72880000D03*
X170665000Y-88120000D03*
X168125000Y-72880000D03*
X168125000Y-88120000D03*
X165585000Y-72880000D03*
X165585000Y-88120000D03*
X163045000Y-72880000D03*
X163045000Y-88120000D03*
X160505000Y-72880000D03*
X160505000Y-88120000D03*
X157965000Y-72880000D03*
X157965000Y-88120000D03*
X153035000Y-72880000D03*
X153035000Y-88120000D03*
X150495000Y-72880000D03*
X150495000Y-88120000D03*
X147955000Y-72880000D03*
X147955000Y-88120000D03*
X145415000Y-72880000D03*
X145415000Y-88120000D03*
X142875000Y-72880000D03*
X142875000Y-88120000D03*
X140335000Y-72880000D03*
X140335000Y-88120000D03*
X137795000Y-72880000D03*
X137795000Y-88120000D03*
X135255000Y-72880000D03*
X135255000Y-88120000D03*
X132715000Y-72880000D03*
X132715000Y-88120000D03*
X107465000Y-88120000D03*
X107465000Y-72880000D03*
X110005000Y-88120000D03*
X110005000Y-72880000D03*
X112545000Y-88120000D03*
X112545000Y-72880000D03*
X115085000Y-88120000D03*
X115085000Y-72880000D03*
X117625000Y-88120000D03*
X117625000Y-72880000D03*
X120165000Y-88120000D03*
X120165000Y-72880000D03*
X122705000Y-88120000D03*
X122705000Y-72880000D03*
X125245000Y-88120000D03*
X125245000Y-72880000D03*
X127785000Y-88120000D03*
X127785000Y-72880000D03*
D24*
X189550000Y-111500000D03*
X191450000Y-111500000D03*
X190500000Y-108500000D03*
D22*
X130925000Y-47800000D03*
X132675000Y-47800000D03*
D25*
X154156497Y-55843503D03*
D26*
X156843503Y-53156497D03*
D27*
X190750000Y-100500000D03*
X190750000Y-103000000D03*
X190750000Y-98000000D03*
D28*
X193500000Y-103900000D03*
X193500000Y-97100000D03*
D29*
X150750000Y-40150000D03*
X136250000Y-40150000D03*
X150750000Y-41250000D03*
X136250000Y-41250000D03*
X150750000Y-42350000D03*
X136250000Y-42350000D03*
X150750000Y-43450000D03*
X136250000Y-43450000D03*
X150750000Y-44550000D03*
X136250000Y-44550000D03*
X150750000Y-45650000D03*
X136250000Y-45650000D03*
X150750000Y-46750000D03*
X136250000Y-46750000D03*
X150750000Y-47850000D03*
X136250000Y-47850000D03*
M02*
