M48
;DRILL file {KiCad 5.0.0-rc2-dev-unknown+dfsg1+20180318-3} date Tue May 22 19:10:05 2018
;FORMAT={-:-/ absolute / inch / decimal}
FMAT,2
INCH,TZ
T1C0.0118
T2C0.0157
T3C0.0197
T4C0.0315
%
G90
G05
M72
T1
X4.3307Y-2.5276
X4.3307Y-3.3366
X4.4291Y-2.9823
X4.4291Y-3.3071
X4.5276Y-3.0118
X4.5276Y-3.2776
X4.626Y-3.0413
X4.6358Y-3.248
X4.7343Y-3.0709
X4.7343Y-3.2185
X4.8327Y-2.3819
X4.9311Y-3.1004
X4.9311Y-3.189
X5.0295Y-3.1299
X5.0295Y-3.1614
X5.3248Y-3.3366
X5.4232Y-2.9823
X5.4232Y-3.3071
X5.5217Y-3.0118
X5.5217Y-3.2776
X5.6299Y-3.0413
X5.6299Y-3.248
X5.7283Y-3.0709
X5.7283Y-3.2185
X5.9252Y-3.1004
X5.9252Y-3.189
X6.0236Y-3.1299
X6.0236Y-3.1614
X6.3189Y-3.3366
X6.3976Y-2.185
X6.3976Y-2.2343
X6.3976Y-2.7559
X6.4173Y-2.9823
X6.4173Y-3.3071
X6.4272Y-2.2835
X6.4272Y-2.7165
X6.5157Y-3.0118
X6.5157Y-3.2776
X6.624Y-2.6378
X6.624Y-3.0413
X6.624Y-3.248
X6.7224Y-2.5886
X6.7224Y-3.0709
X6.7224Y-3.2185
X6.8701Y-2.185
X6.8701Y-2.2343
X6.8701Y-2.2835
X6.8701Y-2.3327
X6.8701Y-2.3917
X6.8701Y-2.5886
X6.8701Y-2.6378
X6.9193Y-3.1004
X6.9193Y-3.189
X7.0079Y-2.0374
X7.0079Y-2.0866
X7.0177Y-3.1299
X7.0177Y-3.1614
X7.0669Y-3.2185
X7.0915Y-3.2776
X7.1161Y-3.3071
X7.1407Y-3.3366
X7.1654Y-3.3661
X7.3622Y-2.1417
X7.3622Y-2.189
X7.3622Y-2.2362
X7.3622Y-2.5394
X7.3622Y-2.5886
X7.4016Y-2.0866
X7.4311Y-2.5886
X7.5098Y-2.5394
X7.5591Y-2.1417
X7.5591Y-3.16
X7.6614Y-2.0374
X7.6614Y-2.2362
X7.7638Y-2.189
X7.7638Y-3.2165
T2
X5.935Y-1.9685
X5.935Y-2.0472
X5.9744Y-2.0079
X6.1319Y-2.315
X6.2992Y-2.1555
T3
X5.8563Y-1.8406
X6.0531Y-1.6634
X6.0728Y-1.8041
X6.9291Y-1.939
X6.9291Y-4.3898
X6.998Y-4.3307
X6.998Y-4.3898
X6.998Y-4.4587
X7.3031Y-1.7913
X7.3819Y-4.3898
T4
X6.2191Y-2.8693
X6.2191Y-3.4693
X6.3191Y-2.8693
X6.3191Y-3.4693
X6.4191Y-2.8693
X6.4191Y-3.4693
X6.5191Y-2.8693
X6.5191Y-3.4693
X6.6191Y-2.8693
X6.6191Y-3.4693
X6.7191Y-2.8693
X6.7191Y-3.4693
X6.8191Y-2.8693
X6.8191Y-3.4693
X6.9191Y-2.8693
X6.9191Y-3.4693
X7.0191Y-2.8693
X7.0191Y-3.4693
X5.225Y-2.8693
X5.225Y-3.4693
X5.325Y-2.8693
X5.325Y-3.4693
X5.425Y-2.8693
X5.425Y-3.4693
X5.525Y-2.8693
X5.525Y-3.4693
X5.625Y-2.8693
X5.625Y-3.4693
X5.725Y-2.8693
X5.725Y-3.4693
X5.825Y-2.8693
X5.825Y-3.4693
X5.925Y-2.8693
X5.925Y-3.4693
X6.025Y-2.8693
X6.025Y-3.4693
X7.2132Y-2.8693
X7.2132Y-3.4693
X7.3132Y-2.8693
X7.3132Y-3.4693
X7.4132Y-2.8693
X7.4132Y-3.4693
X7.5132Y-2.8693
X7.5132Y-3.4693
X7.6132Y-2.8693
X7.6132Y-3.4693
X7.7132Y-2.8693
X7.7132Y-3.4693
X7.8132Y-2.8693
X7.8132Y-3.4693
X7.9132Y-2.8693
X7.9132Y-3.4693
X8.0132Y-2.8693
X8.0132Y-3.4693
X4.2309Y-2.8693
X4.2309Y-3.4693
X4.3309Y-2.8693
X4.3309Y-3.4693
X4.4309Y-2.8693
X4.4309Y-3.4693
X4.5309Y-2.8693
X4.5309Y-3.4693
X4.6309Y-2.8693
X4.6309Y-3.4693
X4.7309Y-2.8693
X4.7309Y-3.4693
X4.8309Y-2.8693
X4.8309Y-3.4693
X4.9309Y-2.8693
X4.9309Y-3.4693
X5.0309Y-2.8693
X5.0309Y-3.4693
T0
M30
