G04 #@! TF.GenerationSoftware,KiCad,Pcbnew,5.0.0-rc2-dev-unknown+dfsg1+20180318-3*
G04 #@! TF.CreationDate,2018-05-10T20:41:14-07:00*
G04 #@! TF.ProjectId,DC26Badge,4443323642616467652E6B696361645F,rev?*
G04 #@! TF.SameCoordinates,Original*
G04 #@! TF.FileFunction,Legend,Bot*
G04 #@! TF.FilePolarity,Positive*
%FSLAX46Y46*%
G04 Gerber Fmt 4.6, Leading zero omitted, Abs format (unit mm)*
G04 Created by KiCad (PCBNEW 5.0.0-rc2-dev-unknown+dfsg1+20180318-3) date Thu May 10 20:41:14 2018*
%MOMM*%
%LPD*%
G01*
G04 APERTURE LIST*
%ADD10C,0.120000*%
%ADD11C,0.150000*%
%ADD12C,1.150000*%
%ADD13C,1.450000*%
%ADD14R,2.100000X2.100000*%
%ADD15O,2.100000X2.100000*%
%ADD16C,1.800000*%
%ADD17R,1.070000X1.400000*%
%ADD18O,1.670000X2.400000*%
%ADD19R,1.160000X1.600000*%
G04 APERTURE END LIST*
D10*
X130155000Y-58760000D02*
X130595000Y-58760000D01*
X130155000Y-57740000D02*
X130595000Y-57740000D01*
D11*
X133665000Y-50850000D02*
X132865000Y-51650000D01*
X132865000Y-51650000D02*
X132865000Y-57150000D01*
X132865000Y-57150000D02*
X151135000Y-57150000D01*
X151135000Y-57150000D02*
X151135000Y-50850000D01*
X151135000Y-50850000D02*
X133665000Y-50850000D01*
X130541666Y-60257142D02*
X130589285Y-60304761D01*
X130732142Y-60352380D01*
X130827380Y-60352380D01*
X130970238Y-60304761D01*
X131065476Y-60209523D01*
X131113095Y-60114285D01*
X131160714Y-59923809D01*
X131160714Y-59780952D01*
X131113095Y-59590476D01*
X131065476Y-59495238D01*
X130970238Y-59400000D01*
X130827380Y-59352380D01*
X130732142Y-59352380D01*
X130589285Y-59400000D01*
X130541666Y-59447619D01*
X129589285Y-60352380D02*
X130160714Y-60352380D01*
X129875000Y-60352380D02*
X129875000Y-59352380D01*
X129970238Y-59495238D01*
X130065476Y-59590476D01*
X130160714Y-59638095D01*
X132412619Y-54761904D02*
X131603095Y-54761904D01*
X131507857Y-54714285D01*
X131460238Y-54666666D01*
X131412619Y-54571428D01*
X131412619Y-54380952D01*
X131460238Y-54285714D01*
X131507857Y-54238095D01*
X131603095Y-54190476D01*
X132412619Y-54190476D01*
X131412619Y-53190476D02*
X131412619Y-53761904D01*
X131412619Y-53476190D02*
X132412619Y-53476190D01*
X132269761Y-53571428D01*
X132174523Y-53666666D01*
X132126904Y-53761904D01*
%LPC*%
D12*
X140856497Y-31256497D03*
D13*
X143543503Y-33943503D03*
D14*
X168800000Y-35340000D03*
D15*
X168800000Y-32800000D03*
X173600000Y-32800000D03*
D14*
X173600000Y-35340000D03*
X163800000Y-31100000D03*
D15*
X161260000Y-31100000D03*
D16*
X153660000Y-36500000D03*
X156200000Y-36500000D03*
D17*
X129500000Y-58250000D03*
X131250000Y-58250000D03*
D18*
X186570000Y-61740000D03*
X186570000Y-46500000D03*
X184030000Y-61740000D03*
X184030000Y-46500000D03*
X181490000Y-61740000D03*
X181490000Y-46500000D03*
X178950000Y-61740000D03*
X178950000Y-46500000D03*
X176410000Y-61740000D03*
X176410000Y-46500000D03*
X173870000Y-61740000D03*
X173870000Y-46500000D03*
X171330000Y-61740000D03*
X171330000Y-46500000D03*
X168790000Y-61740000D03*
X168790000Y-46500000D03*
X166250000Y-61740000D03*
X166250000Y-46500000D03*
X143250000Y-46500000D03*
X143250000Y-61740000D03*
X145790000Y-46500000D03*
X145790000Y-61740000D03*
X148330000Y-46500000D03*
X148330000Y-61740000D03*
X150870000Y-46500000D03*
X150870000Y-61740000D03*
X153410000Y-46500000D03*
X153410000Y-61740000D03*
X155950000Y-46500000D03*
X155950000Y-61740000D03*
X158490000Y-46500000D03*
X158490000Y-61740000D03*
X161030000Y-46500000D03*
X161030000Y-61740000D03*
X163570000Y-46500000D03*
X163570000Y-61740000D03*
X140570000Y-61740000D03*
X140570000Y-46500000D03*
X138030000Y-61740000D03*
X138030000Y-46500000D03*
X135490000Y-61740000D03*
X135490000Y-46500000D03*
X132950000Y-61740000D03*
X132950000Y-46500000D03*
X130410000Y-61740000D03*
X130410000Y-46500000D03*
X127870000Y-61740000D03*
X127870000Y-46500000D03*
X125330000Y-61740000D03*
X125330000Y-46500000D03*
X122790000Y-61740000D03*
X122790000Y-46500000D03*
X120250000Y-61740000D03*
X120250000Y-46500000D03*
X97250000Y-46500000D03*
X97250000Y-61740000D03*
X99790000Y-46500000D03*
X99790000Y-61740000D03*
X102330000Y-46500000D03*
X102330000Y-61740000D03*
X104870000Y-46500000D03*
X104870000Y-61740000D03*
X107410000Y-46500000D03*
X107410000Y-61740000D03*
X109950000Y-46500000D03*
X109950000Y-61740000D03*
X112490000Y-46500000D03*
X112490000Y-61740000D03*
X115030000Y-46500000D03*
X115030000Y-61740000D03*
X117570000Y-46500000D03*
X117570000Y-61740000D03*
D19*
X133745000Y-58250000D03*
X133745000Y-49750000D03*
X135015000Y-58250000D03*
X135015000Y-49750000D03*
X136285000Y-58250000D03*
X136285000Y-49750000D03*
X137555000Y-58250000D03*
X137555000Y-49750000D03*
X138825000Y-58250000D03*
X138825000Y-49750000D03*
X140095000Y-58250000D03*
X140095000Y-49750000D03*
X141365000Y-58250000D03*
X141365000Y-49750000D03*
X142635000Y-58250000D03*
X142635000Y-49750000D03*
X143905000Y-58250000D03*
X143905000Y-49750000D03*
X145175000Y-58250000D03*
X145175000Y-49750000D03*
X146445000Y-58250000D03*
X146445000Y-49750000D03*
X147715000Y-58250000D03*
X147715000Y-49750000D03*
X148985000Y-58250000D03*
X148985000Y-49750000D03*
X150255000Y-58250000D03*
X150255000Y-49750000D03*
M02*
