%FSLAX45Y45*%
G04 Gerber Fmt 4.5, Leading zero omitted, Abs format (unit mm)*
G04 Created by KiCad (PCBNEW 5.0.0-rc2-dev-unknown+dfsg1+20180318-3) date Thu May 24 18:13:11 2018*
%MOMM*%
%LPD*%
G01*
G04 APERTURE LIST*
%ADD10C,0.200000*%
%ADD11C,0.300000*%
G04 APERTURE END LIST*
D10*
X20750000Y-8050000D02*
G75*
G03X20750000Y-8050000I-5200000J0D01*
G01*
D10*
X10985000Y-6405000D02*
X11015000Y-6435000D01*
X11015000Y-6405000D02*
X10985000Y-6435000D01*
X10985000Y-8460000D02*
X11015000Y-8490000D01*
X11015000Y-8460000D02*
X10985000Y-8490000D01*
X11235000Y-7560000D02*
X11265000Y-7590000D01*
X11265000Y-7560000D02*
X11235000Y-7590000D01*
X11235000Y-8385000D02*
X11265000Y-8415000D01*
X11265000Y-8385000D02*
X11235000Y-8415000D01*
X11485000Y-7635000D02*
X11515000Y-7665000D01*
X11515000Y-7635000D02*
X11485000Y-7665000D01*
X11485000Y-8310000D02*
X11515000Y-8340000D01*
X11515000Y-8310000D02*
X11485000Y-8340000D01*
X11735000Y-7710000D02*
X11765000Y-7740000D01*
X11765000Y-7710000D02*
X11735000Y-7740000D01*
X11760000Y-8235000D02*
X11790000Y-8265000D01*
X11790000Y-8235000D02*
X11760000Y-8265000D01*
X12010000Y-7785000D02*
X12040000Y-7815000D01*
X12040000Y-7785000D02*
X12010000Y-7815000D01*
X12010000Y-8160000D02*
X12040000Y-8190000D01*
X12040000Y-8160000D02*
X12010000Y-8190000D01*
X12260000Y-6035000D02*
X12290000Y-6065000D01*
X12290000Y-6035000D02*
X12260000Y-6065000D01*
X12510000Y-7860000D02*
X12540000Y-7890000D01*
X12540000Y-7860000D02*
X12510000Y-7890000D01*
X12510000Y-8085000D02*
X12540000Y-8115000D01*
X12540000Y-8085000D02*
X12510000Y-8115000D01*
X12760000Y-7935000D02*
X12790000Y-7965000D01*
X12790000Y-7935000D02*
X12760000Y-7965000D01*
X12760000Y-8015000D02*
X12790000Y-8045000D01*
X12790000Y-8015000D02*
X12760000Y-8045000D01*
X13510000Y-8460000D02*
X13540000Y-8490000D01*
X13540000Y-8460000D02*
X13510000Y-8490000D01*
X13760000Y-7560000D02*
X13790000Y-7590000D01*
X13790000Y-7560000D02*
X13760000Y-7590000D01*
X13760000Y-8385000D02*
X13790000Y-8415000D01*
X13790000Y-8385000D02*
X13760000Y-8415000D01*
X13785000Y-4225000D02*
X13815000Y-4255000D01*
X13815000Y-4225000D02*
X13785000Y-4255000D01*
X13785000Y-4325000D02*
X13815000Y-4355000D01*
X13815000Y-4325000D02*
X13785000Y-4355000D01*
X13785000Y-4445000D02*
X13815000Y-4475000D01*
X13815000Y-4445000D02*
X13785000Y-4475000D01*
X13785000Y-4545000D02*
X13815000Y-4575000D01*
X13815000Y-4545000D02*
X13785000Y-4575000D01*
X13785000Y-4665000D02*
X13815000Y-4695000D01*
X13815000Y-4665000D02*
X13785000Y-4695000D01*
X14010000Y-7635000D02*
X14040000Y-7665000D01*
X14040000Y-7635000D02*
X14010000Y-7665000D01*
X14010000Y-8310000D02*
X14040000Y-8340000D01*
X14040000Y-8310000D02*
X14010000Y-8340000D01*
X14285000Y-7710000D02*
X14315000Y-7740000D01*
X14315000Y-7710000D02*
X14285000Y-7740000D01*
X14285000Y-8235000D02*
X14315000Y-8265000D01*
X14315000Y-8235000D02*
X14285000Y-8265000D01*
X14485000Y-5065000D02*
X14515000Y-5095000D01*
X14515000Y-5065000D02*
X14485000Y-5095000D01*
X14535000Y-7785000D02*
X14565000Y-7815000D01*
X14565000Y-7785000D02*
X14535000Y-7815000D01*
X14535000Y-8160000D02*
X14565000Y-8190000D01*
X14565000Y-8160000D02*
X14535000Y-8190000D01*
X14645000Y-4085000D02*
X14675000Y-4115000D01*
X14675000Y-4085000D02*
X14645000Y-4115000D01*
X15035000Y-7860000D02*
X15065000Y-7890000D01*
X15065000Y-7860000D02*
X15035000Y-7890000D01*
X15035000Y-8085000D02*
X15065000Y-8115000D01*
X15065000Y-8085000D02*
X15035000Y-8115000D01*
X15285000Y-7935000D02*
X15315000Y-7965000D01*
X15315000Y-7935000D02*
X15285000Y-7965000D01*
X15285000Y-8015000D02*
X15315000Y-8045000D01*
X15315000Y-8015000D02*
X15285000Y-8045000D01*
X16035000Y-8460000D02*
X16065000Y-8490000D01*
X16065000Y-8460000D02*
X16035000Y-8490000D01*
X16235000Y-5535000D02*
X16265000Y-5565000D01*
X16265000Y-5535000D02*
X16235000Y-5565000D01*
X16235000Y-5660000D02*
X16265000Y-5690000D01*
X16265000Y-5660000D02*
X16235000Y-5690000D01*
X16235000Y-6985000D02*
X16265000Y-7015000D01*
X16265000Y-6985000D02*
X16235000Y-7015000D01*
X16285000Y-7560000D02*
X16315000Y-7590000D01*
X16315000Y-7560000D02*
X16285000Y-7590000D01*
X16285000Y-8385000D02*
X16315000Y-8415000D01*
X16315000Y-8385000D02*
X16285000Y-8415000D01*
X16310000Y-5785000D02*
X16340000Y-5815000D01*
X16340000Y-5785000D02*
X16310000Y-5815000D01*
X16310000Y-6885000D02*
X16340000Y-6915000D01*
X16340000Y-6885000D02*
X16310000Y-6915000D01*
X16535000Y-7635000D02*
X16565000Y-7665000D01*
X16565000Y-7635000D02*
X16535000Y-7665000D01*
X16535000Y-8310000D02*
X16565000Y-8340000D01*
X16565000Y-8310000D02*
X16535000Y-8340000D01*
X16810000Y-6685000D02*
X16840000Y-6715000D01*
X16840000Y-6685000D02*
X16810000Y-6715000D01*
X16810000Y-7710000D02*
X16840000Y-7740000D01*
X16840000Y-7710000D02*
X16810000Y-7740000D01*
X16810000Y-8235000D02*
X16840000Y-8265000D01*
X16840000Y-8235000D02*
X16810000Y-8265000D01*
X17060000Y-6560000D02*
X17090000Y-6590000D01*
X17090000Y-6560000D02*
X17060000Y-6590000D01*
X17060000Y-7785000D02*
X17090000Y-7815000D01*
X17090000Y-7785000D02*
X17060000Y-7815000D01*
X17060000Y-8160000D02*
X17090000Y-8190000D01*
X17090000Y-8160000D02*
X17060000Y-8190000D01*
X17435000Y-5535000D02*
X17465000Y-5565000D01*
X17465000Y-5535000D02*
X17435000Y-5565000D01*
X17435000Y-5660000D02*
X17465000Y-5690000D01*
X17465000Y-5660000D02*
X17435000Y-5690000D01*
X17435000Y-5785000D02*
X17465000Y-5815000D01*
X17465000Y-5785000D02*
X17435000Y-5815000D01*
X17435000Y-5910000D02*
X17465000Y-5940000D01*
X17465000Y-5910000D02*
X17435000Y-5940000D01*
X17435000Y-6060000D02*
X17465000Y-6090000D01*
X17465000Y-6060000D02*
X17435000Y-6090000D01*
X17435000Y-6560000D02*
X17465000Y-6590000D01*
X17465000Y-6560000D02*
X17435000Y-6590000D01*
X17435000Y-6685000D02*
X17465000Y-6715000D01*
X17465000Y-6685000D02*
X17435000Y-6715000D01*
X17560000Y-7860000D02*
X17590000Y-7890000D01*
X17590000Y-7860000D02*
X17560000Y-7890000D01*
X17560000Y-8085000D02*
X17590000Y-8115000D01*
X17590000Y-8085000D02*
X17560000Y-8115000D01*
X17785000Y-5160000D02*
X17815000Y-5190000D01*
X17815000Y-5160000D02*
X17785000Y-5190000D01*
X17785000Y-5285000D02*
X17815000Y-5315000D01*
X17815000Y-5285000D02*
X17785000Y-5315000D01*
X17810000Y-7935000D02*
X17840000Y-7965000D01*
X17840000Y-7935000D02*
X17810000Y-7965000D01*
X17810000Y-8015000D02*
X17840000Y-8045000D01*
X17840000Y-8015000D02*
X17810000Y-8045000D01*
X17935000Y-8160000D02*
X17965000Y-8190000D01*
X17965000Y-8160000D02*
X17935000Y-8190000D01*
X17997500Y-8310000D02*
X18027500Y-8340000D01*
X18027500Y-8310000D02*
X17997500Y-8340000D01*
X18060000Y-8385000D02*
X18090000Y-8415000D01*
X18090000Y-8385000D02*
X18060000Y-8415000D01*
X18122500Y-8460000D02*
X18152500Y-8490000D01*
X18152500Y-8460000D02*
X18122500Y-8490000D01*
X18185000Y-8535000D02*
X18215000Y-8565000D01*
X18215000Y-8535000D02*
X18185000Y-8565000D01*
X18685000Y-5425000D02*
X18715000Y-5455000D01*
X18715000Y-5425000D02*
X18685000Y-5455000D01*
X18685000Y-5545000D02*
X18715000Y-5575000D01*
X18715000Y-5545000D02*
X18685000Y-5575000D01*
X18685000Y-5665000D02*
X18715000Y-5695000D01*
X18715000Y-5665000D02*
X18685000Y-5695000D01*
X18685000Y-6435000D02*
X18715000Y-6465000D01*
X18715000Y-6435000D02*
X18685000Y-6465000D01*
X18685000Y-6560000D02*
X18715000Y-6590000D01*
X18715000Y-6560000D02*
X18685000Y-6590000D01*
X18785000Y-5285000D02*
X18815000Y-5315000D01*
X18815000Y-5285000D02*
X18785000Y-5315000D01*
X18860000Y-6560000D02*
X18890000Y-6590000D01*
X18890000Y-6560000D02*
X18860000Y-6590000D01*
X19060000Y-6435000D02*
X19090000Y-6465000D01*
X19090000Y-6435000D02*
X19060000Y-6465000D01*
X19185000Y-5425000D02*
X19215000Y-5455000D01*
X19215000Y-5425000D02*
X19185000Y-5455000D01*
X19185000Y-8011317D02*
X19215000Y-8041317D01*
X19215000Y-8011317D02*
X19185000Y-8041317D01*
X19445000Y-5160000D02*
X19475000Y-5190000D01*
X19475000Y-5160000D02*
X19445000Y-5190000D01*
X19445000Y-5665000D02*
X19475000Y-5695000D01*
X19475000Y-5665000D02*
X19445000Y-5695000D01*
X19705000Y-5545000D02*
X19735000Y-5575000D01*
X19735000Y-5545000D02*
X19705000Y-5575000D01*
X19705000Y-8155000D02*
X19735000Y-8185000D01*
X19735000Y-8155000D02*
X19705000Y-8185000D01*
X13485000Y-5600000D02*
G75*
G03X13485000Y-5600000I-25000J0D01*
G01*
X14900000Y-4675000D02*
G75*
G03X14900000Y-4675000I-25000J0D01*
G01*
X15400000Y-4225000D02*
G75*
G03X15400000Y-4225000I-25000J0D01*
G01*
X15450000Y-4582500D02*
G75*
G03X15450000Y-4582500I-25000J0D01*
G01*
X17625000Y-4925000D02*
G75*
G03X17625000Y-4925000I-25000J0D01*
G01*
X17625000Y-11150000D02*
G75*
G03X17625000Y-11150000I-25000J0D01*
G01*
X17800000Y-11000000D02*
G75*
G03X17800000Y-11000000I-25000J0D01*
G01*
X17800000Y-11150000D02*
G75*
G03X17800000Y-11150000I-25000J0D01*
G01*
X17800000Y-11325000D02*
G75*
G03X17800000Y-11325000I-25000J0D01*
G01*
X18575000Y-4550000D02*
G75*
G03X18575000Y-4550000I-25000J0D01*
G01*
X18775000Y-11150000D02*
G75*
G03X18775000Y-11150000I-25000J0D01*
G01*
X15796500Y-7248000D02*
X15796500Y-7328000D01*
X15756500Y-7288000D02*
X15836500Y-7288000D01*
X15796500Y-8772000D02*
X15796500Y-8852000D01*
X15756500Y-8812000D02*
X15836500Y-8812000D01*
X16050500Y-7248000D02*
X16050500Y-7328000D01*
X16010500Y-7288000D02*
X16090500Y-7288000D01*
X16050500Y-8772000D02*
X16050500Y-8852000D01*
X16010500Y-8812000D02*
X16090500Y-8812000D01*
X16304500Y-7248000D02*
X16304500Y-7328000D01*
X16264500Y-7288000D02*
X16344500Y-7288000D01*
X16304500Y-8772000D02*
X16304500Y-8852000D01*
X16264500Y-8812000D02*
X16344500Y-8812000D01*
X16558500Y-7248000D02*
X16558500Y-7328000D01*
X16518500Y-7288000D02*
X16598500Y-7288000D01*
X16558500Y-8772000D02*
X16558500Y-8852000D01*
X16518500Y-8812000D02*
X16598500Y-8812000D01*
X16812500Y-7248000D02*
X16812500Y-7328000D01*
X16772500Y-7288000D02*
X16852500Y-7288000D01*
X16812500Y-8772000D02*
X16812500Y-8852000D01*
X16772500Y-8812000D02*
X16852500Y-8812000D01*
X17066500Y-7248000D02*
X17066500Y-7328000D01*
X17026500Y-7288000D02*
X17106500Y-7288000D01*
X17066500Y-8772000D02*
X17066500Y-8852000D01*
X17026500Y-8812000D02*
X17106500Y-8812000D01*
X17320500Y-7248000D02*
X17320500Y-7328000D01*
X17280500Y-7288000D02*
X17360500Y-7288000D01*
X17320500Y-8772000D02*
X17320500Y-8852000D01*
X17280500Y-8812000D02*
X17360500Y-8812000D01*
X17574500Y-7248000D02*
X17574500Y-7328000D01*
X17534500Y-7288000D02*
X17614500Y-7288000D01*
X17574500Y-8772000D02*
X17574500Y-8852000D01*
X17534500Y-8812000D02*
X17614500Y-8812000D01*
X17828500Y-7248000D02*
X17828500Y-7328000D01*
X17788500Y-7288000D02*
X17868500Y-7288000D01*
X17828500Y-8772000D02*
X17828500Y-8852000D01*
X17788500Y-8812000D02*
X17868500Y-8812000D01*
X13271500Y-7248000D02*
X13271500Y-7328000D01*
X13231500Y-7288000D02*
X13311500Y-7288000D01*
X13271500Y-8772000D02*
X13271500Y-8852000D01*
X13231500Y-8812000D02*
X13311500Y-8812000D01*
X13525500Y-7248000D02*
X13525500Y-7328000D01*
X13485500Y-7288000D02*
X13565500Y-7288000D01*
X13525500Y-8772000D02*
X13525500Y-8852000D01*
X13485500Y-8812000D02*
X13565500Y-8812000D01*
X13779500Y-7248000D02*
X13779500Y-7328000D01*
X13739500Y-7288000D02*
X13819500Y-7288000D01*
X13779500Y-8772000D02*
X13779500Y-8852000D01*
X13739500Y-8812000D02*
X13819500Y-8812000D01*
X14033500Y-7248000D02*
X14033500Y-7328000D01*
X13993500Y-7288000D02*
X14073500Y-7288000D01*
X14033500Y-8772000D02*
X14033500Y-8852000D01*
X13993500Y-8812000D02*
X14073500Y-8812000D01*
X14287500Y-7248000D02*
X14287500Y-7328000D01*
X14247500Y-7288000D02*
X14327500Y-7288000D01*
X14287500Y-8772000D02*
X14287500Y-8852000D01*
X14247500Y-8812000D02*
X14327500Y-8812000D01*
X14541500Y-7248000D02*
X14541500Y-7328000D01*
X14501500Y-7288000D02*
X14581500Y-7288000D01*
X14541500Y-8772000D02*
X14541500Y-8852000D01*
X14501500Y-8812000D02*
X14581500Y-8812000D01*
X14795500Y-7248000D02*
X14795500Y-7328000D01*
X14755500Y-7288000D02*
X14835500Y-7288000D01*
X14795500Y-8772000D02*
X14795500Y-8852000D01*
X14755500Y-8812000D02*
X14835500Y-8812000D01*
X15049500Y-7248000D02*
X15049500Y-7328000D01*
X15009500Y-7288000D02*
X15089500Y-7288000D01*
X15049500Y-8772000D02*
X15049500Y-8852000D01*
X15009500Y-8812000D02*
X15089500Y-8812000D01*
X15303500Y-7248000D02*
X15303500Y-7328000D01*
X15263500Y-7288000D02*
X15343500Y-7288000D01*
X15303500Y-8772000D02*
X15303500Y-8852000D01*
X15263500Y-8812000D02*
X15343500Y-8812000D01*
X18321500Y-7248000D02*
X18321500Y-7328000D01*
X18281500Y-7288000D02*
X18361500Y-7288000D01*
X18321500Y-8772000D02*
X18321500Y-8852000D01*
X18281500Y-8812000D02*
X18361500Y-8812000D01*
X18575500Y-7248000D02*
X18575500Y-7328000D01*
X18535500Y-7288000D02*
X18615500Y-7288000D01*
X18575500Y-8772000D02*
X18575500Y-8852000D01*
X18535500Y-8812000D02*
X18615500Y-8812000D01*
X18829500Y-7248000D02*
X18829500Y-7328000D01*
X18789500Y-7288000D02*
X18869500Y-7288000D01*
X18829500Y-8772000D02*
X18829500Y-8852000D01*
X18789500Y-8812000D02*
X18869500Y-8812000D01*
X19083500Y-7248000D02*
X19083500Y-7328000D01*
X19043500Y-7288000D02*
X19123500Y-7288000D01*
X19083500Y-8772000D02*
X19083500Y-8852000D01*
X19043500Y-8812000D02*
X19123500Y-8812000D01*
X19337500Y-7248000D02*
X19337500Y-7328000D01*
X19297500Y-7288000D02*
X19377500Y-7288000D01*
X19337500Y-8772000D02*
X19337500Y-8852000D01*
X19297500Y-8812000D02*
X19377500Y-8812000D01*
X19591500Y-7248000D02*
X19591500Y-7328000D01*
X19551500Y-7288000D02*
X19631500Y-7288000D01*
X19591500Y-8772000D02*
X19591500Y-8852000D01*
X19551500Y-8812000D02*
X19631500Y-8812000D01*
X19845500Y-7248000D02*
X19845500Y-7328000D01*
X19805500Y-7288000D02*
X19885500Y-7288000D01*
X19845500Y-8772000D02*
X19845500Y-8852000D01*
X19805500Y-8812000D02*
X19885500Y-8812000D01*
X20099500Y-7248000D02*
X20099500Y-7328000D01*
X20059500Y-7288000D02*
X20139500Y-7288000D01*
X20099500Y-8772000D02*
X20099500Y-8852000D01*
X20059500Y-8812000D02*
X20139500Y-8812000D01*
X20353500Y-7248000D02*
X20353500Y-7328000D01*
X20313500Y-7288000D02*
X20393500Y-7288000D01*
X20353500Y-8772000D02*
X20353500Y-8852000D01*
X20313500Y-8812000D02*
X20393500Y-8812000D01*
X10746500Y-7248000D02*
X10746500Y-7328000D01*
X10706500Y-7288000D02*
X10786500Y-7288000D01*
X10746500Y-8772000D02*
X10746500Y-8852000D01*
X10706500Y-8812000D02*
X10786500Y-8812000D01*
X11000500Y-7248000D02*
X11000500Y-7328000D01*
X10960500Y-7288000D02*
X11040500Y-7288000D01*
X11000500Y-8772000D02*
X11000500Y-8852000D01*
X10960500Y-8812000D02*
X11040500Y-8812000D01*
X11254500Y-7248000D02*
X11254500Y-7328000D01*
X11214500Y-7288000D02*
X11294500Y-7288000D01*
X11254500Y-8772000D02*
X11254500Y-8852000D01*
X11214500Y-8812000D02*
X11294500Y-8812000D01*
X11508500Y-7248000D02*
X11508500Y-7328000D01*
X11468500Y-7288000D02*
X11548500Y-7288000D01*
X11508500Y-8772000D02*
X11508500Y-8852000D01*
X11468500Y-8812000D02*
X11548500Y-8812000D01*
X11762500Y-7248000D02*
X11762500Y-7328000D01*
X11722500Y-7288000D02*
X11802500Y-7288000D01*
X11762500Y-8772000D02*
X11762500Y-8852000D01*
X11722500Y-8812000D02*
X11802500Y-8812000D01*
X12016500Y-7248000D02*
X12016500Y-7328000D01*
X11976500Y-7288000D02*
X12056500Y-7288000D01*
X12016500Y-8772000D02*
X12016500Y-8852000D01*
X11976500Y-8812000D02*
X12056500Y-8812000D01*
X12270500Y-7248000D02*
X12270500Y-7328000D01*
X12230500Y-7288000D02*
X12310500Y-7288000D01*
X12270500Y-8772000D02*
X12270500Y-8852000D01*
X12230500Y-8812000D02*
X12310500Y-8812000D01*
X12524500Y-7248000D02*
X12524500Y-7328000D01*
X12484500Y-7288000D02*
X12564500Y-7288000D01*
X12524500Y-8772000D02*
X12524500Y-8852000D01*
X12484500Y-8812000D02*
X12564500Y-8812000D01*
X12778500Y-7248000D02*
X12778500Y-7328000D01*
X12738500Y-7288000D02*
X12818500Y-7288000D01*
X12778500Y-8772000D02*
X12778500Y-8852000D01*
X12738500Y-8812000D02*
X12818500Y-8812000D01*
D11*
X10626428Y-13725714D02*
X10626428Y-13425714D01*
X10697857Y-13425714D01*
X10740714Y-13440000D01*
X10769286Y-13468571D01*
X10783571Y-13497143D01*
X10797857Y-13554286D01*
X10797857Y-13597143D01*
X10783571Y-13654286D01*
X10769286Y-13682857D01*
X10740714Y-13711429D01*
X10697857Y-13725714D01*
X10626428Y-13725714D01*
X10926428Y-13725714D02*
X10926428Y-13525714D01*
X10926428Y-13582857D02*
X10940714Y-13554286D01*
X10955000Y-13540000D01*
X10983571Y-13525714D01*
X11012143Y-13525714D01*
X11112143Y-13725714D02*
X11112143Y-13525714D01*
X11112143Y-13425714D02*
X11097857Y-13440000D01*
X11112143Y-13454286D01*
X11126428Y-13440000D01*
X11112143Y-13425714D01*
X11112143Y-13454286D01*
X11297857Y-13725714D02*
X11269286Y-13711429D01*
X11255000Y-13682857D01*
X11255000Y-13425714D01*
X11455000Y-13725714D02*
X11426428Y-13711429D01*
X11412143Y-13682857D01*
X11412143Y-13425714D01*
X11797857Y-13725714D02*
X11797857Y-13425714D01*
X11897857Y-13640000D01*
X11997857Y-13425714D01*
X11997857Y-13725714D01*
X12269286Y-13725714D02*
X12269286Y-13568571D01*
X12255000Y-13540000D01*
X12226428Y-13525714D01*
X12169286Y-13525714D01*
X12140714Y-13540000D01*
X12269286Y-13711429D02*
X12240714Y-13725714D01*
X12169286Y-13725714D01*
X12140714Y-13711429D01*
X12126428Y-13682857D01*
X12126428Y-13654286D01*
X12140714Y-13625714D01*
X12169286Y-13611429D01*
X12240714Y-13611429D01*
X12269286Y-13597143D01*
X12412143Y-13525714D02*
X12412143Y-13825714D01*
X12412143Y-13540000D02*
X12440714Y-13525714D01*
X12497857Y-13525714D01*
X12526428Y-13540000D01*
X12540714Y-13554286D01*
X12555000Y-13582857D01*
X12555000Y-13668571D01*
X12540714Y-13697143D01*
X12526428Y-13711429D01*
X12497857Y-13725714D01*
X12440714Y-13725714D01*
X12412143Y-13711429D01*
X12683571Y-13697143D02*
X12697857Y-13711429D01*
X12683571Y-13725714D01*
X12669286Y-13711429D01*
X12683571Y-13697143D01*
X12683571Y-13725714D01*
X12683571Y-13540000D02*
X12697857Y-13554286D01*
X12683571Y-13568571D01*
X12669286Y-13554286D01*
X12683571Y-13540000D01*
X12683571Y-13568571D01*
X10310000Y-14205000D02*
X10340000Y-14235000D01*
X10340000Y-14205000D02*
X10310000Y-14235000D01*
X10683571Y-14055714D02*
X10712143Y-14055714D01*
X10740714Y-14070000D01*
X10755000Y-14084286D01*
X10769286Y-14112857D01*
X10783571Y-14170000D01*
X10783571Y-14241429D01*
X10769286Y-14298571D01*
X10755000Y-14327143D01*
X10740714Y-14341429D01*
X10712143Y-14355714D01*
X10683571Y-14355714D01*
X10655000Y-14341429D01*
X10640714Y-14327143D01*
X10626428Y-14298571D01*
X10612143Y-14241429D01*
X10612143Y-14170000D01*
X10626428Y-14112857D01*
X10640714Y-14084286D01*
X10655000Y-14070000D01*
X10683571Y-14055714D01*
X10912143Y-14327143D02*
X10926428Y-14341429D01*
X10912143Y-14355714D01*
X10897857Y-14341429D01*
X10912143Y-14327143D01*
X10912143Y-14355714D01*
X11026428Y-14055714D02*
X11212143Y-14055714D01*
X11112143Y-14170000D01*
X11155000Y-14170000D01*
X11183571Y-14184286D01*
X11197857Y-14198571D01*
X11212143Y-14227143D01*
X11212143Y-14298571D01*
X11197857Y-14327143D01*
X11183571Y-14341429D01*
X11155000Y-14355714D01*
X11069286Y-14355714D01*
X11040714Y-14341429D01*
X11026428Y-14327143D01*
X11397857Y-14055714D02*
X11426428Y-14055714D01*
X11455000Y-14070000D01*
X11469286Y-14084286D01*
X11483571Y-14112857D01*
X11497857Y-14170000D01*
X11497857Y-14241429D01*
X11483571Y-14298571D01*
X11469286Y-14327143D01*
X11455000Y-14341429D01*
X11426428Y-14355714D01*
X11397857Y-14355714D01*
X11369286Y-14341429D01*
X11355000Y-14327143D01*
X11340714Y-14298571D01*
X11326428Y-14241429D01*
X11326428Y-14170000D01*
X11340714Y-14112857D01*
X11355000Y-14084286D01*
X11369286Y-14070000D01*
X11397857Y-14055714D01*
X11626428Y-14355714D02*
X11626428Y-14155714D01*
X11626428Y-14184286D02*
X11640714Y-14170000D01*
X11669286Y-14155714D01*
X11712143Y-14155714D01*
X11740714Y-14170000D01*
X11755000Y-14198571D01*
X11755000Y-14355714D01*
X11755000Y-14198571D02*
X11769286Y-14170000D01*
X11797857Y-14155714D01*
X11840714Y-14155714D01*
X11869286Y-14170000D01*
X11883571Y-14198571D01*
X11883571Y-14355714D01*
X12026428Y-14355714D02*
X12026428Y-14155714D01*
X12026428Y-14184286D02*
X12040714Y-14170000D01*
X12069286Y-14155714D01*
X12112143Y-14155714D01*
X12140714Y-14170000D01*
X12155000Y-14198571D01*
X12155000Y-14355714D01*
X12155000Y-14198571D02*
X12169286Y-14170000D01*
X12197857Y-14155714D01*
X12240714Y-14155714D01*
X12269286Y-14170000D01*
X12283571Y-14198571D01*
X12283571Y-14355714D01*
X12869286Y-14041429D02*
X12612143Y-14427143D01*
X13255000Y-14055714D02*
X13283571Y-14055714D01*
X13312143Y-14070000D01*
X13326428Y-14084286D01*
X13340714Y-14112857D01*
X13355000Y-14170000D01*
X13355000Y-14241429D01*
X13340714Y-14298571D01*
X13326428Y-14327143D01*
X13312143Y-14341429D01*
X13283571Y-14355714D01*
X13255000Y-14355714D01*
X13226428Y-14341429D01*
X13212143Y-14327143D01*
X13197857Y-14298571D01*
X13183571Y-14241429D01*
X13183571Y-14170000D01*
X13197857Y-14112857D01*
X13212143Y-14084286D01*
X13226428Y-14070000D01*
X13255000Y-14055714D01*
X13483571Y-14327143D02*
X13497857Y-14341429D01*
X13483571Y-14355714D01*
X13469286Y-14341429D01*
X13483571Y-14327143D01*
X13483571Y-14355714D01*
X13683571Y-14055714D02*
X13712143Y-14055714D01*
X13740714Y-14070000D01*
X13755000Y-14084286D01*
X13769286Y-14112857D01*
X13783571Y-14170000D01*
X13783571Y-14241429D01*
X13769286Y-14298571D01*
X13755000Y-14327143D01*
X13740714Y-14341429D01*
X13712143Y-14355714D01*
X13683571Y-14355714D01*
X13655000Y-14341429D01*
X13640714Y-14327143D01*
X13626428Y-14298571D01*
X13612143Y-14241429D01*
X13612143Y-14170000D01*
X13626428Y-14112857D01*
X13640714Y-14084286D01*
X13655000Y-14070000D01*
X13683571Y-14055714D01*
X14069286Y-14355714D02*
X13897857Y-14355714D01*
X13983571Y-14355714D02*
X13983571Y-14055714D01*
X13955000Y-14098571D01*
X13926428Y-14127143D01*
X13897857Y-14141429D01*
X14183571Y-14084286D02*
X14197857Y-14070000D01*
X14226428Y-14055714D01*
X14297857Y-14055714D01*
X14326428Y-14070000D01*
X14340714Y-14084286D01*
X14355000Y-14112857D01*
X14355000Y-14141429D01*
X14340714Y-14184286D01*
X14169286Y-14355714D01*
X14355000Y-14355714D01*
X14469286Y-14055714D02*
X14469286Y-14112857D01*
X14583571Y-14055714D02*
X14583571Y-14112857D01*
X15026428Y-14470000D02*
X15012143Y-14455714D01*
X14983571Y-14412857D01*
X14969286Y-14384286D01*
X14955000Y-14341429D01*
X14940714Y-14270000D01*
X14940714Y-14212857D01*
X14955000Y-14141429D01*
X14969286Y-14098571D01*
X14983571Y-14070000D01*
X15012143Y-14027143D01*
X15026428Y-14012857D01*
X15183571Y-14184286D02*
X15155000Y-14170000D01*
X15140714Y-14155714D01*
X15126428Y-14127143D01*
X15126428Y-14112857D01*
X15140714Y-14084286D01*
X15155000Y-14070000D01*
X15183571Y-14055714D01*
X15240714Y-14055714D01*
X15269286Y-14070000D01*
X15283571Y-14084286D01*
X15297857Y-14112857D01*
X15297857Y-14127143D01*
X15283571Y-14155714D01*
X15269286Y-14170000D01*
X15240714Y-14184286D01*
X15183571Y-14184286D01*
X15155000Y-14198571D01*
X15140714Y-14212857D01*
X15126428Y-14241429D01*
X15126428Y-14298571D01*
X15140714Y-14327143D01*
X15155000Y-14341429D01*
X15183571Y-14355714D01*
X15240714Y-14355714D01*
X15269286Y-14341429D01*
X15283571Y-14327143D01*
X15297857Y-14298571D01*
X15297857Y-14241429D01*
X15283571Y-14212857D01*
X15269286Y-14198571D01*
X15240714Y-14184286D01*
X15397857Y-14055714D02*
X15583571Y-14055714D01*
X15483571Y-14170000D01*
X15526428Y-14170000D01*
X15555000Y-14184286D01*
X15569286Y-14198571D01*
X15583571Y-14227143D01*
X15583571Y-14298571D01*
X15569286Y-14327143D01*
X15555000Y-14341429D01*
X15526428Y-14355714D01*
X15440714Y-14355714D01*
X15412143Y-14341429D01*
X15397857Y-14327143D01*
X15940714Y-14355714D02*
X15940714Y-14055714D01*
X16069286Y-14355714D02*
X16069286Y-14198571D01*
X16055000Y-14170000D01*
X16026428Y-14155714D01*
X15983571Y-14155714D01*
X15955000Y-14170000D01*
X15940714Y-14184286D01*
X16255000Y-14355714D02*
X16226428Y-14341429D01*
X16212143Y-14327143D01*
X16197857Y-14298571D01*
X16197857Y-14212857D01*
X16212143Y-14184286D01*
X16226428Y-14170000D01*
X16255000Y-14155714D01*
X16297857Y-14155714D01*
X16326428Y-14170000D01*
X16340714Y-14184286D01*
X16355000Y-14212857D01*
X16355000Y-14298571D01*
X16340714Y-14327143D01*
X16326428Y-14341429D01*
X16297857Y-14355714D01*
X16255000Y-14355714D01*
X16526428Y-14355714D02*
X16497857Y-14341429D01*
X16483571Y-14312857D01*
X16483571Y-14055714D01*
X16755000Y-14341429D02*
X16726428Y-14355714D01*
X16669286Y-14355714D01*
X16640714Y-14341429D01*
X16626428Y-14312857D01*
X16626428Y-14198571D01*
X16640714Y-14170000D01*
X16669286Y-14155714D01*
X16726428Y-14155714D01*
X16755000Y-14170000D01*
X16769286Y-14198571D01*
X16769286Y-14227143D01*
X16626428Y-14255714D01*
X16883571Y-14341429D02*
X16912143Y-14355714D01*
X16969286Y-14355714D01*
X16997857Y-14341429D01*
X17012143Y-14312857D01*
X17012143Y-14298571D01*
X16997857Y-14270000D01*
X16969286Y-14255714D01*
X16926428Y-14255714D01*
X16897857Y-14241429D01*
X16883571Y-14212857D01*
X16883571Y-14198571D01*
X16897857Y-14170000D01*
X16926428Y-14155714D01*
X16969286Y-14155714D01*
X16997857Y-14170000D01*
X17112143Y-14470000D02*
X17126428Y-14455714D01*
X17155000Y-14412857D01*
X17169286Y-14384286D01*
X17183571Y-14341429D01*
X17197857Y-14270000D01*
X17197857Y-14212857D01*
X17183571Y-14141429D01*
X17169286Y-14098571D01*
X17155000Y-14070000D01*
X17126428Y-14027143D01*
X17112143Y-14012857D01*
X10340000Y-14616000D02*
G75*
G03X10340000Y-14616000I-25000J0D01*
G01*
X10683571Y-14451714D02*
X10712143Y-14451714D01*
X10740714Y-14466000D01*
X10755000Y-14480286D01*
X10769286Y-14508857D01*
X10783571Y-14566000D01*
X10783571Y-14637429D01*
X10769286Y-14694571D01*
X10755000Y-14723143D01*
X10740714Y-14737429D01*
X10712143Y-14751714D01*
X10683571Y-14751714D01*
X10655000Y-14737429D01*
X10640714Y-14723143D01*
X10626428Y-14694571D01*
X10612143Y-14637429D01*
X10612143Y-14566000D01*
X10626428Y-14508857D01*
X10640714Y-14480286D01*
X10655000Y-14466000D01*
X10683571Y-14451714D01*
X10912143Y-14723143D02*
X10926428Y-14737429D01*
X10912143Y-14751714D01*
X10897857Y-14737429D01*
X10912143Y-14723143D01*
X10912143Y-14751714D01*
X11197857Y-14451714D02*
X11055000Y-14451714D01*
X11040714Y-14594571D01*
X11055000Y-14580286D01*
X11083571Y-14566000D01*
X11155000Y-14566000D01*
X11183571Y-14580286D01*
X11197857Y-14594571D01*
X11212143Y-14623143D01*
X11212143Y-14694571D01*
X11197857Y-14723143D01*
X11183571Y-14737429D01*
X11155000Y-14751714D01*
X11083571Y-14751714D01*
X11055000Y-14737429D01*
X11040714Y-14723143D01*
X11397857Y-14451714D02*
X11426428Y-14451714D01*
X11455000Y-14466000D01*
X11469286Y-14480286D01*
X11483571Y-14508857D01*
X11497857Y-14566000D01*
X11497857Y-14637429D01*
X11483571Y-14694571D01*
X11469286Y-14723143D01*
X11455000Y-14737429D01*
X11426428Y-14751714D01*
X11397857Y-14751714D01*
X11369286Y-14737429D01*
X11355000Y-14723143D01*
X11340714Y-14694571D01*
X11326428Y-14637429D01*
X11326428Y-14566000D01*
X11340714Y-14508857D01*
X11355000Y-14480286D01*
X11369286Y-14466000D01*
X11397857Y-14451714D01*
X11626428Y-14751714D02*
X11626428Y-14551714D01*
X11626428Y-14580286D02*
X11640714Y-14566000D01*
X11669286Y-14551714D01*
X11712143Y-14551714D01*
X11740714Y-14566000D01*
X11755000Y-14594571D01*
X11755000Y-14751714D01*
X11755000Y-14594571D02*
X11769286Y-14566000D01*
X11797857Y-14551714D01*
X11840714Y-14551714D01*
X11869286Y-14566000D01*
X11883571Y-14594571D01*
X11883571Y-14751714D01*
X12026428Y-14751714D02*
X12026428Y-14551714D01*
X12026428Y-14580286D02*
X12040714Y-14566000D01*
X12069286Y-14551714D01*
X12112143Y-14551714D01*
X12140714Y-14566000D01*
X12155000Y-14594571D01*
X12155000Y-14751714D01*
X12155000Y-14594571D02*
X12169286Y-14566000D01*
X12197857Y-14551714D01*
X12240714Y-14551714D01*
X12269286Y-14566000D01*
X12283571Y-14594571D01*
X12283571Y-14751714D01*
X12869286Y-14437429D02*
X12612143Y-14823143D01*
X13255000Y-14451714D02*
X13283571Y-14451714D01*
X13312143Y-14466000D01*
X13326428Y-14480286D01*
X13340714Y-14508857D01*
X13355000Y-14566000D01*
X13355000Y-14637429D01*
X13340714Y-14694571D01*
X13326428Y-14723143D01*
X13312143Y-14737429D01*
X13283571Y-14751714D01*
X13255000Y-14751714D01*
X13226428Y-14737429D01*
X13212143Y-14723143D01*
X13197857Y-14694571D01*
X13183571Y-14637429D01*
X13183571Y-14566000D01*
X13197857Y-14508857D01*
X13212143Y-14480286D01*
X13226428Y-14466000D01*
X13255000Y-14451714D01*
X13483571Y-14723143D02*
X13497857Y-14737429D01*
X13483571Y-14751714D01*
X13469286Y-14737429D01*
X13483571Y-14723143D01*
X13483571Y-14751714D01*
X13683571Y-14451714D02*
X13712143Y-14451714D01*
X13740714Y-14466000D01*
X13755000Y-14480286D01*
X13769286Y-14508857D01*
X13783571Y-14566000D01*
X13783571Y-14637429D01*
X13769286Y-14694571D01*
X13755000Y-14723143D01*
X13740714Y-14737429D01*
X13712143Y-14751714D01*
X13683571Y-14751714D01*
X13655000Y-14737429D01*
X13640714Y-14723143D01*
X13626428Y-14694571D01*
X13612143Y-14637429D01*
X13612143Y-14566000D01*
X13626428Y-14508857D01*
X13640714Y-14480286D01*
X13655000Y-14466000D01*
X13683571Y-14451714D01*
X13897857Y-14480286D02*
X13912143Y-14466000D01*
X13940714Y-14451714D01*
X14012143Y-14451714D01*
X14040714Y-14466000D01*
X14055000Y-14480286D01*
X14069286Y-14508857D01*
X14069286Y-14537429D01*
X14055000Y-14580286D01*
X13883571Y-14751714D01*
X14069286Y-14751714D01*
X14255000Y-14451714D02*
X14283571Y-14451714D01*
X14312143Y-14466000D01*
X14326428Y-14480286D01*
X14340714Y-14508857D01*
X14355000Y-14566000D01*
X14355000Y-14637429D01*
X14340714Y-14694571D01*
X14326428Y-14723143D01*
X14312143Y-14737429D01*
X14283571Y-14751714D01*
X14255000Y-14751714D01*
X14226428Y-14737429D01*
X14212143Y-14723143D01*
X14197857Y-14694571D01*
X14183571Y-14637429D01*
X14183571Y-14566000D01*
X14197857Y-14508857D01*
X14212143Y-14480286D01*
X14226428Y-14466000D01*
X14255000Y-14451714D01*
X14469286Y-14451714D02*
X14469286Y-14508857D01*
X14583571Y-14451714D02*
X14583571Y-14508857D01*
X15026428Y-14866000D02*
X15012143Y-14851714D01*
X14983571Y-14808857D01*
X14969286Y-14780286D01*
X14955000Y-14737429D01*
X14940714Y-14666000D01*
X14940714Y-14608857D01*
X14955000Y-14537429D01*
X14969286Y-14494571D01*
X14983571Y-14466000D01*
X15012143Y-14423143D01*
X15026428Y-14408857D01*
X15297857Y-14751714D02*
X15126428Y-14751714D01*
X15212143Y-14751714D02*
X15212143Y-14451714D01*
X15183571Y-14494571D01*
X15155000Y-14523143D01*
X15126428Y-14537429D01*
X15583571Y-14751714D02*
X15412143Y-14751714D01*
X15497857Y-14751714D02*
X15497857Y-14451714D01*
X15469286Y-14494571D01*
X15440714Y-14523143D01*
X15412143Y-14537429D01*
X15940714Y-14751714D02*
X15940714Y-14451714D01*
X16069286Y-14751714D02*
X16069286Y-14594571D01*
X16055000Y-14566000D01*
X16026428Y-14551714D01*
X15983571Y-14551714D01*
X15955000Y-14566000D01*
X15940714Y-14580286D01*
X16255000Y-14751714D02*
X16226428Y-14737429D01*
X16212143Y-14723143D01*
X16197857Y-14694571D01*
X16197857Y-14608857D01*
X16212143Y-14580286D01*
X16226428Y-14566000D01*
X16255000Y-14551714D01*
X16297857Y-14551714D01*
X16326428Y-14566000D01*
X16340714Y-14580286D01*
X16355000Y-14608857D01*
X16355000Y-14694571D01*
X16340714Y-14723143D01*
X16326428Y-14737429D01*
X16297857Y-14751714D01*
X16255000Y-14751714D01*
X16526428Y-14751714D02*
X16497857Y-14737429D01*
X16483571Y-14708857D01*
X16483571Y-14451714D01*
X16755000Y-14737429D02*
X16726428Y-14751714D01*
X16669286Y-14751714D01*
X16640714Y-14737429D01*
X16626428Y-14708857D01*
X16626428Y-14594571D01*
X16640714Y-14566000D01*
X16669286Y-14551714D01*
X16726428Y-14551714D01*
X16755000Y-14566000D01*
X16769286Y-14594571D01*
X16769286Y-14623143D01*
X16626428Y-14651714D01*
X16883571Y-14737429D02*
X16912143Y-14751714D01*
X16969286Y-14751714D01*
X16997857Y-14737429D01*
X17012143Y-14708857D01*
X17012143Y-14694571D01*
X16997857Y-14666000D01*
X16969286Y-14651714D01*
X16926428Y-14651714D01*
X16897857Y-14637429D01*
X16883571Y-14608857D01*
X16883571Y-14594571D01*
X16897857Y-14566000D01*
X16926428Y-14551714D01*
X16969286Y-14551714D01*
X16997857Y-14566000D01*
X17112143Y-14866000D02*
X17126428Y-14851714D01*
X17155000Y-14808857D01*
X17169286Y-14780286D01*
X17183571Y-14737429D01*
X17197857Y-14666000D01*
X17197857Y-14608857D01*
X17183571Y-14537429D01*
X17169286Y-14494571D01*
X17155000Y-14466000D01*
X17126428Y-14423143D01*
X17112143Y-14408857D01*
X10300000Y-14972000D02*
X10300000Y-15052000D01*
X10260000Y-15012000D02*
X10340000Y-15012000D01*
X10683571Y-14847714D02*
X10712143Y-14847714D01*
X10740714Y-14862000D01*
X10755000Y-14876286D01*
X10769286Y-14904857D01*
X10783571Y-14962000D01*
X10783571Y-15033429D01*
X10769286Y-15090571D01*
X10755000Y-15119143D01*
X10740714Y-15133429D01*
X10712143Y-15147714D01*
X10683571Y-15147714D01*
X10655000Y-15133429D01*
X10640714Y-15119143D01*
X10626428Y-15090571D01*
X10612143Y-15033429D01*
X10612143Y-14962000D01*
X10626428Y-14904857D01*
X10640714Y-14876286D01*
X10655000Y-14862000D01*
X10683571Y-14847714D01*
X10912143Y-15119143D02*
X10926428Y-15133429D01*
X10912143Y-15147714D01*
X10897857Y-15133429D01*
X10912143Y-15119143D01*
X10912143Y-15147714D01*
X11097857Y-14976286D02*
X11069286Y-14962000D01*
X11055000Y-14947714D01*
X11040714Y-14919143D01*
X11040714Y-14904857D01*
X11055000Y-14876286D01*
X11069286Y-14862000D01*
X11097857Y-14847714D01*
X11155000Y-14847714D01*
X11183571Y-14862000D01*
X11197857Y-14876286D01*
X11212143Y-14904857D01*
X11212143Y-14919143D01*
X11197857Y-14947714D01*
X11183571Y-14962000D01*
X11155000Y-14976286D01*
X11097857Y-14976286D01*
X11069286Y-14990571D01*
X11055000Y-15004857D01*
X11040714Y-15033429D01*
X11040714Y-15090571D01*
X11055000Y-15119143D01*
X11069286Y-15133429D01*
X11097857Y-15147714D01*
X11155000Y-15147714D01*
X11183571Y-15133429D01*
X11197857Y-15119143D01*
X11212143Y-15090571D01*
X11212143Y-15033429D01*
X11197857Y-15004857D01*
X11183571Y-14990571D01*
X11155000Y-14976286D01*
X11397857Y-14847714D02*
X11426428Y-14847714D01*
X11455000Y-14862000D01*
X11469286Y-14876286D01*
X11483571Y-14904857D01*
X11497857Y-14962000D01*
X11497857Y-15033429D01*
X11483571Y-15090571D01*
X11469286Y-15119143D01*
X11455000Y-15133429D01*
X11426428Y-15147714D01*
X11397857Y-15147714D01*
X11369286Y-15133429D01*
X11355000Y-15119143D01*
X11340714Y-15090571D01*
X11326428Y-15033429D01*
X11326428Y-14962000D01*
X11340714Y-14904857D01*
X11355000Y-14876286D01*
X11369286Y-14862000D01*
X11397857Y-14847714D01*
X11626428Y-15147714D02*
X11626428Y-14947714D01*
X11626428Y-14976286D02*
X11640714Y-14962000D01*
X11669286Y-14947714D01*
X11712143Y-14947714D01*
X11740714Y-14962000D01*
X11755000Y-14990571D01*
X11755000Y-15147714D01*
X11755000Y-14990571D02*
X11769286Y-14962000D01*
X11797857Y-14947714D01*
X11840714Y-14947714D01*
X11869286Y-14962000D01*
X11883571Y-14990571D01*
X11883571Y-15147714D01*
X12026428Y-15147714D02*
X12026428Y-14947714D01*
X12026428Y-14976286D02*
X12040714Y-14962000D01*
X12069286Y-14947714D01*
X12112143Y-14947714D01*
X12140714Y-14962000D01*
X12155000Y-14990571D01*
X12155000Y-15147714D01*
X12155000Y-14990571D02*
X12169286Y-14962000D01*
X12197857Y-14947714D01*
X12240714Y-14947714D01*
X12269286Y-14962000D01*
X12283571Y-14990571D01*
X12283571Y-15147714D01*
X12869286Y-14833429D02*
X12612143Y-15219143D01*
X13255000Y-14847714D02*
X13283571Y-14847714D01*
X13312143Y-14862000D01*
X13326428Y-14876286D01*
X13340714Y-14904857D01*
X13355000Y-14962000D01*
X13355000Y-15033429D01*
X13340714Y-15090571D01*
X13326428Y-15119143D01*
X13312143Y-15133429D01*
X13283571Y-15147714D01*
X13255000Y-15147714D01*
X13226428Y-15133429D01*
X13212143Y-15119143D01*
X13197857Y-15090571D01*
X13183571Y-15033429D01*
X13183571Y-14962000D01*
X13197857Y-14904857D01*
X13212143Y-14876286D01*
X13226428Y-14862000D01*
X13255000Y-14847714D01*
X13483571Y-15119143D02*
X13497857Y-15133429D01*
X13483571Y-15147714D01*
X13469286Y-15133429D01*
X13483571Y-15119143D01*
X13483571Y-15147714D01*
X13683571Y-14847714D02*
X13712143Y-14847714D01*
X13740714Y-14862000D01*
X13755000Y-14876286D01*
X13769286Y-14904857D01*
X13783571Y-14962000D01*
X13783571Y-15033429D01*
X13769286Y-15090571D01*
X13755000Y-15119143D01*
X13740714Y-15133429D01*
X13712143Y-15147714D01*
X13683571Y-15147714D01*
X13655000Y-15133429D01*
X13640714Y-15119143D01*
X13626428Y-15090571D01*
X13612143Y-15033429D01*
X13612143Y-14962000D01*
X13626428Y-14904857D01*
X13640714Y-14876286D01*
X13655000Y-14862000D01*
X13683571Y-14847714D01*
X13883571Y-14847714D02*
X14069286Y-14847714D01*
X13969286Y-14962000D01*
X14012143Y-14962000D01*
X14040714Y-14976286D01*
X14055000Y-14990571D01*
X14069286Y-15019143D01*
X14069286Y-15090571D01*
X14055000Y-15119143D01*
X14040714Y-15133429D01*
X14012143Y-15147714D01*
X13926428Y-15147714D01*
X13897857Y-15133429D01*
X13883571Y-15119143D01*
X14355000Y-15147714D02*
X14183571Y-15147714D01*
X14269286Y-15147714D02*
X14269286Y-14847714D01*
X14240714Y-14890571D01*
X14212143Y-14919143D01*
X14183571Y-14933429D01*
X14469286Y-14847714D02*
X14469286Y-14904857D01*
X14583571Y-14847714D02*
X14583571Y-14904857D01*
X15026428Y-15262000D02*
X15012143Y-15247714D01*
X14983571Y-15204857D01*
X14969286Y-15176286D01*
X14955000Y-15133429D01*
X14940714Y-15062000D01*
X14940714Y-15004857D01*
X14955000Y-14933429D01*
X14969286Y-14890571D01*
X14983571Y-14862000D01*
X15012143Y-14819143D01*
X15026428Y-14804857D01*
X15112143Y-14847714D02*
X15312143Y-14847714D01*
X15183571Y-15147714D01*
X15412143Y-14876286D02*
X15426428Y-14862000D01*
X15455000Y-14847714D01*
X15526428Y-14847714D01*
X15555000Y-14862000D01*
X15569286Y-14876286D01*
X15583571Y-14904857D01*
X15583571Y-14933429D01*
X15569286Y-14976286D01*
X15397857Y-15147714D01*
X15583571Y-15147714D01*
X15940714Y-15147714D02*
X15940714Y-14847714D01*
X16069286Y-15147714D02*
X16069286Y-14990571D01*
X16055000Y-14962000D01*
X16026428Y-14947714D01*
X15983571Y-14947714D01*
X15955000Y-14962000D01*
X15940714Y-14976286D01*
X16255000Y-15147714D02*
X16226428Y-15133429D01*
X16212143Y-15119143D01*
X16197857Y-15090571D01*
X16197857Y-15004857D01*
X16212143Y-14976286D01*
X16226428Y-14962000D01*
X16255000Y-14947714D01*
X16297857Y-14947714D01*
X16326428Y-14962000D01*
X16340714Y-14976286D01*
X16355000Y-15004857D01*
X16355000Y-15090571D01*
X16340714Y-15119143D01*
X16326428Y-15133429D01*
X16297857Y-15147714D01*
X16255000Y-15147714D01*
X16526428Y-15147714D02*
X16497857Y-15133429D01*
X16483571Y-15104857D01*
X16483571Y-14847714D01*
X16755000Y-15133429D02*
X16726428Y-15147714D01*
X16669286Y-15147714D01*
X16640714Y-15133429D01*
X16626428Y-15104857D01*
X16626428Y-14990571D01*
X16640714Y-14962000D01*
X16669286Y-14947714D01*
X16726428Y-14947714D01*
X16755000Y-14962000D01*
X16769286Y-14990571D01*
X16769286Y-15019143D01*
X16626428Y-15047714D01*
X16883571Y-15133429D02*
X16912143Y-15147714D01*
X16969286Y-15147714D01*
X16997857Y-15133429D01*
X17012143Y-15104857D01*
X17012143Y-15090571D01*
X16997857Y-15062000D01*
X16969286Y-15047714D01*
X16926428Y-15047714D01*
X16897857Y-15033429D01*
X16883571Y-15004857D01*
X16883571Y-14990571D01*
X16897857Y-14962000D01*
X16926428Y-14947714D01*
X16969286Y-14947714D01*
X16997857Y-14962000D01*
X17112143Y-15262000D02*
X17126428Y-15247714D01*
X17155000Y-15204857D01*
X17169286Y-15176286D01*
X17183571Y-15133429D01*
X17197857Y-15062000D01*
X17197857Y-15004857D01*
X17183571Y-14933429D01*
X17169286Y-14890571D01*
X17155000Y-14862000D01*
X17126428Y-14819143D01*
X17112143Y-14804857D01*
M02*
