%FSLAX45Y45*%
G04 Gerber Fmt 4.5, Leading zero omitted, Abs format (unit mm)*
G04 Created by KiCad (PCBNEW 5.0.0-rc2-dev-unknown+dfsg1+20180318-3) date Thu May 24 18:13:11 2018*
%MOMM*%
%LPD*%
G01*
G04 APERTURE LIST*
%ADD10C,0.200000*%
%ADD11C,0.300000*%
G04 APERTURE END LIST*
D10*
X20750000Y-8050000D02*
G75*
G03X20750000Y-8050000I-5200000J0D01*
G01*
D10*
X15378150Y-5546850D02*
X15453150Y-5621850D01*
X15453150Y-5546850D02*
X15378150Y-5621850D01*
X19395000Y-9710000D02*
G75*
G03X19395000Y-9710000I-45000J0D01*
G01*
X19395000Y-10390000D02*
G75*
G03X19395000Y-10390000I-45000J0D01*
G01*
X15684350Y-5263150D02*
X15684350Y-5368150D01*
X15631850Y-5315650D02*
X15736850Y-5315650D01*
X13180377Y-9661667D02*
X13180377Y-9521573D01*
X13040283Y-9521573D01*
X13040283Y-9661667D01*
X13180377Y-9661667D01*
X15550000Y-3310000D02*
X15710000Y-3150000D01*
X15550000Y-2990000D01*
X15390000Y-3150000D01*
X15550000Y-3310000D01*
D11*
X10626428Y-13725714D02*
X10626428Y-13425714D01*
X10697857Y-13425714D01*
X10740714Y-13440000D01*
X10769286Y-13468571D01*
X10783571Y-13497143D01*
X10797857Y-13554286D01*
X10797857Y-13597143D01*
X10783571Y-13654286D01*
X10769286Y-13682857D01*
X10740714Y-13711429D01*
X10697857Y-13725714D01*
X10626428Y-13725714D01*
X10926428Y-13725714D02*
X10926428Y-13525714D01*
X10926428Y-13582857D02*
X10940714Y-13554286D01*
X10955000Y-13540000D01*
X10983571Y-13525714D01*
X11012143Y-13525714D01*
X11112143Y-13725714D02*
X11112143Y-13525714D01*
X11112143Y-13425714D02*
X11097857Y-13440000D01*
X11112143Y-13454286D01*
X11126428Y-13440000D01*
X11112143Y-13425714D01*
X11112143Y-13454286D01*
X11297857Y-13725714D02*
X11269286Y-13711429D01*
X11255000Y-13682857D01*
X11255000Y-13425714D01*
X11455000Y-13725714D02*
X11426428Y-13711429D01*
X11412143Y-13682857D01*
X11412143Y-13425714D01*
X11797857Y-13725714D02*
X11797857Y-13425714D01*
X11897857Y-13640000D01*
X11997857Y-13425714D01*
X11997857Y-13725714D01*
X12269286Y-13725714D02*
X12269286Y-13568571D01*
X12255000Y-13540000D01*
X12226428Y-13525714D01*
X12169286Y-13525714D01*
X12140714Y-13540000D01*
X12269286Y-13711429D02*
X12240714Y-13725714D01*
X12169286Y-13725714D01*
X12140714Y-13711429D01*
X12126428Y-13682857D01*
X12126428Y-13654286D01*
X12140714Y-13625714D01*
X12169286Y-13611429D01*
X12240714Y-13611429D01*
X12269286Y-13597143D01*
X12412143Y-13525714D02*
X12412143Y-13825714D01*
X12412143Y-13540000D02*
X12440714Y-13525714D01*
X12497857Y-13525714D01*
X12526428Y-13540000D01*
X12540714Y-13554286D01*
X12555000Y-13582857D01*
X12555000Y-13668571D01*
X12540714Y-13697143D01*
X12526428Y-13711429D01*
X12497857Y-13725714D01*
X12440714Y-13725714D01*
X12412143Y-13711429D01*
X12683571Y-13697143D02*
X12697857Y-13711429D01*
X12683571Y-13725714D01*
X12669286Y-13711429D01*
X12683571Y-13697143D01*
X12683571Y-13725714D01*
X12683571Y-13540000D02*
X12697857Y-13554286D01*
X12683571Y-13568571D01*
X12669286Y-13554286D01*
X12683571Y-13540000D01*
X12683571Y-13568571D01*
X10265000Y-14182500D02*
X10340000Y-14257500D01*
X10340000Y-14182500D02*
X10265000Y-14257500D01*
X10683571Y-14055714D02*
X10712143Y-14055714D01*
X10740714Y-14070000D01*
X10755000Y-14084286D01*
X10769286Y-14112857D01*
X10783571Y-14170000D01*
X10783571Y-14241429D01*
X10769286Y-14298571D01*
X10755000Y-14327143D01*
X10740714Y-14341429D01*
X10712143Y-14355714D01*
X10683571Y-14355714D01*
X10655000Y-14341429D01*
X10640714Y-14327143D01*
X10626428Y-14298571D01*
X10612143Y-14241429D01*
X10612143Y-14170000D01*
X10626428Y-14112857D01*
X10640714Y-14084286D01*
X10655000Y-14070000D01*
X10683571Y-14055714D01*
X10912143Y-14327143D02*
X10926428Y-14341429D01*
X10912143Y-14355714D01*
X10897857Y-14341429D01*
X10912143Y-14327143D01*
X10912143Y-14355714D01*
X11026428Y-14055714D02*
X11226428Y-14055714D01*
X11097857Y-14355714D01*
X11483571Y-14055714D02*
X11340714Y-14055714D01*
X11326428Y-14198571D01*
X11340714Y-14184286D01*
X11369286Y-14170000D01*
X11440714Y-14170000D01*
X11469286Y-14184286D01*
X11483571Y-14198571D01*
X11497857Y-14227143D01*
X11497857Y-14298571D01*
X11483571Y-14327143D01*
X11469286Y-14341429D01*
X11440714Y-14355714D01*
X11369286Y-14355714D01*
X11340714Y-14341429D01*
X11326428Y-14327143D01*
X11626428Y-14355714D02*
X11626428Y-14155714D01*
X11626428Y-14184286D02*
X11640714Y-14170000D01*
X11669286Y-14155714D01*
X11712143Y-14155714D01*
X11740714Y-14170000D01*
X11755000Y-14198571D01*
X11755000Y-14355714D01*
X11755000Y-14198571D02*
X11769286Y-14170000D01*
X11797857Y-14155714D01*
X11840714Y-14155714D01*
X11869286Y-14170000D01*
X11883571Y-14198571D01*
X11883571Y-14355714D01*
X12026428Y-14355714D02*
X12026428Y-14155714D01*
X12026428Y-14184286D02*
X12040714Y-14170000D01*
X12069286Y-14155714D01*
X12112143Y-14155714D01*
X12140714Y-14170000D01*
X12155000Y-14198571D01*
X12155000Y-14355714D01*
X12155000Y-14198571D02*
X12169286Y-14170000D01*
X12197857Y-14155714D01*
X12240714Y-14155714D01*
X12269286Y-14170000D01*
X12283571Y-14198571D01*
X12283571Y-14355714D01*
X12869286Y-14041429D02*
X12612143Y-14427143D01*
X13255000Y-14055714D02*
X13283571Y-14055714D01*
X13312143Y-14070000D01*
X13326428Y-14084286D01*
X13340714Y-14112857D01*
X13355000Y-14170000D01*
X13355000Y-14241429D01*
X13340714Y-14298571D01*
X13326428Y-14327143D01*
X13312143Y-14341429D01*
X13283571Y-14355714D01*
X13255000Y-14355714D01*
X13226428Y-14341429D01*
X13212143Y-14327143D01*
X13197857Y-14298571D01*
X13183571Y-14241429D01*
X13183571Y-14170000D01*
X13197857Y-14112857D01*
X13212143Y-14084286D01*
X13226428Y-14070000D01*
X13255000Y-14055714D01*
X13483571Y-14327143D02*
X13497857Y-14341429D01*
X13483571Y-14355714D01*
X13469286Y-14341429D01*
X13483571Y-14327143D01*
X13483571Y-14355714D01*
X13683571Y-14055714D02*
X13712143Y-14055714D01*
X13740714Y-14070000D01*
X13755000Y-14084286D01*
X13769286Y-14112857D01*
X13783571Y-14170000D01*
X13783571Y-14241429D01*
X13769286Y-14298571D01*
X13755000Y-14327143D01*
X13740714Y-14341429D01*
X13712143Y-14355714D01*
X13683571Y-14355714D01*
X13655000Y-14341429D01*
X13640714Y-14327143D01*
X13626428Y-14298571D01*
X13612143Y-14241429D01*
X13612143Y-14170000D01*
X13626428Y-14112857D01*
X13640714Y-14084286D01*
X13655000Y-14070000D01*
X13683571Y-14055714D01*
X13883571Y-14055714D02*
X14069286Y-14055714D01*
X13969286Y-14170000D01*
X14012143Y-14170000D01*
X14040714Y-14184286D01*
X14055000Y-14198571D01*
X14069286Y-14227143D01*
X14069286Y-14298571D01*
X14055000Y-14327143D01*
X14040714Y-14341429D01*
X14012143Y-14355714D01*
X13926428Y-14355714D01*
X13897857Y-14341429D01*
X13883571Y-14327143D01*
X14255000Y-14055714D02*
X14283571Y-14055714D01*
X14312143Y-14070000D01*
X14326428Y-14084286D01*
X14340714Y-14112857D01*
X14355000Y-14170000D01*
X14355000Y-14241429D01*
X14340714Y-14298571D01*
X14326428Y-14327143D01*
X14312143Y-14341429D01*
X14283571Y-14355714D01*
X14255000Y-14355714D01*
X14226428Y-14341429D01*
X14212143Y-14327143D01*
X14197857Y-14298571D01*
X14183571Y-14241429D01*
X14183571Y-14170000D01*
X14197857Y-14112857D01*
X14212143Y-14084286D01*
X14226428Y-14070000D01*
X14255000Y-14055714D01*
X14469286Y-14055714D02*
X14469286Y-14112857D01*
X14583571Y-14055714D02*
X14583571Y-14112857D01*
X15026428Y-14470000D02*
X15012143Y-14455714D01*
X14983571Y-14412857D01*
X14969286Y-14384286D01*
X14955000Y-14341429D01*
X14940714Y-14270000D01*
X14940714Y-14212857D01*
X14955000Y-14141429D01*
X14969286Y-14098571D01*
X14983571Y-14070000D01*
X15012143Y-14027143D01*
X15026428Y-14012857D01*
X15297857Y-14355714D02*
X15126428Y-14355714D01*
X15212143Y-14355714D02*
X15212143Y-14055714D01*
X15183571Y-14098571D01*
X15155000Y-14127143D01*
X15126428Y-14141429D01*
X15655000Y-14355714D02*
X15655000Y-14055714D01*
X15783571Y-14355714D02*
X15783571Y-14198571D01*
X15769286Y-14170000D01*
X15740714Y-14155714D01*
X15697857Y-14155714D01*
X15669286Y-14170000D01*
X15655000Y-14184286D01*
X15969286Y-14355714D02*
X15940714Y-14341429D01*
X15926428Y-14327143D01*
X15912143Y-14298571D01*
X15912143Y-14212857D01*
X15926428Y-14184286D01*
X15940714Y-14170000D01*
X15969286Y-14155714D01*
X16012143Y-14155714D01*
X16040714Y-14170000D01*
X16055000Y-14184286D01*
X16069286Y-14212857D01*
X16069286Y-14298571D01*
X16055000Y-14327143D01*
X16040714Y-14341429D01*
X16012143Y-14355714D01*
X15969286Y-14355714D01*
X16240714Y-14355714D02*
X16212143Y-14341429D01*
X16197857Y-14312857D01*
X16197857Y-14055714D01*
X16469286Y-14341429D02*
X16440714Y-14355714D01*
X16383571Y-14355714D01*
X16355000Y-14341429D01*
X16340714Y-14312857D01*
X16340714Y-14198571D01*
X16355000Y-14170000D01*
X16383571Y-14155714D01*
X16440714Y-14155714D01*
X16469286Y-14170000D01*
X16483571Y-14198571D01*
X16483571Y-14227143D01*
X16340714Y-14255714D01*
X16583571Y-14470000D02*
X16597857Y-14455714D01*
X16626428Y-14412857D01*
X16640714Y-14384286D01*
X16655000Y-14341429D01*
X16669286Y-14270000D01*
X16669286Y-14212857D01*
X16655000Y-14141429D01*
X16640714Y-14098571D01*
X16626428Y-14070000D01*
X16597857Y-14027143D01*
X16583571Y-14012857D01*
X17126428Y-14470000D02*
X17112143Y-14455714D01*
X17083571Y-14412857D01*
X17069286Y-14384286D01*
X17055000Y-14341429D01*
X17040714Y-14270000D01*
X17040714Y-14212857D01*
X17055000Y-14141429D01*
X17069286Y-14098571D01*
X17083571Y-14070000D01*
X17112143Y-14027143D01*
X17126428Y-14012857D01*
X17240714Y-14155714D02*
X17240714Y-14355714D01*
X17240714Y-14184286D02*
X17255000Y-14170000D01*
X17283571Y-14155714D01*
X17326428Y-14155714D01*
X17355000Y-14170000D01*
X17369286Y-14198571D01*
X17369286Y-14355714D01*
X17555000Y-14355714D02*
X17526428Y-14341429D01*
X17512143Y-14327143D01*
X17497857Y-14298571D01*
X17497857Y-14212857D01*
X17512143Y-14184286D01*
X17526428Y-14170000D01*
X17555000Y-14155714D01*
X17597857Y-14155714D01*
X17626428Y-14170000D01*
X17640714Y-14184286D01*
X17655000Y-14212857D01*
X17655000Y-14298571D01*
X17640714Y-14327143D01*
X17626428Y-14341429D01*
X17597857Y-14355714D01*
X17555000Y-14355714D01*
X17740714Y-14155714D02*
X17855000Y-14155714D01*
X17783571Y-14055714D02*
X17783571Y-14312857D01*
X17797857Y-14341429D01*
X17826428Y-14355714D01*
X17855000Y-14355714D01*
X18183571Y-14155714D02*
X18183571Y-14455714D01*
X18183571Y-14170000D02*
X18212143Y-14155714D01*
X18269286Y-14155714D01*
X18297857Y-14170000D01*
X18312143Y-14184286D01*
X18326428Y-14212857D01*
X18326428Y-14298571D01*
X18312143Y-14327143D01*
X18297857Y-14341429D01*
X18269286Y-14355714D01*
X18212143Y-14355714D01*
X18183571Y-14341429D01*
X18497857Y-14355714D02*
X18469286Y-14341429D01*
X18455000Y-14312857D01*
X18455000Y-14055714D01*
X18740714Y-14355714D02*
X18740714Y-14198571D01*
X18726428Y-14170000D01*
X18697857Y-14155714D01*
X18640714Y-14155714D01*
X18612143Y-14170000D01*
X18740714Y-14341429D02*
X18712143Y-14355714D01*
X18640714Y-14355714D01*
X18612143Y-14341429D01*
X18597857Y-14312857D01*
X18597857Y-14284286D01*
X18612143Y-14255714D01*
X18640714Y-14241429D01*
X18712143Y-14241429D01*
X18740714Y-14227143D01*
X18840714Y-14155714D02*
X18955000Y-14155714D01*
X18883571Y-14055714D02*
X18883571Y-14312857D01*
X18897857Y-14341429D01*
X18926428Y-14355714D01*
X18955000Y-14355714D01*
X19169286Y-14341429D02*
X19140714Y-14355714D01*
X19083571Y-14355714D01*
X19055000Y-14341429D01*
X19040714Y-14312857D01*
X19040714Y-14198571D01*
X19055000Y-14170000D01*
X19083571Y-14155714D01*
X19140714Y-14155714D01*
X19169286Y-14170000D01*
X19183571Y-14198571D01*
X19183571Y-14227143D01*
X19040714Y-14255714D01*
X19440714Y-14355714D02*
X19440714Y-14055714D01*
X19440714Y-14341429D02*
X19412143Y-14355714D01*
X19355000Y-14355714D01*
X19326428Y-14341429D01*
X19312143Y-14327143D01*
X19297857Y-14298571D01*
X19297857Y-14212857D01*
X19312143Y-14184286D01*
X19326428Y-14170000D01*
X19355000Y-14155714D01*
X19412143Y-14155714D01*
X19440714Y-14170000D01*
X19555000Y-14470000D02*
X19569286Y-14455714D01*
X19597857Y-14412857D01*
X19612143Y-14384286D01*
X19626428Y-14341429D01*
X19640714Y-14270000D01*
X19640714Y-14212857D01*
X19626428Y-14141429D01*
X19612143Y-14098571D01*
X19597857Y-14070000D01*
X19569286Y-14027143D01*
X19555000Y-14012857D01*
X10340000Y-14616000D02*
G75*
G03X10340000Y-14616000I-45000J0D01*
G01*
X10683571Y-14451714D02*
X10712143Y-14451714D01*
X10740714Y-14466000D01*
X10755000Y-14480286D01*
X10769286Y-14508857D01*
X10783571Y-14566000D01*
X10783571Y-14637429D01*
X10769286Y-14694571D01*
X10755000Y-14723143D01*
X10740714Y-14737429D01*
X10712143Y-14751714D01*
X10683571Y-14751714D01*
X10655000Y-14737429D01*
X10640714Y-14723143D01*
X10626428Y-14694571D01*
X10612143Y-14637429D01*
X10612143Y-14566000D01*
X10626428Y-14508857D01*
X10640714Y-14480286D01*
X10655000Y-14466000D01*
X10683571Y-14451714D01*
X10912143Y-14723143D02*
X10926428Y-14737429D01*
X10912143Y-14751714D01*
X10897857Y-14737429D01*
X10912143Y-14723143D01*
X10912143Y-14751714D01*
X11069286Y-14751714D02*
X11126428Y-14751714D01*
X11155000Y-14737429D01*
X11169286Y-14723143D01*
X11197857Y-14680286D01*
X11212143Y-14623143D01*
X11212143Y-14508857D01*
X11197857Y-14480286D01*
X11183571Y-14466000D01*
X11155000Y-14451714D01*
X11097857Y-14451714D01*
X11069286Y-14466000D01*
X11055000Y-14480286D01*
X11040714Y-14508857D01*
X11040714Y-14580286D01*
X11055000Y-14608857D01*
X11069286Y-14623143D01*
X11097857Y-14637429D01*
X11155000Y-14637429D01*
X11183571Y-14623143D01*
X11197857Y-14608857D01*
X11212143Y-14580286D01*
X11397857Y-14451714D02*
X11426428Y-14451714D01*
X11455000Y-14466000D01*
X11469286Y-14480286D01*
X11483571Y-14508857D01*
X11497857Y-14566000D01*
X11497857Y-14637429D01*
X11483571Y-14694571D01*
X11469286Y-14723143D01*
X11455000Y-14737429D01*
X11426428Y-14751714D01*
X11397857Y-14751714D01*
X11369286Y-14737429D01*
X11355000Y-14723143D01*
X11340714Y-14694571D01*
X11326428Y-14637429D01*
X11326428Y-14566000D01*
X11340714Y-14508857D01*
X11355000Y-14480286D01*
X11369286Y-14466000D01*
X11397857Y-14451714D01*
X11626428Y-14751714D02*
X11626428Y-14551714D01*
X11626428Y-14580286D02*
X11640714Y-14566000D01*
X11669286Y-14551714D01*
X11712143Y-14551714D01*
X11740714Y-14566000D01*
X11755000Y-14594571D01*
X11755000Y-14751714D01*
X11755000Y-14594571D02*
X11769286Y-14566000D01*
X11797857Y-14551714D01*
X11840714Y-14551714D01*
X11869286Y-14566000D01*
X11883571Y-14594571D01*
X11883571Y-14751714D01*
X12026428Y-14751714D02*
X12026428Y-14551714D01*
X12026428Y-14580286D02*
X12040714Y-14566000D01*
X12069286Y-14551714D01*
X12112143Y-14551714D01*
X12140714Y-14566000D01*
X12155000Y-14594571D01*
X12155000Y-14751714D01*
X12155000Y-14594571D02*
X12169286Y-14566000D01*
X12197857Y-14551714D01*
X12240714Y-14551714D01*
X12269286Y-14566000D01*
X12283571Y-14594571D01*
X12283571Y-14751714D01*
X12869286Y-14437429D02*
X12612143Y-14823143D01*
X13255000Y-14451714D02*
X13283571Y-14451714D01*
X13312143Y-14466000D01*
X13326428Y-14480286D01*
X13340714Y-14508857D01*
X13355000Y-14566000D01*
X13355000Y-14637429D01*
X13340714Y-14694571D01*
X13326428Y-14723143D01*
X13312143Y-14737429D01*
X13283571Y-14751714D01*
X13255000Y-14751714D01*
X13226428Y-14737429D01*
X13212143Y-14723143D01*
X13197857Y-14694571D01*
X13183571Y-14637429D01*
X13183571Y-14566000D01*
X13197857Y-14508857D01*
X13212143Y-14480286D01*
X13226428Y-14466000D01*
X13255000Y-14451714D01*
X13483571Y-14723143D02*
X13497857Y-14737429D01*
X13483571Y-14751714D01*
X13469286Y-14737429D01*
X13483571Y-14723143D01*
X13483571Y-14751714D01*
X13683571Y-14451714D02*
X13712143Y-14451714D01*
X13740714Y-14466000D01*
X13755000Y-14480286D01*
X13769286Y-14508857D01*
X13783571Y-14566000D01*
X13783571Y-14637429D01*
X13769286Y-14694571D01*
X13755000Y-14723143D01*
X13740714Y-14737429D01*
X13712143Y-14751714D01*
X13683571Y-14751714D01*
X13655000Y-14737429D01*
X13640714Y-14723143D01*
X13626428Y-14694571D01*
X13612143Y-14637429D01*
X13612143Y-14566000D01*
X13626428Y-14508857D01*
X13640714Y-14480286D01*
X13655000Y-14466000D01*
X13683571Y-14451714D01*
X13883571Y-14451714D02*
X14069286Y-14451714D01*
X13969286Y-14566000D01*
X14012143Y-14566000D01*
X14040714Y-14580286D01*
X14055000Y-14594571D01*
X14069286Y-14623143D01*
X14069286Y-14694571D01*
X14055000Y-14723143D01*
X14040714Y-14737429D01*
X14012143Y-14751714D01*
X13926428Y-14751714D01*
X13897857Y-14737429D01*
X13883571Y-14723143D01*
X14340714Y-14451714D02*
X14197857Y-14451714D01*
X14183571Y-14594571D01*
X14197857Y-14580286D01*
X14226428Y-14566000D01*
X14297857Y-14566000D01*
X14326428Y-14580286D01*
X14340714Y-14594571D01*
X14355000Y-14623143D01*
X14355000Y-14694571D01*
X14340714Y-14723143D01*
X14326428Y-14737429D01*
X14297857Y-14751714D01*
X14226428Y-14751714D01*
X14197857Y-14737429D01*
X14183571Y-14723143D01*
X14469286Y-14451714D02*
X14469286Y-14508857D01*
X14583571Y-14451714D02*
X14583571Y-14508857D01*
X15026428Y-14866000D02*
X15012143Y-14851714D01*
X14983571Y-14808857D01*
X14969286Y-14780286D01*
X14955000Y-14737429D01*
X14940714Y-14666000D01*
X14940714Y-14608857D01*
X14955000Y-14537429D01*
X14969286Y-14494571D01*
X14983571Y-14466000D01*
X15012143Y-14423143D01*
X15026428Y-14408857D01*
X15126428Y-14480286D02*
X15140714Y-14466000D01*
X15169286Y-14451714D01*
X15240714Y-14451714D01*
X15269286Y-14466000D01*
X15283571Y-14480286D01*
X15297857Y-14508857D01*
X15297857Y-14537429D01*
X15283571Y-14580286D01*
X15112143Y-14751714D01*
X15297857Y-14751714D01*
X15655000Y-14751714D02*
X15655000Y-14451714D01*
X15783571Y-14751714D02*
X15783571Y-14594571D01*
X15769286Y-14566000D01*
X15740714Y-14551714D01*
X15697857Y-14551714D01*
X15669286Y-14566000D01*
X15655000Y-14580286D01*
X15969286Y-14751714D02*
X15940714Y-14737429D01*
X15926428Y-14723143D01*
X15912143Y-14694571D01*
X15912143Y-14608857D01*
X15926428Y-14580286D01*
X15940714Y-14566000D01*
X15969286Y-14551714D01*
X16012143Y-14551714D01*
X16040714Y-14566000D01*
X16055000Y-14580286D01*
X16069286Y-14608857D01*
X16069286Y-14694571D01*
X16055000Y-14723143D01*
X16040714Y-14737429D01*
X16012143Y-14751714D01*
X15969286Y-14751714D01*
X16240714Y-14751714D02*
X16212143Y-14737429D01*
X16197857Y-14708857D01*
X16197857Y-14451714D01*
X16469286Y-14737429D02*
X16440714Y-14751714D01*
X16383571Y-14751714D01*
X16355000Y-14737429D01*
X16340714Y-14708857D01*
X16340714Y-14594571D01*
X16355000Y-14566000D01*
X16383571Y-14551714D01*
X16440714Y-14551714D01*
X16469286Y-14566000D01*
X16483571Y-14594571D01*
X16483571Y-14623143D01*
X16340714Y-14651714D01*
X16597857Y-14737429D02*
X16626428Y-14751714D01*
X16683571Y-14751714D01*
X16712143Y-14737429D01*
X16726428Y-14708857D01*
X16726428Y-14694571D01*
X16712143Y-14666000D01*
X16683571Y-14651714D01*
X16640714Y-14651714D01*
X16612143Y-14637429D01*
X16597857Y-14608857D01*
X16597857Y-14594571D01*
X16612143Y-14566000D01*
X16640714Y-14551714D01*
X16683571Y-14551714D01*
X16712143Y-14566000D01*
X16826428Y-14866000D02*
X16840714Y-14851714D01*
X16869286Y-14808857D01*
X16883571Y-14780286D01*
X16897857Y-14737429D01*
X16912143Y-14666000D01*
X16912143Y-14608857D01*
X16897857Y-14537429D01*
X16883571Y-14494571D01*
X16869286Y-14466000D01*
X16840714Y-14423143D01*
X16826428Y-14408857D01*
X17369286Y-14866000D02*
X17355000Y-14851714D01*
X17326428Y-14808857D01*
X17312143Y-14780286D01*
X17297857Y-14737429D01*
X17283571Y-14666000D01*
X17283571Y-14608857D01*
X17297857Y-14537429D01*
X17312143Y-14494571D01*
X17326428Y-14466000D01*
X17355000Y-14423143D01*
X17369286Y-14408857D01*
X17483571Y-14551714D02*
X17483571Y-14751714D01*
X17483571Y-14580286D02*
X17497857Y-14566000D01*
X17526428Y-14551714D01*
X17569286Y-14551714D01*
X17597857Y-14566000D01*
X17612143Y-14594571D01*
X17612143Y-14751714D01*
X17797857Y-14751714D02*
X17769286Y-14737429D01*
X17755000Y-14723143D01*
X17740714Y-14694571D01*
X17740714Y-14608857D01*
X17755000Y-14580286D01*
X17769286Y-14566000D01*
X17797857Y-14551714D01*
X17840714Y-14551714D01*
X17869286Y-14566000D01*
X17883571Y-14580286D01*
X17897857Y-14608857D01*
X17897857Y-14694571D01*
X17883571Y-14723143D01*
X17869286Y-14737429D01*
X17840714Y-14751714D01*
X17797857Y-14751714D01*
X17983571Y-14551714D02*
X18097857Y-14551714D01*
X18026428Y-14451714D02*
X18026428Y-14708857D01*
X18040714Y-14737429D01*
X18069286Y-14751714D01*
X18097857Y-14751714D01*
X18426428Y-14551714D02*
X18426428Y-14851714D01*
X18426428Y-14566000D02*
X18455000Y-14551714D01*
X18512143Y-14551714D01*
X18540714Y-14566000D01*
X18555000Y-14580286D01*
X18569286Y-14608857D01*
X18569286Y-14694571D01*
X18555000Y-14723143D01*
X18540714Y-14737429D01*
X18512143Y-14751714D01*
X18455000Y-14751714D01*
X18426428Y-14737429D01*
X18740714Y-14751714D02*
X18712143Y-14737429D01*
X18697857Y-14708857D01*
X18697857Y-14451714D01*
X18983571Y-14751714D02*
X18983571Y-14594571D01*
X18969286Y-14566000D01*
X18940714Y-14551714D01*
X18883571Y-14551714D01*
X18855000Y-14566000D01*
X18983571Y-14737429D02*
X18955000Y-14751714D01*
X18883571Y-14751714D01*
X18855000Y-14737429D01*
X18840714Y-14708857D01*
X18840714Y-14680286D01*
X18855000Y-14651714D01*
X18883571Y-14637429D01*
X18955000Y-14637429D01*
X18983571Y-14623143D01*
X19083571Y-14551714D02*
X19197857Y-14551714D01*
X19126428Y-14451714D02*
X19126428Y-14708857D01*
X19140714Y-14737429D01*
X19169286Y-14751714D01*
X19197857Y-14751714D01*
X19412143Y-14737429D02*
X19383571Y-14751714D01*
X19326428Y-14751714D01*
X19297857Y-14737429D01*
X19283571Y-14708857D01*
X19283571Y-14594571D01*
X19297857Y-14566000D01*
X19326428Y-14551714D01*
X19383571Y-14551714D01*
X19412143Y-14566000D01*
X19426428Y-14594571D01*
X19426428Y-14623143D01*
X19283571Y-14651714D01*
X19683571Y-14751714D02*
X19683571Y-14451714D01*
X19683571Y-14737429D02*
X19655000Y-14751714D01*
X19597857Y-14751714D01*
X19569286Y-14737429D01*
X19555000Y-14723143D01*
X19540714Y-14694571D01*
X19540714Y-14608857D01*
X19555000Y-14580286D01*
X19569286Y-14566000D01*
X19597857Y-14551714D01*
X19655000Y-14551714D01*
X19683571Y-14566000D01*
X19797857Y-14866000D02*
X19812143Y-14851714D01*
X19840714Y-14808857D01*
X19855000Y-14780286D01*
X19869286Y-14737429D01*
X19883571Y-14666000D01*
X19883571Y-14608857D01*
X19869286Y-14537429D01*
X19855000Y-14494571D01*
X19840714Y-14466000D01*
X19812143Y-14423143D01*
X19797857Y-14408857D01*
X10287500Y-14959500D02*
X10287500Y-15064500D01*
X10235000Y-15012000D02*
X10340000Y-15012000D01*
X10783571Y-15147714D02*
X10612143Y-15147714D01*
X10697857Y-15147714D02*
X10697857Y-14847714D01*
X10669286Y-14890571D01*
X10640714Y-14919143D01*
X10612143Y-14933429D01*
X10912143Y-15119143D02*
X10926428Y-15133429D01*
X10912143Y-15147714D01*
X10897857Y-15133429D01*
X10912143Y-15119143D01*
X10912143Y-15147714D01*
X11112143Y-14847714D02*
X11140714Y-14847714D01*
X11169286Y-14862000D01*
X11183571Y-14876286D01*
X11197857Y-14904857D01*
X11212143Y-14962000D01*
X11212143Y-15033429D01*
X11197857Y-15090571D01*
X11183571Y-15119143D01*
X11169286Y-15133429D01*
X11140714Y-15147714D01*
X11112143Y-15147714D01*
X11083571Y-15133429D01*
X11069286Y-15119143D01*
X11055000Y-15090571D01*
X11040714Y-15033429D01*
X11040714Y-14962000D01*
X11055000Y-14904857D01*
X11069286Y-14876286D01*
X11083571Y-14862000D01*
X11112143Y-14847714D01*
X11483571Y-14847714D02*
X11340714Y-14847714D01*
X11326428Y-14990571D01*
X11340714Y-14976286D01*
X11369286Y-14962000D01*
X11440714Y-14962000D01*
X11469286Y-14976286D01*
X11483571Y-14990571D01*
X11497857Y-15019143D01*
X11497857Y-15090571D01*
X11483571Y-15119143D01*
X11469286Y-15133429D01*
X11440714Y-15147714D01*
X11369286Y-15147714D01*
X11340714Y-15133429D01*
X11326428Y-15119143D01*
X11626428Y-15147714D02*
X11626428Y-14947714D01*
X11626428Y-14976286D02*
X11640714Y-14962000D01*
X11669286Y-14947714D01*
X11712143Y-14947714D01*
X11740714Y-14962000D01*
X11755000Y-14990571D01*
X11755000Y-15147714D01*
X11755000Y-14990571D02*
X11769286Y-14962000D01*
X11797857Y-14947714D01*
X11840714Y-14947714D01*
X11869286Y-14962000D01*
X11883571Y-14990571D01*
X11883571Y-15147714D01*
X12026428Y-15147714D02*
X12026428Y-14947714D01*
X12026428Y-14976286D02*
X12040714Y-14962000D01*
X12069286Y-14947714D01*
X12112143Y-14947714D01*
X12140714Y-14962000D01*
X12155000Y-14990571D01*
X12155000Y-15147714D01*
X12155000Y-14990571D02*
X12169286Y-14962000D01*
X12197857Y-14947714D01*
X12240714Y-14947714D01*
X12269286Y-14962000D01*
X12283571Y-14990571D01*
X12283571Y-15147714D01*
X12869286Y-14833429D02*
X12612143Y-15219143D01*
X13255000Y-14847714D02*
X13283571Y-14847714D01*
X13312143Y-14862000D01*
X13326428Y-14876286D01*
X13340714Y-14904857D01*
X13355000Y-14962000D01*
X13355000Y-15033429D01*
X13340714Y-15090571D01*
X13326428Y-15119143D01*
X13312143Y-15133429D01*
X13283571Y-15147714D01*
X13255000Y-15147714D01*
X13226428Y-15133429D01*
X13212143Y-15119143D01*
X13197857Y-15090571D01*
X13183571Y-15033429D01*
X13183571Y-14962000D01*
X13197857Y-14904857D01*
X13212143Y-14876286D01*
X13226428Y-14862000D01*
X13255000Y-14847714D01*
X13483571Y-15119143D02*
X13497857Y-15133429D01*
X13483571Y-15147714D01*
X13469286Y-15133429D01*
X13483571Y-15119143D01*
X13483571Y-15147714D01*
X13683571Y-14847714D02*
X13712143Y-14847714D01*
X13740714Y-14862000D01*
X13755000Y-14876286D01*
X13769286Y-14904857D01*
X13783571Y-14962000D01*
X13783571Y-15033429D01*
X13769286Y-15090571D01*
X13755000Y-15119143D01*
X13740714Y-15133429D01*
X13712143Y-15147714D01*
X13683571Y-15147714D01*
X13655000Y-15133429D01*
X13640714Y-15119143D01*
X13626428Y-15090571D01*
X13612143Y-15033429D01*
X13612143Y-14962000D01*
X13626428Y-14904857D01*
X13640714Y-14876286D01*
X13655000Y-14862000D01*
X13683571Y-14847714D01*
X14040714Y-14947714D02*
X14040714Y-15147714D01*
X13969286Y-14833429D02*
X13897857Y-15047714D01*
X14083571Y-15047714D01*
X14355000Y-15147714D02*
X14183571Y-15147714D01*
X14269286Y-15147714D02*
X14269286Y-14847714D01*
X14240714Y-14890571D01*
X14212143Y-14919143D01*
X14183571Y-14933429D01*
X14469286Y-14847714D02*
X14469286Y-14904857D01*
X14583571Y-14847714D02*
X14583571Y-14904857D01*
X15026428Y-15262000D02*
X15012143Y-15247714D01*
X14983571Y-15204857D01*
X14969286Y-15176286D01*
X14955000Y-15133429D01*
X14940714Y-15062000D01*
X14940714Y-15004857D01*
X14955000Y-14933429D01*
X14969286Y-14890571D01*
X14983571Y-14862000D01*
X15012143Y-14819143D01*
X15026428Y-14804857D01*
X15297857Y-15147714D02*
X15126428Y-15147714D01*
X15212143Y-15147714D02*
X15212143Y-14847714D01*
X15183571Y-14890571D01*
X15155000Y-14919143D01*
X15126428Y-14933429D01*
X15655000Y-15147714D02*
X15655000Y-14847714D01*
X15783571Y-15147714D02*
X15783571Y-14990571D01*
X15769286Y-14962000D01*
X15740714Y-14947714D01*
X15697857Y-14947714D01*
X15669286Y-14962000D01*
X15655000Y-14976286D01*
X15969286Y-15147714D02*
X15940714Y-15133429D01*
X15926428Y-15119143D01*
X15912143Y-15090571D01*
X15912143Y-15004857D01*
X15926428Y-14976286D01*
X15940714Y-14962000D01*
X15969286Y-14947714D01*
X16012143Y-14947714D01*
X16040714Y-14962000D01*
X16055000Y-14976286D01*
X16069286Y-15004857D01*
X16069286Y-15090571D01*
X16055000Y-15119143D01*
X16040714Y-15133429D01*
X16012143Y-15147714D01*
X15969286Y-15147714D01*
X16240714Y-15147714D02*
X16212143Y-15133429D01*
X16197857Y-15104857D01*
X16197857Y-14847714D01*
X16469286Y-15133429D02*
X16440714Y-15147714D01*
X16383571Y-15147714D01*
X16355000Y-15133429D01*
X16340714Y-15104857D01*
X16340714Y-14990571D01*
X16355000Y-14962000D01*
X16383571Y-14947714D01*
X16440714Y-14947714D01*
X16469286Y-14962000D01*
X16483571Y-14990571D01*
X16483571Y-15019143D01*
X16340714Y-15047714D01*
X16583571Y-15262000D02*
X16597857Y-15247714D01*
X16626428Y-15204857D01*
X16640714Y-15176286D01*
X16655000Y-15133429D01*
X16669286Y-15062000D01*
X16669286Y-15004857D01*
X16655000Y-14933429D01*
X16640714Y-14890571D01*
X16626428Y-14862000D01*
X16597857Y-14819143D01*
X16583571Y-14804857D01*
X17126428Y-15262000D02*
X17112143Y-15247714D01*
X17083571Y-15204857D01*
X17069286Y-15176286D01*
X17055000Y-15133429D01*
X17040714Y-15062000D01*
X17040714Y-15004857D01*
X17055000Y-14933429D01*
X17069286Y-14890571D01*
X17083571Y-14862000D01*
X17112143Y-14819143D01*
X17126428Y-14804857D01*
X17240714Y-14947714D02*
X17240714Y-15147714D01*
X17240714Y-14976286D02*
X17255000Y-14962000D01*
X17283571Y-14947714D01*
X17326428Y-14947714D01*
X17355000Y-14962000D01*
X17369286Y-14990571D01*
X17369286Y-15147714D01*
X17555000Y-15147714D02*
X17526428Y-15133429D01*
X17512143Y-15119143D01*
X17497857Y-15090571D01*
X17497857Y-15004857D01*
X17512143Y-14976286D01*
X17526428Y-14962000D01*
X17555000Y-14947714D01*
X17597857Y-14947714D01*
X17626428Y-14962000D01*
X17640714Y-14976286D01*
X17655000Y-15004857D01*
X17655000Y-15090571D01*
X17640714Y-15119143D01*
X17626428Y-15133429D01*
X17597857Y-15147714D01*
X17555000Y-15147714D01*
X17740714Y-14947714D02*
X17855000Y-14947714D01*
X17783571Y-14847714D02*
X17783571Y-15104857D01*
X17797857Y-15133429D01*
X17826428Y-15147714D01*
X17855000Y-15147714D01*
X18183571Y-14947714D02*
X18183571Y-15247714D01*
X18183571Y-14962000D02*
X18212143Y-14947714D01*
X18269286Y-14947714D01*
X18297857Y-14962000D01*
X18312143Y-14976286D01*
X18326428Y-15004857D01*
X18326428Y-15090571D01*
X18312143Y-15119143D01*
X18297857Y-15133429D01*
X18269286Y-15147714D01*
X18212143Y-15147714D01*
X18183571Y-15133429D01*
X18497857Y-15147714D02*
X18469286Y-15133429D01*
X18455000Y-15104857D01*
X18455000Y-14847714D01*
X18740714Y-15147714D02*
X18740714Y-14990571D01*
X18726428Y-14962000D01*
X18697857Y-14947714D01*
X18640714Y-14947714D01*
X18612143Y-14962000D01*
X18740714Y-15133429D02*
X18712143Y-15147714D01*
X18640714Y-15147714D01*
X18612143Y-15133429D01*
X18597857Y-15104857D01*
X18597857Y-15076286D01*
X18612143Y-15047714D01*
X18640714Y-15033429D01*
X18712143Y-15033429D01*
X18740714Y-15019143D01*
X18840714Y-14947714D02*
X18955000Y-14947714D01*
X18883571Y-14847714D02*
X18883571Y-15104857D01*
X18897857Y-15133429D01*
X18926428Y-15147714D01*
X18955000Y-15147714D01*
X19169286Y-15133429D02*
X19140714Y-15147714D01*
X19083571Y-15147714D01*
X19055000Y-15133429D01*
X19040714Y-15104857D01*
X19040714Y-14990571D01*
X19055000Y-14962000D01*
X19083571Y-14947714D01*
X19140714Y-14947714D01*
X19169286Y-14962000D01*
X19183571Y-14990571D01*
X19183571Y-15019143D01*
X19040714Y-15047714D01*
X19440714Y-15147714D02*
X19440714Y-14847714D01*
X19440714Y-15133429D02*
X19412143Y-15147714D01*
X19355000Y-15147714D01*
X19326428Y-15133429D01*
X19312143Y-15119143D01*
X19297857Y-15090571D01*
X19297857Y-15004857D01*
X19312143Y-14976286D01*
X19326428Y-14962000D01*
X19355000Y-14947714D01*
X19412143Y-14947714D01*
X19440714Y-14962000D01*
X19555000Y-15262000D02*
X19569286Y-15247714D01*
X19597857Y-15204857D01*
X19612143Y-15176286D01*
X19626428Y-15133429D01*
X19640714Y-15062000D01*
X19640714Y-15004857D01*
X19626428Y-14933429D01*
X19612143Y-14890571D01*
X19597857Y-14862000D01*
X19569286Y-14819143D01*
X19555000Y-14804857D01*
X10310987Y-15478047D02*
X10310987Y-15337953D01*
X10170893Y-15337953D01*
X10170893Y-15478047D01*
X10310987Y-15478047D01*
X10783571Y-15543714D02*
X10612143Y-15543714D01*
X10697857Y-15543714D02*
X10697857Y-15243714D01*
X10669286Y-15286571D01*
X10640714Y-15315143D01*
X10612143Y-15329429D01*
X10912143Y-15515143D02*
X10926428Y-15529429D01*
X10912143Y-15543714D01*
X10897857Y-15529429D01*
X10912143Y-15515143D01*
X10912143Y-15543714D01*
X11069286Y-15543714D02*
X11126428Y-15543714D01*
X11155000Y-15529429D01*
X11169286Y-15515143D01*
X11197857Y-15472286D01*
X11212143Y-15415143D01*
X11212143Y-15300857D01*
X11197857Y-15272286D01*
X11183571Y-15258000D01*
X11155000Y-15243714D01*
X11097857Y-15243714D01*
X11069286Y-15258000D01*
X11055000Y-15272286D01*
X11040714Y-15300857D01*
X11040714Y-15372286D01*
X11055000Y-15400857D01*
X11069286Y-15415143D01*
X11097857Y-15429429D01*
X11155000Y-15429429D01*
X11183571Y-15415143D01*
X11197857Y-15400857D01*
X11212143Y-15372286D01*
X11383571Y-15372286D02*
X11355000Y-15358000D01*
X11340714Y-15343714D01*
X11326428Y-15315143D01*
X11326428Y-15300857D01*
X11340714Y-15272286D01*
X11355000Y-15258000D01*
X11383571Y-15243714D01*
X11440714Y-15243714D01*
X11469286Y-15258000D01*
X11483571Y-15272286D01*
X11497857Y-15300857D01*
X11497857Y-15315143D01*
X11483571Y-15343714D01*
X11469286Y-15358000D01*
X11440714Y-15372286D01*
X11383571Y-15372286D01*
X11355000Y-15386571D01*
X11340714Y-15400857D01*
X11326428Y-15429429D01*
X11326428Y-15486571D01*
X11340714Y-15515143D01*
X11355000Y-15529429D01*
X11383571Y-15543714D01*
X11440714Y-15543714D01*
X11469286Y-15529429D01*
X11483571Y-15515143D01*
X11497857Y-15486571D01*
X11497857Y-15429429D01*
X11483571Y-15400857D01*
X11469286Y-15386571D01*
X11440714Y-15372286D01*
X11626428Y-15543714D02*
X11626428Y-15343714D01*
X11626428Y-15372286D02*
X11640714Y-15358000D01*
X11669286Y-15343714D01*
X11712143Y-15343714D01*
X11740714Y-15358000D01*
X11755000Y-15386571D01*
X11755000Y-15543714D01*
X11755000Y-15386571D02*
X11769286Y-15358000D01*
X11797857Y-15343714D01*
X11840714Y-15343714D01*
X11869286Y-15358000D01*
X11883571Y-15386571D01*
X11883571Y-15543714D01*
X12026428Y-15543714D02*
X12026428Y-15343714D01*
X12026428Y-15372286D02*
X12040714Y-15358000D01*
X12069286Y-15343714D01*
X12112143Y-15343714D01*
X12140714Y-15358000D01*
X12155000Y-15386571D01*
X12155000Y-15543714D01*
X12155000Y-15386571D02*
X12169286Y-15358000D01*
X12197857Y-15343714D01*
X12240714Y-15343714D01*
X12269286Y-15358000D01*
X12283571Y-15386571D01*
X12283571Y-15543714D01*
X12869286Y-15229429D02*
X12612143Y-15615143D01*
X13255000Y-15243714D02*
X13283571Y-15243714D01*
X13312143Y-15258000D01*
X13326428Y-15272286D01*
X13340714Y-15300857D01*
X13355000Y-15358000D01*
X13355000Y-15429429D01*
X13340714Y-15486571D01*
X13326428Y-15515143D01*
X13312143Y-15529429D01*
X13283571Y-15543714D01*
X13255000Y-15543714D01*
X13226428Y-15529429D01*
X13212143Y-15515143D01*
X13197857Y-15486571D01*
X13183571Y-15429429D01*
X13183571Y-15358000D01*
X13197857Y-15300857D01*
X13212143Y-15272286D01*
X13226428Y-15258000D01*
X13255000Y-15243714D01*
X13483571Y-15515143D02*
X13497857Y-15529429D01*
X13483571Y-15543714D01*
X13469286Y-15529429D01*
X13483571Y-15515143D01*
X13483571Y-15543714D01*
X13683571Y-15243714D02*
X13712143Y-15243714D01*
X13740714Y-15258000D01*
X13755000Y-15272286D01*
X13769286Y-15300857D01*
X13783571Y-15358000D01*
X13783571Y-15429429D01*
X13769286Y-15486571D01*
X13755000Y-15515143D01*
X13740714Y-15529429D01*
X13712143Y-15543714D01*
X13683571Y-15543714D01*
X13655000Y-15529429D01*
X13640714Y-15515143D01*
X13626428Y-15486571D01*
X13612143Y-15429429D01*
X13612143Y-15358000D01*
X13626428Y-15300857D01*
X13640714Y-15272286D01*
X13655000Y-15258000D01*
X13683571Y-15243714D01*
X13883571Y-15243714D02*
X14083571Y-15243714D01*
X13955000Y-15543714D01*
X14240714Y-15372286D02*
X14212143Y-15358000D01*
X14197857Y-15343714D01*
X14183571Y-15315143D01*
X14183571Y-15300857D01*
X14197857Y-15272286D01*
X14212143Y-15258000D01*
X14240714Y-15243714D01*
X14297857Y-15243714D01*
X14326428Y-15258000D01*
X14340714Y-15272286D01*
X14355000Y-15300857D01*
X14355000Y-15315143D01*
X14340714Y-15343714D01*
X14326428Y-15358000D01*
X14297857Y-15372286D01*
X14240714Y-15372286D01*
X14212143Y-15386571D01*
X14197857Y-15400857D01*
X14183571Y-15429429D01*
X14183571Y-15486571D01*
X14197857Y-15515143D01*
X14212143Y-15529429D01*
X14240714Y-15543714D01*
X14297857Y-15543714D01*
X14326428Y-15529429D01*
X14340714Y-15515143D01*
X14355000Y-15486571D01*
X14355000Y-15429429D01*
X14340714Y-15400857D01*
X14326428Y-15386571D01*
X14297857Y-15372286D01*
X14469286Y-15243714D02*
X14469286Y-15300857D01*
X14583571Y-15243714D02*
X14583571Y-15300857D01*
X15026428Y-15658000D02*
X15012143Y-15643714D01*
X14983571Y-15600857D01*
X14969286Y-15572286D01*
X14955000Y-15529429D01*
X14940714Y-15458000D01*
X14940714Y-15400857D01*
X14955000Y-15329429D01*
X14969286Y-15286571D01*
X14983571Y-15258000D01*
X15012143Y-15215143D01*
X15026428Y-15200857D01*
X15297857Y-15543714D02*
X15126428Y-15543714D01*
X15212143Y-15543714D02*
X15212143Y-15243714D01*
X15183571Y-15286571D01*
X15155000Y-15315143D01*
X15126428Y-15329429D01*
X15655000Y-15543714D02*
X15655000Y-15243714D01*
X15783571Y-15543714D02*
X15783571Y-15386571D01*
X15769286Y-15358000D01*
X15740714Y-15343714D01*
X15697857Y-15343714D01*
X15669286Y-15358000D01*
X15655000Y-15372286D01*
X15969286Y-15543714D02*
X15940714Y-15529429D01*
X15926428Y-15515143D01*
X15912143Y-15486571D01*
X15912143Y-15400857D01*
X15926428Y-15372286D01*
X15940714Y-15358000D01*
X15969286Y-15343714D01*
X16012143Y-15343714D01*
X16040714Y-15358000D01*
X16055000Y-15372286D01*
X16069286Y-15400857D01*
X16069286Y-15486571D01*
X16055000Y-15515143D01*
X16040714Y-15529429D01*
X16012143Y-15543714D01*
X15969286Y-15543714D01*
X16240714Y-15543714D02*
X16212143Y-15529429D01*
X16197857Y-15500857D01*
X16197857Y-15243714D01*
X16469286Y-15529429D02*
X16440714Y-15543714D01*
X16383571Y-15543714D01*
X16355000Y-15529429D01*
X16340714Y-15500857D01*
X16340714Y-15386571D01*
X16355000Y-15358000D01*
X16383571Y-15343714D01*
X16440714Y-15343714D01*
X16469286Y-15358000D01*
X16483571Y-15386571D01*
X16483571Y-15415143D01*
X16340714Y-15443714D01*
X16583571Y-15658000D02*
X16597857Y-15643714D01*
X16626428Y-15600857D01*
X16640714Y-15572286D01*
X16655000Y-15529429D01*
X16669286Y-15458000D01*
X16669286Y-15400857D01*
X16655000Y-15329429D01*
X16640714Y-15286571D01*
X16626428Y-15258000D01*
X16597857Y-15215143D01*
X16583571Y-15200857D01*
X17126428Y-15658000D02*
X17112143Y-15643714D01*
X17083571Y-15600857D01*
X17069286Y-15572286D01*
X17055000Y-15529429D01*
X17040714Y-15458000D01*
X17040714Y-15400857D01*
X17055000Y-15329429D01*
X17069286Y-15286571D01*
X17083571Y-15258000D01*
X17112143Y-15215143D01*
X17126428Y-15200857D01*
X17240714Y-15343714D02*
X17240714Y-15543714D01*
X17240714Y-15372286D02*
X17255000Y-15358000D01*
X17283571Y-15343714D01*
X17326428Y-15343714D01*
X17355000Y-15358000D01*
X17369286Y-15386571D01*
X17369286Y-15543714D01*
X17555000Y-15543714D02*
X17526428Y-15529429D01*
X17512143Y-15515143D01*
X17497857Y-15486571D01*
X17497857Y-15400857D01*
X17512143Y-15372286D01*
X17526428Y-15358000D01*
X17555000Y-15343714D01*
X17597857Y-15343714D01*
X17626428Y-15358000D01*
X17640714Y-15372286D01*
X17655000Y-15400857D01*
X17655000Y-15486571D01*
X17640714Y-15515143D01*
X17626428Y-15529429D01*
X17597857Y-15543714D01*
X17555000Y-15543714D01*
X17740714Y-15343714D02*
X17855000Y-15343714D01*
X17783571Y-15243714D02*
X17783571Y-15500857D01*
X17797857Y-15529429D01*
X17826428Y-15543714D01*
X17855000Y-15543714D01*
X18183571Y-15343714D02*
X18183571Y-15643714D01*
X18183571Y-15358000D02*
X18212143Y-15343714D01*
X18269286Y-15343714D01*
X18297857Y-15358000D01*
X18312143Y-15372286D01*
X18326428Y-15400857D01*
X18326428Y-15486571D01*
X18312143Y-15515143D01*
X18297857Y-15529429D01*
X18269286Y-15543714D01*
X18212143Y-15543714D01*
X18183571Y-15529429D01*
X18497857Y-15543714D02*
X18469286Y-15529429D01*
X18455000Y-15500857D01*
X18455000Y-15243714D01*
X18740714Y-15543714D02*
X18740714Y-15386571D01*
X18726428Y-15358000D01*
X18697857Y-15343714D01*
X18640714Y-15343714D01*
X18612143Y-15358000D01*
X18740714Y-15529429D02*
X18712143Y-15543714D01*
X18640714Y-15543714D01*
X18612143Y-15529429D01*
X18597857Y-15500857D01*
X18597857Y-15472286D01*
X18612143Y-15443714D01*
X18640714Y-15429429D01*
X18712143Y-15429429D01*
X18740714Y-15415143D01*
X18840714Y-15343714D02*
X18955000Y-15343714D01*
X18883571Y-15243714D02*
X18883571Y-15500857D01*
X18897857Y-15529429D01*
X18926428Y-15543714D01*
X18955000Y-15543714D01*
X19169286Y-15529429D02*
X19140714Y-15543714D01*
X19083571Y-15543714D01*
X19055000Y-15529429D01*
X19040714Y-15500857D01*
X19040714Y-15386571D01*
X19055000Y-15358000D01*
X19083571Y-15343714D01*
X19140714Y-15343714D01*
X19169286Y-15358000D01*
X19183571Y-15386571D01*
X19183571Y-15415143D01*
X19040714Y-15443714D01*
X19440714Y-15543714D02*
X19440714Y-15243714D01*
X19440714Y-15529429D02*
X19412143Y-15543714D01*
X19355000Y-15543714D01*
X19326428Y-15529429D01*
X19312143Y-15515143D01*
X19297857Y-15486571D01*
X19297857Y-15400857D01*
X19312143Y-15372286D01*
X19326428Y-15358000D01*
X19355000Y-15343714D01*
X19412143Y-15343714D01*
X19440714Y-15358000D01*
X19555000Y-15658000D02*
X19569286Y-15643714D01*
X19597857Y-15600857D01*
X19612143Y-15572286D01*
X19626428Y-15529429D01*
X19640714Y-15458000D01*
X19640714Y-15400857D01*
X19626428Y-15329429D01*
X19612143Y-15286571D01*
X19597857Y-15258000D01*
X19569286Y-15215143D01*
X19555000Y-15200857D01*
X10180000Y-15964000D02*
X10340000Y-15804000D01*
X10180000Y-15644000D01*
X10020000Y-15804000D01*
X10180000Y-15964000D01*
X10597857Y-15639714D02*
X10783571Y-15639714D01*
X10683571Y-15754000D01*
X10726428Y-15754000D01*
X10755000Y-15768286D01*
X10769286Y-15782571D01*
X10783571Y-15811143D01*
X10783571Y-15882571D01*
X10769286Y-15911143D01*
X10755000Y-15925429D01*
X10726428Y-15939714D01*
X10640714Y-15939714D01*
X10612143Y-15925429D01*
X10597857Y-15911143D01*
X10912143Y-15911143D02*
X10926428Y-15925429D01*
X10912143Y-15939714D01*
X10897857Y-15925429D01*
X10912143Y-15911143D01*
X10912143Y-15939714D01*
X11040714Y-15668286D02*
X11055000Y-15654000D01*
X11083571Y-15639714D01*
X11155000Y-15639714D01*
X11183571Y-15654000D01*
X11197857Y-15668286D01*
X11212143Y-15696857D01*
X11212143Y-15725429D01*
X11197857Y-15768286D01*
X11026428Y-15939714D01*
X11212143Y-15939714D01*
X11397857Y-15639714D02*
X11426428Y-15639714D01*
X11455000Y-15654000D01*
X11469286Y-15668286D01*
X11483571Y-15696857D01*
X11497857Y-15754000D01*
X11497857Y-15825429D01*
X11483571Y-15882571D01*
X11469286Y-15911143D01*
X11455000Y-15925429D01*
X11426428Y-15939714D01*
X11397857Y-15939714D01*
X11369286Y-15925429D01*
X11355000Y-15911143D01*
X11340714Y-15882571D01*
X11326428Y-15825429D01*
X11326428Y-15754000D01*
X11340714Y-15696857D01*
X11355000Y-15668286D01*
X11369286Y-15654000D01*
X11397857Y-15639714D01*
X11626428Y-15939714D02*
X11626428Y-15739714D01*
X11626428Y-15768286D02*
X11640714Y-15754000D01*
X11669286Y-15739714D01*
X11712143Y-15739714D01*
X11740714Y-15754000D01*
X11755000Y-15782571D01*
X11755000Y-15939714D01*
X11755000Y-15782571D02*
X11769286Y-15754000D01*
X11797857Y-15739714D01*
X11840714Y-15739714D01*
X11869286Y-15754000D01*
X11883571Y-15782571D01*
X11883571Y-15939714D01*
X12026428Y-15939714D02*
X12026428Y-15739714D01*
X12026428Y-15768286D02*
X12040714Y-15754000D01*
X12069286Y-15739714D01*
X12112143Y-15739714D01*
X12140714Y-15754000D01*
X12155000Y-15782571D01*
X12155000Y-15939714D01*
X12155000Y-15782571D02*
X12169286Y-15754000D01*
X12197857Y-15739714D01*
X12240714Y-15739714D01*
X12269286Y-15754000D01*
X12283571Y-15782571D01*
X12283571Y-15939714D01*
X12869286Y-15625429D02*
X12612143Y-16011143D01*
X13255000Y-15639714D02*
X13283571Y-15639714D01*
X13312143Y-15654000D01*
X13326428Y-15668286D01*
X13340714Y-15696857D01*
X13355000Y-15754000D01*
X13355000Y-15825429D01*
X13340714Y-15882571D01*
X13326428Y-15911143D01*
X13312143Y-15925429D01*
X13283571Y-15939714D01*
X13255000Y-15939714D01*
X13226428Y-15925429D01*
X13212143Y-15911143D01*
X13197857Y-15882571D01*
X13183571Y-15825429D01*
X13183571Y-15754000D01*
X13197857Y-15696857D01*
X13212143Y-15668286D01*
X13226428Y-15654000D01*
X13255000Y-15639714D01*
X13483571Y-15911143D02*
X13497857Y-15925429D01*
X13483571Y-15939714D01*
X13469286Y-15925429D01*
X13483571Y-15911143D01*
X13483571Y-15939714D01*
X13783571Y-15939714D02*
X13612143Y-15939714D01*
X13697857Y-15939714D02*
X13697857Y-15639714D01*
X13669286Y-15682571D01*
X13640714Y-15711143D01*
X13612143Y-15725429D01*
X13897857Y-15668286D02*
X13912143Y-15654000D01*
X13940714Y-15639714D01*
X14012143Y-15639714D01*
X14040714Y-15654000D01*
X14055000Y-15668286D01*
X14069286Y-15696857D01*
X14069286Y-15725429D01*
X14055000Y-15768286D01*
X13883571Y-15939714D01*
X14069286Y-15939714D01*
X14326428Y-15639714D02*
X14269286Y-15639714D01*
X14240714Y-15654000D01*
X14226428Y-15668286D01*
X14197857Y-15711143D01*
X14183571Y-15768286D01*
X14183571Y-15882571D01*
X14197857Y-15911143D01*
X14212143Y-15925429D01*
X14240714Y-15939714D01*
X14297857Y-15939714D01*
X14326428Y-15925429D01*
X14340714Y-15911143D01*
X14355000Y-15882571D01*
X14355000Y-15811143D01*
X14340714Y-15782571D01*
X14326428Y-15768286D01*
X14297857Y-15754000D01*
X14240714Y-15754000D01*
X14212143Y-15768286D01*
X14197857Y-15782571D01*
X14183571Y-15811143D01*
X14469286Y-15639714D02*
X14469286Y-15696857D01*
X14583571Y-15639714D02*
X14583571Y-15696857D01*
X15026428Y-16054000D02*
X15012143Y-16039714D01*
X14983571Y-15996857D01*
X14969286Y-15968286D01*
X14955000Y-15925429D01*
X14940714Y-15854000D01*
X14940714Y-15796857D01*
X14955000Y-15725429D01*
X14969286Y-15682571D01*
X14983571Y-15654000D01*
X15012143Y-15611143D01*
X15026428Y-15596857D01*
X15297857Y-15939714D02*
X15126428Y-15939714D01*
X15212143Y-15939714D02*
X15212143Y-15639714D01*
X15183571Y-15682571D01*
X15155000Y-15711143D01*
X15126428Y-15725429D01*
X15655000Y-15939714D02*
X15655000Y-15639714D01*
X15783571Y-15939714D02*
X15783571Y-15782571D01*
X15769286Y-15754000D01*
X15740714Y-15739714D01*
X15697857Y-15739714D01*
X15669286Y-15754000D01*
X15655000Y-15768286D01*
X15969286Y-15939714D02*
X15940714Y-15925429D01*
X15926428Y-15911143D01*
X15912143Y-15882571D01*
X15912143Y-15796857D01*
X15926428Y-15768286D01*
X15940714Y-15754000D01*
X15969286Y-15739714D01*
X16012143Y-15739714D01*
X16040714Y-15754000D01*
X16055000Y-15768286D01*
X16069286Y-15796857D01*
X16069286Y-15882571D01*
X16055000Y-15911143D01*
X16040714Y-15925429D01*
X16012143Y-15939714D01*
X15969286Y-15939714D01*
X16240714Y-15939714D02*
X16212143Y-15925429D01*
X16197857Y-15896857D01*
X16197857Y-15639714D01*
X16469286Y-15925429D02*
X16440714Y-15939714D01*
X16383571Y-15939714D01*
X16355000Y-15925429D01*
X16340714Y-15896857D01*
X16340714Y-15782571D01*
X16355000Y-15754000D01*
X16383571Y-15739714D01*
X16440714Y-15739714D01*
X16469286Y-15754000D01*
X16483571Y-15782571D01*
X16483571Y-15811143D01*
X16340714Y-15839714D01*
X16583571Y-16054000D02*
X16597857Y-16039714D01*
X16626428Y-15996857D01*
X16640714Y-15968286D01*
X16655000Y-15925429D01*
X16669286Y-15854000D01*
X16669286Y-15796857D01*
X16655000Y-15725429D01*
X16640714Y-15682571D01*
X16626428Y-15654000D01*
X16597857Y-15611143D01*
X16583571Y-15596857D01*
X17126428Y-16054000D02*
X17112143Y-16039714D01*
X17083571Y-15996857D01*
X17069286Y-15968286D01*
X17055000Y-15925429D01*
X17040714Y-15854000D01*
X17040714Y-15796857D01*
X17055000Y-15725429D01*
X17069286Y-15682571D01*
X17083571Y-15654000D01*
X17112143Y-15611143D01*
X17126428Y-15596857D01*
X17240714Y-15739714D02*
X17240714Y-15939714D01*
X17240714Y-15768286D02*
X17255000Y-15754000D01*
X17283571Y-15739714D01*
X17326428Y-15739714D01*
X17355000Y-15754000D01*
X17369286Y-15782571D01*
X17369286Y-15939714D01*
X17555000Y-15939714D02*
X17526428Y-15925429D01*
X17512143Y-15911143D01*
X17497857Y-15882571D01*
X17497857Y-15796857D01*
X17512143Y-15768286D01*
X17526428Y-15754000D01*
X17555000Y-15739714D01*
X17597857Y-15739714D01*
X17626428Y-15754000D01*
X17640714Y-15768286D01*
X17655000Y-15796857D01*
X17655000Y-15882571D01*
X17640714Y-15911143D01*
X17626428Y-15925429D01*
X17597857Y-15939714D01*
X17555000Y-15939714D01*
X17740714Y-15739714D02*
X17855000Y-15739714D01*
X17783571Y-15639714D02*
X17783571Y-15896857D01*
X17797857Y-15925429D01*
X17826428Y-15939714D01*
X17855000Y-15939714D01*
X18183571Y-15739714D02*
X18183571Y-16039714D01*
X18183571Y-15754000D02*
X18212143Y-15739714D01*
X18269286Y-15739714D01*
X18297857Y-15754000D01*
X18312143Y-15768286D01*
X18326428Y-15796857D01*
X18326428Y-15882571D01*
X18312143Y-15911143D01*
X18297857Y-15925429D01*
X18269286Y-15939714D01*
X18212143Y-15939714D01*
X18183571Y-15925429D01*
X18497857Y-15939714D02*
X18469286Y-15925429D01*
X18455000Y-15896857D01*
X18455000Y-15639714D01*
X18740714Y-15939714D02*
X18740714Y-15782571D01*
X18726428Y-15754000D01*
X18697857Y-15739714D01*
X18640714Y-15739714D01*
X18612143Y-15754000D01*
X18740714Y-15925429D02*
X18712143Y-15939714D01*
X18640714Y-15939714D01*
X18612143Y-15925429D01*
X18597857Y-15896857D01*
X18597857Y-15868286D01*
X18612143Y-15839714D01*
X18640714Y-15825429D01*
X18712143Y-15825429D01*
X18740714Y-15811143D01*
X18840714Y-15739714D02*
X18955000Y-15739714D01*
X18883571Y-15639714D02*
X18883571Y-15896857D01*
X18897857Y-15925429D01*
X18926428Y-15939714D01*
X18955000Y-15939714D01*
X19169286Y-15925429D02*
X19140714Y-15939714D01*
X19083571Y-15939714D01*
X19055000Y-15925429D01*
X19040714Y-15896857D01*
X19040714Y-15782571D01*
X19055000Y-15754000D01*
X19083571Y-15739714D01*
X19140714Y-15739714D01*
X19169286Y-15754000D01*
X19183571Y-15782571D01*
X19183571Y-15811143D01*
X19040714Y-15839714D01*
X19440714Y-15939714D02*
X19440714Y-15639714D01*
X19440714Y-15925429D02*
X19412143Y-15939714D01*
X19355000Y-15939714D01*
X19326428Y-15925429D01*
X19312143Y-15911143D01*
X19297857Y-15882571D01*
X19297857Y-15796857D01*
X19312143Y-15768286D01*
X19326428Y-15754000D01*
X19355000Y-15739714D01*
X19412143Y-15739714D01*
X19440714Y-15754000D01*
X19555000Y-16054000D02*
X19569286Y-16039714D01*
X19597857Y-15996857D01*
X19612143Y-15968286D01*
X19626428Y-15925429D01*
X19640714Y-15854000D01*
X19640714Y-15796857D01*
X19626428Y-15725429D01*
X19612143Y-15682571D01*
X19597857Y-15654000D01*
X19569286Y-15611143D01*
X19555000Y-15596857D01*
M02*
