G04 #@! TF.GenerationSoftware,KiCad,Pcbnew,5.0.0-rc2-dev-unknown+dfsg1+20180318-3*
G04 #@! TF.CreationDate,2018-05-10T20:41:14-07:00*
G04 #@! TF.ProjectId,DC26Badge,4443323642616467652E6B696361645F,rev?*
G04 #@! TF.SameCoordinates,Original*
G04 #@! TF.FileFunction,Copper,L1,Top,Signal*
G04 #@! TF.FilePolarity,Positive*
%FSLAX46Y46*%
G04 Gerber Fmt 4.6, Leading zero omitted, Abs format (unit mm)*
G04 Created by KiCad (PCBNEW 5.0.0-rc2-dev-unknown+dfsg1+20180318-3) date Thu May 10 20:41:14 2018*
%MOMM*%
%LPD*%
G01*
G04 APERTURE LIST*
%ADD10R,0.700000X2.000000*%
%ADD11R,1.800000X1.100000*%
%ADD12R,0.670000X1.000000*%
%ADD13R,1.000000X0.670000*%
%ADD14R,3.500000X1.000000*%
%ADD15R,3.400000X1.500000*%
%ADD16R,2.400000X0.740000*%
%ADD17C,1.100000*%
%ADD18C,0.100000*%
%ADD19C,1.900000*%
%ADD20R,1.700000X1.700000*%
%ADD21O,1.700000X1.700000*%
%ADD22C,1.400000*%
%ADD23O,1.270000X2.000000*%
%ADD24C,1.000000*%
%ADD25C,0.800000*%
%ADD26C,0.250000*%
%ADD27C,1.000000*%
%ADD28C,0.500000*%
%ADD29C,0.254000*%
G04 APERTURE END LIST*
D10*
X101150000Y-26000000D03*
X101150000Y-40500000D03*
X102250000Y-26000000D03*
X102250000Y-40500000D03*
X103350000Y-26000000D03*
X103350000Y-40500000D03*
X104450000Y-26000000D03*
X104450000Y-40500000D03*
X105550000Y-26000000D03*
X105550000Y-40500000D03*
X106650000Y-26000000D03*
X106650000Y-40500000D03*
X107750000Y-26000000D03*
X107750000Y-40500000D03*
X108850000Y-26000000D03*
X108850000Y-40500000D03*
D11*
X131000000Y-34150000D03*
X124800000Y-34150000D03*
X131000000Y-30450000D03*
X124800000Y-30450000D03*
D12*
X154000000Y-33800000D03*
X155750000Y-33800000D03*
X155750000Y-31600000D03*
X154000000Y-31600000D03*
X113650000Y-26000000D03*
X111900000Y-26000000D03*
D13*
X133100000Y-33250000D03*
X133100000Y-31500000D03*
D14*
X179750000Y-34900000D03*
X179750000Y-32900000D03*
D15*
X185500000Y-37250000D03*
X185500000Y-30550000D03*
D16*
X114750000Y-29360000D03*
X118650000Y-29360000D03*
X114750000Y-30630000D03*
X118650000Y-30630000D03*
X114750000Y-31900000D03*
X118650000Y-31900000D03*
X114750000Y-33170000D03*
X118650000Y-33170000D03*
X114750000Y-34440000D03*
X118650000Y-34440000D03*
D11*
X161000000Y-36500000D03*
X164000000Y-36500000D03*
X161000000Y-35100000D03*
X164000000Y-35100000D03*
D17*
X143561181Y-29258920D03*
D18*
G36*
X142518198Y-29524085D02*
X143826346Y-28215937D01*
X144604164Y-28993755D01*
X143296016Y-30301903D01*
X142518198Y-29524085D01*
X142518198Y-29524085D01*
G37*
D17*
X138858920Y-33961181D03*
D18*
G36*
X137815937Y-34226346D02*
X139124085Y-32918198D01*
X139901903Y-33696016D01*
X138593755Y-35004164D01*
X137815937Y-34226346D01*
X137815937Y-34226346D01*
G37*
D17*
X144551130Y-30248870D03*
D18*
G36*
X143508147Y-30514035D02*
X144816295Y-29205887D01*
X145594113Y-29983705D01*
X144285965Y-31291853D01*
X143508147Y-30514035D01*
X143508147Y-30514035D01*
G37*
D17*
X139848870Y-34951130D03*
D18*
G36*
X138805887Y-35216295D02*
X140114035Y-33908147D01*
X140891853Y-34685965D01*
X139583705Y-35994113D01*
X138805887Y-35216295D01*
X138805887Y-35216295D01*
G37*
D17*
X145541080Y-31238819D03*
D18*
G36*
X144498097Y-31503984D02*
X145806245Y-30195836D01*
X146584063Y-30973654D01*
X145275915Y-32281802D01*
X144498097Y-31503984D01*
X144498097Y-31503984D01*
G37*
D17*
X140838819Y-35941080D03*
D18*
G36*
X139795836Y-36206245D02*
X141103984Y-34898097D01*
X141881802Y-35675915D01*
X140573654Y-36984063D01*
X139795836Y-36206245D01*
X139795836Y-36206245D01*
G37*
D19*
X145806245Y-36206245D03*
D18*
G36*
X144427387Y-36241600D02*
X145841600Y-34827387D01*
X147185103Y-36170890D01*
X145770890Y-37585103D01*
X144427387Y-36241600D01*
X144427387Y-36241600D01*
G37*
D19*
X138593755Y-28993755D03*
D18*
G36*
X137214897Y-29029110D02*
X138629110Y-27614897D01*
X139972613Y-28958400D01*
X138558400Y-30372613D01*
X137214897Y-29029110D01*
X137214897Y-29029110D01*
G37*
D12*
X125950000Y-24700000D03*
X127700000Y-24700000D03*
D20*
X168800000Y-35340000D03*
D21*
X168800000Y-32800000D03*
X173600000Y-32800000D03*
D20*
X173600000Y-35340000D03*
X163800000Y-31100000D03*
D21*
X161260000Y-31100000D03*
D12*
X124000000Y-24700000D03*
X122250000Y-24700000D03*
D13*
X121800000Y-33100000D03*
X121800000Y-31350000D03*
D22*
X153660000Y-36500000D03*
X156200000Y-36500000D03*
D23*
X186570000Y-61740000D03*
X186570000Y-46500000D03*
X184030000Y-61740000D03*
X184030000Y-46500000D03*
X181490000Y-61740000D03*
X181490000Y-46500000D03*
X178950000Y-61740000D03*
X178950000Y-46500000D03*
X176410000Y-61740000D03*
X176410000Y-46500000D03*
X173870000Y-61740000D03*
X173870000Y-46500000D03*
X171330000Y-61740000D03*
X171330000Y-46500000D03*
X168790000Y-61740000D03*
X168790000Y-46500000D03*
X166250000Y-61740000D03*
X166250000Y-46500000D03*
X143250000Y-46500000D03*
X143250000Y-61740000D03*
X145790000Y-46500000D03*
X145790000Y-61740000D03*
X148330000Y-46500000D03*
X148330000Y-61740000D03*
X150870000Y-46500000D03*
X150870000Y-61740000D03*
X153410000Y-46500000D03*
X153410000Y-61740000D03*
X155950000Y-46500000D03*
X155950000Y-61740000D03*
X158490000Y-46500000D03*
X158490000Y-61740000D03*
X161030000Y-46500000D03*
X161030000Y-61740000D03*
X163570000Y-46500000D03*
X163570000Y-61740000D03*
X140570000Y-61740000D03*
X140570000Y-46500000D03*
X138030000Y-61740000D03*
X138030000Y-46500000D03*
X135490000Y-61740000D03*
X135490000Y-46500000D03*
X132950000Y-61740000D03*
X132950000Y-46500000D03*
X130410000Y-61740000D03*
X130410000Y-46500000D03*
X127870000Y-61740000D03*
X127870000Y-46500000D03*
X125330000Y-61740000D03*
X125330000Y-46500000D03*
X122790000Y-61740000D03*
X122790000Y-46500000D03*
X120250000Y-61740000D03*
X120250000Y-46500000D03*
X97250000Y-46500000D03*
X97250000Y-61740000D03*
X99790000Y-46500000D03*
X99790000Y-61740000D03*
X102330000Y-46500000D03*
X102330000Y-61740000D03*
X104870000Y-46500000D03*
X104870000Y-61740000D03*
X107410000Y-46500000D03*
X107410000Y-61740000D03*
X109950000Y-46500000D03*
X109950000Y-61740000D03*
X112490000Y-46500000D03*
X112490000Y-61740000D03*
X115030000Y-46500000D03*
X115030000Y-61740000D03*
X117570000Y-46500000D03*
X117570000Y-61740000D03*
D24*
X143225000Y-32000000D03*
X127900000Y-30500000D03*
X114800000Y-26000000D03*
X112400000Y-33000000D03*
X107800000Y-28900000D03*
X107800000Y-27800000D03*
X131425010Y-55325010D03*
D25*
X186500000Y-58250000D03*
X184000000Y-64250000D03*
X138000000Y-64250000D03*
X161000000Y-64250000D03*
X158500000Y-55500000D03*
X135500000Y-65000000D03*
X158500000Y-65000000D03*
X181500000Y-65000000D03*
X181500000Y-57000000D03*
X135500000Y-44000000D03*
X158500000Y-44000000D03*
X181500000Y-44000000D03*
X156000000Y-54750000D03*
X133000000Y-65750000D03*
X156000000Y-65750000D03*
X179000000Y-65750000D03*
X179000000Y-56250000D03*
X133000000Y-43250000D03*
X156000000Y-43250000D03*
X179000000Y-43250000D03*
X140000000Y-56250000D03*
X130500000Y-66500000D03*
X153500000Y-66500000D03*
X176250000Y-66500000D03*
X130500000Y-42500000D03*
X153500000Y-42500000D03*
X176250000Y-42500000D03*
X141500000Y-56250000D03*
X127750000Y-67250000D03*
X150750000Y-67250000D03*
X173750000Y-67250000D03*
X128000000Y-41750000D03*
X150750000Y-41750000D03*
X173750000Y-41750000D03*
X171250000Y-52250000D03*
X122750000Y-68000000D03*
X145750000Y-68000000D03*
X168750000Y-68000000D03*
X122750000Y-41000000D03*
X145750000Y-41000000D03*
X168500000Y-41000000D03*
X120250000Y-68750000D03*
X143250000Y-68750000D03*
X166250000Y-68750000D03*
X120250000Y-40250000D03*
X143250000Y-40250000D03*
X166250000Y-40250000D03*
X132500000Y-49250000D03*
X135000000Y-51500000D03*
X142500000Y-52300000D03*
X161000000Y-53000000D03*
X106300000Y-53800000D03*
X103700000Y-52800000D03*
X121800000Y-34150000D03*
X103400000Y-27900000D03*
X104500000Y-27900000D03*
X118100000Y-25200000D03*
X142300000Y-38500000D03*
X107800000Y-38600000D03*
X137374999Y-35074999D03*
X103500000Y-35500000D03*
X138100000Y-35800000D03*
X104700000Y-36200000D03*
X143600000Y-36700000D03*
X105800000Y-37000000D03*
X140000000Y-37500000D03*
X106700000Y-37900000D03*
D26*
X144551130Y-30673870D02*
X143225000Y-32000000D01*
X144551130Y-30248870D02*
X144551130Y-30673870D01*
X124800000Y-30450000D02*
X127850000Y-30450000D01*
X127850000Y-30450000D02*
X127900000Y-30500000D01*
X127950000Y-30450000D02*
X127900000Y-30500000D01*
X131000000Y-30450000D02*
X127950000Y-30450000D01*
X133100000Y-31500000D02*
X131250000Y-31500000D01*
X131250000Y-31500000D02*
X131000000Y-31250000D01*
X131000000Y-31250000D02*
X131000000Y-30450000D01*
D27*
X154000000Y-33800000D02*
X154000000Y-36160000D01*
X154000000Y-36160000D02*
X153660000Y-36500000D01*
X154000000Y-31600000D02*
X154000000Y-33800000D01*
X173600000Y-32800000D02*
X168800000Y-32800000D01*
X179750000Y-32900000D02*
X173700000Y-32900000D01*
X173700000Y-32900000D02*
X173600000Y-32800000D01*
X113650000Y-26000000D02*
X114800000Y-26000000D01*
D28*
X112950000Y-32000000D02*
X112950000Y-33000000D01*
X112950000Y-33000000D02*
X112950000Y-34340000D01*
X112950000Y-33000000D02*
X112400000Y-33000000D01*
X112950000Y-34340000D02*
X113050000Y-34440000D01*
X113050000Y-34440000D02*
X114750000Y-34440000D01*
X114750000Y-31900000D02*
X113050000Y-31900000D01*
X113050000Y-31900000D02*
X112950000Y-32000000D01*
X114750000Y-30630000D02*
X114750000Y-31900000D01*
X107800000Y-27800000D02*
X107800000Y-28900000D01*
X107750000Y-27750000D02*
X107800000Y-27800000D01*
X107750000Y-26000000D02*
X107750000Y-27750000D01*
D27*
X156200000Y-36500000D02*
X161000000Y-36500000D01*
X155750000Y-33800000D02*
X155750000Y-36050000D01*
X155750000Y-36050000D02*
X156200000Y-36500000D01*
X155750000Y-31600000D02*
X155750000Y-33800000D01*
X114750000Y-29360000D02*
X111900000Y-26510000D01*
X111900000Y-26510000D02*
X111900000Y-26000000D01*
X108850000Y-26000000D02*
X111900000Y-26000000D01*
D26*
X186500000Y-58250000D02*
X186500000Y-46570000D01*
X186500000Y-46570000D02*
X186570000Y-46500000D01*
X184000000Y-64250000D02*
X184000000Y-61770000D01*
X184000000Y-61770000D02*
X184030000Y-61740000D01*
X138030000Y-61740000D02*
X138030000Y-64220000D01*
X138030000Y-64220000D02*
X138000000Y-64250000D01*
X161000000Y-64250000D02*
X161000000Y-61770000D01*
X161000000Y-61770000D02*
X161030000Y-61740000D01*
X158500000Y-55500000D02*
X158500000Y-61730000D01*
X158500000Y-61730000D02*
X158490000Y-61740000D01*
X135490000Y-61740000D02*
X135490000Y-64990000D01*
X135490000Y-64990000D02*
X135500000Y-65000000D01*
X158490000Y-64990000D02*
X158500000Y-65000000D01*
X158490000Y-61740000D02*
X158490000Y-64990000D01*
X181500000Y-65000000D02*
X181500000Y-61750000D01*
X181500000Y-61750000D02*
X181490000Y-61740000D01*
X181500000Y-57000000D02*
X181500000Y-46510000D01*
X181500000Y-46510000D02*
X181490000Y-46500000D01*
X135490000Y-46500000D02*
X135490000Y-44010000D01*
X135490000Y-44010000D02*
X135500000Y-44000000D01*
X158490000Y-44010000D02*
X158500000Y-44000000D01*
X158490000Y-46500000D02*
X158490000Y-44010000D01*
X181500000Y-44000000D02*
X181500000Y-46490000D01*
X181500000Y-46490000D02*
X181490000Y-46500000D01*
X156000000Y-54750000D02*
X156000000Y-61690000D01*
X156000000Y-61690000D02*
X155950000Y-61740000D01*
X132950000Y-61740000D02*
X132950000Y-65700000D01*
X132950000Y-65700000D02*
X133000000Y-65750000D01*
X155950000Y-61740000D02*
X155950000Y-65700000D01*
X155950000Y-65700000D02*
X156000000Y-65750000D01*
X179000000Y-65750000D02*
X179000000Y-61790000D01*
X179000000Y-61790000D02*
X178950000Y-61740000D01*
X179000000Y-56250000D02*
X179000000Y-46550000D01*
X179000000Y-46550000D02*
X178950000Y-46500000D01*
X132950000Y-46500000D02*
X132950000Y-43300000D01*
X132950000Y-43300000D02*
X133000000Y-43250000D01*
X155950000Y-46500000D02*
X155950000Y-43300000D01*
X155950000Y-43300000D02*
X156000000Y-43250000D01*
X179000000Y-43250000D02*
X179000000Y-46450000D01*
X179000000Y-46450000D02*
X178950000Y-46500000D01*
X133250000Y-56250000D02*
X130410000Y-59090000D01*
X140000000Y-56250000D02*
X133250000Y-56250000D01*
X130410000Y-59090000D02*
X130410000Y-61740000D01*
X130410000Y-61740000D02*
X130410000Y-66410000D01*
X130410000Y-66410000D02*
X130500000Y-66500000D01*
X153410000Y-61740000D02*
X153410000Y-66410000D01*
X153410000Y-66410000D02*
X153500000Y-66500000D01*
X176250000Y-66500000D02*
X176250000Y-61900000D01*
X176250000Y-61900000D02*
X176410000Y-61740000D01*
X130410000Y-46500000D02*
X130410000Y-42590000D01*
X130410000Y-42590000D02*
X130500000Y-42500000D01*
X153410000Y-46500000D02*
X153410000Y-42590000D01*
X153410000Y-42590000D02*
X153500000Y-42500000D01*
X176250000Y-42500000D02*
X176250000Y-46340000D01*
X176250000Y-46340000D02*
X176410000Y-46500000D01*
X149250000Y-56250000D02*
X141500000Y-56250000D01*
X150870000Y-57870000D02*
X149250000Y-56250000D01*
X150870000Y-61740000D02*
X150870000Y-57870000D01*
X127870000Y-61740000D02*
X127870000Y-67130000D01*
X127870000Y-67130000D02*
X127750000Y-67250000D01*
X150870000Y-67130000D02*
X150750000Y-67250000D01*
X150870000Y-61740000D02*
X150870000Y-67130000D01*
X173750000Y-67250000D02*
X173750000Y-61860000D01*
X173750000Y-61860000D02*
X173870000Y-61740000D01*
X127870000Y-46500000D02*
X127870000Y-41880000D01*
X127870000Y-41880000D02*
X128000000Y-41750000D01*
X150870000Y-46500000D02*
X150870000Y-41870000D01*
X150870000Y-41870000D02*
X150750000Y-41750000D01*
X173750000Y-41750000D02*
X173750000Y-46380000D01*
X173750000Y-46380000D02*
X173870000Y-46500000D01*
X171250000Y-52250000D02*
X171250000Y-46580000D01*
X171250000Y-46580000D02*
X171330000Y-46500000D01*
X122790000Y-61740000D02*
X122790000Y-67960000D01*
X122790000Y-67960000D02*
X122750000Y-68000000D01*
X145790000Y-67960000D02*
X145750000Y-68000000D01*
X145790000Y-61740000D02*
X145790000Y-67960000D01*
X168750000Y-68000000D02*
X168750000Y-61780000D01*
X168750000Y-61780000D02*
X168790000Y-61740000D01*
X122790000Y-46500000D02*
X122790000Y-41040000D01*
X122790000Y-41040000D02*
X122750000Y-41000000D01*
X145790000Y-46500000D02*
X145790000Y-41040000D01*
X145790000Y-41040000D02*
X145750000Y-41000000D01*
X168500000Y-41000000D02*
X168500000Y-46210000D01*
X168500000Y-46210000D02*
X168790000Y-46500000D01*
X120250000Y-61740000D02*
X120250000Y-68750000D01*
X143250000Y-61740000D02*
X143250000Y-68750000D01*
X166250000Y-68750000D02*
X166250000Y-61740000D01*
X120250000Y-46500000D02*
X120250000Y-40250000D01*
X143250000Y-46500000D02*
X143250000Y-40250000D01*
X166250000Y-40250000D02*
X166250000Y-46500000D01*
X132750000Y-49250000D02*
X132500000Y-49250000D01*
X135000000Y-51500000D02*
X132750000Y-49250000D01*
X142500000Y-52300000D02*
X148300000Y-46500000D01*
X148300000Y-46500000D02*
X148330000Y-46500000D01*
X148250000Y-46580000D02*
X148330000Y-46500000D01*
X161000000Y-53000000D02*
X161000000Y-46530000D01*
X161000000Y-46530000D02*
X161030000Y-46500000D01*
X106300000Y-52900000D02*
X103600000Y-50200000D01*
X106300000Y-53800000D02*
X106300000Y-52900000D01*
X103600000Y-50200000D02*
X103600000Y-44800000D01*
X103600000Y-44800000D02*
X102250000Y-43450000D01*
X102250000Y-43450000D02*
X102250000Y-40500000D01*
X106200000Y-53700000D02*
X106300000Y-53800000D01*
X101150000Y-40500000D02*
X101150000Y-50250000D01*
X101150000Y-50250000D02*
X103700000Y-52800000D01*
X131000000Y-34150000D02*
X124800000Y-34150000D01*
X133100000Y-33250000D02*
X133100000Y-33835000D01*
X132150000Y-34150000D02*
X131000000Y-34150000D01*
X133100000Y-33835000D02*
X132785000Y-34150000D01*
X132785000Y-34150000D02*
X132150000Y-34150000D01*
X103350000Y-27850000D02*
X103400000Y-27900000D01*
X103350000Y-26000000D02*
X103350000Y-27850000D01*
X121800000Y-34150000D02*
X118940000Y-34150000D01*
X124800000Y-34150000D02*
X121800000Y-34150000D01*
X121800000Y-33100000D02*
X121800000Y-33685000D01*
X121800000Y-33685000D02*
X121800000Y-34150000D01*
X118940000Y-34150000D02*
X118650000Y-34440000D01*
X124000000Y-24700000D02*
X125950000Y-24700000D01*
X104500000Y-27900000D02*
X104500000Y-26050000D01*
X104500000Y-26050000D02*
X104450000Y-26000000D01*
X118600000Y-24700000D02*
X118100000Y-25200000D01*
X122250000Y-24700000D02*
X118600000Y-24700000D01*
D27*
X164000000Y-35100000D02*
X164000000Y-31300000D01*
X164000000Y-31300000D02*
X163800000Y-31100000D01*
X161000000Y-35100000D02*
X161000000Y-31360000D01*
X161000000Y-31360000D02*
X161260000Y-31100000D01*
X164000000Y-36500000D02*
X167640000Y-36500000D01*
X167640000Y-36500000D02*
X168800000Y-35340000D01*
X173600000Y-35340000D02*
X168800000Y-35340000D01*
X179750000Y-34900000D02*
X174040000Y-34900000D01*
X174040000Y-34900000D02*
X173600000Y-35340000D01*
D26*
X142400000Y-37834315D02*
X142400000Y-30420101D01*
X142400000Y-30420101D02*
X143561181Y-29258920D01*
X142300000Y-38500000D02*
X142300000Y-37934315D01*
X142300000Y-37934315D02*
X142400000Y-37834315D01*
X107750000Y-38650000D02*
X107800000Y-38600000D01*
X107750000Y-40500000D02*
X107750000Y-38650000D01*
X138858920Y-33961181D02*
X138488817Y-33961181D01*
X138488817Y-33961181D02*
X137374999Y-35074999D01*
X103350000Y-35650000D02*
X103500000Y-35500000D01*
X103350000Y-40500000D02*
X103350000Y-35650000D01*
X138100000Y-35800000D02*
X139000000Y-35800000D01*
X139000000Y-35800000D02*
X139848870Y-34951130D01*
X104450000Y-36450000D02*
X104700000Y-36200000D01*
X104450000Y-40500000D02*
X104450000Y-36450000D01*
X103150000Y-40250000D02*
X103600000Y-40700000D01*
X143999999Y-35400001D02*
X145541080Y-33858920D01*
X145541080Y-33858920D02*
X145541080Y-31238819D01*
X143600000Y-36700000D02*
X143999999Y-36300001D01*
X143999999Y-36300001D02*
X143999999Y-35400001D01*
X105550000Y-37250000D02*
X105800000Y-37000000D01*
X105550000Y-40500000D02*
X105550000Y-37250000D01*
X140000000Y-37500000D02*
X140000000Y-36779899D01*
X140000000Y-36779899D02*
X140838819Y-35941080D01*
X106650000Y-37950000D02*
X106700000Y-37900000D01*
X106650000Y-40500000D02*
X106650000Y-37950000D01*
X101150000Y-24750000D02*
X101950010Y-23949990D01*
X101150000Y-26000000D02*
X101150000Y-24750000D01*
X101950010Y-23949990D02*
X115486401Y-23949991D01*
X118650000Y-27113590D02*
X118650000Y-29360000D01*
X115486401Y-23949991D02*
X118650000Y-27113590D01*
X115300000Y-24400000D02*
X102600000Y-24400000D01*
X102600000Y-24400000D02*
X102250000Y-24750000D01*
X102250000Y-24750000D02*
X102250000Y-26000000D01*
X116800000Y-25900000D02*
X115300000Y-24400000D01*
X116800000Y-30230000D02*
X116800000Y-25900000D01*
X118650000Y-30630000D02*
X117200000Y-30630000D01*
X117200000Y-30630000D02*
X116800000Y-30230000D01*
D29*
G36*
X123306106Y-24051341D02*
X123276536Y-24200000D01*
X123276536Y-25200000D01*
X123306106Y-25348659D01*
X123390314Y-25474686D01*
X123516341Y-25558894D01*
X123665000Y-25588464D01*
X124335000Y-25588464D01*
X124483659Y-25558894D01*
X124609686Y-25474686D01*
X124693894Y-25348659D01*
X124722271Y-25206000D01*
X125227729Y-25206000D01*
X125256106Y-25348659D01*
X125340314Y-25474686D01*
X125466341Y-25558894D01*
X125615000Y-25588464D01*
X126285000Y-25588464D01*
X126433659Y-25558894D01*
X126559686Y-25474686D01*
X126643894Y-25348659D01*
X126673464Y-25200000D01*
X126673464Y-24922250D01*
X126984000Y-24922250D01*
X126984000Y-25275785D01*
X127042004Y-25415819D01*
X127149180Y-25522996D01*
X127289214Y-25581000D01*
X127477750Y-25581000D01*
X127573000Y-25485750D01*
X127573000Y-24827000D01*
X127827000Y-24827000D01*
X127827000Y-25485750D01*
X127922250Y-25581000D01*
X128110786Y-25581000D01*
X128250820Y-25522996D01*
X128357996Y-25415819D01*
X128416000Y-25275785D01*
X128416000Y-24922250D01*
X128320750Y-24827000D01*
X127827000Y-24827000D01*
X127573000Y-24827000D01*
X127079250Y-24827000D01*
X126984000Y-24922250D01*
X126673464Y-24922250D01*
X126673464Y-24200000D01*
X126643894Y-24051341D01*
X126580190Y-23956000D01*
X127070185Y-23956000D01*
X127042004Y-23984181D01*
X126984000Y-24124215D01*
X126984000Y-24477750D01*
X127079250Y-24573000D01*
X127573000Y-24573000D01*
X127573000Y-24553000D01*
X127827000Y-24553000D01*
X127827000Y-24573000D01*
X128320750Y-24573000D01*
X128416000Y-24477750D01*
X128416000Y-24124215D01*
X128357996Y-23984181D01*
X128329815Y-23956000D01*
X188544000Y-23956000D01*
X188544001Y-24955091D01*
X188544000Y-69544000D01*
X95456000Y-69544000D01*
X95456000Y-61274936D01*
X96234000Y-61274936D01*
X96234000Y-62205065D01*
X96292950Y-62501423D01*
X96517506Y-62837495D01*
X96853578Y-63062051D01*
X97250000Y-63140904D01*
X97646423Y-63062051D01*
X97982495Y-62837495D01*
X98207051Y-62501423D01*
X98266000Y-62205064D01*
X98266000Y-61274936D01*
X98774000Y-61274936D01*
X98774000Y-62205065D01*
X98832950Y-62501423D01*
X99057506Y-62837495D01*
X99393578Y-63062051D01*
X99790000Y-63140904D01*
X100186423Y-63062051D01*
X100522495Y-62837495D01*
X100747051Y-62501423D01*
X100806000Y-62205064D01*
X100806000Y-61274936D01*
X101314000Y-61274936D01*
X101314000Y-62205065D01*
X101372950Y-62501423D01*
X101597506Y-62837495D01*
X101933578Y-63062051D01*
X102330000Y-63140904D01*
X102726423Y-63062051D01*
X103062495Y-62837495D01*
X103287051Y-62501423D01*
X103346000Y-62205064D01*
X103346000Y-61274936D01*
X103854000Y-61274936D01*
X103854000Y-62205065D01*
X103912950Y-62501423D01*
X104137506Y-62837495D01*
X104473578Y-63062051D01*
X104870000Y-63140904D01*
X105266423Y-63062051D01*
X105602495Y-62837495D01*
X105827051Y-62501423D01*
X105886000Y-62205064D01*
X105886000Y-61274936D01*
X106394000Y-61274936D01*
X106394000Y-62205065D01*
X106452950Y-62501423D01*
X106677506Y-62837495D01*
X107013578Y-63062051D01*
X107410000Y-63140904D01*
X107806423Y-63062051D01*
X108142495Y-62837495D01*
X108367051Y-62501423D01*
X108426000Y-62205064D01*
X108426000Y-61274936D01*
X108934000Y-61274936D01*
X108934000Y-62205065D01*
X108992950Y-62501423D01*
X109217506Y-62837495D01*
X109553578Y-63062051D01*
X109950000Y-63140904D01*
X110346423Y-63062051D01*
X110682495Y-62837495D01*
X110907051Y-62501423D01*
X110966000Y-62205064D01*
X110966000Y-61274936D01*
X111474000Y-61274936D01*
X111474000Y-62205065D01*
X111532950Y-62501423D01*
X111757506Y-62837495D01*
X112093578Y-63062051D01*
X112490000Y-63140904D01*
X112886423Y-63062051D01*
X113222495Y-62837495D01*
X113447051Y-62501423D01*
X113506000Y-62205064D01*
X113506000Y-61274936D01*
X114014000Y-61274936D01*
X114014000Y-62205065D01*
X114072950Y-62501423D01*
X114297506Y-62837495D01*
X114633578Y-63062051D01*
X115030000Y-63140904D01*
X115426423Y-63062051D01*
X115762495Y-62837495D01*
X115987051Y-62501423D01*
X116046000Y-62205064D01*
X116046000Y-61274936D01*
X116554000Y-61274936D01*
X116554000Y-62205065D01*
X116612950Y-62501423D01*
X116837506Y-62837495D01*
X117173578Y-63062051D01*
X117570000Y-63140904D01*
X117966423Y-63062051D01*
X118302495Y-62837495D01*
X118527051Y-62501423D01*
X118586000Y-62205064D01*
X118586000Y-61274936D01*
X119234000Y-61274936D01*
X119234000Y-62205065D01*
X119292950Y-62501423D01*
X119517506Y-62837495D01*
X119744000Y-62988833D01*
X119744001Y-68151498D01*
X119587900Y-68307599D01*
X119469000Y-68594649D01*
X119469000Y-68905351D01*
X119587900Y-69192401D01*
X119807599Y-69412100D01*
X120094649Y-69531000D01*
X120405351Y-69531000D01*
X120692401Y-69412100D01*
X120912100Y-69192401D01*
X121031000Y-68905351D01*
X121031000Y-68594649D01*
X120912100Y-68307599D01*
X120756000Y-68151499D01*
X120756000Y-62988834D01*
X120982495Y-62837495D01*
X121207051Y-62501423D01*
X121266000Y-62205064D01*
X121266000Y-61274936D01*
X121774000Y-61274936D01*
X121774000Y-62205065D01*
X121832950Y-62501423D01*
X122057506Y-62837495D01*
X122284000Y-62988834D01*
X122284001Y-67361498D01*
X122087900Y-67557599D01*
X121969000Y-67844649D01*
X121969000Y-68155351D01*
X122087900Y-68442401D01*
X122307599Y-68662100D01*
X122594649Y-68781000D01*
X122905351Y-68781000D01*
X123192401Y-68662100D01*
X123412100Y-68442401D01*
X123531000Y-68155351D01*
X123531000Y-67844649D01*
X123412100Y-67557599D01*
X123296000Y-67441499D01*
X123296000Y-62988834D01*
X123522495Y-62837495D01*
X123747051Y-62501423D01*
X123806000Y-62205064D01*
X123806000Y-61274936D01*
X124314000Y-61274936D01*
X124314000Y-62205065D01*
X124372950Y-62501423D01*
X124597506Y-62837495D01*
X124933578Y-63062051D01*
X125330000Y-63140904D01*
X125726423Y-63062051D01*
X126062495Y-62837495D01*
X126287051Y-62501423D01*
X126346000Y-62205064D01*
X126346000Y-61274936D01*
X126854000Y-61274936D01*
X126854000Y-62205065D01*
X126912950Y-62501423D01*
X127137506Y-62837495D01*
X127364000Y-62988834D01*
X127364001Y-66564538D01*
X127307599Y-66587900D01*
X127087900Y-66807599D01*
X126969000Y-67094649D01*
X126969000Y-67405351D01*
X127087900Y-67692401D01*
X127307599Y-67912100D01*
X127594649Y-68031000D01*
X127905351Y-68031000D01*
X128192401Y-67912100D01*
X128412100Y-67692401D01*
X128531000Y-67405351D01*
X128531000Y-67094649D01*
X128412100Y-66807599D01*
X128376000Y-66771499D01*
X128376000Y-62988834D01*
X128602495Y-62837495D01*
X128827051Y-62501423D01*
X128886000Y-62205064D01*
X128886000Y-61274936D01*
X129394000Y-61274936D01*
X129394000Y-62205065D01*
X129452950Y-62501423D01*
X129677506Y-62837495D01*
X129904000Y-62988834D01*
X129904001Y-65991498D01*
X129837900Y-66057599D01*
X129719000Y-66344649D01*
X129719000Y-66655351D01*
X129837900Y-66942401D01*
X130057599Y-67162100D01*
X130344649Y-67281000D01*
X130655351Y-67281000D01*
X130942401Y-67162100D01*
X131162100Y-66942401D01*
X131281000Y-66655351D01*
X131281000Y-66344649D01*
X131162100Y-66057599D01*
X130942401Y-65837900D01*
X130916000Y-65826964D01*
X130916000Y-62988834D01*
X131142495Y-62837495D01*
X131367051Y-62501423D01*
X131426000Y-62205064D01*
X131426000Y-61274936D01*
X131934000Y-61274936D01*
X131934000Y-62205065D01*
X131992950Y-62501423D01*
X132217506Y-62837495D01*
X132444000Y-62988834D01*
X132444001Y-65201498D01*
X132337900Y-65307599D01*
X132219000Y-65594649D01*
X132219000Y-65905351D01*
X132337900Y-66192401D01*
X132557599Y-66412100D01*
X132844649Y-66531000D01*
X133155351Y-66531000D01*
X133442401Y-66412100D01*
X133662100Y-66192401D01*
X133781000Y-65905351D01*
X133781000Y-65594649D01*
X133662100Y-65307599D01*
X133456000Y-65101499D01*
X133456000Y-62988834D01*
X133682495Y-62837495D01*
X133907051Y-62501423D01*
X133966000Y-62205064D01*
X133966000Y-61274936D01*
X134474000Y-61274936D01*
X134474000Y-62205065D01*
X134532950Y-62501423D01*
X134757506Y-62837495D01*
X134984000Y-62988834D01*
X134984001Y-64411498D01*
X134837900Y-64557599D01*
X134719000Y-64844649D01*
X134719000Y-65155351D01*
X134837900Y-65442401D01*
X135057599Y-65662100D01*
X135344649Y-65781000D01*
X135655351Y-65781000D01*
X135942401Y-65662100D01*
X136162100Y-65442401D01*
X136281000Y-65155351D01*
X136281000Y-64844649D01*
X136162100Y-64557599D01*
X135996000Y-64391499D01*
X135996000Y-62988834D01*
X136222495Y-62837495D01*
X136447051Y-62501423D01*
X136506000Y-62205064D01*
X136506000Y-61274936D01*
X137014000Y-61274936D01*
X137014000Y-62205065D01*
X137072950Y-62501423D01*
X137297506Y-62837495D01*
X137524001Y-62988834D01*
X137524001Y-63621498D01*
X137337900Y-63807599D01*
X137219000Y-64094649D01*
X137219000Y-64405351D01*
X137337900Y-64692401D01*
X137557599Y-64912100D01*
X137844649Y-65031000D01*
X138155351Y-65031000D01*
X138442401Y-64912100D01*
X138662100Y-64692401D01*
X138781000Y-64405351D01*
X138781000Y-64094649D01*
X138662100Y-63807599D01*
X138536000Y-63681499D01*
X138536000Y-62988834D01*
X138762495Y-62837495D01*
X138987051Y-62501423D01*
X139046000Y-62205064D01*
X139046000Y-61274936D01*
X139554000Y-61274936D01*
X139554000Y-62205065D01*
X139612950Y-62501423D01*
X139837506Y-62837495D01*
X140173578Y-63062051D01*
X140570000Y-63140904D01*
X140966423Y-63062051D01*
X141302495Y-62837495D01*
X141527051Y-62501423D01*
X141586000Y-62205064D01*
X141586000Y-61274936D01*
X142234000Y-61274936D01*
X142234000Y-62205065D01*
X142292950Y-62501423D01*
X142517506Y-62837495D01*
X142744000Y-62988833D01*
X142744001Y-68151498D01*
X142587900Y-68307599D01*
X142469000Y-68594649D01*
X142469000Y-68905351D01*
X142587900Y-69192401D01*
X142807599Y-69412100D01*
X143094649Y-69531000D01*
X143405351Y-69531000D01*
X143692401Y-69412100D01*
X143912100Y-69192401D01*
X144031000Y-68905351D01*
X144031000Y-68594649D01*
X143912100Y-68307599D01*
X143756000Y-68151499D01*
X143756000Y-62988834D01*
X143982495Y-62837495D01*
X144207051Y-62501423D01*
X144266000Y-62205064D01*
X144266000Y-61274936D01*
X144774000Y-61274936D01*
X144774000Y-62205065D01*
X144832950Y-62501423D01*
X145057506Y-62837495D01*
X145284000Y-62988834D01*
X145284001Y-67361498D01*
X145087900Y-67557599D01*
X144969000Y-67844649D01*
X144969000Y-68155351D01*
X145087900Y-68442401D01*
X145307599Y-68662100D01*
X145594649Y-68781000D01*
X145905351Y-68781000D01*
X146192401Y-68662100D01*
X146412100Y-68442401D01*
X146531000Y-68155351D01*
X146531000Y-67844649D01*
X146412100Y-67557599D01*
X146296000Y-67441499D01*
X146296000Y-62988834D01*
X146522495Y-62837495D01*
X146747051Y-62501423D01*
X146806000Y-62205064D01*
X146806000Y-61274936D01*
X147314000Y-61274936D01*
X147314000Y-62205065D01*
X147372950Y-62501423D01*
X147597506Y-62837495D01*
X147933578Y-63062051D01*
X148330000Y-63140904D01*
X148726423Y-63062051D01*
X149062495Y-62837495D01*
X149287051Y-62501423D01*
X149346000Y-62205064D01*
X149346000Y-61274935D01*
X149287051Y-60978577D01*
X149062495Y-60642505D01*
X148726422Y-60417949D01*
X148330000Y-60339096D01*
X147933577Y-60417949D01*
X147597505Y-60642505D01*
X147372949Y-60978578D01*
X147314000Y-61274936D01*
X146806000Y-61274936D01*
X146806000Y-61274935D01*
X146747051Y-60978577D01*
X146522495Y-60642505D01*
X146186422Y-60417949D01*
X145790000Y-60339096D01*
X145393577Y-60417949D01*
X145057505Y-60642505D01*
X144832949Y-60978578D01*
X144774000Y-61274936D01*
X144266000Y-61274936D01*
X144266000Y-61274935D01*
X144207051Y-60978577D01*
X143982495Y-60642505D01*
X143646422Y-60417949D01*
X143250000Y-60339096D01*
X142853577Y-60417949D01*
X142517505Y-60642505D01*
X142292949Y-60978578D01*
X142234000Y-61274936D01*
X141586000Y-61274936D01*
X141586000Y-61274935D01*
X141527051Y-60978577D01*
X141302495Y-60642505D01*
X140966422Y-60417949D01*
X140570000Y-60339096D01*
X140173577Y-60417949D01*
X139837505Y-60642505D01*
X139612949Y-60978578D01*
X139554000Y-61274936D01*
X139046000Y-61274936D01*
X139046000Y-61274935D01*
X138987051Y-60978577D01*
X138762495Y-60642505D01*
X138426422Y-60417949D01*
X138030000Y-60339096D01*
X137633577Y-60417949D01*
X137297505Y-60642505D01*
X137072949Y-60978578D01*
X137014000Y-61274936D01*
X136506000Y-61274936D01*
X136506000Y-61274935D01*
X136447051Y-60978577D01*
X136222495Y-60642505D01*
X135886422Y-60417949D01*
X135490000Y-60339096D01*
X135093577Y-60417949D01*
X134757505Y-60642505D01*
X134532949Y-60978578D01*
X134474000Y-61274936D01*
X133966000Y-61274936D01*
X133966000Y-61274935D01*
X133907051Y-60978577D01*
X133682495Y-60642505D01*
X133346422Y-60417949D01*
X132950000Y-60339096D01*
X132553577Y-60417949D01*
X132217505Y-60642505D01*
X131992949Y-60978578D01*
X131934000Y-61274936D01*
X131426000Y-61274936D01*
X131426000Y-61274935D01*
X131367051Y-60978577D01*
X131142495Y-60642505D01*
X130916000Y-60491166D01*
X130916000Y-59299591D01*
X133459593Y-56756000D01*
X139401499Y-56756000D01*
X139557599Y-56912100D01*
X139844649Y-57031000D01*
X140155351Y-57031000D01*
X140442401Y-56912100D01*
X140662100Y-56692401D01*
X140750000Y-56480192D01*
X140837900Y-56692401D01*
X141057599Y-56912100D01*
X141344649Y-57031000D01*
X141655351Y-57031000D01*
X141942401Y-56912100D01*
X142098501Y-56756000D01*
X149040409Y-56756000D01*
X150364001Y-58079593D01*
X150364000Y-60491166D01*
X150137505Y-60642505D01*
X149912949Y-60978578D01*
X149854000Y-61274936D01*
X149854000Y-62205065D01*
X149912950Y-62501423D01*
X150137506Y-62837495D01*
X150364000Y-62988834D01*
X150364001Y-66564538D01*
X150307599Y-66587900D01*
X150087900Y-66807599D01*
X149969000Y-67094649D01*
X149969000Y-67405351D01*
X150087900Y-67692401D01*
X150307599Y-67912100D01*
X150594649Y-68031000D01*
X150905351Y-68031000D01*
X151192401Y-67912100D01*
X151412100Y-67692401D01*
X151531000Y-67405351D01*
X151531000Y-67094649D01*
X151412100Y-66807599D01*
X151376000Y-66771499D01*
X151376000Y-62988834D01*
X151602495Y-62837495D01*
X151827051Y-62501423D01*
X151886000Y-62205064D01*
X151886000Y-61274936D01*
X152394000Y-61274936D01*
X152394000Y-62205065D01*
X152452950Y-62501423D01*
X152677506Y-62837495D01*
X152904000Y-62988834D01*
X152904001Y-65991498D01*
X152837900Y-66057599D01*
X152719000Y-66344649D01*
X152719000Y-66655351D01*
X152837900Y-66942401D01*
X153057599Y-67162100D01*
X153344649Y-67281000D01*
X153655351Y-67281000D01*
X153942401Y-67162100D01*
X154162100Y-66942401D01*
X154281000Y-66655351D01*
X154281000Y-66344649D01*
X154162100Y-66057599D01*
X153942401Y-65837900D01*
X153916000Y-65826964D01*
X153916000Y-62988834D01*
X154142495Y-62837495D01*
X154367051Y-62501423D01*
X154426000Y-62205064D01*
X154426000Y-61274936D01*
X154934000Y-61274936D01*
X154934000Y-62205065D01*
X154992950Y-62501423D01*
X155217506Y-62837495D01*
X155444000Y-62988834D01*
X155444001Y-65201498D01*
X155337900Y-65307599D01*
X155219000Y-65594649D01*
X155219000Y-65905351D01*
X155337900Y-66192401D01*
X155557599Y-66412100D01*
X155844649Y-66531000D01*
X156155351Y-66531000D01*
X156442401Y-66412100D01*
X156662100Y-66192401D01*
X156781000Y-65905351D01*
X156781000Y-65594649D01*
X156662100Y-65307599D01*
X156456000Y-65101499D01*
X156456000Y-62988834D01*
X156682495Y-62837495D01*
X156907051Y-62501423D01*
X156966000Y-62205064D01*
X156966000Y-61274936D01*
X157474000Y-61274936D01*
X157474000Y-62205065D01*
X157532950Y-62501423D01*
X157757506Y-62837495D01*
X157984000Y-62988834D01*
X157984001Y-64411498D01*
X157837900Y-64557599D01*
X157719000Y-64844649D01*
X157719000Y-65155351D01*
X157837900Y-65442401D01*
X158057599Y-65662100D01*
X158344649Y-65781000D01*
X158655351Y-65781000D01*
X158942401Y-65662100D01*
X159162100Y-65442401D01*
X159281000Y-65155351D01*
X159281000Y-64844649D01*
X159162100Y-64557599D01*
X158996000Y-64391499D01*
X158996000Y-62988834D01*
X159222495Y-62837495D01*
X159447051Y-62501423D01*
X159506000Y-62205064D01*
X159506000Y-61274936D01*
X160014000Y-61274936D01*
X160014000Y-62205065D01*
X160072950Y-62501423D01*
X160297506Y-62837495D01*
X160494001Y-62968788D01*
X160494000Y-63651499D01*
X160337900Y-63807599D01*
X160219000Y-64094649D01*
X160219000Y-64405351D01*
X160337900Y-64692401D01*
X160557599Y-64912100D01*
X160844649Y-65031000D01*
X161155351Y-65031000D01*
X161442401Y-64912100D01*
X161662100Y-64692401D01*
X161781000Y-64405351D01*
X161781000Y-64094649D01*
X161662100Y-63807599D01*
X161506000Y-63651499D01*
X161506000Y-63008879D01*
X161762495Y-62837495D01*
X161987051Y-62501423D01*
X162046000Y-62205064D01*
X162046000Y-61274936D01*
X162554000Y-61274936D01*
X162554000Y-62205065D01*
X162612950Y-62501423D01*
X162837506Y-62837495D01*
X163173578Y-63062051D01*
X163570000Y-63140904D01*
X163966423Y-63062051D01*
X164302495Y-62837495D01*
X164527051Y-62501423D01*
X164586000Y-62205064D01*
X164586000Y-61274936D01*
X165234000Y-61274936D01*
X165234000Y-62205065D01*
X165292950Y-62501423D01*
X165517506Y-62837495D01*
X165744001Y-62988834D01*
X165744000Y-68151499D01*
X165587900Y-68307599D01*
X165469000Y-68594649D01*
X165469000Y-68905351D01*
X165587900Y-69192401D01*
X165807599Y-69412100D01*
X166094649Y-69531000D01*
X166405351Y-69531000D01*
X166692401Y-69412100D01*
X166912100Y-69192401D01*
X167031000Y-68905351D01*
X167031000Y-68594649D01*
X166912100Y-68307599D01*
X166756000Y-68151499D01*
X166756000Y-62988834D01*
X166982495Y-62837495D01*
X167207051Y-62501423D01*
X167266000Y-62205064D01*
X167266000Y-61274936D01*
X167774000Y-61274936D01*
X167774000Y-62205065D01*
X167832950Y-62501423D01*
X168057506Y-62837495D01*
X168244001Y-62962107D01*
X168244000Y-67401499D01*
X168087900Y-67557599D01*
X167969000Y-67844649D01*
X167969000Y-68155351D01*
X168087900Y-68442401D01*
X168307599Y-68662100D01*
X168594649Y-68781000D01*
X168905351Y-68781000D01*
X169192401Y-68662100D01*
X169412100Y-68442401D01*
X169531000Y-68155351D01*
X169531000Y-67844649D01*
X169412100Y-67557599D01*
X169256000Y-67401499D01*
X169256000Y-63015561D01*
X169522495Y-62837495D01*
X169747051Y-62501423D01*
X169806000Y-62205064D01*
X169806000Y-61274936D01*
X170314000Y-61274936D01*
X170314000Y-62205065D01*
X170372950Y-62501423D01*
X170597506Y-62837495D01*
X170933578Y-63062051D01*
X171330000Y-63140904D01*
X171726423Y-63062051D01*
X172062495Y-62837495D01*
X172287051Y-62501423D01*
X172346000Y-62205064D01*
X172346000Y-61274936D01*
X172854000Y-61274936D01*
X172854000Y-62205065D01*
X172912950Y-62501423D01*
X173137506Y-62837495D01*
X173244001Y-62908653D01*
X173244000Y-66651499D01*
X173087900Y-66807599D01*
X172969000Y-67094649D01*
X172969000Y-67405351D01*
X173087900Y-67692401D01*
X173307599Y-67912100D01*
X173594649Y-68031000D01*
X173905351Y-68031000D01*
X174192401Y-67912100D01*
X174412100Y-67692401D01*
X174531000Y-67405351D01*
X174531000Y-67094649D01*
X174412100Y-66807599D01*
X174256000Y-66651499D01*
X174256000Y-63064124D01*
X174266423Y-63062051D01*
X174602495Y-62837495D01*
X174827051Y-62501423D01*
X174886000Y-62205064D01*
X174886000Y-61274936D01*
X175394000Y-61274936D01*
X175394000Y-62205065D01*
X175452950Y-62501423D01*
X175677506Y-62837495D01*
X175744001Y-62881925D01*
X175744000Y-65901499D01*
X175587900Y-66057599D01*
X175469000Y-66344649D01*
X175469000Y-66655351D01*
X175587900Y-66942401D01*
X175807599Y-67162100D01*
X176094649Y-67281000D01*
X176405351Y-67281000D01*
X176692401Y-67162100D01*
X176912100Y-66942401D01*
X177031000Y-66655351D01*
X177031000Y-66344649D01*
X176912100Y-66057599D01*
X176756000Y-65901499D01*
X176756000Y-63072081D01*
X176806423Y-63062051D01*
X177142495Y-62837495D01*
X177367051Y-62501423D01*
X177426000Y-62205064D01*
X177426000Y-61274936D01*
X177934000Y-61274936D01*
X177934000Y-62205065D01*
X177992950Y-62501423D01*
X178217506Y-62837495D01*
X178494001Y-63022243D01*
X178494000Y-65151499D01*
X178337900Y-65307599D01*
X178219000Y-65594649D01*
X178219000Y-65905351D01*
X178337900Y-66192401D01*
X178557599Y-66412100D01*
X178844649Y-66531000D01*
X179155351Y-66531000D01*
X179442401Y-66412100D01*
X179662100Y-66192401D01*
X179781000Y-65905351D01*
X179781000Y-65594649D01*
X179662100Y-65307599D01*
X179506000Y-65151499D01*
X179506000Y-62955425D01*
X179682495Y-62837495D01*
X179907051Y-62501423D01*
X179966000Y-62205064D01*
X179966000Y-61274936D01*
X180474000Y-61274936D01*
X180474000Y-62205065D01*
X180532950Y-62501423D01*
X180757506Y-62837495D01*
X180994001Y-62995516D01*
X180994000Y-64401499D01*
X180837900Y-64557599D01*
X180719000Y-64844649D01*
X180719000Y-65155351D01*
X180837900Y-65442401D01*
X181057599Y-65662100D01*
X181344649Y-65781000D01*
X181655351Y-65781000D01*
X181942401Y-65662100D01*
X182162100Y-65442401D01*
X182281000Y-65155351D01*
X182281000Y-64844649D01*
X182162100Y-64557599D01*
X182006000Y-64401499D01*
X182006000Y-62982152D01*
X182222495Y-62837495D01*
X182447051Y-62501423D01*
X182506000Y-62205064D01*
X182506000Y-61274936D01*
X183014000Y-61274936D01*
X183014000Y-62205065D01*
X183072950Y-62501423D01*
X183297506Y-62837495D01*
X183494001Y-62968788D01*
X183494000Y-63651499D01*
X183337900Y-63807599D01*
X183219000Y-64094649D01*
X183219000Y-64405351D01*
X183337900Y-64692401D01*
X183557599Y-64912100D01*
X183844649Y-65031000D01*
X184155351Y-65031000D01*
X184442401Y-64912100D01*
X184662100Y-64692401D01*
X184781000Y-64405351D01*
X184781000Y-64094649D01*
X184662100Y-63807599D01*
X184506000Y-63651499D01*
X184506000Y-63008879D01*
X184762495Y-62837495D01*
X184987051Y-62501423D01*
X185046000Y-62205064D01*
X185046000Y-61274936D01*
X185554000Y-61274936D01*
X185554000Y-62205065D01*
X185612950Y-62501423D01*
X185837506Y-62837495D01*
X186173578Y-63062051D01*
X186570000Y-63140904D01*
X186966423Y-63062051D01*
X187302495Y-62837495D01*
X187527051Y-62501423D01*
X187586000Y-62205064D01*
X187586000Y-61274935D01*
X187527051Y-60978577D01*
X187302495Y-60642505D01*
X186966422Y-60417949D01*
X186570000Y-60339096D01*
X186173577Y-60417949D01*
X185837505Y-60642505D01*
X185612949Y-60978578D01*
X185554000Y-61274936D01*
X185046000Y-61274936D01*
X185046000Y-61274935D01*
X184987051Y-60978577D01*
X184762495Y-60642505D01*
X184426422Y-60417949D01*
X184030000Y-60339096D01*
X183633577Y-60417949D01*
X183297505Y-60642505D01*
X183072949Y-60978578D01*
X183014000Y-61274936D01*
X182506000Y-61274936D01*
X182506000Y-61274935D01*
X182447051Y-60978577D01*
X182222495Y-60642505D01*
X181886422Y-60417949D01*
X181490000Y-60339096D01*
X181093577Y-60417949D01*
X180757505Y-60642505D01*
X180532949Y-60978578D01*
X180474000Y-61274936D01*
X179966000Y-61274936D01*
X179966000Y-61274935D01*
X179907051Y-60978577D01*
X179682495Y-60642505D01*
X179346422Y-60417949D01*
X178950000Y-60339096D01*
X178553577Y-60417949D01*
X178217505Y-60642505D01*
X177992949Y-60978578D01*
X177934000Y-61274936D01*
X177426000Y-61274936D01*
X177426000Y-61274935D01*
X177367051Y-60978577D01*
X177142495Y-60642505D01*
X176806422Y-60417949D01*
X176410000Y-60339096D01*
X176013577Y-60417949D01*
X175677505Y-60642505D01*
X175452949Y-60978578D01*
X175394000Y-61274936D01*
X174886000Y-61274936D01*
X174886000Y-61274935D01*
X174827051Y-60978577D01*
X174602495Y-60642505D01*
X174266422Y-60417949D01*
X173870000Y-60339096D01*
X173473577Y-60417949D01*
X173137505Y-60642505D01*
X172912949Y-60978578D01*
X172854000Y-61274936D01*
X172346000Y-61274936D01*
X172346000Y-61274935D01*
X172287051Y-60978577D01*
X172062495Y-60642505D01*
X171726422Y-60417949D01*
X171330000Y-60339096D01*
X170933577Y-60417949D01*
X170597505Y-60642505D01*
X170372949Y-60978578D01*
X170314000Y-61274936D01*
X169806000Y-61274936D01*
X169806000Y-61274935D01*
X169747051Y-60978577D01*
X169522495Y-60642505D01*
X169186422Y-60417949D01*
X168790000Y-60339096D01*
X168393577Y-60417949D01*
X168057505Y-60642505D01*
X167832949Y-60978578D01*
X167774000Y-61274936D01*
X167266000Y-61274936D01*
X167266000Y-61274935D01*
X167207051Y-60978577D01*
X166982495Y-60642505D01*
X166646422Y-60417949D01*
X166250000Y-60339096D01*
X165853577Y-60417949D01*
X165517505Y-60642505D01*
X165292949Y-60978578D01*
X165234000Y-61274936D01*
X164586000Y-61274936D01*
X164586000Y-61274935D01*
X164527051Y-60978577D01*
X164302495Y-60642505D01*
X163966422Y-60417949D01*
X163570000Y-60339096D01*
X163173577Y-60417949D01*
X162837505Y-60642505D01*
X162612949Y-60978578D01*
X162554000Y-61274936D01*
X162046000Y-61274936D01*
X162046000Y-61274935D01*
X161987051Y-60978577D01*
X161762495Y-60642505D01*
X161426422Y-60417949D01*
X161030000Y-60339096D01*
X160633577Y-60417949D01*
X160297505Y-60642505D01*
X160072949Y-60978578D01*
X160014000Y-61274936D01*
X159506000Y-61274936D01*
X159506000Y-61274935D01*
X159447051Y-60978577D01*
X159222495Y-60642505D01*
X159006000Y-60497848D01*
X159006000Y-56098501D01*
X159162100Y-55942401D01*
X159281000Y-55655351D01*
X159281000Y-55344649D01*
X159162100Y-55057599D01*
X158942401Y-54837900D01*
X158655351Y-54719000D01*
X158344649Y-54719000D01*
X158057599Y-54837900D01*
X157837900Y-55057599D01*
X157719000Y-55344649D01*
X157719000Y-55655351D01*
X157837900Y-55942401D01*
X157994000Y-56098501D01*
X157994001Y-60484484D01*
X157757505Y-60642505D01*
X157532949Y-60978578D01*
X157474000Y-61274936D01*
X156966000Y-61274936D01*
X156966000Y-61274935D01*
X156907051Y-60978577D01*
X156682495Y-60642505D01*
X156506000Y-60524575D01*
X156506000Y-55348501D01*
X156662100Y-55192401D01*
X156781000Y-54905351D01*
X156781000Y-54594649D01*
X156662100Y-54307599D01*
X156442401Y-54087900D01*
X156155351Y-53969000D01*
X155844649Y-53969000D01*
X155557599Y-54087900D01*
X155337900Y-54307599D01*
X155219000Y-54594649D01*
X155219000Y-54905351D01*
X155337900Y-55192401D01*
X155494000Y-55348501D01*
X155494001Y-60457757D01*
X155217505Y-60642505D01*
X154992949Y-60978578D01*
X154934000Y-61274936D01*
X154426000Y-61274936D01*
X154426000Y-61274935D01*
X154367051Y-60978577D01*
X154142495Y-60642505D01*
X153806422Y-60417949D01*
X153410000Y-60339096D01*
X153013577Y-60417949D01*
X152677505Y-60642505D01*
X152452949Y-60978578D01*
X152394000Y-61274936D01*
X151886000Y-61274936D01*
X151886000Y-61274935D01*
X151827051Y-60978577D01*
X151602495Y-60642505D01*
X151376000Y-60491166D01*
X151376000Y-57919834D01*
X151385913Y-57870000D01*
X151373500Y-57807599D01*
X151346641Y-57672569D01*
X151234806Y-57505194D01*
X151192555Y-57476963D01*
X149643039Y-55927447D01*
X149614806Y-55885194D01*
X149447431Y-55773359D01*
X149299835Y-55744000D01*
X149299834Y-55744000D01*
X149250000Y-55734087D01*
X149200166Y-55744000D01*
X142098501Y-55744000D01*
X141942401Y-55587900D01*
X141655351Y-55469000D01*
X141344649Y-55469000D01*
X141057599Y-55587900D01*
X140837900Y-55807599D01*
X140750000Y-56019808D01*
X140662100Y-55807599D01*
X140442401Y-55587900D01*
X140155351Y-55469000D01*
X139844649Y-55469000D01*
X139557599Y-55587900D01*
X139401499Y-55744000D01*
X133299835Y-55744000D01*
X133250000Y-55734087D01*
X133052569Y-55773359D01*
X133001325Y-55807599D01*
X132885194Y-55885194D01*
X132856965Y-55927442D01*
X130087447Y-58696961D01*
X130045194Y-58725194D01*
X129933359Y-58892570D01*
X129905823Y-59031000D01*
X129894087Y-59090000D01*
X129904000Y-59139834D01*
X129904001Y-60491166D01*
X129677505Y-60642505D01*
X129452949Y-60978578D01*
X129394000Y-61274936D01*
X128886000Y-61274936D01*
X128886000Y-61274935D01*
X128827051Y-60978577D01*
X128602495Y-60642505D01*
X128266422Y-60417949D01*
X127870000Y-60339096D01*
X127473577Y-60417949D01*
X127137505Y-60642505D01*
X126912949Y-60978578D01*
X126854000Y-61274936D01*
X126346000Y-61274936D01*
X126346000Y-61274935D01*
X126287051Y-60978577D01*
X126062495Y-60642505D01*
X125726422Y-60417949D01*
X125330000Y-60339096D01*
X124933577Y-60417949D01*
X124597505Y-60642505D01*
X124372949Y-60978578D01*
X124314000Y-61274936D01*
X123806000Y-61274936D01*
X123806000Y-61274935D01*
X123747051Y-60978577D01*
X123522495Y-60642505D01*
X123186422Y-60417949D01*
X122790000Y-60339096D01*
X122393577Y-60417949D01*
X122057505Y-60642505D01*
X121832949Y-60978578D01*
X121774000Y-61274936D01*
X121266000Y-61274936D01*
X121266000Y-61274935D01*
X121207051Y-60978577D01*
X120982495Y-60642505D01*
X120646422Y-60417949D01*
X120250000Y-60339096D01*
X119853577Y-60417949D01*
X119517505Y-60642505D01*
X119292949Y-60978578D01*
X119234000Y-61274936D01*
X118586000Y-61274936D01*
X118586000Y-61274935D01*
X118527051Y-60978577D01*
X118302495Y-60642505D01*
X117966422Y-60417949D01*
X117570000Y-60339096D01*
X117173577Y-60417949D01*
X116837505Y-60642505D01*
X116612949Y-60978578D01*
X116554000Y-61274936D01*
X116046000Y-61274936D01*
X116046000Y-61274935D01*
X115987051Y-60978577D01*
X115762495Y-60642505D01*
X115426422Y-60417949D01*
X115030000Y-60339096D01*
X114633577Y-60417949D01*
X114297505Y-60642505D01*
X114072949Y-60978578D01*
X114014000Y-61274936D01*
X113506000Y-61274936D01*
X113506000Y-61274935D01*
X113447051Y-60978577D01*
X113222495Y-60642505D01*
X112886422Y-60417949D01*
X112490000Y-60339096D01*
X112093577Y-60417949D01*
X111757505Y-60642505D01*
X111532949Y-60978578D01*
X111474000Y-61274936D01*
X110966000Y-61274936D01*
X110966000Y-61274935D01*
X110907051Y-60978577D01*
X110682495Y-60642505D01*
X110346422Y-60417949D01*
X109950000Y-60339096D01*
X109553577Y-60417949D01*
X109217505Y-60642505D01*
X108992949Y-60978578D01*
X108934000Y-61274936D01*
X108426000Y-61274936D01*
X108426000Y-61274935D01*
X108367051Y-60978577D01*
X108142495Y-60642505D01*
X107806422Y-60417949D01*
X107410000Y-60339096D01*
X107013577Y-60417949D01*
X106677505Y-60642505D01*
X106452949Y-60978578D01*
X106394000Y-61274936D01*
X105886000Y-61274936D01*
X105886000Y-61274935D01*
X105827051Y-60978577D01*
X105602495Y-60642505D01*
X105266422Y-60417949D01*
X104870000Y-60339096D01*
X104473577Y-60417949D01*
X104137505Y-60642505D01*
X103912949Y-60978578D01*
X103854000Y-61274936D01*
X103346000Y-61274936D01*
X103346000Y-61274935D01*
X103287051Y-60978577D01*
X103062495Y-60642505D01*
X102726422Y-60417949D01*
X102330000Y-60339096D01*
X101933577Y-60417949D01*
X101597505Y-60642505D01*
X101372949Y-60978578D01*
X101314000Y-61274936D01*
X100806000Y-61274936D01*
X100806000Y-61274935D01*
X100747051Y-60978577D01*
X100522495Y-60642505D01*
X100186422Y-60417949D01*
X99790000Y-60339096D01*
X99393577Y-60417949D01*
X99057505Y-60642505D01*
X98832949Y-60978578D01*
X98774000Y-61274936D01*
X98266000Y-61274936D01*
X98266000Y-61274935D01*
X98207051Y-60978577D01*
X97982495Y-60642505D01*
X97646422Y-60417949D01*
X97250000Y-60339096D01*
X96853577Y-60417949D01*
X96517505Y-60642505D01*
X96292949Y-60978578D01*
X96234000Y-61274936D01*
X95456000Y-61274936D01*
X95456000Y-46326193D01*
X96288422Y-45761335D01*
X96234000Y-46034936D01*
X96234000Y-46965065D01*
X96292950Y-47261423D01*
X96517506Y-47597495D01*
X96853578Y-47822051D01*
X97250000Y-47900904D01*
X97646423Y-47822051D01*
X97982495Y-47597495D01*
X98207051Y-47261423D01*
X98266000Y-46965064D01*
X98266000Y-46034935D01*
X98207051Y-45738577D01*
X97982495Y-45402505D01*
X97646422Y-45177949D01*
X97261100Y-45101304D01*
X100571311Y-42855089D01*
X100617333Y-42798601D01*
X100627000Y-42750000D01*
X100627000Y-41842630D01*
X100644000Y-41853989D01*
X100644001Y-45584351D01*
X100522495Y-45402505D01*
X100186422Y-45177949D01*
X99790000Y-45099096D01*
X99393577Y-45177949D01*
X99057505Y-45402505D01*
X98832949Y-45738578D01*
X98774000Y-46034936D01*
X98774000Y-46965065D01*
X98832950Y-47261423D01*
X99057506Y-47597495D01*
X99393578Y-47822051D01*
X99790000Y-47900904D01*
X100186423Y-47822051D01*
X100522495Y-47597495D01*
X100644001Y-47415649D01*
X100644001Y-50200161D01*
X100634087Y-50250000D01*
X100663414Y-50397430D01*
X100673360Y-50447431D01*
X100785195Y-50614806D01*
X100827446Y-50643037D01*
X102919000Y-52734592D01*
X102919000Y-52955351D01*
X103037900Y-53242401D01*
X103257599Y-53462100D01*
X103544649Y-53581000D01*
X103855351Y-53581000D01*
X104142401Y-53462100D01*
X104362100Y-53242401D01*
X104481000Y-52955351D01*
X104481000Y-52644649D01*
X104362100Y-52357599D01*
X104142401Y-52137900D01*
X103855351Y-52019000D01*
X103634592Y-52019000D01*
X101656000Y-50040409D01*
X101656000Y-47636579D01*
X101933578Y-47822051D01*
X102330000Y-47900904D01*
X102726423Y-47822051D01*
X103062495Y-47597495D01*
X103094000Y-47550344D01*
X103094000Y-50150166D01*
X103084087Y-50200000D01*
X103094000Y-50249834D01*
X103123359Y-50397430D01*
X103235194Y-50564806D01*
X103277448Y-50593039D01*
X105794001Y-53109593D01*
X105794001Y-53201498D01*
X105637900Y-53357599D01*
X105519000Y-53644649D01*
X105519000Y-53955351D01*
X105637900Y-54242401D01*
X105857599Y-54462100D01*
X106144649Y-54581000D01*
X106455351Y-54581000D01*
X106742401Y-54462100D01*
X106962100Y-54242401D01*
X107081000Y-53955351D01*
X107081000Y-53644649D01*
X106962100Y-53357599D01*
X106806000Y-53201499D01*
X106806000Y-52949835D01*
X106815913Y-52900000D01*
X106776641Y-52702568D01*
X106718000Y-52614806D01*
X106664806Y-52535194D01*
X106622555Y-52506963D01*
X104106000Y-49990409D01*
X104106000Y-49094649D01*
X131719000Y-49094649D01*
X131719000Y-49405351D01*
X131837900Y-49692401D01*
X132057599Y-49912100D01*
X132344649Y-50031000D01*
X132655351Y-50031000D01*
X132768529Y-49984120D01*
X134219000Y-51434593D01*
X134219000Y-51655351D01*
X134337900Y-51942401D01*
X134557599Y-52162100D01*
X134844649Y-52281000D01*
X135155351Y-52281000D01*
X135442401Y-52162100D01*
X135459852Y-52144649D01*
X141719000Y-52144649D01*
X141719000Y-52455351D01*
X141837900Y-52742401D01*
X142057599Y-52962100D01*
X142344649Y-53081000D01*
X142655351Y-53081000D01*
X142942401Y-52962100D01*
X143162100Y-52742401D01*
X143281000Y-52455351D01*
X143281000Y-52234591D01*
X147789686Y-47725906D01*
X147933578Y-47822051D01*
X148330000Y-47900904D01*
X148726423Y-47822051D01*
X149062495Y-47597495D01*
X149287051Y-47261423D01*
X149346000Y-46965064D01*
X149346000Y-46034936D01*
X149854000Y-46034936D01*
X149854000Y-46965065D01*
X149912950Y-47261423D01*
X150137506Y-47597495D01*
X150473578Y-47822051D01*
X150870000Y-47900904D01*
X151266423Y-47822051D01*
X151602495Y-47597495D01*
X151827051Y-47261423D01*
X151886000Y-46965064D01*
X151886000Y-46034936D01*
X152394000Y-46034936D01*
X152394000Y-46965065D01*
X152452950Y-47261423D01*
X152677506Y-47597495D01*
X153013578Y-47822051D01*
X153410000Y-47900904D01*
X153806423Y-47822051D01*
X154142495Y-47597495D01*
X154367051Y-47261423D01*
X154426000Y-46965064D01*
X154426000Y-46034936D01*
X154934000Y-46034936D01*
X154934000Y-46965065D01*
X154992950Y-47261423D01*
X155217506Y-47597495D01*
X155553578Y-47822051D01*
X155950000Y-47900904D01*
X156346423Y-47822051D01*
X156682495Y-47597495D01*
X156907051Y-47261423D01*
X156966000Y-46965064D01*
X156966000Y-46034936D01*
X157474000Y-46034936D01*
X157474000Y-46965065D01*
X157532950Y-47261423D01*
X157757506Y-47597495D01*
X158093578Y-47822051D01*
X158490000Y-47900904D01*
X158886423Y-47822051D01*
X159222495Y-47597495D01*
X159447051Y-47261423D01*
X159506000Y-46965064D01*
X159506000Y-46034936D01*
X160014000Y-46034936D01*
X160014000Y-46965065D01*
X160072950Y-47261423D01*
X160297506Y-47597495D01*
X160494001Y-47728789D01*
X160494000Y-52401499D01*
X160337900Y-52557599D01*
X160219000Y-52844649D01*
X160219000Y-53155351D01*
X160337900Y-53442401D01*
X160557599Y-53662100D01*
X160844649Y-53781000D01*
X161155351Y-53781000D01*
X161442401Y-53662100D01*
X161662100Y-53442401D01*
X161781000Y-53155351D01*
X161781000Y-52844649D01*
X161662100Y-52557599D01*
X161506000Y-52401499D01*
X161506000Y-47768879D01*
X161762495Y-47597495D01*
X161987051Y-47261423D01*
X162046000Y-46965064D01*
X162046000Y-46034936D01*
X162554000Y-46034936D01*
X162554000Y-46965065D01*
X162612950Y-47261423D01*
X162837506Y-47597495D01*
X163173578Y-47822051D01*
X163570000Y-47900904D01*
X163966423Y-47822051D01*
X164302495Y-47597495D01*
X164527051Y-47261423D01*
X164586000Y-46965064D01*
X164586000Y-46034936D01*
X165234000Y-46034936D01*
X165234000Y-46965065D01*
X165292950Y-47261423D01*
X165517506Y-47597495D01*
X165853578Y-47822051D01*
X166250000Y-47900904D01*
X166646423Y-47822051D01*
X166982495Y-47597495D01*
X167207051Y-47261423D01*
X167266000Y-46965064D01*
X167266000Y-46034935D01*
X167207051Y-45738577D01*
X166982495Y-45402505D01*
X166756000Y-45251166D01*
X166756000Y-40848501D01*
X166759852Y-40844649D01*
X167719000Y-40844649D01*
X167719000Y-41155351D01*
X167837900Y-41442401D01*
X167994000Y-41598501D01*
X167994001Y-45497546D01*
X167832949Y-45738578D01*
X167774000Y-46034936D01*
X167774000Y-46965065D01*
X167832950Y-47261423D01*
X168057506Y-47597495D01*
X168393578Y-47822051D01*
X168790000Y-47900904D01*
X169186423Y-47822051D01*
X169522495Y-47597495D01*
X169747051Y-47261423D01*
X169806000Y-46965064D01*
X169806000Y-46034936D01*
X170314000Y-46034936D01*
X170314000Y-46965065D01*
X170372950Y-47261423D01*
X170597506Y-47597495D01*
X170744001Y-47695380D01*
X170744000Y-51651499D01*
X170587900Y-51807599D01*
X170469000Y-52094649D01*
X170469000Y-52405351D01*
X170587900Y-52692401D01*
X170807599Y-52912100D01*
X171094649Y-53031000D01*
X171405351Y-53031000D01*
X171692401Y-52912100D01*
X171912100Y-52692401D01*
X172031000Y-52405351D01*
X172031000Y-52094649D01*
X171912100Y-51807599D01*
X171756000Y-51651499D01*
X171756000Y-47802288D01*
X172062495Y-47597495D01*
X172287051Y-47261423D01*
X172346000Y-46965064D01*
X172346000Y-46034936D01*
X172854000Y-46034936D01*
X172854000Y-46965065D01*
X172912950Y-47261423D01*
X173137506Y-47597495D01*
X173473578Y-47822051D01*
X173870000Y-47900904D01*
X174266423Y-47822051D01*
X174602495Y-47597495D01*
X174827051Y-47261423D01*
X174886000Y-46965064D01*
X174886000Y-46034936D01*
X175394000Y-46034936D01*
X175394000Y-46965065D01*
X175452950Y-47261423D01*
X175677506Y-47597495D01*
X176013578Y-47822051D01*
X176410000Y-47900904D01*
X176806423Y-47822051D01*
X177142495Y-47597495D01*
X177367051Y-47261423D01*
X177426000Y-46965064D01*
X177426000Y-46034936D01*
X177934000Y-46034936D01*
X177934000Y-46965065D01*
X177992950Y-47261423D01*
X178217506Y-47597495D01*
X178494001Y-47782243D01*
X178494000Y-55651499D01*
X178337900Y-55807599D01*
X178219000Y-56094649D01*
X178219000Y-56405351D01*
X178337900Y-56692401D01*
X178557599Y-56912100D01*
X178844649Y-57031000D01*
X179155351Y-57031000D01*
X179442401Y-56912100D01*
X179662100Y-56692401D01*
X179781000Y-56405351D01*
X179781000Y-56094649D01*
X179662100Y-55807599D01*
X179506000Y-55651499D01*
X179506000Y-47715425D01*
X179682495Y-47597495D01*
X179907051Y-47261423D01*
X179966000Y-46965064D01*
X179966000Y-46034936D01*
X180474000Y-46034936D01*
X180474000Y-46965065D01*
X180532950Y-47261423D01*
X180757506Y-47597495D01*
X180994001Y-47755516D01*
X180994000Y-56401499D01*
X180837900Y-56557599D01*
X180719000Y-56844649D01*
X180719000Y-57155351D01*
X180837900Y-57442401D01*
X181057599Y-57662100D01*
X181344649Y-57781000D01*
X181655351Y-57781000D01*
X181942401Y-57662100D01*
X182162100Y-57442401D01*
X182281000Y-57155351D01*
X182281000Y-56844649D01*
X182162100Y-56557599D01*
X182006000Y-56401499D01*
X182006000Y-47742152D01*
X182222495Y-47597495D01*
X182447051Y-47261423D01*
X182506000Y-46965064D01*
X182506000Y-46034936D01*
X183014000Y-46034936D01*
X183014000Y-46965065D01*
X183072950Y-47261423D01*
X183297506Y-47597495D01*
X183633578Y-47822051D01*
X184030000Y-47900904D01*
X184426423Y-47822051D01*
X184762495Y-47597495D01*
X184987051Y-47261423D01*
X185046000Y-46965064D01*
X185046000Y-46034936D01*
X185554000Y-46034936D01*
X185554000Y-46965065D01*
X185612950Y-47261423D01*
X185837506Y-47597495D01*
X185994001Y-47702061D01*
X185994000Y-57651499D01*
X185837900Y-57807599D01*
X185719000Y-58094649D01*
X185719000Y-58405351D01*
X185837900Y-58692401D01*
X186057599Y-58912100D01*
X186344649Y-59031000D01*
X186655351Y-59031000D01*
X186942401Y-58912100D01*
X187162100Y-58692401D01*
X187281000Y-58405351D01*
X187281000Y-58094649D01*
X187162100Y-57807599D01*
X187006000Y-57651499D01*
X187006000Y-47795607D01*
X187302495Y-47597495D01*
X187527051Y-47261423D01*
X187586000Y-46965064D01*
X187586000Y-46034935D01*
X187527051Y-45738577D01*
X187302495Y-45402505D01*
X186966422Y-45177949D01*
X186570000Y-45099096D01*
X186173577Y-45177949D01*
X185837505Y-45402505D01*
X185612949Y-45738578D01*
X185554000Y-46034936D01*
X185046000Y-46034936D01*
X185046000Y-46034935D01*
X184987051Y-45738577D01*
X184762495Y-45402505D01*
X184426422Y-45177949D01*
X184030000Y-45099096D01*
X183633577Y-45177949D01*
X183297505Y-45402505D01*
X183072949Y-45738578D01*
X183014000Y-46034936D01*
X182506000Y-46034936D01*
X182506000Y-46034935D01*
X182447051Y-45738577D01*
X182222495Y-45402505D01*
X182006000Y-45257848D01*
X182006000Y-44598501D01*
X182162100Y-44442401D01*
X182281000Y-44155351D01*
X182281000Y-43844649D01*
X182162100Y-43557599D01*
X181942401Y-43337900D01*
X181655351Y-43219000D01*
X181344649Y-43219000D01*
X181057599Y-43337900D01*
X180837900Y-43557599D01*
X180719000Y-43844649D01*
X180719000Y-44155351D01*
X180837900Y-44442401D01*
X180994000Y-44598501D01*
X180994000Y-45244484D01*
X180757505Y-45402505D01*
X180532949Y-45738578D01*
X180474000Y-46034936D01*
X179966000Y-46034936D01*
X179966000Y-46034935D01*
X179907051Y-45738577D01*
X179682495Y-45402505D01*
X179506000Y-45284575D01*
X179506000Y-43848501D01*
X179662100Y-43692401D01*
X179781000Y-43405351D01*
X179781000Y-43094649D01*
X179662100Y-42807599D01*
X179442401Y-42587900D01*
X179155351Y-42469000D01*
X178844649Y-42469000D01*
X178557599Y-42587900D01*
X178337900Y-42807599D01*
X178219000Y-43094649D01*
X178219000Y-43405351D01*
X178337900Y-43692401D01*
X178494000Y-43848501D01*
X178494001Y-45217757D01*
X178217505Y-45402505D01*
X177992949Y-45738578D01*
X177934000Y-46034936D01*
X177426000Y-46034936D01*
X177426000Y-46034935D01*
X177367051Y-45738577D01*
X177142495Y-45402505D01*
X176806422Y-45177949D01*
X176756000Y-45167919D01*
X176756000Y-43098501D01*
X176912100Y-42942401D01*
X177031000Y-42655351D01*
X177031000Y-42344649D01*
X176912100Y-42057599D01*
X176692401Y-41837900D01*
X176405351Y-41719000D01*
X176094649Y-41719000D01*
X175807599Y-41837900D01*
X175587900Y-42057599D01*
X175469000Y-42344649D01*
X175469000Y-42655351D01*
X175587900Y-42942401D01*
X175744000Y-43098501D01*
X175744001Y-45358074D01*
X175677505Y-45402505D01*
X175452949Y-45738578D01*
X175394000Y-46034936D01*
X174886000Y-46034936D01*
X174886000Y-46034935D01*
X174827051Y-45738577D01*
X174602495Y-45402505D01*
X174266422Y-45177949D01*
X174256000Y-45175876D01*
X174256000Y-42348501D01*
X174412100Y-42192401D01*
X174531000Y-41905351D01*
X174531000Y-41594649D01*
X174412100Y-41307599D01*
X174192401Y-41087900D01*
X173905351Y-40969000D01*
X173594649Y-40969000D01*
X173307599Y-41087900D01*
X173087900Y-41307599D01*
X172969000Y-41594649D01*
X172969000Y-41905351D01*
X173087900Y-42192401D01*
X173244000Y-42348501D01*
X173244001Y-45331347D01*
X173137505Y-45402505D01*
X172912949Y-45738578D01*
X172854000Y-46034936D01*
X172346000Y-46034936D01*
X172346000Y-46034935D01*
X172287051Y-45738577D01*
X172062495Y-45402505D01*
X171726422Y-45177949D01*
X171330000Y-45099096D01*
X170933577Y-45177949D01*
X170597505Y-45402505D01*
X170372949Y-45738578D01*
X170314000Y-46034936D01*
X169806000Y-46034936D01*
X169806000Y-46034935D01*
X169747051Y-45738577D01*
X169522495Y-45402505D01*
X169186422Y-45177949D01*
X169006000Y-45142061D01*
X169006000Y-41598501D01*
X169162100Y-41442401D01*
X169281000Y-41155351D01*
X169281000Y-40844649D01*
X169162100Y-40557599D01*
X168942401Y-40337900D01*
X168655351Y-40219000D01*
X168344649Y-40219000D01*
X168057599Y-40337900D01*
X167837900Y-40557599D01*
X167719000Y-40844649D01*
X166759852Y-40844649D01*
X166912100Y-40692401D01*
X167031000Y-40405351D01*
X167031000Y-40094649D01*
X166912100Y-39807599D01*
X166692401Y-39587900D01*
X166405351Y-39469000D01*
X166094649Y-39469000D01*
X165807599Y-39587900D01*
X165587900Y-39807599D01*
X165469000Y-40094649D01*
X165469000Y-40405351D01*
X165587900Y-40692401D01*
X165744000Y-40848501D01*
X165744001Y-45251165D01*
X165517505Y-45402505D01*
X165292949Y-45738578D01*
X165234000Y-46034936D01*
X164586000Y-46034936D01*
X164586000Y-46034935D01*
X164527051Y-45738577D01*
X164302495Y-45402505D01*
X163966422Y-45177949D01*
X163570000Y-45099096D01*
X163173577Y-45177949D01*
X162837505Y-45402505D01*
X162612949Y-45738578D01*
X162554000Y-46034936D01*
X162046000Y-46034936D01*
X162046000Y-46034935D01*
X161987051Y-45738577D01*
X161762495Y-45402505D01*
X161426422Y-45177949D01*
X161030000Y-45099096D01*
X160633577Y-45177949D01*
X160297505Y-45402505D01*
X160072949Y-45738578D01*
X160014000Y-46034936D01*
X159506000Y-46034936D01*
X159506000Y-46034935D01*
X159447051Y-45738577D01*
X159222495Y-45402505D01*
X158996000Y-45251166D01*
X158996000Y-44608501D01*
X159162100Y-44442401D01*
X159281000Y-44155351D01*
X159281000Y-43844649D01*
X159162100Y-43557599D01*
X158942401Y-43337900D01*
X158655351Y-43219000D01*
X158344649Y-43219000D01*
X158057599Y-43337900D01*
X157837900Y-43557599D01*
X157719000Y-43844649D01*
X157719000Y-44155351D01*
X157837900Y-44442401D01*
X157984001Y-44588502D01*
X157984001Y-45251166D01*
X157757505Y-45402505D01*
X157532949Y-45738578D01*
X157474000Y-46034936D01*
X156966000Y-46034936D01*
X156966000Y-46034935D01*
X156907051Y-45738577D01*
X156682495Y-45402505D01*
X156456000Y-45251166D01*
X156456000Y-43898501D01*
X156662100Y-43692401D01*
X156781000Y-43405351D01*
X156781000Y-43094649D01*
X156662100Y-42807599D01*
X156442401Y-42587900D01*
X156155351Y-42469000D01*
X155844649Y-42469000D01*
X155557599Y-42587900D01*
X155337900Y-42807599D01*
X155219000Y-43094649D01*
X155219000Y-43405351D01*
X155337900Y-43692401D01*
X155444001Y-43798502D01*
X155444000Y-45251166D01*
X155217505Y-45402505D01*
X154992949Y-45738578D01*
X154934000Y-46034936D01*
X154426000Y-46034936D01*
X154426000Y-46034935D01*
X154367051Y-45738577D01*
X154142495Y-45402505D01*
X153916000Y-45251166D01*
X153916000Y-43173036D01*
X153942401Y-43162100D01*
X154162100Y-42942401D01*
X154281000Y-42655351D01*
X154281000Y-42344649D01*
X154162100Y-42057599D01*
X153942401Y-41837900D01*
X153655351Y-41719000D01*
X153344649Y-41719000D01*
X153057599Y-41837900D01*
X152837900Y-42057599D01*
X152719000Y-42344649D01*
X152719000Y-42655351D01*
X152837900Y-42942401D01*
X152904001Y-43008502D01*
X152904000Y-45251166D01*
X152677505Y-45402505D01*
X152452949Y-45738578D01*
X152394000Y-46034936D01*
X151886000Y-46034936D01*
X151886000Y-46034935D01*
X151827051Y-45738577D01*
X151602495Y-45402505D01*
X151376000Y-45251166D01*
X151376000Y-42228501D01*
X151412100Y-42192401D01*
X151531000Y-41905351D01*
X151531000Y-41594649D01*
X151412100Y-41307599D01*
X151192401Y-41087900D01*
X150905351Y-40969000D01*
X150594649Y-40969000D01*
X150307599Y-41087900D01*
X150087900Y-41307599D01*
X149969000Y-41594649D01*
X149969000Y-41905351D01*
X150087900Y-42192401D01*
X150307599Y-42412100D01*
X150364001Y-42435462D01*
X150364000Y-45251166D01*
X150137505Y-45402505D01*
X149912949Y-45738578D01*
X149854000Y-46034936D01*
X149346000Y-46034936D01*
X149346000Y-46034935D01*
X149287051Y-45738577D01*
X149062495Y-45402505D01*
X148726422Y-45177949D01*
X148330000Y-45099096D01*
X147933577Y-45177949D01*
X147597505Y-45402505D01*
X147372949Y-45738578D01*
X147314000Y-46034936D01*
X147314000Y-46770408D01*
X146594145Y-47490263D01*
X146747051Y-47261423D01*
X146806000Y-46965064D01*
X146806000Y-46034935D01*
X146747051Y-45738577D01*
X146522495Y-45402505D01*
X146296000Y-45251166D01*
X146296000Y-41558501D01*
X146412100Y-41442401D01*
X146531000Y-41155351D01*
X146531000Y-40844649D01*
X146412100Y-40557599D01*
X146192401Y-40337900D01*
X145905351Y-40219000D01*
X145594649Y-40219000D01*
X145307599Y-40337900D01*
X145087900Y-40557599D01*
X144969000Y-40844649D01*
X144969000Y-41155351D01*
X145087900Y-41442401D01*
X145284001Y-41638502D01*
X145284000Y-45251166D01*
X145057505Y-45402505D01*
X144832949Y-45738578D01*
X144774000Y-46034936D01*
X144774000Y-46965065D01*
X144832950Y-47261423D01*
X145057506Y-47597495D01*
X145393578Y-47822051D01*
X145790000Y-47900904D01*
X146186423Y-47822051D01*
X146415264Y-47669145D01*
X142565409Y-51519000D01*
X142344649Y-51519000D01*
X142057599Y-51637900D01*
X141837900Y-51857599D01*
X141719000Y-52144649D01*
X135459852Y-52144649D01*
X135662100Y-51942401D01*
X135781000Y-51655351D01*
X135781000Y-51344649D01*
X135662100Y-51057599D01*
X135442401Y-50837900D01*
X135155351Y-50719000D01*
X134934593Y-50719000D01*
X133260324Y-49044733D01*
X133162100Y-48807599D01*
X132942401Y-48587900D01*
X132655351Y-48469000D01*
X132344649Y-48469000D01*
X132057599Y-48587900D01*
X131837900Y-48807599D01*
X131719000Y-49094649D01*
X104106000Y-49094649D01*
X104106000Y-47550343D01*
X104137506Y-47597495D01*
X104473578Y-47822051D01*
X104870000Y-47900904D01*
X105266423Y-47822051D01*
X105602495Y-47597495D01*
X105827051Y-47261423D01*
X105886000Y-46965064D01*
X105886000Y-46034936D01*
X106394000Y-46034936D01*
X106394000Y-46965065D01*
X106452950Y-47261423D01*
X106677506Y-47597495D01*
X107013578Y-47822051D01*
X107410000Y-47900904D01*
X107806423Y-47822051D01*
X108142495Y-47597495D01*
X108367051Y-47261423D01*
X108426000Y-46965064D01*
X108426000Y-46034936D01*
X108934000Y-46034936D01*
X108934000Y-46965065D01*
X108992950Y-47261423D01*
X109217506Y-47597495D01*
X109553578Y-47822051D01*
X109950000Y-47900904D01*
X110346423Y-47822051D01*
X110682495Y-47597495D01*
X110907051Y-47261423D01*
X110966000Y-46965064D01*
X110966000Y-46034936D01*
X111474000Y-46034936D01*
X111474000Y-46965065D01*
X111532950Y-47261423D01*
X111757506Y-47597495D01*
X112093578Y-47822051D01*
X112490000Y-47900904D01*
X112886423Y-47822051D01*
X113222495Y-47597495D01*
X113447051Y-47261423D01*
X113506000Y-46965064D01*
X113506000Y-46034936D01*
X114014000Y-46034936D01*
X114014000Y-46965065D01*
X114072950Y-47261423D01*
X114297506Y-47597495D01*
X114633578Y-47822051D01*
X115030000Y-47900904D01*
X115426423Y-47822051D01*
X115762495Y-47597495D01*
X115987051Y-47261423D01*
X116046000Y-46965064D01*
X116046000Y-46034936D01*
X116554000Y-46034936D01*
X116554000Y-46965065D01*
X116612950Y-47261423D01*
X116837506Y-47597495D01*
X117173578Y-47822051D01*
X117570000Y-47900904D01*
X117966423Y-47822051D01*
X118302495Y-47597495D01*
X118527051Y-47261423D01*
X118586000Y-46965064D01*
X118586000Y-46034936D01*
X119234000Y-46034936D01*
X119234000Y-46965065D01*
X119292950Y-47261423D01*
X119517506Y-47597495D01*
X119853578Y-47822051D01*
X120250000Y-47900904D01*
X120646423Y-47822051D01*
X120982495Y-47597495D01*
X121207051Y-47261423D01*
X121266000Y-46965064D01*
X121266000Y-46034936D01*
X121774000Y-46034936D01*
X121774000Y-46965065D01*
X121832950Y-47261423D01*
X122057506Y-47597495D01*
X122393578Y-47822051D01*
X122790000Y-47900904D01*
X123186423Y-47822051D01*
X123522495Y-47597495D01*
X123747051Y-47261423D01*
X123806000Y-46965064D01*
X123806000Y-46034936D01*
X124314000Y-46034936D01*
X124314000Y-46965065D01*
X124372950Y-47261423D01*
X124597506Y-47597495D01*
X124933578Y-47822051D01*
X125330000Y-47900904D01*
X125726423Y-47822051D01*
X126062495Y-47597495D01*
X126287051Y-47261423D01*
X126346000Y-46965064D01*
X126346000Y-46034936D01*
X126854000Y-46034936D01*
X126854000Y-46965065D01*
X126912950Y-47261423D01*
X127137506Y-47597495D01*
X127473578Y-47822051D01*
X127870000Y-47900904D01*
X128266423Y-47822051D01*
X128602495Y-47597495D01*
X128827051Y-47261423D01*
X128886000Y-46965064D01*
X128886000Y-46034936D01*
X129394000Y-46034936D01*
X129394000Y-46965065D01*
X129452950Y-47261423D01*
X129677506Y-47597495D01*
X130013578Y-47822051D01*
X130410000Y-47900904D01*
X130806423Y-47822051D01*
X131142495Y-47597495D01*
X131367051Y-47261423D01*
X131426000Y-46965064D01*
X131426000Y-46034936D01*
X131934000Y-46034936D01*
X131934000Y-46965065D01*
X131992950Y-47261423D01*
X132217506Y-47597495D01*
X132553578Y-47822051D01*
X132950000Y-47900904D01*
X133346423Y-47822051D01*
X133682495Y-47597495D01*
X133907051Y-47261423D01*
X133966000Y-46965064D01*
X133966000Y-46034936D01*
X134474000Y-46034936D01*
X134474000Y-46965065D01*
X134532950Y-47261423D01*
X134757506Y-47597495D01*
X135093578Y-47822051D01*
X135490000Y-47900904D01*
X135886423Y-47822051D01*
X136222495Y-47597495D01*
X136447051Y-47261423D01*
X136506000Y-46965064D01*
X136506000Y-46034936D01*
X137014000Y-46034936D01*
X137014000Y-46965065D01*
X137072950Y-47261423D01*
X137297506Y-47597495D01*
X137633578Y-47822051D01*
X138030000Y-47900904D01*
X138426423Y-47822051D01*
X138762495Y-47597495D01*
X138987051Y-47261423D01*
X139046000Y-46965064D01*
X139046000Y-46034936D01*
X139554000Y-46034936D01*
X139554000Y-46965065D01*
X139612950Y-47261423D01*
X139837506Y-47597495D01*
X140173578Y-47822051D01*
X140570000Y-47900904D01*
X140966423Y-47822051D01*
X141302495Y-47597495D01*
X141527051Y-47261423D01*
X141586000Y-46965064D01*
X141586000Y-46034936D01*
X142234000Y-46034936D01*
X142234000Y-46965065D01*
X142292950Y-47261423D01*
X142517506Y-47597495D01*
X142853578Y-47822051D01*
X143250000Y-47900904D01*
X143646423Y-47822051D01*
X143982495Y-47597495D01*
X144207051Y-47261423D01*
X144266000Y-46965064D01*
X144266000Y-46034935D01*
X144207051Y-45738577D01*
X143982495Y-45402505D01*
X143756000Y-45251166D01*
X143756000Y-40848501D01*
X143912100Y-40692401D01*
X144031000Y-40405351D01*
X144031000Y-40094649D01*
X143912100Y-39807599D01*
X143692401Y-39587900D01*
X143405351Y-39469000D01*
X143094649Y-39469000D01*
X142807599Y-39587900D01*
X142587900Y-39807599D01*
X142469000Y-40094649D01*
X142469000Y-40405351D01*
X142587900Y-40692401D01*
X142744001Y-40848502D01*
X142744000Y-45251166D01*
X142517505Y-45402505D01*
X142292949Y-45738578D01*
X142234000Y-46034936D01*
X141586000Y-46034936D01*
X141586000Y-46034935D01*
X141527051Y-45738577D01*
X141302495Y-45402505D01*
X140966422Y-45177949D01*
X140570000Y-45099096D01*
X140173577Y-45177949D01*
X139837505Y-45402505D01*
X139612949Y-45738578D01*
X139554000Y-46034936D01*
X139046000Y-46034936D01*
X139046000Y-46034935D01*
X138987051Y-45738577D01*
X138762495Y-45402505D01*
X138426422Y-45177949D01*
X138030000Y-45099096D01*
X137633577Y-45177949D01*
X137297505Y-45402505D01*
X137072949Y-45738578D01*
X137014000Y-46034936D01*
X136506000Y-46034936D01*
X136506000Y-46034935D01*
X136447051Y-45738577D01*
X136222495Y-45402505D01*
X135996000Y-45251166D01*
X135996000Y-44608501D01*
X136162100Y-44442401D01*
X136281000Y-44155351D01*
X136281000Y-43844649D01*
X136162100Y-43557599D01*
X135942401Y-43337900D01*
X135655351Y-43219000D01*
X135344649Y-43219000D01*
X135057599Y-43337900D01*
X134837900Y-43557599D01*
X134719000Y-43844649D01*
X134719000Y-44155351D01*
X134837900Y-44442401D01*
X134984001Y-44588502D01*
X134984001Y-45251166D01*
X134757505Y-45402505D01*
X134532949Y-45738578D01*
X134474000Y-46034936D01*
X133966000Y-46034936D01*
X133966000Y-46034935D01*
X133907051Y-45738577D01*
X133682495Y-45402505D01*
X133456000Y-45251166D01*
X133456000Y-43898501D01*
X133662100Y-43692401D01*
X133781000Y-43405351D01*
X133781000Y-43094649D01*
X133662100Y-42807599D01*
X133442401Y-42587900D01*
X133155351Y-42469000D01*
X132844649Y-42469000D01*
X132557599Y-42587900D01*
X132337900Y-42807599D01*
X132219000Y-43094649D01*
X132219000Y-43405351D01*
X132337900Y-43692401D01*
X132444001Y-43798502D01*
X132444000Y-45251166D01*
X132217505Y-45402505D01*
X131992949Y-45738578D01*
X131934000Y-46034936D01*
X131426000Y-46034936D01*
X131426000Y-46034935D01*
X131367051Y-45738577D01*
X131142495Y-45402505D01*
X130916000Y-45251166D01*
X130916000Y-43173036D01*
X130942401Y-43162100D01*
X131162100Y-42942401D01*
X131281000Y-42655351D01*
X131281000Y-42344649D01*
X131162100Y-42057599D01*
X130942401Y-41837900D01*
X130655351Y-41719000D01*
X130344649Y-41719000D01*
X130057599Y-41837900D01*
X129837900Y-42057599D01*
X129719000Y-42344649D01*
X129719000Y-42655351D01*
X129837900Y-42942401D01*
X129904001Y-43008502D01*
X129904000Y-45251166D01*
X129677505Y-45402505D01*
X129452949Y-45738578D01*
X129394000Y-46034936D01*
X128886000Y-46034936D01*
X128886000Y-46034935D01*
X128827051Y-45738577D01*
X128602495Y-45402505D01*
X128376000Y-45251166D01*
X128376000Y-42439604D01*
X128442401Y-42412100D01*
X128662100Y-42192401D01*
X128781000Y-41905351D01*
X128781000Y-41594649D01*
X128662100Y-41307599D01*
X128442401Y-41087900D01*
X128155351Y-40969000D01*
X127844649Y-40969000D01*
X127557599Y-41087900D01*
X127337900Y-41307599D01*
X127219000Y-41594649D01*
X127219000Y-41905351D01*
X127337900Y-42192401D01*
X127364001Y-42218502D01*
X127364000Y-45251166D01*
X127137505Y-45402505D01*
X126912949Y-45738578D01*
X126854000Y-46034936D01*
X126346000Y-46034936D01*
X126346000Y-46034935D01*
X126287051Y-45738577D01*
X126062495Y-45402505D01*
X125726422Y-45177949D01*
X125330000Y-45099096D01*
X124933577Y-45177949D01*
X124597505Y-45402505D01*
X124372949Y-45738578D01*
X124314000Y-46034936D01*
X123806000Y-46034936D01*
X123806000Y-46034935D01*
X123747051Y-45738577D01*
X123522495Y-45402505D01*
X123296000Y-45251166D01*
X123296000Y-41558501D01*
X123412100Y-41442401D01*
X123531000Y-41155351D01*
X123531000Y-40844649D01*
X123412100Y-40557599D01*
X123192401Y-40337900D01*
X122905351Y-40219000D01*
X122594649Y-40219000D01*
X122307599Y-40337900D01*
X122087900Y-40557599D01*
X121969000Y-40844649D01*
X121969000Y-41155351D01*
X122087900Y-41442401D01*
X122284001Y-41638502D01*
X122284000Y-45251166D01*
X122057505Y-45402505D01*
X121832949Y-45738578D01*
X121774000Y-46034936D01*
X121266000Y-46034936D01*
X121266000Y-46034935D01*
X121207051Y-45738577D01*
X120982495Y-45402505D01*
X120756000Y-45251166D01*
X120756000Y-40848501D01*
X120912100Y-40692401D01*
X121031000Y-40405351D01*
X121031000Y-40094649D01*
X120912100Y-39807599D01*
X120692401Y-39587900D01*
X120405351Y-39469000D01*
X120094649Y-39469000D01*
X119807599Y-39587900D01*
X119587900Y-39807599D01*
X119469000Y-40094649D01*
X119469000Y-40405351D01*
X119587900Y-40692401D01*
X119744001Y-40848502D01*
X119744000Y-45251166D01*
X119517505Y-45402505D01*
X119292949Y-45738578D01*
X119234000Y-46034936D01*
X118586000Y-46034936D01*
X118586000Y-46034935D01*
X118527051Y-45738577D01*
X118302495Y-45402505D01*
X117966422Y-45177949D01*
X117570000Y-45099096D01*
X117173577Y-45177949D01*
X116837505Y-45402505D01*
X116612949Y-45738578D01*
X116554000Y-46034936D01*
X116046000Y-46034936D01*
X116046000Y-46034935D01*
X115987051Y-45738577D01*
X115762495Y-45402505D01*
X115426422Y-45177949D01*
X115030000Y-45099096D01*
X114633577Y-45177949D01*
X114297505Y-45402505D01*
X114072949Y-45738578D01*
X114014000Y-46034936D01*
X113506000Y-46034936D01*
X113506000Y-46034935D01*
X113447051Y-45738577D01*
X113222495Y-45402505D01*
X112886422Y-45177949D01*
X112490000Y-45099096D01*
X112093577Y-45177949D01*
X111757505Y-45402505D01*
X111532949Y-45738578D01*
X111474000Y-46034936D01*
X110966000Y-46034936D01*
X110966000Y-46034935D01*
X110907051Y-45738577D01*
X110682495Y-45402505D01*
X110346422Y-45177949D01*
X109950000Y-45099096D01*
X109553577Y-45177949D01*
X109217505Y-45402505D01*
X108992949Y-45738578D01*
X108934000Y-46034936D01*
X108426000Y-46034936D01*
X108426000Y-46034935D01*
X108367051Y-45738577D01*
X108142495Y-45402505D01*
X107806422Y-45177949D01*
X107410000Y-45099096D01*
X107013577Y-45177949D01*
X106677505Y-45402505D01*
X106452949Y-45738578D01*
X106394000Y-46034936D01*
X105886000Y-46034936D01*
X105886000Y-46034935D01*
X105827051Y-45738577D01*
X105602495Y-45402505D01*
X105266422Y-45177949D01*
X104870000Y-45099096D01*
X104473577Y-45177949D01*
X104137505Y-45402505D01*
X104106000Y-45449656D01*
X104106000Y-44849833D01*
X104115913Y-44799999D01*
X104105486Y-44747579D01*
X104076641Y-44602569D01*
X103964806Y-44435194D01*
X103922555Y-44406963D01*
X102756000Y-43240409D01*
X102756000Y-41853989D01*
X102800000Y-41824589D01*
X102851341Y-41858894D01*
X103000000Y-41888464D01*
X103700000Y-41888464D01*
X103848659Y-41858894D01*
X103900000Y-41824589D01*
X103951341Y-41858894D01*
X104100000Y-41888464D01*
X104800000Y-41888464D01*
X104948659Y-41858894D01*
X105000000Y-41824589D01*
X105051341Y-41858894D01*
X105200000Y-41888464D01*
X105900000Y-41888464D01*
X106048659Y-41858894D01*
X106100000Y-41824589D01*
X106151341Y-41858894D01*
X106300000Y-41888464D01*
X107000000Y-41888464D01*
X107148659Y-41858894D01*
X107200000Y-41824589D01*
X107251341Y-41858894D01*
X107400000Y-41888464D01*
X108100000Y-41888464D01*
X108248659Y-41858894D01*
X108300000Y-41824589D01*
X108351341Y-41858894D01*
X108500000Y-41888464D01*
X109200000Y-41888464D01*
X109348659Y-41858894D01*
X109474686Y-41774686D01*
X109558894Y-41648659D01*
X109588464Y-41500000D01*
X109588464Y-39500000D01*
X109558894Y-39351341D01*
X109474686Y-39225314D01*
X109348659Y-39141106D01*
X109200000Y-39111536D01*
X108500000Y-39111536D01*
X108366388Y-39138113D01*
X108462100Y-39042401D01*
X108581000Y-38755351D01*
X108581000Y-38444649D01*
X108462100Y-38157599D01*
X108242401Y-37937900D01*
X107955351Y-37819000D01*
X107644649Y-37819000D01*
X107481000Y-37886786D01*
X107481000Y-37744649D01*
X107362100Y-37457599D01*
X107142401Y-37237900D01*
X106855351Y-37119000D01*
X106581000Y-37119000D01*
X106581000Y-36844649D01*
X106462100Y-36557599D01*
X106242401Y-36337900D01*
X105955351Y-36219000D01*
X105644649Y-36219000D01*
X105481000Y-36286786D01*
X105481000Y-36044649D01*
X105362100Y-35757599D01*
X105142401Y-35537900D01*
X104855351Y-35419000D01*
X104544649Y-35419000D01*
X104281000Y-35528207D01*
X104281000Y-35344649D01*
X104162100Y-35057599D01*
X103942401Y-34837900D01*
X103655351Y-34719000D01*
X103344649Y-34719000D01*
X103057599Y-34837900D01*
X102837900Y-35057599D01*
X102719000Y-35344649D01*
X102719000Y-35655351D01*
X102837900Y-35942401D01*
X102844001Y-35948502D01*
X102844000Y-39146011D01*
X102800000Y-39175411D01*
X102748659Y-39141106D01*
X102600000Y-39111536D01*
X101900000Y-39111536D01*
X101751341Y-39141106D01*
X101700000Y-39175411D01*
X101648659Y-39141106D01*
X101500000Y-39111536D01*
X100800000Y-39111536D01*
X100651341Y-39141106D01*
X100627000Y-39157370D01*
X100627000Y-27342630D01*
X100651341Y-27358894D01*
X100800000Y-27388464D01*
X101500000Y-27388464D01*
X101648659Y-27358894D01*
X101700000Y-27324589D01*
X101751341Y-27358894D01*
X101900000Y-27388464D01*
X102600000Y-27388464D01*
X102748659Y-27358894D01*
X102800000Y-27324589D01*
X102842507Y-27352992D01*
X102737900Y-27457599D01*
X102619000Y-27744649D01*
X102619000Y-28055351D01*
X102737900Y-28342401D01*
X102957599Y-28562100D01*
X103244649Y-28681000D01*
X103555351Y-28681000D01*
X103842401Y-28562100D01*
X103950000Y-28454501D01*
X104057599Y-28562100D01*
X104344649Y-28681000D01*
X104655351Y-28681000D01*
X104942401Y-28562100D01*
X105162100Y-28342401D01*
X105281000Y-28055351D01*
X105281000Y-27744649D01*
X105162100Y-27457599D01*
X105066388Y-27361887D01*
X105200000Y-27388464D01*
X105900000Y-27388464D01*
X106048659Y-27358894D01*
X106100000Y-27324589D01*
X106151341Y-27358894D01*
X106300000Y-27388464D01*
X107000000Y-27388464D01*
X107018391Y-27384806D01*
X106919000Y-27624758D01*
X106919000Y-27975242D01*
X107053124Y-28299047D01*
X107104077Y-28350000D01*
X107053124Y-28400953D01*
X106919000Y-28724758D01*
X106919000Y-29075242D01*
X107053124Y-29399047D01*
X107300953Y-29646876D01*
X107624758Y-29781000D01*
X107975242Y-29781000D01*
X108299047Y-29646876D01*
X108546876Y-29399047D01*
X108681000Y-29075242D01*
X108681000Y-28914215D01*
X113169000Y-28914215D01*
X113169000Y-29137750D01*
X113264250Y-29233000D01*
X114623000Y-29233000D01*
X114623000Y-28704250D01*
X114527750Y-28609000D01*
X113474214Y-28609000D01*
X113334180Y-28667004D01*
X113227004Y-28774181D01*
X113169000Y-28914215D01*
X108681000Y-28914215D01*
X108681000Y-28724758D01*
X108546876Y-28400953D01*
X108495923Y-28350000D01*
X108546876Y-28299047D01*
X108681000Y-27975242D01*
X108681000Y-27624758D01*
X108580032Y-27381000D01*
X108627750Y-27381000D01*
X108723000Y-27285750D01*
X108723000Y-26127000D01*
X108977000Y-26127000D01*
X108977000Y-27285750D01*
X109072250Y-27381000D01*
X109275786Y-27381000D01*
X109415820Y-27322996D01*
X109522996Y-27215819D01*
X109581000Y-27075785D01*
X109581000Y-26222250D01*
X111184000Y-26222250D01*
X111184000Y-26575785D01*
X111242004Y-26715819D01*
X111349180Y-26822996D01*
X111489214Y-26881000D01*
X111677750Y-26881000D01*
X111773000Y-26785750D01*
X111773000Y-26127000D01*
X112027000Y-26127000D01*
X112027000Y-26785750D01*
X112122250Y-26881000D01*
X112310786Y-26881000D01*
X112450820Y-26822996D01*
X112557996Y-26715819D01*
X112616000Y-26575785D01*
X112616000Y-26222250D01*
X112520750Y-26127000D01*
X112027000Y-26127000D01*
X111773000Y-26127000D01*
X111279250Y-26127000D01*
X111184000Y-26222250D01*
X109581000Y-26222250D01*
X109485750Y-26127000D01*
X108977000Y-26127000D01*
X108723000Y-26127000D01*
X108703000Y-26127000D01*
X108703000Y-26000000D01*
X112751741Y-26000000D01*
X112820117Y-26343749D01*
X112927390Y-26504295D01*
X112956106Y-26648659D01*
X113040314Y-26774686D01*
X113166341Y-26858894D01*
X113315000Y-26888464D01*
X113985000Y-26888464D01*
X114022524Y-26881000D01*
X114975242Y-26881000D01*
X115056983Y-26847142D01*
X115143749Y-26829883D01*
X115217305Y-26780735D01*
X115299047Y-26746876D01*
X115361610Y-26684313D01*
X115435165Y-26635165D01*
X115484313Y-26561610D01*
X115546876Y-26499047D01*
X115580735Y-26417305D01*
X115629883Y-26343749D01*
X115647142Y-26256983D01*
X115681000Y-26175242D01*
X115681000Y-26086767D01*
X115698259Y-26000000D01*
X115681000Y-25913233D01*
X115681000Y-25824758D01*
X115647142Y-25743017D01*
X115629883Y-25656251D01*
X115580735Y-25582695D01*
X115546876Y-25500953D01*
X115484313Y-25438390D01*
X115435165Y-25364835D01*
X115361610Y-25315687D01*
X115299047Y-25253124D01*
X115217305Y-25219265D01*
X115143749Y-25170117D01*
X115056983Y-25152858D01*
X114975242Y-25119000D01*
X114022524Y-25119000D01*
X113985000Y-25111536D01*
X113315000Y-25111536D01*
X113166341Y-25141106D01*
X113040314Y-25225314D01*
X112956106Y-25351341D01*
X112927390Y-25495705D01*
X112820117Y-25656251D01*
X112751741Y-26000000D01*
X108703000Y-26000000D01*
X108703000Y-25873000D01*
X108723000Y-25873000D01*
X108723000Y-25853000D01*
X108977000Y-25853000D01*
X108977000Y-25873000D01*
X109485750Y-25873000D01*
X109581000Y-25777750D01*
X109581000Y-25424215D01*
X111184000Y-25424215D01*
X111184000Y-25777750D01*
X111279250Y-25873000D01*
X111773000Y-25873000D01*
X111773000Y-25214250D01*
X112027000Y-25214250D01*
X112027000Y-25873000D01*
X112520750Y-25873000D01*
X112616000Y-25777750D01*
X112616000Y-25424215D01*
X112557996Y-25284181D01*
X112450820Y-25177004D01*
X112310786Y-25119000D01*
X112122250Y-25119000D01*
X112027000Y-25214250D01*
X111773000Y-25214250D01*
X111677750Y-25119000D01*
X111489214Y-25119000D01*
X111349180Y-25177004D01*
X111242004Y-25284181D01*
X111184000Y-25424215D01*
X109581000Y-25424215D01*
X109581000Y-24924215D01*
X109573455Y-24906000D01*
X115090409Y-24906000D01*
X116294001Y-26109593D01*
X116294000Y-28824890D01*
X116272996Y-28774181D01*
X116165820Y-28667004D01*
X116025786Y-28609000D01*
X114972250Y-28609000D01*
X114877000Y-28704250D01*
X114877000Y-29233000D01*
X114897000Y-29233000D01*
X114897000Y-29487000D01*
X114877000Y-29487000D01*
X114877000Y-29507000D01*
X114623000Y-29507000D01*
X114623000Y-29487000D01*
X113264250Y-29487000D01*
X113169000Y-29582250D01*
X113169000Y-29805785D01*
X113227004Y-29945819D01*
X113271783Y-29990598D01*
X113191106Y-30111341D01*
X113161536Y-30260000D01*
X113161536Y-31000000D01*
X113191106Y-31148659D01*
X113268842Y-31265000D01*
X113266169Y-31269000D01*
X113112146Y-31269000D01*
X113049999Y-31256638D01*
X112987853Y-31269000D01*
X112987852Y-31269000D01*
X112803796Y-31305611D01*
X112595074Y-31445074D01*
X112559867Y-31497765D01*
X112547765Y-31509867D01*
X112495074Y-31545074D01*
X112373756Y-31726641D01*
X112355611Y-31753797D01*
X112306638Y-32000000D01*
X112319000Y-32062148D01*
X112319000Y-32119000D01*
X112224758Y-32119000D01*
X111900953Y-32253124D01*
X111653124Y-32500953D01*
X111519000Y-32824758D01*
X111519000Y-33175242D01*
X111653124Y-33499047D01*
X111900953Y-33746876D01*
X112224758Y-33881000D01*
X112319001Y-33881000D01*
X112319001Y-34277848D01*
X112306638Y-34340000D01*
X112355611Y-34586203D01*
X112402038Y-34655686D01*
X112495075Y-34794926D01*
X112547763Y-34830131D01*
X112559867Y-34842235D01*
X112595074Y-34894926D01*
X112803796Y-35034389D01*
X112987852Y-35071000D01*
X112987853Y-35071000D01*
X113049999Y-35083362D01*
X113112146Y-35071000D01*
X113266169Y-35071000D01*
X113275314Y-35084686D01*
X113401341Y-35168894D01*
X113550000Y-35198464D01*
X115950000Y-35198464D01*
X116098659Y-35168894D01*
X116224686Y-35084686D01*
X116308894Y-34958659D01*
X116338464Y-34810000D01*
X116338464Y-34070000D01*
X116308894Y-33921341D01*
X116231158Y-33805000D01*
X116308894Y-33688659D01*
X116338464Y-33540000D01*
X116338464Y-32800000D01*
X116308894Y-32651341D01*
X116231158Y-32535000D01*
X116308894Y-32418659D01*
X116338464Y-32270000D01*
X116338464Y-31530000D01*
X116308894Y-31381341D01*
X116231158Y-31265000D01*
X116308894Y-31148659D01*
X116338464Y-31000000D01*
X116338464Y-30450037D01*
X116435194Y-30594806D01*
X116477447Y-30623038D01*
X116806963Y-30952555D01*
X116835194Y-30994806D01*
X117002569Y-31106641D01*
X117086051Y-31123247D01*
X117091106Y-31148659D01*
X117168842Y-31265000D01*
X117091106Y-31381341D01*
X117061536Y-31530000D01*
X117061536Y-32270000D01*
X117091106Y-32418659D01*
X117168842Y-32535000D01*
X117091106Y-32651341D01*
X117061536Y-32800000D01*
X117061536Y-33540000D01*
X117091106Y-33688659D01*
X117168842Y-33805000D01*
X117091106Y-33921341D01*
X117061536Y-34070000D01*
X117061536Y-34810000D01*
X117091106Y-34958659D01*
X117175314Y-35084686D01*
X117301341Y-35168894D01*
X117450000Y-35198464D01*
X119850000Y-35198464D01*
X119998659Y-35168894D01*
X120124686Y-35084686D01*
X120208894Y-34958659D01*
X120238464Y-34810000D01*
X120238464Y-34656000D01*
X121201499Y-34656000D01*
X121357599Y-34812100D01*
X121644649Y-34931000D01*
X121955351Y-34931000D01*
X122242401Y-34812100D01*
X122398501Y-34656000D01*
X123511536Y-34656000D01*
X123511536Y-34700000D01*
X123541106Y-34848659D01*
X123625314Y-34974686D01*
X123751341Y-35058894D01*
X123900000Y-35088464D01*
X125700000Y-35088464D01*
X125848659Y-35058894D01*
X125974686Y-34974686D01*
X126058894Y-34848659D01*
X126088464Y-34700000D01*
X126088464Y-34656000D01*
X129711536Y-34656000D01*
X129711536Y-34700000D01*
X129741106Y-34848659D01*
X129825314Y-34974686D01*
X129951341Y-35058894D01*
X130100000Y-35088464D01*
X131900000Y-35088464D01*
X132048659Y-35058894D01*
X132174686Y-34974686D01*
X132211460Y-34919648D01*
X136593999Y-34919648D01*
X136593999Y-35230350D01*
X136712899Y-35517400D01*
X136932598Y-35737099D01*
X137219648Y-35855999D01*
X137319000Y-35855999D01*
X137319000Y-35955351D01*
X137437900Y-36242401D01*
X137657599Y-36462100D01*
X137944649Y-36581000D01*
X138255351Y-36581000D01*
X138542401Y-36462100D01*
X138698501Y-36306000D01*
X138950166Y-36306000D01*
X139000000Y-36315913D01*
X139049834Y-36306000D01*
X139049835Y-36306000D01*
X139197431Y-36276641D01*
X139269024Y-36228804D01*
X139309019Y-36268799D01*
X139435046Y-36353007D01*
X139436627Y-36353322D01*
X139436942Y-36354904D01*
X139521150Y-36480931D01*
X139563145Y-36522926D01*
X139523360Y-36582468D01*
X139484087Y-36779899D01*
X139494001Y-36829737D01*
X139494001Y-36901498D01*
X139337900Y-37057599D01*
X139219000Y-37344649D01*
X139219000Y-37655351D01*
X139337900Y-37942401D01*
X139557599Y-38162100D01*
X139844649Y-38281000D01*
X140155351Y-38281000D01*
X140442401Y-38162100D01*
X140662100Y-37942401D01*
X140781000Y-37655351D01*
X140781000Y-37344649D01*
X140767729Y-37312611D01*
X140848340Y-37258749D01*
X141894000Y-36213089D01*
X141894000Y-37631162D01*
X141849722Y-37697430D01*
X141823360Y-37736884D01*
X141789774Y-37905725D01*
X141637900Y-38057599D01*
X141519000Y-38344649D01*
X141519000Y-38655351D01*
X141637900Y-38942401D01*
X141857599Y-39162100D01*
X142144649Y-39281000D01*
X142455351Y-39281000D01*
X142742401Y-39162100D01*
X142962100Y-38942401D01*
X143081000Y-38655351D01*
X143081000Y-38344649D01*
X142962100Y-38057599D01*
X142886530Y-37982029D01*
X142906000Y-37884150D01*
X142906000Y-37884149D01*
X142915913Y-37834316D01*
X142906000Y-37784482D01*
X142906000Y-37065388D01*
X142937900Y-37142401D01*
X143157599Y-37362100D01*
X143444649Y-37481000D01*
X143755351Y-37481000D01*
X144042401Y-37362100D01*
X144262100Y-37142401D01*
X144381000Y-36855351D01*
X144381000Y-36744585D01*
X145496204Y-37859789D01*
X145622231Y-37943997D01*
X145770890Y-37973567D01*
X145919549Y-37943997D01*
X146045576Y-37859789D01*
X147459789Y-36445576D01*
X147543997Y-36319549D01*
X147550873Y-36284976D01*
X152579000Y-36284976D01*
X152579000Y-36715024D01*
X152743572Y-37112337D01*
X153047663Y-37416428D01*
X153444976Y-37581000D01*
X153875024Y-37581000D01*
X154272337Y-37416428D01*
X154392643Y-37296122D01*
X155583483Y-37296122D01*
X155659216Y-37460391D01*
X156067907Y-37594235D01*
X156496707Y-37561491D01*
X156740784Y-37460391D01*
X156816517Y-37296122D01*
X156200000Y-36679605D01*
X155583483Y-37296122D01*
X154392643Y-37296122D01*
X154576428Y-37112337D01*
X154741000Y-36715024D01*
X154741000Y-36636772D01*
X154829883Y-36503749D01*
X154856903Y-36367907D01*
X155105765Y-36367907D01*
X155138509Y-36796707D01*
X155239609Y-37040784D01*
X155403878Y-37116517D01*
X156020395Y-36500000D01*
X156379605Y-36500000D01*
X156996122Y-37116517D01*
X157160391Y-37040784D01*
X157264709Y-36722250D01*
X159719000Y-36722250D01*
X159719000Y-37125786D01*
X159777004Y-37265820D01*
X159884181Y-37372996D01*
X160024215Y-37431000D01*
X160777750Y-37431000D01*
X160873000Y-37335750D01*
X160873000Y-36627000D01*
X161127000Y-36627000D01*
X161127000Y-37335750D01*
X161222250Y-37431000D01*
X161975785Y-37431000D01*
X162115819Y-37372996D01*
X162222996Y-37265820D01*
X162281000Y-37125786D01*
X162281000Y-36722250D01*
X162185750Y-36627000D01*
X161127000Y-36627000D01*
X160873000Y-36627000D01*
X159814250Y-36627000D01*
X159719000Y-36722250D01*
X157264709Y-36722250D01*
X157294235Y-36632093D01*
X157261491Y-36203293D01*
X157160391Y-35959216D01*
X156996122Y-35883483D01*
X156379605Y-36500000D01*
X156020395Y-36500000D01*
X155403878Y-35883483D01*
X155239609Y-35959216D01*
X155105765Y-36367907D01*
X154856903Y-36367907D01*
X154881000Y-36246767D01*
X154898259Y-36160000D01*
X154881000Y-36073233D01*
X154881000Y-35703878D01*
X155583483Y-35703878D01*
X156200000Y-36320395D01*
X156816517Y-35703878D01*
X156740784Y-35539609D01*
X156332093Y-35405765D01*
X155903293Y-35438509D01*
X155659216Y-35539609D01*
X155583483Y-35703878D01*
X154881000Y-35703878D01*
X154881000Y-34022250D01*
X155034000Y-34022250D01*
X155034000Y-34375785D01*
X155092004Y-34515819D01*
X155199180Y-34622996D01*
X155339214Y-34681000D01*
X155527750Y-34681000D01*
X155623000Y-34585750D01*
X155623000Y-33927000D01*
X155877000Y-33927000D01*
X155877000Y-34585750D01*
X155972250Y-34681000D01*
X156160786Y-34681000D01*
X156300820Y-34622996D01*
X156373815Y-34550000D01*
X159711536Y-34550000D01*
X159711536Y-35650000D01*
X159741106Y-35798659D01*
X159746779Y-35807149D01*
X159719000Y-35874214D01*
X159719000Y-36277750D01*
X159814250Y-36373000D01*
X160873000Y-36373000D01*
X160873000Y-36353000D01*
X161127000Y-36353000D01*
X161127000Y-36373000D01*
X162185750Y-36373000D01*
X162281000Y-36277750D01*
X162281000Y-35874214D01*
X162253221Y-35807149D01*
X162258894Y-35798659D01*
X162288464Y-35650000D01*
X162288464Y-34550000D01*
X162258894Y-34401341D01*
X162174686Y-34275314D01*
X162048659Y-34191106D01*
X161900000Y-34161536D01*
X161881000Y-34161536D01*
X161881000Y-32165571D01*
X162147501Y-31987501D01*
X162419576Y-31580312D01*
X162515116Y-31100000D01*
X162419576Y-30619688D01*
X162172559Y-30250000D01*
X162561536Y-30250000D01*
X162561536Y-31950000D01*
X162591106Y-32098659D01*
X162675314Y-32224686D01*
X162801341Y-32308894D01*
X162950000Y-32338464D01*
X163119001Y-32338464D01*
X163119000Y-34161536D01*
X163100000Y-34161536D01*
X162951341Y-34191106D01*
X162825314Y-34275314D01*
X162741106Y-34401341D01*
X162711536Y-34550000D01*
X162711536Y-35650000D01*
X162741106Y-35798659D01*
X162742002Y-35800000D01*
X162741106Y-35801341D01*
X162711536Y-35950000D01*
X162711536Y-37050000D01*
X162741106Y-37198659D01*
X162825314Y-37324686D01*
X162951341Y-37408894D01*
X163100000Y-37438464D01*
X164900000Y-37438464D01*
X165048659Y-37408894D01*
X165090406Y-37381000D01*
X167553237Y-37381000D01*
X167640000Y-37398258D01*
X167726763Y-37381000D01*
X167726767Y-37381000D01*
X167983749Y-37329883D01*
X168275165Y-37135165D01*
X168324317Y-37061605D01*
X168807457Y-36578464D01*
X169650000Y-36578464D01*
X169798659Y-36548894D01*
X169924686Y-36464686D01*
X170008894Y-36338659D01*
X170032298Y-36221000D01*
X172367702Y-36221000D01*
X172391106Y-36338659D01*
X172475314Y-36464686D01*
X172601341Y-36548894D01*
X172750000Y-36578464D01*
X174450000Y-36578464D01*
X174598659Y-36548894D01*
X174671834Y-36500000D01*
X183411536Y-36500000D01*
X183411536Y-38000000D01*
X183441106Y-38148659D01*
X183525314Y-38274686D01*
X183651341Y-38358894D01*
X183800000Y-38388464D01*
X187200000Y-38388464D01*
X187348659Y-38358894D01*
X187474686Y-38274686D01*
X187558894Y-38148659D01*
X187588464Y-38000000D01*
X187588464Y-36500000D01*
X187558894Y-36351341D01*
X187474686Y-36225314D01*
X187348659Y-36141106D01*
X187200000Y-36111536D01*
X183800000Y-36111536D01*
X183651341Y-36141106D01*
X183525314Y-36225314D01*
X183441106Y-36351341D01*
X183411536Y-36500000D01*
X174671834Y-36500000D01*
X174724686Y-36464686D01*
X174808894Y-36338659D01*
X174838464Y-36190000D01*
X174838464Y-35781000D01*
X177962476Y-35781000D01*
X178000000Y-35788464D01*
X181500000Y-35788464D01*
X181648659Y-35758894D01*
X181774686Y-35674686D01*
X181858894Y-35548659D01*
X181888464Y-35400000D01*
X181888464Y-34400000D01*
X181858894Y-34251341D01*
X181774686Y-34125314D01*
X181648659Y-34041106D01*
X181500000Y-34011536D01*
X178000000Y-34011536D01*
X177962476Y-34019000D01*
X174126763Y-34019000D01*
X174040000Y-34001742D01*
X173953237Y-34019000D01*
X173953233Y-34019000D01*
X173696251Y-34070117D01*
X173649229Y-34101536D01*
X172750000Y-34101536D01*
X172601341Y-34131106D01*
X172475314Y-34215314D01*
X172391106Y-34341341D01*
X172367702Y-34459000D01*
X170032298Y-34459000D01*
X170008894Y-34341341D01*
X169924686Y-34215314D01*
X169798659Y-34131106D01*
X169650000Y-34101536D01*
X167950000Y-34101536D01*
X167801341Y-34131106D01*
X167675314Y-34215314D01*
X167591106Y-34341341D01*
X167561536Y-34490000D01*
X167561536Y-35332543D01*
X167275079Y-35619000D01*
X165288464Y-35619000D01*
X165288464Y-34550000D01*
X165258894Y-34401341D01*
X165174686Y-34275314D01*
X165048659Y-34191106D01*
X164900000Y-34161536D01*
X164881000Y-34161536D01*
X164881000Y-32800000D01*
X167544884Y-32800000D01*
X167640424Y-33280312D01*
X167912499Y-33687501D01*
X168319688Y-33959576D01*
X168678761Y-34031000D01*
X168921239Y-34031000D01*
X169280312Y-33959576D01*
X169687501Y-33687501D01*
X169691845Y-33681000D01*
X172708155Y-33681000D01*
X172712499Y-33687501D01*
X173119688Y-33959576D01*
X173478761Y-34031000D01*
X173721239Y-34031000D01*
X174080312Y-33959576D01*
X174347570Y-33781000D01*
X177962476Y-33781000D01*
X178000000Y-33788464D01*
X181500000Y-33788464D01*
X181648659Y-33758894D01*
X181774686Y-33674686D01*
X181858894Y-33548659D01*
X181888464Y-33400000D01*
X181888464Y-32400000D01*
X181858894Y-32251341D01*
X181774686Y-32125314D01*
X181648659Y-32041106D01*
X181500000Y-32011536D01*
X178000000Y-32011536D01*
X177962476Y-32019000D01*
X174558663Y-32019000D01*
X174487501Y-31912499D01*
X174080312Y-31640424D01*
X173721239Y-31569000D01*
X173478761Y-31569000D01*
X173119688Y-31640424D01*
X172712499Y-31912499D01*
X172708155Y-31919000D01*
X169691845Y-31919000D01*
X169687501Y-31912499D01*
X169280312Y-31640424D01*
X168921239Y-31569000D01*
X168678761Y-31569000D01*
X168319688Y-31640424D01*
X167912499Y-31912499D01*
X167640424Y-32319688D01*
X167544884Y-32800000D01*
X164881000Y-32800000D01*
X164881000Y-32253876D01*
X164924686Y-32224686D01*
X165008894Y-32098659D01*
X165038464Y-31950000D01*
X165038464Y-30250000D01*
X165008894Y-30101341D01*
X164924686Y-29975314D01*
X164798659Y-29891106D01*
X164650000Y-29861536D01*
X162950000Y-29861536D01*
X162801341Y-29891106D01*
X162675314Y-29975314D01*
X162591106Y-30101341D01*
X162561536Y-30250000D01*
X162172559Y-30250000D01*
X162147501Y-30212499D01*
X161740312Y-29940424D01*
X161381239Y-29869000D01*
X161138761Y-29869000D01*
X160779688Y-29940424D01*
X160372499Y-30212499D01*
X160100424Y-30619688D01*
X160004884Y-31100000D01*
X160100424Y-31580312D01*
X160119001Y-31608114D01*
X160119000Y-34161536D01*
X160100000Y-34161536D01*
X159951341Y-34191106D01*
X159825314Y-34275314D01*
X159741106Y-34401341D01*
X159711536Y-34550000D01*
X156373815Y-34550000D01*
X156407996Y-34515819D01*
X156466000Y-34375785D01*
X156466000Y-34022250D01*
X156370750Y-33927000D01*
X155877000Y-33927000D01*
X155623000Y-33927000D01*
X155129250Y-33927000D01*
X155034000Y-34022250D01*
X154881000Y-34022250D01*
X154881000Y-33224215D01*
X155034000Y-33224215D01*
X155034000Y-33577750D01*
X155129250Y-33673000D01*
X155623000Y-33673000D01*
X155623000Y-33014250D01*
X155877000Y-33014250D01*
X155877000Y-33673000D01*
X156370750Y-33673000D01*
X156466000Y-33577750D01*
X156466000Y-33224215D01*
X156407996Y-33084181D01*
X156300820Y-32977004D01*
X156160786Y-32919000D01*
X155972250Y-32919000D01*
X155877000Y-33014250D01*
X155623000Y-33014250D01*
X155527750Y-32919000D01*
X155339214Y-32919000D01*
X155199180Y-32977004D01*
X155092004Y-33084181D01*
X155034000Y-33224215D01*
X154881000Y-33224215D01*
X154881000Y-31822250D01*
X155034000Y-31822250D01*
X155034000Y-32175785D01*
X155092004Y-32315819D01*
X155199180Y-32422996D01*
X155339214Y-32481000D01*
X155527750Y-32481000D01*
X155623000Y-32385750D01*
X155623000Y-31727000D01*
X155877000Y-31727000D01*
X155877000Y-32385750D01*
X155972250Y-32481000D01*
X156160786Y-32481000D01*
X156300820Y-32422996D01*
X156407996Y-32315819D01*
X156466000Y-32175785D01*
X156466000Y-31822250D01*
X156370750Y-31727000D01*
X155877000Y-31727000D01*
X155623000Y-31727000D01*
X155129250Y-31727000D01*
X155034000Y-31822250D01*
X154881000Y-31822250D01*
X154881000Y-31513233D01*
X154829883Y-31256251D01*
X154722610Y-31095705D01*
X154708390Y-31024215D01*
X155034000Y-31024215D01*
X155034000Y-31377750D01*
X155129250Y-31473000D01*
X155623000Y-31473000D01*
X155623000Y-30814250D01*
X155877000Y-30814250D01*
X155877000Y-31473000D01*
X156370750Y-31473000D01*
X156466000Y-31377750D01*
X156466000Y-31024215D01*
X156407996Y-30884181D01*
X156300820Y-30777004D01*
X156160786Y-30719000D01*
X155972250Y-30719000D01*
X155877000Y-30814250D01*
X155623000Y-30814250D01*
X155527750Y-30719000D01*
X155339214Y-30719000D01*
X155199180Y-30777004D01*
X155092004Y-30884181D01*
X155034000Y-31024215D01*
X154708390Y-31024215D01*
X154693894Y-30951341D01*
X154609686Y-30825314D01*
X154483659Y-30741106D01*
X154335000Y-30711536D01*
X154049243Y-30711536D01*
X154000000Y-30701741D01*
X153950757Y-30711536D01*
X153665000Y-30711536D01*
X153516341Y-30741106D01*
X153390314Y-30825314D01*
X153306106Y-30951341D01*
X153277390Y-31095706D01*
X153170117Y-31256252D01*
X153119000Y-31513234D01*
X153119001Y-33713229D01*
X153119000Y-33713234D01*
X153119001Y-35554023D01*
X153047663Y-35583572D01*
X152743572Y-35887663D01*
X152579000Y-36284976D01*
X147550873Y-36284976D01*
X147573567Y-36170890D01*
X147543997Y-36022231D01*
X147459789Y-35896204D01*
X146116286Y-34552701D01*
X145990259Y-34468493D01*
X145841600Y-34438923D01*
X145692941Y-34468493D01*
X145566914Y-34552701D01*
X144505999Y-35613616D01*
X144505999Y-35609592D01*
X145863636Y-34251956D01*
X145905886Y-34223726D01*
X146008523Y-34070117D01*
X146017721Y-34056352D01*
X146056993Y-33858920D01*
X146047080Y-33809085D01*
X146047080Y-32060009D01*
X146858749Y-31248340D01*
X146942957Y-31122313D01*
X146972527Y-30973654D01*
X146942957Y-30824995D01*
X146858749Y-30698968D01*
X146080931Y-29921150D01*
X145954904Y-29836942D01*
X145953322Y-29836627D01*
X145953007Y-29835046D01*
X145929591Y-29800000D01*
X183411536Y-29800000D01*
X183411536Y-31300000D01*
X183441106Y-31448659D01*
X183525314Y-31574686D01*
X183651341Y-31658894D01*
X183800000Y-31688464D01*
X187200000Y-31688464D01*
X187348659Y-31658894D01*
X187474686Y-31574686D01*
X187558894Y-31448659D01*
X187588464Y-31300000D01*
X187588464Y-29800000D01*
X187558894Y-29651341D01*
X187474686Y-29525314D01*
X187348659Y-29441106D01*
X187200000Y-29411536D01*
X183800000Y-29411536D01*
X183651341Y-29441106D01*
X183525314Y-29525314D01*
X183441106Y-29651341D01*
X183411536Y-29800000D01*
X145929591Y-29800000D01*
X145868799Y-29709019D01*
X145090981Y-28931201D01*
X144964954Y-28846993D01*
X144963373Y-28846678D01*
X144963058Y-28845096D01*
X144878850Y-28719069D01*
X144101032Y-27941251D01*
X143975005Y-27857043D01*
X143826346Y-27827473D01*
X143677687Y-27857043D01*
X143551660Y-27941251D01*
X142243512Y-29249399D01*
X142159304Y-29375426D01*
X142129734Y-29524085D01*
X142159304Y-29672744D01*
X142243512Y-29798771D01*
X142274625Y-29829884D01*
X142077445Y-30027065D01*
X142035195Y-30055295D01*
X141930156Y-30212499D01*
X141923360Y-30222670D01*
X141884087Y-30420101D01*
X141894001Y-30469940D01*
X141894000Y-35138741D01*
X141378670Y-34623411D01*
X141252643Y-34539203D01*
X141251062Y-34538888D01*
X141250747Y-34537306D01*
X141166539Y-34411279D01*
X140388721Y-33633461D01*
X140262694Y-33549253D01*
X140261112Y-33548938D01*
X140260797Y-33547357D01*
X140176589Y-33421330D01*
X139398771Y-32643512D01*
X139272744Y-32559304D01*
X139124085Y-32529734D01*
X138975426Y-32559304D01*
X138849399Y-32643512D01*
X137541251Y-33951660D01*
X137457043Y-34077687D01*
X137427473Y-34226346D01*
X137440843Y-34293563D01*
X137440407Y-34293999D01*
X137219648Y-34293999D01*
X136932598Y-34412899D01*
X136712899Y-34632598D01*
X136593999Y-34919648D01*
X132211460Y-34919648D01*
X132258894Y-34848659D01*
X132288464Y-34700000D01*
X132288464Y-34656000D01*
X132735166Y-34656000D01*
X132785000Y-34665913D01*
X132834834Y-34656000D01*
X132834835Y-34656000D01*
X132982431Y-34626641D01*
X133149806Y-34514806D01*
X133178039Y-34472552D01*
X133422552Y-34228039D01*
X133464806Y-34199806D01*
X133576641Y-34032431D01*
X133588370Y-33973464D01*
X133600000Y-33973464D01*
X133748659Y-33943894D01*
X133874686Y-33859686D01*
X133958894Y-33733659D01*
X133988464Y-33585000D01*
X133988464Y-32915000D01*
X133958894Y-32766341D01*
X133874686Y-32640314D01*
X133748659Y-32556106D01*
X133600000Y-32526536D01*
X132600000Y-32526536D01*
X132451341Y-32556106D01*
X132325314Y-32640314D01*
X132241106Y-32766341D01*
X132211536Y-32915000D01*
X132211536Y-33380464D01*
X132174686Y-33325314D01*
X132048659Y-33241106D01*
X131900000Y-33211536D01*
X130100000Y-33211536D01*
X129951341Y-33241106D01*
X129825314Y-33325314D01*
X129741106Y-33451341D01*
X129711536Y-33600000D01*
X129711536Y-33644000D01*
X126088464Y-33644000D01*
X126088464Y-33600000D01*
X126058894Y-33451341D01*
X125974686Y-33325314D01*
X125848659Y-33241106D01*
X125700000Y-33211536D01*
X123900000Y-33211536D01*
X123751341Y-33241106D01*
X123625314Y-33325314D01*
X123541106Y-33451341D01*
X123511536Y-33600000D01*
X123511536Y-33644000D01*
X122618576Y-33644000D01*
X122658894Y-33583659D01*
X122688464Y-33435000D01*
X122688464Y-32765000D01*
X122658894Y-32616341D01*
X122574686Y-32490314D01*
X122448659Y-32406106D01*
X122300000Y-32376536D01*
X121300000Y-32376536D01*
X121151341Y-32406106D01*
X121025314Y-32490314D01*
X120941106Y-32616341D01*
X120911536Y-32765000D01*
X120911536Y-33435000D01*
X120941106Y-33583659D01*
X120981424Y-33644000D01*
X120217777Y-33644000D01*
X120238464Y-33540000D01*
X120238464Y-32800000D01*
X120208894Y-32651341D01*
X120131158Y-32535000D01*
X120208894Y-32418659D01*
X120238464Y-32270000D01*
X120238464Y-31572250D01*
X120919000Y-31572250D01*
X120919000Y-31760786D01*
X120977004Y-31900820D01*
X121084181Y-32007996D01*
X121224215Y-32066000D01*
X121577750Y-32066000D01*
X121673000Y-31970750D01*
X121673000Y-31477000D01*
X121927000Y-31477000D01*
X121927000Y-31970750D01*
X122022250Y-32066000D01*
X122375785Y-32066000D01*
X122515819Y-32007996D01*
X122622996Y-31900820D01*
X122681000Y-31760786D01*
X122681000Y-31572250D01*
X122585750Y-31477000D01*
X121927000Y-31477000D01*
X121673000Y-31477000D01*
X121014250Y-31477000D01*
X120919000Y-31572250D01*
X120238464Y-31572250D01*
X120238464Y-31530000D01*
X120208894Y-31381341D01*
X120131158Y-31265000D01*
X120208894Y-31148659D01*
X120238464Y-31000000D01*
X120238464Y-30939214D01*
X120919000Y-30939214D01*
X120919000Y-31127750D01*
X121014250Y-31223000D01*
X121673000Y-31223000D01*
X121673000Y-30729250D01*
X121927000Y-30729250D01*
X121927000Y-31223000D01*
X122585750Y-31223000D01*
X122681000Y-31127750D01*
X122681000Y-30939214D01*
X122622996Y-30799180D01*
X122515819Y-30692004D01*
X122375785Y-30634000D01*
X122022250Y-30634000D01*
X121927000Y-30729250D01*
X121673000Y-30729250D01*
X121577750Y-30634000D01*
X121224215Y-30634000D01*
X121084181Y-30692004D01*
X120977004Y-30799180D01*
X120919000Y-30939214D01*
X120238464Y-30939214D01*
X120238464Y-30260000D01*
X120208894Y-30111341D01*
X120131158Y-29995000D01*
X120194634Y-29900000D01*
X123511536Y-29900000D01*
X123511536Y-31000000D01*
X123541106Y-31148659D01*
X123625314Y-31274686D01*
X123751341Y-31358894D01*
X123900000Y-31388464D01*
X125700000Y-31388464D01*
X125848659Y-31358894D01*
X125974686Y-31274686D01*
X126058894Y-31148659D01*
X126088464Y-31000000D01*
X126088464Y-30956000D01*
X127135293Y-30956000D01*
X127153124Y-30999047D01*
X127400953Y-31246876D01*
X127724758Y-31381000D01*
X128075242Y-31381000D01*
X128399047Y-31246876D01*
X128646876Y-30999047D01*
X128664707Y-30956000D01*
X129711536Y-30956000D01*
X129711536Y-31000000D01*
X129741106Y-31148659D01*
X129825314Y-31274686D01*
X129951341Y-31358894D01*
X130100000Y-31388464D01*
X130511630Y-31388464D01*
X130523359Y-31447430D01*
X130635194Y-31614806D01*
X130677448Y-31643039D01*
X130856961Y-31822552D01*
X130885194Y-31864806D01*
X131052569Y-31976641D01*
X131200165Y-32006000D01*
X131249999Y-32015913D01*
X131299833Y-32006000D01*
X132256034Y-32006000D01*
X132325314Y-32109686D01*
X132451341Y-32193894D01*
X132600000Y-32223464D01*
X133600000Y-32223464D01*
X133748659Y-32193894D01*
X133874686Y-32109686D01*
X133958894Y-31983659D01*
X133988464Y-31835000D01*
X133988464Y-31165000D01*
X133976752Y-31106119D01*
X140100497Y-31106119D01*
X140100497Y-31406875D01*
X140215591Y-31684737D01*
X140428257Y-31897403D01*
X140706119Y-32012497D01*
X141006875Y-32012497D01*
X141284737Y-31897403D01*
X141497403Y-31684737D01*
X141612497Y-31406875D01*
X141612497Y-31106119D01*
X141497403Y-30828257D01*
X141284737Y-30615591D01*
X141006875Y-30500497D01*
X140706119Y-30500497D01*
X140428257Y-30615591D01*
X140215591Y-30828257D01*
X140100497Y-31106119D01*
X133976752Y-31106119D01*
X133958894Y-31016341D01*
X133874686Y-30890314D01*
X133748659Y-30806106D01*
X133600000Y-30776536D01*
X132600000Y-30776536D01*
X132451341Y-30806106D01*
X132325314Y-30890314D01*
X132288464Y-30945464D01*
X132288464Y-29900000D01*
X132258894Y-29751341D01*
X132174686Y-29625314D01*
X132048659Y-29541106D01*
X131900000Y-29511536D01*
X130100000Y-29511536D01*
X129951341Y-29541106D01*
X129825314Y-29625314D01*
X129741106Y-29751341D01*
X129711536Y-29900000D01*
X129711536Y-29944000D01*
X128589923Y-29944000D01*
X128399047Y-29753124D01*
X128075242Y-29619000D01*
X127724758Y-29619000D01*
X127400953Y-29753124D01*
X127210077Y-29944000D01*
X126088464Y-29944000D01*
X126088464Y-29900000D01*
X126058894Y-29751341D01*
X125974686Y-29625314D01*
X125848659Y-29541106D01*
X125700000Y-29511536D01*
X123900000Y-29511536D01*
X123751341Y-29541106D01*
X123625314Y-29625314D01*
X123541106Y-29751341D01*
X123511536Y-29900000D01*
X120194634Y-29900000D01*
X120208894Y-29878659D01*
X120238464Y-29730000D01*
X120238464Y-29029110D01*
X136826433Y-29029110D01*
X136856003Y-29177769D01*
X136940211Y-29303796D01*
X138283714Y-30647299D01*
X138409741Y-30731507D01*
X138558400Y-30761077D01*
X138707059Y-30731507D01*
X138833086Y-30647299D01*
X140247299Y-29233086D01*
X140331507Y-29107059D01*
X140361077Y-28958400D01*
X140331507Y-28809741D01*
X140247299Y-28683714D01*
X138903796Y-27340211D01*
X138777769Y-27256003D01*
X138629110Y-27226433D01*
X138480451Y-27256003D01*
X138354424Y-27340211D01*
X136940211Y-28754424D01*
X136856003Y-28880451D01*
X136826433Y-29029110D01*
X120238464Y-29029110D01*
X120238464Y-28990000D01*
X120208894Y-28841341D01*
X120124686Y-28715314D01*
X119998659Y-28631106D01*
X119850000Y-28601536D01*
X119156000Y-28601536D01*
X119156000Y-27163425D01*
X119165913Y-27113590D01*
X119126641Y-26916158D01*
X119064392Y-26822996D01*
X119014806Y-26748784D01*
X118972556Y-26720554D01*
X118233002Y-25981000D01*
X118255351Y-25981000D01*
X118542401Y-25862100D01*
X118762100Y-25642401D01*
X118881000Y-25355351D01*
X118881000Y-25206000D01*
X121527729Y-25206000D01*
X121556106Y-25348659D01*
X121640314Y-25474686D01*
X121766341Y-25558894D01*
X121915000Y-25588464D01*
X122585000Y-25588464D01*
X122733659Y-25558894D01*
X122859686Y-25474686D01*
X122943894Y-25348659D01*
X122973464Y-25200000D01*
X122973464Y-24200000D01*
X122943894Y-24051341D01*
X122880190Y-23956000D01*
X123369810Y-23956000D01*
X123306106Y-24051341D01*
X123306106Y-24051341D01*
G37*
X123306106Y-24051341D02*
X123276536Y-24200000D01*
X123276536Y-25200000D01*
X123306106Y-25348659D01*
X123390314Y-25474686D01*
X123516341Y-25558894D01*
X123665000Y-25588464D01*
X124335000Y-25588464D01*
X124483659Y-25558894D01*
X124609686Y-25474686D01*
X124693894Y-25348659D01*
X124722271Y-25206000D01*
X125227729Y-25206000D01*
X125256106Y-25348659D01*
X125340314Y-25474686D01*
X125466341Y-25558894D01*
X125615000Y-25588464D01*
X126285000Y-25588464D01*
X126433659Y-25558894D01*
X126559686Y-25474686D01*
X126643894Y-25348659D01*
X126673464Y-25200000D01*
X126673464Y-24922250D01*
X126984000Y-24922250D01*
X126984000Y-25275785D01*
X127042004Y-25415819D01*
X127149180Y-25522996D01*
X127289214Y-25581000D01*
X127477750Y-25581000D01*
X127573000Y-25485750D01*
X127573000Y-24827000D01*
X127827000Y-24827000D01*
X127827000Y-25485750D01*
X127922250Y-25581000D01*
X128110786Y-25581000D01*
X128250820Y-25522996D01*
X128357996Y-25415819D01*
X128416000Y-25275785D01*
X128416000Y-24922250D01*
X128320750Y-24827000D01*
X127827000Y-24827000D01*
X127573000Y-24827000D01*
X127079250Y-24827000D01*
X126984000Y-24922250D01*
X126673464Y-24922250D01*
X126673464Y-24200000D01*
X126643894Y-24051341D01*
X126580190Y-23956000D01*
X127070185Y-23956000D01*
X127042004Y-23984181D01*
X126984000Y-24124215D01*
X126984000Y-24477750D01*
X127079250Y-24573000D01*
X127573000Y-24573000D01*
X127573000Y-24553000D01*
X127827000Y-24553000D01*
X127827000Y-24573000D01*
X128320750Y-24573000D01*
X128416000Y-24477750D01*
X128416000Y-24124215D01*
X128357996Y-23984181D01*
X128329815Y-23956000D01*
X188544000Y-23956000D01*
X188544001Y-24955091D01*
X188544000Y-69544000D01*
X95456000Y-69544000D01*
X95456000Y-61274936D01*
X96234000Y-61274936D01*
X96234000Y-62205065D01*
X96292950Y-62501423D01*
X96517506Y-62837495D01*
X96853578Y-63062051D01*
X97250000Y-63140904D01*
X97646423Y-63062051D01*
X97982495Y-62837495D01*
X98207051Y-62501423D01*
X98266000Y-62205064D01*
X98266000Y-61274936D01*
X98774000Y-61274936D01*
X98774000Y-62205065D01*
X98832950Y-62501423D01*
X99057506Y-62837495D01*
X99393578Y-63062051D01*
X99790000Y-63140904D01*
X100186423Y-63062051D01*
X100522495Y-62837495D01*
X100747051Y-62501423D01*
X100806000Y-62205064D01*
X100806000Y-61274936D01*
X101314000Y-61274936D01*
X101314000Y-62205065D01*
X101372950Y-62501423D01*
X101597506Y-62837495D01*
X101933578Y-63062051D01*
X102330000Y-63140904D01*
X102726423Y-63062051D01*
X103062495Y-62837495D01*
X103287051Y-62501423D01*
X103346000Y-62205064D01*
X103346000Y-61274936D01*
X103854000Y-61274936D01*
X103854000Y-62205065D01*
X103912950Y-62501423D01*
X104137506Y-62837495D01*
X104473578Y-63062051D01*
X104870000Y-63140904D01*
X105266423Y-63062051D01*
X105602495Y-62837495D01*
X105827051Y-62501423D01*
X105886000Y-62205064D01*
X105886000Y-61274936D01*
X106394000Y-61274936D01*
X106394000Y-62205065D01*
X106452950Y-62501423D01*
X106677506Y-62837495D01*
X107013578Y-63062051D01*
X107410000Y-63140904D01*
X107806423Y-63062051D01*
X108142495Y-62837495D01*
X108367051Y-62501423D01*
X108426000Y-62205064D01*
X108426000Y-61274936D01*
X108934000Y-61274936D01*
X108934000Y-62205065D01*
X108992950Y-62501423D01*
X109217506Y-62837495D01*
X109553578Y-63062051D01*
X109950000Y-63140904D01*
X110346423Y-63062051D01*
X110682495Y-62837495D01*
X110907051Y-62501423D01*
X110966000Y-62205064D01*
X110966000Y-61274936D01*
X111474000Y-61274936D01*
X111474000Y-62205065D01*
X111532950Y-62501423D01*
X111757506Y-62837495D01*
X112093578Y-63062051D01*
X112490000Y-63140904D01*
X112886423Y-63062051D01*
X113222495Y-62837495D01*
X113447051Y-62501423D01*
X113506000Y-62205064D01*
X113506000Y-61274936D01*
X114014000Y-61274936D01*
X114014000Y-62205065D01*
X114072950Y-62501423D01*
X114297506Y-62837495D01*
X114633578Y-63062051D01*
X115030000Y-63140904D01*
X115426423Y-63062051D01*
X115762495Y-62837495D01*
X115987051Y-62501423D01*
X116046000Y-62205064D01*
X116046000Y-61274936D01*
X116554000Y-61274936D01*
X116554000Y-62205065D01*
X116612950Y-62501423D01*
X116837506Y-62837495D01*
X117173578Y-63062051D01*
X117570000Y-63140904D01*
X117966423Y-63062051D01*
X118302495Y-62837495D01*
X118527051Y-62501423D01*
X118586000Y-62205064D01*
X118586000Y-61274936D01*
X119234000Y-61274936D01*
X119234000Y-62205065D01*
X119292950Y-62501423D01*
X119517506Y-62837495D01*
X119744000Y-62988833D01*
X119744001Y-68151498D01*
X119587900Y-68307599D01*
X119469000Y-68594649D01*
X119469000Y-68905351D01*
X119587900Y-69192401D01*
X119807599Y-69412100D01*
X120094649Y-69531000D01*
X120405351Y-69531000D01*
X120692401Y-69412100D01*
X120912100Y-69192401D01*
X121031000Y-68905351D01*
X121031000Y-68594649D01*
X120912100Y-68307599D01*
X120756000Y-68151499D01*
X120756000Y-62988834D01*
X120982495Y-62837495D01*
X121207051Y-62501423D01*
X121266000Y-62205064D01*
X121266000Y-61274936D01*
X121774000Y-61274936D01*
X121774000Y-62205065D01*
X121832950Y-62501423D01*
X122057506Y-62837495D01*
X122284000Y-62988834D01*
X122284001Y-67361498D01*
X122087900Y-67557599D01*
X121969000Y-67844649D01*
X121969000Y-68155351D01*
X122087900Y-68442401D01*
X122307599Y-68662100D01*
X122594649Y-68781000D01*
X122905351Y-68781000D01*
X123192401Y-68662100D01*
X123412100Y-68442401D01*
X123531000Y-68155351D01*
X123531000Y-67844649D01*
X123412100Y-67557599D01*
X123296000Y-67441499D01*
X123296000Y-62988834D01*
X123522495Y-62837495D01*
X123747051Y-62501423D01*
X123806000Y-62205064D01*
X123806000Y-61274936D01*
X124314000Y-61274936D01*
X124314000Y-62205065D01*
X124372950Y-62501423D01*
X124597506Y-62837495D01*
X124933578Y-63062051D01*
X125330000Y-63140904D01*
X125726423Y-63062051D01*
X126062495Y-62837495D01*
X126287051Y-62501423D01*
X126346000Y-62205064D01*
X126346000Y-61274936D01*
X126854000Y-61274936D01*
X126854000Y-62205065D01*
X126912950Y-62501423D01*
X127137506Y-62837495D01*
X127364000Y-62988834D01*
X127364001Y-66564538D01*
X127307599Y-66587900D01*
X127087900Y-66807599D01*
X126969000Y-67094649D01*
X126969000Y-67405351D01*
X127087900Y-67692401D01*
X127307599Y-67912100D01*
X127594649Y-68031000D01*
X127905351Y-68031000D01*
X128192401Y-67912100D01*
X128412100Y-67692401D01*
X128531000Y-67405351D01*
X128531000Y-67094649D01*
X128412100Y-66807599D01*
X128376000Y-66771499D01*
X128376000Y-62988834D01*
X128602495Y-62837495D01*
X128827051Y-62501423D01*
X128886000Y-62205064D01*
X128886000Y-61274936D01*
X129394000Y-61274936D01*
X129394000Y-62205065D01*
X129452950Y-62501423D01*
X129677506Y-62837495D01*
X129904000Y-62988834D01*
X129904001Y-65991498D01*
X129837900Y-66057599D01*
X129719000Y-66344649D01*
X129719000Y-66655351D01*
X129837900Y-66942401D01*
X130057599Y-67162100D01*
X130344649Y-67281000D01*
X130655351Y-67281000D01*
X130942401Y-67162100D01*
X131162100Y-66942401D01*
X131281000Y-66655351D01*
X131281000Y-66344649D01*
X131162100Y-66057599D01*
X130942401Y-65837900D01*
X130916000Y-65826964D01*
X130916000Y-62988834D01*
X131142495Y-62837495D01*
X131367051Y-62501423D01*
X131426000Y-62205064D01*
X131426000Y-61274936D01*
X131934000Y-61274936D01*
X131934000Y-62205065D01*
X131992950Y-62501423D01*
X132217506Y-62837495D01*
X132444000Y-62988834D01*
X132444001Y-65201498D01*
X132337900Y-65307599D01*
X132219000Y-65594649D01*
X132219000Y-65905351D01*
X132337900Y-66192401D01*
X132557599Y-66412100D01*
X132844649Y-66531000D01*
X133155351Y-66531000D01*
X133442401Y-66412100D01*
X133662100Y-66192401D01*
X133781000Y-65905351D01*
X133781000Y-65594649D01*
X133662100Y-65307599D01*
X133456000Y-65101499D01*
X133456000Y-62988834D01*
X133682495Y-62837495D01*
X133907051Y-62501423D01*
X133966000Y-62205064D01*
X133966000Y-61274936D01*
X134474000Y-61274936D01*
X134474000Y-62205065D01*
X134532950Y-62501423D01*
X134757506Y-62837495D01*
X134984000Y-62988834D01*
X134984001Y-64411498D01*
X134837900Y-64557599D01*
X134719000Y-64844649D01*
X134719000Y-65155351D01*
X134837900Y-65442401D01*
X135057599Y-65662100D01*
X135344649Y-65781000D01*
X135655351Y-65781000D01*
X135942401Y-65662100D01*
X136162100Y-65442401D01*
X136281000Y-65155351D01*
X136281000Y-64844649D01*
X136162100Y-64557599D01*
X135996000Y-64391499D01*
X135996000Y-62988834D01*
X136222495Y-62837495D01*
X136447051Y-62501423D01*
X136506000Y-62205064D01*
X136506000Y-61274936D01*
X137014000Y-61274936D01*
X137014000Y-62205065D01*
X137072950Y-62501423D01*
X137297506Y-62837495D01*
X137524001Y-62988834D01*
X137524001Y-63621498D01*
X137337900Y-63807599D01*
X137219000Y-64094649D01*
X137219000Y-64405351D01*
X137337900Y-64692401D01*
X137557599Y-64912100D01*
X137844649Y-65031000D01*
X138155351Y-65031000D01*
X138442401Y-64912100D01*
X138662100Y-64692401D01*
X138781000Y-64405351D01*
X138781000Y-64094649D01*
X138662100Y-63807599D01*
X138536000Y-63681499D01*
X138536000Y-62988834D01*
X138762495Y-62837495D01*
X138987051Y-62501423D01*
X139046000Y-62205064D01*
X139046000Y-61274936D01*
X139554000Y-61274936D01*
X139554000Y-62205065D01*
X139612950Y-62501423D01*
X139837506Y-62837495D01*
X140173578Y-63062051D01*
X140570000Y-63140904D01*
X140966423Y-63062051D01*
X141302495Y-62837495D01*
X141527051Y-62501423D01*
X141586000Y-62205064D01*
X141586000Y-61274936D01*
X142234000Y-61274936D01*
X142234000Y-62205065D01*
X142292950Y-62501423D01*
X142517506Y-62837495D01*
X142744000Y-62988833D01*
X142744001Y-68151498D01*
X142587900Y-68307599D01*
X142469000Y-68594649D01*
X142469000Y-68905351D01*
X142587900Y-69192401D01*
X142807599Y-69412100D01*
X143094649Y-69531000D01*
X143405351Y-69531000D01*
X143692401Y-69412100D01*
X143912100Y-69192401D01*
X144031000Y-68905351D01*
X144031000Y-68594649D01*
X143912100Y-68307599D01*
X143756000Y-68151499D01*
X143756000Y-62988834D01*
X143982495Y-62837495D01*
X144207051Y-62501423D01*
X144266000Y-62205064D01*
X144266000Y-61274936D01*
X144774000Y-61274936D01*
X144774000Y-62205065D01*
X144832950Y-62501423D01*
X145057506Y-62837495D01*
X145284000Y-62988834D01*
X145284001Y-67361498D01*
X145087900Y-67557599D01*
X144969000Y-67844649D01*
X144969000Y-68155351D01*
X145087900Y-68442401D01*
X145307599Y-68662100D01*
X145594649Y-68781000D01*
X145905351Y-68781000D01*
X146192401Y-68662100D01*
X146412100Y-68442401D01*
X146531000Y-68155351D01*
X146531000Y-67844649D01*
X146412100Y-67557599D01*
X146296000Y-67441499D01*
X146296000Y-62988834D01*
X146522495Y-62837495D01*
X146747051Y-62501423D01*
X146806000Y-62205064D01*
X146806000Y-61274936D01*
X147314000Y-61274936D01*
X147314000Y-62205065D01*
X147372950Y-62501423D01*
X147597506Y-62837495D01*
X147933578Y-63062051D01*
X148330000Y-63140904D01*
X148726423Y-63062051D01*
X149062495Y-62837495D01*
X149287051Y-62501423D01*
X149346000Y-62205064D01*
X149346000Y-61274935D01*
X149287051Y-60978577D01*
X149062495Y-60642505D01*
X148726422Y-60417949D01*
X148330000Y-60339096D01*
X147933577Y-60417949D01*
X147597505Y-60642505D01*
X147372949Y-60978578D01*
X147314000Y-61274936D01*
X146806000Y-61274936D01*
X146806000Y-61274935D01*
X146747051Y-60978577D01*
X146522495Y-60642505D01*
X146186422Y-60417949D01*
X145790000Y-60339096D01*
X145393577Y-60417949D01*
X145057505Y-60642505D01*
X144832949Y-60978578D01*
X144774000Y-61274936D01*
X144266000Y-61274936D01*
X144266000Y-61274935D01*
X144207051Y-60978577D01*
X143982495Y-60642505D01*
X143646422Y-60417949D01*
X143250000Y-60339096D01*
X142853577Y-60417949D01*
X142517505Y-60642505D01*
X142292949Y-60978578D01*
X142234000Y-61274936D01*
X141586000Y-61274936D01*
X141586000Y-61274935D01*
X141527051Y-60978577D01*
X141302495Y-60642505D01*
X140966422Y-60417949D01*
X140570000Y-60339096D01*
X140173577Y-60417949D01*
X139837505Y-60642505D01*
X139612949Y-60978578D01*
X139554000Y-61274936D01*
X139046000Y-61274936D01*
X139046000Y-61274935D01*
X138987051Y-60978577D01*
X138762495Y-60642505D01*
X138426422Y-60417949D01*
X138030000Y-60339096D01*
X137633577Y-60417949D01*
X137297505Y-60642505D01*
X137072949Y-60978578D01*
X137014000Y-61274936D01*
X136506000Y-61274936D01*
X136506000Y-61274935D01*
X136447051Y-60978577D01*
X136222495Y-60642505D01*
X135886422Y-60417949D01*
X135490000Y-60339096D01*
X135093577Y-60417949D01*
X134757505Y-60642505D01*
X134532949Y-60978578D01*
X134474000Y-61274936D01*
X133966000Y-61274936D01*
X133966000Y-61274935D01*
X133907051Y-60978577D01*
X133682495Y-60642505D01*
X133346422Y-60417949D01*
X132950000Y-60339096D01*
X132553577Y-60417949D01*
X132217505Y-60642505D01*
X131992949Y-60978578D01*
X131934000Y-61274936D01*
X131426000Y-61274936D01*
X131426000Y-61274935D01*
X131367051Y-60978577D01*
X131142495Y-60642505D01*
X130916000Y-60491166D01*
X130916000Y-59299591D01*
X133459593Y-56756000D01*
X139401499Y-56756000D01*
X139557599Y-56912100D01*
X139844649Y-57031000D01*
X140155351Y-57031000D01*
X140442401Y-56912100D01*
X140662100Y-56692401D01*
X140750000Y-56480192D01*
X140837900Y-56692401D01*
X141057599Y-56912100D01*
X141344649Y-57031000D01*
X141655351Y-57031000D01*
X141942401Y-56912100D01*
X142098501Y-56756000D01*
X149040409Y-56756000D01*
X150364001Y-58079593D01*
X150364000Y-60491166D01*
X150137505Y-60642505D01*
X149912949Y-60978578D01*
X149854000Y-61274936D01*
X149854000Y-62205065D01*
X149912950Y-62501423D01*
X150137506Y-62837495D01*
X150364000Y-62988834D01*
X150364001Y-66564538D01*
X150307599Y-66587900D01*
X150087900Y-66807599D01*
X149969000Y-67094649D01*
X149969000Y-67405351D01*
X150087900Y-67692401D01*
X150307599Y-67912100D01*
X150594649Y-68031000D01*
X150905351Y-68031000D01*
X151192401Y-67912100D01*
X151412100Y-67692401D01*
X151531000Y-67405351D01*
X151531000Y-67094649D01*
X151412100Y-66807599D01*
X151376000Y-66771499D01*
X151376000Y-62988834D01*
X151602495Y-62837495D01*
X151827051Y-62501423D01*
X151886000Y-62205064D01*
X151886000Y-61274936D01*
X152394000Y-61274936D01*
X152394000Y-62205065D01*
X152452950Y-62501423D01*
X152677506Y-62837495D01*
X152904000Y-62988834D01*
X152904001Y-65991498D01*
X152837900Y-66057599D01*
X152719000Y-66344649D01*
X152719000Y-66655351D01*
X152837900Y-66942401D01*
X153057599Y-67162100D01*
X153344649Y-67281000D01*
X153655351Y-67281000D01*
X153942401Y-67162100D01*
X154162100Y-66942401D01*
X154281000Y-66655351D01*
X154281000Y-66344649D01*
X154162100Y-66057599D01*
X153942401Y-65837900D01*
X153916000Y-65826964D01*
X153916000Y-62988834D01*
X154142495Y-62837495D01*
X154367051Y-62501423D01*
X154426000Y-62205064D01*
X154426000Y-61274936D01*
X154934000Y-61274936D01*
X154934000Y-62205065D01*
X154992950Y-62501423D01*
X155217506Y-62837495D01*
X155444000Y-62988834D01*
X155444001Y-65201498D01*
X155337900Y-65307599D01*
X155219000Y-65594649D01*
X155219000Y-65905351D01*
X155337900Y-66192401D01*
X155557599Y-66412100D01*
X155844649Y-66531000D01*
X156155351Y-66531000D01*
X156442401Y-66412100D01*
X156662100Y-66192401D01*
X156781000Y-65905351D01*
X156781000Y-65594649D01*
X156662100Y-65307599D01*
X156456000Y-65101499D01*
X156456000Y-62988834D01*
X156682495Y-62837495D01*
X156907051Y-62501423D01*
X156966000Y-62205064D01*
X156966000Y-61274936D01*
X157474000Y-61274936D01*
X157474000Y-62205065D01*
X157532950Y-62501423D01*
X157757506Y-62837495D01*
X157984000Y-62988834D01*
X157984001Y-64411498D01*
X157837900Y-64557599D01*
X157719000Y-64844649D01*
X157719000Y-65155351D01*
X157837900Y-65442401D01*
X158057599Y-65662100D01*
X158344649Y-65781000D01*
X158655351Y-65781000D01*
X158942401Y-65662100D01*
X159162100Y-65442401D01*
X159281000Y-65155351D01*
X159281000Y-64844649D01*
X159162100Y-64557599D01*
X158996000Y-64391499D01*
X158996000Y-62988834D01*
X159222495Y-62837495D01*
X159447051Y-62501423D01*
X159506000Y-62205064D01*
X159506000Y-61274936D01*
X160014000Y-61274936D01*
X160014000Y-62205065D01*
X160072950Y-62501423D01*
X160297506Y-62837495D01*
X160494001Y-62968788D01*
X160494000Y-63651499D01*
X160337900Y-63807599D01*
X160219000Y-64094649D01*
X160219000Y-64405351D01*
X160337900Y-64692401D01*
X160557599Y-64912100D01*
X160844649Y-65031000D01*
X161155351Y-65031000D01*
X161442401Y-64912100D01*
X161662100Y-64692401D01*
X161781000Y-64405351D01*
X161781000Y-64094649D01*
X161662100Y-63807599D01*
X161506000Y-63651499D01*
X161506000Y-63008879D01*
X161762495Y-62837495D01*
X161987051Y-62501423D01*
X162046000Y-62205064D01*
X162046000Y-61274936D01*
X162554000Y-61274936D01*
X162554000Y-62205065D01*
X162612950Y-62501423D01*
X162837506Y-62837495D01*
X163173578Y-63062051D01*
X163570000Y-63140904D01*
X163966423Y-63062051D01*
X164302495Y-62837495D01*
X164527051Y-62501423D01*
X164586000Y-62205064D01*
X164586000Y-61274936D01*
X165234000Y-61274936D01*
X165234000Y-62205065D01*
X165292950Y-62501423D01*
X165517506Y-62837495D01*
X165744001Y-62988834D01*
X165744000Y-68151499D01*
X165587900Y-68307599D01*
X165469000Y-68594649D01*
X165469000Y-68905351D01*
X165587900Y-69192401D01*
X165807599Y-69412100D01*
X166094649Y-69531000D01*
X166405351Y-69531000D01*
X166692401Y-69412100D01*
X166912100Y-69192401D01*
X167031000Y-68905351D01*
X167031000Y-68594649D01*
X166912100Y-68307599D01*
X166756000Y-68151499D01*
X166756000Y-62988834D01*
X166982495Y-62837495D01*
X167207051Y-62501423D01*
X167266000Y-62205064D01*
X167266000Y-61274936D01*
X167774000Y-61274936D01*
X167774000Y-62205065D01*
X167832950Y-62501423D01*
X168057506Y-62837495D01*
X168244001Y-62962107D01*
X168244000Y-67401499D01*
X168087900Y-67557599D01*
X167969000Y-67844649D01*
X167969000Y-68155351D01*
X168087900Y-68442401D01*
X168307599Y-68662100D01*
X168594649Y-68781000D01*
X168905351Y-68781000D01*
X169192401Y-68662100D01*
X169412100Y-68442401D01*
X169531000Y-68155351D01*
X169531000Y-67844649D01*
X169412100Y-67557599D01*
X169256000Y-67401499D01*
X169256000Y-63015561D01*
X169522495Y-62837495D01*
X169747051Y-62501423D01*
X169806000Y-62205064D01*
X169806000Y-61274936D01*
X170314000Y-61274936D01*
X170314000Y-62205065D01*
X170372950Y-62501423D01*
X170597506Y-62837495D01*
X170933578Y-63062051D01*
X171330000Y-63140904D01*
X171726423Y-63062051D01*
X172062495Y-62837495D01*
X172287051Y-62501423D01*
X172346000Y-62205064D01*
X172346000Y-61274936D01*
X172854000Y-61274936D01*
X172854000Y-62205065D01*
X172912950Y-62501423D01*
X173137506Y-62837495D01*
X173244001Y-62908653D01*
X173244000Y-66651499D01*
X173087900Y-66807599D01*
X172969000Y-67094649D01*
X172969000Y-67405351D01*
X173087900Y-67692401D01*
X173307599Y-67912100D01*
X173594649Y-68031000D01*
X173905351Y-68031000D01*
X174192401Y-67912100D01*
X174412100Y-67692401D01*
X174531000Y-67405351D01*
X174531000Y-67094649D01*
X174412100Y-66807599D01*
X174256000Y-66651499D01*
X174256000Y-63064124D01*
X174266423Y-63062051D01*
X174602495Y-62837495D01*
X174827051Y-62501423D01*
X174886000Y-62205064D01*
X174886000Y-61274936D01*
X175394000Y-61274936D01*
X175394000Y-62205065D01*
X175452950Y-62501423D01*
X175677506Y-62837495D01*
X175744001Y-62881925D01*
X175744000Y-65901499D01*
X175587900Y-66057599D01*
X175469000Y-66344649D01*
X175469000Y-66655351D01*
X175587900Y-66942401D01*
X175807599Y-67162100D01*
X176094649Y-67281000D01*
X176405351Y-67281000D01*
X176692401Y-67162100D01*
X176912100Y-66942401D01*
X177031000Y-66655351D01*
X177031000Y-66344649D01*
X176912100Y-66057599D01*
X176756000Y-65901499D01*
X176756000Y-63072081D01*
X176806423Y-63062051D01*
X177142495Y-62837495D01*
X177367051Y-62501423D01*
X177426000Y-62205064D01*
X177426000Y-61274936D01*
X177934000Y-61274936D01*
X177934000Y-62205065D01*
X177992950Y-62501423D01*
X178217506Y-62837495D01*
X178494001Y-63022243D01*
X178494000Y-65151499D01*
X178337900Y-65307599D01*
X178219000Y-65594649D01*
X178219000Y-65905351D01*
X178337900Y-66192401D01*
X178557599Y-66412100D01*
X178844649Y-66531000D01*
X179155351Y-66531000D01*
X179442401Y-66412100D01*
X179662100Y-66192401D01*
X179781000Y-65905351D01*
X179781000Y-65594649D01*
X179662100Y-65307599D01*
X179506000Y-65151499D01*
X179506000Y-62955425D01*
X179682495Y-62837495D01*
X179907051Y-62501423D01*
X179966000Y-62205064D01*
X179966000Y-61274936D01*
X180474000Y-61274936D01*
X180474000Y-62205065D01*
X180532950Y-62501423D01*
X180757506Y-62837495D01*
X180994001Y-62995516D01*
X180994000Y-64401499D01*
X180837900Y-64557599D01*
X180719000Y-64844649D01*
X180719000Y-65155351D01*
X180837900Y-65442401D01*
X181057599Y-65662100D01*
X181344649Y-65781000D01*
X181655351Y-65781000D01*
X181942401Y-65662100D01*
X182162100Y-65442401D01*
X182281000Y-65155351D01*
X182281000Y-64844649D01*
X182162100Y-64557599D01*
X182006000Y-64401499D01*
X182006000Y-62982152D01*
X182222495Y-62837495D01*
X182447051Y-62501423D01*
X182506000Y-62205064D01*
X182506000Y-61274936D01*
X183014000Y-61274936D01*
X183014000Y-62205065D01*
X183072950Y-62501423D01*
X183297506Y-62837495D01*
X183494001Y-62968788D01*
X183494000Y-63651499D01*
X183337900Y-63807599D01*
X183219000Y-64094649D01*
X183219000Y-64405351D01*
X183337900Y-64692401D01*
X183557599Y-64912100D01*
X183844649Y-65031000D01*
X184155351Y-65031000D01*
X184442401Y-64912100D01*
X184662100Y-64692401D01*
X184781000Y-64405351D01*
X184781000Y-64094649D01*
X184662100Y-63807599D01*
X184506000Y-63651499D01*
X184506000Y-63008879D01*
X184762495Y-62837495D01*
X184987051Y-62501423D01*
X185046000Y-62205064D01*
X185046000Y-61274936D01*
X185554000Y-61274936D01*
X185554000Y-62205065D01*
X185612950Y-62501423D01*
X185837506Y-62837495D01*
X186173578Y-63062051D01*
X186570000Y-63140904D01*
X186966423Y-63062051D01*
X187302495Y-62837495D01*
X187527051Y-62501423D01*
X187586000Y-62205064D01*
X187586000Y-61274935D01*
X187527051Y-60978577D01*
X187302495Y-60642505D01*
X186966422Y-60417949D01*
X186570000Y-60339096D01*
X186173577Y-60417949D01*
X185837505Y-60642505D01*
X185612949Y-60978578D01*
X185554000Y-61274936D01*
X185046000Y-61274936D01*
X185046000Y-61274935D01*
X184987051Y-60978577D01*
X184762495Y-60642505D01*
X184426422Y-60417949D01*
X184030000Y-60339096D01*
X183633577Y-60417949D01*
X183297505Y-60642505D01*
X183072949Y-60978578D01*
X183014000Y-61274936D01*
X182506000Y-61274936D01*
X182506000Y-61274935D01*
X182447051Y-60978577D01*
X182222495Y-60642505D01*
X181886422Y-60417949D01*
X181490000Y-60339096D01*
X181093577Y-60417949D01*
X180757505Y-60642505D01*
X180532949Y-60978578D01*
X180474000Y-61274936D01*
X179966000Y-61274936D01*
X179966000Y-61274935D01*
X179907051Y-60978577D01*
X179682495Y-60642505D01*
X179346422Y-60417949D01*
X178950000Y-60339096D01*
X178553577Y-60417949D01*
X178217505Y-60642505D01*
X177992949Y-60978578D01*
X177934000Y-61274936D01*
X177426000Y-61274936D01*
X177426000Y-61274935D01*
X177367051Y-60978577D01*
X177142495Y-60642505D01*
X176806422Y-60417949D01*
X176410000Y-60339096D01*
X176013577Y-60417949D01*
X175677505Y-60642505D01*
X175452949Y-60978578D01*
X175394000Y-61274936D01*
X174886000Y-61274936D01*
X174886000Y-61274935D01*
X174827051Y-60978577D01*
X174602495Y-60642505D01*
X174266422Y-60417949D01*
X173870000Y-60339096D01*
X173473577Y-60417949D01*
X173137505Y-60642505D01*
X172912949Y-60978578D01*
X172854000Y-61274936D01*
X172346000Y-61274936D01*
X172346000Y-61274935D01*
X172287051Y-60978577D01*
X172062495Y-60642505D01*
X171726422Y-60417949D01*
X171330000Y-60339096D01*
X170933577Y-60417949D01*
X170597505Y-60642505D01*
X170372949Y-60978578D01*
X170314000Y-61274936D01*
X169806000Y-61274936D01*
X169806000Y-61274935D01*
X169747051Y-60978577D01*
X169522495Y-60642505D01*
X169186422Y-60417949D01*
X168790000Y-60339096D01*
X168393577Y-60417949D01*
X168057505Y-60642505D01*
X167832949Y-60978578D01*
X167774000Y-61274936D01*
X167266000Y-61274936D01*
X167266000Y-61274935D01*
X167207051Y-60978577D01*
X166982495Y-60642505D01*
X166646422Y-60417949D01*
X166250000Y-60339096D01*
X165853577Y-60417949D01*
X165517505Y-60642505D01*
X165292949Y-60978578D01*
X165234000Y-61274936D01*
X164586000Y-61274936D01*
X164586000Y-61274935D01*
X164527051Y-60978577D01*
X164302495Y-60642505D01*
X163966422Y-60417949D01*
X163570000Y-60339096D01*
X163173577Y-60417949D01*
X162837505Y-60642505D01*
X162612949Y-60978578D01*
X162554000Y-61274936D01*
X162046000Y-61274936D01*
X162046000Y-61274935D01*
X161987051Y-60978577D01*
X161762495Y-60642505D01*
X161426422Y-60417949D01*
X161030000Y-60339096D01*
X160633577Y-60417949D01*
X160297505Y-60642505D01*
X160072949Y-60978578D01*
X160014000Y-61274936D01*
X159506000Y-61274936D01*
X159506000Y-61274935D01*
X159447051Y-60978577D01*
X159222495Y-60642505D01*
X159006000Y-60497848D01*
X159006000Y-56098501D01*
X159162100Y-55942401D01*
X159281000Y-55655351D01*
X159281000Y-55344649D01*
X159162100Y-55057599D01*
X158942401Y-54837900D01*
X158655351Y-54719000D01*
X158344649Y-54719000D01*
X158057599Y-54837900D01*
X157837900Y-55057599D01*
X157719000Y-55344649D01*
X157719000Y-55655351D01*
X157837900Y-55942401D01*
X157994000Y-56098501D01*
X157994001Y-60484484D01*
X157757505Y-60642505D01*
X157532949Y-60978578D01*
X157474000Y-61274936D01*
X156966000Y-61274936D01*
X156966000Y-61274935D01*
X156907051Y-60978577D01*
X156682495Y-60642505D01*
X156506000Y-60524575D01*
X156506000Y-55348501D01*
X156662100Y-55192401D01*
X156781000Y-54905351D01*
X156781000Y-54594649D01*
X156662100Y-54307599D01*
X156442401Y-54087900D01*
X156155351Y-53969000D01*
X155844649Y-53969000D01*
X155557599Y-54087900D01*
X155337900Y-54307599D01*
X155219000Y-54594649D01*
X155219000Y-54905351D01*
X155337900Y-55192401D01*
X155494000Y-55348501D01*
X155494001Y-60457757D01*
X155217505Y-60642505D01*
X154992949Y-60978578D01*
X154934000Y-61274936D01*
X154426000Y-61274936D01*
X154426000Y-61274935D01*
X154367051Y-60978577D01*
X154142495Y-60642505D01*
X153806422Y-60417949D01*
X153410000Y-60339096D01*
X153013577Y-60417949D01*
X152677505Y-60642505D01*
X152452949Y-60978578D01*
X152394000Y-61274936D01*
X151886000Y-61274936D01*
X151886000Y-61274935D01*
X151827051Y-60978577D01*
X151602495Y-60642505D01*
X151376000Y-60491166D01*
X151376000Y-57919834D01*
X151385913Y-57870000D01*
X151373500Y-57807599D01*
X151346641Y-57672569D01*
X151234806Y-57505194D01*
X151192555Y-57476963D01*
X149643039Y-55927447D01*
X149614806Y-55885194D01*
X149447431Y-55773359D01*
X149299835Y-55744000D01*
X149299834Y-55744000D01*
X149250000Y-55734087D01*
X149200166Y-55744000D01*
X142098501Y-55744000D01*
X141942401Y-55587900D01*
X141655351Y-55469000D01*
X141344649Y-55469000D01*
X141057599Y-55587900D01*
X140837900Y-55807599D01*
X140750000Y-56019808D01*
X140662100Y-55807599D01*
X140442401Y-55587900D01*
X140155351Y-55469000D01*
X139844649Y-55469000D01*
X139557599Y-55587900D01*
X139401499Y-55744000D01*
X133299835Y-55744000D01*
X133250000Y-55734087D01*
X133052569Y-55773359D01*
X133001325Y-55807599D01*
X132885194Y-55885194D01*
X132856965Y-55927442D01*
X130087447Y-58696961D01*
X130045194Y-58725194D01*
X129933359Y-58892570D01*
X129905823Y-59031000D01*
X129894087Y-59090000D01*
X129904000Y-59139834D01*
X129904001Y-60491166D01*
X129677505Y-60642505D01*
X129452949Y-60978578D01*
X129394000Y-61274936D01*
X128886000Y-61274936D01*
X128886000Y-61274935D01*
X128827051Y-60978577D01*
X128602495Y-60642505D01*
X128266422Y-60417949D01*
X127870000Y-60339096D01*
X127473577Y-60417949D01*
X127137505Y-60642505D01*
X126912949Y-60978578D01*
X126854000Y-61274936D01*
X126346000Y-61274936D01*
X126346000Y-61274935D01*
X126287051Y-60978577D01*
X126062495Y-60642505D01*
X125726422Y-60417949D01*
X125330000Y-60339096D01*
X124933577Y-60417949D01*
X124597505Y-60642505D01*
X124372949Y-60978578D01*
X124314000Y-61274936D01*
X123806000Y-61274936D01*
X123806000Y-61274935D01*
X123747051Y-60978577D01*
X123522495Y-60642505D01*
X123186422Y-60417949D01*
X122790000Y-60339096D01*
X122393577Y-60417949D01*
X122057505Y-60642505D01*
X121832949Y-60978578D01*
X121774000Y-61274936D01*
X121266000Y-61274936D01*
X121266000Y-61274935D01*
X121207051Y-60978577D01*
X120982495Y-60642505D01*
X120646422Y-60417949D01*
X120250000Y-60339096D01*
X119853577Y-60417949D01*
X119517505Y-60642505D01*
X119292949Y-60978578D01*
X119234000Y-61274936D01*
X118586000Y-61274936D01*
X118586000Y-61274935D01*
X118527051Y-60978577D01*
X118302495Y-60642505D01*
X117966422Y-60417949D01*
X117570000Y-60339096D01*
X117173577Y-60417949D01*
X116837505Y-60642505D01*
X116612949Y-60978578D01*
X116554000Y-61274936D01*
X116046000Y-61274936D01*
X116046000Y-61274935D01*
X115987051Y-60978577D01*
X115762495Y-60642505D01*
X115426422Y-60417949D01*
X115030000Y-60339096D01*
X114633577Y-60417949D01*
X114297505Y-60642505D01*
X114072949Y-60978578D01*
X114014000Y-61274936D01*
X113506000Y-61274936D01*
X113506000Y-61274935D01*
X113447051Y-60978577D01*
X113222495Y-60642505D01*
X112886422Y-60417949D01*
X112490000Y-60339096D01*
X112093577Y-60417949D01*
X111757505Y-60642505D01*
X111532949Y-60978578D01*
X111474000Y-61274936D01*
X110966000Y-61274936D01*
X110966000Y-61274935D01*
X110907051Y-60978577D01*
X110682495Y-60642505D01*
X110346422Y-60417949D01*
X109950000Y-60339096D01*
X109553577Y-60417949D01*
X109217505Y-60642505D01*
X108992949Y-60978578D01*
X108934000Y-61274936D01*
X108426000Y-61274936D01*
X108426000Y-61274935D01*
X108367051Y-60978577D01*
X108142495Y-60642505D01*
X107806422Y-60417949D01*
X107410000Y-60339096D01*
X107013577Y-60417949D01*
X106677505Y-60642505D01*
X106452949Y-60978578D01*
X106394000Y-61274936D01*
X105886000Y-61274936D01*
X105886000Y-61274935D01*
X105827051Y-60978577D01*
X105602495Y-60642505D01*
X105266422Y-60417949D01*
X104870000Y-60339096D01*
X104473577Y-60417949D01*
X104137505Y-60642505D01*
X103912949Y-60978578D01*
X103854000Y-61274936D01*
X103346000Y-61274936D01*
X103346000Y-61274935D01*
X103287051Y-60978577D01*
X103062495Y-60642505D01*
X102726422Y-60417949D01*
X102330000Y-60339096D01*
X101933577Y-60417949D01*
X101597505Y-60642505D01*
X101372949Y-60978578D01*
X101314000Y-61274936D01*
X100806000Y-61274936D01*
X100806000Y-61274935D01*
X100747051Y-60978577D01*
X100522495Y-60642505D01*
X100186422Y-60417949D01*
X99790000Y-60339096D01*
X99393577Y-60417949D01*
X99057505Y-60642505D01*
X98832949Y-60978578D01*
X98774000Y-61274936D01*
X98266000Y-61274936D01*
X98266000Y-61274935D01*
X98207051Y-60978577D01*
X97982495Y-60642505D01*
X97646422Y-60417949D01*
X97250000Y-60339096D01*
X96853577Y-60417949D01*
X96517505Y-60642505D01*
X96292949Y-60978578D01*
X96234000Y-61274936D01*
X95456000Y-61274936D01*
X95456000Y-46326193D01*
X96288422Y-45761335D01*
X96234000Y-46034936D01*
X96234000Y-46965065D01*
X96292950Y-47261423D01*
X96517506Y-47597495D01*
X96853578Y-47822051D01*
X97250000Y-47900904D01*
X97646423Y-47822051D01*
X97982495Y-47597495D01*
X98207051Y-47261423D01*
X98266000Y-46965064D01*
X98266000Y-46034935D01*
X98207051Y-45738577D01*
X97982495Y-45402505D01*
X97646422Y-45177949D01*
X97261100Y-45101304D01*
X100571311Y-42855089D01*
X100617333Y-42798601D01*
X100627000Y-42750000D01*
X100627000Y-41842630D01*
X100644000Y-41853989D01*
X100644001Y-45584351D01*
X100522495Y-45402505D01*
X100186422Y-45177949D01*
X99790000Y-45099096D01*
X99393577Y-45177949D01*
X99057505Y-45402505D01*
X98832949Y-45738578D01*
X98774000Y-46034936D01*
X98774000Y-46965065D01*
X98832950Y-47261423D01*
X99057506Y-47597495D01*
X99393578Y-47822051D01*
X99790000Y-47900904D01*
X100186423Y-47822051D01*
X100522495Y-47597495D01*
X100644001Y-47415649D01*
X100644001Y-50200161D01*
X100634087Y-50250000D01*
X100663414Y-50397430D01*
X100673360Y-50447431D01*
X100785195Y-50614806D01*
X100827446Y-50643037D01*
X102919000Y-52734592D01*
X102919000Y-52955351D01*
X103037900Y-53242401D01*
X103257599Y-53462100D01*
X103544649Y-53581000D01*
X103855351Y-53581000D01*
X104142401Y-53462100D01*
X104362100Y-53242401D01*
X104481000Y-52955351D01*
X104481000Y-52644649D01*
X104362100Y-52357599D01*
X104142401Y-52137900D01*
X103855351Y-52019000D01*
X103634592Y-52019000D01*
X101656000Y-50040409D01*
X101656000Y-47636579D01*
X101933578Y-47822051D01*
X102330000Y-47900904D01*
X102726423Y-47822051D01*
X103062495Y-47597495D01*
X103094000Y-47550344D01*
X103094000Y-50150166D01*
X103084087Y-50200000D01*
X103094000Y-50249834D01*
X103123359Y-50397430D01*
X103235194Y-50564806D01*
X103277448Y-50593039D01*
X105794001Y-53109593D01*
X105794001Y-53201498D01*
X105637900Y-53357599D01*
X105519000Y-53644649D01*
X105519000Y-53955351D01*
X105637900Y-54242401D01*
X105857599Y-54462100D01*
X106144649Y-54581000D01*
X106455351Y-54581000D01*
X106742401Y-54462100D01*
X106962100Y-54242401D01*
X107081000Y-53955351D01*
X107081000Y-53644649D01*
X106962100Y-53357599D01*
X106806000Y-53201499D01*
X106806000Y-52949835D01*
X106815913Y-52900000D01*
X106776641Y-52702568D01*
X106718000Y-52614806D01*
X106664806Y-52535194D01*
X106622555Y-52506963D01*
X104106000Y-49990409D01*
X104106000Y-49094649D01*
X131719000Y-49094649D01*
X131719000Y-49405351D01*
X131837900Y-49692401D01*
X132057599Y-49912100D01*
X132344649Y-50031000D01*
X132655351Y-50031000D01*
X132768529Y-49984120D01*
X134219000Y-51434593D01*
X134219000Y-51655351D01*
X134337900Y-51942401D01*
X134557599Y-52162100D01*
X134844649Y-52281000D01*
X135155351Y-52281000D01*
X135442401Y-52162100D01*
X135459852Y-52144649D01*
X141719000Y-52144649D01*
X141719000Y-52455351D01*
X141837900Y-52742401D01*
X142057599Y-52962100D01*
X142344649Y-53081000D01*
X142655351Y-53081000D01*
X142942401Y-52962100D01*
X143162100Y-52742401D01*
X143281000Y-52455351D01*
X143281000Y-52234591D01*
X147789686Y-47725906D01*
X147933578Y-47822051D01*
X148330000Y-47900904D01*
X148726423Y-47822051D01*
X149062495Y-47597495D01*
X149287051Y-47261423D01*
X149346000Y-46965064D01*
X149346000Y-46034936D01*
X149854000Y-46034936D01*
X149854000Y-46965065D01*
X149912950Y-47261423D01*
X150137506Y-47597495D01*
X150473578Y-47822051D01*
X150870000Y-47900904D01*
X151266423Y-47822051D01*
X151602495Y-47597495D01*
X151827051Y-47261423D01*
X151886000Y-46965064D01*
X151886000Y-46034936D01*
X152394000Y-46034936D01*
X152394000Y-46965065D01*
X152452950Y-47261423D01*
X152677506Y-47597495D01*
X153013578Y-47822051D01*
X153410000Y-47900904D01*
X153806423Y-47822051D01*
X154142495Y-47597495D01*
X154367051Y-47261423D01*
X154426000Y-46965064D01*
X154426000Y-46034936D01*
X154934000Y-46034936D01*
X154934000Y-46965065D01*
X154992950Y-47261423D01*
X155217506Y-47597495D01*
X155553578Y-47822051D01*
X155950000Y-47900904D01*
X156346423Y-47822051D01*
X156682495Y-47597495D01*
X156907051Y-47261423D01*
X156966000Y-46965064D01*
X156966000Y-46034936D01*
X157474000Y-46034936D01*
X157474000Y-46965065D01*
X157532950Y-47261423D01*
X157757506Y-47597495D01*
X158093578Y-47822051D01*
X158490000Y-47900904D01*
X158886423Y-47822051D01*
X159222495Y-47597495D01*
X159447051Y-47261423D01*
X159506000Y-46965064D01*
X159506000Y-46034936D01*
X160014000Y-46034936D01*
X160014000Y-46965065D01*
X160072950Y-47261423D01*
X160297506Y-47597495D01*
X160494001Y-47728789D01*
X160494000Y-52401499D01*
X160337900Y-52557599D01*
X160219000Y-52844649D01*
X160219000Y-53155351D01*
X160337900Y-53442401D01*
X160557599Y-53662100D01*
X160844649Y-53781000D01*
X161155351Y-53781000D01*
X161442401Y-53662100D01*
X161662100Y-53442401D01*
X161781000Y-53155351D01*
X161781000Y-52844649D01*
X161662100Y-52557599D01*
X161506000Y-52401499D01*
X161506000Y-47768879D01*
X161762495Y-47597495D01*
X161987051Y-47261423D01*
X162046000Y-46965064D01*
X162046000Y-46034936D01*
X162554000Y-46034936D01*
X162554000Y-46965065D01*
X162612950Y-47261423D01*
X162837506Y-47597495D01*
X163173578Y-47822051D01*
X163570000Y-47900904D01*
X163966423Y-47822051D01*
X164302495Y-47597495D01*
X164527051Y-47261423D01*
X164586000Y-46965064D01*
X164586000Y-46034936D01*
X165234000Y-46034936D01*
X165234000Y-46965065D01*
X165292950Y-47261423D01*
X165517506Y-47597495D01*
X165853578Y-47822051D01*
X166250000Y-47900904D01*
X166646423Y-47822051D01*
X166982495Y-47597495D01*
X167207051Y-47261423D01*
X167266000Y-46965064D01*
X167266000Y-46034935D01*
X167207051Y-45738577D01*
X166982495Y-45402505D01*
X166756000Y-45251166D01*
X166756000Y-40848501D01*
X166759852Y-40844649D01*
X167719000Y-40844649D01*
X167719000Y-41155351D01*
X167837900Y-41442401D01*
X167994000Y-41598501D01*
X167994001Y-45497546D01*
X167832949Y-45738578D01*
X167774000Y-46034936D01*
X167774000Y-46965065D01*
X167832950Y-47261423D01*
X168057506Y-47597495D01*
X168393578Y-47822051D01*
X168790000Y-47900904D01*
X169186423Y-47822051D01*
X169522495Y-47597495D01*
X169747051Y-47261423D01*
X169806000Y-46965064D01*
X169806000Y-46034936D01*
X170314000Y-46034936D01*
X170314000Y-46965065D01*
X170372950Y-47261423D01*
X170597506Y-47597495D01*
X170744001Y-47695380D01*
X170744000Y-51651499D01*
X170587900Y-51807599D01*
X170469000Y-52094649D01*
X170469000Y-52405351D01*
X170587900Y-52692401D01*
X170807599Y-52912100D01*
X171094649Y-53031000D01*
X171405351Y-53031000D01*
X171692401Y-52912100D01*
X171912100Y-52692401D01*
X172031000Y-52405351D01*
X172031000Y-52094649D01*
X171912100Y-51807599D01*
X171756000Y-51651499D01*
X171756000Y-47802288D01*
X172062495Y-47597495D01*
X172287051Y-47261423D01*
X172346000Y-46965064D01*
X172346000Y-46034936D01*
X172854000Y-46034936D01*
X172854000Y-46965065D01*
X172912950Y-47261423D01*
X173137506Y-47597495D01*
X173473578Y-47822051D01*
X173870000Y-47900904D01*
X174266423Y-47822051D01*
X174602495Y-47597495D01*
X174827051Y-47261423D01*
X174886000Y-46965064D01*
X174886000Y-46034936D01*
X175394000Y-46034936D01*
X175394000Y-46965065D01*
X175452950Y-47261423D01*
X175677506Y-47597495D01*
X176013578Y-47822051D01*
X176410000Y-47900904D01*
X176806423Y-47822051D01*
X177142495Y-47597495D01*
X177367051Y-47261423D01*
X177426000Y-46965064D01*
X177426000Y-46034936D01*
X177934000Y-46034936D01*
X177934000Y-46965065D01*
X177992950Y-47261423D01*
X178217506Y-47597495D01*
X178494001Y-47782243D01*
X178494000Y-55651499D01*
X178337900Y-55807599D01*
X178219000Y-56094649D01*
X178219000Y-56405351D01*
X178337900Y-56692401D01*
X178557599Y-56912100D01*
X178844649Y-57031000D01*
X179155351Y-57031000D01*
X179442401Y-56912100D01*
X179662100Y-56692401D01*
X179781000Y-56405351D01*
X179781000Y-56094649D01*
X179662100Y-55807599D01*
X179506000Y-55651499D01*
X179506000Y-47715425D01*
X179682495Y-47597495D01*
X179907051Y-47261423D01*
X179966000Y-46965064D01*
X179966000Y-46034936D01*
X180474000Y-46034936D01*
X180474000Y-46965065D01*
X180532950Y-47261423D01*
X180757506Y-47597495D01*
X180994001Y-47755516D01*
X180994000Y-56401499D01*
X180837900Y-56557599D01*
X180719000Y-56844649D01*
X180719000Y-57155351D01*
X180837900Y-57442401D01*
X181057599Y-57662100D01*
X181344649Y-57781000D01*
X181655351Y-57781000D01*
X181942401Y-57662100D01*
X182162100Y-57442401D01*
X182281000Y-57155351D01*
X182281000Y-56844649D01*
X182162100Y-56557599D01*
X182006000Y-56401499D01*
X182006000Y-47742152D01*
X182222495Y-47597495D01*
X182447051Y-47261423D01*
X182506000Y-46965064D01*
X182506000Y-46034936D01*
X183014000Y-46034936D01*
X183014000Y-46965065D01*
X183072950Y-47261423D01*
X183297506Y-47597495D01*
X183633578Y-47822051D01*
X184030000Y-47900904D01*
X184426423Y-47822051D01*
X184762495Y-47597495D01*
X184987051Y-47261423D01*
X185046000Y-46965064D01*
X185046000Y-46034936D01*
X185554000Y-46034936D01*
X185554000Y-46965065D01*
X185612950Y-47261423D01*
X185837506Y-47597495D01*
X185994001Y-47702061D01*
X185994000Y-57651499D01*
X185837900Y-57807599D01*
X185719000Y-58094649D01*
X185719000Y-58405351D01*
X185837900Y-58692401D01*
X186057599Y-58912100D01*
X186344649Y-59031000D01*
X186655351Y-59031000D01*
X186942401Y-58912100D01*
X187162100Y-58692401D01*
X187281000Y-58405351D01*
X187281000Y-58094649D01*
X187162100Y-57807599D01*
X187006000Y-57651499D01*
X187006000Y-47795607D01*
X187302495Y-47597495D01*
X187527051Y-47261423D01*
X187586000Y-46965064D01*
X187586000Y-46034935D01*
X187527051Y-45738577D01*
X187302495Y-45402505D01*
X186966422Y-45177949D01*
X186570000Y-45099096D01*
X186173577Y-45177949D01*
X185837505Y-45402505D01*
X185612949Y-45738578D01*
X185554000Y-46034936D01*
X185046000Y-46034936D01*
X185046000Y-46034935D01*
X184987051Y-45738577D01*
X184762495Y-45402505D01*
X184426422Y-45177949D01*
X184030000Y-45099096D01*
X183633577Y-45177949D01*
X183297505Y-45402505D01*
X183072949Y-45738578D01*
X183014000Y-46034936D01*
X182506000Y-46034936D01*
X182506000Y-46034935D01*
X182447051Y-45738577D01*
X182222495Y-45402505D01*
X182006000Y-45257848D01*
X182006000Y-44598501D01*
X182162100Y-44442401D01*
X182281000Y-44155351D01*
X182281000Y-43844649D01*
X182162100Y-43557599D01*
X181942401Y-43337900D01*
X181655351Y-43219000D01*
X181344649Y-43219000D01*
X181057599Y-43337900D01*
X180837900Y-43557599D01*
X180719000Y-43844649D01*
X180719000Y-44155351D01*
X180837900Y-44442401D01*
X180994000Y-44598501D01*
X180994000Y-45244484D01*
X180757505Y-45402505D01*
X180532949Y-45738578D01*
X180474000Y-46034936D01*
X179966000Y-46034936D01*
X179966000Y-46034935D01*
X179907051Y-45738577D01*
X179682495Y-45402505D01*
X179506000Y-45284575D01*
X179506000Y-43848501D01*
X179662100Y-43692401D01*
X179781000Y-43405351D01*
X179781000Y-43094649D01*
X179662100Y-42807599D01*
X179442401Y-42587900D01*
X179155351Y-42469000D01*
X178844649Y-42469000D01*
X178557599Y-42587900D01*
X178337900Y-42807599D01*
X178219000Y-43094649D01*
X178219000Y-43405351D01*
X178337900Y-43692401D01*
X178494000Y-43848501D01*
X178494001Y-45217757D01*
X178217505Y-45402505D01*
X177992949Y-45738578D01*
X177934000Y-46034936D01*
X177426000Y-46034936D01*
X177426000Y-46034935D01*
X177367051Y-45738577D01*
X177142495Y-45402505D01*
X176806422Y-45177949D01*
X176756000Y-45167919D01*
X176756000Y-43098501D01*
X176912100Y-42942401D01*
X177031000Y-42655351D01*
X177031000Y-42344649D01*
X176912100Y-42057599D01*
X176692401Y-41837900D01*
X176405351Y-41719000D01*
X176094649Y-41719000D01*
X175807599Y-41837900D01*
X175587900Y-42057599D01*
X175469000Y-42344649D01*
X175469000Y-42655351D01*
X175587900Y-42942401D01*
X175744000Y-43098501D01*
X175744001Y-45358074D01*
X175677505Y-45402505D01*
X175452949Y-45738578D01*
X175394000Y-46034936D01*
X174886000Y-46034936D01*
X174886000Y-46034935D01*
X174827051Y-45738577D01*
X174602495Y-45402505D01*
X174266422Y-45177949D01*
X174256000Y-45175876D01*
X174256000Y-42348501D01*
X174412100Y-42192401D01*
X174531000Y-41905351D01*
X174531000Y-41594649D01*
X174412100Y-41307599D01*
X174192401Y-41087900D01*
X173905351Y-40969000D01*
X173594649Y-40969000D01*
X173307599Y-41087900D01*
X173087900Y-41307599D01*
X172969000Y-41594649D01*
X172969000Y-41905351D01*
X173087900Y-42192401D01*
X173244000Y-42348501D01*
X173244001Y-45331347D01*
X173137505Y-45402505D01*
X172912949Y-45738578D01*
X172854000Y-46034936D01*
X172346000Y-46034936D01*
X172346000Y-46034935D01*
X172287051Y-45738577D01*
X172062495Y-45402505D01*
X171726422Y-45177949D01*
X171330000Y-45099096D01*
X170933577Y-45177949D01*
X170597505Y-45402505D01*
X170372949Y-45738578D01*
X170314000Y-46034936D01*
X169806000Y-46034936D01*
X169806000Y-46034935D01*
X169747051Y-45738577D01*
X169522495Y-45402505D01*
X169186422Y-45177949D01*
X169006000Y-45142061D01*
X169006000Y-41598501D01*
X169162100Y-41442401D01*
X169281000Y-41155351D01*
X169281000Y-40844649D01*
X169162100Y-40557599D01*
X168942401Y-40337900D01*
X168655351Y-40219000D01*
X168344649Y-40219000D01*
X168057599Y-40337900D01*
X167837900Y-40557599D01*
X167719000Y-40844649D01*
X166759852Y-40844649D01*
X166912100Y-40692401D01*
X167031000Y-40405351D01*
X167031000Y-40094649D01*
X166912100Y-39807599D01*
X166692401Y-39587900D01*
X166405351Y-39469000D01*
X166094649Y-39469000D01*
X165807599Y-39587900D01*
X165587900Y-39807599D01*
X165469000Y-40094649D01*
X165469000Y-40405351D01*
X165587900Y-40692401D01*
X165744000Y-40848501D01*
X165744001Y-45251165D01*
X165517505Y-45402505D01*
X165292949Y-45738578D01*
X165234000Y-46034936D01*
X164586000Y-46034936D01*
X164586000Y-46034935D01*
X164527051Y-45738577D01*
X164302495Y-45402505D01*
X163966422Y-45177949D01*
X163570000Y-45099096D01*
X163173577Y-45177949D01*
X162837505Y-45402505D01*
X162612949Y-45738578D01*
X162554000Y-46034936D01*
X162046000Y-46034936D01*
X162046000Y-46034935D01*
X161987051Y-45738577D01*
X161762495Y-45402505D01*
X161426422Y-45177949D01*
X161030000Y-45099096D01*
X160633577Y-45177949D01*
X160297505Y-45402505D01*
X160072949Y-45738578D01*
X160014000Y-46034936D01*
X159506000Y-46034936D01*
X159506000Y-46034935D01*
X159447051Y-45738577D01*
X159222495Y-45402505D01*
X158996000Y-45251166D01*
X158996000Y-44608501D01*
X159162100Y-44442401D01*
X159281000Y-44155351D01*
X159281000Y-43844649D01*
X159162100Y-43557599D01*
X158942401Y-43337900D01*
X158655351Y-43219000D01*
X158344649Y-43219000D01*
X158057599Y-43337900D01*
X157837900Y-43557599D01*
X157719000Y-43844649D01*
X157719000Y-44155351D01*
X157837900Y-44442401D01*
X157984001Y-44588502D01*
X157984001Y-45251166D01*
X157757505Y-45402505D01*
X157532949Y-45738578D01*
X157474000Y-46034936D01*
X156966000Y-46034936D01*
X156966000Y-46034935D01*
X156907051Y-45738577D01*
X156682495Y-45402505D01*
X156456000Y-45251166D01*
X156456000Y-43898501D01*
X156662100Y-43692401D01*
X156781000Y-43405351D01*
X156781000Y-43094649D01*
X156662100Y-42807599D01*
X156442401Y-42587900D01*
X156155351Y-42469000D01*
X155844649Y-42469000D01*
X155557599Y-42587900D01*
X155337900Y-42807599D01*
X155219000Y-43094649D01*
X155219000Y-43405351D01*
X155337900Y-43692401D01*
X155444001Y-43798502D01*
X155444000Y-45251166D01*
X155217505Y-45402505D01*
X154992949Y-45738578D01*
X154934000Y-46034936D01*
X154426000Y-46034936D01*
X154426000Y-46034935D01*
X154367051Y-45738577D01*
X154142495Y-45402505D01*
X153916000Y-45251166D01*
X153916000Y-43173036D01*
X153942401Y-43162100D01*
X154162100Y-42942401D01*
X154281000Y-42655351D01*
X154281000Y-42344649D01*
X154162100Y-42057599D01*
X153942401Y-41837900D01*
X153655351Y-41719000D01*
X153344649Y-41719000D01*
X153057599Y-41837900D01*
X152837900Y-42057599D01*
X152719000Y-42344649D01*
X152719000Y-42655351D01*
X152837900Y-42942401D01*
X152904001Y-43008502D01*
X152904000Y-45251166D01*
X152677505Y-45402505D01*
X152452949Y-45738578D01*
X152394000Y-46034936D01*
X151886000Y-46034936D01*
X151886000Y-46034935D01*
X151827051Y-45738577D01*
X151602495Y-45402505D01*
X151376000Y-45251166D01*
X151376000Y-42228501D01*
X151412100Y-42192401D01*
X151531000Y-41905351D01*
X151531000Y-41594649D01*
X151412100Y-41307599D01*
X151192401Y-41087900D01*
X150905351Y-40969000D01*
X150594649Y-40969000D01*
X150307599Y-41087900D01*
X150087900Y-41307599D01*
X149969000Y-41594649D01*
X149969000Y-41905351D01*
X150087900Y-42192401D01*
X150307599Y-42412100D01*
X150364001Y-42435462D01*
X150364000Y-45251166D01*
X150137505Y-45402505D01*
X149912949Y-45738578D01*
X149854000Y-46034936D01*
X149346000Y-46034936D01*
X149346000Y-46034935D01*
X149287051Y-45738577D01*
X149062495Y-45402505D01*
X148726422Y-45177949D01*
X148330000Y-45099096D01*
X147933577Y-45177949D01*
X147597505Y-45402505D01*
X147372949Y-45738578D01*
X147314000Y-46034936D01*
X147314000Y-46770408D01*
X146594145Y-47490263D01*
X146747051Y-47261423D01*
X146806000Y-46965064D01*
X146806000Y-46034935D01*
X146747051Y-45738577D01*
X146522495Y-45402505D01*
X146296000Y-45251166D01*
X146296000Y-41558501D01*
X146412100Y-41442401D01*
X146531000Y-41155351D01*
X146531000Y-40844649D01*
X146412100Y-40557599D01*
X146192401Y-40337900D01*
X145905351Y-40219000D01*
X145594649Y-40219000D01*
X145307599Y-40337900D01*
X145087900Y-40557599D01*
X144969000Y-40844649D01*
X144969000Y-41155351D01*
X145087900Y-41442401D01*
X145284001Y-41638502D01*
X145284000Y-45251166D01*
X145057505Y-45402505D01*
X144832949Y-45738578D01*
X144774000Y-46034936D01*
X144774000Y-46965065D01*
X144832950Y-47261423D01*
X145057506Y-47597495D01*
X145393578Y-47822051D01*
X145790000Y-47900904D01*
X146186423Y-47822051D01*
X146415264Y-47669145D01*
X142565409Y-51519000D01*
X142344649Y-51519000D01*
X142057599Y-51637900D01*
X141837900Y-51857599D01*
X141719000Y-52144649D01*
X135459852Y-52144649D01*
X135662100Y-51942401D01*
X135781000Y-51655351D01*
X135781000Y-51344649D01*
X135662100Y-51057599D01*
X135442401Y-50837900D01*
X135155351Y-50719000D01*
X134934593Y-50719000D01*
X133260324Y-49044733D01*
X133162100Y-48807599D01*
X132942401Y-48587900D01*
X132655351Y-48469000D01*
X132344649Y-48469000D01*
X132057599Y-48587900D01*
X131837900Y-48807599D01*
X131719000Y-49094649D01*
X104106000Y-49094649D01*
X104106000Y-47550343D01*
X104137506Y-47597495D01*
X104473578Y-47822051D01*
X104870000Y-47900904D01*
X105266423Y-47822051D01*
X105602495Y-47597495D01*
X105827051Y-47261423D01*
X105886000Y-46965064D01*
X105886000Y-46034936D01*
X106394000Y-46034936D01*
X106394000Y-46965065D01*
X106452950Y-47261423D01*
X106677506Y-47597495D01*
X107013578Y-47822051D01*
X107410000Y-47900904D01*
X107806423Y-47822051D01*
X108142495Y-47597495D01*
X108367051Y-47261423D01*
X108426000Y-46965064D01*
X108426000Y-46034936D01*
X108934000Y-46034936D01*
X108934000Y-46965065D01*
X108992950Y-47261423D01*
X109217506Y-47597495D01*
X109553578Y-47822051D01*
X109950000Y-47900904D01*
X110346423Y-47822051D01*
X110682495Y-47597495D01*
X110907051Y-47261423D01*
X110966000Y-46965064D01*
X110966000Y-46034936D01*
X111474000Y-46034936D01*
X111474000Y-46965065D01*
X111532950Y-47261423D01*
X111757506Y-47597495D01*
X112093578Y-47822051D01*
X112490000Y-47900904D01*
X112886423Y-47822051D01*
X113222495Y-47597495D01*
X113447051Y-47261423D01*
X113506000Y-46965064D01*
X113506000Y-46034936D01*
X114014000Y-46034936D01*
X114014000Y-46965065D01*
X114072950Y-47261423D01*
X114297506Y-47597495D01*
X114633578Y-47822051D01*
X115030000Y-47900904D01*
X115426423Y-47822051D01*
X115762495Y-47597495D01*
X115987051Y-47261423D01*
X116046000Y-46965064D01*
X116046000Y-46034936D01*
X116554000Y-46034936D01*
X116554000Y-46965065D01*
X116612950Y-47261423D01*
X116837506Y-47597495D01*
X117173578Y-47822051D01*
X117570000Y-47900904D01*
X117966423Y-47822051D01*
X118302495Y-47597495D01*
X118527051Y-47261423D01*
X118586000Y-46965064D01*
X118586000Y-46034936D01*
X119234000Y-46034936D01*
X119234000Y-46965065D01*
X119292950Y-47261423D01*
X119517506Y-47597495D01*
X119853578Y-47822051D01*
X120250000Y-47900904D01*
X120646423Y-47822051D01*
X120982495Y-47597495D01*
X121207051Y-47261423D01*
X121266000Y-46965064D01*
X121266000Y-46034936D01*
X121774000Y-46034936D01*
X121774000Y-46965065D01*
X121832950Y-47261423D01*
X122057506Y-47597495D01*
X122393578Y-47822051D01*
X122790000Y-47900904D01*
X123186423Y-47822051D01*
X123522495Y-47597495D01*
X123747051Y-47261423D01*
X123806000Y-46965064D01*
X123806000Y-46034936D01*
X124314000Y-46034936D01*
X124314000Y-46965065D01*
X124372950Y-47261423D01*
X124597506Y-47597495D01*
X124933578Y-47822051D01*
X125330000Y-47900904D01*
X125726423Y-47822051D01*
X126062495Y-47597495D01*
X126287051Y-47261423D01*
X126346000Y-46965064D01*
X126346000Y-46034936D01*
X126854000Y-46034936D01*
X126854000Y-46965065D01*
X126912950Y-47261423D01*
X127137506Y-47597495D01*
X127473578Y-47822051D01*
X127870000Y-47900904D01*
X128266423Y-47822051D01*
X128602495Y-47597495D01*
X128827051Y-47261423D01*
X128886000Y-46965064D01*
X128886000Y-46034936D01*
X129394000Y-46034936D01*
X129394000Y-46965065D01*
X129452950Y-47261423D01*
X129677506Y-47597495D01*
X130013578Y-47822051D01*
X130410000Y-47900904D01*
X130806423Y-47822051D01*
X131142495Y-47597495D01*
X131367051Y-47261423D01*
X131426000Y-46965064D01*
X131426000Y-46034936D01*
X131934000Y-46034936D01*
X131934000Y-46965065D01*
X131992950Y-47261423D01*
X132217506Y-47597495D01*
X132553578Y-47822051D01*
X132950000Y-47900904D01*
X133346423Y-47822051D01*
X133682495Y-47597495D01*
X133907051Y-47261423D01*
X133966000Y-46965064D01*
X133966000Y-46034936D01*
X134474000Y-46034936D01*
X134474000Y-46965065D01*
X134532950Y-47261423D01*
X134757506Y-47597495D01*
X135093578Y-47822051D01*
X135490000Y-47900904D01*
X135886423Y-47822051D01*
X136222495Y-47597495D01*
X136447051Y-47261423D01*
X136506000Y-46965064D01*
X136506000Y-46034936D01*
X137014000Y-46034936D01*
X137014000Y-46965065D01*
X137072950Y-47261423D01*
X137297506Y-47597495D01*
X137633578Y-47822051D01*
X138030000Y-47900904D01*
X138426423Y-47822051D01*
X138762495Y-47597495D01*
X138987051Y-47261423D01*
X139046000Y-46965064D01*
X139046000Y-46034936D01*
X139554000Y-46034936D01*
X139554000Y-46965065D01*
X139612950Y-47261423D01*
X139837506Y-47597495D01*
X140173578Y-47822051D01*
X140570000Y-47900904D01*
X140966423Y-47822051D01*
X141302495Y-47597495D01*
X141527051Y-47261423D01*
X141586000Y-46965064D01*
X141586000Y-46034936D01*
X142234000Y-46034936D01*
X142234000Y-46965065D01*
X142292950Y-47261423D01*
X142517506Y-47597495D01*
X142853578Y-47822051D01*
X143250000Y-47900904D01*
X143646423Y-47822051D01*
X143982495Y-47597495D01*
X144207051Y-47261423D01*
X144266000Y-46965064D01*
X144266000Y-46034935D01*
X144207051Y-45738577D01*
X143982495Y-45402505D01*
X143756000Y-45251166D01*
X143756000Y-40848501D01*
X143912100Y-40692401D01*
X144031000Y-40405351D01*
X144031000Y-40094649D01*
X143912100Y-39807599D01*
X143692401Y-39587900D01*
X143405351Y-39469000D01*
X143094649Y-39469000D01*
X142807599Y-39587900D01*
X142587900Y-39807599D01*
X142469000Y-40094649D01*
X142469000Y-40405351D01*
X142587900Y-40692401D01*
X142744001Y-40848502D01*
X142744000Y-45251166D01*
X142517505Y-45402505D01*
X142292949Y-45738578D01*
X142234000Y-46034936D01*
X141586000Y-46034936D01*
X141586000Y-46034935D01*
X141527051Y-45738577D01*
X141302495Y-45402505D01*
X140966422Y-45177949D01*
X140570000Y-45099096D01*
X140173577Y-45177949D01*
X139837505Y-45402505D01*
X139612949Y-45738578D01*
X139554000Y-46034936D01*
X139046000Y-46034936D01*
X139046000Y-46034935D01*
X138987051Y-45738577D01*
X138762495Y-45402505D01*
X138426422Y-45177949D01*
X138030000Y-45099096D01*
X137633577Y-45177949D01*
X137297505Y-45402505D01*
X137072949Y-45738578D01*
X137014000Y-46034936D01*
X136506000Y-46034936D01*
X136506000Y-46034935D01*
X136447051Y-45738577D01*
X136222495Y-45402505D01*
X135996000Y-45251166D01*
X135996000Y-44608501D01*
X136162100Y-44442401D01*
X136281000Y-44155351D01*
X136281000Y-43844649D01*
X136162100Y-43557599D01*
X135942401Y-43337900D01*
X135655351Y-43219000D01*
X135344649Y-43219000D01*
X135057599Y-43337900D01*
X134837900Y-43557599D01*
X134719000Y-43844649D01*
X134719000Y-44155351D01*
X134837900Y-44442401D01*
X134984001Y-44588502D01*
X134984001Y-45251166D01*
X134757505Y-45402505D01*
X134532949Y-45738578D01*
X134474000Y-46034936D01*
X133966000Y-46034936D01*
X133966000Y-46034935D01*
X133907051Y-45738577D01*
X133682495Y-45402505D01*
X133456000Y-45251166D01*
X133456000Y-43898501D01*
X133662100Y-43692401D01*
X133781000Y-43405351D01*
X133781000Y-43094649D01*
X133662100Y-42807599D01*
X133442401Y-42587900D01*
X133155351Y-42469000D01*
X132844649Y-42469000D01*
X132557599Y-42587900D01*
X132337900Y-42807599D01*
X132219000Y-43094649D01*
X132219000Y-43405351D01*
X132337900Y-43692401D01*
X132444001Y-43798502D01*
X132444000Y-45251166D01*
X132217505Y-45402505D01*
X131992949Y-45738578D01*
X131934000Y-46034936D01*
X131426000Y-46034936D01*
X131426000Y-46034935D01*
X131367051Y-45738577D01*
X131142495Y-45402505D01*
X130916000Y-45251166D01*
X130916000Y-43173036D01*
X130942401Y-43162100D01*
X131162100Y-42942401D01*
X131281000Y-42655351D01*
X131281000Y-42344649D01*
X131162100Y-42057599D01*
X130942401Y-41837900D01*
X130655351Y-41719000D01*
X130344649Y-41719000D01*
X130057599Y-41837900D01*
X129837900Y-42057599D01*
X129719000Y-42344649D01*
X129719000Y-42655351D01*
X129837900Y-42942401D01*
X129904001Y-43008502D01*
X129904000Y-45251166D01*
X129677505Y-45402505D01*
X129452949Y-45738578D01*
X129394000Y-46034936D01*
X128886000Y-46034936D01*
X128886000Y-46034935D01*
X128827051Y-45738577D01*
X128602495Y-45402505D01*
X128376000Y-45251166D01*
X128376000Y-42439604D01*
X128442401Y-42412100D01*
X128662100Y-42192401D01*
X128781000Y-41905351D01*
X128781000Y-41594649D01*
X128662100Y-41307599D01*
X128442401Y-41087900D01*
X128155351Y-40969000D01*
X127844649Y-40969000D01*
X127557599Y-41087900D01*
X127337900Y-41307599D01*
X127219000Y-41594649D01*
X127219000Y-41905351D01*
X127337900Y-42192401D01*
X127364001Y-42218502D01*
X127364000Y-45251166D01*
X127137505Y-45402505D01*
X126912949Y-45738578D01*
X126854000Y-46034936D01*
X126346000Y-46034936D01*
X126346000Y-46034935D01*
X126287051Y-45738577D01*
X126062495Y-45402505D01*
X125726422Y-45177949D01*
X125330000Y-45099096D01*
X124933577Y-45177949D01*
X124597505Y-45402505D01*
X124372949Y-45738578D01*
X124314000Y-46034936D01*
X123806000Y-46034936D01*
X123806000Y-46034935D01*
X123747051Y-45738577D01*
X123522495Y-45402505D01*
X123296000Y-45251166D01*
X123296000Y-41558501D01*
X123412100Y-41442401D01*
X123531000Y-41155351D01*
X123531000Y-40844649D01*
X123412100Y-40557599D01*
X123192401Y-40337900D01*
X122905351Y-40219000D01*
X122594649Y-40219000D01*
X122307599Y-40337900D01*
X122087900Y-40557599D01*
X121969000Y-40844649D01*
X121969000Y-41155351D01*
X122087900Y-41442401D01*
X122284001Y-41638502D01*
X122284000Y-45251166D01*
X122057505Y-45402505D01*
X121832949Y-45738578D01*
X121774000Y-46034936D01*
X121266000Y-46034936D01*
X121266000Y-46034935D01*
X121207051Y-45738577D01*
X120982495Y-45402505D01*
X120756000Y-45251166D01*
X120756000Y-40848501D01*
X120912100Y-40692401D01*
X121031000Y-40405351D01*
X121031000Y-40094649D01*
X120912100Y-39807599D01*
X120692401Y-39587900D01*
X120405351Y-39469000D01*
X120094649Y-39469000D01*
X119807599Y-39587900D01*
X119587900Y-39807599D01*
X119469000Y-40094649D01*
X119469000Y-40405351D01*
X119587900Y-40692401D01*
X119744001Y-40848502D01*
X119744000Y-45251166D01*
X119517505Y-45402505D01*
X119292949Y-45738578D01*
X119234000Y-46034936D01*
X118586000Y-46034936D01*
X118586000Y-46034935D01*
X118527051Y-45738577D01*
X118302495Y-45402505D01*
X117966422Y-45177949D01*
X117570000Y-45099096D01*
X117173577Y-45177949D01*
X116837505Y-45402505D01*
X116612949Y-45738578D01*
X116554000Y-46034936D01*
X116046000Y-46034936D01*
X116046000Y-46034935D01*
X115987051Y-45738577D01*
X115762495Y-45402505D01*
X115426422Y-45177949D01*
X115030000Y-45099096D01*
X114633577Y-45177949D01*
X114297505Y-45402505D01*
X114072949Y-45738578D01*
X114014000Y-46034936D01*
X113506000Y-46034936D01*
X113506000Y-46034935D01*
X113447051Y-45738577D01*
X113222495Y-45402505D01*
X112886422Y-45177949D01*
X112490000Y-45099096D01*
X112093577Y-45177949D01*
X111757505Y-45402505D01*
X111532949Y-45738578D01*
X111474000Y-46034936D01*
X110966000Y-46034936D01*
X110966000Y-46034935D01*
X110907051Y-45738577D01*
X110682495Y-45402505D01*
X110346422Y-45177949D01*
X109950000Y-45099096D01*
X109553577Y-45177949D01*
X109217505Y-45402505D01*
X108992949Y-45738578D01*
X108934000Y-46034936D01*
X108426000Y-46034936D01*
X108426000Y-46034935D01*
X108367051Y-45738577D01*
X108142495Y-45402505D01*
X107806422Y-45177949D01*
X107410000Y-45099096D01*
X107013577Y-45177949D01*
X106677505Y-45402505D01*
X106452949Y-45738578D01*
X106394000Y-46034936D01*
X105886000Y-46034936D01*
X105886000Y-46034935D01*
X105827051Y-45738577D01*
X105602495Y-45402505D01*
X105266422Y-45177949D01*
X104870000Y-45099096D01*
X104473577Y-45177949D01*
X104137505Y-45402505D01*
X104106000Y-45449656D01*
X104106000Y-44849833D01*
X104115913Y-44799999D01*
X104105486Y-44747579D01*
X104076641Y-44602569D01*
X103964806Y-44435194D01*
X103922555Y-44406963D01*
X102756000Y-43240409D01*
X102756000Y-41853989D01*
X102800000Y-41824589D01*
X102851341Y-41858894D01*
X103000000Y-41888464D01*
X103700000Y-41888464D01*
X103848659Y-41858894D01*
X103900000Y-41824589D01*
X103951341Y-41858894D01*
X104100000Y-41888464D01*
X104800000Y-41888464D01*
X104948659Y-41858894D01*
X105000000Y-41824589D01*
X105051341Y-41858894D01*
X105200000Y-41888464D01*
X105900000Y-41888464D01*
X106048659Y-41858894D01*
X106100000Y-41824589D01*
X106151341Y-41858894D01*
X106300000Y-41888464D01*
X107000000Y-41888464D01*
X107148659Y-41858894D01*
X107200000Y-41824589D01*
X107251341Y-41858894D01*
X107400000Y-41888464D01*
X108100000Y-41888464D01*
X108248659Y-41858894D01*
X108300000Y-41824589D01*
X108351341Y-41858894D01*
X108500000Y-41888464D01*
X109200000Y-41888464D01*
X109348659Y-41858894D01*
X109474686Y-41774686D01*
X109558894Y-41648659D01*
X109588464Y-41500000D01*
X109588464Y-39500000D01*
X109558894Y-39351341D01*
X109474686Y-39225314D01*
X109348659Y-39141106D01*
X109200000Y-39111536D01*
X108500000Y-39111536D01*
X108366388Y-39138113D01*
X108462100Y-39042401D01*
X108581000Y-38755351D01*
X108581000Y-38444649D01*
X108462100Y-38157599D01*
X108242401Y-37937900D01*
X107955351Y-37819000D01*
X107644649Y-37819000D01*
X107481000Y-37886786D01*
X107481000Y-37744649D01*
X107362100Y-37457599D01*
X107142401Y-37237900D01*
X106855351Y-37119000D01*
X106581000Y-37119000D01*
X106581000Y-36844649D01*
X106462100Y-36557599D01*
X106242401Y-36337900D01*
X105955351Y-36219000D01*
X105644649Y-36219000D01*
X105481000Y-36286786D01*
X105481000Y-36044649D01*
X105362100Y-35757599D01*
X105142401Y-35537900D01*
X104855351Y-35419000D01*
X104544649Y-35419000D01*
X104281000Y-35528207D01*
X104281000Y-35344649D01*
X104162100Y-35057599D01*
X103942401Y-34837900D01*
X103655351Y-34719000D01*
X103344649Y-34719000D01*
X103057599Y-34837900D01*
X102837900Y-35057599D01*
X102719000Y-35344649D01*
X102719000Y-35655351D01*
X102837900Y-35942401D01*
X102844001Y-35948502D01*
X102844000Y-39146011D01*
X102800000Y-39175411D01*
X102748659Y-39141106D01*
X102600000Y-39111536D01*
X101900000Y-39111536D01*
X101751341Y-39141106D01*
X101700000Y-39175411D01*
X101648659Y-39141106D01*
X101500000Y-39111536D01*
X100800000Y-39111536D01*
X100651341Y-39141106D01*
X100627000Y-39157370D01*
X100627000Y-27342630D01*
X100651341Y-27358894D01*
X100800000Y-27388464D01*
X101500000Y-27388464D01*
X101648659Y-27358894D01*
X101700000Y-27324589D01*
X101751341Y-27358894D01*
X101900000Y-27388464D01*
X102600000Y-27388464D01*
X102748659Y-27358894D01*
X102800000Y-27324589D01*
X102842507Y-27352992D01*
X102737900Y-27457599D01*
X102619000Y-27744649D01*
X102619000Y-28055351D01*
X102737900Y-28342401D01*
X102957599Y-28562100D01*
X103244649Y-28681000D01*
X103555351Y-28681000D01*
X103842401Y-28562100D01*
X103950000Y-28454501D01*
X104057599Y-28562100D01*
X104344649Y-28681000D01*
X104655351Y-28681000D01*
X104942401Y-28562100D01*
X105162100Y-28342401D01*
X105281000Y-28055351D01*
X105281000Y-27744649D01*
X105162100Y-27457599D01*
X105066388Y-27361887D01*
X105200000Y-27388464D01*
X105900000Y-27388464D01*
X106048659Y-27358894D01*
X106100000Y-27324589D01*
X106151341Y-27358894D01*
X106300000Y-27388464D01*
X107000000Y-27388464D01*
X107018391Y-27384806D01*
X106919000Y-27624758D01*
X106919000Y-27975242D01*
X107053124Y-28299047D01*
X107104077Y-28350000D01*
X107053124Y-28400953D01*
X106919000Y-28724758D01*
X106919000Y-29075242D01*
X107053124Y-29399047D01*
X107300953Y-29646876D01*
X107624758Y-29781000D01*
X107975242Y-29781000D01*
X108299047Y-29646876D01*
X108546876Y-29399047D01*
X108681000Y-29075242D01*
X108681000Y-28914215D01*
X113169000Y-28914215D01*
X113169000Y-29137750D01*
X113264250Y-29233000D01*
X114623000Y-29233000D01*
X114623000Y-28704250D01*
X114527750Y-28609000D01*
X113474214Y-28609000D01*
X113334180Y-28667004D01*
X113227004Y-28774181D01*
X113169000Y-28914215D01*
X108681000Y-28914215D01*
X108681000Y-28724758D01*
X108546876Y-28400953D01*
X108495923Y-28350000D01*
X108546876Y-28299047D01*
X108681000Y-27975242D01*
X108681000Y-27624758D01*
X108580032Y-27381000D01*
X108627750Y-27381000D01*
X108723000Y-27285750D01*
X108723000Y-26127000D01*
X108977000Y-26127000D01*
X108977000Y-27285750D01*
X109072250Y-27381000D01*
X109275786Y-27381000D01*
X109415820Y-27322996D01*
X109522996Y-27215819D01*
X109581000Y-27075785D01*
X109581000Y-26222250D01*
X111184000Y-26222250D01*
X111184000Y-26575785D01*
X111242004Y-26715819D01*
X111349180Y-26822996D01*
X111489214Y-26881000D01*
X111677750Y-26881000D01*
X111773000Y-26785750D01*
X111773000Y-26127000D01*
X112027000Y-26127000D01*
X112027000Y-26785750D01*
X112122250Y-26881000D01*
X112310786Y-26881000D01*
X112450820Y-26822996D01*
X112557996Y-26715819D01*
X112616000Y-26575785D01*
X112616000Y-26222250D01*
X112520750Y-26127000D01*
X112027000Y-26127000D01*
X111773000Y-26127000D01*
X111279250Y-26127000D01*
X111184000Y-26222250D01*
X109581000Y-26222250D01*
X109485750Y-26127000D01*
X108977000Y-26127000D01*
X108723000Y-26127000D01*
X108703000Y-26127000D01*
X108703000Y-26000000D01*
X112751741Y-26000000D01*
X112820117Y-26343749D01*
X112927390Y-26504295D01*
X112956106Y-26648659D01*
X113040314Y-26774686D01*
X113166341Y-26858894D01*
X113315000Y-26888464D01*
X113985000Y-26888464D01*
X114022524Y-26881000D01*
X114975242Y-26881000D01*
X115056983Y-26847142D01*
X115143749Y-26829883D01*
X115217305Y-26780735D01*
X115299047Y-26746876D01*
X115361610Y-26684313D01*
X115435165Y-26635165D01*
X115484313Y-26561610D01*
X115546876Y-26499047D01*
X115580735Y-26417305D01*
X115629883Y-26343749D01*
X115647142Y-26256983D01*
X115681000Y-26175242D01*
X115681000Y-26086767D01*
X115698259Y-26000000D01*
X115681000Y-25913233D01*
X115681000Y-25824758D01*
X115647142Y-25743017D01*
X115629883Y-25656251D01*
X115580735Y-25582695D01*
X115546876Y-25500953D01*
X115484313Y-25438390D01*
X115435165Y-25364835D01*
X115361610Y-25315687D01*
X115299047Y-25253124D01*
X115217305Y-25219265D01*
X115143749Y-25170117D01*
X115056983Y-25152858D01*
X114975242Y-25119000D01*
X114022524Y-25119000D01*
X113985000Y-25111536D01*
X113315000Y-25111536D01*
X113166341Y-25141106D01*
X113040314Y-25225314D01*
X112956106Y-25351341D01*
X112927390Y-25495705D01*
X112820117Y-25656251D01*
X112751741Y-26000000D01*
X108703000Y-26000000D01*
X108703000Y-25873000D01*
X108723000Y-25873000D01*
X108723000Y-25853000D01*
X108977000Y-25853000D01*
X108977000Y-25873000D01*
X109485750Y-25873000D01*
X109581000Y-25777750D01*
X109581000Y-25424215D01*
X111184000Y-25424215D01*
X111184000Y-25777750D01*
X111279250Y-25873000D01*
X111773000Y-25873000D01*
X111773000Y-25214250D01*
X112027000Y-25214250D01*
X112027000Y-25873000D01*
X112520750Y-25873000D01*
X112616000Y-25777750D01*
X112616000Y-25424215D01*
X112557996Y-25284181D01*
X112450820Y-25177004D01*
X112310786Y-25119000D01*
X112122250Y-25119000D01*
X112027000Y-25214250D01*
X111773000Y-25214250D01*
X111677750Y-25119000D01*
X111489214Y-25119000D01*
X111349180Y-25177004D01*
X111242004Y-25284181D01*
X111184000Y-25424215D01*
X109581000Y-25424215D01*
X109581000Y-24924215D01*
X109573455Y-24906000D01*
X115090409Y-24906000D01*
X116294001Y-26109593D01*
X116294000Y-28824890D01*
X116272996Y-28774181D01*
X116165820Y-28667004D01*
X116025786Y-28609000D01*
X114972250Y-28609000D01*
X114877000Y-28704250D01*
X114877000Y-29233000D01*
X114897000Y-29233000D01*
X114897000Y-29487000D01*
X114877000Y-29487000D01*
X114877000Y-29507000D01*
X114623000Y-29507000D01*
X114623000Y-29487000D01*
X113264250Y-29487000D01*
X113169000Y-29582250D01*
X113169000Y-29805785D01*
X113227004Y-29945819D01*
X113271783Y-29990598D01*
X113191106Y-30111341D01*
X113161536Y-30260000D01*
X113161536Y-31000000D01*
X113191106Y-31148659D01*
X113268842Y-31265000D01*
X113266169Y-31269000D01*
X113112146Y-31269000D01*
X113049999Y-31256638D01*
X112987853Y-31269000D01*
X112987852Y-31269000D01*
X112803796Y-31305611D01*
X112595074Y-31445074D01*
X112559867Y-31497765D01*
X112547765Y-31509867D01*
X112495074Y-31545074D01*
X112373756Y-31726641D01*
X112355611Y-31753797D01*
X112306638Y-32000000D01*
X112319000Y-32062148D01*
X112319000Y-32119000D01*
X112224758Y-32119000D01*
X111900953Y-32253124D01*
X111653124Y-32500953D01*
X111519000Y-32824758D01*
X111519000Y-33175242D01*
X111653124Y-33499047D01*
X111900953Y-33746876D01*
X112224758Y-33881000D01*
X112319001Y-33881000D01*
X112319001Y-34277848D01*
X112306638Y-34340000D01*
X112355611Y-34586203D01*
X112402038Y-34655686D01*
X112495075Y-34794926D01*
X112547763Y-34830131D01*
X112559867Y-34842235D01*
X112595074Y-34894926D01*
X112803796Y-35034389D01*
X112987852Y-35071000D01*
X112987853Y-35071000D01*
X113049999Y-35083362D01*
X113112146Y-35071000D01*
X113266169Y-35071000D01*
X113275314Y-35084686D01*
X113401341Y-35168894D01*
X113550000Y-35198464D01*
X115950000Y-35198464D01*
X116098659Y-35168894D01*
X116224686Y-35084686D01*
X116308894Y-34958659D01*
X116338464Y-34810000D01*
X116338464Y-34070000D01*
X116308894Y-33921341D01*
X116231158Y-33805000D01*
X116308894Y-33688659D01*
X116338464Y-33540000D01*
X116338464Y-32800000D01*
X116308894Y-32651341D01*
X116231158Y-32535000D01*
X116308894Y-32418659D01*
X116338464Y-32270000D01*
X116338464Y-31530000D01*
X116308894Y-31381341D01*
X116231158Y-31265000D01*
X116308894Y-31148659D01*
X116338464Y-31000000D01*
X116338464Y-30450037D01*
X116435194Y-30594806D01*
X116477447Y-30623038D01*
X116806963Y-30952555D01*
X116835194Y-30994806D01*
X117002569Y-31106641D01*
X117086051Y-31123247D01*
X117091106Y-31148659D01*
X117168842Y-31265000D01*
X117091106Y-31381341D01*
X117061536Y-31530000D01*
X117061536Y-32270000D01*
X117091106Y-32418659D01*
X117168842Y-32535000D01*
X117091106Y-32651341D01*
X117061536Y-32800000D01*
X117061536Y-33540000D01*
X117091106Y-33688659D01*
X117168842Y-33805000D01*
X117091106Y-33921341D01*
X117061536Y-34070000D01*
X117061536Y-34810000D01*
X117091106Y-34958659D01*
X117175314Y-35084686D01*
X117301341Y-35168894D01*
X117450000Y-35198464D01*
X119850000Y-35198464D01*
X119998659Y-35168894D01*
X120124686Y-35084686D01*
X120208894Y-34958659D01*
X120238464Y-34810000D01*
X120238464Y-34656000D01*
X121201499Y-34656000D01*
X121357599Y-34812100D01*
X121644649Y-34931000D01*
X121955351Y-34931000D01*
X122242401Y-34812100D01*
X122398501Y-34656000D01*
X123511536Y-34656000D01*
X123511536Y-34700000D01*
X123541106Y-34848659D01*
X123625314Y-34974686D01*
X123751341Y-35058894D01*
X123900000Y-35088464D01*
X125700000Y-35088464D01*
X125848659Y-35058894D01*
X125974686Y-34974686D01*
X126058894Y-34848659D01*
X126088464Y-34700000D01*
X126088464Y-34656000D01*
X129711536Y-34656000D01*
X129711536Y-34700000D01*
X129741106Y-34848659D01*
X129825314Y-34974686D01*
X129951341Y-35058894D01*
X130100000Y-35088464D01*
X131900000Y-35088464D01*
X132048659Y-35058894D01*
X132174686Y-34974686D01*
X132211460Y-34919648D01*
X136593999Y-34919648D01*
X136593999Y-35230350D01*
X136712899Y-35517400D01*
X136932598Y-35737099D01*
X137219648Y-35855999D01*
X137319000Y-35855999D01*
X137319000Y-35955351D01*
X137437900Y-36242401D01*
X137657599Y-36462100D01*
X137944649Y-36581000D01*
X138255351Y-36581000D01*
X138542401Y-36462100D01*
X138698501Y-36306000D01*
X138950166Y-36306000D01*
X139000000Y-36315913D01*
X139049834Y-36306000D01*
X139049835Y-36306000D01*
X139197431Y-36276641D01*
X139269024Y-36228804D01*
X139309019Y-36268799D01*
X139435046Y-36353007D01*
X139436627Y-36353322D01*
X139436942Y-36354904D01*
X139521150Y-36480931D01*
X139563145Y-36522926D01*
X139523360Y-36582468D01*
X139484087Y-36779899D01*
X139494001Y-36829737D01*
X139494001Y-36901498D01*
X139337900Y-37057599D01*
X139219000Y-37344649D01*
X139219000Y-37655351D01*
X139337900Y-37942401D01*
X139557599Y-38162100D01*
X139844649Y-38281000D01*
X140155351Y-38281000D01*
X140442401Y-38162100D01*
X140662100Y-37942401D01*
X140781000Y-37655351D01*
X140781000Y-37344649D01*
X140767729Y-37312611D01*
X140848340Y-37258749D01*
X141894000Y-36213089D01*
X141894000Y-37631162D01*
X141849722Y-37697430D01*
X141823360Y-37736884D01*
X141789774Y-37905725D01*
X141637900Y-38057599D01*
X141519000Y-38344649D01*
X141519000Y-38655351D01*
X141637900Y-38942401D01*
X141857599Y-39162100D01*
X142144649Y-39281000D01*
X142455351Y-39281000D01*
X142742401Y-39162100D01*
X142962100Y-38942401D01*
X143081000Y-38655351D01*
X143081000Y-38344649D01*
X142962100Y-38057599D01*
X142886530Y-37982029D01*
X142906000Y-37884150D01*
X142906000Y-37884149D01*
X142915913Y-37834316D01*
X142906000Y-37784482D01*
X142906000Y-37065388D01*
X142937900Y-37142401D01*
X143157599Y-37362100D01*
X143444649Y-37481000D01*
X143755351Y-37481000D01*
X144042401Y-37362100D01*
X144262100Y-37142401D01*
X144381000Y-36855351D01*
X144381000Y-36744585D01*
X145496204Y-37859789D01*
X145622231Y-37943997D01*
X145770890Y-37973567D01*
X145919549Y-37943997D01*
X146045576Y-37859789D01*
X147459789Y-36445576D01*
X147543997Y-36319549D01*
X147550873Y-36284976D01*
X152579000Y-36284976D01*
X152579000Y-36715024D01*
X152743572Y-37112337D01*
X153047663Y-37416428D01*
X153444976Y-37581000D01*
X153875024Y-37581000D01*
X154272337Y-37416428D01*
X154392643Y-37296122D01*
X155583483Y-37296122D01*
X155659216Y-37460391D01*
X156067907Y-37594235D01*
X156496707Y-37561491D01*
X156740784Y-37460391D01*
X156816517Y-37296122D01*
X156200000Y-36679605D01*
X155583483Y-37296122D01*
X154392643Y-37296122D01*
X154576428Y-37112337D01*
X154741000Y-36715024D01*
X154741000Y-36636772D01*
X154829883Y-36503749D01*
X154856903Y-36367907D01*
X155105765Y-36367907D01*
X155138509Y-36796707D01*
X155239609Y-37040784D01*
X155403878Y-37116517D01*
X156020395Y-36500000D01*
X156379605Y-36500000D01*
X156996122Y-37116517D01*
X157160391Y-37040784D01*
X157264709Y-36722250D01*
X159719000Y-36722250D01*
X159719000Y-37125786D01*
X159777004Y-37265820D01*
X159884181Y-37372996D01*
X160024215Y-37431000D01*
X160777750Y-37431000D01*
X160873000Y-37335750D01*
X160873000Y-36627000D01*
X161127000Y-36627000D01*
X161127000Y-37335750D01*
X161222250Y-37431000D01*
X161975785Y-37431000D01*
X162115819Y-37372996D01*
X162222996Y-37265820D01*
X162281000Y-37125786D01*
X162281000Y-36722250D01*
X162185750Y-36627000D01*
X161127000Y-36627000D01*
X160873000Y-36627000D01*
X159814250Y-36627000D01*
X159719000Y-36722250D01*
X157264709Y-36722250D01*
X157294235Y-36632093D01*
X157261491Y-36203293D01*
X157160391Y-35959216D01*
X156996122Y-35883483D01*
X156379605Y-36500000D01*
X156020395Y-36500000D01*
X155403878Y-35883483D01*
X155239609Y-35959216D01*
X155105765Y-36367907D01*
X154856903Y-36367907D01*
X154881000Y-36246767D01*
X154898259Y-36160000D01*
X154881000Y-36073233D01*
X154881000Y-35703878D01*
X155583483Y-35703878D01*
X156200000Y-36320395D01*
X156816517Y-35703878D01*
X156740784Y-35539609D01*
X156332093Y-35405765D01*
X155903293Y-35438509D01*
X155659216Y-35539609D01*
X155583483Y-35703878D01*
X154881000Y-35703878D01*
X154881000Y-34022250D01*
X155034000Y-34022250D01*
X155034000Y-34375785D01*
X155092004Y-34515819D01*
X155199180Y-34622996D01*
X155339214Y-34681000D01*
X155527750Y-34681000D01*
X155623000Y-34585750D01*
X155623000Y-33927000D01*
X155877000Y-33927000D01*
X155877000Y-34585750D01*
X155972250Y-34681000D01*
X156160786Y-34681000D01*
X156300820Y-34622996D01*
X156373815Y-34550000D01*
X159711536Y-34550000D01*
X159711536Y-35650000D01*
X159741106Y-35798659D01*
X159746779Y-35807149D01*
X159719000Y-35874214D01*
X159719000Y-36277750D01*
X159814250Y-36373000D01*
X160873000Y-36373000D01*
X160873000Y-36353000D01*
X161127000Y-36353000D01*
X161127000Y-36373000D01*
X162185750Y-36373000D01*
X162281000Y-36277750D01*
X162281000Y-35874214D01*
X162253221Y-35807149D01*
X162258894Y-35798659D01*
X162288464Y-35650000D01*
X162288464Y-34550000D01*
X162258894Y-34401341D01*
X162174686Y-34275314D01*
X162048659Y-34191106D01*
X161900000Y-34161536D01*
X161881000Y-34161536D01*
X161881000Y-32165571D01*
X162147501Y-31987501D01*
X162419576Y-31580312D01*
X162515116Y-31100000D01*
X162419576Y-30619688D01*
X162172559Y-30250000D01*
X162561536Y-30250000D01*
X162561536Y-31950000D01*
X162591106Y-32098659D01*
X162675314Y-32224686D01*
X162801341Y-32308894D01*
X162950000Y-32338464D01*
X163119001Y-32338464D01*
X163119000Y-34161536D01*
X163100000Y-34161536D01*
X162951341Y-34191106D01*
X162825314Y-34275314D01*
X162741106Y-34401341D01*
X162711536Y-34550000D01*
X162711536Y-35650000D01*
X162741106Y-35798659D01*
X162742002Y-35800000D01*
X162741106Y-35801341D01*
X162711536Y-35950000D01*
X162711536Y-37050000D01*
X162741106Y-37198659D01*
X162825314Y-37324686D01*
X162951341Y-37408894D01*
X163100000Y-37438464D01*
X164900000Y-37438464D01*
X165048659Y-37408894D01*
X165090406Y-37381000D01*
X167553237Y-37381000D01*
X167640000Y-37398258D01*
X167726763Y-37381000D01*
X167726767Y-37381000D01*
X167983749Y-37329883D01*
X168275165Y-37135165D01*
X168324317Y-37061605D01*
X168807457Y-36578464D01*
X169650000Y-36578464D01*
X169798659Y-36548894D01*
X169924686Y-36464686D01*
X170008894Y-36338659D01*
X170032298Y-36221000D01*
X172367702Y-36221000D01*
X172391106Y-36338659D01*
X172475314Y-36464686D01*
X172601341Y-36548894D01*
X172750000Y-36578464D01*
X174450000Y-36578464D01*
X174598659Y-36548894D01*
X174671834Y-36500000D01*
X183411536Y-36500000D01*
X183411536Y-38000000D01*
X183441106Y-38148659D01*
X183525314Y-38274686D01*
X183651341Y-38358894D01*
X183800000Y-38388464D01*
X187200000Y-38388464D01*
X187348659Y-38358894D01*
X187474686Y-38274686D01*
X187558894Y-38148659D01*
X187588464Y-38000000D01*
X187588464Y-36500000D01*
X187558894Y-36351341D01*
X187474686Y-36225314D01*
X187348659Y-36141106D01*
X187200000Y-36111536D01*
X183800000Y-36111536D01*
X183651341Y-36141106D01*
X183525314Y-36225314D01*
X183441106Y-36351341D01*
X183411536Y-36500000D01*
X174671834Y-36500000D01*
X174724686Y-36464686D01*
X174808894Y-36338659D01*
X174838464Y-36190000D01*
X174838464Y-35781000D01*
X177962476Y-35781000D01*
X178000000Y-35788464D01*
X181500000Y-35788464D01*
X181648659Y-35758894D01*
X181774686Y-35674686D01*
X181858894Y-35548659D01*
X181888464Y-35400000D01*
X181888464Y-34400000D01*
X181858894Y-34251341D01*
X181774686Y-34125314D01*
X181648659Y-34041106D01*
X181500000Y-34011536D01*
X178000000Y-34011536D01*
X177962476Y-34019000D01*
X174126763Y-34019000D01*
X174040000Y-34001742D01*
X173953237Y-34019000D01*
X173953233Y-34019000D01*
X173696251Y-34070117D01*
X173649229Y-34101536D01*
X172750000Y-34101536D01*
X172601341Y-34131106D01*
X172475314Y-34215314D01*
X172391106Y-34341341D01*
X172367702Y-34459000D01*
X170032298Y-34459000D01*
X170008894Y-34341341D01*
X169924686Y-34215314D01*
X169798659Y-34131106D01*
X169650000Y-34101536D01*
X167950000Y-34101536D01*
X167801341Y-34131106D01*
X167675314Y-34215314D01*
X167591106Y-34341341D01*
X167561536Y-34490000D01*
X167561536Y-35332543D01*
X167275079Y-35619000D01*
X165288464Y-35619000D01*
X165288464Y-34550000D01*
X165258894Y-34401341D01*
X165174686Y-34275314D01*
X165048659Y-34191106D01*
X164900000Y-34161536D01*
X164881000Y-34161536D01*
X164881000Y-32800000D01*
X167544884Y-32800000D01*
X167640424Y-33280312D01*
X167912499Y-33687501D01*
X168319688Y-33959576D01*
X168678761Y-34031000D01*
X168921239Y-34031000D01*
X169280312Y-33959576D01*
X169687501Y-33687501D01*
X169691845Y-33681000D01*
X172708155Y-33681000D01*
X172712499Y-33687501D01*
X173119688Y-33959576D01*
X173478761Y-34031000D01*
X173721239Y-34031000D01*
X174080312Y-33959576D01*
X174347570Y-33781000D01*
X177962476Y-33781000D01*
X178000000Y-33788464D01*
X181500000Y-33788464D01*
X181648659Y-33758894D01*
X181774686Y-33674686D01*
X181858894Y-33548659D01*
X181888464Y-33400000D01*
X181888464Y-32400000D01*
X181858894Y-32251341D01*
X181774686Y-32125314D01*
X181648659Y-32041106D01*
X181500000Y-32011536D01*
X178000000Y-32011536D01*
X177962476Y-32019000D01*
X174558663Y-32019000D01*
X174487501Y-31912499D01*
X174080312Y-31640424D01*
X173721239Y-31569000D01*
X173478761Y-31569000D01*
X173119688Y-31640424D01*
X172712499Y-31912499D01*
X172708155Y-31919000D01*
X169691845Y-31919000D01*
X169687501Y-31912499D01*
X169280312Y-31640424D01*
X168921239Y-31569000D01*
X168678761Y-31569000D01*
X168319688Y-31640424D01*
X167912499Y-31912499D01*
X167640424Y-32319688D01*
X167544884Y-32800000D01*
X164881000Y-32800000D01*
X164881000Y-32253876D01*
X164924686Y-32224686D01*
X165008894Y-32098659D01*
X165038464Y-31950000D01*
X165038464Y-30250000D01*
X165008894Y-30101341D01*
X164924686Y-29975314D01*
X164798659Y-29891106D01*
X164650000Y-29861536D01*
X162950000Y-29861536D01*
X162801341Y-29891106D01*
X162675314Y-29975314D01*
X162591106Y-30101341D01*
X162561536Y-30250000D01*
X162172559Y-30250000D01*
X162147501Y-30212499D01*
X161740312Y-29940424D01*
X161381239Y-29869000D01*
X161138761Y-29869000D01*
X160779688Y-29940424D01*
X160372499Y-30212499D01*
X160100424Y-30619688D01*
X160004884Y-31100000D01*
X160100424Y-31580312D01*
X160119001Y-31608114D01*
X160119000Y-34161536D01*
X160100000Y-34161536D01*
X159951341Y-34191106D01*
X159825314Y-34275314D01*
X159741106Y-34401341D01*
X159711536Y-34550000D01*
X156373815Y-34550000D01*
X156407996Y-34515819D01*
X156466000Y-34375785D01*
X156466000Y-34022250D01*
X156370750Y-33927000D01*
X155877000Y-33927000D01*
X155623000Y-33927000D01*
X155129250Y-33927000D01*
X155034000Y-34022250D01*
X154881000Y-34022250D01*
X154881000Y-33224215D01*
X155034000Y-33224215D01*
X155034000Y-33577750D01*
X155129250Y-33673000D01*
X155623000Y-33673000D01*
X155623000Y-33014250D01*
X155877000Y-33014250D01*
X155877000Y-33673000D01*
X156370750Y-33673000D01*
X156466000Y-33577750D01*
X156466000Y-33224215D01*
X156407996Y-33084181D01*
X156300820Y-32977004D01*
X156160786Y-32919000D01*
X155972250Y-32919000D01*
X155877000Y-33014250D01*
X155623000Y-33014250D01*
X155527750Y-32919000D01*
X155339214Y-32919000D01*
X155199180Y-32977004D01*
X155092004Y-33084181D01*
X155034000Y-33224215D01*
X154881000Y-33224215D01*
X154881000Y-31822250D01*
X155034000Y-31822250D01*
X155034000Y-32175785D01*
X155092004Y-32315819D01*
X155199180Y-32422996D01*
X155339214Y-32481000D01*
X155527750Y-32481000D01*
X155623000Y-32385750D01*
X155623000Y-31727000D01*
X155877000Y-31727000D01*
X155877000Y-32385750D01*
X155972250Y-32481000D01*
X156160786Y-32481000D01*
X156300820Y-32422996D01*
X156407996Y-32315819D01*
X156466000Y-32175785D01*
X156466000Y-31822250D01*
X156370750Y-31727000D01*
X155877000Y-31727000D01*
X155623000Y-31727000D01*
X155129250Y-31727000D01*
X155034000Y-31822250D01*
X154881000Y-31822250D01*
X154881000Y-31513233D01*
X154829883Y-31256251D01*
X154722610Y-31095705D01*
X154708390Y-31024215D01*
X155034000Y-31024215D01*
X155034000Y-31377750D01*
X155129250Y-31473000D01*
X155623000Y-31473000D01*
X155623000Y-30814250D01*
X155877000Y-30814250D01*
X155877000Y-31473000D01*
X156370750Y-31473000D01*
X156466000Y-31377750D01*
X156466000Y-31024215D01*
X156407996Y-30884181D01*
X156300820Y-30777004D01*
X156160786Y-30719000D01*
X155972250Y-30719000D01*
X155877000Y-30814250D01*
X155623000Y-30814250D01*
X155527750Y-30719000D01*
X155339214Y-30719000D01*
X155199180Y-30777004D01*
X155092004Y-30884181D01*
X155034000Y-31024215D01*
X154708390Y-31024215D01*
X154693894Y-30951341D01*
X154609686Y-30825314D01*
X154483659Y-30741106D01*
X154335000Y-30711536D01*
X154049243Y-30711536D01*
X154000000Y-30701741D01*
X153950757Y-30711536D01*
X153665000Y-30711536D01*
X153516341Y-30741106D01*
X153390314Y-30825314D01*
X153306106Y-30951341D01*
X153277390Y-31095706D01*
X153170117Y-31256252D01*
X153119000Y-31513234D01*
X153119001Y-33713229D01*
X153119000Y-33713234D01*
X153119001Y-35554023D01*
X153047663Y-35583572D01*
X152743572Y-35887663D01*
X152579000Y-36284976D01*
X147550873Y-36284976D01*
X147573567Y-36170890D01*
X147543997Y-36022231D01*
X147459789Y-35896204D01*
X146116286Y-34552701D01*
X145990259Y-34468493D01*
X145841600Y-34438923D01*
X145692941Y-34468493D01*
X145566914Y-34552701D01*
X144505999Y-35613616D01*
X144505999Y-35609592D01*
X145863636Y-34251956D01*
X145905886Y-34223726D01*
X146008523Y-34070117D01*
X146017721Y-34056352D01*
X146056993Y-33858920D01*
X146047080Y-33809085D01*
X146047080Y-32060009D01*
X146858749Y-31248340D01*
X146942957Y-31122313D01*
X146972527Y-30973654D01*
X146942957Y-30824995D01*
X146858749Y-30698968D01*
X146080931Y-29921150D01*
X145954904Y-29836942D01*
X145953322Y-29836627D01*
X145953007Y-29835046D01*
X145929591Y-29800000D01*
X183411536Y-29800000D01*
X183411536Y-31300000D01*
X183441106Y-31448659D01*
X183525314Y-31574686D01*
X183651341Y-31658894D01*
X183800000Y-31688464D01*
X187200000Y-31688464D01*
X187348659Y-31658894D01*
X187474686Y-31574686D01*
X187558894Y-31448659D01*
X187588464Y-31300000D01*
X187588464Y-29800000D01*
X187558894Y-29651341D01*
X187474686Y-29525314D01*
X187348659Y-29441106D01*
X187200000Y-29411536D01*
X183800000Y-29411536D01*
X183651341Y-29441106D01*
X183525314Y-29525314D01*
X183441106Y-29651341D01*
X183411536Y-29800000D01*
X145929591Y-29800000D01*
X145868799Y-29709019D01*
X145090981Y-28931201D01*
X144964954Y-28846993D01*
X144963373Y-28846678D01*
X144963058Y-28845096D01*
X144878850Y-28719069D01*
X144101032Y-27941251D01*
X143975005Y-27857043D01*
X143826346Y-27827473D01*
X143677687Y-27857043D01*
X143551660Y-27941251D01*
X142243512Y-29249399D01*
X142159304Y-29375426D01*
X142129734Y-29524085D01*
X142159304Y-29672744D01*
X142243512Y-29798771D01*
X142274625Y-29829884D01*
X142077445Y-30027065D01*
X142035195Y-30055295D01*
X141930156Y-30212499D01*
X141923360Y-30222670D01*
X141884087Y-30420101D01*
X141894001Y-30469940D01*
X141894000Y-35138741D01*
X141378670Y-34623411D01*
X141252643Y-34539203D01*
X141251062Y-34538888D01*
X141250747Y-34537306D01*
X141166539Y-34411279D01*
X140388721Y-33633461D01*
X140262694Y-33549253D01*
X140261112Y-33548938D01*
X140260797Y-33547357D01*
X140176589Y-33421330D01*
X139398771Y-32643512D01*
X139272744Y-32559304D01*
X139124085Y-32529734D01*
X138975426Y-32559304D01*
X138849399Y-32643512D01*
X137541251Y-33951660D01*
X137457043Y-34077687D01*
X137427473Y-34226346D01*
X137440843Y-34293563D01*
X137440407Y-34293999D01*
X137219648Y-34293999D01*
X136932598Y-34412899D01*
X136712899Y-34632598D01*
X136593999Y-34919648D01*
X132211460Y-34919648D01*
X132258894Y-34848659D01*
X132288464Y-34700000D01*
X132288464Y-34656000D01*
X132735166Y-34656000D01*
X132785000Y-34665913D01*
X132834834Y-34656000D01*
X132834835Y-34656000D01*
X132982431Y-34626641D01*
X133149806Y-34514806D01*
X133178039Y-34472552D01*
X133422552Y-34228039D01*
X133464806Y-34199806D01*
X133576641Y-34032431D01*
X133588370Y-33973464D01*
X133600000Y-33973464D01*
X133748659Y-33943894D01*
X133874686Y-33859686D01*
X133958894Y-33733659D01*
X133988464Y-33585000D01*
X133988464Y-32915000D01*
X133958894Y-32766341D01*
X133874686Y-32640314D01*
X133748659Y-32556106D01*
X133600000Y-32526536D01*
X132600000Y-32526536D01*
X132451341Y-32556106D01*
X132325314Y-32640314D01*
X132241106Y-32766341D01*
X132211536Y-32915000D01*
X132211536Y-33380464D01*
X132174686Y-33325314D01*
X132048659Y-33241106D01*
X131900000Y-33211536D01*
X130100000Y-33211536D01*
X129951341Y-33241106D01*
X129825314Y-33325314D01*
X129741106Y-33451341D01*
X129711536Y-33600000D01*
X129711536Y-33644000D01*
X126088464Y-33644000D01*
X126088464Y-33600000D01*
X126058894Y-33451341D01*
X125974686Y-33325314D01*
X125848659Y-33241106D01*
X125700000Y-33211536D01*
X123900000Y-33211536D01*
X123751341Y-33241106D01*
X123625314Y-33325314D01*
X123541106Y-33451341D01*
X123511536Y-33600000D01*
X123511536Y-33644000D01*
X122618576Y-33644000D01*
X122658894Y-33583659D01*
X122688464Y-33435000D01*
X122688464Y-32765000D01*
X122658894Y-32616341D01*
X122574686Y-32490314D01*
X122448659Y-32406106D01*
X122300000Y-32376536D01*
X121300000Y-32376536D01*
X121151341Y-32406106D01*
X121025314Y-32490314D01*
X120941106Y-32616341D01*
X120911536Y-32765000D01*
X120911536Y-33435000D01*
X120941106Y-33583659D01*
X120981424Y-33644000D01*
X120217777Y-33644000D01*
X120238464Y-33540000D01*
X120238464Y-32800000D01*
X120208894Y-32651341D01*
X120131158Y-32535000D01*
X120208894Y-32418659D01*
X120238464Y-32270000D01*
X120238464Y-31572250D01*
X120919000Y-31572250D01*
X120919000Y-31760786D01*
X120977004Y-31900820D01*
X121084181Y-32007996D01*
X121224215Y-32066000D01*
X121577750Y-32066000D01*
X121673000Y-31970750D01*
X121673000Y-31477000D01*
X121927000Y-31477000D01*
X121927000Y-31970750D01*
X122022250Y-32066000D01*
X122375785Y-32066000D01*
X122515819Y-32007996D01*
X122622996Y-31900820D01*
X122681000Y-31760786D01*
X122681000Y-31572250D01*
X122585750Y-31477000D01*
X121927000Y-31477000D01*
X121673000Y-31477000D01*
X121014250Y-31477000D01*
X120919000Y-31572250D01*
X120238464Y-31572250D01*
X120238464Y-31530000D01*
X120208894Y-31381341D01*
X120131158Y-31265000D01*
X120208894Y-31148659D01*
X120238464Y-31000000D01*
X120238464Y-30939214D01*
X120919000Y-30939214D01*
X120919000Y-31127750D01*
X121014250Y-31223000D01*
X121673000Y-31223000D01*
X121673000Y-30729250D01*
X121927000Y-30729250D01*
X121927000Y-31223000D01*
X122585750Y-31223000D01*
X122681000Y-31127750D01*
X122681000Y-30939214D01*
X122622996Y-30799180D01*
X122515819Y-30692004D01*
X122375785Y-30634000D01*
X122022250Y-30634000D01*
X121927000Y-30729250D01*
X121673000Y-30729250D01*
X121577750Y-30634000D01*
X121224215Y-30634000D01*
X121084181Y-30692004D01*
X120977004Y-30799180D01*
X120919000Y-30939214D01*
X120238464Y-30939214D01*
X120238464Y-30260000D01*
X120208894Y-30111341D01*
X120131158Y-29995000D01*
X120194634Y-29900000D01*
X123511536Y-29900000D01*
X123511536Y-31000000D01*
X123541106Y-31148659D01*
X123625314Y-31274686D01*
X123751341Y-31358894D01*
X123900000Y-31388464D01*
X125700000Y-31388464D01*
X125848659Y-31358894D01*
X125974686Y-31274686D01*
X126058894Y-31148659D01*
X126088464Y-31000000D01*
X126088464Y-30956000D01*
X127135293Y-30956000D01*
X127153124Y-30999047D01*
X127400953Y-31246876D01*
X127724758Y-31381000D01*
X128075242Y-31381000D01*
X128399047Y-31246876D01*
X128646876Y-30999047D01*
X128664707Y-30956000D01*
X129711536Y-30956000D01*
X129711536Y-31000000D01*
X129741106Y-31148659D01*
X129825314Y-31274686D01*
X129951341Y-31358894D01*
X130100000Y-31388464D01*
X130511630Y-31388464D01*
X130523359Y-31447430D01*
X130635194Y-31614806D01*
X130677448Y-31643039D01*
X130856961Y-31822552D01*
X130885194Y-31864806D01*
X131052569Y-31976641D01*
X131200165Y-32006000D01*
X131249999Y-32015913D01*
X131299833Y-32006000D01*
X132256034Y-32006000D01*
X132325314Y-32109686D01*
X132451341Y-32193894D01*
X132600000Y-32223464D01*
X133600000Y-32223464D01*
X133748659Y-32193894D01*
X133874686Y-32109686D01*
X133958894Y-31983659D01*
X133988464Y-31835000D01*
X133988464Y-31165000D01*
X133976752Y-31106119D01*
X140100497Y-31106119D01*
X140100497Y-31406875D01*
X140215591Y-31684737D01*
X140428257Y-31897403D01*
X140706119Y-32012497D01*
X141006875Y-32012497D01*
X141284737Y-31897403D01*
X141497403Y-31684737D01*
X141612497Y-31406875D01*
X141612497Y-31106119D01*
X141497403Y-30828257D01*
X141284737Y-30615591D01*
X141006875Y-30500497D01*
X140706119Y-30500497D01*
X140428257Y-30615591D01*
X140215591Y-30828257D01*
X140100497Y-31106119D01*
X133976752Y-31106119D01*
X133958894Y-31016341D01*
X133874686Y-30890314D01*
X133748659Y-30806106D01*
X133600000Y-30776536D01*
X132600000Y-30776536D01*
X132451341Y-30806106D01*
X132325314Y-30890314D01*
X132288464Y-30945464D01*
X132288464Y-29900000D01*
X132258894Y-29751341D01*
X132174686Y-29625314D01*
X132048659Y-29541106D01*
X131900000Y-29511536D01*
X130100000Y-29511536D01*
X129951341Y-29541106D01*
X129825314Y-29625314D01*
X129741106Y-29751341D01*
X129711536Y-29900000D01*
X129711536Y-29944000D01*
X128589923Y-29944000D01*
X128399047Y-29753124D01*
X128075242Y-29619000D01*
X127724758Y-29619000D01*
X127400953Y-29753124D01*
X127210077Y-29944000D01*
X126088464Y-29944000D01*
X126088464Y-29900000D01*
X126058894Y-29751341D01*
X125974686Y-29625314D01*
X125848659Y-29541106D01*
X125700000Y-29511536D01*
X123900000Y-29511536D01*
X123751341Y-29541106D01*
X123625314Y-29625314D01*
X123541106Y-29751341D01*
X123511536Y-29900000D01*
X120194634Y-29900000D01*
X120208894Y-29878659D01*
X120238464Y-29730000D01*
X120238464Y-29029110D01*
X136826433Y-29029110D01*
X136856003Y-29177769D01*
X136940211Y-29303796D01*
X138283714Y-30647299D01*
X138409741Y-30731507D01*
X138558400Y-30761077D01*
X138707059Y-30731507D01*
X138833086Y-30647299D01*
X140247299Y-29233086D01*
X140331507Y-29107059D01*
X140361077Y-28958400D01*
X140331507Y-28809741D01*
X140247299Y-28683714D01*
X138903796Y-27340211D01*
X138777769Y-27256003D01*
X138629110Y-27226433D01*
X138480451Y-27256003D01*
X138354424Y-27340211D01*
X136940211Y-28754424D01*
X136856003Y-28880451D01*
X136826433Y-29029110D01*
X120238464Y-29029110D01*
X120238464Y-28990000D01*
X120208894Y-28841341D01*
X120124686Y-28715314D01*
X119998659Y-28631106D01*
X119850000Y-28601536D01*
X119156000Y-28601536D01*
X119156000Y-27163425D01*
X119165913Y-27113590D01*
X119126641Y-26916158D01*
X119064392Y-26822996D01*
X119014806Y-26748784D01*
X118972556Y-26720554D01*
X118233002Y-25981000D01*
X118255351Y-25981000D01*
X118542401Y-25862100D01*
X118762100Y-25642401D01*
X118881000Y-25355351D01*
X118881000Y-25206000D01*
X121527729Y-25206000D01*
X121556106Y-25348659D01*
X121640314Y-25474686D01*
X121766341Y-25558894D01*
X121915000Y-25588464D01*
X122585000Y-25588464D01*
X122733659Y-25558894D01*
X122859686Y-25474686D01*
X122943894Y-25348659D01*
X122973464Y-25200000D01*
X122973464Y-24200000D01*
X122943894Y-24051341D01*
X122880190Y-23956000D01*
X123369810Y-23956000D01*
X123306106Y-24051341D01*
M02*
