G04 #@! TF.GenerationSoftware,KiCad,Pcbnew,5.0.0-rc2-dev-unknown+dfsg1+20180318-3*
G04 #@! TF.CreationDate,2018-05-24T18:55:41-07:00*
G04 #@! TF.ProjectId,programmer,70726F6772616D6D65722E6B69636164,rev?*
G04 #@! TF.SameCoordinates,Original*
G04 #@! TF.FileFunction,Copper,L1,Top,Signal*
G04 #@! TF.FilePolarity,Positive*
%FSLAX46Y46*%
G04 Gerber Fmt 4.6, Leading zero omitted, Abs format (unit mm)*
G04 Created by KiCad (PCBNEW 5.0.0-rc2-dev-unknown+dfsg1+20180318-3) date Thu May 24 18:55:41 2018*
%MOMM*%
%LPD*%
G01*
G04 APERTURE LIST*
%ADD10R,0.740000X2.400000*%
%ADD11C,2.000000*%
%ADD12C,0.500000*%
%ADD13C,0.250000*%
%ADD14C,0.254000*%
G04 APERTURE END LIST*
D10*
X140940000Y-66650000D03*
X140940000Y-70550000D03*
X139670000Y-66650000D03*
X139670000Y-70550000D03*
X138400000Y-66650000D03*
X138400000Y-70550000D03*
X137130000Y-66650000D03*
X137130000Y-70550000D03*
X135860000Y-66650000D03*
X135860000Y-70550000D03*
D11*
X142140000Y-48800000D03*
X139600000Y-48800000D03*
X137060000Y-48800000D03*
X134520000Y-48800000D03*
D12*
X142140000Y-48800000D02*
X142140000Y-66320000D01*
X142140000Y-66320000D02*
X141810000Y-66650000D01*
X141810000Y-66650000D02*
X140940000Y-66650000D01*
D13*
X141200000Y-47200000D02*
X142800000Y-47200000D01*
X139600000Y-48800000D02*
X141200000Y-47200000D01*
X142800000Y-47200000D02*
X143600000Y-48000000D01*
X143600000Y-69400000D02*
X142450000Y-70550000D01*
X143600000Y-48000000D02*
X143600000Y-69400000D01*
X142450000Y-70550000D02*
X140940000Y-70550000D01*
X138400000Y-46600000D02*
X138200000Y-46600000D01*
X138800000Y-46600000D02*
X138400000Y-46600000D01*
X137060000Y-48800000D02*
X137060000Y-47385787D01*
X137060000Y-47385787D02*
X137845787Y-46600000D01*
X137845787Y-46600000D02*
X138400000Y-46600000D01*
X139200000Y-46600000D02*
X138800000Y-46600000D01*
X143000000Y-46600000D02*
X139200000Y-46600000D01*
X144200000Y-47800000D02*
X143000000Y-46600000D01*
X144200000Y-70600000D02*
X144200000Y-47800000D01*
X142400000Y-72400000D02*
X144200000Y-70600000D01*
X140070000Y-72400000D02*
X142400000Y-72400000D01*
X139670000Y-70550000D02*
X139670000Y-72000000D01*
X139670000Y-72000000D02*
X140070000Y-72400000D01*
D14*
X144873000Y-45127000D02*
X132127000Y-45127000D01*
X144873000Y-45368300D02*
X132127000Y-45368300D01*
X144873000Y-45609600D02*
X132127000Y-45609600D01*
X137716138Y-45850900D02*
X132127000Y-45850900D01*
X144873000Y-45850900D02*
X143129650Y-45850900D01*
X137271045Y-46092200D02*
X132127000Y-46092200D01*
X144873000Y-46092200D02*
X143574743Y-46092200D01*
X137037486Y-46333500D02*
X132127000Y-46333500D01*
X144873000Y-46333500D02*
X143808302Y-46333500D01*
X136796186Y-46574800D02*
X132127000Y-46574800D01*
X144873000Y-46574800D02*
X144049602Y-46574800D01*
X136544636Y-46816100D02*
X132127000Y-46816100D01*
X144873000Y-46816100D02*
X144290902Y-46816100D01*
X136365379Y-47057400D02*
X132127000Y-47057400D01*
X144873000Y-47057400D02*
X144532202Y-47057400D01*
X133843492Y-47298700D02*
X132127000Y-47298700D01*
X136302435Y-47298700D02*
X135173780Y-47298700D01*
X144873000Y-47298700D02*
X144779086Y-47298700D01*
X133586807Y-47540000D02*
X132127000Y-47540000D01*
X136007761Y-47540000D02*
X135453194Y-47540000D01*
X133680905Y-47781300D02*
X132127000Y-47781300D01*
X135766461Y-47781300D02*
X135359095Y-47781300D01*
X133064627Y-48022600D02*
X132127000Y-48022600D01*
X133922205Y-48022600D02*
X133562995Y-48022600D01*
X135477005Y-48022600D02*
X135117795Y-48022600D01*
X132974981Y-48263900D02*
X132127000Y-48263900D01*
X134163505Y-48263900D02*
X133804295Y-48263900D01*
X135235705Y-48263900D02*
X134876495Y-48263900D01*
X132885335Y-48505200D02*
X132127000Y-48505200D01*
X134404805Y-48505200D02*
X134045595Y-48505200D01*
X134994405Y-48505200D02*
X134635195Y-48505200D01*
X132881901Y-48746500D02*
X132127000Y-48746500D01*
X134753105Y-48746500D02*
X134286895Y-48746500D01*
X132890829Y-48987800D02*
X132127000Y-48987800D01*
X134511805Y-48987800D02*
X134152595Y-48987800D01*
X134887405Y-48987800D02*
X134528195Y-48987800D01*
X132916220Y-49229100D02*
X132127000Y-49229100D01*
X134270505Y-49229100D02*
X133911295Y-49229100D01*
X135128705Y-49229100D02*
X134769495Y-49229100D01*
X133016169Y-49470400D02*
X132127000Y-49470400D01*
X134029205Y-49470400D02*
X133669995Y-49470400D01*
X135370005Y-49470400D02*
X135010795Y-49470400D01*
X133201866Y-49711700D02*
X132127000Y-49711700D01*
X133787905Y-49711700D02*
X133428695Y-49711700D01*
X135611305Y-49711700D02*
X135252095Y-49711700D01*
X133547246Y-49953000D02*
X132127000Y-49953000D01*
X135900761Y-49953000D02*
X135492753Y-49953000D01*
X138440761Y-49953000D02*
X138219239Y-49953000D01*
X140980761Y-49953000D02*
X140759239Y-49953000D01*
X133636460Y-50194300D02*
X132127000Y-50194300D01*
X136153677Y-50194300D02*
X135403539Y-50194300D01*
X138693677Y-50194300D02*
X137966322Y-50194300D01*
X141233677Y-50194300D02*
X140506322Y-50194300D01*
X134227715Y-50435600D02*
X132127000Y-50435600D01*
X141255000Y-50435600D02*
X134534032Y-50435600D01*
X141255000Y-50676900D02*
X132127000Y-50676900D01*
X141255000Y-50918200D02*
X132127000Y-50918200D01*
X141255000Y-51159500D02*
X132127000Y-51159500D01*
X141255000Y-51400800D02*
X132127000Y-51400800D01*
X141255000Y-51642100D02*
X132127000Y-51642100D01*
X141255000Y-51883400D02*
X132127000Y-51883400D01*
X141255000Y-52124700D02*
X132127000Y-52124700D01*
X141255000Y-52366000D02*
X132127000Y-52366000D01*
X141255000Y-52607300D02*
X132127000Y-52607300D01*
X141255000Y-52848600D02*
X132127000Y-52848600D01*
X141255000Y-53089900D02*
X132127000Y-53089900D01*
X141255000Y-53331200D02*
X132127000Y-53331200D01*
X141255000Y-53572500D02*
X132127000Y-53572500D01*
X141255000Y-53813800D02*
X132127000Y-53813800D01*
X141255000Y-54055100D02*
X132127000Y-54055100D01*
X141255000Y-54296400D02*
X132127000Y-54296400D01*
X141255000Y-54537700D02*
X132127000Y-54537700D01*
X141255000Y-54779000D02*
X132127000Y-54779000D01*
X141255000Y-55020300D02*
X132127000Y-55020300D01*
X141255000Y-55261600D02*
X132127000Y-55261600D01*
X141255000Y-55502900D02*
X132127000Y-55502900D01*
X141255000Y-55744200D02*
X132127000Y-55744200D01*
X141255000Y-55985500D02*
X132127000Y-55985500D01*
X141255000Y-56226800D02*
X132127000Y-56226800D01*
X141255000Y-56468100D02*
X132127000Y-56468100D01*
X141255000Y-56709400D02*
X132127000Y-56709400D01*
X141255000Y-56950700D02*
X132127000Y-56950700D01*
X141255000Y-57192000D02*
X132127000Y-57192000D01*
X141255000Y-57433300D02*
X132127000Y-57433300D01*
X141255000Y-57674600D02*
X132127000Y-57674600D01*
X141255000Y-57915900D02*
X132127000Y-57915900D01*
X141255000Y-58157200D02*
X132127000Y-58157200D01*
X141255000Y-58398500D02*
X132127000Y-58398500D01*
X141255000Y-58639800D02*
X132127000Y-58639800D01*
X141255000Y-58881100D02*
X132127000Y-58881100D01*
X141255000Y-59122400D02*
X132127000Y-59122400D01*
X141255000Y-59363700D02*
X132127000Y-59363700D01*
X141255000Y-59605000D02*
X132127000Y-59605000D01*
X141255000Y-59846300D02*
X132127000Y-59846300D01*
X141255000Y-60087600D02*
X132127000Y-60087600D01*
X141255000Y-60328900D02*
X132127000Y-60328900D01*
X141255000Y-60570200D02*
X132127000Y-60570200D01*
X141255000Y-60811500D02*
X132127000Y-60811500D01*
X141255000Y-61052800D02*
X132127000Y-61052800D01*
X141255000Y-61294100D02*
X132127000Y-61294100D01*
X141255000Y-61535400D02*
X132127000Y-61535400D01*
X141255000Y-61776700D02*
X132127000Y-61776700D01*
X141255000Y-62018000D02*
X132127000Y-62018000D01*
X141255000Y-62259300D02*
X132127000Y-62259300D01*
X141255000Y-62500600D02*
X132127000Y-62500600D01*
X141255000Y-62741900D02*
X132127000Y-62741900D01*
X141255000Y-62983200D02*
X132127000Y-62983200D01*
X141255000Y-63224500D02*
X132127000Y-63224500D01*
X141255000Y-63465800D02*
X132127000Y-63465800D01*
X141255000Y-63707100D02*
X132127000Y-63707100D01*
X141255000Y-63948400D02*
X132127000Y-63948400D01*
X141255000Y-64189700D02*
X132127000Y-64189700D01*
X141255000Y-64431000D02*
X132127000Y-64431000D01*
X141255000Y-64672300D02*
X132127000Y-64672300D01*
X135128375Y-64913600D02*
X132127000Y-64913600D01*
X136047150Y-64913600D02*
X135672850Y-64913600D01*
X138587150Y-64913600D02*
X138212850Y-64913600D01*
X139857150Y-64913600D02*
X139482850Y-64913600D01*
X134924916Y-65154900D02*
X132127000Y-65154900D01*
X135987000Y-65154900D02*
X135733000Y-65154900D01*
X138527000Y-65154900D02*
X138273000Y-65154900D01*
X139797000Y-65154900D02*
X139543000Y-65154900D01*
X134855000Y-65396200D02*
X132127000Y-65396200D01*
X135987000Y-65396200D02*
X135733000Y-65396200D01*
X138527000Y-65396200D02*
X138273000Y-65396200D01*
X139797000Y-65396200D02*
X139543000Y-65396200D01*
X134855000Y-65637500D02*
X132127000Y-65637500D01*
X135987000Y-65637500D02*
X135733000Y-65637500D01*
X138527000Y-65637500D02*
X138273000Y-65637500D01*
X139797000Y-65637500D02*
X139543000Y-65637500D01*
X134855000Y-65878800D02*
X132127000Y-65878800D01*
X135987000Y-65878800D02*
X135733000Y-65878800D01*
X138527000Y-65878800D02*
X138273000Y-65878800D01*
X139797000Y-65878800D02*
X139543000Y-65878800D01*
X134855000Y-66120100D02*
X132127000Y-66120100D01*
X135987000Y-66120100D02*
X135733000Y-66120100D01*
X138527000Y-66120100D02*
X138273000Y-66120100D01*
X139797000Y-66120100D02*
X139543000Y-66120100D01*
X134855000Y-66361400D02*
X132127000Y-66361400D01*
X135987000Y-66361400D02*
X135733000Y-66361400D01*
X138527000Y-66361400D02*
X138273000Y-66361400D01*
X139797000Y-66361400D02*
X139543000Y-66361400D01*
X136007000Y-66602700D02*
X132127000Y-66602700D01*
X139817000Y-66602700D02*
X138253000Y-66602700D01*
X134946750Y-66844000D02*
X132127000Y-66844000D01*
X135987000Y-66844000D02*
X135733000Y-66844000D01*
X138527000Y-66844000D02*
X138273000Y-66844000D01*
X139797000Y-66844000D02*
X139543000Y-66844000D01*
X134855000Y-67085300D02*
X132127000Y-67085300D01*
X135987000Y-67085300D02*
X135733000Y-67085300D01*
X138527000Y-67085300D02*
X138273000Y-67085300D01*
X139797000Y-67085300D02*
X139543000Y-67085300D01*
X142840001Y-67085300D02*
X142626278Y-67085300D01*
X134855000Y-67326600D02*
X132127000Y-67326600D01*
X135987000Y-67326600D02*
X135733000Y-67326600D01*
X138527000Y-67326600D02*
X138273000Y-67326600D01*
X139797000Y-67326600D02*
X139543000Y-67326600D01*
X142840001Y-67326600D02*
X142390353Y-67326600D01*
X134855000Y-67567900D02*
X132127000Y-67567900D01*
X135987000Y-67567900D02*
X135733000Y-67567900D01*
X138527000Y-67567900D02*
X138273000Y-67567900D01*
X139797000Y-67567900D02*
X139543000Y-67567900D01*
X142840001Y-67567900D02*
X141957440Y-67567900D01*
X134855000Y-67809200D02*
X132127000Y-67809200D01*
X135987000Y-67809200D02*
X135733000Y-67809200D01*
X138527000Y-67809200D02*
X138273000Y-67809200D01*
X139797000Y-67809200D02*
X139543000Y-67809200D01*
X142840001Y-67809200D02*
X141957440Y-67809200D01*
X134885730Y-68050500D02*
X132127000Y-68050500D01*
X135987000Y-68050500D02*
X135733000Y-68050500D01*
X138527000Y-68050500D02*
X138273000Y-68050500D01*
X139797000Y-68050500D02*
X139543000Y-68050500D01*
X142840001Y-68050500D02*
X141917558Y-68050500D01*
X135033774Y-68291800D02*
X132127000Y-68291800D01*
X135987000Y-68291800D02*
X135733000Y-68291800D01*
X138527000Y-68291800D02*
X138273000Y-68291800D01*
X139797000Y-68291800D02*
X139543000Y-68291800D01*
X142840001Y-68291800D02*
X141778505Y-68291800D01*
X142840001Y-68533100D02*
X132127000Y-68533100D01*
X135208477Y-68774400D02*
X132127000Y-68774400D01*
X142840001Y-68774400D02*
X141591524Y-68774400D01*
X134949665Y-69015700D02*
X132127000Y-69015700D01*
X142840001Y-69015700D02*
X141850336Y-69015700D01*
X134861059Y-69257000D02*
X132127000Y-69257000D01*
X142668199Y-69257000D02*
X141938942Y-69257000D01*
X134842560Y-69498300D02*
X132127000Y-69498300D01*
X142426899Y-69498300D02*
X141957440Y-69498300D01*
X134842560Y-69739600D02*
X132127000Y-69739600D01*
X142185599Y-69739600D02*
X141957440Y-69739600D01*
X134842560Y-69980900D02*
X132127000Y-69980900D01*
X134842560Y-70222200D02*
X132127000Y-70222200D01*
X134842560Y-70463500D02*
X132127000Y-70463500D01*
X134842560Y-70704800D02*
X132127000Y-70704800D01*
X134842560Y-70946100D02*
X132127000Y-70946100D01*
X134842560Y-71187400D02*
X132127000Y-71187400D01*
X144873000Y-71187400D02*
X144688856Y-71187400D01*
X134842560Y-71428700D02*
X132127000Y-71428700D01*
X144873000Y-71428700D02*
X144446102Y-71428700D01*
X134842560Y-71670000D02*
X132127000Y-71670000D01*
X144873000Y-71670000D02*
X144204802Y-71670000D01*
X134874644Y-71911300D02*
X132127000Y-71911300D01*
X144873000Y-71911300D02*
X143963502Y-71911300D01*
X134995301Y-72152600D02*
X132127000Y-72152600D01*
X144873000Y-72152600D02*
X143722201Y-72152600D01*
X135472203Y-72393900D02*
X132127000Y-72393900D01*
X136742203Y-72393900D02*
X136247796Y-72393900D01*
X138012203Y-72393900D02*
X137517796Y-72393900D01*
X139019152Y-72393900D02*
X138787797Y-72393900D01*
X144873000Y-72393900D02*
X143480901Y-72393900D01*
X139230398Y-72635200D02*
X132127000Y-72635200D01*
X144873000Y-72635200D02*
X143239601Y-72635200D01*
X139471698Y-72876500D02*
X132127000Y-72876500D01*
X144873000Y-72876500D02*
X142998301Y-72876500D01*
X139782994Y-73117800D02*
X132127000Y-73117800D01*
X144873000Y-73117800D02*
X142687005Y-73117800D01*
X144873000Y-73359100D02*
X132127000Y-73359100D01*
X144873000Y-73600400D02*
X132127000Y-73600400D01*
X144873000Y-73841700D02*
X132127000Y-73841700D01*
X144873000Y-47439253D02*
X144873000Y-45127000D01*
X144873000Y-73873000D02*
X144873000Y-70960747D01*
X144631700Y-47156899D02*
X144631700Y-45127000D01*
X144631700Y-73873000D02*
X144631700Y-71243103D01*
X144390400Y-46915599D02*
X144390400Y-45127000D01*
X144390400Y-73873000D02*
X144390400Y-71484403D01*
X144149100Y-46674299D02*
X144149100Y-45127000D01*
X144149100Y-73873000D02*
X144149100Y-71725703D01*
X143907800Y-46432999D02*
X143907800Y-45127000D01*
X143907800Y-73873000D02*
X143907800Y-71967003D01*
X143666500Y-46191699D02*
X143666500Y-45127000D01*
X143666500Y-73873000D02*
X143666500Y-72208302D01*
X143425200Y-45970066D02*
X143425200Y-45127000D01*
X143425200Y-73873000D02*
X143425200Y-72449602D01*
X143183900Y-45861692D02*
X143183900Y-45127000D01*
X143183900Y-73873000D02*
X143183900Y-72690902D01*
X142942600Y-45836529D02*
X142942600Y-45127000D01*
X142942600Y-73873000D02*
X142942600Y-72951490D01*
X142701300Y-45840000D02*
X142701300Y-45127000D01*
X142701300Y-69223898D02*
X142701300Y-67010278D01*
X142701300Y-73873000D02*
X142701300Y-73112722D01*
X142460000Y-45840000D02*
X142460000Y-45127000D01*
X142460000Y-69465198D02*
X142460000Y-67270164D01*
X142460000Y-73873000D02*
X142460000Y-73162954D01*
X142218700Y-45840000D02*
X142218700Y-45127000D01*
X142218700Y-69706498D02*
X142218700Y-67441296D01*
X142218700Y-73873000D02*
X142218700Y-73160000D01*
X141977400Y-45840000D02*
X141977400Y-45127000D01*
X141977400Y-69790000D02*
X141977400Y-67519041D01*
X141977400Y-73873000D02*
X141977400Y-73160000D01*
X141736100Y-45840000D02*
X141736100Y-45127000D01*
X141736100Y-68871004D02*
X141736100Y-68328997D01*
X141736100Y-73873000D02*
X141736100Y-73160000D01*
X141494800Y-45840000D02*
X141494800Y-45127000D01*
X141494800Y-68739319D02*
X141494800Y-68460682D01*
X141494800Y-73873000D02*
X141494800Y-73160000D01*
X141253500Y-45840000D02*
X141253500Y-45127000D01*
X141253500Y-64802560D02*
X141253500Y-50202510D01*
X141253500Y-68702560D02*
X141253500Y-68497440D01*
X141253500Y-73873000D02*
X141253500Y-73160000D01*
X141012200Y-45840000D02*
X141012200Y-45127000D01*
X141012200Y-64802560D02*
X141012200Y-49984439D01*
X141012200Y-68702560D02*
X141012200Y-68497440D01*
X141012200Y-73873000D02*
X141012200Y-73160000D01*
X140770900Y-45840000D02*
X140770900Y-45127000D01*
X140770900Y-64802560D02*
X140770900Y-49941339D01*
X140770900Y-68702560D02*
X140770900Y-68497440D01*
X140770900Y-73873000D02*
X140770900Y-73160000D01*
X140529600Y-45840000D02*
X140529600Y-45127000D01*
X140529600Y-64810595D02*
X140529600Y-50182639D01*
X140529600Y-68710595D02*
X140529600Y-68489404D01*
X140529600Y-73873000D02*
X140529600Y-73160000D01*
X140288300Y-45840000D02*
X140288300Y-45127000D01*
X140288300Y-64865530D02*
X140288300Y-50284609D01*
X140288300Y-68752201D02*
X140288300Y-68434471D01*
X140288300Y-73873000D02*
X140288300Y-73160000D01*
X140047000Y-45840000D02*
X140047000Y-45127000D01*
X140047000Y-64815000D02*
X140047000Y-50384558D01*
X140047000Y-68703953D02*
X140047000Y-68485000D01*
X140047000Y-73873000D02*
X140047000Y-73170313D01*
X139805700Y-45840000D02*
X139805700Y-45127000D01*
X139805700Y-64965050D02*
X139805700Y-50435000D01*
X139805700Y-66777000D02*
X139805700Y-66523000D01*
X139805700Y-68702560D02*
X139805700Y-68334950D01*
X139805700Y-73873000D02*
X139805700Y-73122316D01*
X139564400Y-45840000D02*
X139564400Y-45127000D01*
X139564400Y-68702560D02*
X139564400Y-50435000D01*
X139564400Y-73873000D02*
X139564400Y-72976212D01*
X139323100Y-45840000D02*
X139323100Y-45127000D01*
X139323100Y-64815000D02*
X139323100Y-50435000D01*
X139323100Y-66777000D02*
X139323100Y-66523000D01*
X139323100Y-68702560D02*
X139323100Y-68485000D01*
X139323100Y-73873000D02*
X139323100Y-72727901D01*
X139081800Y-45840000D02*
X139081800Y-45127000D01*
X139081800Y-64853061D02*
X139081800Y-50355065D01*
X139081800Y-66777000D02*
X139081800Y-66523000D01*
X139081800Y-68745962D02*
X139081800Y-68446938D01*
X139081800Y-73873000D02*
X139081800Y-72487658D01*
X138840500Y-45840000D02*
X138840500Y-45127000D01*
X138840500Y-64815000D02*
X138840500Y-50255115D01*
X138840500Y-66777000D02*
X138840500Y-66523000D01*
X138840500Y-68716584D02*
X138840500Y-68485000D01*
X138840500Y-73873000D02*
X138840500Y-72383417D01*
X138599200Y-45840000D02*
X138599200Y-45127000D01*
X138599200Y-64901550D02*
X138599200Y-50111439D01*
X138599200Y-66777000D02*
X138599200Y-66523000D01*
X138599200Y-68702560D02*
X138599200Y-68398450D01*
X138599200Y-73873000D02*
X138599200Y-72397440D01*
X138357900Y-45840000D02*
X138357900Y-45127000D01*
X138357900Y-64973750D02*
X138357900Y-49870139D01*
X138357900Y-66777000D02*
X138357900Y-64973750D01*
X138357900Y-68702560D02*
X138357900Y-66777000D01*
X138357900Y-73873000D02*
X138357900Y-72397440D01*
X138116600Y-45840000D02*
X138116600Y-45127000D01*
X138116600Y-64817350D02*
X138116600Y-50055639D01*
X138116600Y-68702560D02*
X138116600Y-68482650D01*
X138116600Y-73873000D02*
X138116600Y-72397440D01*
X137875300Y-45830983D02*
X137875300Y-45127000D01*
X137875300Y-64826759D02*
X137875300Y-50232003D01*
X137875300Y-68733331D02*
X137875300Y-68473240D01*
X137875300Y-73873000D02*
X137875300Y-72366668D01*
X137634000Y-45867238D02*
X137634000Y-45127000D01*
X137634000Y-64829214D02*
X137634000Y-50331953D01*
X137634000Y-68729214D02*
X137634000Y-68470787D01*
X137634000Y-73873000D02*
X137634000Y-72370787D01*
X137392700Y-45988699D02*
X137392700Y-45127000D01*
X137392700Y-64802560D02*
X137392700Y-50431903D01*
X137392700Y-68702560D02*
X137392700Y-68497440D01*
X137392700Y-73873000D02*
X137392700Y-72397440D01*
X137151400Y-46219585D02*
X137151400Y-45127000D01*
X137151400Y-64802560D02*
X137151400Y-50435000D01*
X137151400Y-68702560D02*
X137151400Y-68497440D01*
X137151400Y-73873000D02*
X137151400Y-72397440D01*
X136910100Y-46460885D02*
X136910100Y-45127000D01*
X136910100Y-64802560D02*
X136910100Y-50435000D01*
X136910100Y-68702560D02*
X136910100Y-68497440D01*
X136910100Y-73873000D02*
X136910100Y-72397440D01*
X136668800Y-46702185D02*
X136668800Y-45127000D01*
X136668800Y-64820700D02*
X136668800Y-50407670D01*
X136668800Y-68720700D02*
X136668800Y-68479299D01*
X136668800Y-73873000D02*
X136668800Y-72379299D01*
X136427500Y-46964428D02*
X136427500Y-45127000D01*
X136427500Y-64844488D02*
X136427500Y-50307721D01*
X136427500Y-68741845D02*
X136427500Y-68455513D01*
X136427500Y-73873000D02*
X136427500Y-72358156D01*
X136186200Y-47392228D02*
X136186200Y-45127000D01*
X136186200Y-64815000D02*
X136186200Y-50207771D01*
X136186200Y-68702560D02*
X136186200Y-68485000D01*
X136186200Y-73873000D02*
X136186200Y-72397440D01*
X135944900Y-47602861D02*
X135944900Y-45127000D01*
X135944900Y-64973750D02*
X135944900Y-49997139D01*
X135944900Y-68702560D02*
X135944900Y-64973750D01*
X135944900Y-73873000D02*
X135944900Y-72397440D01*
X135703600Y-47838561D02*
X135703600Y-45127000D01*
X135703600Y-64944350D02*
X135703600Y-49761440D01*
X135703600Y-66777000D02*
X135703600Y-66523000D01*
X135703600Y-68702560D02*
X135703600Y-68355650D01*
X135703600Y-73873000D02*
X135703600Y-72397440D01*
X135462300Y-47564631D02*
X135462300Y-45127000D01*
X135462300Y-48037305D02*
X135462300Y-47678095D01*
X135462300Y-49921905D02*
X135462300Y-49562695D01*
X135462300Y-64815000D02*
X135462300Y-50035370D01*
X135462300Y-66777000D02*
X135462300Y-66523000D01*
X135462300Y-68708069D02*
X135462300Y-68485000D01*
X135462300Y-73873000D02*
X135462300Y-72391930D01*
X135221000Y-47316244D02*
X135221000Y-45127000D01*
X135221000Y-48278605D02*
X135221000Y-47919395D01*
X135221000Y-49680605D02*
X135221000Y-49321395D01*
X135221000Y-64874104D02*
X135221000Y-50291156D01*
X135221000Y-66777000D02*
X135221000Y-66523000D01*
X135221000Y-68766031D02*
X135221000Y-68425895D01*
X135221000Y-73873000D02*
X135221000Y-72333968D01*
X134979700Y-47226597D02*
X134979700Y-45127000D01*
X134979700Y-48519905D02*
X134979700Y-48160695D01*
X134979700Y-49439305D02*
X134979700Y-49080095D01*
X134979700Y-65062274D02*
X134979700Y-50391105D01*
X134979700Y-66811050D02*
X134979700Y-66488950D01*
X134979700Y-68970748D02*
X134979700Y-68237725D01*
X134979700Y-73873000D02*
X134979700Y-72129251D01*
X134738400Y-47155799D02*
X134738400Y-45127000D01*
X134738400Y-48761205D02*
X134738400Y-48401995D01*
X134738400Y-49198005D02*
X134738400Y-48838795D01*
X134738400Y-65323691D02*
X134738400Y-50428038D01*
X134738400Y-66935750D02*
X134738400Y-65323691D01*
X134738400Y-73873000D02*
X134738400Y-66935750D01*
X134497100Y-47164728D02*
X134497100Y-45127000D01*
X134497100Y-49002505D02*
X134497100Y-48597495D01*
X134497100Y-65323691D02*
X134497100Y-50436967D01*
X134497100Y-66935750D02*
X134497100Y-65323691D01*
X134497100Y-73873000D02*
X134497100Y-66935750D01*
X134255800Y-47173656D02*
X134255800Y-45127000D01*
X134255800Y-48715405D02*
X134255800Y-48356195D01*
X134255800Y-49243805D02*
X134255800Y-48884595D01*
X134255800Y-65323691D02*
X134255800Y-50445896D01*
X134255800Y-66935750D02*
X134255800Y-65323691D01*
X134255800Y-73873000D02*
X134255800Y-66935750D01*
X134014500Y-47227866D02*
X134014500Y-45127000D01*
X134014500Y-48474105D02*
X134014500Y-48114895D01*
X134014500Y-49485105D02*
X134014500Y-49125895D01*
X134014500Y-65323691D02*
X134014500Y-50356387D01*
X134014500Y-66935750D02*
X134014500Y-65323691D01*
X134014500Y-73873000D02*
X134014500Y-66935750D01*
X133773200Y-47327815D02*
X133773200Y-45127000D01*
X133773200Y-48232805D02*
X133773200Y-47873595D01*
X133773200Y-49726405D02*
X133773200Y-49367195D01*
X133773200Y-65323691D02*
X133773200Y-50266741D01*
X133773200Y-66935750D02*
X133773200Y-65323691D01*
X133773200Y-73873000D02*
X133773200Y-66935750D01*
X133531900Y-47647468D02*
X133531900Y-45127000D01*
X133531900Y-47991505D02*
X133531900Y-47647468D01*
X133531900Y-49952532D02*
X133531900Y-49608495D01*
X133531900Y-65323691D02*
X133531900Y-49952532D01*
X133531900Y-66935750D02*
X133531900Y-65323691D01*
X133531900Y-73873000D02*
X133531900Y-66935750D01*
X133290600Y-47647468D02*
X133290600Y-45127000D01*
X133290600Y-47855493D02*
X133290600Y-47647468D01*
X133290600Y-49952532D02*
X133290600Y-49744506D01*
X133290600Y-65323691D02*
X133290600Y-49952532D01*
X133290600Y-66935750D02*
X133290600Y-65323691D01*
X133290600Y-73873000D02*
X133290600Y-66935750D01*
X133049300Y-47647468D02*
X133049300Y-45127000D01*
X133049300Y-48063854D02*
X133049300Y-47647468D01*
X133049300Y-49952532D02*
X133049300Y-49550383D01*
X133049300Y-65323691D02*
X133049300Y-49952532D01*
X133049300Y-66935750D02*
X133049300Y-65323691D01*
X133049300Y-73873000D02*
X133049300Y-66935750D01*
X132808000Y-47647468D02*
X132808000Y-45127000D01*
X132808000Y-48535461D02*
X132808000Y-47647468D01*
X132808000Y-49952532D02*
X132808000Y-48535461D01*
X132808000Y-65323691D02*
X132808000Y-49952532D01*
X132808000Y-66935750D02*
X132808000Y-65323691D01*
X132808000Y-73873000D02*
X132808000Y-66935750D01*
X132566700Y-47647468D02*
X132566700Y-45127000D01*
X132566700Y-48535461D02*
X132566700Y-47647468D01*
X132566700Y-49952532D02*
X132566700Y-48535461D01*
X132566700Y-65323691D02*
X132566700Y-49952532D01*
X132566700Y-66935750D02*
X132566700Y-65323691D01*
X132566700Y-73873000D02*
X132566700Y-66935750D01*
X132325400Y-47647468D02*
X132325400Y-45127000D01*
X132325400Y-48535461D02*
X132325400Y-47647468D01*
X132325400Y-49952532D02*
X132325400Y-48535461D01*
X132325400Y-65323691D02*
X132325400Y-49952532D01*
X132325400Y-66935750D02*
X132325400Y-65323691D01*
X132325400Y-73873000D02*
X132325400Y-66935750D01*
X144873000Y-47439253D02*
X144747929Y-47252071D01*
X144684473Y-47209671D01*
X143590331Y-46115530D01*
X143547929Y-46052071D01*
X143296537Y-45884096D01*
X143074852Y-45840000D01*
X143074847Y-45840000D01*
X143000000Y-45825112D01*
X142925153Y-45840000D01*
X137920635Y-45840000D01*
X137845787Y-45825112D01*
X137770939Y-45840000D01*
X137770935Y-45840000D01*
X137549250Y-45884096D01*
X137297858Y-46052071D01*
X137255458Y-46115527D01*
X136575528Y-46795458D01*
X136512072Y-46837858D01*
X136344097Y-47089250D01*
X136317073Y-47225111D01*
X136292597Y-47348158D01*
X136133847Y-47413914D01*
X135707689Y-47840072D01*
X135672532Y-47827073D01*
X134699605Y-48800000D01*
X135672532Y-49772927D01*
X135707689Y-49759928D01*
X136133847Y-50186086D01*
X136734778Y-50435000D01*
X137385222Y-50435000D01*
X137986153Y-50186086D01*
X138330000Y-49842239D01*
X138673847Y-50186086D01*
X139274778Y-50435000D01*
X139925222Y-50435000D01*
X140526153Y-50186086D01*
X140870000Y-49842239D01*
X141213847Y-50186086D01*
X141255000Y-50203132D01*
X141255001Y-64802560D01*
X140570000Y-64802560D01*
X140322235Y-64851843D01*
X140296604Y-64868969D01*
X140166310Y-64815000D01*
X139955750Y-64815000D01*
X139797000Y-64973750D01*
X139797000Y-66523000D01*
X139817000Y-66523000D01*
X139817000Y-66777000D01*
X139797000Y-66777000D01*
X139797000Y-68326250D01*
X139955750Y-68485000D01*
X140166310Y-68485000D01*
X140296604Y-68431031D01*
X140322235Y-68448157D01*
X140570000Y-68497440D01*
X141310000Y-68497440D01*
X141557765Y-68448157D01*
X141767809Y-68307809D01*
X141908157Y-68097765D01*
X141957440Y-67850000D01*
X141957440Y-67523011D01*
X142155310Y-67483652D01*
X142448049Y-67288049D01*
X142497425Y-67214153D01*
X142704153Y-67007425D01*
X142778049Y-66958049D01*
X142840001Y-66865332D01*
X142840001Y-69085197D01*
X142135199Y-69790000D01*
X141957440Y-69790000D01*
X141957440Y-69350000D01*
X141908157Y-69102235D01*
X141767809Y-68892191D01*
X141557765Y-68751843D01*
X141310000Y-68702560D01*
X140570000Y-68702560D01*
X140322235Y-68751843D01*
X140305000Y-68763359D01*
X140287765Y-68751843D01*
X140040000Y-68702560D01*
X139300000Y-68702560D01*
X139052235Y-68751843D01*
X139035000Y-68763359D01*
X139017765Y-68751843D01*
X138770000Y-68702560D01*
X138030000Y-68702560D01*
X137782235Y-68751843D01*
X137765000Y-68763359D01*
X137747765Y-68751843D01*
X137500000Y-68702560D01*
X136760000Y-68702560D01*
X136512235Y-68751843D01*
X136495000Y-68763359D01*
X136477765Y-68751843D01*
X136230000Y-68702560D01*
X135490000Y-68702560D01*
X135242235Y-68751843D01*
X135032191Y-68892191D01*
X134891843Y-69102235D01*
X134842560Y-69350000D01*
X134842560Y-71750000D01*
X134891843Y-71997765D01*
X135032191Y-72207809D01*
X135242235Y-72348157D01*
X135490000Y-72397440D01*
X136230000Y-72397440D01*
X136477765Y-72348157D01*
X136495000Y-72336641D01*
X136512235Y-72348157D01*
X136760000Y-72397440D01*
X137500000Y-72397440D01*
X137747765Y-72348157D01*
X137765000Y-72336641D01*
X137782235Y-72348157D01*
X138030000Y-72397440D01*
X138770000Y-72397440D01*
X138992011Y-72353280D01*
X139122072Y-72547929D01*
X139185527Y-72590329D01*
X139479671Y-72884472D01*
X139522071Y-72947929D01*
X139773463Y-73115904D01*
X139995148Y-73160000D01*
X139995152Y-73160000D01*
X140069999Y-73174888D01*
X140144846Y-73160000D01*
X142325153Y-73160000D01*
X142400000Y-73174888D01*
X142474847Y-73160000D01*
X142474852Y-73160000D01*
X142696537Y-73115904D01*
X142947929Y-72947929D01*
X142990331Y-72884470D01*
X144684476Y-71190327D01*
X144747929Y-71147929D01*
X144790327Y-71084476D01*
X144790329Y-71084474D01*
X144873000Y-70960747D01*
X144873000Y-73873000D01*
X132127000Y-73873000D01*
X132127000Y-66935750D01*
X134855000Y-66935750D01*
X134855000Y-67976309D01*
X134951673Y-68209698D01*
X135130301Y-68388327D01*
X135363690Y-68485000D01*
X135574250Y-68485000D01*
X135733000Y-68326250D01*
X135733000Y-66777000D01*
X135013750Y-66777000D01*
X134855000Y-66935750D01*
X132127000Y-66935750D01*
X132127000Y-65323691D01*
X134855000Y-65323691D01*
X134855000Y-66364250D01*
X135013750Y-66523000D01*
X135733000Y-66523000D01*
X135733000Y-64973750D01*
X135987000Y-64973750D01*
X135987000Y-66523000D01*
X136007000Y-66523000D01*
X136007000Y-66777000D01*
X135987000Y-66777000D01*
X135987000Y-68326250D01*
X136145750Y-68485000D01*
X136356310Y-68485000D01*
X136486604Y-68431031D01*
X136512235Y-68448157D01*
X136760000Y-68497440D01*
X137500000Y-68497440D01*
X137747765Y-68448157D01*
X137773396Y-68431031D01*
X137903690Y-68485000D01*
X138114250Y-68485000D01*
X138273000Y-68326250D01*
X138273000Y-66777000D01*
X138527000Y-66777000D01*
X138527000Y-68326250D01*
X138685750Y-68485000D01*
X138896310Y-68485000D01*
X139035000Y-68427553D01*
X139173690Y-68485000D01*
X139384250Y-68485000D01*
X139543000Y-68326250D01*
X139543000Y-66777000D01*
X138527000Y-66777000D01*
X138273000Y-66777000D01*
X138253000Y-66777000D01*
X138253000Y-66523000D01*
X138273000Y-66523000D01*
X138273000Y-64973750D01*
X138527000Y-64973750D01*
X138527000Y-66523000D01*
X139543000Y-66523000D01*
X139543000Y-64973750D01*
X139384250Y-64815000D01*
X139173690Y-64815000D01*
X139035000Y-64872447D01*
X138896310Y-64815000D01*
X138685750Y-64815000D01*
X138527000Y-64973750D01*
X138273000Y-64973750D01*
X138114250Y-64815000D01*
X137903690Y-64815000D01*
X137773396Y-64868969D01*
X137747765Y-64851843D01*
X137500000Y-64802560D01*
X136760000Y-64802560D01*
X136512235Y-64851843D01*
X136486604Y-64868969D01*
X136356310Y-64815000D01*
X136145750Y-64815000D01*
X135987000Y-64973750D01*
X135733000Y-64973750D01*
X135574250Y-64815000D01*
X135363690Y-64815000D01*
X135130301Y-64911673D01*
X134951673Y-65090302D01*
X134855000Y-65323691D01*
X132127000Y-65323691D01*
X132127000Y-49952532D01*
X133547073Y-49952532D01*
X133645736Y-50219387D01*
X134255461Y-50445908D01*
X134905460Y-50421856D01*
X135394264Y-50219387D01*
X135492927Y-49952532D01*
X134520000Y-48979605D01*
X133547073Y-49952532D01*
X132127000Y-49952532D01*
X132127000Y-48535461D01*
X132874092Y-48535461D01*
X132898144Y-49185460D01*
X133100613Y-49674264D01*
X133367468Y-49772927D01*
X134340395Y-48800000D01*
X133367468Y-47827073D01*
X133100613Y-47925736D01*
X132874092Y-48535461D01*
X132127000Y-48535461D01*
X132127000Y-47647468D01*
X133547073Y-47647468D01*
X134520000Y-48620395D01*
X135492927Y-47647468D01*
X135394264Y-47380613D01*
X134784539Y-47154092D01*
X134134540Y-47178144D01*
X133645736Y-47380613D01*
X133547073Y-47647468D01*
X132127000Y-47647468D01*
X132127000Y-45127000D01*
X144873000Y-45127000D01*
X144873000Y-47439253D01*
M02*
