G04 #@! TF.GenerationSoftware,KiCad,Pcbnew,5.0.0-rc2-dev-unknown+dfsg1+20180318-3*
G04 #@! TF.CreationDate,2018-05-24T18:55:41-07:00*
G04 #@! TF.ProjectId,programmer,70726F6772616D6D65722E6B69636164,rev?*
G04 #@! TF.SameCoordinates,Original*
G04 #@! TF.FileFunction,Legend,Top*
G04 #@! TF.FilePolarity,Positive*
%FSLAX46Y46*%
G04 Gerber Fmt 4.6, Leading zero omitted, Abs format (unit mm)*
G04 Created by KiCad (PCBNEW 5.0.0-rc2-dev-unknown+dfsg1+20180318-3) date Thu May 24 18:55:41 2018*
%MOMM*%
%LPD*%
G01*
G04 APERTURE LIST*
%ADD10C,0.120000*%
%ADD11C,0.150000*%
G04 APERTURE END LIST*
D10*
X141635000Y-66835000D02*
X141635000Y-70365000D01*
X135165000Y-66835000D02*
X135165000Y-70365000D01*
X141570000Y-65510000D02*
X141570000Y-66835000D01*
X141635000Y-66835000D02*
X141570000Y-66835000D01*
X141635000Y-70365000D02*
X141570000Y-70365000D01*
X135230000Y-66835000D02*
X135165000Y-66835000D01*
X135230000Y-70365000D02*
X135165000Y-70365000D01*
D11*
X138066666Y-63452380D02*
X138066666Y-64166666D01*
X138019047Y-64309523D01*
X137923809Y-64404761D01*
X137780952Y-64452380D01*
X137685714Y-64452380D01*
X139066666Y-64452380D02*
X138495238Y-64452380D01*
X138780952Y-64452380D02*
X138780952Y-63452380D01*
X138685714Y-63595238D01*
X138590476Y-63690476D01*
X138495238Y-63738095D01*
X137996666Y-51052380D02*
X137996666Y-51766666D01*
X137949047Y-51909523D01*
X137853809Y-52004761D01*
X137710952Y-52052380D01*
X137615714Y-52052380D01*
X138425238Y-51147619D02*
X138472857Y-51100000D01*
X138568095Y-51052380D01*
X138806190Y-51052380D01*
X138901428Y-51100000D01*
X138949047Y-51147619D01*
X138996666Y-51242857D01*
X138996666Y-51338095D01*
X138949047Y-51480952D01*
X138377619Y-52052380D01*
X138996666Y-52052380D01*
M02*
